<svg id="Capa_1" xmlns="http://www.w3.org/2000/svg" width="1387.5" height="420" viewBox="0 0 1387.5 420"><style>.st0{fill:#1ec1b3;stroke:#3f352e;stroke-miterlimit:10}</style><path class="st0" d="M-.5-.5v322.709c11-.752 21.716-2.074 30.589-4.049 25.826-5.75 175.298-7.053 202.879-6.118 45.704 1.554 92.73 6.589 138.501 4.734 50.587-2.05 101.009-6.198 152.066-6.198 37.467 0 70.786.666 108.121 1.897 9.568 15.396 21.964 28.647 30.618 44.607 6.615 12.194 11.27 32.765 23.233 39.685 13.874 8.023 22.456-16.596 28.251-27.126 12.535-22.767 27.417-43.36 40.481-65.578 5.154-.333 10.277-.367 15.34.056 22.158 1.854 46.801 6.236 69.525 6.973 45.604 1.477 89.537 8.102 135.486 8.455 34.881.268 69.542 3.865 104.716 2.416 35.119-1.447 211.484-4.866 246.15-9.404 21.434-2.805 41.042.721 62.042 2.64V-.5H-.5z"/></svg>