<svg xmlns="http://www.w3.org/2000/svg" width="963.429" height="500.571" viewBox="0 0 963.429 500.571"><path fill="none" stroke="#4F504E" stroke-miterlimit="10" stroke-dasharray="4" d="M728.26 14.108c-.539-.752-1.5-2.999 113.356-3.558 18.61-.503 38.688 2.575 57.739 3.268 17.289.626 50.791-7.379 53.871 11.223 3.159 19.076-7.735 38.223-10.118 56.965-2.853 22.425-3.887 44.939-6.977 67.365-4.304 31.22-3.251 63.76-3.862 95.188-.921 47.264-1.373 94.537-1.696 141.809a18729.795 18729.795 0 0 0-.366 75.745c-.008 2.686.508 6.225-.264 8.781-2.24 7.439-10.479 5.542-16.742 5.268-5.48-.241-13.467-.751-18.523 1.838M227.271 12.609c.54-.753-105.327 2.861-105.448 3.26-18.611-.504-38.688 2.574-57.739 3.265-17.288.628-50.792-7.376-53.872 11.226-3.159 19.076 7.736 38.221 10.118 56.962 2.852 22.426 3.886 44.939 6.977 67.365 3.851 27.939 7.947 289.106 7.947 317.87"/></svg>