<svg xmlns="http://www.w3.org/2000/svg" width="963.429" height="500.571" viewBox="0 0 963.429 500.571"><path fill="none" stroke="#4F504E" stroke-miterlimit="10" stroke-dasharray="4" d="M728.259 22.108c-.539-.752-1.5-2.999 113.357-3.558 18.609-.503 38.688 2.575 57.738 3.268 17.289.626 50.791-7.379 53.871 11.223 3.16 19.076-7.734 38.223-10.117 56.965-2.854 22.425-3.887 44.939-6.977 67.365-4.305 31.22-3.252 63.76-3.863 95.188-.92 47.264-1.373 94.537-1.695 141.809a18410.294 18410.294 0 0 0-.367 75.746c-.008 2.686.508 6.225-.264 8.781-2.24 7.439-10.479 5.541-16.742 5.268-5.48-.242-13.467-.752-18.523 1.838M227.271 20.609c.54-.753-105.327 2.861-105.448 3.26-18.611-.504-38.688 2.574-57.739 3.265-17.288.628-50.792-7.376-53.872 11.226-3.159 19.076 7.736 38.221 10.118 56.962 2.852 22.426 3.886 44.939 6.977 67.365 3.851 27.939 7.947 289.106 7.947 317.87M34.678 480.5c11.32-4.48 26.646 2.449 38.5-.5"/></svg>