<svg xmlns="http://www.w3.org/2000/svg" width="262.488" height="446.979" viewBox="0 0 262.488 446.979"><path fill="#C95E5A" d="M152.473 354.211c40.586-79.433 121.094-189.452 73.767-283.042-23.857-47.142-55.923-59.456-106.597-59.426-55.584.032-74.137 33.119-91.318 81.421-49.27 138.602 100.822 207.409 107.35 330.541 3.317-28.252 9.281-60.224 23.511-82.269"/><path fill="#3E342D" d="M138.653 424.055l-5.975-.19c-2.713-51.182-31.206-93.684-58.761-134.786-18.976-28.307-38.597-57.575-49.493-89.323-12.287-35.805-11.937-70.999 1.073-107.596C41.725 46.541 60.009 8.777 119.641 8.743h.187c28.119 0 48.032 3.813 64.548 12.359 18.381 9.51 32.535 24.988 44.541 48.712 40.4 79.891-10.684 171.526-51.731 245.156-7.975 14.307-15.508 27.819-22.041 40.605l-.152-.078c-9.874 21.763-14.018 48.789-16.34 68.558zM119.827 14.743h-.183c-25.318.015-43.715 6.905-57.897 21.687-14.046 14.64-23.006 36.402-30.596 57.74-12.711 35.757-13.045 68.688-1.051 103.637 10.641 31.006 30.041 59.944 48.801 87.93 23.927 35.691 48.549 72.418 56.961 115.304 3.553-20.646 9.56-43.738 20.707-61.084 4.817-8.967 9.996-18.257 15.375-27.906 20.282-36.383 43.27-77.619 55.909-118.859 14.404-47.002 13-86.473-4.292-120.668-11.409-22.543-24.736-37.188-41.943-46.092-15.619-8.082-34.683-11.689-61.791-11.689z"/><path fill="#FFF" d="M101.58 59.267c-89.829 36.109-24.77 178.438 59.507 123.972 35.661-22.998 54.776-74.575 20.671-104.631-30.279-26.779-51.084-23.767-84.122-18.748"/><path fill="#3E342D" d="M123.147 197.51c-10.409 0-20.512-2.785-29.905-8.381-23.865-14.218-38.949-44.526-36.682-73.704 1.99-25.62 16.476-45.591 40.92-56.587l-.145-.956c32.895-4.998 54.625-8.297 85.748 19.228 13.352 11.767 19.702 27.452 18.36 45.357-1.776 23.698-17.191 48.212-39.272 62.452-12.963 8.378-26.224 12.591-39.024 12.591zm-21.02-136.308C77.264 71.27 62.499 90.628 60.548 115.734c-2.154 27.721 12.132 56.488 34.742 69.958 19.567 11.656 42.549 10.19 64.711-4.134 21.067-13.587 35.768-36.898 37.453-59.391 1.244-16.607-4.641-31.151-17.019-42.06-28.441-25.153-47.854-23.473-78.308-18.905z"/><path fill="#C85B5D" d="M147.109 141.604c.037-.952 5.499-4.142 6.799-5.603 1.046-1.171 1.797-2.433 2.563-3.75 1.068-1.829 1.148-1.867 3.477-2.183 7.523-1.021 10.76-5.259 10.76-12.164 0-5.929-2.212-11.096-7.725-13.512-3.391-1.483-10.168 3.301-9.467 3.284.436-14.464-16.7-15.939-23.877-16.362-4.005-.235-35.31-.248-34.357 25.23-3.391-.407-5.482-1.52-8.442 1.174-2.441 2.222-3.855 5.343-4.353 8.653-1.012 6.745 1.755 14.179 8.903 15.241 3.297.489 4.618-.539 7.41-1.885 2.965 2.706 6.854 7.895 11.279 6.036.138 2.131-.016 3.121-.615 4.987-.551 1.708-.561 3.263.002 4.994 1.135 3.522 2.899 5.209 6.312 6.317 3.324 1.074 6.717-.074 9.957 1.137 3.111 1.16 6.623 1.117 9.852-.051 2.194-.79 3.752-1.94 5.599-3.537.489-.424.554-.909 1.135-1.261.407-.243 1.432-.259 1.958-.483.925-.395 1.987-1.062 2.626-1.904 1.698-2.253 2.244-12.345.204-14.358"/><path fill="#3E342D" d="M130.517 165.027h-.002c-1.779 0-3.503-.307-5.12-.91-1.38-.516-2.837-.559-4.465-.559h-.582c-1.644 0-3.255-.041-4.87-.563-3.78-1.229-5.727-3.175-6.941-6.948-.618-1.899-.62-3.678-.004-5.593.428-1.33.614-2.147.614-3.399a5.76 5.76 0 0 1-.974.082c-3.318 0-6.177-2.863-8.474-5.165-.369-.371-.729-.73-1.076-1.066-.176.088-.346.176-.512.26-2.145 1.082-3.705 1.889-6.862 1.418-2.939-.438-5.421-1.919-7.173-4.285-2.273-3.073-3.23-7.584-2.559-12.07.568-3.78 2.182-6.973 4.662-9.23 1.525-1.388 2.991-2.007 4.76-2.007.887 0 1.766.153 2.699.313.21.036.424.073.646.109 0-6.317 1.99-11.581 5.918-15.66 8.452-8.773 23.403-9.456 27.784-9.456.76 0 1.346.021 1.711.042 5.961.351 23.586 1.388 24.746 15.312 1.801-1.138 4.662-2.521 7.018-2.521.714 0 1.358.124 1.916.367 5.358 2.349 8.31 7.464 8.31 14.408 0 7.671-3.905 12.09-11.608 13.134-1.915.26-1.915.26-2.762 1.706-.862 1.481-1.607 2.709-2.678 3.909-.635.711-1.979 1.67-3.402 2.684-.967.689-2.34 1.67-2.939 2.238 1.921 3.351 1.089 12.719-.612 14.978-.935 1.235-2.423 1.959-3.02 2.216-.355.152-.776.221-1.182.29-.228.036-.571.094-.677.142-.118.072-.188.172-.336.39a3.656 3.656 0 0 1-.645.763c-1.947 1.684-3.614 2.893-5.908 3.718a15.906 15.906 0 0 1-5.401.953zm-9.587-3.425c1.819 0 3.463.054 5.148.685 1.399.52 2.891.783 4.437.783h.002c1.602 0 3.196-.282 4.738-.841 2.019-.727 3.47-1.779 5.289-3.356.114-.099.195-.216.306-.378.191-.283.455-.67.968-.979.378-.227.849-.307 1.345-.389.265-.044.593-.098.732-.158.946-.401 1.779-.998 2.23-1.594 1.409-1.874 1.92-11.473.299-13.074l-.311-.303.02-.432c.036-.937 1.059-1.747 3.968-3.822 1.214-.864 2.589-1.843 3.079-2.394.945-1.062 1.639-2.206 2.445-3.592 1.254-2.146 1.65-2.314 4.191-2.658 6.763-.918 9.913-4.477 9.913-11.195 0-4.329-1.239-10.029-7.138-12.615-.308-.136-.688-.202-1.131-.202-2.551 0-6.008 2.127-6.972 2.896l-1.595.673-.35-1.439c.056-13.569-17.248-14.588-22.963-14.924-.34-.021-.885-.039-1.596-.039-4.187 0-18.457.641-26.375 8.855-3.785 3.932-5.586 9.114-5.351 15.4l.042 1.145-1.136-.137a35.59 35.59 0 0 1-1.861-.285c-.883-.15-1.647-.285-2.366-.285-.935 0-1.997.184-3.44 1.495-2.145 1.953-3.544 4.746-4.045 8.075-.596 3.984.226 7.952 2.196 10.614 1.457 1.969 3.437 3.15 5.886 3.514 2.48.364 3.666-.209 5.695-1.229.355-.182.734-.371 1.146-.567l.594-.287.489.445c.517.469 1.058 1.012 1.625 1.581 2.595 2.6 5.665 5.516 8.616 4.275l1.268-.533.088 1.373c.149 2.332-.043 3.429-.662 5.35-.488 1.523-.488 2.881.002 4.393 1.021 3.167 2.509 4.658 5.686 5.688 1.344.434 2.726.468 4.266.468h.583zM193.201 431.01c-8.771 0-17.54-1.119-26.591-2.274l-2.542-.323c-17.356-2.197-36.144-2.694-53.862-2.904-5.99-.072-12.252.474-18.889 1.05-12.627 1.095-25.683 2.229-37.045-1.095l.562-1.92c11.001 3.218 23.867 2.102 36.311 1.021 6.688-.581 13.005-1.125 19.085-1.057 17.777.211 36.634.71 54.089 2.92l2.544.324c15.891 2.026 30.9 3.942 46.423-.215l.518 1.932c-6.958 1.864-13.781 2.541-20.603 2.541z"/></svg>