<svg width="251" height="58" viewBox="0 0 251 58" fill="none" xmlns="http://www.w3.org/2000/svg">
<path fill-rule="evenodd" clip-rule="evenodd" d="M123.05 10.1104C121.802 10.3471 120.319 11.5485 119.654 12.8627C119.224 13.7131 119.064 14.348 119.06 15.2244C119.055 16.2245 119.292 16.9007 119.849 17.4763C120.335 17.9784 120.596 18.135 121.223 18.2984C123.172 18.8062 125.414 17.5383 126.522 15.3025C127.503 13.3222 127.033 11.1851 125.444 10.4028C124.73 10.0507 123.9 9.9493 123.05 10.1104ZM183.167 10.1515C182.352 10.3444 181.693 10.7395 180.936 11.4885C180.378 12.04 180.171 12.321 179.859 12.9444C178.993 14.679 179.114 16.5054 180.166 17.5661C180.578 17.9816 180.864 18.1438 181.457 18.2984C182.864 18.6649 184.275 18.1927 185.582 16.9179C186.192 16.3221 186.37 16.0837 186.697 15.4201C187.187 14.4259 187.308 13.8974 187.261 12.9592C187.217 12.0676 186.974 11.4889 186.416 10.9458C185.589 10.1403 184.421 9.85484 183.167 10.1515ZM145.945 21.871C144.567 22.0264 142.901 22.6282 141.605 23.4384C140.141 24.3545 138.27 26.0454 137.195 27.4254C136.616 28.1685 136.398 28.4269 136.498 28.2505C136.555 28.1506 138.512 22.8539 138.576 22.6275C138.614 22.491 138.438 22.4821 135.727 22.4821C133.054 22.4821 132.834 22.4929 132.78 22.6275C132.577 23.1357 130.982 27.6922 129.845 31.0087C129.108 33.1623 128.456 35.013 128.398 35.1213C128.34 35.2296 127.902 35.8977 127.425 36.606C124.639 40.7424 121.755 43.5397 119.718 44.0803C119.17 44.2257 118.353 44.1595 118.058 43.9457C117.441 43.4989 117.222 42.7685 117.303 41.4248C117.454 38.9322 118.602 35.3442 122.234 26.0151C122.963 24.1427 123.56 22.5813 123.56 22.5454C123.56 22.5094 122.178 22.4898 120.49 22.5018L117.42 22.5236L117.004 23.6452C115.775 26.9589 113.839 32.3243 113.466 33.4489C111.548 39.2345 110.932 43.426 111.621 46.0177C111.892 47.0393 112.231 47.6351 112.936 48.3269C113.549 48.9293 114.193 49.2735 115.191 49.533C116.088 49.7661 118.333 49.7486 119.269 49.5013C120.639 49.1394 122.543 48.0365 123.954 46.7866C124.298 46.4821 124.579 46.2646 124.579 46.3034C124.579 46.3421 124.371 46.9806 124.118 47.7222L123.656 49.0704L126.683 49.0486L129.71 49.0268L129.867 48.4868C131.777 41.9484 134.43 35.71 136.758 32.2858C139.129 28.7983 141.278 27.151 143.488 27.1263C144.322 27.1169 144.749 27.2591 145.103 27.6636C145.588 28.2176 145.732 29.0506 145.567 30.3473C145.292 32.5116 144.213 35.7323 139.399 48.7568L139.284 49.0683H142.326H145.368L145.562 48.4244C146.593 44.9905 148.052 41.0175 149.384 38.0184C150.112 36.3781 151.643 33.4343 152.279 32.4519C153.617 30.3833 155.241 28.6296 156.511 27.8826C157.386 27.3681 158.108 27.1762 159.17 27.1762C160.04 27.1762 160.09 27.1861 160.44 27.4266C160.907 27.7474 161.091 28.0623 161.179 28.69C161.386 30.1737 160.933 31.4544 158.683 35.7353C156.486 39.9151 155.84 41.9255 155.952 44.2387C156.006 45.3635 156.155 45.9652 156.59 46.8176C156.976 47.5733 157.873 48.5388 158.523 48.8973C160.546 50.014 163.275 50.0089 165.567 48.8841C167.251 48.0582 169.463 46.2916 171.051 44.5053L171.517 43.9804L171.571 44.2188C171.6 44.35 171.629 44.6289 171.634 44.8386C171.649 45.3966 171.944 46.4459 172.283 47.1452C172.671 47.9471 173.5 48.7698 174.278 49.1262C175.782 49.8153 178.093 49.9209 179.885 49.3824C181.844 48.7937 184.308 46.9845 186.474 44.545L187.385 43.5177L187.657 44.2783C188.732 47.2826 190.814 49.1631 193.6 49.6457C194.643 49.8264 196.326 49.7215 197.57 49.3983C198.253 49.2209 199.124 48.7986 199.736 48.3484C200.474 47.8061 201.652 46.6673 202.321 45.8493C202.592 45.5182 202.83 45.2752 202.85 45.3093C202.87 45.3433 202.913 45.5207 202.946 45.7035C203.088 46.4805 203.89 47.8406 204.661 48.6114C205.337 49.2871 206.682 49.733 208.044 49.733C210.151 49.733 212.102 48.9179 214.289 47.124C214.684 46.7997 215.093 46.4681 215.197 46.3872C215.364 46.2564 215.334 46.3908 214.924 47.5891C214.67 48.331 214.462 48.9678 214.462 49.0043C214.462 49.0407 215.827 49.0606 217.495 49.0486L220.527 49.0268L220.685 48.4868C222.246 43.1268 224.406 37.9098 226.635 34.1136C228.459 31.0078 230.586 28.6826 232.446 27.7603C233.852 27.0632 235.749 27.01 236.3 27.6523C236.593 27.9938 236.805 28.6822 236.805 29.2888C236.805 30.5252 236.419 31.524 234.36 35.609C232.451 39.3978 231.928 40.7207 231.653 42.4633C231.491 43.4851 231.545 44.7597 231.791 45.7035C232.348 47.8482 233.937 49.2548 236.211 49.6173C239.105 50.0785 241.794 49.201 244.956 46.763C246.432 45.6245 248.498 43.3782 249.772 41.5256L250.384 40.6355C250.384 40.6355 250.747 40.0087 250.64 39.2718C250.532 38.5348 250.155 37.6663 249.133 37.2189C248.11 36.7715 247.195 37.082 246.899 37.4294C246.72 37.64 246.353 38.1604 246.353 38.1604C244.288 41.0826 241.752 43.4479 240.1 43.9934C237.723 44.7785 237.029 42.8635 238.48 39.5239C238.691 39.0386 239.436 37.5012 240.137 36.1075C241.742 32.9139 242.65 30.8122 242.956 29.5856C243.597 27.0141 243.101 24.8261 241.529 23.2886C239.359 21.1665 235.014 21.4053 231.581 23.8355C230.314 24.7321 228.967 26.0966 227.969 27.4949C227.719 27.8442 227.502 28.1174 227.487 28.1018C227.471 28.0864 227.898 26.8465 228.436 25.3467C228.974 23.8468 229.414 22.5886 229.414 22.5508C229.414 22.513 228.101 22.4821 226.495 22.4821H223.577L222.662 25.0368C222.16 26.442 221.159 29.2906 220.438 31.367C219.189 34.9677 219.102 35.1831 218.567 36.0196C217.245 38.088 215.616 40.1251 214.111 41.5917C212.907 42.7653 212.198 43.3054 211.258 43.7659C210.682 44.048 210.451 44.1146 209.941 44.1453C209.395 44.1781 209.287 44.1593 209.025 43.9865C208.563 43.6821 208.421 43.3093 208.419 42.4051C208.417 40.4181 209.575 36.7193 213.733 25.4379C214.321 23.8421 214.802 22.5242 214.802 22.5092C214.802 22.4943 213.469 22.4821 211.841 22.4821H208.879L208.336 23.9358C208.037 24.7355 207.765 25.3898 207.731 25.3898C207.697 25.3899 207.59 25.2383 207.493 25.0529C207.263 24.612 206.313 23.6775 205.669 23.2596C203.546 21.8805 201.578 21.537 198.879 22.074C194.479 22.9497 190.371 27.0157 188.328 32.517C187.829 33.8611 187.394 35.5496 187.195 36.9134C187.112 37.4895 186.971 37.7201 185.894 39.0565C183.15 42.4585 180.926 44.1622 179.224 44.1656C177.847 44.1683 177.343 43.1855 177.587 40.9678C177.876 38.3261 178.995 34.9473 182.937 24.8087C183.408 23.598 183.793 22.5792 183.793 22.5447C183.793 22.5102 182.421 22.4821 180.743 22.4821H177.693L177.61 22.7105C177.564 22.8362 176.867 24.7149 176.061 26.8854C175.255 29.0559 174.281 31.7665 173.897 32.9089C173.152 35.1251 173.103 35.2216 171.792 37.1382C169.314 40.7613 166.854 43.2327 165.036 43.9269C164.742 44.039 164.299 44.1248 163.914 44.1443C163.373 44.1717 163.219 44.1475 162.899 43.9846C162.421 43.7415 162.238 43.4908 162.131 42.9355C161.993 42.2134 162.239 40.9802 162.764 39.7656C162.892 39.47 163.627 37.9745 164.398 36.4423C167.068 31.1332 167.652 29.5127 167.652 27.4102C167.652 26.3766 167.467 25.5981 167.001 24.6645C166.312 23.286 165.167 22.3887 163.616 22.0121C162.748 21.801 161.056 21.819 160.024 22.0501C157.049 22.7161 154.198 24.7505 152.136 27.6801L151.722 28.2671L151.719 26.8908C151.716 25.5834 151.704 25.4834 151.474 24.8914C150.611 22.6687 148.603 21.5715 145.945 21.871ZM203.307 27.3826C204.385 27.753 205.517 28.6575 205.997 29.5312L206.24 29.9732L205.97 30.8179C204.834 34.3716 203.289 38.1223 202.176 40.0275C200.499 42.8979 198.851 44.1633 196.791 44.1642C196.054 44.1646 195.458 43.9987 194.909 43.6397C194.366 43.285 194.08 42.9452 193.691 42.194C193.212 41.2712 193.098 40.7183 193.103 39.3477C193.118 35.5797 194.428 31.9524 196.678 29.4502C197.697 28.3176 198.868 27.5729 200.07 27.2935C201.143 27.0443 202.426 27.0796 203.307 27.3826Z" fill="white"/>
<path d="M119.654 12.8627C120.319 11.5485 121.802 10.3471 123.05 10.1104C123.9 9.9493 124.73 10.0507 125.444 10.4028C127.033 11.1851 127.503 13.3222 126.522 15.3025C125.414 17.5383 123.172 18.8062 121.223 18.2984C120.596 18.135 120.335 17.9784 119.849 17.4763C119.292 16.9007 119.055 16.2245 119.06 15.2244C119.064 14.348 119.224 13.7131 119.654 12.8627Z" fill="white"/>
<path d="M90.5118 4.26732C92.7595 2.84595 94.7754 2.11665 97.44 1.7609C99.2037 1.52544 101.696 1.62996 103.425 2.01189C106.381 2.66483 109.104 4.43589 110.711 6.75056C111.562 7.97643 112.274 9.72523 112.565 11.3075C112.771 12.4282 112.773 14.5869 112.569 15.6278C112.37 16.6429 112.029 17.8179 111.7 18.6187L111.427 19.2834C111.427 19.2834 110.06 21.3223 107.692 21.3223C105.324 21.3223 104.784 19.3087 104.784 19.2866C104.784 19.2644 104.894 18.9742 105.028 18.6417C105.783 16.7626 106.002 15.7523 106.002 14.1323C106.002 13.0841 105.972 12.7805 105.809 12.2214C105.145 9.9449 103.764 8.41594 101.675 7.64518C100.046 7.04442 98.0451 7.03652 96.2039 7.62375C93.271 8.55917 90.8879 11.1726 90.2691 14.1323C90.1012 14.9352 90.0763 15.1952 90.0803 16.0955C90.0893 18.0461 90.7409 19.6881 92.194 21.4213C93.1026 22.5051 94.446 23.6296 97.4782 25.8446C100.039 27.7152 102.223 29.5956 103.125 30.7072C105.05 33.0774 105.922 35.2579 106.136 38.239C106.568 44.2285 103.298 49.9402 97.5114 53.3067C94.545 55.0325 91.6405 55.7927 88.0002 55.7963C84.5629 55.7998 81.9176 55.1622 79.3712 53.7165C76.8832 52.304 74.8408 49.9289 73.8572 47.3041C72.6448 44.0689 72.6485 40.5548 73.8683 36.9157C74.2312 35.8333 75.1488 33.924 75.7343 33.0335C76.1772 32.3598 76.8387 31.4857 77.068 31.3498C77.1078 31.3014 79.3029 29.4486 81.5082 31.0866C81.8849 31.3235 82.4231 31.9288 82.6115 32.7973C82.7999 33.6659 82.4281 34.5876 82.2591 34.7594C80.568 36.489 79.5518 39.2103 79.5446 42.0284C79.5407 43.5337 79.7793 44.5895 80.3751 45.7035C81.3397 47.5071 83.1996 48.9802 85.3174 49.6178C87.368 50.2351 89.8317 50.2186 91.8493 49.5738C95.1848 48.5079 98.0439 45.5786 98.9971 42.2509C99.5835 40.2037 99.3271 37.4739 98.3969 35.8601C97.2497 33.87 95.7868 32.5131 91.4039 29.374C88.8139 27.519 86.7457 25.644 85.7499 24.2481C84.6585 22.7181 83.8917 20.9786 83.58 19.3249C83.394 18.3388 83.3274 15.9657 83.457 14.9494C83.7963 12.2905 84.9915 9.68319 86.9354 7.36129C87.7802 6.35226 89.3164 5.02328 90.5118 4.26732Z" fill="white"/>
<path fill-rule="evenodd" clip-rule="evenodd" d="M40.7102 29.4794C40.233 28.8397 39.5192 28.4304 37.9388 28.2121C36.3583 27.9938 35.0536 28.1371 33.7841 28.7991C32.5146 29.4611 31.7289 30.5008 31.6598 31.0523C31.5906 31.6039 32.4917 31.8717 32.7845 31.6039C32.8838 31.5131 32.9734 31.3935 33.0746 31.2586C33.272 30.9955 33.5133 30.6738 33.9554 30.3925C34.6242 29.9671 35.2976 29.7782 35.9876 29.9963L36.0068 30.0023C36.6835 30.2163 36.9974 30.3155 37.8064 29.8436C38.6229 29.3673 39.5686 29.5821 40.227 30.1496C40.5559 30.6537 41.1874 30.119 40.7102 29.4794ZM37.9174 31.4624C38.4029 30.198 39.9305 30.4142 40.4338 31.001C40.9041 31.5493 40.8426 31.7257 40.5578 31.9178C40.457 31.9857 40.3323 31.9949 40.1992 32.0046C40.0271 32.0172 39.841 32.0308 39.6746 32.1737C39.5855 32.2502 39.5179 32.399 39.4429 32.5641L39.4429 32.5641C39.2422 33.0057 38.9887 33.5634 38.1316 33.1606C37.5962 32.909 37.6453 32.171 37.9174 31.4624ZM36.6306 31.7808C36.0092 30.8175 34.705 30.6634 34.0197 31.3345C33.3344 32.0055 33.3576 32.4688 33.6895 32.6082C33.8055 32.6568 33.9366 32.6559 34.0768 32.655C34.2619 32.6537 34.4626 32.6523 34.6645 32.765C34.7727 32.8254 34.8627 32.9506 34.9622 33.0892C35.2241 33.4538 35.5525 33.911 36.4563 33.5253C36.8817 33.3437 37.0498 32.4305 36.6306 31.7808Z" fill="white"/>
<path fill-rule="evenodd" clip-rule="evenodd" d="M14.6805 37.9747C14.3825 38.6394 13.7822 39.1628 12.7347 39.529C8.87054 40.8799 3.73377 39.2226 1.23782 32.4254C-1.25812 25.6282 2.70835 18.9537 7.83246 18.5701C9.19105 18.4683 10.1518 18.6386 10.839 19.0395C13.5947 9.80413 21.8572 1.70482 33.2483 0.443897C43.0352 -0.639448 51.9127 3.59351 57.1791 9.222C57.5359 9.06835 57.9895 8.92812 58.5555 8.79819C63.662 7.62614 70.2284 11.1963 70.2284 19.3499C70.2284 27.5036 64.8355 29.8468 61.7811 30.1587C61.4813 30.1893 61.2065 30.203 60.9548 30.2007C59.6826 33.2353 57.418 36.2435 53.6151 39.068C53.3376 39.2742 53.4191 39.7222 53.5538 40.4615C53.5882 40.6505 53.6261 40.8586 53.6623 41.0865C53.8686 42.3835 53.842 44.6854 53.4567 46.3497C53.1504 47.4858 52.1894 50.068 50.7003 51.9271C49.2113 53.7863 46.5817 55.9862 42.7164 57.1947C38.8512 58.4031 33.687 58.1552 28.8713 54.9947C24.0557 51.8342 22.5032 46.5666 22.5032 43.8089C22.5032 43.3619 22.0197 43.1361 21.7047 42.989L21.7043 42.9888C21.6696 42.9726 21.6369 42.9573 21.6072 42.9428C18.8732 41.6104 16.5339 39.9275 14.6805 37.9747ZM35.4113 12.7492C31.3717 9.15405 21.0338 6.1602 15.1946 14.9637C11.9994 19.7811 13.3577 27.0968 15.8774 30.3383C18.3142 33.4732 19.6648 35.0151 21.7278 36.9067C21.962 37.1934 23.2009 37.401 23.4643 36.9067C24.0221 36.1252 24.6259 35.3065 25.0558 34.8222L25.1277 34.7409C25.6125 34.192 26.3486 33.3586 27.4327 33.0932C28.0298 32.9471 28.2018 33.0932 26.4547 36.0832C24.7075 39.0732 23.8463 43.0685 25.673 47.5154C27.4998 51.9623 32.1799 55.2315 37.834 55.3474C43.4882 55.4632 49.6001 51.5888 51.0525 46.1201C52.5049 40.6514 50.5237 37.3429 49.2824 35.4524C48.041 33.562 48.2929 33.0666 48.9869 33.3894C49.9917 33.8569 51.5367 36.0832 51.5367 36.0832C52.5902 35.4438 54.42 31.8609 55.7469 29.0462C58.4797 23.2497 58.9229 14.5268 54.2852 9.56037C51.731 6.82514 48.3257 5.37512 45.0673 5.60533C38.7514 6.05155 36.6461 9.8389 35.4113 12.7492Z" fill="white"/>
<path fill-rule="evenodd" clip-rule="evenodd" d="M30.3476 27.6964C32.1045 27.7529 33.5775 26.4024 33.6375 24.68C33.6976 22.9576 32.322 21.5156 30.5651 21.4592C28.8082 21.4027 27.3352 22.7532 27.2751 24.4756C27.2151 26.198 28.5907 27.64 30.3476 27.6964ZM30.6744 26.4408C31.3656 26.463 31.9451 25.9322 31.9687 25.2552C31.9923 24.5782 31.4511 24.0114 30.7599 23.9892C30.0687 23.967 29.4892 24.4978 29.4656 25.1748C29.442 25.8518 29.9832 26.4186 30.6744 26.4408Z" fill="white"/>
<path fill-rule="evenodd" clip-rule="evenodd" d="M40.0755 25.8474C41.7779 26.2749 43.5136 25.2687 43.9522 23.6C44.3909 21.9314 43.3664 20.2322 41.664 19.8048C39.9616 19.3773 38.2259 20.3835 37.7873 22.0521C37.3486 23.7208 38.3731 25.42 40.0755 25.8474ZM40.5917 24.7908C41.2615 24.959 41.9444 24.5635 42.1169 23.9074C42.2893 23.2513 41.8861 22.5832 41.2162 22.415C40.5464 22.2468 39.8635 22.6423 39.691 23.2983C39.5186 23.9544 39.9218 24.6226 40.5917 24.7908Z" fill="white"/>
<path fill-rule="evenodd" clip-rule="evenodd" d="M31.0051 39.6917C32.2453 39.6338 33.9747 40.456 35.3628 41.116L35.3629 41.116C35.7018 41.2772 36.0204 41.4287 36.3066 41.5553C37.4417 42.0576 38.1626 42.2238 39.8789 42.3818C42.4756 42.7147 44.7376 41.663 45.544 41.0956C45.544 41.0956 45.8542 40.7934 46.5701 40.7934C47.286 40.7934 48.3428 41.606 48.411 42.854C48.4654 43.8504 48.3025 44.2203 48.0959 44.6898L48.0959 44.6899C48.0437 44.8085 47.9887 44.9334 47.9337 45.0764C47.6871 45.7176 47.12 46.4471 46.8498 46.7947L46.8497 46.7947C46.8211 46.8315 46.7959 46.864 46.7747 46.8917C46.0777 47.8608 45.3088 48.5099 44.3543 49.019C43.0248 49.7281 41.3143 50.6283 37.5023 50.6283C34.2088 50.6283 32.4987 49.6967 31.0684 48.8576C29.6382 48.0186 28.639 46.672 28.2209 46.0186C27.8028 45.3651 27.4427 44.2002 27.6504 42.854C27.9422 40.9636 29.462 39.7638 31.0051 39.6917ZM40.6386 43.7022C38.6614 43.7022 36.3275 42.9262 34.6167 42.287C33.6654 41.9316 32.345 41.7719 31.5119 42.0095C30.6788 42.247 30.1551 42.8206 30.0284 43.2542C29.9018 43.6878 30.0601 44.3383 30.5035 44.4312C30.6891 44.4701 30.8414 44.386 31.0231 44.2856C31.2755 44.1463 31.5847 43.9756 32.1186 44.0595C32.6508 44.1432 33.0563 44.6516 33.4136 45.0996C33.673 45.4248 33.907 45.7181 34.1455 45.794C35.3046 46.1628 37.2637 46.4379 39.0704 46.296C40.8772 46.1542 41.4259 46.0408 43.6043 45.4167C45.0702 44.9969 46.679 43.9901 46.6724 43.0498C46.6658 42.1095 45.7742 42.2433 45.6497 42.3124C44.627 42.8796 42.6158 43.7022 40.6386 43.7022ZM44.6952 47.5441C44.1498 47.9412 43.4138 48.3469 42.533 48.6718C41.548 49.0352 39.9165 49.4552 37.5023 49.3026C35.0512 49.1477 34.4648 48.8828 33.6844 48.5303C33.6074 48.4955 33.5285 48.4598 33.4457 48.4234C32.5686 48.0368 31.9822 47.5309 31.6044 47.205C31.5853 47.1885 31.5667 47.1724 31.5486 47.1569C31.1736 46.8344 30.9468 46.3206 31.1052 46.0418C31.2636 45.7631 31.6436 45.5153 31.9603 45.5772C32.277 45.6392 32.5096 45.825 32.8787 46.3825C33.213 46.8874 33.9016 47.0029 34.4061 47.0875C34.4587 47.0963 34.5093 47.1048 34.5572 47.1134C35.989 47.3687 36.5388 47.3968 38.516 47.3117C40.4931 47.2267 42.5135 46.7688 43.6043 46.3296C43.9217 46.2019 44.2452 46.0515 44.5494 45.9102C45.2906 45.5657 45.9168 45.2747 46.0588 45.4944C46.2256 45.6985 46.2633 45.8139 45.9565 46.2677C45.5543 46.8626 45.2406 47.147 44.6952 47.5441Z" fill="white"/>
</svg>
