<?xml version="1.0" encoding="utf-8"?>
<!-- Generator: Adobe Illustrator 16.0.0, SVG Export Plug-In . SVG Version: 6.00 Build 0)  -->
<!DOCTYPE svg PUBLIC "-//W3C//DTD SVG 1.1//EN" "http://www.w3.org/Graphics/SVG/1.1/DTD/svg11.dtd">
<svg version="1.1" id="Capa_1" xmlns="http://www.w3.org/2000/svg" xmlns:xlink="http://www.w3.org/1999/xlink" x="0px" y="0px"
	 width="264px" height="60px" viewBox="0 0 264 60" enable-background="new 0 0 264 60" xml:space="preserve">
<g>
	<g>
		<path d="M31.496,5.849c-0.003-0.003-0.005-0.008-0.009-0.012c-0.017-0.022-0.044-0.053-0.081-0.09
			c-0.575-0.577-1.149-1.155-1.725-1.732c0.044,0.044,0.073,0.079,0.089,0.103L31.496,5.849z"/>
		<path d="M9.445,10.46c0.007,0.146,0.017,0.3,0.031,0.458c0,0.01,0,0.017,0.001,0.025c0.001,0.003,0.001,0.006,0.001,0.009
			c0.012,0.126,0.027,0.256,0.046,0.39c0.004,0.026,0.008,0.053,0.012,0.08c0.021,0.136,0.045,0.274,0.075,0.417
			c0.004,0.019,0.009,0.037,0.013,0.056c0.03,0.136,0.065,0.274,0.105,0.415c0.006,0.019,0.011,0.038,0.017,0.058
			c0.044,0.147,0.096,0.299,0.154,0.451c0.006,0.016,0.01,0.031,0.016,0.047c0.009,0.021,0.021,0.045,0.029,0.067
			c0.031,0.077,0.064,0.154,0.1,0.233c0.02,0.043,0.038,0.086,0.059,0.129c0.04,0.084,0.084,0.169,0.129,0.254
			c0.021,0.038,0.039,0.076,0.06,0.114c0.068,0.123,0.141,0.247,0.22,0.371c0.005,0.007,0.01,0.015,0.015,0.021
			c0.075,0.117,0.156,0.235,0.243,0.354c0.007,0.01,0.013,0.02,0.021,0.03c0.016,0.021,0.035,0.043,0.052,0.064
			c0.087,0.117,0.18,0.233,0.278,0.351c0.034,0.041,0.068,0.081,0.104,0.122c0.127,0.146,0.261,0.293,0.407,0.44
			c0.575,0.577,1.15,1.154,1.726,1.731c-0.147-0.147-0.281-0.294-0.408-0.44c-0.035-0.041-0.069-0.081-0.104-0.121
			c-0.098-0.116-0.189-0.232-0.276-0.348c-0.024-0.033-0.052-0.066-0.076-0.101c-0.085-0.116-0.164-0.232-0.238-0.347
			c-0.006-0.009-0.012-0.019-0.018-0.027c-0.079-0.124-0.15-0.246-0.219-0.369c-0.022-0.041-0.043-0.082-0.064-0.122
			c-0.043-0.082-0.085-0.163-0.123-0.243c-0.022-0.047-0.043-0.093-0.063-0.14c-0.033-0.074-0.065-0.149-0.096-0.224
			c-0.016-0.04-0.032-0.08-0.047-0.12c-0.058-0.151-0.109-0.3-0.152-0.446c-0.007-0.022-0.013-0.045-0.02-0.067
			c-0.039-0.137-0.073-0.271-0.103-0.403c-0.005-0.021-0.01-0.042-0.015-0.062c-0.029-0.141-0.054-0.278-0.074-0.413
			c-0.004-0.028-0.008-0.056-0.012-0.083c-0.019-0.133-0.034-0.263-0.046-0.389c-0.001-0.011-0.002-0.022-0.003-0.034
			c-0.014-0.158-0.023-0.312-0.03-0.457c-0.008-0.167-0.005-0.342,0.009-0.522c0.001-0.022,0.003-0.045,0.005-0.067
			c0.009-0.094,0.02-0.189,0.033-0.286c0.002-0.014,0.003-0.025,0.005-0.039c0.017-0.105,0.038-0.214,0.062-0.323
			c0.007-0.03,0.014-0.062,0.021-0.093c0.021-0.091,0.046-0.183,0.073-0.275c0.005-0.019,0.01-0.037,0.016-0.057
			c0.033-0.108,0.07-0.218,0.111-0.327c0.011-0.029,0.022-0.059,0.034-0.088c0.037-0.095,0.077-0.188,0.119-0.283
			c0.011-0.022,0.021-0.045,0.03-0.067c0.053-0.112,0.11-0.224,0.172-0.335c0.013-0.023,0.026-0.047,0.04-0.07
			c0.072-0.127,0.148-0.252,0.232-0.376c0.002-0.004,0.005-0.008,0.008-0.012c0.085-0.126,0.178-0.249,0.275-0.371
			c0.022-0.027,0.044-0.056,0.067-0.084c0.039-0.047,0.081-0.094,0.122-0.141c0.032-0.037,0.064-0.073,0.098-0.109
			c0.045-0.049,0.092-0.096,0.139-0.143c0.033-0.034,0.066-0.068,0.102-0.102c0.052-0.051,0.107-0.1,0.162-0.148
			c0.032-0.029,0.062-0.059,0.097-0.087c0.072-0.062,0.148-0.123,0.226-0.184c0.019-0.014,0.035-0.028,0.053-0.042
			c0.097-0.073,0.195-0.145,0.298-0.214c0.035-0.023,0.073-0.046,0.108-0.068c0.07-0.046,0.14-0.091,0.213-0.134
			c0.045-0.027,0.092-0.052,0.138-0.078c0.067-0.038,0.135-0.076,0.204-0.112c0.052-0.026,0.104-0.051,0.157-0.077
			c0.068-0.033,0.137-0.066,0.207-0.099c0.056-0.024,0.113-0.049,0.171-0.073c0.071-0.029,0.143-0.059,0.217-0.088
			c0.06-0.022,0.121-0.045,0.182-0.066c0.075-0.027,0.151-0.053,0.229-0.078c0.063-0.021,0.128-0.04,0.192-0.06
			c0.079-0.023,0.16-0.046,0.242-0.068c0.066-0.018,0.134-0.035,0.202-0.051c0.084-0.021,0.171-0.04,0.258-0.058
			c0.069-0.015,0.138-0.029,0.209-0.043c0.092-0.017,0.186-0.032,0.279-0.047c0.07-0.012,0.14-0.022,0.212-0.033
			C17.3,6.1,17.403,6.089,17.506,6.077c0.07-0.007,0.139-0.016,0.21-0.022c0.116-0.011,0.236-0.018,0.355-0.024
			c0.062-0.004,0.122-0.009,0.186-0.012c0.185-0.008,0.373-0.013,0.566-0.013c4.901,0,8.709,2.573,11.312,5.188
			c-0.575-0.577-1.15-1.155-1.726-1.732c-0.644-0.646-1.36-1.288-2.148-1.891c-0.01-0.008-0.019-0.016-0.028-0.022
			c-0.031-0.023-0.064-0.046-0.096-0.07c-2.386-1.793-5.412-3.204-9.041-3.204c-0.193,0-0.382,0.005-0.567,0.013
			c-0.062,0.003-0.12,0.008-0.181,0.012c-0.121,0.007-0.242,0.015-0.359,0.024c-0.071,0.007-0.139,0.015-0.209,0.022
			c-0.104,0.012-0.207,0.022-0.308,0.036c-0.071,0.01-0.14,0.021-0.209,0.032c-0.096,0.016-0.191,0.031-0.283,0.049
			c-0.069,0.013-0.137,0.026-0.204,0.041c-0.089,0.019-0.178,0.038-0.264,0.059c-0.066,0.017-0.132,0.033-0.197,0.051
			c-0.084,0.021-0.166,0.045-0.247,0.069C14.006,4.7,13.943,4.72,13.882,4.739c-0.079,0.026-0.158,0.053-0.235,0.08
			c-0.059,0.021-0.118,0.043-0.175,0.064c-0.077,0.03-0.151,0.061-0.226,0.092c-0.055,0.023-0.108,0.046-0.161,0.069
			c-0.075,0.034-0.147,0.068-0.22,0.104c-0.049,0.023-0.098,0.047-0.146,0.071c-0.075,0.039-0.147,0.08-0.22,0.121
			c-0.041,0.022-0.082,0.045-0.122,0.068c-0.082,0.049-0.161,0.101-0.239,0.151c-0.027,0.017-0.056,0.034-0.082,0.052
			c-0.104,0.07-0.205,0.143-0.303,0.217l-0.001,0.001c-0.097,0.073-0.189,0.148-0.279,0.226c-0.024,0.021-0.048,0.044-0.071,0.065
			c-0.064,0.057-0.127,0.113-0.188,0.171c-0.029,0.027-0.056,0.056-0.084,0.084c-0.053,0.054-0.106,0.106-0.156,0.161
			C10.946,6.568,10.92,6.6,10.893,6.63c-0.048,0.054-0.095,0.106-0.139,0.16c-0.01,0.012-0.021,0.022-0.03,0.034
			c-0.01,0.013-0.018,0.025-0.027,0.037c-0.1,0.124-0.194,0.249-0.28,0.376c-0.003,0.005-0.007,0.011-0.01,0.016
			c-0.083,0.123-0.158,0.247-0.229,0.372c-0.008,0.015-0.019,0.028-0.026,0.043c-0.006,0.01-0.01,0.02-0.016,0.03
			c-0.062,0.111-0.119,0.223-0.172,0.335c-0.01,0.021-0.019,0.041-0.027,0.062C9.891,8.193,9.85,8.291,9.812,8.39
			c-0.006,0.015-0.014,0.03-0.02,0.046c-0.004,0.01-0.007,0.02-0.01,0.029C9.74,8.576,9.702,8.687,9.669,8.796
			c-0.006,0.02-0.011,0.041-0.017,0.06C9.625,8.95,9.601,9.042,9.579,9.134C9.575,9.15,9.569,9.166,9.566,9.183
			C9.563,9.194,9.562,9.206,9.56,9.219C9.535,9.328,9.515,9.438,9.497,9.545C9.495,9.559,9.494,9.572,9.492,9.586
			C9.479,9.684,9.467,9.778,9.459,9.873C9.458,9.887,9.456,9.901,9.454,9.915c0,0.008,0,0.014,0,0.021
			C9.44,10.117,9.438,10.293,9.445,10.46z"/>
		<polygon points="37.714,16.611 37.823,2.378 36.098,0.646 35.988,14.879 32.496,14.879 34.222,16.611 		"/>
		<path d="M4.288,40.636c0.024,0.066,0.048,0.134,0.074,0.203c0.004,0.009,0.009,0.021,0.012,0.028
			c0.035,0.09,0.075,0.184,0.115,0.277c0.016,0.037,0.029,0.069,0.046,0.107c0.058,0.137,0.12,0.271,0.188,0.409
			c0.018,0.034,0.036,0.069,0.055,0.104c0.052,0.106,0.105,0.215,0.163,0.324c0.03,0.057,0.063,0.115,0.095,0.174
			c0.05,0.092,0.1,0.187,0.152,0.276c0.036,0.063,0.075,0.129,0.113,0.194c0.053,0.091,0.105,0.182,0.162,0.271
			c0.041,0.067,0.084,0.14,0.127,0.205c0.057,0.095,0.115,0.187,0.176,0.276c0.045,0.066,0.092,0.142,0.139,0.212
			c0.062,0.095,0.126,0.188,0.191,0.28c0.049,0.07,0.099,0.146,0.149,0.217c0.068,0.098,0.139,0.191,0.21,0.293
			c0.034,0.046,0.065,0.092,0.1,0.139c0.016,0.021,0.033,0.042,0.049,0.062c0.286,0.385,0.595,0.771,0.924,1.158
			c0.05,0.06,0.101,0.114,0.15,0.174c0.123,0.143,0.249,0.28,0.378,0.426c0.054,0.059,0.106,0.115,0.161,0.176
			c0.179,0.191,0.361,0.386,0.55,0.572l1.726,1.729c-0.004-0.004-0.007-0.006-0.011-0.011c0.004,0.005,0.007,0.007,0.011,0.011
			c-0.014-0.014-0.026-0.024-0.039-0.038c-0.174-0.177-0.343-0.354-0.508-0.527c-0.057-0.062-0.112-0.123-0.168-0.188
			c-0.127-0.14-0.252-0.278-0.373-0.42c-0.051-0.06-0.102-0.114-0.151-0.174c-0.329-0.38-0.638-0.767-0.924-1.15
			c-0.051-0.063-0.1-0.135-0.148-0.2c-0.071-0.099-0.142-0.192-0.21-0.291c-0.051-0.07-0.101-0.146-0.149-0.218
			c-0.065-0.095-0.129-0.188-0.19-0.28c-0.048-0.068-0.095-0.144-0.141-0.213c-0.06-0.095-0.117-0.187-0.175-0.274
			c-0.043-0.068-0.086-0.14-0.127-0.205c-0.057-0.095-0.11-0.187-0.163-0.272c-0.037-0.063-0.076-0.132-0.112-0.193
			C6.861,44.186,6.811,44.092,6.761,44c-0.03-0.059-0.062-0.113-0.092-0.17c-0.058-0.107-0.111-0.219-0.164-0.322
			c-0.018-0.035-0.038-0.072-0.055-0.109c-0.067-0.141-0.131-0.272-0.188-0.406C6.244,42.947,6.23,42.91,6.213,42.87
			c-0.039-0.093-0.077-0.183-0.111-0.271c-0.029-0.074-0.055-0.146-0.08-0.222c-0.014-0.035-0.028-0.071-0.041-0.108
			c-0.036-0.104-0.068-0.207-0.096-0.309l-1.726-1.729c0.028,0.1,0.061,0.203,0.098,0.311C4.266,40.573,4.278,40.605,4.288,40.636z"
			/>
		<path d="M6.54,29.382c3.144,3.156,7.631,5.433,12.87,7.075c5.772,1.807,9.058,3.668,10.847,5.464
			c-0.575-0.578-1.15-1.155-1.727-1.731c-1.788-1.797-5.073-3.654-10.846-5.465c-0.327-0.103-0.652-0.207-0.974-0.312
			c-3.854-1.291-7.267-2.947-9.985-5.071c-0.682-0.532-1.32-1.095-1.911-1.688c0.003,0.003,0.006,0.006,0.009,0.009
			c-0.003-0.003-0.006-0.006-0.009-0.009L6.54,29.382z"/>
		<path d="M42.145,41.855c-0.004-0.104-0.01-0.205-0.016-0.312c-0.012-0.237-0.027-0.479-0.048-0.729
			c-0.005-0.062-0.006-0.131-0.013-0.193c-0.008-0.085-0.019-0.171-0.027-0.256c-0.008-0.076-0.016-0.152-0.024-0.229
			c-0.027-0.235-0.059-0.476-0.094-0.713c-0.005-0.028-0.009-0.062-0.014-0.094c-0.041-0.271-0.089-0.534-0.142-0.806
			c-0.014-0.068-0.029-0.144-0.045-0.213c-0.041-0.201-0.087-0.4-0.135-0.604c-0.02-0.081-0.039-0.163-0.06-0.244
			c-0.061-0.232-0.125-0.472-0.194-0.706c-0.01-0.028-0.018-0.062-0.027-0.098c-0.08-0.267-0.168-0.527-0.26-0.791
			c-0.026-0.074-0.055-0.146-0.081-0.224c-0.04-0.105-0.077-0.219-0.119-0.322c-0.042-0.109-0.088-0.221-0.132-0.326
			c-0.018-0.043-0.035-0.086-0.053-0.129c-0.106-0.254-0.221-0.508-0.34-0.762c-0.025-0.055-0.052-0.104-0.078-0.158
			c-0.125-0.26-0.255-0.514-0.394-0.768c-0.008-0.015-0.016-0.025-0.023-0.041c-0.133-0.242-0.275-0.479-0.422-0.721
			c-0.034-0.057-0.067-0.111-0.103-0.166c-0.15-0.24-0.309-0.479-0.474-0.714c-0.037-0.054-0.076-0.104-0.113-0.159
			c-0.063-0.088-0.125-0.176-0.189-0.264c-0.093-0.127-0.191-0.25-0.289-0.374c-0.03-0.039-0.059-0.078-0.089-0.116
			c-0.188-0.235-0.385-0.468-0.588-0.699c-0.05-0.057-0.101-0.112-0.151-0.169c-0.212-0.236-0.43-0.47-0.66-0.7
			c-0.575-0.577-1.15-1.154-1.725-1.732c0.002,0.003,0.004,0.005,0.006,0.007l-0.007-0.007c0.007,0.007,0.013,0.014,0.02,0.02
			c0.223,0.225,0.435,0.452,0.642,0.682c0.05,0.056,0.1,0.111,0.148,0.167c0.206,0.232,0.405,0.468,0.594,0.705
			c0.025,0.032,0.049,0.062,0.073,0.096c0.176,0.224,0.345,0.449,0.507,0.677c0.029,0.041,0.06,0.082,0.089,0.123
			c0.17,0.244,0.332,0.489,0.488,0.736c0.03,0.048,0.059,0.096,0.089,0.145c0.151,0.246,0.298,0.494,0.436,0.743
			c0.005,0.011,0.011,0.019,0.015,0.026c0.14,0.255,0.271,0.511,0.396,0.77c0.026,0.053,0.053,0.107,0.078,0.161
			c0.12,0.251,0.232,0.503,0.339,0.757c0.019,0.045,0.036,0.088,0.055,0.133c0.088,0.217,0.171,0.436,0.25,0.648
			c0.026,0.072,0.055,0.146,0.08,0.219c0.093,0.264,0.181,0.529,0.261,0.795c0.009,0.028,0.017,0.061,0.025,0.088
			c0.07,0.237,0.136,0.479,0.196,0.717c0.021,0.078,0.04,0.16,0.06,0.24c0.048,0.201,0.093,0.401,0.135,0.604
			c0.015,0.071,0.031,0.146,0.045,0.217c0.053,0.269,0.101,0.533,0.142,0.8c0.006,0.035,0.01,0.07,0.015,0.106
			c0.035,0.231,0.065,0.465,0.092,0.696c0.01,0.078,0.018,0.158,0.026,0.236c0.015,0.146,0.027,0.299,0.039,0.444
			c0.02,0.239,0.036,0.479,0.048,0.72c0.005,0.107,0.012,0.217,0.016,0.321c0.012,0.337,0.019,0.674,0.017,1.007
			c-0.003,0.324-0.019,0.65-0.042,0.979c-0.006,0.08-0.012,0.16-0.019,0.24c-0.029,0.342-0.065,0.688-0.117,1.027
			c-0.005,0.031-0.012,0.064-0.017,0.098c-0.05,0.319-0.111,0.643-0.181,0.961c-0.017,0.076-0.032,0.149-0.05,0.229
			c-0.075,0.319-0.158,0.646-0.254,0.962c-0.017,0.059-0.036,0.111-0.054,0.168c-0.085,0.273-0.178,0.549-0.278,0.82
			c-0.029,0.08-0.059,0.158-0.089,0.236c-0.124,0.318-0.257,0.639-0.401,0.951c-0.024,0.051-0.051,0.104-0.074,0.151
			c-0.133,0.278-0.274,0.556-0.424,0.827c-0.045,0.082-0.089,0.166-0.136,0.248c-0.05,0.086-0.101,0.172-0.152,0.258
			c-0.078,0.133-0.16,0.266-0.243,0.396c-0.053,0.082-0.105,0.166-0.16,0.247c-0.088,0.135-0.18,0.268-0.272,0.396
			c-0.055,0.076-0.108,0.152-0.164,0.229c-0.107,0.146-0.22,0.291-0.333,0.438c-0.046,0.059-0.089,0.117-0.136,0.175
			c-0.051,0.062-0.106,0.124-0.159,0.187c-0.137,0.164-0.275,0.328-0.421,0.486c-0.073,0.081-0.15,0.159-0.226,0.239
			c-0.13,0.138-0.261,0.271-0.396,0.407c-0.086,0.084-0.176,0.168-0.265,0.25c-0.132,0.125-0.267,0.25-0.404,0.371
			c-0.096,0.084-0.192,0.166-0.29,0.248c-0.141,0.115-0.284,0.229-0.43,0.348c-0.102,0.08-0.204,0.158-0.309,0.236
			c-0.151,0.111-0.307,0.223-0.463,0.332c-0.106,0.07-0.211,0.146-0.319,0.219c-0.168,0.11-0.342,0.219-0.517,0.324
			c-0.104,0.062-0.205,0.129-0.312,0.188c-0.206,0.12-0.419,0.232-0.633,0.352c-0.081,0.043-0.159,0.088-0.241,0.131
			c-0.3,0.15-0.607,0.299-0.923,0.438c-0.065,0.027-0.134,0.057-0.198,0.082c-0.254,0.109-0.511,0.217-0.774,0.314
			c-0.118,0.045-0.242,0.086-0.362,0.129c-0.217,0.078-0.436,0.154-0.66,0.229c-0.14,0.045-0.283,0.086-0.425,0.129
			c-0.214,0.062-0.43,0.125-0.65,0.184c-0.151,0.041-0.307,0.076-0.461,0.113c-0.22,0.055-0.441,0.104-0.667,0.149
			c-0.161,0.032-0.322,0.065-0.486,0.099c-0.229,0.043-0.464,0.082-0.7,0.119c-0.165,0.023-0.331,0.053-0.499,0.074
			c-0.248,0.033-0.502,0.062-0.756,0.092c-0.164,0.018-0.325,0.035-0.491,0.051c-0.285,0.024-0.577,0.045-0.87,0.062
			c-0.143,0.009-0.283,0.021-0.428,0.025c-0.441,0.021-0.891,0.03-1.35,0.03c-9.528,0-13.173-4.354-13.82-4.562
			c-0.051,0.061-0.11,0.132-0.175,0.209c-0.007,0.01-0.012,0.018-0.019,0.021c-0.009,0.012-0.02,0.021-0.028,0.033
			c-0.046,0.059-0.094,0.117-0.145,0.182c-0.02,0.023-0.038,0.049-0.058,0.072c-0.068,0.088-0.14,0.182-0.215,0.277
			c-0.006,0.008-0.012,0.016-0.018,0.023c-0.07,0.092-0.144,0.188-0.218,0.288c-0.025,0.034-0.052,0.068-0.078,0.104
			c-0.057,0.074-0.112,0.152-0.17,0.232c-0.028,0.039-0.057,0.076-0.085,0.117c-0.062,0.09-0.125,0.18-0.188,0.271
			c-0.021,0.029-0.041,0.062-0.062,0.091c-0.082,0.12-0.164,0.243-0.244,0.366c-0.018,0.022-0.033,0.053-0.051,0.078
			c-0.062,0.1-0.124,0.192-0.184,0.293c-0.023,0.039-0.047,0.076-0.069,0.112c-0.056,0.095-0.108,0.185-0.16,0.272
			c-0.013,0.021-0.028,0.048-0.041,0.068c-0.005,0.01-0.009,0.019-0.014,0.024c-0.078,0.142-0.15,0.276-0.217,0.411
			c-0.011,0.023-0.021,0.046-0.031,0.068c-0.057,0.116-0.106,0.229-0.15,0.342c-0.006,0.018-0.015,0.033-0.021,0.05
			c-0.003,0.009-0.004,0.015-0.008,0.021c-0.037,0.104-0.07,0.197-0.095,0.291H0.267l1.725,1.729H5.92
			c0.023-0.091,0.057-0.188,0.094-0.287c0.01-0.024,0.022-0.056,0.033-0.082c0.042-0.104,0.09-0.215,0.143-0.323
			c0.013-0.027,0.024-0.056,0.037-0.08c0.065-0.135,0.139-0.271,0.217-0.41c0.016-0.021,0.032-0.051,0.049-0.08
			c0.053-0.094,0.108-0.188,0.165-0.281c0.022-0.036,0.045-0.073,0.067-0.11c0.06-0.099,0.121-0.192,0.185-0.293
			c0.017-0.024,0.034-0.055,0.052-0.082c0.079-0.121,0.16-0.239,0.242-0.36c0.021-0.031,0.045-0.062,0.066-0.099
			c0.062-0.09,0.123-0.178,0.184-0.265c0.029-0.041,0.058-0.081,0.087-0.12c0.057-0.08,0.113-0.158,0.17-0.233
			c0.025-0.033,0.051-0.068,0.076-0.104c0.076-0.104,0.151-0.201,0.224-0.298c0.003-0.004,0.006-0.008,0.009-0.012
			c0.075-0.103,0.147-0.191,0.217-0.281c0.022-0.024,0.043-0.055,0.064-0.08c0.046-0.059,0.089-0.11,0.131-0.163
			c0.021-0.025,0.042-0.052,0.062-0.076c0.061-0.074,0.119-0.146,0.168-0.201c0.647,0.209,4.291,4.562,13.82,4.562
			c0.459,0,0.907-0.014,1.349-0.029c0.146-0.008,0.286-0.02,0.43-0.026c0.292-0.018,0.584-0.032,0.868-0.062
			c0.167-0.016,0.329-0.033,0.493-0.053c0.253-0.026,0.507-0.057,0.754-0.092c0.169-0.021,0.336-0.049,0.502-0.074
			c0.234-0.037,0.468-0.076,0.696-0.119c0.165-0.029,0.328-0.062,0.49-0.1c0.224-0.045,0.443-0.096,0.662-0.146
			c0.156-0.036,0.312-0.075,0.467-0.116c0.218-0.059,0.431-0.116,0.643-0.182c0.145-0.043,0.29-0.084,0.432-0.131
			c0.221-0.069,0.436-0.146,0.65-0.225c0.123-0.043,0.25-0.086,0.372-0.133c0.256-0.098,0.504-0.199,0.751-0.307
			c0.072-0.031,0.149-0.062,0.222-0.092c0.313-0.143,0.619-0.285,0.918-0.438c0.089-0.046,0.173-0.097,0.261-0.142
			c0.207-0.11,0.414-0.226,0.613-0.338c0.11-0.064,0.215-0.134,0.322-0.197c0.171-0.104,0.341-0.209,0.506-0.315
			c0.111-0.073,0.219-0.149,0.327-0.228c0.153-0.104,0.307-0.215,0.454-0.324c0.107-0.079,0.213-0.159,0.316-0.241
			c0.143-0.112,0.283-0.228,0.421-0.343c0.101-0.084,0.2-0.168,0.297-0.254c0.136-0.119,0.269-0.239,0.398-0.362
			c0.091-0.086,0.183-0.172,0.271-0.259c0.133-0.131,0.262-0.266,0.389-0.396c0.078-0.082,0.157-0.162,0.233-0.246
			c0.141-0.154,0.275-0.312,0.409-0.474c0.048-0.06,0.1-0.112,0.146-0.17c0.008-0.013,0.016-0.021,0.024-0.03
			c0.044-0.056,0.084-0.109,0.127-0.164c0.116-0.146,0.23-0.293,0.34-0.441c0.056-0.077,0.11-0.153,0.165-0.231
			c0.092-0.131,0.183-0.262,0.271-0.394c0.055-0.084,0.109-0.168,0.162-0.252c0.084-0.133,0.166-0.266,0.245-0.397
			c0.049-0.082,0.098-0.162,0.145-0.244c0.024-0.043,0.051-0.086,0.075-0.129c0.025-0.045,0.046-0.092,0.071-0.14
			c0.146-0.266,0.282-0.532,0.411-0.803c0.027-0.059,0.057-0.113,0.083-0.172c0.145-0.312,0.277-0.631,0.4-0.947
			c0.012-0.03,0.026-0.061,0.038-0.092c0.018-0.045,0.03-0.094,0.047-0.142c0.103-0.272,0.196-0.553,0.282-0.827
			c0.018-0.058,0.036-0.109,0.053-0.166c0.096-0.318,0.18-0.645,0.255-0.966c0.007-0.028,0.016-0.06,0.022-0.088
			c0.011-0.045,0.016-0.089,0.025-0.134c0.069-0.319,0.131-0.641,0.181-0.963c0.006-0.032,0.013-0.062,0.018-0.103
			c0.052-0.346,0.089-0.688,0.118-1.032c0.003-0.037,0.01-0.072,0.012-0.107c0.004-0.038,0.003-0.075,0.006-0.114
			c0.022-0.331,0.039-0.661,0.042-0.989C42.164,42.532,42.156,42.193,42.145,41.855z"/>
		<path d="M54.232,30.529c0.006,0.349,0.016,0.699,0.03,1.056c0.002,0.058,0.004,0.112,0.006,0.169
			c0.017,0.352,0.04,0.71,0.072,1.076c0.003,0.029,0.003,0.059,0.006,0.087c0.005,0.052,0.013,0.106,0.018,0.158
			c0.018,0.176,0.037,0.354,0.06,0.534c0.013,0.103,0.026,0.205,0.041,0.31c0.024,0.179,0.054,0.36,0.085,0.543
			c0.018,0.106,0.034,0.212,0.055,0.319c0.036,0.199,0.08,0.402,0.124,0.607c0.021,0.098,0.039,0.188,0.062,0.285
			c0.07,0.309,0.149,0.617,0.239,0.938l1.726,1.73c-0.09-0.32-0.168-0.631-0.238-0.934c-0.025-0.109-0.046-0.215-0.069-0.322
			c-0.041-0.191-0.082-0.383-0.116-0.568c-0.022-0.121-0.042-0.235-0.062-0.354c-0.028-0.167-0.055-0.333-0.077-0.495
			c-0.018-0.121-0.033-0.238-0.048-0.357c-0.019-0.154-0.036-0.312-0.052-0.459c-0.011-0.105-0.021-0.211-0.029-0.314
			c-0.03-0.352-0.054-0.696-0.069-1.035c-0.003-0.072-0.006-0.145-0.008-0.215c-0.014-0.346-0.023-0.688-0.029-1.025
			c-0.003-0.322,0.006-0.631,0.02-0.933c0.004-0.079,0.009-0.156,0.013-0.233c0.012-0.184,0.028-0.354,0.045-0.533
			c0.018-0.179,0.036-0.354,0.059-0.521c0.019-0.142,0.04-0.279,0.063-0.415c0.027-0.166,0.057-0.329,0.09-0.487
			c0.029-0.139,0.06-0.275,0.092-0.408c0.028-0.112,0.057-0.224,0.087-0.332c0.04-0.139,0.081-0.273,0.125-0.405
			c0.032-0.102,0.065-0.203,0.101-0.3c0.05-0.136,0.102-0.266,0.155-0.394c0.033-0.079,0.065-0.161,0.1-0.237
			c0.062-0.136,0.127-0.264,0.193-0.39c0.032-0.062,0.062-0.127,0.095-0.188c0.056-0.1,0.115-0.19,0.173-0.284
			c0.052-0.084,0.102-0.173,0.155-0.252c0.065-0.097,0.134-0.184,0.202-0.274c0.05-0.066,0.099-0.138,0.149-0.201
			c0.114-0.141,0.23-0.271,0.35-0.395c0.037-0.037,0.074-0.07,0.11-0.105c0.085-0.084,0.171-0.166,0.258-0.241
			c0.047-0.04,0.094-0.076,0.142-0.114c0.078-0.063,0.157-0.125,0.236-0.182c0.05-0.036,0.101-0.069,0.15-0.104
			c0.078-0.051,0.156-0.101,0.234-0.146c0.05-0.029,0.1-0.059,0.15-0.085c0.08-0.043,0.159-0.082,0.239-0.118
			c0.047-0.022,0.095-0.045,0.142-0.064c0.087-0.036,0.173-0.067,0.259-0.097c0.038-0.014,0.078-0.029,0.117-0.041
			c0.123-0.038,0.246-0.07,0.366-0.095c0.343-0.068,0.692-0.103,1.046-0.103c1.515,0,3.079,0.627,4.333,1.886
			c-0.575-0.577-1.15-1.154-1.726-1.732c-0.94-0.943-2.056-1.532-3.193-1.768c-0.379-0.078-0.761-0.117-1.14-0.117
			c-0.353,0-0.703,0.034-1.047,0.102c-0.119,0.024-0.24,0.057-0.363,0.094c-0.043,0.014-0.086,0.03-0.128,0.045
			c-0.082,0.028-0.164,0.058-0.247,0.093c-0.05,0.021-0.101,0.045-0.151,0.068c-0.076,0.036-0.152,0.072-0.229,0.113
			c-0.053,0.028-0.106,0.059-0.159,0.09c-0.075,0.044-0.15,0.091-0.226,0.141c-0.053,0.034-0.104,0.069-0.157,0.107
			c-0.077,0.055-0.153,0.115-0.229,0.177c-0.049,0.039-0.098,0.077-0.146,0.119c-0.086,0.074-0.171,0.155-0.255,0.237
			c-0.037,0.036-0.074,0.069-0.111,0.107c-0.117,0.121-0.232,0.249-0.345,0.387c-0.002,0.003-0.004,0.006-0.007,0.009
			c-0.049,0.061-0.095,0.128-0.142,0.191c-0.07,0.093-0.142,0.184-0.209,0.284c-0.049,0.071-0.094,0.151-0.141,0.227
			c-0.058,0.095-0.118,0.184-0.174,0.283c-0.006,0.01-0.011,0.021-0.016,0.03c-0.029,0.053-0.056,0.11-0.084,0.165
			c-0.069,0.133-0.138,0.267-0.202,0.409c-0.034,0.075-0.065,0.155-0.099,0.233c-0.038,0.091-0.077,0.176-0.113,0.271
			c-0.016,0.039-0.027,0.085-0.043,0.125c-0.035,0.097-0.067,0.196-0.1,0.296c-0.045,0.135-0.087,0.272-0.127,0.414
			c-0.029,0.105-0.057,0.213-0.084,0.322c-0.019,0.073-0.04,0.141-0.057,0.216c-0.015,0.064-0.024,0.137-0.038,0.202
			c-0.032,0.156-0.062,0.317-0.09,0.482c-0.022,0.136-0.043,0.272-0.062,0.413c-0.022,0.173-0.042,0.353-0.059,0.533
			c-0.009,0.09-0.023,0.173-0.03,0.266c-0.006,0.082-0.009,0.169-0.014,0.252c-0.005,0.083-0.01,0.166-0.014,0.251
			C54.238,29.904,54.23,30.211,54.232,30.529z"/>
		<path d="M72.678,23.584c0.241,0.286,0.476,0.577,0.699,0.879c0.161,0.217,0.318,0.438,0.471,0.662
			c0.019,0.027,0.035,0.056,0.054,0.083c0.135,0.199,0.266,0.401,0.394,0.606c0.05,0.081,0.098,0.163,0.146,0.244
			c0.094,0.154,0.188,0.31,0.277,0.467c0.055,0.097,0.107,0.195,0.161,0.293c0.08,0.145,0.16,0.288,0.237,0.436
			c0.057,0.106,0.109,0.215,0.164,0.322c0.071,0.141,0.143,0.28,0.211,0.422c0.056,0.114,0.108,0.229,0.162,0.345
			c0.064,0.138,0.129,0.276,0.191,0.416c0.053,0.119,0.104,0.239,0.155,0.359c0.06,0.139,0.118,0.276,0.176,0.416
			c0.05,0.122,0.099,0.245,0.147,0.368c0.049,0.124,0.097,0.248,0.144,0.373c0.114,0.299,0.224,0.6,0.328,0.902
			c0.011,0.032,0.023,0.064,0.034,0.097c0.115,0.338,0.225,0.681,0.329,1.021c0.028,0.09,0.055,0.184,0.081,0.271
			c0.078,0.261,0.153,0.521,0.225,0.777c0.027,0.102,0.055,0.197,0.081,0.299c0.091,0.34,0.179,0.683,0.26,1.021L55.92,40.879
			c0.037,0.176,0.083,0.365,0.132,0.561c0.012,0.045,0.023,0.094,0.035,0.141c0.051,0.193,0.105,0.396,0.168,0.605
			c0.002,0.004,0.002,0.008,0.004,0.016c0.062,0.214,0.134,0.435,0.209,0.656c0.018,0.056,0.036,0.104,0.054,0.158
			c0.072,0.211,0.149,0.424,0.231,0.645c0.007,0.017,0.012,0.029,0.019,0.05c0.001,0.003,0.003,0.007,0.004,0.011
			c0.113,0.299,0.239,0.598,0.374,0.897c0.018,0.039,0.034,0.075,0.052,0.114c0.132,0.291,0.274,0.584,0.426,0.877
			c0.025,0.052,0.051,0.102,0.077,0.146c0.152,0.288,0.315,0.573,0.488,0.855c0.03,0.051,0.061,0.1,0.092,0.146
			c0.178,0.283,0.364,0.562,0.562,0.833c0.012,0.018,0.021,0.034,0.034,0.053c0.028,0.039,0.061,0.073,0.09,0.111
			c0.117,0.155,0.238,0.309,0.362,0.456c0.049,0.062,0.098,0.119,0.148,0.179c0.17,0.194,0.345,0.391,0.528,0.572
			c0.575,0.577,1.149,1.154,1.725,1.73c-0.184-0.187-0.358-0.379-0.528-0.573c-0.05-0.06-0.098-0.115-0.146-0.175
			c-0.128-0.151-0.251-0.312-0.371-0.469c-0.038-0.052-0.077-0.102-0.114-0.148c-0.2-0.271-0.388-0.557-0.566-0.84
			c-0.03-0.051-0.061-0.098-0.091-0.146c-0.173-0.281-0.336-0.566-0.488-0.855c-0.026-0.049-0.052-0.1-0.078-0.146
			c-0.15-0.291-0.293-0.584-0.425-0.874c-0.019-0.041-0.035-0.081-0.053-0.121c-0.134-0.301-0.259-0.6-0.372-0.893
			c-0.01-0.027-0.02-0.056-0.03-0.082c-0.078-0.207-0.152-0.411-0.221-0.612c-0.021-0.061-0.041-0.12-0.062-0.179
			c-0.072-0.22-0.142-0.437-0.203-0.646c-0.005-0.018-0.009-0.029-0.014-0.047c-0.058-0.195-0.109-0.389-0.158-0.572
			c-0.014-0.053-0.026-0.104-0.039-0.15c-0.048-0.189-0.093-0.379-0.13-0.555l21.885-6.215c-0.081-0.343-0.169-0.684-0.26-1.021
			c-0.026-0.104-0.055-0.203-0.083-0.307c-0.07-0.254-0.143-0.508-0.218-0.76c-0.029-0.101-0.059-0.195-0.088-0.294
			c-0.104-0.339-0.211-0.674-0.325-1.006c-0.015-0.044-0.031-0.088-0.047-0.132c-0.101-0.291-0.206-0.581-0.315-0.868
			c-0.017-0.045-0.031-0.091-0.049-0.135c-0.032-0.085-0.067-0.168-0.101-0.253c-0.047-0.117-0.093-0.234-0.141-0.354
			c-0.061-0.146-0.123-0.296-0.187-0.439c-0.048-0.11-0.095-0.225-0.144-0.331c-0.067-0.15-0.137-0.3-0.206-0.449
			c-0.049-0.104-0.098-0.21-0.147-0.313c-0.073-0.152-0.149-0.302-0.226-0.452c-0.051-0.099-0.1-0.198-0.151-0.295
			c-0.081-0.156-0.166-0.309-0.25-0.461c-0.05-0.091-0.099-0.182-0.149-0.271c-0.094-0.165-0.191-0.326-0.29-0.488
			c-0.045-0.074-0.088-0.149-0.134-0.223c-0.127-0.204-0.258-0.405-0.392-0.604c-0.02-0.029-0.037-0.06-0.057-0.088
			c-0.15-0.221-0.304-0.438-0.462-0.651c-0.002-0.004-0.006-0.007-0.008-0.011c-0.225-0.302-0.459-0.593-0.699-0.879
			c-0.058-0.068-0.117-0.137-0.176-0.205c-0.247-0.284-0.5-0.563-0.765-0.829c-0.374-0.375-0.748-0.75-1.122-1.126
			c-0.201-0.202-0.402-0.403-0.604-0.605c0.265,0.266,0.518,0.545,0.765,0.829C72.562,23.447,72.62,23.516,72.678,23.584z"/>
		<path d="M76.518,54.577c0.178-0.196,0.351-0.397,0.521-0.604c0.013-0.016,0.026-0.031,0.04-0.047
			c0.03-0.037,0.06-0.078,0.09-0.115c0.106-0.134,0.211-0.268,0.312-0.4c0.045-0.062,0.09-0.118,0.134-0.182
			c0.111-0.147,0.22-0.306,0.326-0.461c0.029-0.043,0.06-0.084,0.088-0.127c0.136-0.201,0.268-0.404,0.396-0.613
			c0.022-0.032,0.043-0.069,0.065-0.104c0.103-0.17,0.204-0.342,0.303-0.516c0.016-0.029,0.033-0.06,0.05-0.089
			c0.022-0.041,0.043-0.082,0.065-0.123c0.086-0.152,0.169-0.312,0.251-0.473c0.035-0.063,0.071-0.135,0.105-0.203
			c0.111-0.224,0.221-0.444,0.325-0.678l-1.726-1.732c-0.104,0.229-0.214,0.455-0.326,0.683c-0.033,0.063-0.069,0.135-0.104,0.201
			c-0.082,0.155-0.165,0.312-0.25,0.471c-0.04,0.072-0.079,0.146-0.119,0.216c-0.094,0.164-0.19,0.327-0.288,0.488
			c-0.027,0.046-0.054,0.092-0.081,0.139c-0.126,0.202-0.256,0.402-0.388,0.604c-0.035,0.051-0.07,0.101-0.105,0.15
			c-0.102,0.146-0.204,0.293-0.31,0.438c-0.046,0.062-0.094,0.127-0.142,0.189c-0.101,0.135-0.203,0.267-0.308,0.396
			c-0.044,0.054-0.087,0.108-0.131,0.163c-0.169,0.206-0.343,0.406-0.521,0.604c-0.037,0.041-0.075,0.08-0.112,0.121
			c-0.156,0.17-0.316,0.336-0.48,0.5c-0.037,0.036-0.074,0.074-0.111,0.111c-0.19,0.186-0.385,0.365-0.582,0.542
			c-0.042,0.037-0.085,0.071-0.127,0.108c-0.176,0.148-0.354,0.302-0.537,0.442c-0.037,0.029-0.074,0.062-0.111,0.093
			c-0.21,0.159-0.425,0.316-0.643,0.473c-0.047,0.033-0.096,0.062-0.144,0.098c-0.194,0.133-0.392,0.262-0.592,0.385
			c-0.038,0.023-0.074,0.049-0.111,0.07c-0.229,0.139-0.463,0.271-0.699,0.396c-0.054,0.026-0.108,0.058-0.163,0.086
			c-0.214,0.108-0.43,0.22-0.65,0.318c-0.035,0.02-0.07,0.034-0.105,0.055c-0.248,0.109-0.501,0.22-0.756,0.317
			c-0.061,0.021-0.121,0.046-0.181,0.069c-0.234,0.09-0.472,0.176-0.713,0.255c-0.032,0.011-0.064,0.021-0.097,0.03
			c-0.266,0.089-0.537,0.166-0.812,0.24c-0.066,0.021-0.133,0.035-0.2,0.056c-0.258,0.063-0.518,0.129-0.782,0.185
			c-0.025,0.008-0.05,0.016-0.075,0.02c-0.285,0.061-0.576,0.107-0.869,0.156c-0.072,0.012-0.145,0.021-0.217,0.029
			c-0.284,0.042-0.571,0.079-0.862,0.105c-0.016,0.005-0.031,0.007-0.047,0.009c-0.305,0.026-0.614,0.051-0.927,0.065
			c-0.076,0.004-0.152,0.008-0.229,0.014c-0.316,0.014-0.635,0.021-0.96,0.021c-4.704,0-9.775-2.371-13.57-6.181
			c0.003,0.003,0.006,0.006,0.008,0.008c-0.003-0.002-0.005-0.006-0.009-0.008l1.726,1.731c3.795,3.81,8.866,6.181,13.571,6.181
			c0.324,0,0.644-0.011,0.96-0.022c0.076-0.004,0.153-0.008,0.23-0.012c0.312-0.02,0.621-0.039,0.926-0.066
			c0.017-0.002,0.032-0.004,0.048-0.008c0.291-0.027,0.577-0.064,0.861-0.107c0.072-0.01,0.145-0.021,0.217-0.029
			c0.293-0.046,0.583-0.1,0.868-0.156c0.026-0.005,0.052-0.012,0.078-0.018c0.264-0.059,0.523-0.118,0.78-0.188
			c0.067-0.018,0.134-0.033,0.2-0.053c0.274-0.075,0.546-0.152,0.812-0.238c0.032-0.013,0.064-0.021,0.097-0.033
			c0.24-0.08,0.477-0.166,0.711-0.256c0.061-0.021,0.121-0.048,0.182-0.07c0.256-0.103,0.508-0.204,0.755-0.317
			c0.037-0.019,0.072-0.035,0.108-0.052c0.22-0.104,0.436-0.21,0.648-0.32c0.054-0.027,0.109-0.059,0.164-0.086
			c0.236-0.127,0.469-0.26,0.697-0.396c0.038-0.021,0.076-0.049,0.114-0.07c0.199-0.123,0.396-0.251,0.589-0.385
			c0.049-0.03,0.098-0.063,0.146-0.101c0.218-0.151,0.432-0.309,0.64-0.471c0.04-0.03,0.077-0.062,0.115-0.095
			c0.182-0.146,0.358-0.289,0.533-0.439c0.043-0.037,0.087-0.072,0.13-0.111c0.197-0.176,0.392-0.354,0.58-0.539
			c0.039-0.037,0.076-0.076,0.114-0.111c0.162-0.163,0.322-0.329,0.479-0.498C76.442,54.658,76.48,54.618,76.518,54.577z"/>
		<path d="M81.479,30.148c0.048,0,0.105,0,0.172,0c0.48,0,1.389,0.039,2.043,0.696c-0.575-0.577-1.15-1.154-1.725-1.731
			c-0.655-0.657-1.562-0.697-2.044-0.697c-0.065,0-0.123,0.001-0.172,0.001c-0.655,0-1.624,0-1.675,0l1.726,1.731
			C79.854,30.148,80.823,30.148,81.479,30.148z"/>
		<polygon points="95.928,21.354 94.202,19.622 94.166,25.392 95.892,27.124 		"/>
		<path d="M113.556,22.172c0.071,0.079,0.143,0.158,0.209,0.237c0.039,0.045,0.075,0.089,0.112,0.134
			c0.059,0.07,0.118,0.141,0.174,0.211c0.037,0.047,0.072,0.093,0.108,0.139c0.053,0.068,0.105,0.137,0.155,0.203
			c0.029,0.039,0.057,0.077,0.084,0.115c0.064,0.088,0.126,0.175,0.185,0.26c0.027,0.038,0.054,0.077,0.079,0.115
			c0.06,0.087,0.115,0.172,0.169,0.256c0.02,0.029,0.04,0.06,0.058,0.089c0.07,0.11,0.137,0.218,0.197,0.321
			c0.011,0.018,0.02,0.034,0.03,0.052c0.05,0.085,0.097,0.168,0.141,0.248c0.018,0.031,0.033,0.062,0.051,0.092
			c0.034,0.063,0.066,0.126,0.097,0.185c0.015,0.028,0.029,0.057,0.043,0.083c0.031,0.062,0.061,0.12,0.087,0.176
			c0.008,0.017,0.017,0.034,0.024,0.051c0.032,0.07,0.062,0.136,0.087,0.193c0.003,0.006,0.004,0.01,0.007,0.016
			c0.021,0.05,0.04,0.095,0.055,0.133c0.007,0.017,0.012,0.031,0.017,0.045c0.006,0.014,0.011,0.028,0.015,0.039
			c0.008,0.022,0.014,0.043,0.018,0.056l1.726,1.732c-0.004-0.014-0.011-0.035-0.02-0.061c-0.002-0.006-0.005-0.013-0.007-0.019
			c-0.005-0.016-0.011-0.029-0.018-0.048c-0.001-0.005-0.005-0.012-0.007-0.016c-0.014-0.036-0.03-0.077-0.051-0.124
			c-0.003-0.009-0.006-0.015-0.01-0.023c-0.024-0.057-0.054-0.121-0.087-0.191c-0.007-0.017-0.016-0.034-0.023-0.051
			c-0.027-0.056-0.056-0.114-0.088-0.177c-0.013-0.026-0.026-0.054-0.041-0.081c-0.031-0.061-0.063-0.122-0.099-0.187
			c-0.017-0.03-0.032-0.06-0.05-0.091c-0.044-0.079-0.091-0.162-0.141-0.247c-0.011-0.019-0.02-0.035-0.03-0.053
			c-0.062-0.104-0.127-0.211-0.196-0.321c-0.02-0.03-0.04-0.062-0.061-0.093c-0.053-0.082-0.107-0.164-0.165-0.249
			c-0.027-0.041-0.055-0.082-0.084-0.123c-0.057-0.082-0.116-0.165-0.177-0.249c-0.02-0.026-0.037-0.053-0.057-0.08
			c-0.012-0.015-0.023-0.029-0.034-0.044c-0.048-0.064-0.099-0.129-0.148-0.194c-0.038-0.049-0.076-0.098-0.115-0.147
			c-0.053-0.064-0.107-0.131-0.162-0.196c-0.041-0.05-0.081-0.1-0.124-0.149c-0.061-0.07-0.124-0.141-0.187-0.211
			c-0.041-0.046-0.08-0.091-0.122-0.137c-0.106-0.115-0.217-0.23-0.331-0.346c-0.575-0.577-1.15-1.154-1.726-1.732
			c0.115,0.116,0.227,0.232,0.333,0.349C113.49,22.098,113.522,22.135,113.556,22.172z"/>
		<path d="M94.037,49.166c0.009,0.177,0.018,0.352,0.031,0.518c0.003,0.034,0.004,0.072,0.007,0.106
			c0.011,0.122,0.026,0.237,0.041,0.354c0.005,0.039,0.009,0.082,0.014,0.121c0.026,0.188,0.059,0.375,0.096,0.549
			c0.008,0.041,0.02,0.078,0.028,0.119c0.03,0.129,0.063,0.256,0.101,0.375c0.016,0.051,0.033,0.102,0.05,0.147
			c0.017,0.048,0.031,0.103,0.049,0.146c0.021,0.051,0.045,0.098,0.066,0.146c0.022,0.052,0.045,0.104,0.069,0.15
			c0.046,0.095,0.097,0.181,0.148,0.264c0.024,0.038,0.046,0.078,0.071,0.111c0.008,0.015,0.014,0.023,0.021,0.035
			c0.074,0.104,0.153,0.194,0.239,0.28c0.575,0.578,1.15,1.155,1.726,1.731c-0.094-0.094-0.179-0.199-0.259-0.312
			c-0.028-0.041-0.053-0.086-0.079-0.128c-0.05-0.078-0.098-0.16-0.142-0.249c-0.025-0.051-0.049-0.104-0.072-0.157
			c-0.04-0.093-0.078-0.188-0.113-0.287c-0.017-0.051-0.034-0.102-0.051-0.15c-0.036-0.117-0.068-0.241-0.099-0.369
			c-0.01-0.042-0.021-0.082-0.03-0.126c-0.036-0.173-0.068-0.354-0.094-0.544c-0.007-0.046-0.011-0.098-0.017-0.145
			c-0.018-0.144-0.033-0.287-0.045-0.438c-0.015-0.167-0.024-0.343-0.032-0.521c-0.004-0.088-0.01-0.172-0.013-0.264
			c-0.009-0.271-0.013-0.555-0.01-0.852c0.01-1.369,0.062-8.254,0.091-11.937c0.024-3.245,0.031-4.079,0.031-4.122
			c0.009-0.021,0.021-0.046,0.033-0.072c0.014-0.029,0.03-0.064,0.048-0.104c0.002-0.004,0.004-0.008,0.006-0.012
			c0.017-0.035,0.034-0.074,0.054-0.116c0.005-0.012,0.011-0.021,0.016-0.034c0.017-0.034,0.034-0.073,0.054-0.112
			c0.01-0.021,0.02-0.041,0.029-0.062c0.018-0.034,0.034-0.067,0.053-0.104c0.014-0.026,0.027-0.059,0.042-0.084
			c0.017-0.033,0.034-0.067,0.052-0.104c0.017-0.033,0.035-0.065,0.053-0.104c0.018-0.033,0.035-0.063,0.054-0.103
			c0.021-0.04,0.043-0.08,0.065-0.122c0.017-0.029,0.033-0.062,0.051-0.093c0.021-0.039,0.044-0.078,0.065-0.118
			c0.063-0.113,0.132-0.229,0.203-0.35c0.016-0.024,0.03-0.049,0.045-0.073c0.078-0.128,0.16-0.259,0.249-0.394
			c0.009-0.017,0.019-0.026,0.028-0.041c0.087-0.134,0.179-0.267,0.275-0.396c0.012-0.018,0.023-0.033,0.036-0.051
			c0.1-0.135,0.205-0.271,0.314-0.408c0.026-0.032,0.052-0.064,0.079-0.098c0.034-0.041,0.07-0.083,0.105-0.125
			c0.04-0.047,0.08-0.095,0.121-0.142c0.037-0.042,0.075-0.083,0.113-0.125c0.042-0.046,0.085-0.093,0.128-0.139
			c0.04-0.041,0.08-0.083,0.121-0.124c0.044-0.045,0.088-0.09,0.133-0.133c0.042-0.042,0.086-0.083,0.129-0.123
			c0.047-0.044,0.093-0.087,0.14-0.129c0.044-0.04,0.091-0.079,0.137-0.119c0.048-0.041,0.096-0.083,0.145-0.123
			c0.048-0.039,0.098-0.077,0.146-0.115c0.051-0.038,0.1-0.078,0.15-0.115c0.051-0.038,0.103-0.074,0.153-0.11
			c0.053-0.036,0.104-0.073,0.157-0.108c0.053-0.035,0.107-0.069,0.162-0.103c0.054-0.034,0.107-0.068,0.162-0.101
			c0.057-0.033,0.115-0.065,0.173-0.097c0.055-0.03,0.109-0.062,0.165-0.09c0.061-0.031,0.122-0.06,0.185-0.089
			c0.056-0.026,0.111-0.055,0.168-0.079c0.064-0.028,0.13-0.053,0.194-0.079c0.058-0.023,0.115-0.048,0.174-0.068
			c0.067-0.024,0.137-0.046,0.206-0.068c0.059-0.019,0.116-0.04,0.176-0.057c0.073-0.021,0.147-0.038,0.222-0.057
			c0.059-0.015,0.116-0.031,0.176-0.044c0.08-0.018,0.162-0.03,0.244-0.045c0.057-0.01,0.111-0.021,0.168-0.029
			c0.092-0.014,0.188-0.022,0.28-0.031c0.05-0.004,0.098-0.012,0.147-0.016c0.145-0.01,0.292-0.016,0.441-0.016
			c0.896,0,1.577,0.333,2.096,0.854l-1.726-1.732c-0.519-0.521-1.2-0.854-2.096-0.854c-0.149,0-0.297,0.006-0.441,0.017
			c-0.051,0.003-0.099,0.011-0.148,0.015c-0.094,0.01-0.188,0.018-0.279,0.031c-0.057,0.008-0.111,0.02-0.167,0.029
			c-0.082,0.015-0.165,0.027-0.245,0.045c-0.059,0.013-0.114,0.028-0.171,0.042c-0.076,0.02-0.152,0.037-0.227,0.059
			c-0.059,0.017-0.114,0.037-0.173,0.056c-0.07,0.022-0.141,0.044-0.209,0.069c-0.059,0.021-0.113,0.045-0.17,0.067
			c-0.066,0.026-0.134,0.052-0.198,0.08c-0.056,0.024-0.109,0.052-0.164,0.077c-0.063,0.03-0.128,0.06-0.189,0.092
			c-0.054,0.027-0.105,0.057-0.158,0.085c-0.061,0.034-0.121,0.066-0.181,0.102c-0.052,0.03-0.102,0.062-0.152,0.095
			c-0.058,0.036-0.115,0.071-0.172,0.108c-0.05,0.034-0.099,0.068-0.147,0.103c-0.055,0.039-0.109,0.077-0.163,0.116
			c-0.047,0.036-0.094,0.072-0.141,0.109c-0.052,0.04-0.104,0.081-0.155,0.123c-0.046,0.037-0.09,0.075-0.134,0.113
			c-0.05,0.043-0.101,0.085-0.148,0.129c-0.043,0.039-0.085,0.078-0.128,0.118c-0.047,0.044-0.095,0.089-0.142,0.134
			c-0.04,0.04-0.079,0.08-0.118,0.12c-0.047,0.046-0.093,0.093-0.137,0.141c-0.037,0.039-0.073,0.078-0.11,0.118
			c-0.044,0.049-0.089,0.098-0.132,0.146c-0.034,0.039-0.067,0.078-0.102,0.117c-0.043,0.051-0.086,0.102-0.127,0.152
			c-0.011,0.013-0.022,0.026-0.034,0.039c-0.01,0.014-0.019,0.026-0.029,0.039c-0.114,0.141-0.223,0.282-0.326,0.423
			c-0.008,0.011-0.015,0.021-0.022,0.032c-0.103,0.141-0.199,0.28-0.29,0.417c-0.007,0.011-0.015,0.021-0.021,0.031
			c-0.09,0.137-0.174,0.271-0.254,0.401c-0.013,0.021-0.026,0.042-0.039,0.063c-0.075,0.125-0.146,0.246-0.211,0.362
			c-0.005,0.01-0.011,0.02-0.016,0.024c-0.014,0.022-0.024,0.045-0.037,0.065c-0.021,0.037-0.042,0.074-0.062,0.111
			c-0.022,0.041-0.043,0.08-0.064,0.119c-0.016,0.03-0.031,0.062-0.046,0.09c-0.022,0.043-0.045,0.084-0.065,0.125
			c-0.011,0.022-0.021,0.043-0.032,0.064c-0.022,0.045-0.044,0.089-0.064,0.13c-0.007,0.015-0.013,0.026-0.019,0.039
			c-0.023,0.048-0.045,0.093-0.064,0.134c-0.002,0.004-0.004,0.008-0.005,0.012c-0.094,0.197-0.159,0.35-0.194,0.422
			c0,0.045-0.007,0.877-0.031,4.123c-0.028,3.683-0.081,10.563-0.091,11.936c-0.003,0.298,0.001,0.581,0.01,0.854
			C94.027,48.995,94.033,49.079,94.037,49.166z"/>
		<path d="M117.964,28.891c-0.013,0.014-0.026,0.029-0.039,0.043c-0.079,0.092-0.157,0.185-0.231,0.275
			c-0.001,0.002-0.003,0.003-0.004,0.005c-0.002,0.003-0.004,0.005-0.006,0.008c-0.135,0.166-0.26,0.33-0.377,0.489
			c-0.009,0.013-0.017,0.024-0.025,0.036c-0.109,0.151-0.212,0.299-0.305,0.441c-0.01,0.014-0.019,0.026-0.027,0.04
			c-0.092,0.141-0.175,0.273-0.25,0.398c-0.007,0.01-0.013,0.021-0.019,0.03c-0.077,0.129-0.146,0.246-0.206,0.354
			c-0.001,0.002-0.002,0.004-0.003,0.006s-0.002,0.004-0.004,0.008c-0.026,0.047-0.051,0.095-0.074,0.138
			c-0.004,0.007-0.008,0.014-0.011,0.021c-0.022,0.041-0.044,0.078-0.062,0.115c-0.004,0.005-0.007,0.014-0.01,0.018
			c-0.019,0.035-0.034,0.065-0.05,0.099c-0.003,0.007-0.007,0.014-0.011,0.021c-0.017,0.029-0.031,0.062-0.044,0.084
			c0,0.051-0.008,1.008-0.035,4.604c-0.023,3.039-0.084,9.198-0.091,11.935c-0.001,0.231,0.002,0.469,0.008,0.703
			c0.002,0.073,0.005,0.146,0.008,0.223c0.007,0.181,0.018,0.354,0.031,0.533c0.004,0.053,0.004,0.104,0.009,0.153
			c0.003,0.04,0.01,0.079,0.014,0.119c0.005,0.052,0.012,0.104,0.018,0.153c0.017,0.144,0.038,0.279,0.062,0.418
			c0.007,0.039,0.013,0.08,0.021,0.119c0.033,0.17,0.073,0.338,0.121,0.5c0.01,0.033,0.023,0.067,0.034,0.104
			c0.027,0.083,0.052,0.168,0.083,0.249c0.016,0.038,0.034,0.068,0.05,0.105c0.024,0.06,0.049,0.11,0.075,0.166
			c0.049,0.104,0.104,0.198,0.163,0.295c0.028,0.047,0.056,0.098,0.087,0.143c0.014,0.021,0.023,0.04,0.037,0.062
			c0.082,0.109,0.172,0.219,0.271,0.315l1.726,1.729c-0.116-0.113-0.216-0.244-0.309-0.377c-0.03-0.045-0.057-0.09-0.085-0.138
			c-0.061-0.098-0.116-0.196-0.167-0.302c-0.024-0.053-0.049-0.104-0.071-0.157c-0.051-0.118-0.096-0.239-0.136-0.364
			c-0.011-0.033-0.023-0.063-0.033-0.102c-0.048-0.162-0.088-0.328-0.121-0.499c-0.008-0.042-0.015-0.086-0.022-0.128
			c-0.022-0.133-0.043-0.27-0.06-0.404c-0.007-0.057-0.014-0.111-0.02-0.171c-0.009-0.084-0.015-0.17-0.021-0.255
			c-0.015-0.186-0.026-0.368-0.032-0.554c-0.003-0.068-0.006-0.138-0.008-0.206c-0.006-0.237-0.009-0.477-0.008-0.709
			c0.007-2.733,0.067-8.896,0.091-11.936c0.027-3.599,0.034-4.557,0.035-4.604c0.051-0.098,0.132-0.256,0.243-0.457
			c0.001-0.001,0.001-0.002,0.002-0.003c0.012-0.021,0.024-0.044,0.037-0.066c0.055-0.098,0.116-0.202,0.185-0.315
			c0.011-0.021,0.022-0.035,0.034-0.059c0.071-0.117,0.15-0.242,0.236-0.376c0.013-0.019,0.024-0.036,0.037-0.056
			c0.091-0.139,0.189-0.281,0.296-0.43c0.012-0.019,0.021-0.029,0.033-0.045c0.113-0.155,0.235-0.314,0.366-0.479
			c0.008-0.01,0.015-0.021,0.022-0.025c0.071-0.091,0.146-0.179,0.222-0.267c0.022-0.022,0.045-0.051,0.068-0.076
			c0.056-0.062,0.113-0.128,0.172-0.191c0.031-0.033,0.063-0.067,0.096-0.101c0.054-0.056,0.107-0.112,0.163-0.168
			c0.035-0.035,0.07-0.069,0.106-0.104c0.057-0.056,0.114-0.109,0.173-0.164c0.036-0.033,0.071-0.067,0.108-0.1
			c0.067-0.061,0.136-0.119,0.205-0.179c0.03-0.025,0.061-0.052,0.091-0.078c0.101-0.083,0.204-0.164,0.31-0.244
			c0.023-0.018,0.049-0.034,0.072-0.052c0.084-0.062,0.17-0.124,0.258-0.184c0.04-0.027,0.081-0.054,0.121-0.08
			c0.075-0.049,0.15-0.097,0.227-0.145c0.046-0.027,0.092-0.055,0.139-0.082c0.076-0.044,0.154-0.088,0.233-0.13
			c0.046-0.024,0.093-0.05,0.14-0.074c0.088-0.045,0.178-0.087,0.269-0.129c0.04-0.019,0.08-0.038,0.12-0.056
			c0.132-0.058,0.267-0.113,0.404-0.163c0.018-0.007,0.037-0.013,0.056-0.02c0.12-0.043,0.242-0.084,0.366-0.12
			c0.049-0.016,0.098-0.027,0.147-0.041c0.097-0.027,0.195-0.053,0.296-0.075c0.056-0.014,0.112-0.025,0.17-0.037
			c0.098-0.02,0.196-0.037,0.296-0.054c0.059-0.009,0.117-0.02,0.176-0.026c0.108-0.015,0.218-0.025,0.328-0.035
			c0.053-0.005,0.104-0.012,0.157-0.015c0.165-0.011,0.331-0.018,0.502-0.018c1.188,0,2.027,0.397,2.62,0.992l-1.726-1.73
			c-0.593-0.596-1.432-0.993-2.62-0.993c-0.171,0-0.337,0.007-0.502,0.018c-0.053,0.004-0.104,0.01-0.157,0.015
			c-0.11,0.01-0.221,0.021-0.328,0.036c-0.059,0.008-0.117,0.017-0.176,0.026c-0.1,0.016-0.198,0.034-0.296,0.054
			c-0.058,0.012-0.114,0.023-0.17,0.036c-0.101,0.023-0.199,0.049-0.297,0.076c-0.049,0.013-0.098,0.025-0.146,0.04
			c-0.125,0.037-0.248,0.078-0.369,0.121c-0.018,0.007-0.035,0.012-0.053,0.019c-0.138,0.051-0.272,0.105-0.404,0.164
			c-0.04,0.017-0.078,0.036-0.118,0.055c-0.092,0.042-0.183,0.085-0.271,0.13c-0.047,0.023-0.092,0.048-0.138,0.072
			c-0.08,0.044-0.16,0.087-0.238,0.133c-0.045,0.026-0.089,0.053-0.133,0.079c-0.079,0.048-0.156,0.098-0.233,0.147
			c-0.038,0.025-0.077,0.051-0.115,0.076c-0.093,0.063-0.184,0.128-0.271,0.193c-0.02,0.015-0.039,0.028-0.058,0.042
			c-0.108,0.081-0.213,0.164-0.314,0.248c-0.025,0.021-0.05,0.043-0.075,0.063c-0.075,0.064-0.15,0.129-0.223,0.194
			c-0.033,0.029-0.063,0.059-0.096,0.088c-0.064,0.06-0.127,0.119-0.188,0.179c-0.031,0.03-0.062,0.062-0.093,0.092
			c-0.062,0.062-0.122,0.124-0.181,0.186c-0.026,0.028-0.053,0.056-0.079,0.083C118.097,28.741,118.029,28.815,117.964,28.891z"/>
		<polygon points="97.57,57.496 78.088,57.496 79.813,59.229 99.296,59.229 99.327,55.033 97.602,53.301 		"/>
		<path d="M150.369,30.693c0.087-0.108,0.178-0.221,0.27-0.333c0.055-0.065,0.108-0.131,0.164-0.196
			c0.064-0.077,0.131-0.154,0.197-0.231c0.059-0.067,0.117-0.134,0.178-0.201c0.068-0.077,0.139-0.155,0.211-0.232
			c0.062-0.067,0.125-0.135,0.189-0.201c0.074-0.078,0.15-0.156,0.229-0.233c0.066-0.067,0.135-0.134,0.203-0.2
			c0.079-0.078,0.161-0.154,0.244-0.23c0.071-0.066,0.145-0.132,0.217-0.197c0.086-0.075,0.174-0.149,0.262-0.225
			c0.078-0.063,0.154-0.128,0.232-0.191c0.092-0.072,0.186-0.145,0.279-0.216c0.082-0.062,0.163-0.123,0.247-0.184
			c0.098-0.069,0.198-0.138,0.3-0.205c0.086-0.059,0.173-0.117,0.262-0.174c0.104-0.065,0.213-0.129,0.32-0.191
			c0.092-0.055,0.184-0.108,0.275-0.161c0.11-0.061,0.229-0.118,0.345-0.177c0.097-0.048,0.19-0.098,0.291-0.145
			c0.118-0.056,0.243-0.106,0.366-0.158c0.103-0.043,0.201-0.087,0.307-0.127c0.129-0.05,0.264-0.094,0.396-0.139
			c0.104-0.036,0.209-0.073,0.313-0.106c0.142-0.042,0.284-0.078,0.431-0.115c0.105-0.028,0.215-0.059,0.323-0.084
			c0.154-0.035,0.312-0.062,0.476-0.09c0.105-0.02,0.213-0.042,0.324-0.059c0.18-0.027,0.365-0.044,0.557-0.062
			c0.095-0.01,0.187-0.023,0.281-0.03c0.289-0.021,0.584-0.032,0.887-0.032c1.908,0,3.16,0.523,3.979,1.346
			c-0.287-0.289-0.574-0.578-0.861-0.866c-0.287-0.289-0.576-0.577-0.859-0.866c-0.615-0.617-1.477-1.065-2.668-1.251
			c-0.396-0.062-0.835-0.095-1.312-0.095c-0.305,0-0.6,0.012-0.887,0.032c-0.1,0.008-0.188,0.021-0.285,0.031
			c-0.187,0.018-0.373,0.035-0.555,0.062c-0.109,0.017-0.219,0.04-0.326,0.06c-0.156,0.028-0.314,0.055-0.47,0.089
			c-0.112,0.025-0.222,0.058-0.33,0.086c-0.144,0.036-0.285,0.071-0.424,0.113c-0.109,0.033-0.216,0.072-0.321,0.108
			c-0.131,0.045-0.266,0.088-0.393,0.137c-0.104,0.041-0.207,0.085-0.312,0.129c-0.122,0.051-0.242,0.102-0.359,0.156
			c-0.104,0.048-0.199,0.098-0.297,0.147c-0.113,0.058-0.229,0.114-0.34,0.174c-0.097,0.053-0.188,0.108-0.279,0.163
			c-0.104,0.062-0.213,0.125-0.313,0.189c-0.091,0.058-0.181,0.117-0.269,0.177c-0.102,0.066-0.197,0.133-0.295,0.202
			c-0.084,0.061-0.168,0.123-0.25,0.187c-0.097,0.07-0.188,0.141-0.274,0.213c-0.08,0.064-0.158,0.129-0.235,0.194
			c-0.088,0.073-0.175,0.146-0.259,0.222c-0.075,0.065-0.146,0.132-0.222,0.199c-0.081,0.075-0.161,0.151-0.24,0.229
			c-0.07,0.066-0.139,0.133-0.204,0.201c-0.078,0.077-0.151,0.154-0.229,0.232c-0.062,0.067-0.127,0.134-0.188,0.201
			c-0.07,0.078-0.145,0.156-0.212,0.233c-0.062,0.067-0.118,0.133-0.179,0.199c-0.065,0.079-0.135,0.156-0.196,0.234
			c-0.058,0.064-0.106,0.129-0.161,0.193c-0.021,0.029-0.051,0.06-0.075,0.089c-0.065,0.082-0.133,0.164-0.194,0.245l-3.289-1.87
			l1.728,1.731L150.369,30.693z"/>
		<polygon points="120.241,57.496 101.098,57.496 102.823,59.229 121.967,59.229 121.999,55.033 120.273,53.301 		"/>
		<path d="M137.01,22.454c0.155,0.184,0.307,0.371,0.447,0.562c0.021,0.029,0.043,0.061,0.064,0.09
			c0.104,0.15,0.213,0.302,0.312,0.455c0.028,0.046,0.062,0.092,0.089,0.138c0.229,0.364,0.438,0.736,0.616,1.112
			c0.021,0.049,0.045,0.097,0.065,0.145c0.072,0.161,0.145,0.322,0.207,0.483c0.014,0.031,0.023,0.062,0.039,0.093
			c0.067,0.183,0.133,0.364,0.189,0.546c0.016,0.041,0.021,0.083,0.037,0.125c0.044,0.144,0.084,0.287,0.119,0.43
			c0.014,0.053,0.025,0.104,0.037,0.155c0.037,0.161,0.07,0.322,0.102,0.481c0.003,0.021,0.008,0.041,0.014,0.062
			c0.027,0.178,0.053,0.354,0.067,0.53c0.004,0.04,0.006,0.08,0.011,0.12c0.02,0.222,0.029,0.441,0.027,0.657
			c-0.016,1.75-0.035,4.614-0.059,7.48c-0.033,4.305-0.086,11.241-0.092,11.934c-0.003,0.236,0,0.476,0.006,0.716
			c0.002,0.075,0.006,0.15,0.008,0.229c0.009,0.179,0.02,0.354,0.029,0.53c0.004,0.056,0.006,0.104,0.01,0.158
			c0.004,0.043,0.013,0.084,0.018,0.127c0.005,0.056,0.012,0.105,0.021,0.16c0.018,0.146,0.037,0.281,0.062,0.42
			c0.008,0.043,0.017,0.084,0.021,0.127c0.035,0.172,0.074,0.342,0.123,0.506c0.012,0.035,0.022,0.067,0.034,0.104
			c0.027,0.088,0.056,0.18,0.089,0.264c0.014,0.034,0.031,0.067,0.047,0.104c0.023,0.059,0.051,0.109,0.076,0.167
			c0.049,0.104,0.104,0.194,0.16,0.293c0.03,0.049,0.061,0.103,0.094,0.146c0.018,0.021,0.026,0.047,0.045,0.068
			c0.078,0.105,0.164,0.206,0.256,0.301c0.576,0.576,1.149,1.153,1.729,1.73c-0.111-0.113-0.211-0.239-0.302-0.37
			c-0.032-0.046-0.062-0.097-0.093-0.146c-0.061-0.098-0.111-0.191-0.162-0.295c-0.024-0.057-0.053-0.107-0.073-0.164
			c-0.054-0.121-0.099-0.244-0.14-0.371c-0.01-0.031-0.021-0.063-0.03-0.101c-0.052-0.165-0.093-0.335-0.124-0.51
			c-0.01-0.04-0.016-0.081-0.021-0.121c-0.022-0.142-0.048-0.278-0.062-0.425c-0.009-0.055-0.015-0.104-0.021-0.158
			c-0.012-0.094-0.018-0.188-0.021-0.285c-0.016-0.179-0.021-0.355-0.03-0.535c-0.003-0.074-0.006-0.146-0.008-0.222
			c-0.005-0.241-0.008-0.479-0.006-0.72c0.005-0.69,0.059-7.631,0.091-11.936c0.021-2.865,0.044-5.729,0.061-7.479
			c0-0.216-0.014-0.436-0.028-0.657c-0.003-0.023,0-0.046-0.005-0.069c0-0.017-0.004-0.035-0.006-0.052
			c-0.02-0.175-0.039-0.351-0.067-0.528c-0.004-0.023-0.011-0.048-0.015-0.071c-0.027-0.155-0.062-0.311-0.099-0.467
			c-0.014-0.057-0.026-0.113-0.042-0.17c-0.031-0.135-0.07-0.27-0.111-0.404c-0.018-0.05-0.026-0.1-0.045-0.149
			c-0.059-0.177-0.117-0.354-0.188-0.53c-0.004-0.011-0.011-0.021-0.015-0.032c-0.013-0.03-0.023-0.062-0.039-0.091
			c-0.062-0.151-0.125-0.302-0.191-0.452c-0.021-0.054-0.049-0.106-0.074-0.16c-0.087-0.183-0.179-0.364-0.275-0.544
			c-0.002-0.004-0.004-0.009-0.006-0.013c-0.104-0.183-0.211-0.363-0.324-0.542c-0.031-0.052-0.063-0.103-0.098-0.153
			c-0.099-0.146-0.195-0.29-0.303-0.434c-0.021-0.026-0.036-0.055-0.059-0.082c-0.006-0.009-0.014-0.017-0.021-0.025
			c-0.141-0.188-0.288-0.373-0.442-0.556c-0.032-0.042-0.068-0.083-0.104-0.124c-0.162-0.186-0.329-0.368-0.505-0.546
			c-0.575-0.577-1.147-1.154-1.729-1.731c0.181,0.178,0.346,0.36,0.506,0.547C136.939,22.373,136.975,22.413,137.01,22.454z"/>
		<polygon points="143.305,57.496 123.806,57.496 125.53,59.229 145.029,59.229 145.062,55.033 143.337,53.301 		"/>
		<path d="M156.641,51.312c-0.021-0.039-0.047-0.082-0.07-0.121c-0.104-0.174-0.199-0.354-0.295-0.539
			c-0.022-0.053-0.053-0.104-0.075-0.157c-0.104-0.218-0.2-0.44-0.288-0.67c-0.021-0.054-0.037-0.108-0.061-0.162
			c-0.063-0.188-0.129-0.377-0.186-0.569c-0.021-0.078-0.043-0.156-0.064-0.236c-0.047-0.181-0.088-0.358-0.125-0.543
			c-0.015-0.068-0.026-0.144-0.043-0.215c-0.043-0.25-0.08-0.502-0.104-0.75c-0.025-0.274-0.038-0.554-0.036-0.826
			c0.003-0.34,0.017-0.664,0.041-0.976c0.021-0.252,0.048-0.489,0.08-0.725c0.007-0.05,0.01-0.104,0.017-0.152
			c0.043-0.28,0.094-0.55,0.151-0.806v-0.001c0.056-0.242,0.117-0.472,0.187-0.692c0.021-0.072,0.047-0.14,0.07-0.21
			c0.049-0.146,0.098-0.288,0.15-0.423c0.031-0.08,0.064-0.154,0.098-0.23c0.051-0.119,0.104-0.232,0.156-0.348
			c0.035-0.075,0.072-0.146,0.111-0.218c0.051-0.097,0.104-0.191,0.156-0.283c0.059-0.103,0.117-0.2,0.182-0.295
			c0.048-0.072,0.095-0.146,0.143-0.213c0.066-0.095,0.135-0.185,0.202-0.271c0.047-0.062,0.094-0.125,0.142-0.185
			c0.047-0.06,0.094-0.104,0.139-0.159c0.062-0.064,0.121-0.137,0.186-0.195c0.047-0.053,0.098-0.1,0.145-0.146
			c0.061-0.062,0.121-0.117,0.181-0.172c0.047-0.043,0.094-0.084,0.14-0.124c0.062-0.055,0.118-0.104,0.178-0.146
			c0.045-0.037,0.09-0.072,0.137-0.105c0.06-0.045,0.113-0.086,0.174-0.127c0.042-0.03,0.085-0.062,0.126-0.092
			c0.058-0.039,0.108-0.072,0.165-0.107c0.038-0.023,0.076-0.051,0.109-0.073c0.061-0.034,0.11-0.065,0.164-0.098
			c0.028-0.019,0.062-0.037,0.09-0.056c0.078-0.045,0.152-0.086,0.224-0.121c1.459-0.789,2.896-1.137,4.146-1.137
			c0.724,0,1.379,0.112,1.946,0.324l-1.726-1.729c-0.567-0.213-1.229-0.327-1.947-0.327c-1.252,0-2.688,0.347-4.148,1.136
			c-0.064,0.037-0.144,0.079-0.223,0.124c-0.021,0.015-0.048,0.028-0.07,0.042c-0.06,0.035-0.119,0.07-0.184,0.109
			c-0.031,0.021-0.066,0.043-0.1,0.062c-0.062,0.038-0.117,0.077-0.182,0.119c-0.037,0.024-0.076,0.058-0.115,0.083
			c-0.062,0.043-0.119,0.087-0.184,0.135c-0.043,0.031-0.086,0.065-0.129,0.104c-0.062,0.05-0.121,0.101-0.186,0.152
			c-0.045,0.039-0.09,0.076-0.137,0.119c-0.062,0.057-0.123,0.113-0.185,0.176c-0.046,0.047-0.091,0.092-0.138,0.141
			c-0.062,0.062-0.125,0.134-0.188,0.203c-0.045,0.052-0.09,0.102-0.134,0.152c-0.02,0.021-0.032,0.034-0.051,0.057
			c-0.03,0.041-0.062,0.09-0.098,0.132c-0.064,0.086-0.136,0.174-0.199,0.269c-0.049,0.067-0.095,0.141-0.143,0.213
			c-0.062,0.099-0.125,0.193-0.186,0.299c-0.021,0.037-0.045,0.066-0.064,0.104c-0.029,0.056-0.059,0.114-0.087,0.169
			c-0.039,0.074-0.078,0.148-0.115,0.229c-0.053,0.105-0.103,0.222-0.149,0.334c-0.033,0.08-0.068,0.16-0.104,0.244
			c-0.012,0.026-0.022,0.056-0.034,0.082c-0.039,0.104-0.072,0.215-0.106,0.321c-0.024,0.076-0.056,0.148-0.077,0.229
			c-0.062,0.197-0.117,0.406-0.167,0.623c-0.006,0.023-0.017,0.049-0.021,0.072h-0.002c-0.059,0.254-0.104,0.521-0.146,0.797
			c-0.018,0.099-0.021,0.201-0.034,0.304c-0.021,0.188-0.048,0.37-0.062,0.567c-0.002,0.004-0.002,0.008-0.002,0.012
			c0,0.011,0,0.02,0,0.025c-0.021,0.303-0.037,0.616-0.039,0.946c-0.002,0.272,0.012,0.55,0.035,0.828
			c0.002,0.003,0,0.005,0.002,0.007c0.021,0.245,0.06,0.49,0.103,0.736c0.014,0.074,0.028,0.148,0.045,0.226
			c0.036,0.179,0.077,0.354,0.124,0.532c0.021,0.081,0.042,0.162,0.064,0.243c0.057,0.19,0.117,0.382,0.188,0.567
			c0.02,0.053,0.034,0.104,0.057,0.155c0.006,0.019,0.01,0.032,0.018,0.05c0.083,0.215,0.176,0.422,0.271,0.627
			c0.022,0.051,0.049,0.103,0.073,0.149c0.095,0.188,0.194,0.371,0.302,0.548c0.021,0.037,0.043,0.076,0.064,0.113
			c0.107,0.175,0.221,0.344,0.34,0.505c0.021,0.026,0.044,0.058,0.064,0.083c0.022,0.031,0.053,0.062,0.078,0.1
			c0.146,0.188,0.301,0.363,0.463,0.526l1.728,1.729c-0.162-0.162-0.313-0.343-0.462-0.523c-0.025-0.034-0.057-0.066-0.082-0.104
			C156.9,51.71,156.768,51.516,156.641,51.312z"/>
		<path d="M173.211,21.833c0.1,0.105,0.201,0.211,0.294,0.32c0.052,0.062,0.099,0.126,0.147,0.189c0.08,0.101,0.162,0.2,0.236,0.303
			c0.027,0.043,0.059,0.088,0.088,0.131c0.082,0.12,0.164,0.24,0.235,0.362c0.04,0.065,0.077,0.133,0.115,0.199
			c0.062,0.104,0.116,0.207,0.173,0.312c0.039,0.074,0.075,0.149,0.107,0.226c0.053,0.1,0.101,0.201,0.146,0.304
			c0.034,0.08,0.067,0.16,0.104,0.24c0.033,0.082,0.062,0.164,0.095,0.246c0.088,0.233,0.168,0.471,0.239,0.713
			c0.006,0.02,0.013,0.039,0.02,0.06c0.074,0.26,0.139,0.526,0.196,0.795c0.015,0.069,0.028,0.14,0.042,0.209
			c0.046,0.229,0.087,0.462,0.121,0.696c0.008,0.047,0.017,0.092,0.021,0.138c0.04,0.277,0.072,0.559,0.101,0.843
			c0.01,0.078,0.016,0.155,0.021,0.233c0.016,0.161,0.023,0.322,0.036,0.485c0.006,0.091,0.011,0.183,0.019,0.274
			c0.008,0.158,0.014,0.317,0.021,0.477c0.003,0.09,0.007,0.181,0.009,0.271c0.005,0.172,0.01,0.345,0.012,0.518
			c0.002,0.076,0.002,0.152,0.004,0.23c0.002,0.248,0.002,0.496,0,0.746l-0.076,8.523l-0.064,8.553c0,0.104,0.002,0.202,0.006,0.301
			c0.002,0.033,0.006,0.062,0.008,0.096c0.002,0.045,0.004,0.093,0.008,0.135c0.002,0.012,0.004,0.02,0.004,0.028
			c0.017,0.129,0.031,0.247,0.057,0.354c0.004,0.021,0.01,0.039,0.016,0.06c0.021,0.104,0.051,0.195,0.08,0.277
			c0.004,0.006,0.004,0.012,0.008,0.02c0,0.002,0.002,0.004,0.002,0.006c0.021,0.048,0.041,0.091,0.062,0.133
			c0.008,0.016,0.012,0.027,0.02,0.039c0.025,0.048,0.056,0.092,0.084,0.133c0.002,0.004,0.006,0.01,0.008,0.014l0,0
			c0.033,0.045,0.064,0.084,0.104,0.119l1.729,1.73c-0.035-0.036-0.067-0.075-0.104-0.117c-0.013-0.02-0.021-0.038-0.035-0.056
			c-0.021-0.029-0.037-0.06-0.057-0.091c-0.016-0.021-0.021-0.049-0.033-0.069c-0.019-0.032-0.029-0.062-0.046-0.101
			c-0.004-0.013-0.008-0.022-0.014-0.033c-0.028-0.08-0.058-0.172-0.076-0.268c-0.008-0.021-0.015-0.043-0.019-0.062
			c-0.021-0.107-0.041-0.227-0.053-0.354c-0.006-0.055-0.01-0.109-0.014-0.168c-0.002-0.027-0.004-0.058-0.006-0.087
			c-0.004-0.097-0.006-0.194-0.006-0.305l0.062-8.552l0.075-8.525c0.002-0.249,0.002-0.498,0.001-0.746
			c-0.001-0.078-0.004-0.152-0.004-0.23c-0.003-0.172-0.009-0.342-0.013-0.512c-0.002-0.096-0.006-0.188-0.008-0.279
			c-0.007-0.153-0.014-0.312-0.021-0.463c-0.007-0.1-0.011-0.193-0.019-0.293c-0.011-0.148-0.021-0.301-0.033-0.45
			c-0.004-0.065-0.008-0.132-0.014-0.197c-0.005-0.024-0.009-0.049-0.011-0.074c-0.024-0.278-0.062-0.555-0.097-0.827
			c-0.01-0.051-0.02-0.101-0.023-0.15c-0.033-0.23-0.072-0.459-0.117-0.687c-0.018-0.071-0.029-0.144-0.047-0.214
			c-0.058-0.268-0.119-0.532-0.193-0.791c-0.006-0.024-0.018-0.048-0.021-0.071c-0.066-0.235-0.146-0.467-0.23-0.695
			c-0.016-0.035-0.021-0.073-0.037-0.108c-0.021-0.053-0.045-0.104-0.064-0.157c-0.029-0.074-0.062-0.148-0.095-0.222
			c-0.047-0.107-0.097-0.213-0.146-0.318c-0.033-0.072-0.068-0.145-0.104-0.216c-0.06-0.108-0.116-0.215-0.181-0.32
			c-0.037-0.064-0.069-0.129-0.108-0.192c-0.076-0.126-0.159-0.249-0.243-0.37c-0.025-0.041-0.056-0.083-0.083-0.123
			c-0.003-0.005-0.006-0.01-0.01-0.015c-0.073-0.102-0.155-0.2-0.233-0.3c-0.049-0.06-0.093-0.121-0.145-0.18
			c-0.137-0.16-0.276-0.317-0.432-0.47c-0.576-0.577-1.147-1.154-1.727-1.731c0.002,0.001,0.003,0.003,0.005,0.005l-0.005-0.005
			C173.121,21.731,173.164,21.784,173.211,21.833z"/>
		<path d="M181.082,56.364c0.029-0.034,0.061-0.067,0.089-0.104c0.06-0.068,0.117-0.14,0.175-0.205
			c0.021-0.021,0.035-0.046,0.053-0.062c0.011-0.01,0.018-0.02,0.021-0.027c0.035-0.044,0.068-0.088,0.104-0.131
			c0.045-0.059,0.088-0.111,0.129-0.167c0.043-0.056,0.084-0.106,0.123-0.161c0.024-0.031,0.052-0.062,0.072-0.098
			c0.03-0.042,0.062-0.088,0.092-0.127c0.022-0.031,0.045-0.062,0.065-0.094c0.029-0.041,0.058-0.082,0.085-0.121
			c0.021-0.029,0.041-0.062,0.062-0.088c0.021-0.037,0.05-0.074,0.074-0.108c0.02-0.028,0.037-0.058,0.056-0.082
			c0.024-0.036,0.047-0.07,0.069-0.104c0.016-0.022,0.027-0.051,0.047-0.069c0.021-0.034,0.043-0.066,0.062-0.099
			c0.044-0.066,0.085-0.135,0.122-0.188l-0.92-3.678l-1.729-1.729l0.92,3.674c-0.035,0.059-0.078,0.12-0.121,0.188
			c-0.021,0.028-0.043,0.062-0.063,0.099c-0.015,0.021-0.026,0.043-0.043,0.062c-0.021,0.035-0.049,0.072-0.071,0.111
			c-0.019,0.022-0.033,0.049-0.054,0.073c-0.024,0.039-0.054,0.079-0.082,0.12c-0.021,0.023-0.034,0.052-0.053,0.077
			c-0.031,0.045-0.062,0.093-0.101,0.14c-0.019,0.023-0.033,0.049-0.052,0.071c-0.039,0.055-0.082,0.11-0.125,0.17
			c-0.013,0.021-0.024,0.035-0.039,0.056c-0.114,0.153-0.239,0.316-0.377,0.483c-0.008,0.01-0.017,0.021-0.022,0.028
			c-0.07,0.09-0.147,0.181-0.229,0.271c-0.021,0.021-0.039,0.045-0.06,0.068c-0.178,0.2-0.367,0.405-0.572,0.612
			c-0.025,0.024-0.053,0.055-0.078,0.078c-0.089,0.088-0.184,0.176-0.273,0.264c-0.02,0.019-0.035,0.033-0.056,0.052
			c-0.108,0.103-0.225,0.198-0.342,0.3c-0.026,0.021-0.06,0.049-0.087,0.071c-0.098,0.079-0.194,0.155-0.297,0.233
			c-0.031,0.023-0.062,0.049-0.096,0.071c-0.127,0.097-0.256,0.188-0.394,0.281c-0.022,0.019-0.05,0.032-0.071,0.049
			c-0.115,0.076-0.23,0.151-0.354,0.226c-0.038,0.022-0.078,0.047-0.117,0.069c-0.146,0.089-0.295,0.173-0.445,0.251
			c-0.004,0.003-0.007,0.003-0.009,0.003c-0.147,0.079-0.31,0.153-0.467,0.228c-0.044,0.021-0.089,0.039-0.134,0.061
			c-0.141,0.062-0.276,0.116-0.422,0.172c-0.028,0.012-0.062,0.023-0.094,0.034c-0.17,0.062-0.346,0.12-0.521,0.173
			c-0.045,0.016-0.091,0.025-0.136,0.038c-0.146,0.041-0.297,0.079-0.446,0.113c-0.047,0.011-0.093,0.021-0.144,0.03
			c-0.188,0.039-0.384,0.076-0.58,0.104c-0.033,0.005-0.07,0.011-0.106,0.017c-0.169,0.021-0.341,0.041-0.517,0.056
			c-0.06,0.005-0.112,0.01-0.172,0.014c-0.211,0.015-0.427,0.021-0.646,0.021c-0.189,0-0.379-0.006-0.562-0.018
			c-2.756-0.156-4.693-1.466-5.897-2.673c0.075-0.099,0.149-0.194,0.223-0.291l-1.727-1.729c-0.085,0.113-0.175,0.229-0.269,0.353
			c-0.022,0.031-0.052,0.063-0.076,0.099c-0.067,0.088-0.137,0.174-0.211,0.267c-0.026,0.032-0.061,0.069-0.088,0.104
			c-0.07,0.085-0.145,0.171-0.218,0.257c-0.041,0.047-0.087,0.1-0.13,0.146c-0.066,0.075-0.136,0.147-0.207,0.229
			c-0.05,0.053-0.102,0.104-0.15,0.155c-0.069,0.072-0.146,0.146-0.22,0.222c-0.057,0.055-0.11,0.104-0.168,0.16
			c-0.077,0.069-0.159,0.146-0.241,0.217c-0.062,0.053-0.119,0.104-0.184,0.153c-0.088,0.073-0.182,0.146-0.271,0.222
			c-0.062,0.047-0.123,0.098-0.188,0.145c-0.105,0.08-0.225,0.158-0.338,0.234c-0.059,0.037-0.106,0.076-0.165,0.113
			c-0.177,0.109-0.354,0.221-0.546,0.323c-0.029,0.021-0.062,0.032-0.098,0.052c-0.16,0.088-0.326,0.172-0.5,0.254
			c-0.07,0.03-0.146,0.062-0.224,0.097c-0.14,0.062-0.28,0.12-0.429,0.178c-0.088,0.034-0.18,0.063-0.271,0.099
			c-0.144,0.049-0.287,0.099-0.437,0.146c-0.101,0.028-0.201,0.06-0.304,0.087c-0.15,0.041-0.309,0.079-0.465,0.113
			c-0.106,0.022-0.217,0.05-0.324,0.07c-0.168,0.031-0.342,0.062-0.518,0.088c-0.109,0.02-0.221,0.035-0.334,0.051
			c-0.193,0.023-0.398,0.044-0.604,0.062c-0.104,0.012-0.198,0.021-0.305,0.026c-0.312,0.021-0.639,0.028-0.977,0.028
			c-0.438,0-0.867-0.018-1.281-0.053c-2.902-0.24-5.188-1.311-6.849-2.975c0.573,0.576,1.147,1.152,1.726,1.73
			c1.896,1.899,4.609,3.024,8.133,3.024c0.338,0,0.658-0.013,0.976-0.031c0.104-0.007,0.2-0.019,0.303-0.024
			c0.207-0.02,0.412-0.034,0.606-0.062c0.113-0.015,0.224-0.029,0.332-0.05c0.176-0.022,0.351-0.06,0.517-0.089
			c0.11-0.021,0.218-0.045,0.323-0.07c0.16-0.031,0.312-0.07,0.468-0.111c0.103-0.029,0.202-0.06,0.302-0.086
			c0.149-0.05,0.297-0.098,0.438-0.146c0.091-0.031,0.183-0.062,0.27-0.096c0.148-0.062,0.295-0.119,0.438-0.185
			c0.07-0.028,0.146-0.062,0.213-0.093c0.183-0.085,0.357-0.176,0.527-0.27c0.021-0.013,0.047-0.021,0.066-0.031
			c0.189-0.106,0.375-0.221,0.553-0.331c0.049-0.031,0.094-0.065,0.143-0.101c0.123-0.082,0.246-0.166,0.361-0.252
			c0.06-0.043,0.109-0.087,0.168-0.13c0.103-0.077,0.2-0.155,0.297-0.235c0.056-0.045,0.105-0.092,0.16-0.14
			c0.092-0.077,0.182-0.157,0.268-0.237c0.049-0.045,0.099-0.092,0.146-0.14c0.087-0.083,0.169-0.166,0.25-0.249
			c0.041-0.043,0.082-0.085,0.121-0.127c0.089-0.093,0.173-0.186,0.254-0.275c0.026-0.029,0.058-0.062,0.082-0.095
			c0.111-0.129,0.222-0.257,0.321-0.382c0.115-0.143,0.225-0.279,0.327-0.415c0.573,0.575,1.146,1.149,1.721,1.728
			c1.283,1.289,3.405,2.692,6.468,2.692c0.221,0,0.437-0.01,0.646-0.022c0.061-0.004,0.114-0.008,0.172-0.012
			c0.175-0.016,0.348-0.033,0.517-0.057c0.036-0.005,0.07-0.009,0.106-0.014c0.196-0.029,0.394-0.065,0.581-0.105
			c0.047-0.01,0.094-0.021,0.142-0.031c0.15-0.033,0.302-0.07,0.446-0.111c0.045-0.014,0.09-0.024,0.136-0.037
			c0.179-0.057,0.354-0.11,0.521-0.176c0.029-0.012,0.062-0.021,0.094-0.033c0.145-0.057,0.283-0.11,0.42-0.17
			c0.045-0.021,0.091-0.039,0.136-0.061c0.157-0.072,0.312-0.146,0.466-0.227c0.002-0.001,0.004-0.003,0.008-0.004
			c0.151-0.08,0.302-0.164,0.445-0.25c0.04-0.024,0.081-0.051,0.12-0.072c0.116-0.07,0.232-0.146,0.347-0.223
			c0.026-0.019,0.056-0.033,0.08-0.053c0.135-0.094,0.264-0.187,0.391-0.277c0.031-0.025,0.064-0.053,0.099-0.076
			c0.101-0.075,0.194-0.15,0.289-0.229c0.03-0.025,0.062-0.054,0.095-0.078c0.114-0.101,0.229-0.194,0.336-0.293
			c0.022-0.022,0.047-0.045,0.069-0.066c0.086-0.08,0.17-0.161,0.252-0.241c0.032-0.03,0.063-0.062,0.097-0.095
			c0.092-0.092,0.181-0.182,0.266-0.271c0.017-0.017,0.027-0.031,0.045-0.049C180.922,56.546,181.003,56.455,181.082,56.364z"/>
		<path d="M183.852,30.392c1.562,0,2.517,0.428,3.094,1.012c-0.571-0.577-1.146-1.154-1.725-1.731
			c-0.582-0.584-1.535-1.013-3.096-1.013h-0.568l1.729,1.732H183.852z"/>
		<polygon points="199.34,21.361 197.613,19.629 197.568,25.459 199.295,27.191 		"/>
		<path d="M197.466,49.602c0.005,0.146,0.013,0.287,0.024,0.438c0.003,0.042,0.003,0.082,0.007,0.124
			c0.003,0.03,0.008,0.063,0.012,0.103c0.005,0.047,0.011,0.092,0.017,0.139c0.017,0.115,0.031,0.229,0.055,0.343
			c0.007,0.036,0.012,0.071,0.021,0.106c0.026,0.145,0.062,0.283,0.104,0.426c0.01,0.035,0.021,0.064,0.031,0.104
			c0.021,0.066,0.043,0.137,0.066,0.202c0.016,0.035,0.031,0.065,0.047,0.101c0.021,0.054,0.047,0.104,0.069,0.154
			c0.044,0.09,0.093,0.174,0.146,0.258c0.025,0.045,0.056,0.09,0.082,0.133c0.017,0.021,0.022,0.039,0.037,0.062
			c0.071,0.101,0.151,0.188,0.239,0.276c0.575,0.578,1.15,1.156,1.728,1.732c-0.104-0.104-0.191-0.219-0.274-0.337
			c-0.03-0.044-0.06-0.091-0.086-0.136c-0.054-0.083-0.101-0.168-0.144-0.256c-0.022-0.051-0.049-0.104-0.068-0.154
			c-0.042-0.1-0.08-0.201-0.114-0.305c-0.011-0.034-0.021-0.066-0.032-0.104c-0.041-0.14-0.076-0.278-0.104-0.427
			c-0.01-0.034-0.014-0.068-0.02-0.104c-0.021-0.115-0.039-0.229-0.055-0.348c-0.006-0.046-0.011-0.093-0.018-0.14
			c-0.008-0.073-0.012-0.146-0.021-0.222c-0.012-0.146-0.021-0.287-0.022-0.429c-0.002-0.059-0.004-0.116-0.006-0.176
			c-0.004-0.181-0.006-0.356-0.004-0.522c-0.004-2.533,0.116-15.759,0.125-16.453c0.006-0.018,0.015-0.035,0.021-0.054
			c0.011-0.026,0.021-0.057,0.03-0.088c0.01-0.016,0.018-0.032,0.021-0.052c0.018-0.036,0.029-0.073,0.047-0.112
			c0.008-0.019,0.016-0.036,0.021-0.056c0.018-0.041,0.033-0.083,0.054-0.127c0.011-0.021,0.021-0.042,0.024-0.062
			c0.021-0.045,0.041-0.09,0.062-0.137c0.013-0.021,0.021-0.047,0.032-0.068c0.021-0.049,0.044-0.098,0.064-0.146
			c0.015-0.022,0.022-0.052,0.037-0.076c0.022-0.052,0.049-0.104,0.075-0.155c0.013-0.022,0.023-0.05,0.036-0.072
			c0.028-0.06,0.061-0.113,0.089-0.174c0.015-0.022,0.024-0.05,0.037-0.069c0.035-0.065,0.072-0.134,0.108-0.199
			c0.01-0.019,0.019-0.033,0.025-0.05c0.063-0.116,0.135-0.234,0.206-0.354c0.015-0.021,0.025-0.045,0.041-0.062
			c0.072-0.121,0.149-0.244,0.231-0.367c0.005-0.008,0.011-0.018,0.016-0.021c0.078-0.115,0.16-0.231,0.245-0.353
			c0.019-0.021,0.031-0.044,0.051-0.065c0.087-0.119,0.179-0.236,0.272-0.354c0.027-0.036,0.062-0.073,0.09-0.108
			c0.038-0.047,0.077-0.093,0.116-0.139c0.03-0.039,0.065-0.076,0.104-0.115c0.04-0.047,0.084-0.093,0.125-0.139
			c0.034-0.037,0.069-0.073,0.104-0.11c0.044-0.046,0.089-0.092,0.135-0.137c0.036-0.036,0.072-0.071,0.107-0.106
			c0.049-0.045,0.097-0.09,0.145-0.134c0.038-0.034,0.076-0.068,0.115-0.102c0.049-0.044,0.1-0.086,0.146-0.129
			c0.041-0.032,0.08-0.065,0.12-0.098c0.054-0.041,0.104-0.082,0.157-0.122c0.042-0.031,0.083-0.062,0.125-0.093
			c0.057-0.038,0.109-0.077,0.166-0.114c0.044-0.029,0.087-0.059,0.132-0.087c0.058-0.037,0.114-0.071,0.173-0.105
			c0.047-0.027,0.092-0.055,0.139-0.081c0.061-0.033,0.119-0.065,0.182-0.098c0.048-0.024,0.098-0.05,0.146-0.074
			c0.062-0.03,0.125-0.059,0.188-0.087c0.05-0.022,0.102-0.045,0.146-0.066c0.062-0.026,0.131-0.052,0.197-0.077
			c0.051-0.019,0.104-0.038,0.151-0.057c0.067-0.023,0.139-0.044,0.207-0.065c0.053-0.017,0.104-0.033,0.157-0.048
			c0.072-0.02,0.146-0.036,0.221-0.054c0.054-0.013,0.104-0.026,0.158-0.037c0.076-0.016,0.156-0.028,0.236-0.041
			c0.053-0.009,0.104-0.019,0.152-0.025c0.09-0.013,0.182-0.021,0.271-0.028c0.047-0.004,0.092-0.011,0.138-0.014
			c0.139-0.01,0.278-0.015,0.422-0.015c1.032,0,1.774,0.352,2.312,0.888c-0.574-0.577-1.148-1.155-1.728-1.732
			c-0.533-0.535-1.274-0.887-2.312-0.887c-0.145,0-0.281,0.005-0.422,0.015c-0.045,0.003-0.093,0.009-0.139,0.013
			c-0.091,0.009-0.184,0.017-0.271,0.028c-0.055,0.007-0.104,0.018-0.157,0.026c-0.078,0.013-0.155,0.024-0.232,0.04
			c-0.057,0.012-0.108,0.026-0.164,0.039c-0.071,0.017-0.145,0.033-0.214,0.052c-0.059,0.016-0.109,0.033-0.165,0.051
			c-0.065,0.02-0.135,0.04-0.196,0.062c-0.059,0.02-0.108,0.04-0.164,0.061c-0.062,0.024-0.125,0.048-0.188,0.073
			c-0.054,0.022-0.104,0.047-0.16,0.071c-0.06,0.026-0.114,0.053-0.176,0.081c-0.054,0.026-0.104,0.054-0.155,0.081
			c-0.057,0.029-0.109,0.059-0.165,0.089c-0.053,0.029-0.104,0.06-0.149,0.09c-0.055,0.032-0.105,0.063-0.157,0.097
			c-0.05,0.032-0.099,0.064-0.147,0.098c-0.048,0.034-0.1,0.068-0.146,0.104c-0.05,0.034-0.097,0.069-0.144,0.104
			c-0.05,0.036-0.097,0.072-0.144,0.109c-0.045,0.036-0.091,0.072-0.136,0.11c-0.047,0.038-0.092,0.076-0.137,0.115
			c-0.043,0.037-0.086,0.075-0.127,0.114c-0.045,0.039-0.088,0.08-0.129,0.12c-0.043,0.04-0.082,0.079-0.123,0.119
			c-0.041,0.041-0.082,0.083-0.123,0.125c-0.039,0.04-0.076,0.08-0.115,0.12c-0.039,0.044-0.078,0.087-0.117,0.131
			c-0.036,0.041-0.071,0.081-0.106,0.121c-0.038,0.045-0.075,0.091-0.114,0.137c-0.021,0.026-0.045,0.053-0.064,0.079
			c-0.008,0.01-0.018,0.02-0.021,0.029c-0.095,0.117-0.188,0.235-0.271,0.354c-0.021,0.025-0.037,0.052-0.058,0.077
			c-0.08,0.109-0.154,0.219-0.229,0.327c-0.011,0.015-0.021,0.03-0.029,0.045c-0.078,0.118-0.149,0.234-0.225,0.35
			c-0.02,0.03-0.036,0.06-0.055,0.09c-0.066,0.109-0.133,0.227-0.192,0.331c-0.003,0.007-0.007,0.015-0.011,0.021
			c-0.021,0.039-0.041,0.076-0.062,0.113c-0.021,0.037-0.041,0.074-0.062,0.11c-0.022,0.046-0.05,0.091-0.071,0.138
			c-0.02,0.033-0.033,0.067-0.052,0.104c-0.021,0.047-0.045,0.09-0.065,0.135c-0.018,0.031-0.031,0.064-0.048,0.096
			c-0.021,0.043-0.041,0.084-0.062,0.127c-0.017,0.029-0.027,0.062-0.043,0.09c-0.021,0.041-0.034,0.08-0.055,0.117
			c-0.014,0.029-0.022,0.06-0.037,0.086c-0.018,0.037-0.031,0.073-0.047,0.108c-0.014,0.026-0.021,0.054-0.033,0.077
			c-0.017,0.035-0.026,0.066-0.043,0.1c-0.011,0.025-0.021,0.051-0.026,0.074c-0.015,0.027-0.021,0.059-0.034,0.084
			c-0.009,0.023-0.02,0.044-0.023,0.066c-0.008,0.021-0.021,0.047-0.024,0.065c-0.001,0-0.001,0-0.001,0.001
			c-0.008,0.696-0.128,13.92-0.126,16.453c0,0.17,0.002,0.352,0.006,0.532C197.461,49.496,197.464,49.548,197.466,49.602z"/>
		<path d="M231.048,30.693c0.093-0.115,0.188-0.235,0.287-0.354c0.049-0.06,0.101-0.12,0.149-0.18
			c0.063-0.081,0.137-0.162,0.207-0.244c0.057-0.063,0.113-0.127,0.17-0.191c0.07-0.08,0.144-0.159,0.217-0.239
			c0.061-0.065,0.124-0.132,0.188-0.197c0.074-0.078,0.149-0.156,0.229-0.234c0.065-0.066,0.134-0.133,0.2-0.199
			c0.08-0.077,0.162-0.153,0.244-0.229c0.072-0.065,0.146-0.132,0.22-0.197c0.084-0.075,0.171-0.148,0.259-0.222
			c0.077-0.065,0.152-0.129,0.232-0.193c0.092-0.072,0.185-0.143,0.273-0.213c0.083-0.062,0.165-0.124,0.25-0.185
			c0.098-0.069,0.195-0.137,0.297-0.204c0.088-0.058,0.174-0.116,0.266-0.173c0.104-0.065,0.209-0.128,0.312-0.19
			c0.096-0.055,0.188-0.109,0.279-0.161c0.107-0.061,0.227-0.118,0.339-0.175c0.099-0.049,0.19-0.099,0.293-0.146
			c0.118-0.055,0.242-0.106,0.363-0.157c0.103-0.043,0.2-0.087,0.308-0.127c0.131-0.049,0.264-0.093,0.395-0.138
			c0.104-0.036,0.209-0.073,0.315-0.106c0.14-0.042,0.282-0.077,0.427-0.114c0.106-0.028,0.215-0.06,0.324-0.084
			c0.153-0.034,0.312-0.062,0.475-0.09c0.104-0.019,0.211-0.042,0.32-0.059c0.18-0.026,0.364-0.043,0.553-0.062
			c0.097-0.01,0.188-0.023,0.283-0.03c0.283-0.021,0.576-0.032,0.879-0.032c1.916,0,3.17,0.525,3.991,1.35
			c-0.575-0.577-1.149-1.154-1.728-1.731c-0.821-0.825-2.076-1.351-3.991-1.351c-0.302,0-0.594,0.012-0.881,0.032
			c-0.097,0.008-0.188,0.021-0.279,0.03c-0.188,0.019-0.376,0.036-0.557,0.062c-0.104,0.017-0.211,0.039-0.315,0.058
			c-0.158,0.028-0.318,0.056-0.477,0.09c-0.109,0.025-0.217,0.056-0.321,0.083c-0.146,0.037-0.29,0.073-0.43,0.116
			c-0.106,0.032-0.208,0.069-0.312,0.104c-0.137,0.045-0.271,0.09-0.396,0.14c-0.104,0.039-0.201,0.082-0.301,0.124
			c-0.125,0.053-0.252,0.104-0.373,0.161c-0.096,0.045-0.188,0.093-0.282,0.141c-0.117,0.059-0.234,0.117-0.349,0.18
			c-0.096,0.051-0.184,0.104-0.271,0.155c-0.107,0.064-0.221,0.129-0.325,0.196c-0.086,0.055-0.171,0.111-0.255,0.168
			c-0.104,0.069-0.205,0.139-0.305,0.209c-0.081,0.059-0.16,0.118-0.239,0.178c-0.101,0.073-0.19,0.147-0.287,0.222
			c-0.073,0.062-0.147,0.123-0.224,0.185c-0.094,0.077-0.184,0.153-0.271,0.231c-0.07,0.062-0.142,0.125-0.209,0.188
			c-0.088,0.079-0.171,0.158-0.254,0.238c-0.062,0.063-0.13,0.126-0.191,0.19c-0.082,0.081-0.16,0.162-0.236,0.243
			c-0.062,0.063-0.119,0.126-0.182,0.189c-0.072,0.082-0.146,0.164-0.224,0.246c-0.056,0.062-0.108,0.124-0.164,0.187
			c-0.071,0.083-0.143,0.165-0.211,0.247c-0.05,0.06-0.1,0.119-0.147,0.178c-0.021,0.025-0.045,0.052-0.062,0.078
			c-0.073,0.094-0.147,0.187-0.223,0.277l-3.285-1.87l1.728,1.731L231.048,30.693z"/>
		<polygon points="201.256,57.484 181.503,57.484 183.229,59.217 202.98,59.217 202.991,55.068 201.268,53.337 		"/>
		<path d="M218.167,22.655c0.104,0.132,0.21,0.264,0.308,0.399c0.037,0.051,0.07,0.103,0.105,0.153
			c0.104,0.152,0.202,0.307,0.294,0.463c0.022,0.038,0.047,0.075,0.067,0.114c0.105,0.189,0.207,0.383,0.297,0.577
			c0.021,0.045,0.037,0.09,0.058,0.135c0.072,0.165,0.138,0.331,0.196,0.499c0.014,0.039,0.027,0.078,0.041,0.117
			c0.064,0.197,0.121,0.395,0.166,0.594c0.008,0.038,0.016,0.076,0.023,0.114c0.033,0.177,0.062,0.354,0.086,0.53
			c0.006,0.036,0.012,0.071,0.016,0.107c0.021,0.216,0.033,0.432,0.033,0.646c-0.032,4.108-0.146,18.56-0.159,20.805
			c-0.003,0.225,0,0.46,0.007,0.699c0.001,0.02,0.001,0.039,0.002,0.06c0.008,0.242,0.021,0.487,0.043,0.737c0,0,0,0.003,0,0.005
			c0.001,0.008,0.003,0.017,0.003,0.024c0.013,0.129,0.027,0.256,0.045,0.385c0.005,0.035,0.011,0.072,0.017,0.104
			c0.021,0.14,0.041,0.271,0.069,0.407c0.003,0.02,0.007,0.029,0.011,0.047c0.025,0.122,0.059,0.241,0.088,0.359
			c0.013,0.029,0.021,0.062,0.027,0.099c0.038,0.13,0.08,0.261,0.127,0.381c0.002,0.009,0.004,0.015,0.006,0.021
			c0.006,0.012,0.016,0.021,0.02,0.035c0.051,0.127,0.104,0.25,0.17,0.369c0.01,0.021,0.021,0.039,0.025,0.06
			c0.067,0.125,0.146,0.243,0.229,0.358c0.008,0.012,0.018,0.021,0.021,0.031c0.01,0.016,0.021,0.021,0.028,0.034
			c0.079,0.104,0.163,0.21,0.259,0.308c0.576,0.574,1.149,1.151,1.729,1.729c-0.096-0.098-0.18-0.196-0.257-0.305
			c-0.021-0.021-0.038-0.049-0.058-0.071c-0.082-0.113-0.156-0.229-0.225-0.354c-0.01-0.021-0.021-0.039-0.027-0.062
			c-0.062-0.12-0.121-0.244-0.172-0.372c-0.008-0.02-0.015-0.031-0.021-0.048c-0.05-0.124-0.091-0.253-0.13-0.386
			c-0.01-0.029-0.021-0.062-0.025-0.097c-0.032-0.118-0.062-0.239-0.089-0.362c-0.003-0.015-0.009-0.027-0.011-0.045
			c-0.027-0.136-0.051-0.271-0.07-0.41c-0.005-0.031-0.012-0.064-0.016-0.101c-0.021-0.136-0.032-0.271-0.047-0.405
			c0-0.004,0-0.006-0.002-0.011c-0.021-0.248-0.035-0.493-0.043-0.735c0-0.021-0.002-0.047-0.002-0.068
			c-0.009-0.234-0.011-0.473-0.009-0.691c0.021-2.244,0.127-16.695,0.158-20.806c0.002-0.194-0.006-0.39-0.022-0.585
			c-0.002-0.021-0.008-0.041-0.01-0.061c-0.004-0.037-0.011-0.075-0.015-0.112c-0.021-0.174-0.052-0.348-0.089-0.521
			c-0.008-0.041-0.017-0.082-0.022-0.123c-0.045-0.196-0.103-0.392-0.164-0.586c-0.014-0.043-0.028-0.087-0.046-0.13
			c-0.023-0.077-0.051-0.153-0.08-0.229c-0.031-0.085-0.07-0.169-0.107-0.253c-0.021-0.049-0.039-0.098-0.062-0.146
			c-0.089-0.193-0.188-0.385-0.293-0.574c-0.021-0.038-0.046-0.075-0.065-0.113c-0.096-0.157-0.19-0.312-0.297-0.466
			c-0.033-0.05-0.068-0.1-0.104-0.148c-0.028-0.04-0.058-0.081-0.083-0.12c-0.073-0.099-0.153-0.193-0.229-0.29
			c-0.05-0.058-0.094-0.116-0.142-0.173c-0.158-0.186-0.323-0.368-0.499-0.545c-0.575-0.578-1.146-1.155-1.729-1.732
			c0.178,0.177,0.34,0.358,0.496,0.543C218.072,22.532,218.117,22.595,218.167,22.655z"/>
		<polygon points="224.105,57.484 204.191,57.484 205.917,59.217 225.83,59.217 225.861,55.044 224.137,53.312 		"/>
		<path d="M237.312,51.311c-0.021-0.039-0.043-0.078-0.066-0.117c-0.105-0.176-0.205-0.355-0.299-0.547
			c-0.024-0.049-0.051-0.099-0.073-0.146c-0.104-0.224-0.202-0.442-0.29-0.677c-0.02-0.053-0.035-0.104-0.053-0.152
			c-0.068-0.188-0.133-0.383-0.188-0.576c-0.022-0.076-0.043-0.152-0.062-0.229c-0.049-0.183-0.092-0.364-0.126-0.55
			c-0.017-0.068-0.03-0.144-0.044-0.213c-0.043-0.248-0.078-0.496-0.104-0.746c-0.024-0.276-0.036-0.558-0.034-0.828
			c0.002-0.34,0.019-0.663,0.041-0.979c0.021-0.279,0.053-0.552,0.09-0.812c0.002-0.021,0.004-0.044,0.006-0.063
			c0.082-0.549,0.197-1.047,0.336-1.502c0.022-0.072,0.052-0.141,0.072-0.212c0.049-0.146,0.1-0.284,0.147-0.418
			c0.033-0.083,0.065-0.162,0.103-0.241c0.051-0.113,0.103-0.229,0.151-0.339c0.037-0.075,0.075-0.147,0.114-0.223
			c0.051-0.097,0.102-0.189,0.152-0.28c0.062-0.104,0.123-0.203,0.188-0.3c0.046-0.071,0.092-0.144,0.141-0.209
			c0.063-0.097,0.133-0.185,0.199-0.271c0.051-0.062,0.098-0.127,0.146-0.188c0.043-0.053,0.086-0.102,0.127-0.146
			c0.062-0.072,0.129-0.145,0.189-0.209c0.047-0.048,0.092-0.093,0.137-0.137c0.062-0.062,0.123-0.12,0.186-0.177
			c0.045-0.041,0.09-0.081,0.134-0.119c0.062-0.056,0.122-0.104,0.183-0.151c0.043-0.035,0.088-0.07,0.129-0.104
			c0.062-0.049,0.119-0.092,0.181-0.133c0.039-0.027,0.08-0.062,0.118-0.086c0.06-0.041,0.115-0.078,0.174-0.113
			c0.032-0.021,0.066-0.046,0.104-0.066c0.062-0.037,0.117-0.072,0.176-0.104c0.022-0.018,0.053-0.031,0.074-0.047
			c0.078-0.045,0.151-0.086,0.22-0.121c1.465-0.789,2.901-1.139,4.155-1.139c0.726,0,1.385,0.113,1.955,0.325l-1.727-1.729
			c-0.57-0.214-1.23-0.327-1.955-0.327c-1.255,0-2.691,0.347-4.154,1.136c-0.068,0.037-0.144,0.079-0.223,0.124
			c-0.021,0.014-0.041,0.023-0.062,0.038c-0.062,0.036-0.125,0.073-0.188,0.115c-0.028,0.019-0.062,0.036-0.089,0.058
			c-0.062,0.04-0.123,0.081-0.188,0.125c-0.033,0.024-0.07,0.053-0.105,0.077c-0.062,0.045-0.125,0.091-0.188,0.142
			c-0.038,0.029-0.079,0.062-0.118,0.098c-0.062,0.051-0.125,0.104-0.188,0.156c-0.046,0.037-0.087,0.074-0.132,0.113
			c-0.062,0.061-0.125,0.118-0.188,0.182c-0.044,0.047-0.088,0.09-0.132,0.137c-0.062,0.062-0.127,0.137-0.188,0.208
			c-0.045,0.05-0.088,0.098-0.131,0.147c-0.017,0.02-0.029,0.031-0.045,0.051c-0.033,0.041-0.065,0.092-0.1,0.135
			c-0.066,0.087-0.135,0.175-0.2,0.27c-0.048,0.067-0.095,0.143-0.144,0.217c-0.062,0.097-0.125,0.191-0.188,0.299
			c-0.021,0.035-0.042,0.062-0.062,0.103c-0.029,0.056-0.061,0.116-0.088,0.173c-0.039,0.074-0.078,0.149-0.115,0.229
			c-0.055,0.108-0.104,0.226-0.153,0.342c-0.032,0.078-0.065,0.151-0.1,0.233c-0.011,0.025-0.023,0.054-0.034,0.082
			c-0.04,0.104-0.077,0.226-0.114,0.339c-0.022,0.069-0.051,0.142-0.071,0.215c-0.062,0.212-0.125,0.433-0.18,0.662
			c-0.004,0.021-0.009,0.045-0.015,0.063c-0.056,0.244-0.104,0.5-0.144,0.771c-0.018,0.101-0.021,0.211-0.035,0.312
			c-0.021,0.188-0.049,0.363-0.062,0.559c0,0.006,0,0.01-0.001,0.015c-0.001,0.008-0.001,0.017-0.002,0.021
			c-0.021,0.307-0.035,0.619-0.038,0.949c-0.002,0.272,0.013,0.551,0.036,0.828c0.001,0.003,0,0.006,0.001,0.01
			c0.021,0.243,0.06,0.488,0.103,0.732c0.014,0.074,0.028,0.148,0.045,0.227c0.037,0.18,0.076,0.354,0.123,0.528
			c0.021,0.084,0.043,0.166,0.065,0.249c0.054,0.186,0.112,0.368,0.179,0.549c0.021,0.062,0.039,0.12,0.062,0.182
			c0.008,0.018,0.013,0.029,0.019,0.049c0.081,0.211,0.173,0.418,0.269,0.617c0.025,0.055,0.056,0.104,0.078,0.154
			c0.093,0.188,0.189,0.363,0.293,0.538c0.024,0.041,0.047,0.083,0.074,0.123c0.105,0.175,0.219,0.343,0.338,0.503
			c0.021,0.026,0.041,0.051,0.062,0.077c0.025,0.036,0.057,0.069,0.084,0.104c0.146,0.183,0.293,0.354,0.452,0.518
			c0.003,0.003,0.005,0.006,0.008,0.009c0.575,0.577,1.149,1.154,1.728,1.729c-0.162-0.161-0.313-0.342-0.465-0.526
			c-0.025-0.032-0.054-0.063-0.078-0.101C237.575,51.708,237.439,51.514,237.312,51.311z"/>
		<path d="M254.327,22.351c0.077,0.097,0.157,0.192,0.229,0.293c0.027,0.043,0.059,0.088,0.088,0.132
			c0.082,0.119,0.162,0.239,0.234,0.361c0.039,0.063,0.075,0.13,0.113,0.194c0.062,0.105,0.119,0.211,0.176,0.318
			c0.037,0.071,0.071,0.145,0.104,0.217c0.055,0.104,0.104,0.21,0.146,0.316c0.033,0.074,0.062,0.149,0.094,0.224
			c0.035,0.087,0.068,0.175,0.104,0.263c0.084,0.226,0.163,0.456,0.229,0.689c0.006,0.026,0.02,0.052,0.022,0.078
			c0.073,0.259,0.139,0.523,0.194,0.791c0.017,0.07,0.028,0.141,0.043,0.212c0.045,0.228,0.086,0.457,0.121,0.689
			c0.008,0.049,0.018,0.096,0.021,0.145c0.039,0.277,0.07,0.558,0.102,0.841c0.006,0.078,0.014,0.156,0.02,0.234
			c0.014,0.162,0.025,0.324,0.035,0.487c0.007,0.09,0.012,0.181,0.016,0.271c0.01,0.161,0.016,0.322,0.021,0.483
			c0.002,0.089,0.006,0.178,0.009,0.266c0.004,0.175,0.008,0.35,0.01,0.524c0.001,0.075,0.003,0.148,0.003,0.225
			c0.002,0.25,0.002,0.498,0,0.75l-0.072,8.526l-0.062,8.55c-0.001,0.104,0.001,0.202,0.005,0.297
			c0.002,0.041,0.005,0.08,0.012,0.119c0.002,0.038,0.004,0.079,0.006,0.116c0.002,0.009,0.004,0.015,0.004,0.022
			c0.014,0.132,0.031,0.252,0.055,0.363c0.004,0.019,0.009,0.031,0.014,0.055c0.021,0.102,0.051,0.195,0.082,0.279
			c0.002,0.006,0.003,0.012,0.006,0.017c0,0.002,0.002,0.004,0.002,0.006c0.021,0.045,0.037,0.086,0.062,0.126
			c0.008,0.016,0.014,0.031,0.021,0.045c0.021,0.04,0.045,0.074,0.066,0.109c0.008,0.011,0.014,0.021,0.021,0.033
			c0.002,0.002,0.002,0.002,0.002,0.002c0.029,0.043,0.062,0.082,0.103,0.114c0.573,0.578,1.149,1.155,1.728,1.732
			c-0.035-0.036-0.068-0.075-0.104-0.119c-0.005-0.006-0.01-0.017-0.014-0.021c-0.026-0.037-0.057-0.078-0.078-0.121
			c-0.012-0.021-0.021-0.045-0.03-0.064c-0.017-0.034-0.032-0.064-0.047-0.104c-0.004-0.013-0.009-0.021-0.013-0.035
			c-0.028-0.077-0.059-0.166-0.078-0.262c-0.006-0.021-0.012-0.047-0.016-0.065c-0.021-0.107-0.039-0.226-0.056-0.354
			c-0.005-0.056-0.01-0.113-0.013-0.173c-0.004-0.028-0.006-0.055-0.008-0.083c-0.004-0.098-0.006-0.197-0.006-0.306l0.063-8.55
			l0.071-8.527c0.002-0.25,0.002-0.499,0-0.748c0-0.076-0.002-0.15-0.004-0.229c-0.002-0.172-0.004-0.35-0.008-0.521
			c-0.006-0.092-0.01-0.188-0.013-0.271c-0.005-0.156-0.012-0.312-0.021-0.472c-0.004-0.097-0.01-0.19-0.018-0.286
			c-0.01-0.154-0.021-0.305-0.031-0.454c-0.008-0.065-0.01-0.133-0.018-0.198c-0.002-0.025-0.006-0.049-0.008-0.074
			c-0.025-0.277-0.061-0.553-0.1-0.825c-0.007-0.053-0.018-0.105-0.021-0.157c-0.034-0.229-0.075-0.455-0.119-0.679
			c-0.014-0.071-0.027-0.144-0.044-0.216c-0.06-0.267-0.121-0.53-0.192-0.789c-0.01-0.027-0.02-0.053-0.024-0.08
			c-0.068-0.233-0.146-0.462-0.23-0.688c-0.014-0.036-0.021-0.074-0.036-0.109c-0.021-0.053-0.043-0.104-0.062-0.156
			c-0.029-0.072-0.062-0.145-0.094-0.217c-0.047-0.11-0.101-0.221-0.15-0.329c-0.032-0.068-0.062-0.137-0.102-0.204
			c-0.062-0.113-0.123-0.225-0.188-0.336c-0.031-0.059-0.064-0.119-0.104-0.177c-0.082-0.134-0.168-0.265-0.26-0.395
			c-0.021-0.033-0.043-0.067-0.065-0.1c-0.005-0.006-0.009-0.012-0.013-0.017c-0.08-0.113-0.17-0.222-0.26-0.33
			c-0.04-0.05-0.074-0.101-0.115-0.148c-0.1-0.115-0.203-0.226-0.311-0.336c-0.042-0.045-0.08-0.091-0.124-0.135
			c-0.575-0.577-1.147-1.155-1.728-1.732c0.151,0.152,0.297,0.31,0.434,0.469C254.227,22.216,254.273,22.284,254.327,22.351z"/>
		<path d="M261.755,56.357c0.019-0.021,0.035-0.041,0.052-0.062c0.078-0.09,0.152-0.18,0.229-0.268
			c0.007-0.01,0.015-0.021,0.021-0.025c0.004-0.005,0.008-0.01,0.012-0.016c0.062-0.079,0.127-0.157,0.188-0.234
			c0.003-0.004,0.006-0.007,0.012-0.011c0.062-0.082,0.125-0.163,0.185-0.241c0.011-0.018,0.021-0.025,0.03-0.043
			c0.045-0.062,0.088-0.122,0.131-0.184c0.02-0.022,0.035-0.049,0.053-0.07c0.034-0.049,0.066-0.098,0.1-0.145
			c0.021-0.021,0.033-0.048,0.051-0.068c0.031-0.049,0.062-0.094,0.094-0.137c0.013-0.021,0.021-0.039,0.035-0.059
			c0.033-0.049,0.062-0.095,0.096-0.141c0.008-0.012,0.016-0.021,0.021-0.032c0.071-0.113,0.142-0.216,0.193-0.302l-0.908-3.676
			l-1.727-1.729l0.906,3.674c-0.033,0.056-0.074,0.118-0.117,0.187c-0.021,0.033-0.047,0.065-0.067,0.104
			c-0.012,0.021-0.024,0.039-0.038,0.061c-0.023,0.039-0.054,0.082-0.082,0.125c-0.015,0.021-0.025,0.039-0.043,0.062
			c-0.027,0.044-0.061,0.09-0.092,0.138c-0.018,0.021-0.027,0.043-0.044,0.062c-0.035,0.051-0.071,0.104-0.108,0.152
			c-0.015,0.021-0.024,0.039-0.039,0.062c-0.049,0.063-0.1,0.133-0.146,0.202c-0.008,0.008-0.014,0.015-0.02,0.021
			c-0.062,0.079-0.121,0.159-0.188,0.242c-0.004,0.008-0.01,0.012-0.014,0.018c-0.059,0.074-0.115,0.146-0.178,0.227
			c-0.019,0.021-0.033,0.04-0.051,0.061c-0.064,0.082-0.136,0.164-0.207,0.246c-0.021,0.023-0.042,0.049-0.062,0.072
			c-0.09,0.104-0.18,0.203-0.273,0.307c-0.006,0.008-0.012,0.017-0.021,0.021c-0.088,0.096-0.183,0.188-0.273,0.286
			c-0.023,0.022-0.053,0.053-0.079,0.075c-0.092,0.096-0.188,0.187-0.286,0.273c-0.014,0.014-0.022,0.024-0.037,0.036
			c-0.108,0.103-0.227,0.201-0.345,0.302c-0.026,0.023-0.062,0.049-0.089,0.071c-0.1,0.081-0.197,0.161-0.304,0.24
			c-0.026,0.022-0.056,0.044-0.084,0.063c-0.128,0.096-0.259,0.188-0.396,0.279c-0.023,0.021-0.052,0.034-0.076,0.055
			c-0.112,0.073-0.229,0.146-0.352,0.223c-0.037,0.021-0.074,0.047-0.111,0.068c-0.146,0.086-0.297,0.172-0.449,0.252
			c-0.006,0.004-0.015,0.006-0.021,0.01c-0.146,0.076-0.299,0.146-0.454,0.218c-0.043,0.021-0.087,0.039-0.131,0.058
			c-0.143,0.062-0.283,0.119-0.43,0.176c-0.026,0.01-0.055,0.021-0.082,0.03c-0.17,0.062-0.346,0.119-0.522,0.173
			c-0.046,0.014-0.092,0.024-0.137,0.038c-0.146,0.041-0.295,0.078-0.446,0.113c-0.046,0.01-0.091,0.021-0.138,0.03
			c-0.188,0.041-0.384,0.076-0.58,0.104c-0.037,0.006-0.075,0.01-0.11,0.016c-0.168,0.021-0.339,0.041-0.513,0.057
			c-0.058,0.005-0.112,0.01-0.17,0.014c-0.212,0.016-0.427,0.021-0.646,0.021c-3.062,0-5.186-1.407-6.471-2.696
			c0.073-0.099,0.146-0.188,0.213-0.282l-1.727-1.729c-0.085,0.113-0.176,0.23-0.271,0.354c-0.046,0.061-0.095,0.119-0.141,0.18
			c-0.055,0.064-0.104,0.131-0.156,0.196c-0.099,0.122-0.201,0.245-0.311,0.37c-0.021,0.021-0.041,0.047-0.062,0.069
			c-0.088,0.1-0.178,0.198-0.271,0.3c-0.04,0.043-0.083,0.086-0.124,0.129c-0.079,0.081-0.16,0.163-0.244,0.244
			c-0.051,0.049-0.104,0.097-0.154,0.146c-0.082,0.074-0.166,0.15-0.253,0.229c-0.057,0.05-0.114,0.102-0.174,0.146
			c-0.09,0.072-0.183,0.146-0.276,0.223c-0.062,0.048-0.123,0.096-0.188,0.144c-0.104,0.075-0.211,0.149-0.32,0.226
			c-0.061,0.041-0.119,0.084-0.183,0.123c-0.144,0.095-0.294,0.184-0.448,0.271c-0.033,0.021-0.064,0.04-0.1,0.06
			c-0.189,0.104-0.393,0.205-0.594,0.301c-0.062,0.029-0.127,0.057-0.189,0.082c-0.149,0.063-0.301,0.131-0.458,0.188
			c-0.084,0.032-0.173,0.062-0.261,0.093c-0.146,0.053-0.291,0.104-0.442,0.146c-0.099,0.028-0.197,0.058-0.298,0.084
			c-0.152,0.042-0.309,0.08-0.467,0.114c-0.106,0.022-0.213,0.05-0.322,0.07c-0.167,0.03-0.34,0.062-0.516,0.088
			c-0.108,0.019-0.222,0.035-0.33,0.049c-0.195,0.023-0.399,0.046-0.605,0.062c-0.102,0.01-0.197,0.021-0.301,0.025
			c-0.312,0.02-0.635,0.029-0.971,0.029c-3.526,0-6.246-1.127-8.146-3.029c0.575,0.574,1.146,1.152,1.729,1.729
			c1.896,1.904,4.617,3.031,8.145,3.031c0.335,0,0.656-0.014,0.971-0.031c0.104-0.007,0.199-0.018,0.301-0.025
			c0.205-0.018,0.408-0.032,0.604-0.062c0.112-0.015,0.222-0.03,0.33-0.049c0.176-0.026,0.349-0.058,0.517-0.089
			c0.107-0.021,0.215-0.046,0.319-0.069c0.161-0.034,0.317-0.073,0.472-0.116c0.098-0.023,0.197-0.055,0.293-0.082
			c0.154-0.049,0.303-0.099,0.449-0.146c0.085-0.029,0.171-0.061,0.254-0.09c0.161-0.062,0.314-0.129,0.467-0.193
			c0.062-0.023,0.123-0.051,0.185-0.078c0.207-0.096,0.403-0.193,0.597-0.302c0.029-0.019,0.061-0.034,0.085-0.051
			c0.16-0.093,0.312-0.185,0.464-0.276c0.062-0.039,0.116-0.078,0.178-0.119c0.108-0.072,0.224-0.148,0.328-0.229
			c0.062-0.047,0.123-0.094,0.183-0.141c0.097-0.074,0.19-0.146,0.282-0.227c0.058-0.048,0.111-0.098,0.17-0.146
			c0.088-0.076,0.173-0.151,0.256-0.229c0.052-0.048,0.104-0.098,0.152-0.146c0.084-0.08,0.164-0.162,0.24-0.244
			c0.043-0.043,0.09-0.086,0.127-0.129c0.092-0.098,0.178-0.189,0.262-0.287c0.021-0.025,0.053-0.057,0.076-0.084
			c0.103-0.115,0.196-0.232,0.295-0.352c0.002-0.005,0.006-0.009,0.01-0.014c0.066-0.084,0.133-0.166,0.197-0.249
			c0.029-0.044,0.065-0.088,0.104-0.131c0.02-0.025,0.035-0.05,0.057-0.074c0.572,0.576,1.146,1.151,1.721,1.729
			c1.125,1.129,2.893,2.352,5.367,2.639c0.354,0.041,0.725,0.062,1.104,0.062c0.221,0,0.435-0.012,0.646-0.021
			c0.062-0.004,0.114-0.01,0.172-0.014c0.175-0.017,0.346-0.033,0.515-0.058c0.033-0.005,0.071-0.008,0.106-0.014
			c0.198-0.029,0.396-0.064,0.582-0.104c0.047-0.011,0.092-0.021,0.138-0.031c0.151-0.033,0.304-0.07,0.446-0.111
			c0.045-0.016,0.09-0.024,0.135-0.038c0.183-0.056,0.354-0.11,0.525-0.172c0.026-0.013,0.053-0.021,0.079-0.031
			c0.146-0.058,0.29-0.114,0.433-0.175c0.043-0.021,0.086-0.038,0.129-0.059c0.156-0.068,0.312-0.146,0.457-0.223
			c0.008-0.003,0.014-0.005,0.019-0.008c0.152-0.08,0.308-0.166,0.45-0.253c0.036-0.021,0.07-0.043,0.107-0.063
			c0.121-0.074,0.24-0.147,0.356-0.229c0.022-0.018,0.048-0.03,0.071-0.047c0.137-0.096,0.27-0.188,0.396-0.285
			c0.025-0.021,0.05-0.039,0.076-0.061c0.104-0.082,0.211-0.164,0.312-0.25c0.025-0.021,0.055-0.043,0.08-0.062
			c0.119-0.104,0.234-0.203,0.352-0.311c0.008-0.008,0.018-0.016,0.023-0.021c0.104-0.097,0.203-0.19,0.301-0.289
			c0.022-0.021,0.049-0.045,0.07-0.065c0.104-0.104,0.198-0.203,0.293-0.308c0.002-0.001,0.002-0.002,0.004-0.003
			C261.57,56.566,261.665,56.462,261.755,56.357z"/>
	</g>
	<g>
		<g>
			<path fill="#D22224" d="M17.08,0.001c7.89,0,12.427,3.717,12.69,4.116c0.571-0.57,2.274-2.448,2.346-3.461l3.981-0.01
				l-0.109,14.232h-3.492c-0.285-0.53-5.699-10.605-15.398-10.605c-5.923,0-7.763,3.874-7.652,6.187
				c0.113,2.474,0.981,6.867,12.621,9.996c14.68,3.944,18.429,12.914,18.369,20.68c-0.06,7.775-5.882,16.677-19.681,16.677
				c-9.528,0-13.173-4.352-13.82-4.561c-0.622,0.729-2.396,3.043-2.741,4.336H0.267l0.132-17.354h3.76
				c0.989,3.488,7.282,12.334,16.185,12.334c8.905,0,10.092-5.192,10.114-8.121c0.022-2.93-2.218-6.42-12.772-9.723
				C7.34,31.48-0.076,25.766,0.001,15.691C0.077,5.71,9.187,0.001,17.08,0.001z"/>
		</g>
		<g>
			<path fill="#D22224" d="M74.771,45.871l3.093,2.238c-2.848,6.232-8.28,10.113-15.967,10.113c-9.115,0-19.606-8.898-19.522-19.918
				c0.02-2.49,0.408-4.889,1.13-7.08c2.417-7.555,10.598-12.938,17.664-12.938c10.028,0,14.67,8.125,16.638,16.378l-21.885,6.215
				c0.74,3.449,3.529,10.598,9.883,10.598C70.968,51.477,73.688,47.561,74.771,45.871z M54.232,30.529
				c0.028,1.824,0.132,3.721,0.798,6.087c0.435-0.115,8.688-2.31,9.224-2.537c2.414-0.97,2.808-2.167,2.476-4.854
				c-0.604-4.931-3.791-7.375-6.781-7.375c-0.353,0-0.703,0.034-1.047,0.102C56.86,22.362,54.184,24.765,54.232,30.529"/>
		</g>
		<g>
			<path fill="#D22224" d="M128.239,18.481c7.113,0,11.253,5.78,11.22,10.156c-0.014,1.75-0.035,4.614-0.057,7.48
				c-0.033,4.305-0.086,11.242-0.092,11.934c-0.021,2.445,0.209,5.249,3.438,5.249h0.585l-0.028,4.195h-19.5l0.031-4.195h0.727
				c2.962-0.021,3.243-3.733,3.254-5.124c0.006-0.744,0.061-7.936,0.091-11.938c0.025-3.312,0.039-4.123,0.039-4.166
				c-0.021-1.083,0.149-6.072-4.059-6.072c-4.918,0-7.277,4.739-7.683,5.514c0,0.051-0.008,1.008-0.035,4.604
				c-0.023,3.039-0.084,9.198-0.091,11.934c-0.004,2.445,0.178,5.249,3.655,5.249c0.459,0,0.534,0,0.538,0l-0.032,4.195h-19.144
				l0.032-4.195h0.616c3.161,0,3.225-3.119,3.239-5.124c0.009-1.144,0.063-8.241,0.092-11.938c0.02-2.659,0.022-2.987,0.024-3.282
				c0.006-0.686,0.135-6.921-3.739-6.921c-4.746,0-6.939,5.354-7.226,5.959c0,0.044-0.007,0.876-0.031,4.123
				c-0.028,3.681-0.081,10.563-0.091,11.934c-0.026,3.47,0.626,5.249,3.06,5.249h0.527l-0.031,4.195h-19.48L78.12,53.3h0.923
				c3.428,0,3.562-4.03,3.571-5.249c0.007-0.802,0.061-7.953,0.091-11.934c0.017-2.176,0.026-3.436,0.035-4.583
				c0.023-3.006-2.004-3.119-2.815-3.119c-0.065,0-0.123,0.001-0.172,0.001c-0.655,0-1.624,0-1.675,0l0.03-3.913l10.004-4.882h6.09
				l-0.036,5.77c0.733-0.849,3.919-6.91,11.242-6.91c7.319,0,10.229,6.671,10.348,7.138
				C116.491,24.928,121.099,18.481,128.239,18.481z"/>
		</g>
		<g>
			<path fill="#D22224" d="M179.939,48.922l0.92,3.674c-0.814,1.24-3.532,5.646-9.062,5.646c-5.221,0-7.713-4.092-7.965-4.711
				c-1.367,1.816-3.734,4.738-9.439,4.738c-7.588,0-11.438-5.229-11.386-12.187c0.04-5.235,3.288-9.325,7.328-11.013
				c5.424-2.279,9.046-2.553,13.392-3.141c0.021-3.348,0.239-8.102-5.512-8.102c-4.929,0-7.805,2.895-9.572,5.128l-3.289-1.87
				c1.703-2.476,5.819-8.878,15.431-8.877c14.016,0,15.071,6.328,15.021,13.141l-0.076,8.525l-0.062,8.551
				c-0.017,1.756,0.666,2.025,1.396,2.025C178.148,50.457,179.044,50.029,179.939,48.922z M163.602,48.391l0.073-8.188l0.019-3.967
				c-0.563-0.213-1.227-0.326-1.943-0.326c-1.252,0-2.688,0.347-4.146,1.136c-1.151,0.624-3.987,2.37-4.028,7.748
				c-0.025,3.369,2.104,7.325,5.207,7.325c0.125,0,0.252-0.008,0.382-0.021C162.632,51.712,163.232,49.381,163.602,48.391"/>
		</g>
		<g>
			<path fill="#D22224" d="M208.875,18.62c6.6,0,11.014,4.358,10.982,8.485c-0.032,4.108-0.146,18.56-0.159,20.805
				c-0.019,2.236,0.235,5.4,3.604,5.4h0.834l-0.03,4.174h-19.914l0.021-4.127c0.011,0,0.185,0.004,0.642,0.004
				c2.926,0,3.299-3.199,3.312-4.812c0.022-2.98,0.112-14.851,0.124-16.308c0.012-1.462-0.045-5.776-3.665-5.776
				c-4.476,0-6.539,4.682-7.037,5.99c-0.007,0.693-0.128,13.919-0.126,16.453c-0.006,1.768,0.104,4.445,3.245,4.445
				c0.106,0,0.544-0.021,0.567-0.021l-0.015,4.146h-19.753l0.042-4.174c0.013,0,0.171,0,0.994,0c3.383,0,3.438-3.184,3.438-4.479
				c-0.01-3.372,0.127-15.4,0.14-16.508c0.009-1.135-0.2-3.667-3.992-3.667h-0.565l0.026-3.959l10.562-5.071h5.466l-0.048,5.83
				C199.307,23.058,202.364,18.62,208.875,18.62z"/>
		</g>
		<g>
			<path fill="#D22224" d="M260.611,48.922l0.908,3.674c-0.811,1.24-3.521,5.646-9.047,5.646c-5.226,0-7.703-4.092-7.982-4.711
				c-1.352,1.816-3.731,4.738-9.426,4.738c-7.599,0-11.45-5.229-11.396-12.187c0.04-5.235,3.314-9.325,7.348-11.013
				c5.412-2.279,9.039-2.553,13.387-3.141c0.024-3.348,0.232-8.102-5.522-8.102c-4.914,0-7.79,2.895-9.554,5.128l-3.285-1.87
				c1.688-2.476,5.805-8.878,15.419-8.877c14.019,0,15.062,6.328,15.017,13.141l-0.072,8.525l-0.064,8.551
				c-0.014,1.756,0.661,2.025,1.398,2.025C258.818,50.457,259.697,50.029,260.611,48.922z M244.275,48.391l0.07-8.188l0.021-3.967
				c-0.57-0.213-1.231-0.326-1.955-0.326c-1.255,0-2.69,0.347-4.155,1.136c-1.139,0.624-3.97,2.37-4.012,7.748
				c-0.023,3.369,2.097,7.325,5.216,7.325c0.126,0,0.255-0.008,0.386-0.021C243.307,51.712,243.9,49.381,244.275,48.391"/>
		</g>
	</g>
</g>
</svg>
