<svg width="186" height="44" viewBox="0 0 186 44" fill="none" xmlns="http://www.w3.org/2000/svg">
<path fill-rule="evenodd" clip-rule="evenodd" d="M90.9712 7.67017C90.0485 7.84973 88.9525 8.76118 88.4607 9.75815C88.1425 10.4032 88.0244 10.8849 88.0215 11.5498C88.0182 12.3084 88.1934 12.8214 88.6048 13.2581C88.9639 13.639 89.1574 13.7578 89.6209 13.8817C91.0615 14.267 92.7193 13.3051 93.5381 11.609C94.2633 10.1067 93.9159 8.48543 92.7416 7.89196C92.2131 7.62485 91.5995 7.54795 90.9712 7.67017ZM135.416 7.70136C134.814 7.84771 134.326 8.14741 133.767 8.71561C133.354 9.13399 133.201 9.34715 132.971 9.82011C132.33 11.136 132.419 12.5215 133.197 13.3262C133.502 13.6414 133.713 13.7644 134.152 13.8817C135.192 14.1598 136.235 13.8016 137.201 12.8345C137.653 12.3825 137.784 12.2017 138.026 11.6982C138.388 10.944 138.478 10.5431 138.443 9.83133C138.41 9.15491 138.231 8.71592 137.818 8.30391C137.206 7.69286 136.343 7.47629 135.416 7.70136ZM107.898 16.592C106.879 16.7099 105.647 17.1664 104.689 17.7811C103.607 18.476 102.224 19.7588 101.429 20.8057C101.001 21.3694 100.84 21.5655 100.914 21.4317C100.956 21.3558 102.402 17.3376 102.449 17.1659C102.478 17.0624 102.348 17.0556 100.344 17.0556C98.3675 17.0556 98.2044 17.0638 98.1647 17.1659C98.0147 17.5514 96.8352 21.0081 95.9952 23.524C95.4498 25.1579 94.9683 26.5618 94.9252 26.6439C94.8822 26.7261 94.5585 27.233 94.2058 27.7703C92.1464 30.9083 90.0139 33.0303 88.5078 33.4405C88.1026 33.5508 87.4986 33.5005 87.2804 33.3384C86.8245 32.9994 86.6629 32.4453 86.7228 31.4259C86.8339 29.535 87.6827 26.8131 90.3681 19.7358C90.9071 18.3154 91.3481 17.1309 91.3481 17.1036C91.3481 17.0763 90.3268 17.0614 89.0785 17.0706L86.809 17.0871L86.5015 17.938C85.5932 20.4518 84.1618 24.5221 83.886 25.3752C82.4675 29.7643 82.0125 32.9441 82.5216 34.9102C82.7222 35.6852 82.9731 36.1372 83.494 36.662C83.9475 37.119 84.4233 37.3801 85.1615 37.577C85.8242 37.7538 87.4838 37.7405 88.1763 37.5529C89.1892 37.2784 90.5963 36.4417 91.6396 35.4935C91.8938 35.2625 92.1018 35.0975 92.1018 35.1269C92.1018 35.1563 91.9483 35.6406 91.7606 36.2032L91.4194 37.226L93.6572 37.2095L95.8948 37.1929L96.0114 36.7833C97.4232 31.8231 99.3849 27.0905 101.106 24.4928C102.859 21.8472 104.447 20.5975 106.082 20.5788C106.697 20.5716 107.013 20.6795 107.275 20.9864C107.634 21.4066 107.74 22.0386 107.618 23.0223C107.415 24.6642 106.617 27.1075 103.058 36.9881L102.973 37.2245H105.222H107.471L107.614 36.736C108.377 34.1309 109.455 31.1169 110.44 28.8418C110.979 27.5974 112.11 25.3641 112.58 24.6189C113.57 23.0496 114.771 21.7192 115.709 21.1525C116.356 20.7622 116.89 20.6166 117.675 20.6166C118.318 20.6166 118.355 20.6241 118.614 20.8066C118.959 21.05 119.095 21.2888 119.16 21.765C119.314 22.8906 118.978 23.8622 117.315 27.1098C115.691 30.2806 115.213 31.8058 115.296 33.5606C115.336 34.4139 115.446 34.8704 115.768 35.517C116.053 36.0903 116.716 36.8227 117.197 37.0947C118.693 37.9418 120.71 37.938 122.405 37.0847C123.649 36.4582 125.285 35.1179 126.458 33.7628L126.803 33.3646L126.843 33.5455C126.865 33.6451 126.886 33.8566 126.89 34.0157C126.901 34.439 127.119 35.2351 127.369 35.7656C127.657 36.3739 128.269 36.998 128.844 37.2684C129.956 37.7911 131.665 37.8713 132.99 37.4627C134.438 37.0161 136.26 35.6436 137.861 33.793L138.535 33.0136L138.736 33.5907C139.531 35.8698 141.07 37.2964 143.129 37.6624C143.9 37.7995 145.144 37.72 146.064 37.4748C146.569 37.3402 147.213 37.0199 147.666 36.6783C148.211 36.2669 149.082 35.403 149.577 34.7825C149.777 34.5313 149.953 34.3469 149.968 34.3728C149.982 34.3986 150.014 34.5332 150.039 34.6718C150.144 35.2613 150.737 36.2931 151.307 36.8778C151.806 37.3904 152.801 37.7287 153.808 37.7287C155.366 37.7287 156.808 37.1103 158.425 35.7495C158.717 35.5034 159.019 35.2519 159.096 35.1905C159.22 35.0913 159.197 35.1932 158.894 36.1023C158.706 36.6651 158.553 37.1482 158.553 37.1759C158.553 37.2035 159.562 37.2186 160.795 37.2095L163.037 37.1929L163.153 36.7833C164.307 32.7171 165.904 28.7594 167.552 25.8795C168.901 23.5234 170.473 21.7594 171.848 21.0597C172.888 20.5309 174.29 20.4906 174.697 20.9778C174.914 21.2369 175.071 21.7591 175.071 22.2193C175.071 23.1573 174.786 23.9149 173.264 27.014C171.852 29.8882 171.466 30.8918 171.262 32.2137C171.142 32.9889 171.182 33.9558 171.364 34.6718C171.776 36.2988 172.95 37.3659 174.632 37.6409C176.771 37.9908 178.759 37.3251 181.097 35.4756C182.188 34.6119 183.715 32.9078 184.657 31.5024L185.109 30.8271C185.109 30.8271 185.379 30.3516 185.299 29.7926C185.219 29.2335 184.941 28.5747 184.185 28.2352C183.429 27.8958 182.752 28.1314 182.534 28.395C182.401 28.5547 182.13 28.9495 182.13 28.9495C180.603 31.1663 178.728 32.9607 177.507 33.3745C175.749 33.9701 175.236 32.5174 176.309 29.9839C176.465 29.6157 177.016 28.4494 177.534 27.3921C178.721 24.9693 179.392 23.375 179.618 22.4444C180.092 20.4937 179.725 18.8338 178.563 17.6674C176.959 16.0576 173.747 16.2387 171.208 18.0823C170.272 18.7625 169.276 19.7977 168.538 20.8584C168.354 21.1234 168.193 21.3306 168.182 21.3188C168.17 21.3071 168.486 20.3665 168.884 19.2287C169.281 18.0909 169.607 17.1364 169.607 17.1077C169.607 17.079 168.636 17.0556 167.449 17.0556H165.291L164.615 18.9937C164.244 20.0597 163.504 22.2206 162.971 23.7959C162.047 26.5274 161.983 26.6908 161.588 27.3254C160.61 28.8946 159.406 30.44 158.293 31.5525C157.403 32.4429 156.879 32.8526 156.184 33.202C155.758 33.4159 155.587 33.4664 155.21 33.4897C154.807 33.5146 154.727 33.5004 154.533 33.3692C154.192 33.1384 154.086 32.8556 154.085 32.1696C154.083 30.6622 154.94 27.8562 158.013 19.2979C158.448 18.0873 158.804 17.0875 158.804 17.0762C158.804 17.0648 157.819 17.0556 156.615 17.0556H154.425L154.024 18.1584C153.803 18.7651 153.602 19.2614 153.576 19.2614C153.551 19.2615 153.472 19.1465 153.401 19.0058C153.231 18.6714 152.528 17.9624 152.052 17.6454C150.482 16.5992 149.028 16.3386 147.032 16.746C143.779 17.4104 140.742 20.4949 139.232 24.6683C138.863 25.6879 138.541 26.9689 138.394 28.0035C138.332 28.4405 138.229 28.6155 137.432 29.6293C135.404 32.2101 133.76 33.5025 132.501 33.5051C131.483 33.5072 131.111 32.7616 131.29 31.0792C131.505 29.0752 132.332 26.5119 135.246 18.8206C135.594 17.9022 135.879 17.1292 135.879 17.1031C135.879 17.0769 134.864 17.0556 133.624 17.0556H131.369L131.308 17.2289C131.274 17.3242 130.759 18.7494 130.163 20.396C129.567 22.0426 128.846 24.0989 128.562 24.9656C128.012 26.6468 127.976 26.7201 127.007 28.174C125.174 30.9226 123.356 32.7975 122.011 33.324C121.794 33.4091 121.467 33.4742 121.182 33.489C120.782 33.5098 120.668 33.4914 120.432 33.3679C120.079 33.1834 119.943 32.9932 119.864 32.5719C119.762 32.0242 119.944 31.0886 120.332 30.1672C120.427 29.943 120.97 28.8085 121.54 27.6461C123.514 23.6185 123.945 22.3892 123.945 20.7941C123.945 20.0101 123.809 19.4195 123.464 18.7112C122.955 17.6654 122.109 16.9847 120.962 16.699C120.32 16.5389 119.069 16.5525 118.306 16.7279C116.107 17.2331 114 18.7765 112.475 20.9989L112.169 21.4442L112.166 20.4001C112.164 19.4083 112.155 19.3324 111.985 18.8834C111.348 17.1972 109.863 16.3648 107.898 16.592ZM150.306 20.7732C151.102 21.0542 151.939 21.7404 152.294 22.4032L152.474 22.7385L152.274 23.3793C151.435 26.0752 150.292 28.9206 149.469 30.3659C148.229 32.5434 147.012 33.5034 145.489 33.5041C144.943 33.5044 144.503 33.3785 144.097 33.1062C143.696 32.8371 143.484 32.5793 143.196 32.0094C142.842 31.3094 142.758 30.8899 142.762 29.8502C142.773 26.9917 143.741 24.24 145.405 22.3417C146.158 21.4825 147.024 20.9176 147.913 20.7056C148.706 20.5166 149.654 20.5433 150.306 20.7732Z" fill="#2D1B10"/>
<path d="M88.4607 9.75815C88.9525 8.76118 90.0485 7.84973 90.9712 7.67017C91.5995 7.54795 92.2131 7.62485 92.7416 7.89196C93.9159 8.48543 94.2633 10.1067 93.5381 11.609C92.7193 13.3051 91.0615 14.267 89.6209 13.8817C89.1574 13.7578 88.9639 13.639 88.6048 13.2581C88.1934 12.8214 88.0182 12.3084 88.0215 11.5498C88.0244 10.8849 88.1425 10.4032 88.4607 9.75815Z" fill="#2D1B10"/>
<path d="M66.9158 3.23749C68.5775 2.15921 70.0678 1.60595 72.0378 1.33606C73.3417 1.15744 75.1846 1.23673 76.4626 1.52647C78.6477 2.02181 80.6609 3.36537 81.8492 5.12132C82.4785 6.0513 83.0045 7.37797 83.2197 8.57833C83.3721 9.42851 83.3737 11.0661 83.2229 11.8558C83.0757 12.6259 82.8232 13.5173 82.5801 14.1248L82.3783 14.629C82.3783 14.629 81.3678 16.1758 79.6171 16.1758C77.8663 16.1758 77.4675 14.6482 77.4675 14.6314C77.4675 14.6146 77.5484 14.3944 77.6473 14.1422C78.206 12.7167 78.3674 11.9503 78.3677 10.7213C78.368 9.92606 78.3452 9.69575 78.2248 9.27164C77.7343 7.54461 76.7131 6.38471 75.1685 5.80001C73.9643 5.34425 72.4851 5.33826 71.1239 5.78374C68.9556 6.49337 67.1938 8.47598 66.7363 10.7213C66.6122 11.3304 66.5937 11.5276 66.5968 12.2106C66.6034 13.6904 67.0851 14.936 68.1594 16.2508C68.8311 17.073 69.8243 17.9261 72.066 19.6065C73.959 21.0255 75.5735 22.452 76.2409 23.2953C77.664 25.0934 78.3084 26.7476 78.4671 29.0091C78.7858 33.5528 76.3687 37.8859 72.0906 40.4398C69.8975 41.749 67.7502 42.3257 65.0589 42.3284C62.5177 42.3311 60.562 41.8474 58.6795 40.7507C56.84 39.6791 55.3301 37.8773 54.6029 35.8861C53.7066 33.4318 53.7094 30.7659 54.6112 28.0053C54.8794 27.1841 55.5578 25.7357 55.9907 25.0601C56.3181 24.549 56.8072 23.8859 56.9767 23.7828C57.0061 23.7461 58.629 22.3405 60.2593 23.5832C60.5379 23.7628 60.9358 24.2221 61.075 24.8809C61.2143 25.5398 60.9395 26.2391 60.8145 26.3694C59.5643 27.6815 58.813 29.746 58.8076 31.8838C58.8048 33.0258 58.9812 33.8267 59.4216 34.6718C60.1347 36.0401 61.5098 37.1576 63.0755 37.6413C64.5915 38.1096 66.4129 38.0971 67.9045 37.6079C70.3705 36.7993 72.4843 34.5771 73.189 32.0526C73.6225 30.4996 73.4329 28.4287 72.7452 27.2044C71.8971 25.6947 70.8156 24.6653 67.5752 22.2839C65.6605 20.8767 64.1315 19.4543 63.3952 18.3953C62.5883 17.2346 62.0214 15.915 61.791 14.6605C61.6535 13.9124 61.6043 12.1121 61.7001 11.3412C61.951 9.32401 62.8346 7.34608 64.2717 5.58464C64.8963 4.81917 66.032 3.81097 66.9158 3.23749Z" fill="#2D1B10"/>
<path d="M26.1629 9.67629C23.1703 6.94331 15.5117 4.66743 11.1858 11.3597C8.81871 15.0218 9.82505 20.5832 11.6917 23.0472C13.4969 25.4303 14.4975 26.6025 16.0258 28.0405C16.1994 28.2584 17.1171 28.4162 17.3123 28.0405C17.7255 27.4464 18.1728 26.824 18.4913 26.4558C18.849 26.0422 19.4083 25.3534 20.2522 25.1415C20.6945 25.0304 20.8219 25.1415 19.5276 27.4144C18.2333 29.6874 17.5953 32.7246 18.9486 36.105C20.3019 39.4855 23.769 41.9707 27.9578 42.0588C32.1465 42.1468 36.6744 39.2015 37.7504 35.0443C38.8263 30.8871 37.3587 28.372 36.439 26.9349C35.5194 25.4978 35.706 25.1212 36.2201 25.3667C36.9645 25.722 38.1091 27.4144 38.1091 27.4144C38.8896 26.9283 40.2451 24.2047 41.2282 22.065C43.2526 17.6586 43.581 11.0276 40.1453 7.25218C38.2531 5.1729 35.7303 4.07062 33.3164 4.24562C28.6374 4.58483 27.0777 7.46391 26.1629 9.67629Z" fill="#C28F59"/>
<ellipse cx="0.928752" cy="0.932061" rx="0.928752" ry="0.932061" transform="matrix(0.999434 0.0336354 -0.0332692 0.999446 21.8256 18.1353)" fill="white"/>
<ellipse cx="0.928951" cy="0.931859" rx="0.928951" ry="0.931859" transform="matrix(0.968269 0.249911 -0.247745 0.968825 29.6038 16.7368)" fill="white"/>
<path d="M38.1171 32.382C38.1171 37.9215 33.5516 42.0607 28.0409 42.0607C22.5302 42.0607 18.2009 37.9215 18.2009 32.382C18.2009 26.8426 22.5302 22.0005 28.0409 22.0005C33.5516 22.0005 38.1171 26.8426 38.1171 32.382Z" fill="#DEC29C"/>
<path d="M34.4216 31.7084C35.1728 31.8297 35.1182 34.6793 33.667 36.0774C33.2372 36.4915 30.7763 37.9998 28.1526 37.9415C25.3742 37.9415 23.4421 37.09 22.3479 35.4949C21.7305 34.4935 21.5353 33.8442 21.5353 32.7569C22.0187 31.168 22.1404 30.489 26.179 31.8549C30.5905 33.689 32.7963 31.8549 34.4216 31.7084Z" fill="#FFF6E6"/>
<path fill-rule="evenodd" clip-rule="evenodd" d="M30.0973 22.3635C29.7445 21.8782 29.2167 21.5677 28.0483 21.4021C26.8799 21.2365 25.9153 21.3452 24.9768 21.8474C24.0382 22.3496 23.4574 23.1383 23.4062 23.5567C23.3551 23.9752 24.0213 24.1784 24.2378 23.9751C24.3111 23.9063 24.3774 23.8156 24.4522 23.7132C24.5982 23.5136 24.7766 23.2696 25.1034 23.0562C25.5978 22.7334 26.0957 22.5902 26.6058 22.7556L26.62 22.7602C27.1203 22.9225 27.3524 22.9978 27.9504 22.6398C28.5541 22.2784 29.2533 22.4414 29.74 22.8719C29.9832 23.2544 30.45 22.8487 30.0973 22.3635ZM28.0325 23.8678C28.3915 22.9086 29.5208 23.0726 29.8929 23.5178C30.2406 23.9338 30.1951 24.0676 29.9846 24.2133C29.9101 24.2648 29.8179 24.2718 29.7194 24.2791C29.5922 24.2887 29.4547 24.299 29.3316 24.4075C29.2658 24.4655 29.2158 24.5784 29.1603 24.7036C29.0119 25.0386 28.8245 25.4617 28.1908 25.1561C27.795 24.9653 27.8314 24.4054 28.0325 23.8678ZM27.0812 24.1094C26.6218 23.3786 25.6576 23.2617 25.1509 23.7708C24.6443 24.2798 24.6614 24.6313 24.9068 24.737C24.9925 24.7739 25.0895 24.7733 25.1931 24.7725C25.33 24.7716 25.4784 24.7705 25.6276 24.856C25.7077 24.9018 25.7742 24.9968 25.8478 25.102C26.0414 25.3785 26.2841 25.7254 26.9523 25.4328C27.2668 25.295 27.3911 24.6023 27.0812 24.1094Z" fill="#1B1918"/>
<path fill-rule="evenodd" clip-rule="evenodd" d="M42.2725 6.99576C38.3792 2.7259 31.8161 -0.485319 24.5808 0.336426C16.1593 1.29298 10.0506 7.43727 8.01307 14.4434C7.50504 14.1393 6.79479 14.0102 5.79048 14.0873C2.0022 14.3784 -0.930222 19.4418 0.915039 24.5983C2.7603 29.7548 6.55793 31.012 9.41474 29.9872C10.1892 29.7094 10.633 29.3123 10.8533 28.808C12.2236 30.2893 13.9531 31.5659 15.9743 32.5767C15.9962 32.5876 16.0202 32.5991 16.0458 32.6114C16.2786 32.723 16.6363 32.8946 16.6364 33.2339C16.6364 35.326 17.7842 39.3226 21.3444 41.7202C24.9047 44.1178 28.7232 44.3059 31.5808 43.3892C34.4381 42.4724 36.3823 40.8034 37.4831 39.3931C38.5839 37.9828 39.2938 36.0236 39.5202 35.1616C39.8051 33.899 39.825 32.1524 39.6726 31.1685C39.6458 30.9954 39.6177 30.8375 39.5922 30.694C39.4927 30.1334 39.4324 29.7936 39.6374 29.6372C42.4488 27.4945 44.1231 25.2125 45.0637 22.9106C45.2499 22.9123 45.4531 22.9019 45.6749 22.8787C47.933 22.6421 51.92 20.8645 51.92 14.679C51.92 8.49343 47.0655 5.78506 43.2902 6.67421C42.8717 6.77278 42.5364 6.87918 42.2725 6.99576ZM26.1794 9.67139C27.0923 7.46362 28.6489 4.59105 33.3181 4.25244C35.727 4.0778 38.2452 5.17743 40.1335 7.25244C43.562 11.0201 43.2339 17.6374 41.2136 22.0347C40.2326 24.1699 38.8801 26.8884 38.1013 27.3735C38.1013 27.3735 36.9594 25.6845 36.2165 25.3296C35.7034 25.0847 35.5165 25.4609 36.4343 26.895C37.3521 28.3292 38.8166 30.8393 37.7429 34.9878C36.6689 39.1362 32.1504 42.0756 27.9704 41.9878C23.7904 41.8998 20.3307 39.4189 18.9802 36.0454C17.6299 32.6721 18.2667 29.6417 19.5583 27.3735C20.85 25.1053 20.7224 24.9941 20.281 25.105C19.4799 25.3062 18.936 25.9381 18.5776 26.3545C18.5593 26.3758 18.5415 26.3965 18.5241 26.4165C18.2064 26.7839 17.7597 27.4048 17.3474 27.9976C17.1526 28.3725 16.2363 28.215 16.0632 27.9976C14.5381 26.5627 13.5394 25.3931 11.738 23.0151C9.87523 20.5561 8.87087 15.0056 11.2331 11.3511C15.55 4.67293 23.1929 6.94413 26.1794 9.67139Z" fill="#2D1B10"/>
<path fill-rule="evenodd" clip-rule="evenodd" d="M22.4381 21.0091C23.7381 21.053 24.8271 20.0302 24.8704 18.7247C24.9137 17.4191 23.895 16.3252 22.595 16.2813C21.295 16.2374 20.206 17.2602 20.1627 18.5657C20.1194 19.8712 21.1381 20.9652 22.4381 21.0091ZM22.6785 20.0577C23.19 20.075 23.6184 19.673 23.6354 19.1598C23.6524 18.6467 23.2516 18.2167 22.7402 18.1994C22.2287 18.1821 21.8003 18.5841 21.7833 19.0973C21.7663 19.6105 22.1671 20.0405 22.6785 20.0577Z" fill="#2D1B10"/>
<path fill-rule="evenodd" clip-rule="evenodd" d="M29.6298 19.6066C30.8893 19.9318 32.1725 19.1699 32.4958 17.905C32.8192 16.64 32.0603 15.351 30.8008 15.0258C29.5413 14.7006 28.2581 15.4625 27.9347 16.7274C27.6113 17.9924 28.3702 19.2814 29.6298 19.6066ZM30.0104 18.806C30.506 18.9339 31.0108 18.6345 31.1379 18.1372C31.2651 17.6398 30.9664 17.1329 30.4708 17.005C29.9752 16.877 29.4703 17.1765 29.3432 17.6738C29.2161 18.1711 29.5148 18.678 30.0104 18.806Z" fill="#2D1B10"/>
<path fill-rule="evenodd" clip-rule="evenodd" d="M22.9222 30.1106C23.8391 30.0667 25.1177 30.6904 26.1439 31.1911C26.3945 31.3133 26.6301 31.4283 26.8416 31.5243C27.6808 31.9054 28.2138 32.0315 29.4827 32.1514C31.4024 32.4039 33.0747 31.606 33.6709 31.1756C33.6709 31.1756 33.9003 30.9463 34.4295 30.9463C34.9588 30.9463 35.7401 31.5628 35.7905 32.5096C35.8307 33.2654 35.7103 33.5461 35.5575 33.9023C35.5189 33.9922 35.4783 34.087 35.4376 34.1955C35.2553 34.682 34.836 35.2353 34.6363 35.4991L34.6362 35.4992C34.615 35.527 34.5964 35.5517 34.5807 35.5726C34.0655 36.3078 33.497 36.8002 32.7914 37.1864C31.8085 37.7244 30.5438 38.4073 27.7257 38.4073C25.2908 38.4073 24.0264 37.7006 22.9691 37.064C21.9117 36.4275 21.173 35.406 20.8639 34.9103C20.5548 34.4146 20.2885 33.5308 20.4421 32.5096C20.6578 31.0754 21.7814 30.1653 22.9222 30.1106ZM30.0443 33.153C28.5826 33.153 26.8571 32.5643 25.5923 32.0794C24.889 31.8098 23.9128 31.6886 23.2969 31.8689C22.681 32.0491 22.2939 32.4842 22.2002 32.8132C22.1065 33.1421 22.2236 33.6356 22.5514 33.706C22.6886 33.7356 22.8012 33.6718 22.9356 33.5956C23.1222 33.4899 23.3507 33.3604 23.7455 33.4241C24.1389 33.4875 24.4387 33.8733 24.7029 34.2131C24.8946 34.4598 25.0676 34.6824 25.244 34.7399C26.1009 35.0197 27.5493 35.2283 28.885 35.1208C30.2207 35.0132 30.6264 34.9271 32.2369 34.4537C33.3206 34.1352 34.51 33.3714 34.5051 32.6581C34.5003 31.9448 33.8411 32.0462 33.7491 32.0987C32.993 32.529 31.5061 33.153 30.0443 33.153ZM33.0434 36.0675C32.6402 36.3688 32.0961 36.6765 31.4449 36.9231C30.7167 37.1987 29.5105 37.5174 27.7257 37.4016C25.9136 37.2841 25.48 37.0831 24.9031 36.8157C24.8461 36.7893 24.7878 36.7623 24.7266 36.7346C24.0781 36.4413 23.6446 36.0576 23.3653 35.8103C23.3512 35.7978 23.3374 35.7856 23.3241 35.7738C23.0468 35.5291 22.8792 35.1394 22.9963 34.9279C23.1133 34.7164 23.3943 34.5284 23.6284 34.5754C23.8626 34.6224 24.0345 34.7634 24.3074 35.1864C24.5546 35.5694 25.0636 35.657 25.4366 35.7212C25.4755 35.7279 25.5129 35.7343 25.5484 35.7408C26.6069 35.9345 27.0133 35.9558 28.4751 35.8913C29.9368 35.8267 31.4304 35.4794 32.2369 35.1462C32.4716 35.0493 32.7107 34.9353 32.9356 34.828C33.4836 34.5667 33.9466 34.3459 34.0515 34.5126C34.1748 34.6675 34.2027 34.755 33.9759 35.0992C33.6785 35.5506 33.4466 35.7663 33.0434 36.0675Z" fill="#2D1B10"/>
</svg>
