<svg id="Capa_1" xmlns="http://www.w3.org/2000/svg" width="104.633" height="119.108" viewBox="0 0 104.633 119.108"><style>.st0{fill:#ff5f5c}.st1{fill:#3f352e}</style><path class="st0" d="M73.489 97.533c-1.189-29.28 4.133-67.848-2.049-84.655-9.824 8.832-43.029 38.785-57.236 52.158 14.41 14.793 42.163 24.395 60.21 33.953"/><path class="st1" d="M73.591 100.55c-5.021-2.666-10.791-5.318-16.895-8.135-15.544-7.156-33.16-15.275-43.756-26.152l-1.25-1.281 1.305-1.23c16.459-15.488 56.863-51.818 57.268-52.188l1.936-1.742.898 2.447c4.039 10.986 3.328 30.428 2.578 51.002-.418 11.58-.859 23.555-.424 34.189l-.028.004-1.632 3.086zM16.745 65.068c10.272 9.795 26.784 17.402 41.426 24.146 4.756 2.189 9.305 4.293 13.485 6.377-.31-10.25.099-21.521.495-32.455.683-18.66 1.328-36.371-1.568-47.119-8.187 7.373-38.947 35.113-53.838 49.051z"/></svg>