<svg id="Capa_1" xmlns="http://www.w3.org/2000/svg" xmlns:xlink="http://www.w3.org/1999/xlink" width="1371" height="800" viewBox="0 0 1371 800"><style>.st0{clip-path:url(#SVGID_2_);fill:#ff5f5c}</style><defs><path id="SVGID_1_" d="M0 0h1371v800H0z"/></defs><clipPath id="SVGID_2_"><use xlink:href="#SVGID_1_" overflow="visible"/></clipPath><path class="st0" d="M-1.665-.724C9.215.701 25.181-2.529 38.54-2.031c24.029.896 48.472 1.26 72.755.314C169.907-4 228.818-4.007 287.617-4.554c51.761-.483 103.442-6.047 156.007-3.826 61.566 2.601 124.22 9.697 186.228 7.372 95.525-3.582 189.515-6.101 284.806-6.101 112.455 0 224.725 5.107 336.085 5.107 31.678 0 61.144-2.488 91.646-4.822 19.38-1.484 51.971-2.55 68.474 5.045 3.343 40.897 3.559 82.627 3.559 123.604 0 38.12-29.854 608.553-27.397 645.428-30.232-1.309-59.082-5.598-89.797-2.08-41.875 4.795-86.502 8.406-128.924 9.936-42.49 1.531-84.36-2.271-126.496-2.555-55.506-.373-108.576-7.377-163.666-8.938-27.451-.777-52.266-5.414-79.033-7.373-37.035-2.709-76.478 11.992-113.766 10.561-62.678-2.406-125.347-3.826-188.267-3.826-61.676 0-122.447 4.285-183.555 6.451-55.291 1.959-111.822-3.562-167.031-5.205-33.317-.988-62.324-.014-93.521 6.062-22.465 4.373-52.426 4.947-76.605 3.99C-31.912 736.5-7.38 149.908-9.85 111.386c-1.427-22.246-4.346-44.996-3.274-67.39C-12.588 32.781-15.398 5.932-.027.551"/></svg>