<svg id="Capa_1" xmlns="http://www.w3.org/2000/svg" width="220.984" height="256.487" viewBox="0 0 220.984 256.487"><style>.st0,.st1,.st2,.st3{fill:#666;stroke:#3f352e;stroke-miterlimit:10}.st1,.st2,.st3{fill:#f2f2f2}.st2,.st3{fill:#ccc}.st3{fill:#ff5f5c}.st4{fill:#303030}.st5{fill:none;stroke:#3f352e;stroke-miterlimit:10}.st6{fill:#00a2c2}.st7{fill:#e6e6e6;stroke:#3f352e;stroke-miterlimit:10}</style><path class="st3" d="M49.815 13.42c-2.583.516-5.07 3.016-7.233 4.749-2.479 1.987-4.917 3.701-7.325 5.768-3.14 2.694-13.386 7.908-11.257 13.058 1.179 2.853 5.855 3.652 7.888 2.115 1.303-.987 1.538-2.775 3.41-1.588 2.021 1.278.78 2.4-.036 3.655-1.619 2.482-3.474 5.275-5.487 7.516-1.055 1.172-4.665 6.312-6.27 6.245-1.293-.052-5.201-5.788-6.042-6.914-2.128-2.847-3.107-6.248-3.476-9.623-.425-3.895.183-5.843 2.213-9.228 1.8-3.002 3.315-4.511 6.315-6.449 8.021-5.192 27.425-9.521 27.14-9.364"/><path class="st0" d="M50.135 13.537c1.817-.252 4.591 1.158 5.699 2.608.387.509 1.217 1.765.806 2.484-.412.722-2.18.337-2.918.332.138.298.168.675.264.952a17.978 17.978 0 0 0-1.806.076c-.035.611.086 1.175-.009 1.801-.502.002-1.687-.391-2.123-.041-.408.328-.247 1.241-.295 1.785-.406-.024-1.42-.529-1.812-.271-.412.268-.247 1.226-.289 1.701-.702.011-1.421-.051-2.121-.043-.108.644.131 1.252.004 1.906-.623.012-1.331-.133-1.908.074.02.438.119.916.022 1.367-.39.005-1.397-.216-1.695.084-.2.205-.067 1.381-.091 1.685-.595.06-2.011-.528-2.45.026-.218.271.141 1.457.093 1.825-.582-.075-1.168-.147-1.772-.14-.073.564.164 1.042.124 1.589-3.815-1.04-3.833 4.55-6.476 5.79-1.199.564-3.661.717-4.793.039-1.188-.709-2.783-2.263-2.804-3.739-.021-1.657 1.284-3.019 2.417-4.196 1.681-1.744 18.677-14.965 19.598-15.642 1.086-.794 2.909-2.099 4.335-2.052M59.347 26.92c-.44-1.742-1.838-3.898-3.155-5.253-.1.445-.227 1.567-.628 1.858-.471.342-1.716.053-2.333.062.127.62.207 1.517-.296 1.808-.336.192-1.728.038-2.141.044-.053.59-.044 1.205-.098 1.796-.636-.076-1.299-.336-2.006-.258-.04.449-.047.914-.066 1.366-.697.015-1.789-.235-2.171.366-.219.346-.043 1.403-.08 1.815-.834.021-1.92-.088-2.767-.175.098.471.031 1 .145 1.484-.617-.246-1.399-.379-2.021-.148-.057.532-.005 1.066-.203 1.574-.82.013-1.646-.097-2.449.049.089.604.649.872.568 1.498-.826.013-1.685-.113-2.458.161.104.506.386 1.042.339 1.597-.716.005-2.468-.02-3.019.496 1.422.758 2.118 2.342 4.204 2.902 1.475.395 3.517-1.398 4.715-2.145 3.541-2.206 6.403-4.173 10.022-6.242 1.396-.799 6.37-3.117 5.726-5.078.134-.025.269-.025.402-.003"/><path class="st3" d="M21.885 58.646c-.172.921-.298 1.864-.455 2.781-.351 2.024-.8 4.488-.447 6.569.594 3.503 3.243 7.491 5.303 10.319 2.599 3.562 6.581 4.383 10.342 6.229 1.46.715 3.433 1.67 5.149 1.344 1.359-.258 2.552-2.244 3.463-3.323 1.266-1.499 2.098-2.959 3.635-4.267 1.739-1.479 3.176-3.143 4.993-4.557 1.471-1.144 2.79-1.918 4.505-2.58 2.106-.813 3.368-.371 4.949 1.172 1.406 1.37 2.656 2.588 3.804 4.238.731 1.053 2.997 3.309 2.639 4.632-.667 2.473-8.541 6.403-5.312 9.5 1.401 1.344 3.956.224 5.706.206 1.072-.014 2.163.082 3.234.122.761.028 2.211-.206 2.9.097.534.233 1.024.885 1.574 1.226.483.3.932.515 1.459.728.809.329 1.597.641 2.356 1.086 1.619.945 3.233 2.432 4.611 3.613 1.802 1.541 3.511 3.256 4.958 5.111 1.49 1.912 2.6 4.232 4.369 5.879 1.45 1.348 85.764 105.127 87.521 108.62 1.734 3.449 4.252 5.329 8.207 5.478 4.087.146 7.074-1.164 8.83-4.965 1.613-3.49.183-6.969-1.703-10.19-1.131-1.934-3.279-3.538-4.869-5.142-2.126-2.144-35.537-46.175-38.348-50.451-2.922-4.447-50.724-64.199-52.737-67.058-3.249-4.608-28.446-37.479-30.984-40.667-1.969-2.472-3.913-5.016-5.365-7.832-1.138-2.208-2.367-4.835-4.158-6.533-.625-.591-1.552-1.187-2.204-1.667-.971-.716-.968-.587-1.843.228-1.512 1.402-3.408 2.141-5.158 3.234-2.972 1.861-5.983 3.773-8.841 5.874-1.4 1.03-2.869 2.45-4.719 2.394-.911-.029-1.73-.783-2.546-.506-1.086.378-1.454 1.996-1.925 2.885-.619 1.173-1.526 2.197-2.396 3.189-1.033 1.177-2.014 2.371-3.071 3.532-1.207 1.329-2.438 2.621-3.611 3.988-.759.886-2.039 1.306-2.636 2.324-.457.78-1.01 2.231-1.179 3.14z"/><path class="st1" d="M43.651 84.77c.179 1.227.56 2.736 1.289 3.796 3.342 4.853 10.217-3.647 12.701-5.687 3.042-2.494 9.465-5.729 8.341-7.424-1.231-2.738-7.095 3.449-8.901 4.553-2.572 1.57-8.961 8.477-9.099 10.452-.114 1.626.378 3.042 1.779 3.939.625.4 1.881 1.231 2.662 1.044.846-.205 1.026-1.178 1.339-1.916.452-1.07.808-.963 1.959-.861-.332.475-.964 1.984-.49 2.559.471.568 2.057-.088 2.789.004.076.879-.286 1.742-.28 2.653.795.101 1.49-.247 2.24-.214.01.955-.087 1.926-.073 2.881.756.13 1.367-.468 2.135-.32.062.737-.101 1.564-.378 2.21.805.103 1.541-.407 2.352-.174.014.977-.198 1.88-.192 2.845.799.072 1.577.029 2.352.012-.127.781-.534 1.547-.699 2.314.975.186 2.052.098 2.973.356-.176.768-.762 1.575-.703 2.422.937.081 1.865.015 2.777.018-.305.94-.598 1.438-.605 2.433.78.184 1.923-.174 2.677-.301.001.978-.532 1.98-.509 3.078.509-.306 2.224-1.23 2.84-.449.451.571-.446 2.217-.454 2.904.769.15 1.617-.191 2.346-.191.115.876-.322 1.742-.279 2.638.833.052 1.715-.508 2.575-.519-.209.637-.231 1.451-.584 1.991.962.09 1.84-.01 2.774.138-.992 1.69 1.097 2.059 2.418 1.906 1.746-.202 3.876-.891 5.232-2.105 2.344-2.097 3.067-5.141 3-8.25-.611-.597-1.794-.381-2.649-.453.49-.762.501-1.529.496-2.431-.575-.05-2.151-.022-2.349-.536-.091-.238.628-2.05.738-2.346-.812-.25-1.54-1.168-2.456-.881.153-.689.182-1.385.191-2.096-.771.039-1.566.297-2.357.212.022-.786.329-1.521.289-2.329-.834-.084-1.755-.021-2.553-.152.287-.439 1.031-1.898.708-2.418-.354-.565-2.075-.227-2.661-.082.443-.571.82-1.395.775-2.115-.964-.244-1.86-.553-2.855-.578.295-.775.598-1.697.818-2.533-.708.596-2.016.336-2.888.174.207-.93.169-1.913-.027-2.857-.579-.053-1.279.073-1.791-.212-.337-.187-.342-.727-.747-.872-.73-.266-7.471.676-8.564-.87-1.341-1.893 3.094-6.569 4.231-7.259.888-.538.828-1.123 1.423-1.787-.335-2.592-8.247 4.091-9.852 5.178-2.28 1.543-5.162 3.809-5.518 6.448"/><path class="st2" d="M56.278 89.259c1.116.869 5.713 6.727 6.859 7.976 1.763 1.928 11.598 14.611 15.81 18.035 1.657 1.35 3.583 2.535 5.857 1.944 2.397-.624 1.25-4.008.339-5.509-.646-1.065-15.097-19.391-16.07-20.543-1.779-.168-3.641.627-4.861-.717-.617-.678-.609-1.191-.392-2.062.163-.651.472-1.292.265-2.111-.746-2.954-7.349 2.257-7.807 2.987"/><path class="st1" d="M54.036 33.625c.349-2.197 4.371-3.074 4.987-.464.806 3.411-5.826 4.283-4.987.464"/><path class="st7" d="M58.421 49.306c.639 3.057 3.276 6.994 5.038 9.631 1.824 2.728 40.726 51.007 43.715 54.454 3.434 3.958 61.004 75.342 67.869 83.984 1.586 1.993 2.435 4.086 4.5 5.531-.313-2.834 3.355-3.866 5.552-3.688-1.595-2.25-79.97-99.928-87.71-111.415-2.709-4.023-26.209-40.7-33.403-43.144-2.292-.78-5.423-2.029-5.875 1.048-.017 1.659.092 2.984.499 4.469"/><g><path class="st6" d="M163.329 156.883l-.31 3.279 3.984 7.971 8.857 1.974 6.331-7.603.564-2.908-4.246-8.416-8.923-1.162-6.257 6.865zm5.505.915c.534-.187 1.658-1.728 2.184-1.528.369-.135 2.519.383 2.941.418.832.068.959-.07 1.561.51.127.125.727 1.135.828 1.355.3.291.4 1.018.502 1.496.16.754.629.612-.047 1.078-.727.499-.853 1.538-1.777 1.498-.387-.018-1.426-.098-1.756-.199-.039-.003-.574-.062-.695-.068-.349-.02-1.293-.053-1.635-.141-.888-.226-1.936-.838-2.292-1.629-.532-1.174-.962-2.147.186-2.79zM113.287 162.047l-1.067 4.109 4.149 8.299 10.555 1.781 6.512-8.267.797-3.343-4.343-8.723-10.474-1.1-6.129 7.244zm5.235 1.791c.556-.195 1.634-2.461 2.183-2.254.385-.139 3.047.385 3.486.424.867.07 1.416-.202 2.041.402.134.127.375.988.48 1.217.311.305 1.056 1.291 1.162 1.788.165.786-.596 1.263-1.3 1.747-.759.518.095 1.078-.866 1.035-.406-.02-2.316-.221-2.661-.33-.041-.002-.349-.066-.474-.075-.364-.021-1.6-.097-1.957-.186-.926-.237-.694-1.085-1.064-1.909-.552-1.224-1.257-1.821-1.03-1.859zM136.723 199.899l-1.068 4.108 4.149 8.299 10.556 1.783 6.51-8.269.799-3.339-4.344-8.726-10.475-1.102-6.127 7.246zm5.234 1.79c.556-.192 1.635-2.459 2.182-2.251.386-.138 3.047.382 3.487.421.866.072 1.417-.204 2.042.402.133.127.373.99.479 1.219.312.301 1.055 1.291 1.161 1.789.167.783-.596 1.264-1.299 1.744-.758.518.096 1.078-.868 1.035-.403-.018-2.313-.219-2.658-.332-.044.002-.352-.062-.476-.07-.363-.022-1.599-.098-1.955-.188-.928-.238-.693-1.086-1.064-1.907-.552-1.228-1.258-1.825-1.031-1.862z"/><path class="st4" d="M118.158 168.784l-.009-.017a77.627 77.627 0 0 1-1.376-2.51c-.223-.423-.452-.841-.664-1.268l-.647-1.277-.089-.176.137-.176c.592-.746 1.199-1.482 1.81-2.213.302-.369.618-.727.926-1.088.31-.365.624-.724.939-1.08l.145-.16.196.032c1.019.159 2.043.308 3.061.472s2.033.347 3.051.533l.119.021.039.092c.371.881.734 1.76 1.134 2.628.393.868.813 1.724 1.253 2.567l.046.086-.067.092-1.755 2.26a49.24 49.24 0 0 1-1.839 2.188l-.118.138-.17-.024a88.069 88.069 0 0 1-3.058-.498 68.257 68.257 0 0 1-3.042-.617l-.022-.005zm3.127.146c1.029.094 2.055.203 3.08.332l-.289.109a55.476 55.476 0 0 1 1.873-2.156l1.963-2.085-.021.174a48.379 48.379 0 0 0-1.173-2.608c-.407-.859-.853-1.704-1.291-2.551l.157.113a121.54 121.54 0 0 1-3.086-.294c-1.023-.114-2.049-.24-3.074-.363l.34-.129c-.305.368-.606.735-.918 1.102-.311.36-.613.727-.93 1.083a119.84 119.84 0 0 1-1.903 2.135l.046-.354.566 1.311c.191.438.365.883.548 1.324.361.871.708 1.755 1.036 2.646 1.03.043 2.055.117 3.076.211z"/><path class="st4" d="M126.51 166.697c-.148-.713-.387-1.381-.652-2.037-.139-.328-.275-.653-.436-.967a13.014 13.014 0 0 0-.548-.919l-.077-.118-.092-.005c-.259-.005-.521.003-.777-.017a8.168 8.168 0 0 1-.77-.088c-.511-.078-1.015-.212-1.516-.338a16.758 16.758 0 0 0-1.521-.315 19.87 19.87 0 0 0-1.527-.244l-.225-.028-.131.161c-.357.45-.711.902-1.039 1.379-.334.476-.646.962-.93 1.476l.057.047c.463-.359.898-.743 1.314-1.146.416-.396.812-.816 1.197-1.242l-.35.133c.508.081 1.02.131 1.537.176.514.045 1.029.09 1.548.096.521.014 1.04.018 1.554.078.258.025.512.066.765.119.255.049.503.127.757.189l-.17-.123c.107.339.216.678.352 1.006.14.328.301.641.464.953.332.626.696 1.236 1.149 1.807l.067-.033z"/><path class="st4" d="M115.178 172.275l-.008-.016a244.88 244.88 0 0 1-2.352-4.59l-1.152-2.307-1.132-2.314-.091-.187.138-.169a409.673 409.673 0 0 1 3.302-3.961l1.669-1.959 1.686-1.948.142-.159.199.029 5.525.807c1.842.273 3.681.566 5.519.869l.112.017.043.095 1.041 2.358c.35.783.715 1.562 1.07 2.343.707 1.567 1.46 3.115 2.223 4.652l.045.09-.068.083-3.242 4.008a174.528 174.528 0 0 1-3.331 3.933l-.118.137-.172-.023a265.455 265.455 0 0 1-5.521-.838c-.916-.15-1.84-.289-2.755-.449-.917-.164-1.835-.318-2.751-.496l-.021-.005zm2.812.187c.927.088 1.852.202 2.777.298 1.852.199 3.697.422 5.545.66l-.29.112a183.86 183.86 0 0 1 3.366-3.903l3.452-3.83-.024.174a134.814 134.814 0 0 0-2.149-4.686c-.371-.773-.734-1.552-1.114-2.323l-1.145-2.308.156.115a436.09 436.09 0 0 1-5.549-.635l-5.539-.689.336-.129-1.658 1.967-1.678 1.959a402.05 402.05 0 0 1-3.394 3.877l.047-.354 1.053 2.354 1.033 2.362a231.792 231.792 0 0 1 2.012 4.726c.923.07 1.843.17 2.763.253z"/><path class="st4" d="M109.551 166.669c.137.411.297.812.445 1.215.146.405.312.802.475 1.204.326.793.664 1.582 1.014 2.367.352.783.702 1.568 1.094 2.334.391.765.807 1.518 1.211 2.279l.053.1.09.006c.931.062 1.854.174 2.777.301.92.126 1.837.297 2.754.465.915.174 1.832.34 2.75.489.92.153 1.839.288 2.759.433l.196.029.145-.158c.57-.641 1.13-1.291 1.685-1.951.548-.662 1.093-1.324 1.626-1.999l.802-1.007c.268-.337.525-.684.787-1.023a66.147 66.147 0 0 0 1.534-2.077l-.055-.048a57.097 57.097 0 0 0-1.812 1.84c-.297.312-.6.615-.891.938l-.869.951a85.076 85.076 0 0 0-3.384 3.886l.339-.131c-.926-.103-1.848-.221-2.773-.315-.926-.1-1.853-.184-2.783-.257-.929-.083-1.856-.163-2.779-.287a38.279 38.279 0 0 1-2.756-.446l.143.105c-.324-.797-.639-1.599-.977-2.387-.336-.791-.714-1.562-1.09-2.337a97.27 97.27 0 0 0-1.171-2.298c-.206-.377-.405-.76-.62-1.133s-.422-.748-.648-1.116l-.071.028z"/><path class="st4" d="M109.479 166.984s.081-.053.171-.138c.093-.083.208-.216.293-.384a.837.837 0 0 0 .106-.281c.021-.109-.001-.232-.016-.361a.77.77 0 0 1 .033-.365.946.946 0 0 1 .203-.32c.086-.102.178-.202.233-.313.061-.104.118-.212.166-.317.108-.21.101-.328.115-.516.022-.385-.116-.58-.116-.58l-.07-.023s-.229.073-.438.393c-.104.161-.196.303-.235.533-.021.115-.033.211-.051.334-.019.119-.002.241.007.374a.958.958 0 0 1-.028.373.714.714 0 0 1-.192.306c-.087.095-.179.179-.226.275-.05.096-.066.195-.084.287-.03.184-.02.366.002.488.023.122.057.213.057.213l.07.022zM113.654 176.314s.103-.115.193-.201a1.65 1.65 0 0 0 .305-.413c.04-.083.092-.192.109-.298.021-.107.002-.24-.012-.369a.75.75 0 0 1 .033-.368.948.948 0 0 1 .202-.321c.085-.104.18-.203.235-.312a7.13 7.13 0 0 0 .168-.322c.105-.21.154-.487.166-.677.023-.382-.062-.739-.062-.739l-.068-.021s-.283.233-.494.553c-.104.16-.223.381-.26.611a4.986 4.986 0 0 0-.064.373c-.02.119-.009.261-.001.396a1.02 1.02 0 0 1-.03.382.767.767 0 0 1-.195.314c-.086.09-.179.178-.227.277-.051.094-.068.195-.085.287-.029.184-.041.43-.017.549.023.124.035.278.035.278l.069.021zM124.787 163.149s.071-.017.157-.088a1.07 1.07 0 0 0 .271-.311c.037-.071.078-.146.09-.237.017-.091-.01-.202-.029-.313a.593.593 0 0 1 .016-.318.802.802 0 0 1 .191-.277c.078-.086.168-.169.22-.264a4.14 4.14 0 0 0 .151-.274c.1-.18.102-.321.107-.49a1.101 1.101 0 0 0-.123-.554l-.07-.022s-.235.094-.432.367c-.097.138-.188.277-.219.479-.02.098-.029.195-.041.3-.016.107.005.219.018.339a.72.72 0 0 1-.014.328.551.551 0 0 1-.18.266c-.082.078-.169.152-.213.233-.046.081-.059.169-.072.249a.998.998 0 0 0 .03.401.444.444 0 0 0 .073.163l.069.022v.001zM118.255 162.461s.06.02.144-.053a.9.9 0 0 0 .266-.294c.039-.073.077-.138.091-.23.014-.091-.014-.198-.033-.31a.551.551 0 0 1 .019-.316.732.732 0 0 1 .188-.275c.081-.086.168-.167.219-.264.055-.092.107-.182.153-.275.097-.179.11-.352.117-.521.008-.336-.112-.585-.112-.585l-.069-.024s-.245.125-.444.401a1.159 1.159 0 0 0-.224.495 5.22 5.22 0 0 0-.044.309c-.014.105.004.223.018.341a.787.787 0 0 1-.014.333.574.574 0 0 1-.181.263c-.083.081-.169.154-.214.235a.726.726 0 0 0-.073.252c-.022.158.015.261.043.368.026.109.083.128.083.128l.067.022zM131.74 170.424s.107-.14.199-.225c.09-.082.22-.258.309-.423.041-.083.094-.199.111-.307.02-.106.003-.244-.012-.37a.757.757 0 0 1 .032-.371 1.06 1.06 0 0 1 .206-.324c.085-.1.178-.201.233-.311.062-.109.119-.217.169-.321.105-.208.146-.463.159-.655.022-.382-.069-.712-.069-.712l-.07-.024s-.274.207-.484.53a1.595 1.595 0 0 0-.26.601 5.905 5.905 0 0 0-.061.361c-.021.125-.008.264 0 .395a1.03 1.03 0 0 1-.031.383.697.697 0 0 1-.194.312c-.085.093-.177.181-.227.276-.05.097-.067.196-.083.287-.032.187-.051.455-.027.574.021.123.029.301.029.301l.071.023zM125.317 177.215s.045.055.136-.027c.091-.084.188-.162.274-.328.041-.086.08-.152.097-.257.02-.106-.005-.218-.021-.344a.703.703 0 0 1 .03-.361.94.94 0 0 1 .203-.317c.084-.103.176-.198.232-.31a6.11 6.11 0 0 0 .167-.318c.108-.208.137-.433.15-.624.021-.381-.081-.684-.081-.684l-.068-.023s-.266.18-.479.5c-.104.16-.214.355-.251.587a3.78 3.78 0 0 0-.058.356c-.024.121-.008.256.001.392.009.131.005.261-.032.377a.72.72 0 0 1-.193.312c-.088.095-.178.18-.227.277-.049.096-.066.193-.087.288-.026.185.019.257.044.38.021.121.092.104.092.104l.071.02z"/><g><path class="st4" d="M142.447 206.533l-.008-.018a74.826 74.826 0 0 1-1.379-2.51c-.22-.424-.451-.842-.666-1.269l-.645-1.275-.09-.181.139-.173c.592-.747 1.199-1.481 1.809-2.212.301-.371.619-.727.927-1.089.309-.364.622-.72.94-1.08l.143-.157.195.031c1.02.159 2.041.307 3.061.473 1.02.164 2.036.344 3.055.529l.115.023.04.093c.368.881.733 1.762 1.132 2.626a48.79 48.79 0 0 0 1.256 2.569l.045.088-.069.087-1.752 2.262a52.339 52.339 0 0 1-1.839 2.187l-.119.14-.169-.023a112.54 112.54 0 0 1-3.058-.5 64.763 64.763 0 0 1-3.043-.615l-.02-.006zm3.125.143c1.029.098 2.059.204 3.081.335l-.288.111a52.567 52.567 0 0 1 1.873-2.16l1.961-2.083-.022.174a51.64 51.64 0 0 0-1.171-2.609c-.408-.859-.852-1.703-1.291-2.55l.158.113c-1.03-.088-2.061-.185-3.085-.3-1.028-.109-2.051-.238-3.075-.355l.336-.129c-.301.366-.604.734-.915 1.098-.312.361-.612.729-.93 1.082-.626.721-1.26 1.432-1.905 2.135l.048-.353.565 1.312c.189.435.364.881.548 1.321.362.875.708 1.758 1.039 2.648 1.028.046 2.054.116 3.073.21z"/><path class="st4" d="M150.798 204.445c-.148-.711-.386-1.381-.651-2.038a15.262 15.262 0 0 0-.436-.969 11.785 11.785 0 0 0-.549-.912l-.079-.123-.091-.003c-.259-.006-.52.003-.778-.018a8.998 8.998 0 0 1-.769-.087c-.51-.078-1.014-.214-1.517-.343a19.05 19.05 0 0 0-1.52-.312 21.399 21.399 0 0 0-1.528-.246l-.225-.026-.129.163c-.358.449-.713.902-1.041 1.377-.332.475-.646.963-.93 1.478l.059.052c.463-.363.898-.75 1.313-1.151.417-.396.812-.819 1.198-1.243l-.354.133c.511.08 1.025.129 1.54.172.513.051 1.026.096 1.549.103.519.009 1.038.015 1.552.073.257.029.512.066.766.119.252.051.504.127.754.189l-.167-.123c.108.34.216.68.353 1.007.138.327.301.641.463.955.334.626.695 1.236 1.148 1.806l.069-.033z"/><path class="st4" d="M139.467 210.023l-.008-.017a225.344 225.344 0 0 1-2.352-4.589l-1.152-2.309-1.134-2.314-.088-.184.138-.17a340.778 340.778 0 0 1 3.299-3.961l1.672-1.959 1.686-1.949.137-.156.201.028 5.525.807c1.841.274 3.681.565 5.52.864l.111.02.044.098 1.042 2.355c.35.787.713 1.564 1.068 2.346a143.53 143.53 0 0 0 2.223 4.65l.045.09-.067.084-3.242 4.006a165.034 165.034 0 0 1-3.331 3.934l-.117.136-.172-.022a263.329 263.329 0 0 1-5.52-.837c-.92-.151-1.841-.29-2.756-.452-.918-.163-1.837-.317-2.751-.493l-.021-.006zm2.809.186c.931.09 1.853.201 2.778.299 1.852.197 3.699.423 5.545.663l-.288.11a173.653 173.653 0 0 1 3.364-3.904l3.451-3.83-.021.174c-.695-1.57-1.4-3.139-2.149-4.686-.374-.773-.737-1.551-1.116-2.32l-1.143-2.312.156.115a393.695 393.695 0 0 1-5.548-.631l-5.544-.692.34-.128-1.661 1.971-1.677 1.954a319.184 319.184 0 0 1-3.395 3.879l.05-.354 1.051 2.353 1.034 2.363a240.075 240.075 0 0 1 2.014 4.725c.921.068 1.84.167 2.759.251z"/><path class="st4" d="M133.839 204.418c.139.408.296.811.446 1.213.147.406.313.803.473 1.204.324.793.664 1.586 1.014 2.368.352.785.706 1.568 1.097 2.336.391.764.806 1.518 1.208 2.276l.053.099.091.006c.931.064 1.854.176 2.776.303s1.84.298 2.754.463c.916.178 1.834.343 2.751.492.92.152 1.841.285 2.76.432l.195.032.144-.161a82.17 82.17 0 0 0 1.683-1.949 91.544 91.544 0 0 0 1.627-2l.805-1.008c.267-.336.522-.682.784-1.026a63.433 63.433 0 0 0 1.537-2.073l-.058-.051a60.547 60.547 0 0 0-1.813 1.842c-.295.312-.597.616-.885.938l-.871.947a88.203 88.203 0 0 0-3.383 3.889l.338-.129c-.926-.104-1.85-.221-2.776-.317a99.443 99.443 0 0 0-2.782-.257c-.927-.084-1.854-.161-2.777-.285a37.97 37.97 0 0 1-2.758-.448l.143.108c-.323-.797-.636-1.6-.974-2.391-.339-.791-.716-1.561-1.094-2.334a83.973 83.973 0 0 0-1.168-2.298c-.205-.377-.405-.759-.621-1.134-.214-.371-.419-.75-.647-1.117l-.072.03z"/><path class="st4" d="M133.734 204.826s.098-.1.188-.183c.091-.085.214-.241.302-.408.039-.083.092-.188.107-.296.021-.105.001-.238-.014-.364a.762.762 0 0 1 .035-.371c.039-.111.113-.218.201-.321.087-.101.182-.201.236-.311a6.2 6.2 0 0 0 .168-.322c.105-.205.16-.503.172-.689.021-.384-.058-.757-.058-.757l-.069-.023s-.287.251-.499.572a1.72 1.72 0 0 0-.265.62 6.698 6.698 0 0 0-.063.372c-.021.122-.009.267-.002.399a.963.963 0 0 1-.03.383.753.753 0 0 1-.193.315c-.09.092-.18.183-.229.274a.948.948 0 0 0-.085.291 1.86 1.86 0 0 0-.014.536c.024.12.04.259.04.259l.072.024zM138.06 213.713s.044.058.134-.025c.092-.086.187-.162.275-.326.041-.084.08-.148.096-.256.019-.104-.006-.219-.021-.344a.76.76 0 0 1 .03-.361.971.971 0 0 1 .202-.314c.086-.105.18-.201.234-.31.06-.108.117-.216.166-.321.107-.207.139-.438.152-.627a2.11 2.11 0 0 0-.077-.692l-.072-.024s-.267.188-.479.509a1.65 1.65 0 0 0-.253.589 9.566 9.566 0 0 0-.059.358c-.02.122-.008.259.003.392a.942.942 0 0 1-.032.377.717.717 0 0 1-.191.312c-.089.095-.182.183-.229.276a.998.998 0 0 0-.084.287c-.03.185.019.253.04.377.024.121.093.102.093.102l.072.021zM149.046 200.99s.083-.061.171-.132c.086-.069.197-.192.278-.333a.776.776 0 0 0 .093-.253c.016-.09-.008-.206-.026-.317a.58.58 0 0 1 .019-.324.76.76 0 0 1 .188-.275c.082-.088.17-.172.22-.266a3.04 3.04 0 0 0 .153-.277c.1-.178.086-.271.093-.441.008-.336-.14-.506-.14-.506l-.07-.023s-.219.047-.417.319c-.097.138-.18.255-.209.456-.019.1-.024.181-.036.287-.018.107.006.217.019.33a.77.77 0 0 1-.013.328.553.553 0 0 1-.18.264c-.081.082-.168.152-.213.232a.795.795 0 0 0-.072.252c-.021.161-.012.339.016.448s.059.208.059.208l.067.023zM142.513 200.305s.071-.03.159-.102c.088-.068.193-.173.272-.315a.755.755 0 0 0 .095-.245c.014-.092-.012-.201-.03-.312a.6.6 0 0 1 .017-.322.758.758 0 0 1 .191-.274c.077-.085.166-.171.217-.266.057-.095.107-.185.155-.274.098-.18.094-.309.101-.474.008-.337-.127-.538-.127-.538l-.071-.023s-.229.076-.427.352c-.097.137-.187.27-.217.469-.018.102-.026.191-.039.3-.016.104.006.218.02.331a.733.733 0 0 1-.016.332.57.57 0 0 1-.178.266c-.082.076-.169.148-.215.229-.044.083-.058.169-.072.253-.021.162 0 .309.027.414a.681.681 0 0 0 .067.178l.071.021zM156.145 207.818s.049.035.141-.045c.091-.086.192-.172.277-.338.043-.084.082-.154.098-.262.02-.104-.006-.221-.019-.348a.732.732 0 0 1 .03-.361c.04-.114.113-.217.2-.318.087-.098.181-.197.237-.309.059-.109.115-.212.166-.318.105-.206.131-.416.143-.607.023-.381-.085-.666-.085-.666l-.071-.023s-.256.164-.469.482a1.535 1.535 0 0 0-.252.579c-.021.112-.039.23-.057.351-.02.123-.004.258.004.391.011.133.006.261-.029.377a.761.761 0 0 1-.193.311c-.088.09-.179.18-.229.276-.048.093-.065.19-.082.287-.031.183.011.274.031.396.025.12.087.12.087.12l.072.025zM149.572 215.061s.061.006.152-.077.196-.187.283-.352c.042-.085.085-.163.102-.268.017-.107-.006-.226-.02-.354a.723.723 0 0 1 .03-.359c.043-.115.114-.221.204-.32.084-.102.177-.201.233-.308.06-.111.116-.214.167-.321.107-.211.12-.387.134-.574.022-.387-.097-.637-.097-.637l-.07-.025s-.246.131-.459.451a1.446 1.446 0 0 0-.246.564 6.14 6.14 0 0 0-.053.345c-.021.12-.005.249.004.384.01.133.006.26-.029.376a.734.734 0 0 1-.193.308c-.087.094-.18.182-.227.277-.051.094-.066.194-.086.289-.028.184.002.304.025.426.021.12.074.152.074.152l.072.023z"/></g><g><path class="st4" d="M168.201 162.562l-.009-.014a69.083 69.083 0 0 1-1.217-2.218c-.401-.741-.781-1.495-1.161-2.248l-.08-.157.121-.153a104.94 104.94 0 0 1 1.601-1.959c.266-.323.549-.642.819-.96.271-.322.551-.639.83-.952l.124-.144.177.027c.9.143 1.804.273 2.705.421.9.143 1.8.302 2.697.47l.104.019.035.081.49 1.166c.165.389.345.77.516 1.153a39.03 39.03 0 0 0 1.104 2.274l.04.077-.059.077-1.549 1.997c-.525.66-1.07 1.304-1.627 1.935l-.105.121-.15-.023a62.251 62.251 0 0 1-2.701-.443c-.449-.084-.898-.156-1.346-.252s-.896-.18-1.342-.291l-.017-.004zm1.399.018c.454.031.906.081 1.364.117.907.077 1.815.176 2.72.291l-.254.095a49.981 49.981 0 0 1 1.657-1.905l1.731-1.841-.019.151a38.679 38.679 0 0 0-1.039-2.301c-.187-.38-.364-.762-.556-1.137l-.582-1.121.139.102c-.909-.078-1.818-.163-2.726-.264-.907-.097-1.813-.213-2.718-.317l.297-.111c-.268.321-.533.647-.81.966-.272.32-.542.646-.821.959a91.37 91.37 0 0 1-1.684 1.887l.043-.312c.333.772.671 1.543.983 2.326.319.772.627 1.556.919 2.341.454.012.904.048 1.356.074z"/><path class="st4" d="M175.58 160.719c-.131-.627-.342-1.221-.576-1.8-.121-.287-.242-.575-.385-.855-.145-.28-.314-.544-.484-.809l-.072-.108-.077-.001a8.218 8.218 0 0 1-1.369-.093c-.45-.07-.894-.189-1.339-.301a16.346 16.346 0 0 0-1.344-.278 19.408 19.408 0 0 0-1.352-.219l-.197-.02-.115.142c-.636.791-1.238 1.611-1.739 2.521l.05.043c.82-.637 1.537-1.361 2.221-2.111l-.313.118c.45.07.905.113 1.361.15.455.045.91.086 1.37.09.459.008.918.014 1.372.067.452.048.899.149 1.343.271l-.148-.105c.095.301.192.598.311.889.122.287.268.567.41.844a10.69 10.69 0 0 0 1.016 1.596l.056-.031z"/><path class="st4" d="M165.565 165.646l-.008-.013a218.205 218.205 0 0 1-2.079-4.058c-.687-1.354-1.353-2.719-2.018-4.08l-.081-.166.122-.149a337.686 337.686 0 0 1 2.916-3.5l1.479-1.733 1.49-1.724.121-.138.178.026 4.884.712c1.626.242 3.251.501 4.874.768l.102.014.039.084.92 2.086.945 2.073c.626 1.384 1.29 2.747 1.966 4.11l.04.078-.061.073-2.865 3.54a129.776 129.776 0 0 1-2.947 3.475l-.105.12-.147-.021c-1.627-.242-3.257-.463-4.881-.735-.811-.135-1.624-.257-2.435-.398-.812-.144-1.624-.281-2.431-.438l-.018-.006zm2.485.168c.819.078 1.636.178 2.454.263 1.637.167 3.267.39 4.9.592l-.252.095a133.65 133.65 0 0 1 2.971-3.452l3.052-3.386-.022.152a117.805 117.805 0 0 0-1.898-4.139l-.985-2.053-1.01-2.043.138.104a404.075 404.075 0 0 1-4.904-.56l-4.896-.613.299-.113-1.47 1.74-1.481 1.729a295.13 295.13 0 0 1-2.998 3.428l.042-.309c.621 1.384 1.243 2.768 1.842 4.166a188.849 188.849 0 0 1 1.78 4.175c.81.062 1.625.146 2.438.224z"/><path class="st4" d="M160.592 160.695c.253.719.527 1.43.812 2.135.289.703.589 1.4.897 2.094.311.692.619 1.386.968 2.062.345.675.711 1.342 1.066 2.017l.048.087.08.005c.822.056 1.638.154 2.452.269.816.111 1.624.264 2.435.404a81.56 81.56 0 0 0 2.432.438c.812.137 1.627.254 2.439.384l.172.025.126-.144a66.923 66.923 0 0 0 1.487-1.723 75.5 75.5 0 0 0 1.44-1.767c.474-.593.948-1.187 1.405-1.796.463-.602.917-1.213 1.356-1.834l-.052-.045a57.246 57.246 0 0 0-1.602 1.629 70.124 70.124 0 0 0-1.553 1.669 78.341 78.341 0 0 0-2.99 3.43l.299-.113c-.819-.092-1.636-.193-2.455-.278a87.497 87.497 0 0 0-2.456-.228c-.819-.074-1.643-.145-2.456-.254a35.494 35.494 0 0 1-2.436-.393l.123.094c-.285-.706-.563-1.414-.861-2.113-.297-.697-.631-1.38-.964-2.062a76.06 76.06 0 0 0-1.034-2.032 52.734 52.734 0 0 0-1.119-1.988l-.059.028z"/><path class="st4" d="M160.477 161.129s.097-.125.179-.199c.081-.076.19-.232.272-.378.035-.073.086-.175.1-.271a1.26 1.26 0 0 0-.01-.327c-.037-.226.044-.435.207-.608.077-.088.16-.183.208-.277.053-.096.104-.192.147-.285.096-.186.135-.422.146-.589.02-.341-.061-.641-.061-.641l-.062-.021s-.243.194-.431.478c-.093.142-.196.33-.23.534-.022.104-.04.216-.056.327-.019.109-.007.23.002.348.023.238-.035.45-.199.613-.079.081-.158.16-.201.244a.899.899 0 0 0-.076.255c-.023.165-.043.401-.021.511.02.104.022.266.022.266l.064.02zM164.336 168.861s.031.077.111.002c.084-.072.162-.129.24-.274.037-.075.069-.126.082-.221.018-.092-.006-.19-.018-.302-.034-.229.041-.422.205-.598.074-.091.158-.174.206-.273.052-.096.104-.188.145-.28a1.41 1.41 0 0 0 .139-.563c.021-.336-.069-.617-.069-.617l-.061-.02s-.237.172-.425.455c-.091.139-.19.318-.226.522a4.42 4.42 0 0 0-.053.319c-.018.105-.006.23.001.35.024.235-.036.447-.198.606-.076.083-.158.161-.201.245-.044.085-.059.172-.074.253-.023.165.023.202.046.312.019.105.089.064.089.064l.061.02zM174.021 157.695l.157-.131a1.21 1.21 0 0 0 .249-.303c.032-.064.073-.143.085-.225.014-.079-.007-.184-.023-.285-.044-.201.029-.383.184-.529.072-.075.148-.152.193-.236.05-.078.097-.164.135-.244.088-.158.131-.408.137-.557.009-.299-.065-.613-.065-.613l-.063-.021s-.248.206-.423.448a1.258 1.258 0 0 0-.216.486 4.16 4.16 0 0 0-.045.298c-.016.092 0 .21.012.311.031.213-.021.398-.176.536-.075.071-.15.138-.191.21-.039.072-.051.15-.063.223-.017.145-.015.317.011.413l.043.199.059.02zM168.196 157.242s.096-.116.173-.18c.078-.06.182-.201.257-.323.032-.066.077-.157.089-.237.015-.084-.006-.193-.023-.292-.041-.202.031-.384.186-.532.072-.074.151-.151.195-.237.05-.079.097-.163.135-.244.088-.159.115-.362.122-.511.008-.295-.085-.565-.085-.565l-.062-.019s-.233.158-.407.398c-.085.121-.18.282-.206.463a3.655 3.655 0 0 0-.043.285c-.015.092.003.203.015.307.032.209-.02.394-.174.531-.074.068-.152.133-.191.207a.665.665 0 0 0-.062.221c-.018.146-.033.367-.008.463.021.095.029.249.029.249l.061.02-.001-.004zM180.229 163.824s.174-.171.351-.458a4.8 4.8 0 0 0 .271-.499c.087-.188.171-.389.239-.598a5.15 5.15 0 0 0 .248-1.182c.028-.334-.007-.574-.007-.574s-.173.172-.349.456a5.197 5.197 0 0 0-.677 1.717 3.62 3.62 0 0 0-.081.562c-.031.336.005.576.005.576zM174.45 170.242s.075-.064.157-.138c.082-.075.184-.202.265-.35.036-.073.077-.159.093-.253s0-.207-.014-.319a.714.714 0 0 1 .207-.608c.077-.088.159-.18.209-.272.055-.099.104-.192.148-.284.094-.186.15-.48.163-.646.02-.338-.039-.702-.039-.702l-.062-.021s-.265.255-.454.538c-.09.141-.203.359-.238.563a4.935 4.935 0 0 0-.059.341c-.02.107-.012.24-.002.359.025.237-.036.453-.199.613-.079.082-.161.165-.203.248a.752.752 0 0 0-.074.256 1.547 1.547 0 0 0-.004.45c.02.106.044.206.044.206l.062.019z"/></g><path class="st5" d="M186.471 172.566c1.963 4.887 4.191 11.39 7.975 15.084M178.142 178.834c.646 2.268 2.253 4.143 2.886 6.609M149.527 224.094c-.674 2.253 4.149 11.729 5.262 14.746M137.816 221.91c.701 2.441 1.562 5.159 2.545 7.628M124.697 186.499a23.67 23.67 0 0 1 1.868 7.966M114.01 186.358c3.488 5.683 5.524 13.344 5.771 20.001"/></g></svg>