<svg id="Capa_1" xmlns="http://www.w3.org/2000/svg" width="80.634" height="71.11" viewBox="0 0 80.634 71.11"><style>.st0{fill:#ff5f5c}.st1{fill:#3f352e}.st2{fill:#fff;stroke:#3f352e;stroke-width:2;stroke-miterlimit:10}</style><path class="st0" d="M36.662 6.205c8.064 0 12.724-1.082 18.813 6.279 4.248 5.135 6.513 11.088 7.056 17.637 1.988 24.062-22.248 37.242-41.219 22.703-10.633-8.145-16.161-23.859-6.826-35.02C20.642 10.443 27.279 5.496 37.86 6.195"/><path class="st1" d="M38.303 59.554c-5.967 0-12.073-2.096-17.408-6.184-6.505-4.984-10.883-12.435-11.712-19.931-.663-5.988.989-11.547 4.777-16.076 5.527-6.607 12.256-12.615 23.923-11.854.513-.006 1.012-.014 1.498-.021 6.415-.111 11.043-.186 16.622 6.559 4.217 5.096 6.644 11.16 7.212 18.018.955 11.584-3.957 21.492-13.144 26.508a24.474 24.474 0 0 1-11.768 2.981zM35.934 6.818c-9.935 0-15.93 5.459-20.922 11.428-3.541 4.232-5.086 9.434-4.466 15.043.789 7.131 4.971 14.23 11.183 18.99 8.686 6.658 19.034 7.809 27.687 3.088 8.695-4.746 13.341-14.164 12.431-25.189-.545-6.576-2.865-12.381-6.899-17.256-5.158-6.234-9.073-6.174-15.542-6.061-.872.014-1.783.029-2.743.029v-.062c-.245-.008-.489-.01-.729-.01z"/><path class="st2" d="M37.874 36.429l.763 6.59c0 .668-.273 1.213-.823 1.625a2.946 2.946 0 0 1-1.829.625c-.67 0-1.285-.195-1.849-.584-.562-.389-.842-.891-.842-1.506l-.523-7.996v-.603l-4.581.361c-2.33 0-3.495-.871-3.495-2.611 0-.562.166-1.057.502-1.488.335-.426.782-.641 1.347-.641l4.86.281c.698 0 1.328-.053 1.891-.162l-.482-6.027c0-3.025.883-4.539 2.65-4.539.617 0 1.12.227 1.507.682.389.455.583 1.02.583 1.689v1.002c0 4.902.362 7.355 1.085 7.355l4.783-.322c2.838 0 4.258.83 4.258 2.49 0 .643-.229 1.18-.684 1.607a2.308 2.308 0 0 1-1.646.645l-4.861-.443c-1.743-.001-2.614.658-2.614 1.97z"/></svg>