<svg id="Capa_1" xmlns="http://www.w3.org/2000/svg" width="88.621" height="82.122" viewBox="0 0 88.621 82.122"><style>.st0{fill:#fff;stroke:#3f352e;stroke-miterlimit:10}.st1{fill:#ff5f5c}.st2{fill:#fff}.st3{fill:#3f352e}</style><path class="st1" d="M46.064 9.893c9.402 0 14.833-1.26 21.935 7.322 4.952 5.984 7.593 12.93 8.224 20.562 2.32 28.055-25.936 43.42-48.055 26.469-12.397-9.498-18.842-27.818-7.958-40.828 7.177-8.58 14.915-14.352 27.251-13.535"/><path class="st3" d="M47.978 72.09c-6.956 0-14.074-2.441-20.296-7.207-7.583-5.811-12.688-14.496-13.654-23.238-.773-6.98 1.153-13.463 5.569-18.744C26.041 15.2 33.888 8.198 47.489 9.083c.597-.006 1.18-.016 1.746-.025 7.479-.129 12.877-.215 19.381 7.646 4.915 5.941 7.743 13.012 8.406 21.008 1.115 13.506-4.611 25.057-15.322 30.902-4.268 2.329-8.958 3.476-13.722 3.476zm-2.761-61.483c-11.584 0-18.573 6.365-24.393 13.322-4.129 4.938-5.93 11-5.206 17.539.919 8.314 5.793 16.592 13.037 22.141 10.125 7.764 22.192 9.107 32.278 3.602 10.138-5.535 15.555-16.514 14.492-29.367-.635-7.668-3.341-14.436-8.043-20.117-6.015-7.271-10.579-7.201-18.121-7.068-1.016.018-2.079.033-3.197.033v-.072a26.856 26.856 0 0 0-.847-.013z"/><ellipse class="st0" cx="45.128" cy="39.834" rx="23.499" ry="14.856"/><circle class="st3" cx="45.129" cy="41.996" r="10.533"/><circle class="st2" cx="42.427" cy="44.156" r="5.132"/></svg>