<svg id="Capa_1" xmlns="http://www.w3.org/2000/svg" width="295.98" height="238.488" viewBox="0 0 295.98 238.488"><style>.st0{opacity:.2}.st1{fill:none}.st2{fill:#666}.st3{fill:#ccc}.st4{fill:#333}.st5{fill:#353535}.st6{fill:#00a2c2}.st7{fill:#0595a8}.st8{fill:#3d3d3d}.st9{fill:#ddd}</style><path class="st6" d="M22.476 98.405c3.481 2.353 1.874 15.171 2.347 19.792.704 6.877.98 13.877 2.014 20.802.923 6.189 1.024 12.782 1.678 19.125.639 6.198 2.455 12.08 3.623 18.116 1.004 5.19 1.835 13.311.04 18.35.371-.969.716-1.879 1.031-2.817-.342.726-.611 1.743-.971 2.515 5.83-1.402 13.052-1.299 19.087-1.869 6.019-.568 11.722-1.926 17.765-2.759 14.536-2.009 28.18-9.663 42.962-10.397 5.371-.27 13.836 1.944 18.401-.734-1.73-6.717-2.552-14.245-2.634-21.418-.036-3.168-.256-6.484-.007-9.64.258-3.272 1.774-7.544 1.013-10.817-.847-3.65-5.827-4.229-8.648-6.46-2.624-2.077-3.077-4.645-6.104-6.534-5.771-3.6-11.663-6.9-17.476-10.467-6.447-3.957-12.188-8.586-18.748-12.363-5.689-3.273-10.957-10.256-17.455-6.867-5.007 2.609-8.241 4.449-14.435 4.444-2.976-.005-6.433.483-9.319-.077-3.059-.588-4.216-1.622-7.458-1.248-1.489.172-6.213.58-5.701.988M71.794 30.637c1.785 4.298-6.219 15.269-8.071 19.458-2.266 5.124-4.808 10.081-6.54 15.434-1.102 3.404-5.657 9.808-6.022 12.931-.563 4.819 13.099 7.691 18.468 10.738 29.45 16.704 55.162 38.855 82.536 58.713 16.292 11.82 32.647 22.543 49.176 33.733 10.63 7.192 17.795 5.663 28.769-.037 4.996-2.597 9.73-6.003 14.814-8.571 6.683-3.375 7.969-3.438 10.012-10.217 3.04-10.084 6.656-18.779 11.612-28.143 1.895-3.58 3.279-7.414 6.325-10.07-4.395-5.721-9.055-6.715-6.629-15.023.265-.227.287-.206.065.05-10.04 2.552-15.421-6.728-21.925-11.257-5.996-4.177-14.23-4.885-20.845-9.531 1.574-1.632 2.007-3.756 2.478-5.766-4.576.745-9.784.658-14.121-1.564-4.424-2.264-7.21-8.723-10.77-10.484-2.168-1.072-3.746 1.257-5.201.569-2.248-1.063-3.512-2.871-5.367-4.729-4.306-4.308-3.888 2.636-5.467-3.252-7.68.97-10.378-8.858-16.729-14.042-3.307-2.697-6.968-8.817-10.835-3.576-3.286-2.326-11.248-6.272-14.02-9.322.931-.836 1.221-4.433 2.026-5.219-9.434-3.525-19.368-1.5-24.776-12.686-.116 1.31-1.183 2.429-1.461 3.74-8.534-2.986-13.027-8.541-21.336-2.648-2.155 1.529-1.161 2.614-4.025 4.061-1.061.536-4.705.917-6.041 1.193-3.68.762-11.136.83-12.747 3.504"/><path class="st4" d="M219.431 179.985l1.214-.487c.76-.33 1.902-.711 3.162-1.334 1.275-.592 2.771-1.276 4.359-2.085 1.587-.806 3.28-1.662 4.973-2.521l4.969-2.552c1.596-.799 3.053-1.612 4.356-2.187 2.595-1.189 4.44-1.752 4.44-1.752s-1.537 1.171-4.019 2.583c-1.235.728-2.718 1.466-4.284 2.317-1.572.834-3.249 1.729-4.928 2.624-1.689.905-3.381 1.735-4.986 2.534a72.935 72.935 0 0 1-4.45 2.076c-1.314.613-2.441.957-3.216 1.271-.777.29-1.223.46-1.223.46l-.367-.947zM36.534 188.968l.719-.306a17.96 17.96 0 0 1 2.205-.651c1.897-.469 4.644-.772 7.902-.971 1.645-.116 3.348-.232 5.208-.526l5.831-.807c4.043-.537 8.36-1.115 12.672-1.689 17.259-2.31 34.555-4.34 34.555-4.34s-17.198 2.75-34.435 5.221c-4.308.627-8.615 1.258-12.655 1.845-2.016.297-3.969.583-5.821.853-1.83.308-3.661.448-5.271.574-3.252.252-5.933.505-7.752.896-.919.184-1.596.404-2.048.552-.472.189-.727.288-.727.288l-.383-.939zM105.454 135.376c1.507-.323 3.021-.559 4.535-.841l4.549-.699c3.034-.458 6.078-.816 9.125-1.163l.71-.084.038.714c.321 5.984.64 11.966.854 17.955.233 5.988.44 11.979.503 17.976-.613-5.968-1.082-11.94-1.53-17.918-.462-5.973-.819-11.955-1.175-17.935l.748.631c-3.047.332-6.097.646-9.159.869l-4.591.317c-1.536.057-3.066.161-4.607.178zM59.406 110.996s-.081.236-.241.635c-.077.197-.258.408-.43.674-.175.275-.443.489-.716.766a8.723 8.723 0 0 1-2.208 1.352c-.857.408-1.832.66-2.804.899-.984.173-1.973.327-2.911.334-.934.04-1.811-.042-2.55-.148a9.186 9.186 0 0 1-1.748-.482c-.397-.188-.61-.307-.61-.307s.25.037.663.118c.42.061 1.022.081 1.738.09.722-.029 1.554-.059 2.447-.164.446-.037.9-.121 1.367-.185.467-.051.929-.172 1.398-.253.458-.113.93-.192 1.375-.334.448-.128.894-.242 1.306-.398a12.468 12.468 0 0 0 2.194-.99c.271-.209.587-.359.779-.55.201-.196.417-.339.54-.517.255-.347.411-.54.411-.54zM55.344 90.682s-.081.232-.245.633c-.073.199-.256.408-.428.676-.176.275-.442.488-.716.764a8.754 8.754 0 0 1-2.208 1.354c-.858.41-1.833.658-2.804.898-.984.177-1.974.328-2.911.334a13.946 13.946 0 0 1-2.552-.148 9.18 9.18 0 0 1-1.746-.48c-.4-.188-.611-.307-.611-.307s.25.035.663.115c.419.064 1.022.082 1.739.09.721-.029 1.552-.057 2.445-.164.447-.034.902-.118 1.365-.183.468-.052.93-.171 1.399-.255.459-.111.931-.19 1.375-.332.45-.128.894-.242 1.307-.4.843-.279 1.58-.641 2.193-.99.271-.207.586-.357.781-.551.199-.195.417-.336.539-.518.259-.343.415-.536.415-.536z"/><path class="st4" d="M121.028 137.392s-.032 1.496.006 3.718c.037 2.209.153 5.203.172 8.19-.046 1.496-.006 2.993-.153 4.39-.061.7-.094 1.379-.168 2.014l-.291 1.79c-.084.557-.162 1.062-.31 1.494a359.677 359.677 0 0 1-.609 2.116l.228-1c.069-.312.159-.698.259-1.141.124-.438.169-.945.223-1.5.057-.552.123-1.152.189-1.785.036-.637.032-1.311.052-2.004.065-1.387-.059-2.875-.096-4.355-.187-2.967-.471-5.92-.639-8.174-.165-2.242-.216-3.726-.216-3.726l1.353-.027z"/><path class="st7" d="M21.259 96.551c.102 7.096.931 14.438 9.116 19.641 9.315 5.916 22.361 11.768 33.227 12.861 19.961 2 38.003 5.05 57.604.002-17.407-7.629-29.626-22.598-44.627-33.63-5.883-4.327-11.354-4.896-17.14-4.375-5.45-3.754-11.985-4.251-16.962-3.754-2.034.202-8.804 2.032-11.516 7.427-7.479 1.465-13.881 4.12-8.799 9.053"/><path class="st0 st3" d="M90.275 131.17l-54.118-24.688 31.015-15.217s55.566 38.475 54.035 37.788c-1.531-.688-30.932 2.117-30.932 2.117z"/><path class="st7" d="M63.47 127.248c2.496-4.379 8.03-6.743 8.042-12.729-2.773-2.182-5.861-3.803-9.396-3.523M60.083 103.547c6.817 1.32 7.213-12.652.103-10.73-.434 3.84 2.12 6.044-.103 9.377"/><path class="st0 st9" d="M121.026 127.668l-30.828 3.502 38.853 19.098v-16.944zM129.051 133.324v16.944l80.828 39.703z"/><path class="st7" d="M276.326 121.83l-10.723-7.786 4.402-7.789-11.85-10.833-14.222-4.402-5.031 6.807-14.863-9.531 1.948-6.416s-1.539-6.264-10.156-12.189c-5.418-3.725-14.898-2.709-14.898-2.709l-3.656 4.15-14.129-9.061 2.889-5.699s-3.59-8.26-10.159-11.736c-5.756-3.047-13.767-3.161-13.767-3.161l-4.057 4.499-14.01-8.985 3.619-4.993s-4.918-6.42-10.724-11.062c-5.079-4.063-13.655-3.386-13.655-3.386l-4.499 5.207-22.588 2.02s29.344 27.085 36.565 27.536c7.227.449 44.696 22.119 47.855 24.828 3.16 2.71 46.499 31.15 53.271 33.859 6.771 2.709 27.988 18.51 31.6 17.153 3.614-1.354 10.838-6.321 10.838-6.321z"/><path class="st7" d="M115.16 46.441c2.362-.712 7.705-.881 8.928-3.727 1.454-3.386-2.392-4.783-5.236-4.774-.676 2.512-1.577 4.896-2.789 7.146M155.79 72.172c2.342-.164 9.177-2.858 6.681-6.681-2.656-4.062-4.828 2.838-5.776 3.974M198.678 98.809c2.309-1.365 8.203-1.301 9.59-4.043 1.889-3.732-3.847-4.615-6.812-4.467-.097 2.5-1.721 4.879-2.778 6.704M241.566 127.701c3.373.645 11.05-2.723 8.688-7.787-3.402-7.292-6.066 2.924-8.236 4.175M261.429 120.93c7.668 4.895 2.76-10.359.903-1.807M218.994 94.744c1.512.99 8.58 1.127 6.68-3.512-2.051-5.009-4.958.395-6.229 2.158M182.427 62.693c2.198 1.17 3.801 4.455 4.005 6.691-2.526.139-5.137.238-7.549-.439-.11-1.846 1.17-3.639 2.19-4.898"/><path class="st3" d="M141.795 44.182c1.25-.403 3.333.072 4.964.949 3.644-2.572-2.176-8.762-4.964-3.205"/><path class="st1" d="M228.021 139.438L121.028 63.594"/><path class="st2" d="M227.631 139.99L121.028 63.594l107.385 75.291z"/><path class="st7" d="M252.399 135.376c3.277 8.456 2.837 17.648 1.437 26.287 5.844-.539 7.585-13.101 10.584-17.505 3.906-5.74 9.402-11.422 8.868-18.853-7.151 1.63-15.114 6.234-22.244 8.716"/><path class="st8" d="M239.894 139.332c-1.085.797-1.78 1.805-2.387 2.859l-1.736 3.213-3.474 6.427-6.932 12.862-6.824 12.919c-2.234 4.328-4.501 8.643-6.689 12.997l-.674 1.345-1.281-.877L48.055 80.515l-.971-.665.52-1.055L72.44 28.318l.881-1.793 1.088 1.264c1.398 1.623 3.122 2.764 4.851 3.893l5.163 3.418 10.33 6.842 20.656 13.681 41.314 27.36 41.317 27.36 42.927 28.201-1.073.788zm-2.613.028l-40.437-27.225-41.207-27.52-41.207-27.519-20.606-13.76-10.3-6.881-5.15-3.439c-1.71-1.158-3.427-2.307-5.466-2.967l1.97-.531-24.841 50.474-.453-1.719L211.427 188.84l-1.956.468c2.486-4.189 4.895-8.423 7.334-12.643l7.196-12.72 7.086-12.775 3.538-6.393 1.766-3.196c.367-.704.683-1.432.89-2.221z"/><path class="st8" d="M211.103 190.859l-.882-1.8 40.576-19.89 24.139-43.752-35.866 14.197-.737-1.863 41.052-16.25-27.139 49.189z"/><path transform="rotate(32.328 270.973 119.554)" class="st8" d="M263.674 118.548h14.62v2.004h-14.62z"/><path transform="rotate(32.312 230.617 94.013)" class="st8" d="M221.792 93.004h17.619v2.004h-17.619z"/><path transform="rotate(32.317 189.614 68.07)" class="st8" d="M180.847 67.08h17.562v2.004h-17.562z"/><path transform="rotate(32.317 150.708 43.456)" class="st8" d="M143.073 42.463h15.294v2.004h-15.294z"/><path transform="rotate(84.1 83.085 27.939)" class="st8" d="M82.084 18.462h2.004V37.42h-2.004z"/><path class="st8" d="M130.295 134.6l2.401 44.068.067 1.215-1.2.196-99.348 16.425-1.464.243-.108-1.464a2590.749 2590.749 0 0 0-2.219-27.857l-1.153-13.927-.576-6.962c-.213-2.318-.287-4.649-.86-6.938l-.331-1.317 1.523-.147 11.948-1.147 11.94-1.208 23.866-2.547 23.844-2.716c3.974-.464 7.954-.874 11.918-1.406 3.961-.56 7.913-1.213 11.822-2.192l.318 2.694c-4.033-.042-8.029.236-12.011.612-3.98.402-7.944.928-11.917 1.4l-23.826 2.891-23.806 3.059-11.894 1.601-11.887 1.657 1.195-1.467c-.173 2.352.154 4.66.342 6.984l.624 6.957 1.25 13.918c.816 9.277 1.673 18.555 2.591 27.826l-1.573-1.223 99.346-16.426-1.132 1.414-2.402-44.067 2.712-.149z"/><path transform="rotate(83.114 64.722 92.71)" class="st8" d="M63.721 88.553h2.004v8.314h-2.004z"/><path class="st8" d="M25.84 139.64l-.954-10.445-1.057-10.432-1.149-10.421-.576-5.212c-.192-1.737-.325-3.481-1.072-5.155l-.575-1.288 1.76-.214 8.479-1.025.326 2.695-8.48 1.024 1.184-1.501c-.344 1.797-.077 3.523.132 5.263l.625 5.202 1.257 10.413 1.345 10.397 1.45 10.387-2.695.312z"/><path transform="rotate(86.193 64.67 118.47)" class="st8" d="M58.192 117.595h12.957v1.742H58.192z"/><path transform="rotate(85.699 34.55 120.353)" class="st8" d="M28.202 119.479h12.702v1.742H28.202z"/><path class="st8" d="M47.369 118.97c-8.035 0-13.79-2.458-13.995-5.977-.117-2.001 1.551-3.901 4.698-5.35 2.851-1.312 6.671-2.167 10.758-2.405a39.3 39.3 0 0 1 2.254-.066c8.037 0 13.793 2.458 13.997 5.978.257 4.436-7.771 7.306-15.455 7.753a38.5 38.5 0 0 1-2.257.067zm3.715-11.755c-.698 0-1.412.021-2.136.062-3.838.225-7.397 1.013-10.022 2.222-2.262 1.042-3.576 2.303-3.513 3.375.114 1.949 4.717 4.053 11.956 4.053.699 0 1.414-.021 2.139-.062 7.905-.461 13.666-3.334 13.535-5.596-.114-1.95-4.718-4.054-11.959-4.054zM48.227 132.158c-6.996 0-13.831-1.952-14.066-5.972l2.039-.119c.133 2.263 6.191 4.452 14.092 3.988 3.838-.224 7.397-1.013 10.023-2.222 2.262-1.042 3.575-2.303 3.513-3.374l2.039-.119c.117 2-1.551 3.899-4.697 5.348-2.852 1.313-6.672 2.168-10.758 2.406a36.99 36.99 0 0 1-2.185.064z"/><path transform="rotate(85.71 85.029 114.34)" class="st8" d="M78.679 113.471h12.7v1.742h-12.7z"/><path class="st8" d="M97.479 112.955c-6.607-.068-13.379-1.942-13.614-5.976-.062-1.065.394-2.136 1.32-3.098l1.472 1.417c-.528.548-.781 1.074-.752 1.562.11 1.892 4.575 3.979 11.597 4.052l-.023 2.043zM98.617 126.153c-3.244 0-6.271-.416-8.696-1.207-3.293-1.074-5.171-2.768-5.286-4.771l2.04-.117c.061 1.073 1.511 2.174 3.879 2.946 2.747.895 6.372 1.264 10.213 1.042 4.072-.234 7.916-1.136 10.545-2.474l.927 1.82c-2.872 1.461-7.01 2.443-11.354 2.692-.763.047-1.522.069-2.268.069z"/><path transform="rotate(86.181 61.064 99.24)" class="st8" d="M54.587 98.368h12.956v1.742H54.587z"/><path transform="rotate(85.699 30.946 101.12)" class="st8" d="M24.599 100.25h12.695v1.742H24.599z"/><path class="st8" d="M43.755 99.741c-8.031 0-13.783-2.458-13.987-5.979-.257-4.437 7.772-7.308 15.457-7.755.766-.044 1.52-.066 2.258-.066 8.037 0 13.793 2.459 13.997 5.981.258 4.438-7.773 7.307-15.459 7.752a38.83 38.83 0 0 1-2.266.067zm3.727-11.758c-.699 0-1.414.021-2.139.062-7.906.461-13.667 3.336-13.537 5.598.113 1.949 4.714 4.054 11.948 4.054.701 0 1.418-.021 2.146-.063 7.908-.459 13.67-3.333 13.539-5.595-.112-1.95-4.716-4.056-11.957-4.056zM34.799 111.349c-3.38-1.372-4.174-3.146-4.245-4.392l2.04-.116c.052.916 1.136 1.87 2.974 2.616l-.769 1.892zM203.186 88.046c-3.343 0-8.63-1.781-13.797-4.649-7.297-4.049-13.712-9.898-11.856-13.245.59-1.065 1.84-1.605 3.715-1.605 3.34 0 8.627 1.782 13.797 4.649 7.296 4.048 13.711 9.898 11.856 13.246-.591 1.065-1.841 1.604-3.715 1.604zm-21.938-17.509c-1.036 0-1.774.217-1.976.581-.53.956 1.987 5.494 11.081 10.541 4.89 2.713 9.807 4.399 12.833 4.399 1.036 0 1.774-.216 1.976-.579.529-.955-1.989-5.496-11.082-10.542-4.892-2.714-9.809-4.4-12.832-4.4z"/><path class="st8" d="M197.164 100.07c-.834 0-1.837-.108-3.044-.365-3.148-.668-6.959-2.189-10.732-4.283-3.774-2.092-7.083-4.52-9.316-6.836-3.198-3.317-3.146-5.316-2.54-6.409l5.989-11.978 1.779.89-6.009 12.016c-.327.59.245 2.06 2.212 4.101 2.1 2.178 5.243 4.479 8.849 6.477 3.605 2.001 7.22 3.449 10.18 4.077 2.774.589 4.324.295 4.631-.258l5.988-11.979 1.779.89-6.008 12.017c-.458.827-1.476 1.64-3.758 1.64z"/><g><path class="st8" d="M265.715 109.702c-3.316 0-8.288-1.66-13.299-4.439-7.076-3.924-13.272-9.644-11.424-12.984.412-.743 1.399-1.626 3.763-1.626 3.316 0 8.289 1.66 13.303 4.439 6.178 3.424 10.729 7.593 11.596 10.621.257.898.198 1.693-.175 2.363-.411.74-1.398 1.626-3.764 1.626zm-20.96-17.092c-1.069 0-1.835.231-2.05.618-.761 1.375 3.013 6.082 10.661 10.323 4.663 2.586 9.395 4.193 12.35 4.193 1.07 0 1.837-.231 2.052-.619.112-.201.113-.494.004-.874-.597-2.089-4.452-6.004-10.662-9.446-4.668-2.588-9.401-4.195-12.355-4.195z"/><path transform="rotate(26.642 239.783 96.838)" class="st8" d="M238.799 92.298h1.958v9.077h-1.958z"/><path class="st8" d="M259.589 121.73c-3.304 0-8.042-1.637-12.358-3.954l.926-1.726c7.186 3.858 12.824 4.422 13.547 3.114l6.006-11.974 1.75.878-6.024 12.01c-.64 1.155-2.026 1.652-3.847 1.652z"/></g><g><path class="st8" d="M223.589 83.323c-3.247 0-8.053-1.59-12.856-4.255-6.88-3.819-12.88-9.426-11.036-12.755.417-.751 1.416-1.646 3.807-1.646 3.247 0 8.053 1.591 12.857 4.255 3.561 1.975 6.667 4.292 8.748 6.525 2.975 3.194 2.886 5.15 2.288 6.229-.418.751-1.416 1.647-3.808 1.647zm-20.086-16.726c-1.116 0-1.889.238-2.119.652-.764 1.379 2.863 6.012 10.285 10.131 4.462 2.475 9.029 4.012 11.919 4.012 1.117 0 1.889-.238 2.119-.653.292-.526-.061-1.882-2.012-3.978-1.946-2.088-4.883-4.274-8.271-6.153-4.463-2.473-9.03-4.011-11.921-4.011z"/><path transform="rotate(26.693 198.47 70.98)" class="st8" d="M197.49 66.29h1.93v9.362h-1.93z"/><path class="st8" d="M217.562 95.333c-.751 0-1.637-.087-2.683-.291-2.999-.582-6.61-1.99-10.168-3.965l.937-1.688c3.386 1.878 6.795 3.213 9.6 3.758 2.812.546 4.15.127 4.441-.399l6.02-11.968 1.725.867-6.038 12.002c-.467.843-1.503 1.684-3.834 1.684z"/></g><g><path class="st8" d="M182.732 58.139c-3.167 0-7.786-1.514-12.355-4.05-3.449-1.911-6.45-4.17-8.451-6.36-2.857-3.128-2.748-5.062-2.153-6.134.42-.762 1.433-1.673 3.858-1.673 3.165 0 7.784 1.512 12.357 4.045 6.663 3.697 12.443 9.178 10.603 12.501-.423.763-1.436 1.671-3.859 1.671zm-19.1-16.319c-1.153 0-1.954.253-2.198.694-.297.535.021 1.885 1.894 3.935 1.865 2.042 4.695 4.167 7.969 5.981 4.236 2.351 8.617 3.812 11.435 3.812 1.153 0 1.955-.253 2.2-.694.768-1.386-2.692-5.941-9.863-9.92-4.239-2.349-8.621-3.808-11.437-3.808z"/><path transform="rotate(26.785 158.567 46.106)" class="st8" d="M157.615 41.57h1.898v9.05h-1.898z"/><path class="st8" d="M176.668 70.131c-3.132 0-7.703-1.472-12.348-4.05a41.583 41.583 0 0 1-3.702-2.306l1.088-1.556a39.858 39.858 0 0 0 3.534 2.201c5.978 3.318 10.827 4.217 12.805 3.652.422-.122.702-.301.831-.534l6.038-11.959 1.694.855-6.055 11.991c-.398.722-1.061 1.206-1.985 1.471-.547.159-1.186.235-1.9.235z"/></g><g><path class="st8" d="M144.583 33.764c-3.131 0-7.788-1.545-12.456-4.133-6.654-3.691-12.464-9.099-10.695-12.292.398-.717 1.352-1.571 3.633-1.571 3.131 0 7.788 1.545 12.457 4.134 6.654 3.69 12.464 9.097 10.694 12.291-.398.716-1.351 1.571-3.633 1.571zm-19.518-16.139c-1.06 0-1.792.224-2.009.614-.731 1.32 2.789 5.782 9.971 9.766 4.339 2.406 8.767 3.9 11.555 3.9 1.06 0 1.792-.224 2.008-.614.732-1.321-2.788-5.782-9.97-9.765-4.339-2.406-8.767-3.901-11.555-3.901z"/><path transform="rotate(26.671 120.463 21.39)" class="st8" d="M119.536 17.367h1.858v8.039h-1.858z"/><path class="st8" d="M138.789 45.264c-3.29 0-8.069-1.718-12.418-4.131a41.063 41.063 0 0 1-5.575-3.68l1.152-1.457c1.58 1.25 3.371 2.431 5.323 3.512 7.183 3.984 12.831 4.608 13.563 3.288l5.762-11.468 1.66.834-5.78 11.502c-.619 1.117-1.944 1.6-3.687 1.6z"/></g><g><path class="st8" d="M159.926 61.67c-3.267 0-8.118-1.609-12.976-4.304-3.588-1.99-6.72-4.322-8.82-6.565-3.004-3.21-2.92-5.173-2.32-6.254.416-.749 1.411-1.64 3.795-1.64 3.267 0 8.119 1.609 12.979 4.305 3.586 1.989 6.718 4.32 8.819 6.565 3.004 3.21 2.92 5.172 2.32 6.252-.416.749-1.411 1.641-3.797 1.641zm-20.321-16.825c-1.108 0-1.874.234-2.101.643-.291.523.07 1.883 2.041 3.989 1.966 2.101 4.929 4.301 8.345 6.195 4.516 2.504 9.127 4.061 12.037 4.061 1.109 0 1.875-.234 2.102-.643.291-.524-.069-1.882-2.041-3.989-1.966-2.101-4.929-4.301-8.344-6.194-4.517-2.506-9.13-4.062-12.039-4.062z"/><path class="st8" d="M153.839 73.687c-3.43 0-8.409-1.789-12.939-4.301-6.933-3.846-12.985-9.484-11.138-12.818l6.014-11.967 1.731.87-6.032 12.002c-.783 1.414 2.882 6.067 10.365 10.219 7.483 4.151 13.375 4.797 14.141 3.418l6.015-11.97 1.731.87-6.033 12.005c-.649 1.167-2.033 1.672-3.855 1.672z"/></g><g><path class="st8" d="M120.237 35.242c-3.265 0-8.117-1.609-12.978-4.304-3.588-1.989-6.72-4.321-8.82-6.565-3.004-3.209-2.92-5.172-2.32-6.253.415-.75 1.411-1.643 3.797-1.643 3.266 0 8.117 1.609 12.976 4.304 6.935 3.846 12.989 9.485 11.142 12.819-.417.75-1.412 1.642-3.797 1.642zM99.916 18.415c-1.109 0-1.875.235-2.103.645-.291.524.07 1.883 2.041 3.99 1.965 2.101 4.929 4.3 8.345 6.194 4.518 2.504 9.131 4.061 12.038 4.061 1.108 0 1.874-.234 2.101-.644.764-1.379-2.902-6.033-10.386-10.185-4.516-2.505-9.128-4.061-12.036-4.061z"/><path class="st8" d="M114.212 47.252c-.762 0-1.663-.09-2.729-.299-3.016-.593-6.653-2.015-10.241-4.004-3.588-1.992-6.721-4.325-8.82-6.568-3.003-3.21-2.917-5.171-2.317-6.251l6.013-11.968 1.731.87-6.032 12.004c-.31.559.05 1.917 2.02 4.022 1.965 2.101 4.928 4.301 8.345 6.198 3.416 1.893 6.852 3.242 9.675 3.797 2.829.555 4.173.143 4.463-.38l6.016-11.973 1.731.87-6.034 12.007c-.464.838-1.496 1.675-3.821 1.675z"/></g><g><path class="st8" d="M246.432 115.731c-3.317 0-8.289-1.66-13.3-4.441-3.661-2.029-6.863-4.398-9.016-6.67-3.081-3.251-3.009-5.229-2.406-6.314.411-.741 1.397-1.625 3.763-1.625 3.316 0 8.289 1.658 13.301 4.437 3.661 2.031 6.862 4.4 9.015 6.673 3.081 3.253 3.009 5.229 2.407 6.314-.411.742-1.399 1.626-3.764 1.626zm-20.959-17.092c-1.07 0-1.836.23-2.05.617-.311.561.223 2.02 2.116 4.018 2.018 2.13 5.052 4.369 8.543 6.304 4.663 2.588 9.395 4.195 12.35 4.195 1.07 0 1.837-.231 2.051-.618.311-.56-.223-2.019-2.116-4.018-2.019-2.132-5.052-4.372-8.542-6.308-4.665-2.584-9.398-4.19-12.352-4.19z"/><path class="st8" d="M240.41 127.747c-.791 0-1.732-.097-2.853-.325-3.069-.622-6.774-2.083-10.434-4.113-3.661-2.029-6.862-4.399-9.015-6.672-3.08-3.252-3.008-5.229-2.405-6.314l6.005-11.973 1.75.878-6.024 12.009c-.33.596.204 2.055 2.096 4.054 2.019 2.132 5.052 4.372 8.542 6.306 3.489 1.936 6.995 3.323 9.873 3.906 2.698.546 4.218.228 4.529-.333l6.007-11.973 1.75.878-6.025 12.008c-.46.836-1.488 1.664-3.796 1.664z"/></g><g><path class="st5" d="M72.122 41.156s-.08.68-.216 1.87c-.072.594-.143 1.317-.369 2.13-.212.807-.368 1.761-.717 2.732-.351.966-.667 2.048-1.124 3.137-.473 1.08-.891 2.268-1.494 3.402-1.117 2.324-2.43 4.738-3.773 7.125-.685 1.178-1.374 2.357-2.048 3.518-.643 1.182-1.273 2.348-1.885 3.476-.57 1.14-1.121 2.241-1.643 3.29-.535 1.039-.981 2.059-1.411 2.985l-2.874 6.205.63-1.773c.418-1.12.977-2.74 1.761-4.642.387-.953.784-1.994 1.277-3.066.485-1.079.962-2.236 1.543-3.384l1.833-3.506 2.005-3.569c1.378-2.359 2.715-4.734 3.857-7.014.601-1.131 1.079-2.265 1.598-3.312.502-1.055.86-2.104 1.254-3.041.376-.95.598-1.854.874-2.637.284-.777.414-1.498.53-2.085.248-1.17.392-1.841.392-1.841z"/></g><g><path class="st5" d="M55.748 78.279l.453.516c.146.155.311.395.529.573.214.191.456.411.718.649.57.465 1.259 1 2.011 1.561a29.367 29.367 0 0 0 2.421 1.619c1.711 1.027 3.463 2.025 4.672 2.928.298.233.568.446.808.639.244.184.419.391.582.535l.495.479s-.189-.16-.522-.448c-.17-.138-.356-.33-.61-.498-.25-.175-.529-.371-.837-.585-1.252-.825-3.038-1.713-4.819-2.641a31.257 31.257 0 0 1-2.565-1.504 60.238 60.238 0 0 1-2.13-1.466l-.838-.681c-.261-.197-.414-.4-.578-.554-.307-.31-.482-.492-.482-.492l.692-.63z"/></g><g><path class="st4" d="M58.833 76.693s.688-1.38 1.789-3.41c.562-1.012 1.195-2.203 1.915-3.457.721-1.25 1.491-2.584 2.257-3.923.792-1.318 1.584-2.642 2.326-3.88.74-1.24 1.478-2.373 2.086-3.357 1.238-1.958 2.115-3.238 2.115-3.238s-.681 1.379-1.776 3.412c-.562 1.012-1.185 2.206-1.905 3.46a2563.18 2563.18 0 0 0-2.251 3.933l-2.337 3.877c-.747 1.24-1.488 2.373-2.097 3.356-1.245 1.95-2.122 3.227-2.122 3.227z"/></g></svg>