<svg xmlns="http://www.w3.org/2000/svg" width="47.667" height="47.333" viewBox="0 0 47.667 47.333"><path fill="#00A1C1" d="M29.633 3.668c-5.371-2.453-14.732-.815-19.432 2.866-5.681 4.449-8.026 18.014-6.423 24.854C7.44 47.015 34.926 49.06 42.711 36.151c4.448-7.377 3.513-16.291-.212-23.443-3.683-7.073-8.391-7.553-14.932-9.685"/><path fill="#403933" d="M24.915 45.151c-1.544 0-3.157-.123-4.837-.387C11.185 43.362 4.91 38.405 3.292 31.5c-1.574-6.71.552-20.624 6.601-25.359C14.967 2.166 24.457.769 29.819 3.204l.483.146c5.232 1.585 9.366 2.837 12.641 9.127 4.245 8.15 4.318 17.096.197 23.932-2.802 4.645-9.322 8.742-18.225 8.742zM23.388 3.014c-4.557 0-9.709 1.432-12.878 3.914-5.574 4.364-7.766 17.854-6.245 24.344 1.521 6.494 7.491 11.168 15.968 12.504 9.3 1.471 18.367-1.775 22.051-7.883 3.94-6.535 3.855-15.115-.227-22.954-3.081-5.917-6.84-7.056-12.044-8.632-.833-.252-1.699-.515-2.599-.808l.016-.049c-1.236-.294-2.61-.436-4.042-.436z"/><path fill="#403933" d="M19.99 33.69c-2.346 0-4.862-.568-7.2-1.096l-.718-.162.042-.439c.192-2 .286-3.945.286-5.943 0-.898-.252-2.539-.52-4.275-.603-3.913-.954-6.553-.37-7.562.97-1.667 3.544-1.526 6.269-1.375 2.151.119 4.376.241 5.486-.597l.603.798c-1.402 1.059-3.812.926-6.143.797-2.304-.127-4.687-.258-5.349.878-.451.779.095 4.321.493 6.908.273 1.775.532 3.453.532 4.428 0 1.885-.082 3.723-.25 5.602 3.842.865 8.168 1.812 11.093.012l.524.852c-1.405.864-3.045 1.174-4.778 1.174z"/><path fill="#403933" d="M12.904 24.747l-.008-1c1.532-.012 3.898-.117 5.799-.203 1.404-.062 2.514-.111 2.987-.111v1c-.458 0-1.589.051-2.942.111-1.909.084-4.286.191-5.836.203zM25.509 37.874a.337.337 0 0 1-.05-.004c-.394-.035-.559-.418-.613-.543l.28-.121c-.143-2.947-.245-6.059.143-8.912l.117-.863 1.058.828c2.269 1.773 4.802 3.752 6.958 5.773-.094-1.539-.261-3.27-.423-4.955-.226-2.34-.439-4.549-.439-6.053h1c0 1.457.211 3.643.434 5.957.21 2.178.428 4.43.487 6.27l.041 1.264-.894-.893c-2.192-2.188-4.852-4.287-7.45-6.318-.256 2.564-.156 5.328-.027 7.959l.008.164-.092.139c-.18.265-.41.308-.538.308zm.003-1c-.122-.025-.261.08-.297.135l.144.096.378-.164a.393.393 0 0 0-.225-.067z"/></svg>