<svg xmlns="http://www.w3.org/2000/svg" width="47.667" height="47.333" viewBox="0 0 47.667 47.333"><path fill="#DED96D" d="M29.934 2.257c-5.57-2.544-15.89-1.031-20.762 2.785-5.89 4.614-8.323 18.677-6.66 25.77 3.795 16.206 32.297 18.325 40.369 4.942 4.613-7.65 3.643-16.895-.219-24.31-3.819-7.335-8.7-7.83-15.483-10.043"/><path fill="#403933" d="M24.429 45.066c-1.6 0-3.274-.128-5.016-.402C10.2 43.212 3.7 38.076 2.025 30.926c-1.63-6.952.572-21.368 6.839-26.278 5.107-4 15.627-5.411 21.255-2.856 5.37 1.627 9.617 2.95 12.986 9.421 4.398 8.446 4.474 17.716.204 24.798-2.901 4.811-9.656 9.055-18.88 9.055zM23.081 1.52c-4.905 0-10.439 1.44-13.601 3.916-5.785 4.532-8.06 18.528-6.481 25.261 1.579 6.74 7.773 11.593 16.57 12.979 9.648 1.516 19.061-1.843 22.884-8.181 4.089-6.782 4.001-15.687-.234-23.821-3.197-6.14-7.097-7.322-12.494-8.958-.866-.263-1.766-.535-2.702-.84l.001-.002c-1.218-.239-2.556-.354-3.943-.354z"/><path fill="#403933" d="M22.55 32.106c-2.427 0-5.032-.588-7.451-1.134l-.741-.167.043-.439c.2-2.06.297-4.076.297-6.164 0-.934-.262-2.635-.539-4.436-.624-4.054-.987-6.789-.384-7.83 1-1.719 3.664-1.575 6.483-1.417 2.233.122 4.543.249 5.699-.623l.603.798c-1.448 1.094-3.944.957-6.356.823-2.396-.131-4.872-.267-5.563.922-.471.813.095 4.49.508 7.175.283 1.84.55 3.578.55 4.588 0 1.972-.085 3.881-.261 5.822 3.992.9 8.492 1.891 11.533.013l.525.852c-1.454.896-3.151 1.217-4.946 1.217z"/><path fill="#403933" d="M15.202 22.832l-.007-1c1.591-.012 4.049-.121 6.024-.21 1.451-.064 2.597-.116 3.086-.116v1c-.466 0-1.66.054-3.041.115-1.984.089-4.452.199-6.062.211zM30.412 38.818c-1.216 0-2.5-.508-3.356-1.44-1.418-1.545-1.256-3.759.434-5.921l.788.615c-1.404 1.797-1.576 3.44-.485 4.629 1.032 1.125 2.924 1.467 4.051.732 1.156-.755 1.237-2.51.224-4.816-.305-.695-.947-1.477-1.627-2.303-1.175-1.429-2.506-3.049-2.413-4.74.113-2.018.534-2.268 2.144-2.39.196-.015.416-.031.662-.056 1.029-.1 2.535.501 2.728 1.287.08.325-.039.754-.612.982l-.352-.882c-.019.057-.021.125.002.165-.106-.188-.976-.623-1.665-.559a24.31 24.31 0 0 1-.688.059c-1.144.087-1.144.087-1.221 1.448-.071 1.302 1.077 2.698 2.188 4.049.725.882 1.41 1.715 1.771 2.536 1.746 3.976.167 5.56-.593 6.056-.569.373-1.263.549-1.98.549z"/></svg>