<svg xmlns="http://www.w3.org/2000/svg" xmlns:xlink="http://www.w3.org/1999/xlink" width="1367" height="126" viewBox="0 0 1367 126"><defs><path id="a" d="M0 0h1367v126H0z"/></defs><clipPath id="b"><use xlink:href="#a" overflow="visible"/></clipPath><path clip-path="url(#b)" fill="#3F3832" d="M-13.489-172.405c10.802 1.688 26.655-2.137 39.92-1.546 23.858 1.06 48.127 1.491 72.238.372 58.195-2.703 116.688-2.712 175.069-3.36 51.393-.571 102.708-7.159 154.9-4.53 61.128 3.08 123.338 11.482 184.905 8.729 94.847-4.241 188.17-7.223 282.785-7.223 111.653 0 223.127 6.048 333.696 6.048 31.452 0 60.71-2.947 90.995-5.711 19.242-1.757 51.602-3.02 67.987 5.974 3.32 48.424 3.533 97.831 3.533 146.351 0 45.135-9.188 90.696-6.749 134.359-30.019-1.549-58.662-6.629-89.16-2.464-41.575 5.679-85.886 9.954-128.007 11.765-42.188 1.812-83.761-2.689-125.597-3.025-55.112-.44-107.806-8.734-162.504-10.582-27.257-.92-51.896-6.411-78.475-8.729-36.769-3.207-75.932 14.198-112.955 12.505-62.234-2.85-124.457-4.531-186.93-4.531-61.238 0-121.578 5.072-182.251 7.637-54.898 2.322-111.028-4.218-165.845-6.16-33.081-1.172-61.882-.018-92.857 7.176-22.306 5.179-52.054 5.858-76.061 4.725-8.216-44.729-4.314-109.424-6.766-155.035-1.417-26.339-4.315-53.276-3.252-79.791.533-13.278-2.257-45.07 13.005-51.439"/></svg>