<svg xmlns="http://www.w3.org/2000/svg" width="30.75" height="28.624" viewBox="0 0 30.75 28.624"><path fill="#00A7E2" d="M26.775 6.979c.734-.414 1.748-.662 2.386-1.189-.153.672-.779 1.408-1.156 1.957.539.073 1.295-.136 1.815-.327.151 1.068-1.334 2.904-2.319 3.223-.04 1.162-.133 2.281-.188 3.445-.068 1.439-.031 2.705-.673 4.025-1.296 2.674-3.308 5.352-5.954 6.809-3.178 1.75-6.394 3.021-10.086 2.707-1.935-.166-3.391-.615-5.178-1.379-.97-.412-1.831-.709-2.524-1.541.639-.033 1.283-.184 1.924-.248.87-.086 1.769-.1 2.633-.238a5.486 5.486 0 0 0 2.918-1.428c-1.621-.303-3.827-.809-5.146-1.867-.546-.438-1.636-1.611-1.49-2.387.675-.033 1.321-.062 1.987-.129.502-.053 1.351-.201 1.808.004-.619.014-1.961-.588-2.485-.959-.566-.4-.848-.939-1.135-1.561-.498-1.074-.586-2.217-.532-3.402.813.199 1.347.52 2.236.459-2.324-1.092-2.127-5.379-1.275-7.287.374.209.617.828.87 1.182.375.521.81.986 1.32 1.389 1.081.852 2.337 1.58 3.557 2.215 1.753.91 3.996 1.527 5.965 1.428.145-.51.033-1.002-.038-1.5-.112-.787.095-1.223.453-1.916.582-1.125 1.343-2.256 2.467-2.906 1.059-.617 2.609-.658 3.817-.49 1.093.154 1.809.828 2.722 1.416.384.248.808.607 1.231.748a.891.891 0 0 1 .012.287"/><path fill="#3F352E" d="M10.134 27.967c-.375 0-.754-.016-1.14-.049-2.061-.176-3.543-.666-5.267-1.4l-.297-.125c-.858-.359-1.669-.697-2.337-1.498l-.371-.443.578-.031a9.705 9.705 0 0 0 1.077-.133c.279-.043.557-.088.833-.115.326-.033.656-.055.985-.076.542-.037 1.101-.074 1.631-.16a5.132 5.132 0 0 0 2.312-.973c-1.619-.33-3.469-.844-4.674-1.809-.472-.379-1.778-1.682-1.595-2.666l.042-.225.332-.018c.625-.031 1.217-.059 1.824-.119a5.468 5.468 0 0 1-.771-.434c-.625-.441-.938-1.045-1.23-1.674-.452-.979-.624-2.068-.559-3.539l.016-.352.343.084c.251.061.476.135.692.203.161.055.315.102.471.145-1.542-1.695-1.321-5.254-.536-7.012l.128-.291.279.155c.329.186.551.57.746.91.074.129.146.254.219.355.373.52.787.955 1.264 1.33.916.723 2.031 1.417 3.512 2.186 1.777.924 3.846 1.436 5.595 1.404.043-.314-.005-.635-.058-.971l-.031-.207c-.123-.861.104-1.355.482-2.088.484-.939 1.279-2.273 2.579-3.025 1.357-.791 3.251-.633 4.002-.527.922.131 1.575.586 2.267 1.07.186.131.374.264.572.391.107.07.219.148.332.227.264.186.537.379.791.473l-.12-.213c.305-.172.653-.316.99-.457.492-.203 1-.412 1.354-.705l.656-.543-.19.83c-.125.553-.508 1.104-.867 1.596.334-.045.73-.146 1.144-.301l.338-.123.05.355c.161 1.141-1.211 2.955-2.324 3.463-.024.611-.061 1.209-.098 1.812-.029.482-.059.959-.083 1.445l-.022.537c-.046 1.23-.092 2.395-.677 3.604-1.53 3.156-3.688 5.619-6.077 6.936-2.544 1.4-5.58 2.791-9.112 2.791zm-8.183-3.029c.493.414 1.064.654 1.703.92l.3.127c1.673.711 3.106 1.188 5.089 1.355 3.869.33 7.187-1.166 9.922-2.672 2.285-1.26 4.355-3.631 5.835-6.68.533-1.1.573-2.154.62-3.375l.022-.539c.022-.49.053-.973.083-1.455.041-.66.081-1.314.104-1.986l.006-.203.193-.062c.77-.25 1.915-1.604 2.104-2.539-.46.143-1.059.275-1.549.207l-.467-.062.266-.389c.081-.119.174-.244.27-.377.16-.221.332-.455.479-.691-.218.104-.444.197-.667.291-.306.127-.597.248-.853.383.023.15.027.273.009.377l-.384-.068-.002.006c-.009-.004-.017-.006-.024-.01l-.16-.025c.001-.008.004-.02.004-.035-.283-.125-.548-.312-.807-.494a10.46 10.46 0 0 0-.312-.215c-.204-.131-.398-.268-.59-.4-.661-.463-1.232-.863-2.016-.973-1.438-.203-2.797-.033-3.63.453-.889.516-1.637 1.402-2.355 2.791-.355.688-.523 1.049-.423 1.74l.03.201c.069.451.141.918-.001 1.418l-.057.201-.208.01c-1.888.098-4.172-.451-6.114-1.461C6.86 9.922 5.715 9.209 4.77 8.463a6.969 6.969 0 0 1-1.375-1.447 4.621 4.621 0 0 1-.251-.407 5.46 5.46 0 0 0-.273-.437c-.668 1.951-.699 5.586 1.288 6.518l1.009.475-1.113.075c-.682.045-1.162-.107-1.674-.271-.099-.033-.2-.066-.305-.098-.019 1.189.144 2.096.518 2.904.276.6.528 1.084 1.039 1.447.357.25 1.133.619 1.734.799.258.006.502.041.703.131l1.175.529-1.289.025a2.795 2.795 0 0 1-.664-.106 7.83 7.83 0 0 0-.866.07l-.254.029c-.582.059-1.144.09-1.729.117.099.582.829 1.439 1.385 1.885 1.271 1.02 3.473 1.521 5.019 1.811l.568.105-.424.391c-.893.822-1.896 1.312-3.07 1.5-.557.09-1.13.129-1.684.166-.323.021-.646.043-.966.074-.266.027-.533.068-.801.111-.171.03-.345.055-.519.079z"/></svg>