<svg xmlns="http://www.w3.org/2000/svg" width="34.375" height="22.75" viewBox="0 0 34.375 22.75"><path fill="#DE4B3C" d="M26.242 6.239c.76-.479 1.788.321 2.573.041.109.248.031.582.054.853.024.283.08.556.094.84.028.554-.048 1.147.022 1.691.541.046 1.178-.096 1.756-.067.556.026 1.122.049 1.691.078.021.439-.013.843.013 1.285.023.403.125.926.062 1.322-1.188.059-2.402-.26-3.568.01-.074.578.067 1.182-.051 1.768-.115.567-.042 1.176-.072 1.765-.818.044-1.623.065-2.422.073-.188-.5.113-2.982.062-3.567-1.027-.054-2.496-.032-3.53-.083-.026-.512-.005-1.031-.005-1.544 0-.224-.066-.343 0-.554.086-.276.218-.244.509-.305.948-.191 1.969-.04 2.953-.067.046-1.047-.142-2.671-.142-3.575M14.697 7.052c.246-.574.739-.861 1.172-1.263.429-.399.787-.864 1.226-1.247.274-.238.482-.236.257-.551-.205-.291-.586-.544-.886-.729a18.255 18.255 0 0 0-1.835-1.016c-.627-.295-1.136-.501-1.815-.61-.363-.058-1.222-.136-1.586-.192-.6-.093-2.168.142-2.471.26-.682.266-1.391.537-2.085.848-1.382.617-2.443 1.873-3.401 2.996-.752.883-1.133 1.924-1.641 2.933-.579 1.15-.695 4.184-.656 4.471.045.328.533 2.053.766 2.553.243.525.42 1.051.792 1.503.432.526.86 1.038 1.281 1.549.552.669 3.069 2.044 3.699 2.262.643.222 1.276.267 1.92.433.646.166 1.337.186 2.019.185 2.345-.001 4.896-1.08 6.5-2.796.4-.426.779-.824 1.032-1.336.256-.521.477-1.049.738-1.539.126-.235.338-.453.436-.708.088-.229.087-.534.146-.774.168-.672.146-1.356.146-2.067 0-.704-.042-1.353-.11-2.028-.031-.311.001-.59-.259-.7-.217-.094-.682 0-.922 0-.606 0-1.137.128-1.731.071-.641-.062-1.3-.053-1.949-.11-.798-.067-1.627.127-2.406.005a10.03 10.03 0 0 0-2.244-.109c-.009.385.114.684.031 1.1-.068.338-.11.655-.145 1a13.001 13.001 0 0 0-.071 1.912c.979-.055 1.93-.021 2.909.076.929.094 1.838-.084 2.762-.029-.25 1.041-1.036 2.178-1.802 2.945-.813.814-2.384 1.038-3.468 1.105-.54.033-1.289.092-1.769-.118-.561-.245-1.097-.535-1.663-.805-.585-.278-.828-.739-1.251-1.216a4.383 4.383 0 0 1-.931-1.549c-.236-.646-.263-1.27-.324-1.957-.054-.624-.191-1.256-.037-1.881.16-.653.597-1.137.929-1.703.353-.6.65-1.076 1.203-1.516.98-.777 2.218-1.219 3.474-1.282.726-.036 1.366.108 2.029.332.618.21.927.702 1.475 1.024.221.131.456.221.664.341"/><path fill="#3F352E" d="M26.936 16.149l-.062-.164c-.125-.332-.083-1.151-.004-2.363.026-.405.052-.794.056-1.053-.472-.019-1.015-.025-1.557-.032a54.602 54.602 0 0 1-1.74-.04l-.226-.012-.011-.226a18.243 18.243 0 0 1-.01-1.098l.003-.459c0-.067-.007-.124-.014-.177-.015-.123-.033-.264.025-.451.118-.375.357-.416.569-.452l.127-.022c.654-.131 1.335-.107 1.992-.086.257.009.508-.002.769.018.006-.565-.039-1.307-.08-1.936-.035-.539-.068-1.471-.068-1.471h.227l-.11-.137c.501-.312 1.078-.158 1.584-.038.385.092.748.187 1.037.085l.218-.073.094.214c.095.215.085.455.076.666-.004.093-.009.184-.001.269.01.116.026.232.042.348.022.166.045.332.053.502.012.236.006.479 0 .724-.007.258-.014.504.001.74.208.021.423-.02.651-.039.292-.025.594-.055.889-.038l.659.03c.342.015.687.03 1.033.048l.226.012.011.227c.011.216.008.423.006.631-.002.214-.005.428.008.651.007.117.021.244.035.376.035.323.074.689.025 1l-.032.2-.203.011c-.477.022-.963-.013-1.431-.047-.666-.05-1.298-.097-1.917.015-.01.186-.002.378.005.578.014.335.027.681-.043 1.031-.069.34-.065.7-.06 1.081.002.216.005.433-.006.646l-.011.225-.225.013c-.763.041-1.56.064-2.434.073h-.176zm-3.054-4.142c.454.018.973.023 1.493.03.64.008 1.282.016 1.809.043l.217.012.019.217c.021.245-.012.756-.05 1.346-.042.646-.103 1.575-.059 1.991a53.76 53.76 0 0 0 1.978-.06c.001-.129 0-.26-.001-.39-.005-.391-.009-.794.07-1.187.059-.291.047-.593.034-.912a4.997 4.997 0 0 1 .014-.837l.022-.173.17-.039c.747-.174 1.508-.115 2.242-.062.38.028.768.047 1.152.053.004-.205-.021-.438-.045-.665a9.576 9.576 0 0 1-.037-.399c-.014-.236-.011-.461-.009-.687.001-.124.002-.249.001-.375l-.799-.037-.661-.029c-.261-.016-.545.012-.821.036-.314.027-.64.056-.944.03l-.201-.017-.026-.2a6.764 6.764 0 0 1-.025-1.026c.006-.23.013-.461.001-.685-.008-.156-.029-.308-.049-.46-.017-.123-.034-.246-.044-.371a2.641 2.641 0 0 1 0-.333c.003-.082.007-.165.003-.241-.342.043-.7-.041-1.045-.124-.398-.095-.778-.185-1.083-.065.008.343.036.767.064 1.21.05.77.102 1.564.075 2.188l-.011.232-.232.007c-.343.007-.689-.002-1.036-.014-.659-.022-1.28-.044-1.875.076l-.145.026c-.053.009-.125.021-.142.032 0 0-.014.016-.033.075-.026.084-.019.14-.007.241.009.07.018.147.018.238l-.003.465c-.003.281-.006.562.001.84zM12.112 22.125c-.629 0-1.35-.237-2.029-.412-.255-.065-.509-.223-.762-.268a8.281 8.281 0 0 1-1.178-.336c-.59-.204-3.203-1.631-3.809-2.366l-.519-.64c-.253-.305-.507-.618-.763-.931-.311-.378-.495-.804-.673-1.214-.05-.115-.1-.231-.153-.348-.244-.522-.738-2.281-.787-2.623-.043-.321.067-3.4.681-4.619.122-.242.237-.486.351-.73.36-.766.732-1.559 1.323-2.253.988-1.158 2.071-2.429 3.49-3.062.638-.285 1.287-.537 1.915-.781l.182-.071c.359-.139 1.966-.371 2.6-.273.177.027.472.06.768.093.315.035.632.07.819.1.688.111 1.211.315 1.882.631.557.262 1.166.599 1.861 1.029.347.215.732.478.958.797.078.109.163.256.135.42-.029.172-.159.263-.274.343-.047.033-.102.071-.159.121-.228.199-.432.42-.648.654-.185.2-.37.4-.571.587a8.566 8.566 0 0 1-.343.297c-.313.261-.609.507-.77.882l-.078-.033-.129.225c-.093-.055-.193-.102-.293-.149a5.08 5.08 0 0 1-.373-.193 4.218 4.218 0 0 1-.624-.474c-.249-.216-.484-.42-.804-.529-.752-.254-1.327-.353-1.937-.318-1.228.058-2.411.495-3.331 1.225-.508.405-.782.835-1.142 1.447-.099.168-.208.331-.316.493-.248.372-.483.722-.587 1.141-.11.443-.058.898-.002 1.379.016.141.032.28.044.42l.021.249c.047.569.092 1.107.289 1.644.216.59.456.988.884 1.469.112.126.211.25.308.371.258.323.481.603.864.785.218.104.431.21.643.316.337.168.67.335 1.013.484.402.177 1.081.134 1.576.103l.078-.005c1.587-.099 2.73-.455 3.306-1.032.609-.609 1.331-1.567 1.65-2.529-.305-.001-.61.016-.929.033-.497.029-1.01.058-1.529.006a18.199 18.199 0 0 0-2.87-.075l-.251.014-.013-.251c-.028-.555-.005-1.175.071-1.949.039-.393.085-.709.149-1.025.042-.212.021-.389-.004-.593a3.12 3.12 0 0 1-.031-.463l.006-.23.23-.014c.82-.047 1.551-.01 2.298.112.396.062.812.035 1.253.009.37-.023.754-.046 1.133-.016.312.027.625.04.936.052.341.014.681.026 1.016.059.324.032.633.002.959-.027.243-.022.489-.045.748-.045.067 0 .154-.009.248-.018.264-.024.564-.052.773.038.356.151.379.489.397.762l-.195.144c.077.745-.094 1.398-.094 2.051v.217c0 .657.211 1.278.053 1.911-.023.092.067.193.054.296-.022.17.007.346-.055.508-.068.179-.149.33-.253.477a2.342 2.342 0 0 0-.156.259c-.154.29-.288.593-.429.898-.097.211-.192.423-.296.634-.264.535-.644 1.161-1.048 1.591-1.656 1.771-4.277 3.12-6.705 3.12l-.053-.001zm-.526-20.453c-.679 0-1.8.178-2.023.265l-.183.071c-.622.242-1.265.491-1.891.772-1.316.587-2.36 1.812-3.281 2.893-.58.681-.922 1.408-1.284 2.179-.116.248-.233.496-.357.742-.543 1.079-.669 4.043-.632 4.325.042.295.524 2.005.746 2.48.055.119.107.238.158.356.172.396.334.769.601 1.093.255.312.51.618.762.922l.52.627c.509.618 2.978 1.974 3.587 2.185.364.126.723.191 1.104.261.265.049.53.098.796.166.641.165 1.333.158 1.956.177 2.296-.001 4.776-1.067 6.318-2.717.402-.428.759-.808.99-1.275.102-.208.198-.416.294-.622.146-.315.29-.627.448-.925.057-.105.129-.209.203-.312.089-.127.174-.246.22-.366a1.82 1.82 0 0 0 .078-.394c.016-.123.076-.244.104-.354.141-.573.18-1.162.18-1.787v-.219c0-.636-.078-1.272-.152-2.003l-.034-.16c-.017-.253-.043-.309-.106-.335-.093-.041-.372-.015-.535 0-.111.011-.217.02-.297.02-.243 0-.475.021-.703.043-.334.029-.683.062-1.054.027a17.847 17.847 0 0 0-.987-.057c-.32-.013-.642-.025-.96-.054a7.12 7.12 0 0 0-1.059.017c-.448.026-.91.057-1.364-.014a9.487 9.487 0 0 0-1.945-.118c.005.054.012.106.018.159.026.215.056.46-.002.751-.061.3-.104.601-.141.976a13.77 13.77 0 0 0-.079 1.626 18.943 18.943 0 0 1 2.693.089c.481.05.952.023 1.45-.007.423-.023.861-.051 1.301-.023l.298.019-.07.29c-.279 1.159-1.148 2.343-1.868 3.063-.672.674-1.893 1.07-3.629 1.179l-.077.004c-.577.037-1.295.08-1.808-.143-.351-.153-.691-.324-1.036-.496-.209-.104-.419-.21-.634-.312-.487-.231-.756-.568-1.04-.925a8.975 8.975 0 0 0-.291-.351 4.688 4.688 0 0 1-.98-1.629c-.219-.6-.267-1.17-.317-1.773l-.022-.248a13.609 13.609 0 0 0-.043-.406c-.059-.504-.119-1.026.013-1.558.125-.503.395-.907.657-1.299.102-.153.205-.307.3-.467.377-.64.688-1.128 1.262-1.585 1.001-.795 2.286-1.27 3.617-1.337.676-.032 1.306.07 2.123.345.413.141.697.388.972.626.178.154.347.301.55.42.092.056.188.103.282.147.21-.351.503-.595.788-.832.108-.09.217-.181.322-.278.191-.178.368-.369.544-.561.216-.233.438-.475.687-.691.073-.063.142-.112.201-.153.013-.009.027-.02.042-.029l-.023-.035c-.176-.248-.527-.483-.814-.66a17.74 17.74 0 0 0-1.81-1.002c-.646-.305-1.116-.488-1.749-.59-.183-.031-.491-.064-.797-.098-.305-.034-.608-.067-.79-.096a2.215 2.215 0 0 0-.318-.019z"/></svg>