<svg xmlns="http://www.w3.org/2000/svg" width="27.5" height="24.25" viewBox="0 0 27.5 24.25"><path fill="#00A7E2" d="M7.37.913c.27 1.549-.431 3.113-.587 4.6-1.314.681-2.943-.287-4.398-.19-.439-1.27-.243-3.469-.243-4.395M1.768 8.265c1.066-.773 3.559-.986 4.826-.746.244 4.684.239 9.629 0 14.312-1.264.027-3.04-.195-4.215-.582.218-4.117-2.2-9.346-.771-13.344.451.02.915-.234 1.325-.223M8.989 23.54c1.288-1.092 3.769-.645 5.373-.736.146-2.908-1.401-10.219 2.943-10.459 4.286-.238 3.198 7.625 3.331 10.266 1.524.078 2.941-.328 4.409-.195.133-2.604.016-5.188.407-7.74.314-2.049.894-4.463-.767-6.172-1.822-1.879-10.355-3.131-10.919.482-.238-.787-.063-1.658-.381-2.434-1.289-.076-2.612-.049-3.82-.197-.116 1.395.219 2.65-.03 4.049"/><path fill="#3F352E" d="M6.525 6.008c-.523 0-1.058-.113-1.583-.225-.572-.122-1.163-.242-1.703-.211l-.19.014.163-.181C2.773 4.139 3 2.339 3 1.372v.127-.127c0 .893.023 2.517.377 3.694a9.951 9.951 0 0 1 1.656.228c.848.179 1.657.347 2.349.053.062-.493.182-.996.294-1.483.206-.896.42-1.82.312-2.715-.706-.042-1.399.002-2.071.044-1.205.078-2.45.157-3.776-.265l.152-.477C3.529.844 4.672.77 5.886.693c.752-.048 1.53-.097 2.341-.03L8.42.68l.033.19c.185 1.054-.055 2.097-.287 3.105-.124.544-.243 1.056-.296 1.564l-.015.134-.119.061a2.567 2.567 0 0 1-1.211.274zM7.218 22.083c-1.326 0-3.004-.242-4.079-.597l-.182-.06.01-.191c.086-1.624-.242-3.404-.59-5.289-.514-2.788-1.045-5.67-.167-8.125l.062-.174.184.008c.202.014.405-.047.627-.106.227-.061.455-.121.695-.116l-.002.052c1.246-.339 2.804-.381 3.703-.213l.193.038.01.196c.241 4.643.241 9.601 0 14.338l-.012.232-.232.005c-.072.002-.146.002-.22.002zm-3.743-1.015c1.026.307 2.519.513 3.72.515.225-4.581.224-9.36-.001-13.851-1.344-.191-3.529.074-4.442.735l-.158-.218c-.708 2.276-.208 4.984.275 7.606.325 1.76.66 3.579.606 5.213zM9.569 24.086l.008-.55c.019-1.376.185-2.931.359-4.576.301-2.834.636-5.978.208-8.598l-.017-.003.008-.048a10.027 10.027 0 0 0-.385-1.576l.45-.152c-.007-.146-.016-.291-.025-.438-.035-.581-.071-1.183-.019-1.811l.021-.26.258.032c.751.092 1.535.115 2.365.14.479.014.961.028 1.438.056l.157.01.06.146c.189.46.217.938.245 1.401l.01.162c.364-.558.983-.983 1.831-1.253 2.899-.92 7.775.132 9.163 1.562 1.601 1.648 1.239 3.874.92 5.838l-.087.546c-.259 1.696-.293 3.448-.327 5.144-.017.854-.034 1.712-.078 2.571l-.013.26-.259-.023c-.745-.068-1.47.008-2.238.088-.696.072-1.417.143-2.16.108l-.226-.012-.011-.226c-.024-.472-.01-1.094.007-1.813.056-2.464.14-6.187-1.34-7.619-.456-.441-1.027-.644-1.735-.596-3.187.176-2.945 4.641-2.769 7.9.05.912.092 1.7.061 2.321l-.011.224-.224.014c-.419.023-.889.013-1.385-.001-1.388-.031-2.953-.073-3.84.678l-.42.354zm1.074-13.774c.431 2.681.094 5.847-.209 8.701-.153 1.441-.299 2.812-.344 4.045 1.031-.572 2.466-.536 3.751-.504.396.01.774.02 1.117.01.012-.56-.026-1.254-.069-2.042-.188-3.47-.446-8.223 3.24-8.427.847-.035 1.557.202 2.111.736 1.637 1.585 1.553 5.286 1.492 7.989a37.478 37.478 0 0 0-.016 1.549c.636.014 1.251-.053 1.854-.115.675-.069 1.368-.139 2.075-.106.035-.769.049-1.536.064-2.301.034-1.711.068-3.48.333-5.21l.088-.551c.315-1.938.64-3.94-.785-5.409-1.282-1.321-5.973-2.283-8.653-1.433-1.091.347-1.711.945-1.841 1.779l-.169 1.083-.317-1.049c-.117-.387-.141-.785-.164-1.17-.023-.386-.045-.753-.156-1.096a58.92 58.92 0 0 0-1.26-.046c-.714-.021-1.451-.043-2.148-.114-.023.504.007 1 .036 1.482.043.705.087 1.433-.03 2.199z"/></svg>