<svg xmlns="http://www.w3.org/2000/svg" width="18.335" height="31.165" viewBox="0 0 18.335 31.165"><path fill="#245A9D" d="M17.992 6.619c.128-1.381-.01-3.059-.084-4.479-1.218-.221-2.414-.42-3.699-.305-1.146.104-2.523.127-3.591.525-2.091.783-2.948 4.417-3.132 6.363-.096 1.033-.101 2.111-.154 3.174-1.371.221-2.766.527-4.108.746a51.261 51.261 0 0 0 0 5.051c.726-.406 2.855-.875 3.684-.428.66.355.33 2.988.437 3.818.338 2.631-.004 5.518-.36 8.068-.038.266-.113.5-.064.783.809.508 2.639.086 3.608.086.633 0 1.427.117 2.031-.057.796-.23.427-.592.358-1.316-.262-2.705-.068-5.525-.068-8.264 0-.967.033-1.926.083-2.889.828-.041 1.539.059 2.308.209.424.082 1.838.268 2.158-.09.358-.395-.053-2.029-.058-2.58-.006-.836-.008-1.83-.228-2.609-1.39-.211-2.613.338-4.036.268-.384-1.363-.584-3.986.279-5.205.511-.721 1.359-.902 2.174-.941.572-.029 2.294-.354 2.535.146"/><path fill="#3F352E" d="M7.291 30.477c-.539 0-1.038-.07-1.397-.295l-.11-.07-.021-.127c-.044-.264-.003-.49.033-.691.01-.061.021-.121.03-.182.349-2.5.692-5.387.359-7.99-.035-.268-.026-.682-.019-1.16.014-.738.04-2.275-.268-2.439-.71-.383-2.746.055-3.405.426l-.407.23-.024-.469a52.48 52.48 0 0 1 0-5.08l.012-.234.231-.037c.65-.107 1.312-.234 1.978-.361.632-.121 1.269-.24 1.898-.348l.034-.865c.022-.689.048-1.402.113-2.088.193-2.066 1.11-5.783 3.318-6.607.898-.336 2.003-.416 2.979-.488.235-.018.465-.035.687-.055 1.285-.117 2.471.072 3.777.309l.227.039.052.943c.068 1.186.146 2.523.055 3.668.012.02.023.039.033.061l-.04.018-.005.062-.103-.01-.375.182c-.099-.139-.696-.148-1.771-.029a8.221 8.221 0 0 1-.489.047c-.982.049-1.584.303-1.951.82-.726 1.025-.639 3.338-.291 4.754.528-.004 1.063-.08 1.572-.16.726-.113 1.477-.232 2.281-.111l.186.029.051.18c.225.799.232 1.77.238 2.627.002.203.039.463.079.74.145 1.006.223 1.744-.097 2.096-.488.541-2.231.217-2.429.178a10.249 10.249 0 0 0-1.976-.211 52.228 52.228 0 0 0-.069 2.607c0 .816-.017 1.641-.035 2.465-.039 1.912-.08 3.887.103 5.77.016.17.051.316.08.445.094.414.212.93-.646 1.18-.48.139-1.029.111-1.562.086-.19-.01-.375-.02-.549-.02-.266 0-.613.035-.981.072-.454.046-.935.093-1.386.093zm-.969-.725c.53.232 1.502.135 2.295.055.383-.039.744-.077 1.039-.077.183 0 .377.01.577.02.484.023.985.049 1.373-.064.333-.096.333-.096.242-.492a3.987 3.987 0 0 1-.093-.516c-.184-1.92-.143-3.912-.104-5.84.018-.82.035-1.641.035-2.453 0-.881.026-1.803.083-2.902l.014-.262.262-.012c.909-.047 1.682.074 2.379.211.794.156 1.748.158 1.888.002.159-.176.014-1.191-.048-1.623-.045-.311-.084-.578-.085-.764-.007-.805-.013-1.652-.17-2.348-.648-.062-1.266.033-1.917.135-.604.096-1.229.195-1.9.162l-.209-.012-.057-.199c-.418-1.484-.594-4.158.321-5.451.622-.879 1.665-1.029 2.396-1.066.111-.004.271-.021.454-.041.692-.076 1.321-.129 1.765-.037.057-1.043-.013-2.236-.075-3.305l-.027-.488c-1.177-.209-2.258-.363-3.397-.26-.225.02-.458.037-.696.055-.981.072-1.997.146-2.818.453-1.944.726-2.776 4.318-2.945 6.115-.063.67-.088 1.375-.111 2.057-.013.369-.025.738-.043 1.107l-.014.234-.231.037c-.701.111-1.409.248-2.114.383-.592.113-1.18.225-1.761.324a52.489 52.489 0 0 0-.008 4.363c.983-.379 2.742-.678 3.551-.242.574.309.599 1.422.571 2.961-.006.434-.014.848.016 1.075.343 2.676-.007 5.607-.361 8.145-.009.07-.021.137-.033.203a1.879 1.879 0 0 0-.044.357z"/></svg>