<svg xmlns="http://www.w3.org/2000/svg" width="60.526" height="61.583" viewBox="0 0 60.526 61.583"><path fill="#F15F5E" d="M31.092 6.37c7.646 0 12.063-1.025 17.839 5.955 4.027 4.867 6.175 10.514 6.688 16.721 1.886 22.816-21.093 35.312-39.081 21.527C6.457 42.849 1.215 27.95 10.066 17.368c5.837-6.977 12.13-11.67 22.162-11.006"/><path fill="#3F352E" d="M32.648 56.952c-5.657 0-11.445-1.984-16.505-5.861C9.977 46.366 5.824 39.302 5.039 32.192c-.629-5.677.938-10.949 4.529-15.244C14.809 10.685 21.189 4.991 32.25 5.712c.485-.006.959-.014 1.42-.021 6.082-.105 10.472-.176 15.762 6.219 3.997 4.832 6.297 10.582 6.836 17.084.907 10.982-3.75 20.377-12.46 25.133a23.209 23.209 0 0 1-11.16 2.825zm-2.245-50c-9.42 0-15.104 5.176-19.837 10.834C7.208 21.8 5.744 26.731 6.333 32.05c.748 6.762 4.711 13.494 10.602 18.006 8.234 6.312 18.048 7.406 26.25 2.93 8.245-4.502 12.65-13.432 11.786-23.885-.516-6.236-2.716-11.738-6.541-16.359-4.892-5.914-8.604-5.857-14.737-5.748-.826.014-1.691.027-2.601.027V6.96a26.534 26.534 0 0 0-.689-.008z"/><path fill="#FFF" stroke="#3F352E" stroke-width="2" stroke-miterlimit="10" d="M32.242 35.028l.724 6.248c0 .635-.261 1.15-.781 1.541a2.797 2.797 0 0 1-1.733.592 3.005 3.005 0 0 1-1.753-.555c-.532-.365-.799-.842-.799-1.428l-.496-7.58v-.572l-4.344.342c-2.209 0-3.314-.824-3.314-2.477 0-.533.158-1 .476-1.408.317-.406.743-.609 1.276-.609l4.61.268c.66 0 1.257-.051 1.791-.154l-.458-5.713c0-2.871.838-4.307 2.515-4.307.584 0 1.06.217 1.43.648.367.432.552.967.552 1.6v.951c0 4.648.342 6.975 1.028 6.975l4.533-.305c2.692 0 4.039.787 4.039 2.359 0 .611-.216 1.119-.647 1.523-.432.41-.953.609-1.562.609l-4.609-.418c-1.653.001-2.478.624-2.478 1.87z"/></svg>