<svg xmlns="http://www.w3.org/2000/svg" width="245.333" height="87" viewBox="0 0 245.333 87"><g stroke="#3F352E" stroke-miterlimit="10"><path fill="#F15F5E" d="M19.315 24.764C24.925-.277 72.595 3.713 96.033 3.713c25.529 0 49.111 3.252 74.313 3.252 10.847 0 21.693.012 32.542 0 13.679-.015 20.867-3.275 24.405 9.708 5.139 18.85-5.729 45.342-.245 64.729-31.018-3.829-64.711-2.959-97.265-2.959-35.206 0-78.96-6.057-111.76-1.792-.942-14.118-2.547-34.756 1.292-51.887z"/><path fill="none" d="M1.755 81.008c50.363-5.818 102.31-3.346 152.804 2.438 15.836 1.814 31.879 0 47.82 0 11.631 0 31.469-3.462 41.429.813"/></g></svg>