<svg xmlns="http://www.w3.org/2000/svg" width="155.75" height="55.25" viewBox="0 0 155.75 55.25"><path fill="#E0D963" d="M12.475 15.052C15.996-.661 45.905 1.843 60.611 1.843c16.017 0 30.815 2.041 46.628 2.041 6.807 0 13.611.008 20.418 0 8.582-.008 13.091-2.055 15.312 6.092 3.225 11.828-3.593 28.447-.153 40.613-19.463-2.402-40.603-1.855-61.027-1.855-22.089 0-49.543-3.801-70.125-1.125-.592-8.858-1.599-21.807.811-32.557z"/><path fill="#3F352E" d="M143.681 51.333l-.942-.117c-13.565-1.676-28.048-1.906-41.677-1.906-3.23 0-6.461.014-9.684.027-3.207.014-6.407.025-9.588.025-8.074 0-16.662-.494-25.753-1.018-9.038-.521-18.381-1.061-27.107-1.061-6.65 0-12.27.312-17.183.949l-.666.088-.12-1.764c-.604-8.963-1.433-21.24.898-31.645C14.609 2.64 32.548 1.065 47.869 1.065c2.547 0 5.006.041 7.29.08 1.969.035 3.805.066 5.452.066 8.056 0 15.911.521 23.505 1.025 7.504.5 15.263 1.016 23.123 1.016l13.612.002 6.805-.002c1.542-.004 2.981-.074 4.25-.133 1.112-.055 2.137-.104 3.078-.104 4.27 0 7.046 1.109 8.595 6.791 1.623 5.953.744 13.164-.105 20.135-.866 7.096-1.76 14.432-.05 20.475l.257.917zm-42.619-3.285c13.362 0 27.545.223 40.911 1.803-1.454-6.088-.588-13.184.25-20.059.834-6.85 1.698-13.936.14-19.65-1.358-4.984-3.461-5.861-7.377-5.861-.922 0-1.928.049-3.017.102-1.284.062-2.738.133-4.308.133l-6.808.004-13.612-.004c-7.902 0-15.681-.518-23.206-1.018-7.575-.502-15.41-1.023-23.422-1.023-1.654 0-3.497-.031-5.474-.064-2.276-.039-4.728-.08-7.268-.08-14.85 0-32.225 1.463-34.778 12.861-2.292 10.227-1.47 22.395-.871 31.283l.027.426c4.81-.588 10.275-.875 16.681-.875 8.762 0 18.126.539 27.179 1.061 9.074.523 17.643 1.018 25.681 1.018 3.18 0 6.377-.014 9.583-.027 3.224-.016 6.457-.03 9.689-.03z"/><path fill="#3F352E" d="M107.325 53.007c-3.361 0-6.731-.127-10.064-.508-36.815-4.221-68.132-4.721-95.733-1.529l-.145-1.254c27.7-3.199 59.108-2.697 96.021 1.529 6.573.754 13.344.498 19.893.25 3.292-.125 6.695-.254 10.041-.254 2.096 0 4.639-.184 7.332-.377 6.719-.48 14.334-1.029 18.911.939l-.498 1.158c-4.295-1.844-11.747-1.309-18.323-.838-2.715.195-5.281.379-7.421.379-3.322 0-6.714.127-9.993.252-3.301.126-6.658.253-10.021.253z"/></svg>