<svg xmlns="http://www.w3.org/2000/svg" width="466.722" height="126.814" viewBox="0 0 466.722 126.814"><path d="M30.579 38.647H64.09v10.12H44.017v8.958h15.926v10.037H44.017v20.654H30.579zM76.943 38.647H90.38v39.649h21.153v10.12h-34.59zM140.562 38.647h11.363l20.904 49.769h-13.355l-4.23-10.617h-18.416l-4.147 10.617h-13.023l20.904-49.769zm11.447 30.442l-5.973-15.677-5.973 15.677h11.946zM190.824 48.767h-16.009v-10.12h45.455v10.12h-16.008v39.649h-13.438zM229.226 82.941l2.986-9.788c3.732 3.153 9.125 6.636 15.678 6.636 4.064 0 7.215-1.576 7.215-5.06 0-3.235-2.155-4.562-9.288-6.221-11.364-2.654-15.264-8.709-15.264-16.091 0-9.042 7.134-14.931 18.249-14.931 6.553 0 12.441 2.322 16.341 5.059l-2.737 8.959c-3.733-2.323-8.959-4.313-13.771-4.313-3.565 0-5.806 1.492-5.806 3.981 0 2.323 1.494 3.733 7.134 5.06 12.442 2.903 17.503 8.129 17.503 17.087 0 11.696-9.458 16.092-19.576 16.092-8.545 0-14.766-3.234-18.664-6.47"/><path fill="#871E7D" d="M325.493 88.416V48.104h-5.309v-7.881l18.248-2.737v50.93zM356.097 63.366c0-16.589 9.289-26.377 21.815-26.377 12.442 0 21.815 9.788 21.815 26.377 0 16.672-9.373 26.46-21.815 26.46-12.526 0-21.815-9.788-21.815-26.46m30.11 0c0-11.695-2.903-16.341-8.294-16.341-5.475 0-8.295 4.646-8.295 16.341 0 11.779 2.902 16.424 8.295 16.424 5.39 0 8.294-4.645 8.294-16.424M418.304 88.416V48.104h-5.308v-7.881l18.248-2.737v50.93z"/><path fill="#919191" d="M0 0h13.438v126.814H0zM285.887 0h11.075v44.074h-11.075zM285.887 82.74h11.075v44.074h-11.075zM13.438 0h271.268v13.438H13.438zM453.284 0h13.438v126.814h-13.438z"/><path fill="#919191" d="M0 0h466.722v13.438H0z"/><path fill="#919191" d="M298.144 0h155.141v13.438H298.144zM0 113.376h466.722v13.438H0zM-210.581-202.636h1.347v1.347h-1.347z"/></svg>