<svg xmlns="http://www.w3.org/2000/svg" width="1366" height="751" viewBox="0 0 1366 751"><path fill="#DDD86B" d="M1366 0H0v664.889c21.926.575 47.128-.42 66.583-4.762 30.473-6.802 60.454-17.068 91.352-6.788C897.319 899.356 1314.781 565.092 1366 546.265V0z"/><path fill="#DDD86B" d="M0 0h1367v751H0z"/><path fill="#FFF" d="M1475.366-114.177s16.282 131.846-103.342 162.908c-119.51 30.976-225.101 22.981-292.315 47.955-67.177 24.91-292.509 106.329-292.509 106.329s-79.314 42.051-151.765 35.178c-72.504-6.867-381.561-81.037-381.561-81.037L-34.16 65.504l-98.051 74.272s19.637 39.95 30.265 93.25c10.649 53.406 5.574 110.237 53.881 161.79C.227 446.407 81.288 539.128 166.969 587.256c85.791 48.038 184.935 108.358 282.707 118.11 97.744 9.785 237.621 14.126 326.68 3.954 89.164-9.997 216.846-48.835 284.302-84.194 67.497-35.358 142.395-90.05 223.242-144.817 80.672-54.851 134.998-144.632 173.827-214.483 38.847-69.738 47.695-121.069 62.911-175.588 15.157-54.563 23.832-87.557 48.175-96.698 24.39-9.207 40.375-60.17-2.221-74.43-42.687-14.272-85.185-23.708-85.185-23.708l-6.041-9.579z"/><path fill="#FFF" d="M1510.752-35.563c11.18 33.135-33.874 47.921-58.318 63.524-33.828 21.689-45.471 51.709-94.09 39.626 11.191-22.945 53.802-37.495 69.945-59.618 21.755-29.661 14.6-60.222 34.807-91.562 3.676.226 11.421 3.156 14.191 5.032-4.258 19.546 16.342 27.475 20.45 44.601M-45.711 31.095c-6.701 4.945-8.209 29.812-13.408 39.274-5.561 9.908-13.51 15.772-22.751 21.786-14.173 9.354-45.782 18.511-51.984 35.131 5.125 1.068 17.492-2.583 21.505 1.81 5.435 6.054-5.728 12.39-3.711 19.477 13.983-3.698 18.758-13.197 32.753-1.625 8.92 7.328 11.493 20.387 20.631 27.41 8.304 6.255 24.941 10.742 35.342 11.083 13.201.581 18.621-6.614 28.378-13.998 13.87-10.359 61.298-9.937 44.784-35.346-5.286-8.134-15.935-15.6-22.534-22.653-7.606-8.402-12.724-16.136-19.146-26.074C-7.776 68.682-26.229 45.364-43.63 35.314"/><path fill="#FFF" d="M-18.28 54.381c12.277 5.879 33.541 4.87 47.178 7.41 17.082 3.154 33.906 8.099 50.426 12.556 15.38 4.139 31.702 9.083 46.391 14.064 15.118 5.102 38.467 12.106 50.946 21.815-3.734 9.139-15.197 20.794-14.205 29.9 1.971 18.343-22.527 14.125-34.291 12.865-29.88-3.142-65.473-5.124-94.356 3.351 18.626-16.751-4.415-35.464-14.969-47.823C5.117 92.704-4.297 70.734-23.956 61.68"/><path fill="#FFF" d="M-12.684 63.554c25.933 3.495 57.628-2.619 81.568 10.961 11.213 6.357 14.861 18.399 20.299 28.963 4.986 9.791 15.012 17.356 19.551 25.516 13.564 24.677-32.013 19.961-44.601 21.351-14.841 1.542-16.412 3.44-21.657-10.877-3.272-9.035-6.363-17.752-10.771-26.354C23.187 96.521 3.959 78.092-9.99 66.651"/><path fill="#FFF" d="M100.102 154.379c-7.94.5-2.184 13.709-3.38 19.71-1.626 8.029-7.728 14.897-13.604 20.409-13.818 12.859-29.586 20.223-45.663 29.556-10.229 6.003-32.922 23.256-45.333 13.767-5.707-4.45-4.595-16.136-5.857-22.922-1.847-9.571-8.327-15.955-10.942-24.38-4.424-13.73 7.164-14.554 16.94-18.226 11.159-4.15 20.917-9.926 32.501-13.639 11.337-3.876 22.455-8.414 33.974-10.941 10.987-2.351 19.529-.223 30.306.291M148.217 273.853c-4.175-10.859-15.592-18.912-23.625-8.937-9.708 12.025 2.85 22.66 4.783 34.489 2.645 14.893-6.873 17.56-14.137 26.839-3.007 3.983-13.222 24.059-10.646 29.772 4.897 11.135 22.454 4.595 27.914-1.824 6.188-7.302 5.459-20.195 18.896-22.593 9.849-1.651 19.906 7.355 28.75 10.151 11.595 3.746 21.84 7.719 33.463 13.489 4.248 2.19 7.333 4.287 12.037 5.063-.221-6.143-14.322-15.304-19.743-20.478-7.407-7.081-13.834-15.016-20.675-22.249-6.606-7.183-31.489-43.141-37.892-39.646M674.467 592.053c-9.784-6.557-33.653-20.566-35.213-32.67 6.712.139 14.086 2.812 18.83-2.593-6.056-9.31-18.85-12.451-29.054-15.067-2.717-.745-9.643-2.956-12.143-2.459-8.919 1.822-3.706 4.142-8.025 7.977-4.974 4.559.094 5.545-8.753 5.253-5.163-.183-11.122-6.411-16.354-7.655-7.315-1.667-21.465-1.424-27.725 3.543-14.567 11.602-.774 13.972 6.688 22.009 10.933 11.767-.408 12.813-9.358 19.256-20.869 15.397 7.406 35.68 15.77 51.337 2.812 5.182 5.191 18.381 11.376 19.837 11.425 2.623 4.323-11.646 2.212-16.967-8.65-21.578-4.014-25.138 12.194-39.821 6.904-6.337 12.416-12.434 17.785-20.322 2.429-3.758-3.999-5.897 1.94-8.991 2.763-1.514 10.813 2.274 13.637 2.864 8.446 1.873 40.263 19.682 42.16 13.531"/><path fill="#FFF" d="M1526.297 85.342s-1.563 7.303-5.217 20.692c-3.632 13.506-9.203 33.214-18.114 57.633-8.765 24.622-20.457 54.052-36.104 86.894-15.637 32.953-35.071 69.187-59.546 106.869-24.466 37.605-53.745 76.907-88.942 114.712-35.353 37.688-76.339 74.307-123.289 106.069-46.867 31.763-99.06 59.392-155.285 79.228-14.118 4.656-28.347 9.269-42.702 13.666-14.549 3.705-28.938 7.526-43.81 11.099-14.489 2.977-28.899 6.231-43.571 9.023-14.632 2.732-29.47 5.744-44.197 8.098-59.102 9.662-118.799 15.979-177.802 18.226-59.116 2.528-117.413-.337-173.283-7.147-14.062-1.424-27.792-3.904-41.479-5.979-13.648-2.273-27.107-4.874-40.386-7.717-13.19-3.171-26.271-5.921-39.088-9.614a2244.608 2244.608 0 0 1-19.055-5.152c-6.234-1.957-12.423-3.922-18.577-5.81-3.124-.939-6.197-1.888-9.243-2.812a368.223 368.223 0 0 0-9.145-3.197c-5.917-2.092-11.885-4.177-17.78-6.299-5.97-2.079-11.679-4.534-17.447-6.699-5.698-2.401-11.492-4.408-17.032-6.966-11.039-5.046-22.141-9.483-32.443-14.862-5.33-2.596-10.545-5.16-15.709-7.667-5.137-2.546-10.079-5.364-15.131-8.033-39.627-21.152-73.88-44.285-102.61-66.581-28.972-22.266-52.258-43.797-70.863-62.009-9.103-9.383-17.403-17.451-24.055-25.138-6.826-7.449-12.663-13.78-17.099-19.119-9.02-10.596-13.863-16.262-13.863-16.262l14.903 15.178c9.827 9.981 24.573 24.035 43.816 41.341 19.55 17.013 43.95 36.771 73.359 57.524 29.471 20.529 64.126 41.493 103.714 60.964a799.012 799.012 0 0 0 132.511 50.872c48.398 13.937 100.823 24.199 155.444 29.99 6.856.569 13.724 1.335 20.607 2.05 6.861.438 13.88.979 20.811 1.514 13.896 1.081 27.961 1.272 42.138 1.959 7.061.348 14.161.129 21.278.202 7.146.036 14.246.137 21.36.016 7.19-.152 14.396-.339 21.677-.43l10.699-.139 10.883-.596c57.781-2.516 116.285-9.095 174.374-18.883 14.476-2.248 28.867-5.024 43.248-7.525 14.459-2.807 29.087-5.915 43.517-8.879 13.887-3.225 28.053-6.975 42.006-10.414a2201.017 2201.017 0 0 0 41.169-12.842c13.376-5.219 26.861-10.004 39.978-15.42a2186.534 2186.534 0 0 0 19.368-8.646c6.533-2.898 12.967-5.602 19.216-8.94 6.222-3.168 12.444-6.336 18.648-9.614 3.099-1.595 6.247-3.149 9.311-4.824l8.969-5.235c6.028-3.543 11.984-7.127 17.949-10.57 5.929-3.34 11.529-7.445 17.159-11.129 45.739-30.105 86.589-64.218 121.934-100.096 35.217-35.953 65.312-73.263 90.686-109.314a1037.795 1037.795 0 0 0 63.343-102.75c16.976-31.814 30.262-60.208 40.443-84.046 10.003-23.967 17.229-43.051 21.763-56.144 4.539-13.184 6.586-20.32 6.586-20.32z"/><path fill="#FFF" d="M808.221 699.162s2.43-1.237 6.741-3.074c4.325-1.778 10.631-4.105 18.162-6.408 3.829-1.156 7.96-2.478 12.414-3.608 4.286-1.216 8.912-2.516 13.799-3.608 9.596-2.326 19.93-4.602 30.284-6.709 10.345-1.887 20.688-3.74 30.45-5.268 4.892-.777 9.61-1.37 14.014-2.034 4.536-.661 8.834-1.191 12.722-1.665 3.875-.499 7.521-.938 10.651-1.36 3.22-.408 5.979-.695 8.262-1.087 2.322-.319 4.072-.578 5.222-.919 1.29-.219 1.947-.435 1.947-.435s-.568.368-1.629 1.08c-.984.679-2.641 1.6-4.881 2.564-4.213 1.951-10.486 4.352-18.061 6.797-7.596 2.471-16.536 4.902-26.2 7.324-9.587 2.434-19.889 4.668-30.269 6.623-10.373 2.062-20.772 3.771-30.513 5.276-9.738 1.503-18.908 2.769-26.715 3.668-3.955.487-7.635.845-10.824 1.091-3.07.475-5.95.723-8.196 1.006-4.668.527-7.38.746-7.38.746zM-11.227 87.149s3.78-1.927 10.463-3.226c6.646-1.263 16.317-1.627 27.888.73 11.701 1.985 25.891 4.837 42.304 7.967 8.137 1.477 16.79 3.321 25.898 5.348 9.048 1.933 18.656 4.097 28.601 6.301 19.922 4.755 41.37 10.008 64.002 16.281 11.308 2.986 22.872 6.525 34.65 9.945 11.75 3.583 23.824 7.302 35.962 11.242 24.256 7.792 49.209 16.661 74.318 25.828 25.158 9.157 50.569 18.865 76.013 27.622 25.463 8.602 51.668 15.578 77.482 21.68 25.795 6.133 51.563 11.022 76.575 14.458 25.061 3.564 49.307 5.902 72.504 6.867 23.005 1.236 44.893.587 64.967-1.257 20.027-1.834 38.131-4.492 54.184-7.038 16.078-2.717 29.893-5.523 41.452-7.835 2.802-.478 5.508-1.076 7.962-1.569 2.588-.632 5.099-1.138 7.44-1.673 4.22-1.122 7.814-1.947 10.881-3.11 6.021-2.174 9.294-3.315 9.294-3.315s-.699.599-1.856 1.788c-1.263 1.064-2.897 2.866-5.577 4.906-2.544 2.028-6.013 4.412-10.38 6.708-2.043 1.008-4.246 2.194-6.73 3.309-2.448 1.006-5.076 2.202-7.952 3.354-11.226 4.566-25.378 8.872-41.841 11.996-16.592 3.366-35.459 5.375-55.98 6.037-20.708.533-42.994.356-66.476-.673-23.479-1.165-48.123-3.702-73.479-7.426-25.37-3.647-51.364-8.466-77.528-14.403-26.209-6.067-52.633-12.921-78.586-21.543-26.044-8.418-51.496-17.875-76.777-26.162-25.209-8.503-50.284-16.23-74.576-23.131a1984.762 1984.762 0 0 0-70.617-18.549c-11.349-2.738-22.263-5.458-32.88-7.87-10.666-2.54-20.999-4.84-30.845-7.117-19.864-4.26-37.976-8.417-54.09-11.706-16.111-3.305-30.076-6.482-41.768-8.604-11.741-1.927-20.489-5.76-26.284-9.317-5.851-3.596-8.618-6.843-8.618-6.843zM-38.278 205.592s1.407-1.29 4.02-3.875c2.719-2.356 6.652-5.966 12.364-9.91 5.525-3.797 12.761-8.077 21.626-12.071 8.667-4.042 19.024-7.383 30.611-10.135 11.419-2.776 24.182-4.599 37.729-5.221 13.414-.629 27.666-.113 42.275 1.051 14.577 1.206 29.466 2.763 44.817 5.332 15.258 2.508 30.813 7.364 45.215 14.053 14.374 6.716 27.896 15.215 40.309 24.378 12.439 9.191 23.949 18.982 34.78 28.763 10.774 9.738 20.783 19.583 30.361 28.739 4.771 4.623 9.445 8.985 13.899 13.327 4.46 4.21 8.89 8.4 13.123 12.225 8.422 7.705 16.352 14.559 23.446 20.781a186.67 186.67 0 0 1 17.716 16.894c4.625 5.011 7.94 9.283 9.996 12.434 2.09 2.982 3.063 4.766 3.063 4.766s-5.989-4.878-16.259-13.525c-5.24-4.272-11.821-9.159-19.103-15.187-7.192-5.835-15.502-12.543-24.351-20.093-17.718-15.022-37.093-34.016-58.616-53.065-10.748-9.449-22.013-19.074-34.32-27.487-12.334-8.557-25.398-16.356-39.111-22.197-6.878-2.864-14.026-5.278-21.182-6.792-3.566-.888-7.294-1.426-10.784-1.982l-5.236-.602-5.75-.52c-7.089-.505-14.781-.799-21.979-1.145-7.229-.372-14.424-.729-21.428-.892-14.048-.417-27.467.026-40.105.391-12.619.283-24.538.595-35.363 1.686-5.576.521-10.744 1.247-15.77 2.023-4.842.78-9.644 1.753-13.982 2.65-8.679 2.066-16.299 4.43-22.586 6.729-3.131 1.068-5.771 2.215-8.221 3.226-2.427 1.103-4.439 2.003-6.045 2.923-3.382 1.621-5.159 2.328-5.159 2.328z"/><path fill="#FFF" d="M-18.999 190.753s.898 2.15 2.406 5.957c1.588 3.681 3.848 9.578 6.126 16.221 2.376 6.702 4.66 14.621 7.301 23.072 2.583 8.41 5.38 17.288 8.289 26.066 1.624 4.348 3.14 8.709 4.983 12.943 1.561 4.307 3.559 8.185 5.318 12.212 2.162 3.771 4.029 7.659 6.191 10.921a613.957 613.957 0 0 0 3.038 4.987 160.197 160.197 0 0 1 3.133 4.418c1.982 2.859 4.156 5.275 5.916 7.428a97.701 97.701 0 0 1 2.629 3.056 97.982 97.982 0 0 0 2.354 2.352c2.859 2.993 4.55 4.599 4.55 4.599s-1.803-1.456-4.853-4.175c-.812-.664-1.741-1.409-2.627-2.223-.868-.838-1.792-1.912-2.815-2.861-1.975-2.048-4.279-4.269-6.57-7.086-1.084-1.31-2.234-2.72-3.542-4.155-1.075-1.584-2.349-3.13-3.567-4.764-2.422-3.224-4.596-6.912-7.062-10.715-2.112-3.781-4.557-7.746-6.508-12.011-2.131-4.158-4.065-8.453-6.097-12.735-3.701-8.689-7.163-17.402-10.33-25.637-3.309-8.144-6.319-15.75-9.058-22.071-2.81-6.476-5.03-11.333-7.003-15.11-1.895-3.717-2.9-5.708-2.9-5.708-1.467-2.96-.308-6.527 2.622-8.017 2.894-1.504 6.443-.261 8.03 2.59.003.19.053.316.046.446z"/><path fill="#FFF" d="M25.747 283.818s1.806.993 5.119 3.079c.833.497 1.583 1.114 2.616 1.854 1.021.817 2.084 1.888 3.263 3.132 2.022 2.356 4.952 5.25 6.887 8.445 4.792 6.319 8.734 14.415 12.491 23.559 3.663 9.132 6.318 18.919 9.937 28.242 2.021 5.264 4.017 11.341 6.495 16.028 2.417 4.903 4.406 10.151 7.523 15.87a1370.03 1370.03 0 0 0 4.282 8.526 340.246 340.246 0 0 1 4.812 8.792c.763 1.508 1.604 2.962 2.352 4.541l1.222 2.153.238.623c.119.088-.283-.564-.169-.211l.155.109.215.335.691 1.085c1.681 3.112 3.582 6.228 5.388 9.345l2.706 4.755 2.792 4.306a671.597 671.597 0 0 0 5.497 8.873c4.067 5.984 8.108 12.142 12.36 18.127 8.772 12.104 18.139 24.087 28.132 35.696 9.846 11.687 20.367 22.803 30.921 33.891 10.531 10.844 21.018 21.566 31.077 31.984 9.968 10.358 19.899 20.315 28.926 30.01 9.202 9.631 17.839 18.586 26.292 26.494 8.472 7.828 16.485 14.698 24.186 20.014 7.613 5.357 14.793 9.347 20.812 12.061 6.308 2.51 11.451 4.014 14.973 4.591 3.506.516 5.473.778 5.473.778s-1.926-.185-5.479-.509c-3.626-.565-8.765-1.882-15.183-4.231-6.158-2.589-13.588-6.354-21.459-11.473-7.886-5.181-16.357-11.592-25.27-19.056-8.897-7.487-18.082-16.056-27.745-25.097-9.584-9.22-19.995-18.51-30.685-28.229-10.67-9.816-21.708-19.832-32.94-30.075-11.286-10.242-22.838-20.491-34.058-31.269A634.358 634.358 0 0 1 124 484.684c-5.648-5.369-10.92-11.073-16.198-16.642-5.337-5.614-10.309-11.425-15.315-17.123a623.972 623.972 0 0 0-7.156-9.041 279.573 279.573 0 0 0-3.532-4.42 93.199 93.199 0 0 0-3.232-4.394c-2.153-2.891-4.223-5.776-6.285-8.659-2.385-3.332-4.087-6.09-6.167-9.075-1.928-2.965-3.911-5.834-5.643-8.804-1.72-3.044-3.521-6.051-5.247-8.96-3.472-5.803-6.485-12.043-9.459-18.035-3.168-6.033-5.167-11.522-7.396-16.885-.503-1.284-1.151-2.697-1.606-3.976l-.41-.974-.298-.489.02-.215-.239-.626-.08-.15-.59-2.06c-.831-2.83-1.699-5.599-2.353-8.155-1.491-5.3-2.554-10.127-3.588-14.648-2.229-8.842-3.78-16.509-5.71-22.359-.861-3.166-1.769-5.365-2.497-7.433-.38-1.009-.631-2.008-1.02-3.012-.444-.911-.938-1.89-1.442-2.66-1.526-3.324-2.399-5.128-2.399-5.128-1.375-2.895-.155-6.413 2.73-7.837 1.75-.865 3.719-.745 5.303.059l1.556.835zM152.623 258.295s4.199.785 9.902 2.724c2.912.922 6.228 2.038 9.793 3.524 1.712.794 3.639 1.428 5.413 2.468 1.78.836 3.642 1.891 5.439 2.889 1.707 1.022 3.603 2.143 5.25 3.361 1.737 1.229 3.213 2.548 4.74 3.813 1.533 1.314 2.769 2.792 3.975 4.189 1.167 1.37 2.318 2.783 3.094 4.202a22.26 22.26 0 0 1 1.997 3.884c.601 1.151.889 2.226 1.204 3.135.444 1.818.579 2.794.579 2.794s-.701-.689-1.938-1.973c-1.31-1.43-3.051-3.035-5.289-4.848-2.218-1.892-4.911-3.896-7.914-5.839-1.459-1.035-3.032-1.912-4.652-2.976-1.641-1.035-3.336-1.993-5.018-2.965-3.406-1.962-6.851-3.947-10.044-5.935-3.218-1.917-6.188-3.837-8.706-5.765-4.957-3.512-7.825-6.682-7.825-6.682zM220.187 301.447c2.628.669 5.167 1.604 7.6 2.553 2.513.96 4.855 1.978 7.182 3.262a46.578 46.578 0 0 1 6.77 4.57c1.018.813 1.984 1.777 2.957 2.783.824 1.087 1.755 2.163 2.488 3.319l.047.129c.139.188.15.558-.08.756-.045.062-.135.316-.303.428-.317.189-.193.272-.298.419-.046.252.065.421.048.772l.158.748-.506-.584c-.119-.221-.431-.351-.489-.664-.146-.374-.106-.809-.078-.975.144-.343.192-.725.331-.998l-.017.865c-1.089-.596-2.034-1.448-3.136-2.14l-3.25-2.115c-1.047-.654-2.11-1.271-3.214-1.916a65.612 65.612 0 0 1-3.382-1.994 160.672 160.672 0 0 1-6.592-4.159c-2.155-1.535-4.256-3.02-6.236-5.059z"/><path fill="#FFF" stroke="#FFF" stroke-linecap="round" stroke-linejoin="round" stroke-miterlimit="10" d="M281.959 341.489c-.119 4.031.9 7.945 3.136 10.71"/><path fill="#FFF" d="M523.858 498.084s4.081 1.655 10.014 4.31c1.441.601 3.096 1.42 4.776 2.149 1.691.84 3.567 1.345 5.396 2.183 3.82 1.376 7.76 3.036 11.729 4.71 3.979 1.406 8.15 2.809 11.924 4.253 1.814.599 3.699 1.425 5.464 2.088 1.763.474 3.439 1.071 4.959 1.507 6.156 2.075 10.255 3.707 10.255 3.707s-4.313-.677-10.699-2.053c-3.239-.702-6.938-1.546-10.844-2.802-3.838-1.222-7.999-2.569-12.026-3.968-4.037-1.719-8.124-3.422-11.897-5.19-1.867-.724-3.736-1.5-5.297-2.524-1.558-.961-3.153-1.859-4.484-2.619-5.609-3.247-9.27-5.751-9.27-5.751zM615.84 525.146s2.631 1.452 7.271 3.791c1.079.668 2.397 1.325 3.783 2.132 1.457.53 3.088 1.132 4.771 1.784 3.361 1.378 7.091 3.015 11.339 4.112a95.12 95.12 0 0 1 6.817 1.774c2.331.593 4.764.954 7.181 1.474 5.088 1.139 10.351 1.958 15.905 2.686 5.488.885 11.243 1.354 17.1 2.039 5.812.508 11.76 1.065 17.573 1.63 5.963.667 11.963.718 17.782.364 5.844-.518 11.538-1.133 17.336-1.326 5.586-.149 11.117.357 16.369 1.01 5.254.764 10.209 1.761 14.736 3.235 2.299.624 4.421 1.494 6.312 2.377 2.079.739 3.966 1.808 5.714 2.766 3.334 1.918 6.199 3.94 8.181 5.98a25.026 25.026 0 0 1 4.25 4.89c.77 1.227 1.314 1.887 1.314 1.887.644.822.393 2.023-.408 2.639-.685.386-1.591.375-2.142-.014l-.295-.162s-.517-.365-1.725-1.176c-1.116-.744-2.621-1.909-4.787-2.981-1.089-.585-2.242-1.276-3.633-1.762-1.331-.57-2.664-1.334-4.378-1.812-3.159-1.095-6.763-2.247-10.922-2.958-4.048-.991-8.685-1.405-13.557-2.075-4.961-.537-10.149-1.076-15.651-1.822-5.469-.724-11.197-1.859-17.025-2.979-5.977-1.035-11.924-2.239-17.737-3.068-5.909-.81-11.787-1.602-17.64-2.371-5.762-.889-11.521-1.59-17.085-2.704-5.512-.98-10.744-1.912-15.728-3.199-2.433-.629-4.941-1.08-7.233-1.84-2.335-.699-4.595-1.377-6.689-2.093-4.373-1.182-8.09-2.898-11.388-4.24-1.707-.748-3.246-1.334-4.738-1.94-1.393-.808-2.708-1.464-3.854-2.044-4.488-2.552-7.119-4.004-7.119-4.004zM862.839 569.675s6.386.778 17.601 2.155c2.819.353 5.959.694 9.292 1.143 3.356.417 7.056.801 10.961.967 7.841.541 16.764 1.154 26.396 1.727 9.575.024 20.107.186 31.157.253 11.057-.379 22.757-.727 34.835-1.519 5.998-.545 12.117-1.051 18.357-1.608 3.027-.409 6.13-.537 9.311-.89 3.075-.471 6.238-.873 9.342-1.326 6.29-.884 12.688-1.785 18.937-2.556 6.351-1.162 12.73-2.301 19.064-3.428 6.377-1.011 12.619-2.42 18.91-3.815 6.221-1.43 12.483-2.661 18.639-4.193 12.234-3.15 24.371-6.154 35.902-9.668 11.704-3.301 22.636-7.247 33.149-10.613 10.482-3.849 20.294-7.176 29.279-10.898 8.947-3.338 17.065-6.812 24.393-9.927 7.162-3.004 13.34-5.99 18.457-8.251 5.154-2.373 9.062-4.216 11.762-5.585a400.037 400.037 0 0 1 4.217-1.941l.072-.101c1.502-.703 3.295-.067 3.87 1.432.785 1.469.115 3.186-1.292 3.878l-.02.033s-1.538.745-4.294 1.928c-2.745 1.304-6.771 3.245-11.972 5.486-5.229 2.236-11.421 5.155-18.75 8.091-7.322 2.98-15.625 6.322-24.646 9.701-9.048 3.549-19.075 6.757-29.567 10.462-10.664 3.316-21.751 6.972-33.591 10.076-11.567 3.499-23.802 6.332-36.205 9.327-6.132 1.5-12.405 2.623-18.786 3.947-6.267 1.312-12.629 2.548-19.086 3.548-6.339 1.079-12.725 2.03-19.105 3.177-6.343.703-12.766 1.5-19.008 2.32-3.212.283-6.352.712-9.48 1.134-3.099.329-6.279.485-9.317.706-6.193.497-12.391.991-18.494 1.422-12.028.603-23.757.779-34.798 1.082-11.154-.236-21.6-.518-31.377-.771-9.618-.792-18.498-1.427-26.295-2.022-4.022-.244-7.59-.629-10.932-1.262-3.367-.471-6.553-.81-9.348-1.241a6163.57 6163.57 0 0 1-17.54-2.38zM-27.198 212.761l4.738-5.269c1.532-1.711 3.549-3.198 5.346-4.767 3.722-3.063 7.613-5.781 11.731-8.308 3.947-2.542 8.078-4.948 11.995-7.384a140.243 140.243 0 0 0 11.485-7.569l5.3-4.191 2.188-2.243c.456-.774.85-1.268 1.296-1.954 1.421-2.92 1.181-5.927-.497-9.481-1.594-3.425-4.247-7.031-7.091-10.426l-8.855-11.028-17.775-21.829c-6.321-6.662-12.381-13.708-18.639-20.608l-4.681-5.373-4.716-5.851-8.326-11.389c-2.698-3.789-5.529-7.344-8.399-10.886l-4.398-4.943c-1.592-1.493-3.256-2.949-4.843-4.441l6.894-1.871-1.334 3.626c-.334 1.305-.768 2.561-1.048 3.922l-1.619 8.665c-.35 1.529-.561 2.977-.958 4.573-.464 1.491-.119 3.384-.78 4.969-.599 1.488-.473 3.371-1.34 4.859l-1.21 2.148-1.04.182c-.261.363-.567.149-.668.297l-.93.794c-1.686 2.377-3.959 4.741-6.013 6.94l-6.069 6.43-2.807 3.446-2.622 3.434-2.075 3.833-1.454 4.178.637-4.435 1.396-4.359 1.998-4.107 2.468-3.865c1.45-2.624 3.29-5.027 5.05-7.387 1.614-2.466 3.188-4.683 4.738-7.319l.56-.985c-.021-.102.304-.424.149-.344l.213-.493.922-1.813c.51-1.098.828-2.522 1.144-3.803.467-1.175.53-2.681.823-3.936.199-1.368.25-2.921.424-4.266.174-2.886.437-5.908.817-9.017.207-1.586.508-3.103.867-4.771.401-1.589.974-3.243 1.468-4.9l1.79-5.81 4.979 3.99c1.994 1.634 4.06 3.106 5.947 4.76 1.829 1.663 3.729 3.369 5.424 5.166a237.178 237.178 0 0 1 9.424 11.059l8.791 10.989 4.14 5.175 4.661 5.088c6.483 6.965 13.048 13.992 19.358 21.204l17.382 22.189 8.593 11.396c2.876 3.867 5.75 8 7.868 13.197 1.067 2.55 1.614 5.58 1.604 8.684-.03 3.265-1.228 6.44-2.737 9.016-.846 1.32-1.886 2.597-2.865 3.723l-2.997 2.545-6.126 4.144c-4.321 2.419-8.638 4.699-12.819 6.666-4.318 2.101-8.766 3.799-12.854 5.834-2.175 1.014-4.337 1.992-6.269 3.044-2.075 1.127-4.381 2.053-6.201 3.27-1.958 1.213-3.964 2.304-5.898 3.682l-5.655 4.304z"/><path fill="#FFF" d="M-56.389 84.044s2.076-1.905 5.567-5.409c1.607-1.884 3.636-4.099 6.256-6.444 2.577-2.277 5.419-5.189 10.406-6.687 2.509-.646 5.875-.036 8.212 1.891a17.196 17.196 0 0 1 4.867 6.65l.865 1.751c.167.349.275.516.438.999l.293.801c.442 1.187.932 2.36 1.361 3.563a228.077 228.077 0 0 1 2.415 7.604c1.434 5 2.976 10.108 4.901 14.994 2.061 4.832 4.506 9.492 7.799 13.611 3.212 4.286 7.042 8.559 10.29 13.319 3.38 4.639 6.277 10.025 7.203 16.251.281 3.214.114 6.473-1.167 9.312l-.113.293.503.45.401.594-.023.035-.196.405-.523.866c-.26.493-1.161.857-1.747 1.5-.928 1.309-2.162 2.076-3.108 2.961-3.751 3.686-7.943 6.047-11.637 8.234-7.395 4.307-13.847 7.224-18.151 9.555-2.143 1.223-3.791 2.069-4.991 2.86-1.081.693-1.689 1.095-1.689 1.095s.473-.542 1.454-1.538c.844-.864 2.347-2.21 4.302-3.81 3.864-3.005 9.729-7.024 16.417-12.018 3.316-2.485 6.791-5.321 9.731-8.628.762-.822 1.459-1.608 1.905-2.438.236-.333.554-.647.758-1.325l.46-.778.156-.481.067-.094c.067-.22-.11.289-.091.252l.008-.125.021-.167c.589-1.86.74-3.819.399-5.973-.838-4.292-3.395-8.613-6.542-12.807-3.01-4.327-6.725-8.428-10.424-13.062-3.668-4.69-6.39-10.188-8.485-15.613-2.176-5.361-3.326-10.894-4.62-15.962-.583-2.464-1.234-4.897-1.898-7.374-.362-1.166-.729-2.386-.961-3.604l-.293-.941c-.078-.142-.146-.373-.31-.718l-.46-1.478c-.747-2.169-1.952-3.757-2.9-5.065-1.25-1.066-2.47-1.479-4.107-1.351-3.276.498-6.614 2.703-9.353 4.552-2.785 1.999-5.169 3.692-7.133 5.173-1.968 1.488-3.715 2.531-4.738 3.266-1.205.61-1.795 1.053-1.795 1.053z"/><path fill="#FFF" d="M-14.081 84.028s1.934 1.198 5.298 3.345c1.623.927 3.638 2.087 6.044 3.323 2.224 1.313 5.002 2.736 7.923 4.162 2.904 1.507 6.169 3.147 9.556 4.947 3.355 1.837 6.955 3.652 10.474 5.963 3.655 2.314 7.247 4.863 10.666 8.017 3.522 2.961 6.538 6.563 9.332 10.356l1.906 3.044.459.649c.362.577.362.577.526.926l.768 1.499c1.095 1.734 2.012 4.118 2.93 6.37 1.677 4.521 2.432 9.259 2.184 13.929-.265 4.696-1.771 9.061-3.664 12.702-1.882 3.685-4.495 6.536-6.843 9.075-4.971 4.883-9.764 7.973-13.094 9.903-1.673 1.01-3.152 1.606-3.982 2.201-.955.509-1.458.699-1.458.699s1.658-1.565 4.523-4.187c1.431-1.319 3.049-2.948 4.875-4.812 1.833-1.95 3.713-4.215 5.641-6.737 1.779-2.578 3.746-5.481 5.018-8.688 1.27-3.207 1.978-6.723 2.118-10.329-.147-3.659-1.121-7.367-2.41-10.972l-1.088-2.654c-.451-.906-1.104-1.914-1.532-2.859l-.852-1.378c-.119-.217-.425-.756-.357-.582l-.392-.679-1.736-2.512c-2.391-3.387-5.005-6.607-8.043-9.399-2.935-2.813-6.094-5.509-9.409-7.861-6.452-4.755-13.06-8.892-18.46-12.813A112.798 112.798 0 0 1-9.792 88.53c-1.434-1.381-2.365-2.583-3.129-3.308-.713-.736-1.16-1.194-1.16-1.194zM-8.111 208.573s-.024.752-.219 1.99c-.009 1.362.006 3.147.051 5.473.312 4.322.981 10.274 2.221 16 .7 2.872 1.449 5.684 2.425 8.302.463 1.284.988 2.478 1.505 3.612.481 1.128 1.174 2.212 1.707 3.133.618.994 1.184 1.808 1.748 2.432.582.6 1.092 1.228 1.701 1.655 1.067.62 1.616 1.013 1.616 1.013s-.662-.291-1.741-.959c-1.087-.723-2.499-1.946-3.852-3.781-.541-.98-1.323-1.94-1.822-3.167a16.52 16.52 0 0 1-1.642-3.678c-1.082-2.596-1.879-5.528-2.552-8.381-.595-2.893-1.154-5.844-1.395-8.663-.327-2.692-.423-5.329-.474-7.642.055-2.198.208-4.105.341-5.376.192-1.237.382-1.963.382-1.963zM23.008 188.52s.763.725 1.929 1.909c1.258 1.266 2.964 2.649 4.384 4.07 1.712 1.449 3.367 2.976 4.557 4.01 1.196 1.213 2.065 1.915 2.065 1.915s-.98-.551-2.385-1.461c-1.416-.907-3.123-2.301-4.819-3.638-.721-.789-1.609-1.599-2.343-2.312-.767-.718-1.341-1.58-1.786-2.176-1.005-1.354-1.602-2.317-1.602-2.317zM1.141 200.234s.066.87.185 2.375c.106.758.191 1.595.259 2.597.016 1.018.371 2.182.572 3.515.224 1.161.492 2.586.806 3.955.397 1.377.915 2.834 1.453 4.32.415 1.482.981 3.062 1.744 4.564.707 1.458 1.393 3 2.219 4.538.85 1.385 1.73 2.783 2.65 4.256.752 1.449 1.917 2.644 2.857 3.76 1.204 1.261 1.91 2.587 3.043 3.441 1.056 1.017 2.056 2.001 2.994 2.801.87.9 1.842 1.586 2.738 2.128.838.558 1.65 1.083 2.236 1.489 1.224.775 1.925 1.276 1.925 1.276s-.682-.393-1.955-1.11c-.702-.361-1.472-.817-2.43-1.4-.411-.201-.906-.462-1.405-.722-.57-.362-.961-.777-1.413-1.237-.999-.842-2.121-1.643-3.148-2.641-1.259-.932-2.129-2.15-3.172-3.391-1.03-1.184-2.23-2.45-3.041-3.889-.946-1.495-1.854-2.861-2.764-4.286-.833-1.595-1.462-3.086-2.18-4.658-.769-1.55-1.31-3.118-1.777-4.639-.404-1.562-.993-2.985-1.27-4.459-.271-1.424-.428-2.81-.662-4.026-.254-1.327-.496-2.456-.356-3.488.04-1.032.016-1.964.002-2.709a42.411 42.411 0 0 1-.11-2.36zM26.875 224.101s-.391-.282-1.18-.842c-.721-.595-1.975-1.079-2.98-2.243-.609-.618-1.19-1.216-1.803-1.968-.66-.606-1.127-1.431-1.631-2.199-1.233-1.618-2.091-3.501-3.05-5.371-.784-1.922-1.599-3.925-2.134-5.755-.713-1.825-1.073-3.64-1.482-5.12-.708-3.054-1.13-5.046-1.13-5.046s.665 1.975 1.693 4.896a159.562 159.562 0 0 0 1.651 5.009c.66 1.845 1.464 3.684 2.302 5.65.882 1.906 1.61 3.789 2.82 5.293.568.754.938 1.578 1.513 2.254.568.678 1.056 1.341 1.599 1.861.915 1.293 2.125 1.969 2.734 2.586.749.625 1.078.995 1.078.995zM46.777 226.372s-.655-.367-1.65-1.024c-.529-.336-1.05-.701-1.824-1.16-.7-.491-1.597-.91-2.276-1.747-.793-.756-1.623-1.52-2.458-2.396-.946-.801-1.663-1.904-2.413-2.979-.841-1.009-1.772-2.076-2.373-3.286a105.8 105.8 0 0 1-2.24-3.547c-2.684-4.965-5.173-9.836-7.52-13.418-1.019-1.724-2.182-2.917-2.997-3.946-.636-.911-1.107-1.604-1.107-1.604s.516.636 1.296 1.457c.693.956 2.143 2.069 3.28 3.883a69.023 69.023 0 0 1 3.88 5.99c1.321 2.264 2.654 4.76 4 7.178.789 1.148 1.427 2.374 2.154 3.533.723 1.242 1.52 2.179 2.23 3.362.883.95 1.449 2.077 2.274 2.85.841.868 1.599 1.732 2.322 2.464 1.339 1.59 2.915 2.386 3.884 3.217.952.716 1.538 1.173 1.538 1.173zM31.104 190.236s.935.43 2.699 1.091c.777.456 1.935.685 3.099 1.105 1.162.365 2.644.585 4.163 1.031 3.069.619 6.634 1.139 10.546 1.803 1.905.348 3.865.738 5.934 1.295 1.028.223 1.923.443 2.985.875l2.937 1.213c1.867.914 3.879 1.741 5.595 2.602 1.822 1.108 3.526 2.184 5.248 3.169 3.429 1.927 6.479 4.136 9.002 5.792 5.288 3.428 8.796 5.822 8.796 5.822s-.955-.583-2.479-1.403c-1.617-1.003-3.971-2.255-6.578-3.927-2.672-1.57-5.724-3.779-9.048-5.595a211.076 211.076 0 0 1-5.271-3.004c-1.814-.919-3.813-1.647-5.696-2.53l-2.757-1.266c-.993-.34-2.019-.694-3.041-.921-1.895-.619-3.9-1.075-5.785-1.454-3.883-.693-7.404-1.271-10.491-2.005-1.591-.394-3.031-.688-4.196-1.233-1.148-.446-2.361-.67-3.081-1.135-1.589-.852-2.581-1.325-2.581-1.325zM314.043 662.11s-10.131-4.584-27.903-12.563c-8.697-4.161-19.561-9.125-31.694-15.069-12.152-6.057-25.823-12.739-40.579-20.733-7.395-3.863-14.973-8.054-22.812-12.521-7.928-4.287-15.864-9.135-24.085-13.966-16.296-9.866-33.58-20.469-50.802-32.438-17.212-11.938-34.45-24.795-51.375-38.81-16.93-13.997-33.64-28.954-49.296-45.077-15.732-15.947-30.33-33.111-43.888-50.385-6.72-8.69-13.138-17.544-19.673-25.73-1.629-2.076-3.234-4.121-4.979-6.048-1.699-1.984-3.415-4.012-5.133-5.964-3.404-4.422-6.807-8.703-9.785-13.331-12.226-17.796-20.911-37.297-26.264-56.436-5.472-19.14-7.812-37.873-8.272-55.195-.294-8.608.047-16.954.551-24.817.6-7.796 1.803-15.62 2.332-21.454.93-12.132-.812-22.505-3.187-30.942-2.402-8.466-5.505-15.226-6.975-21.983-.734-3.214-1.155-6.753-.839-9.454.154-1.306.369-2.383.555-3.031.133-.774.238-1.108.238-1.108 1.394-5.774 7.161-9.137 12.767-7.765 3.735.916 6.577 3.801 7.602 7.308l2.147 7.282s.032-.302.009-.268c0 0-.18.515.051 2.372.538 3.433 3.289 10.957 5.71 21.261 2.495 10.266 4.231 23.547 2.312 38.358-.93 7.695-2.328 13.923-3.053 21.313a184.95 184.95 0 0 0-1.353 22.787c-.309 15.958 1.399 33.335 5.848 50.96 4.43 17.721 11.795 35.682 22.541 52.472 2.692 4.19 5.62 8.186 8.681 12.181 1.537 2.142 3.21 4.103 4.874 6.196 1.722 2.273 3.294 4.436 4.948 6.617 6.299 8.894 12.56 17.723 18.905 26.556 12.786 17.328 26.523 34.42 41.435 50.429 14.965 16.132 30.799 31.476 47.314 45.551 16.477 14.063 33.452 27.093 50.254 39.094 16.835 11.938 33.679 22.78 49.896 32.633 8.15 4.864 16.153 9.488 23.893 13.839 7.702 4.403 15.396 8.437 22.727 12.266 7.247 3.954 14.409 7.566 21.101 10.95 6.791 3.436 13.166 6.495 19.326 9.406 12.149 5.863 22.898 10.474 31.685 14.376 8.825 3.923 15.909 6.755 20.719 8.788 4.803 1.984 7.368 3.074 7.368 3.074 2.582 1.058 3.69 3.947 2.699 6.438-.997 2.5-3.909 3.722-6.423 2.613l-.118-.032zM872.176 255.3s.191-.273.293-.803c.026-.157.241-.465.323-.775.336-.988.896-2.102 1.57-3.314 1.296-1.954 2.857-3.317 4.783-4.553 1.934-1.049 3.939-1.825 5.97-2.303 4.098-.883 8.365-1.101 12.875-.829 2.212.108 4.426.397 6.82.95 1.008.123 2.244.367 3.449.67l.837.232.607.242.391.096 1.477.498c4.087 1.254 8.184 2.698 12.021 4.046 3.801 1.327 7.262 2.136 10.275 3.086 1.512.515 2.978.506 4.188.869 1.244.239 2.346.288 3.244.508 1.819.331 2.888.501 2.888.501l.147.057c.874.119 1.44.932 1.271 1.812-.147.713-.778 1.283-1.441 1.263 0 0-1.149.009-3.015.054-1.068-.027-2.194-.005-3.501-.018-1.332.069-2.863.175-4.521-.001-3.239-.387-7.292-.602-11.16-1.199-3.951-.744-8.225-1.221-12.556-1.821l-1.53-.217-.41-.064c.059.042-.135-.005-.271-.01l-.683-.072c-.919-.056-1.864-.126-2.784-.006-1.893-.02-3.762.168-5.638.292-1.752.22-3.465.507-4.938.839-1.567.481-2.786.906-3.827 1.35-.945.425-1.724 1.019-1.962 1.351-.189.144-.298.611.158.112.147-.353.301-.704.308-.97-.048.332-.16.617-.11.875-.059.466-.135.827-.135.827-.512 4.332-4.513 7.346-8.832 6.796-4.311-.629-7.398-4.513-6.841-8.906.096-.393.275-.902.302-1.391l-.042-.074zM1081.79 164.941s.428-.018 1.349-.101c.844.105 2.102-.065 3.676-.225 3.144-.509 7.576-1.338 12.971-2.258 10.697-2.201 25.061-4.994 39.332-7.93 14.368-2.797 28.768-5.278 39.79-6.513 2.806-.289 5.395-.458 7.646-.608 2.246-.139 4.319-.042 6.018-.117 1.719.03 3.207.306 4.187.414 1.03.087 1.529.222 1.529.222 2.077.229 3.675 2.233 3.36 4.339-.242 2.154-2.203 3.689-4.391 3.425-.078-.02-.078-.02-.11-.039l-.755-.086s-.427-.112-1.119-.237c-.754-.032-1.678-.462-3.159-.501-1.507-.068-3.33-.263-5.446-.299-2.16.017-4.589.029-7.302.117-10.692.461-25.157 1.988-39.644 3.869a5658.688 5658.688 0 0 0-39.733 5.085c-5.408.739-9.921 1.18-13.203 1.422-1.581.103-2.841.084-3.591.103-.891-.085-1.405-.082-1.405-.082z"/><path fill="#FFF" d="M258.936 630.261s.471.425 1.301 1.19c.328.379.926.89 1.624 1.383.682.387 1.462 1.031 2.386 1.6 3.781 2.137 9.888 4.218 17.894 5.88 4.011.972 8.525 1.756 13.493 2.989a78.654 78.654 0 0 1 7.787 2.232c2.765 1.047 5.141 2.274 7.886 3.491 10.536 4.729 22.196 10.706 35.062 15.035 1.631.47 3.299.965 4.855 1.522 1.775.529 3.509.98 5.384 1.623 3.474.961 7.102 1.97 10.799 3.127 7.377 2.223 14.893 3.993 22.716 6.157 15.433 4.132 32.085 8.036 49.207 11.313l3.195.711 3.121.573c2.2.367 4.366.721 6.637 1.137 4.463.788 8.884 1.646 13.357 2.532 8.971 1.791 17.991 3.745 27.09 5.812 18.171 3.162 36.653 6.72 55.417 8.731 18.767 1.164 37.495 2.843 56.158 2.542 18.539-.325 36.75.481 54.482.131 4.378-.054 8.875-.155 13.127-.155 4.367-.104 8.695-.277 12.828-.318 4.289-.242 8.477-.287 12.618-.458 4.17-.283 8.268-.528 12.292-.788 3.953-.299 8.025-.432 11.98-.728 3.814-.358 7.709-.759 11.497-1.084 7.524-.688 14.861-1.242 21.931-2.26 6.924-.938 13.555-1.72 19.949-2.757 6.402-1.176 12.333-2.125 17.96-3.168 11.257-2.102 21.014-4.461 28.987-6.109 15.979-4.301 25.086-6.704 25.086-6.704l.1-.028c1.561-.392 3.241.526 3.586 2.102.426 1.52-.455 3.087-1.914 3.664 0 0-9.162 2.682-25.184 7.441-8.031 1.985-17.853 4.695-29.171 7.184-5.643 1.074-11.682 2.315-18.104 3.515-6.402 1.302-13.189 2.114-20.234 3.289-7.059 1.2-14.439 1.948-22.188 2.815-3.758.34-7.701.749-11.617 1.258-4.001.23-7.954.578-12.085.75-4.078.395-8.188.589-12.39.907-4.207.208-8.452.392-12.807.602-4.239.191-8.591.392-12.904.618-4.43.065-8.82.141-13.221.227-4.395.076-8.929.158-13.456.231-4.504-.093-9.109-.158-13.679-.288-9.09-.184-18.4-.528-27.789-.876-9.379-.166-18.705-1.118-28.163-1.886-9.441-.661-18.856-1.172-28.403-1.816-4.733-.026-9.448-.719-14.182-1.062-4.727-.419-9.499-.838-14.287-1.177-9.441-.66-19.01-1.144-28.336-1.902-9.315-1.034-18.483-2.275-27.521-3.576-4.495-.672-8.983-1.302-13.418-2.068-2.214-.287-4.426-.719-6.635-1.144l-3.521-.575-3.257-.752c-17.551-4.042-34.284-8.591-49.938-13.568-7.865-2.561-15.562-4.914-22.673-7.58-3.58-1.259-7.121-2.58-10.659-3.768-1.67-.674-3.385-1.347-5.12-1.938-1.747-.689-3.525-1.4-5.154-2.195-6.891-2.783-12.955-6.077-18.708-9.239-5.675-3.202-11.016-6.306-16.018-9.166-2.473-1.474-4.87-2.991-7.03-4.066-2.272-1.106-4.571-2.058-6.83-2.929-4.687-1.766-9.051-3.086-12.988-4.547-7.872-2.739-14.006-5.63-17.451-8.626a16.247 16.247 0 0 1-2.26-1.968c-.625-.667-1.139-1.168-1.39-1.709-.736-.898-1.107-1.336-1.107-1.336zM355.545 197.347s.998.526 2.884 1.411c1.892.884 4.699 2.325 8.283 3.59 3.573 1.524 8.121 2.977 13.364 4.535 5.156 1.556 11.115 3.13 17.57 4.786 6.453 1.651 13.554 3.305 20.934 5.52 7.443 2.265 14.989 5.146 22.908 8.018 7.856 2.831 15.831 6.022 24.08 9.125 8.189 3.335 16.666 5.877 25.211 8.642 4.168 1.59 8.518 2.488 12.733 3.824 4.364.989 8.474 2.401 12.734 3.224 8.552 1.726 16.97 3.765 25.242 4.785 4.113.64 8.161 1.315 12.126 1.846 4.048.405 7.944.831 11.75 1.203 7.491 1.019 14.771 1.062 21.497 1.626 6.642.423 12.73.343 18.223.585 5.458.219 10.204.105 14.082.117 7.864-.086 12.269-.115 12.269-.115s-4.404.351-12.284.835c-3.786.248-8.58.638-14.063.58-5.41.147-11.597.5-18.282.201-6.704-.329-14.031-.179-21.749-.944-3.829-.337-7.731-.634-11.821-.974-4.003-.285-8.04-1.038-12.234-1.559-8.307-1.047-16.883-2.921-25.532-4.573-4.412-.806-8.658-2.214-13.036-3.262-4.257-1.145-8.749-2.088-12.915-3.628-8.465-2.808-17.069-5.618-25.107-9.033-8.203-3.119-16.215-6.377-24.116-9.336-7.833-2.809-15.392-6.058-22.534-8.482-7.242-2.35-14.283-4.273-20.667-6.154-6.472-1.757-12.354-3.638-17.604-5.439-5.014-1.825-9.55-3.482-13.127-5.199-3.557-1.428-6.176-3.148-7.995-4.117-1.85-1.078-2.824-1.638-2.824-1.638zM323.761 390.305s3.305.886 8.347 3.947c2.491 1.451 5.718 2.828 9.246 5.323 3.488 2.292 7.693 4.673 11.689 7.735 8.253 5.95 17.609 13.04 27.49 20.684 4.914 3.891 10.144 7.733 15.311 11.715 5.268 3.78 10.489 7.939 15.999 11.577 5.581 3.586 11.112 7.329 16.521 10.98 5.41 3.832 10.751 7.44 15.996 11.062 5.119 3.535 10.133 6.773 14.903 9.974 4.851 2.936 9.396 5.873 13.729 8.125 4.324 2.344 8.271 4.636 12.106 6.122 3.561 1.422 6.737 3.131 9.595 3.788 5.43 1.565 8.48 2.548 8.48 2.548l.3.023c1.036.277 1.603 1.41 1.338 2.499-.352.942-1.36 1.589-2.325 1.28 0 0-3.382-.847-9.2-2.229-2.938-.629-6.139-2.165-10.167-3.508-3.854-1.318-7.988-3.612-12.67-5.647-4.571-2.242-9.303-5.045-14.374-7.868-4.916-2.984-10.209-6.102-15.497-9.521-5.326-3.177-10.738-6.695-16.264-10.109a3175.469 3175.469 0 0 1-17.069-10.515c-5.894-3.486-11.343-7.394-16.872-10.993-5.412-3.837-10.746-7.521-15.838-11.225-10.275-7.286-19.758-14.005-27.991-19.342-4.122-2.878-7.936-5.035-11.297-7.187-1.574-.939-3.239-2.063-4.63-2.878-1.621-.874-3.06-1.609-4.319-2.277a909.227 909.227 0 0 0-8.044-4.378c-3.175-1.71-4.896-4.886-3.184-8.013 1.737-3.154 5.213-3.617 8.379-1.823.106-.015.208.153.312.131z"/><path fill="#FFF" stroke="#FFF" stroke-linecap="round" stroke-linejoin="round" stroke-miterlimit="10" d="M476.133 465.164c13.944 7.965 21.844 17.949 28.226 32.02"/><path fill="#FFF" d="M9.042 422.375s.36.842 1.077 2.357c.812 1.48 2.177 3.554 3.952 6.138 3.625 5.075 9.681 11.795 17.17 19.525 7.533 7.805 16.672 16.43 26.616 25.531 9.921 9.133 20.865 18.635 31.877 27.905 10.843 9.374 21.951 18.57 32.504 26.881 10.63 8.393 20.548 16.248 29.228 22.626 4.385 3.208 8.399 6.053 11.943 8.659a381.815 381.815 0 0 0 9.463 6.248c5.367 3.436 8.558 5.055 8.558 5.055s-.871-.387-2.341-1.015c-1.539-.725-3.833-1.806-6.593-3.391-5.564-3.032-13.292-7.599-22.245-13.714-8.982-6.143-19.391-13.436-30.022-21.697A909.39 909.39 0 0 1 87.2 506.824c-11.002-9.487-21.827-19.077-31.663-28.329a492.393 492.393 0 0 1-25.901-26.542c-7.273-8.038-12.748-15.392-16.14-20.72-1.813-2.65-2.849-4.942-3.53-6.427-.631-1.496-.924-2.431-.924-2.431zM719.195 213.443s.721-.041 2.184.085c1.427-.078 3.715-.019 6.382-.041 5.306-.074 13.394-.466 23.507-1.973 10.142-1.439 22.376-4.002 35.933-8.5 13.715-4.39 28.277-10.831 44.103-19.354 7.896-4.126 16.267-8.467 24.938-12.78 8.69-4.393 17.782-8.769 27.562-12.575 19.086-7.466 39.193-15.596 60.541-22.975 21.424-7.292 43.525-14.042 66.287-20.382 22.688-6.562 45.928-12.475 69.078-18.262l17.611-3.902c5.83-1.403 11.521-2.853 17.471-3.842 11.88-2.07 23.656-4.509 35.335-6.091 5.766-.855 11.597-1.737 17.406-2.648 5.807-.725 11.565-1.438 17.229-2.271 11.499-1.475 22.998-2.552 34.078-3.743 22.395-2.344 43.975-4.175 64.398-6.001 10.229-.83 20.3-1.639 29.899-2.417 4.863-.293 9.608-.677 14.331-.895 4.657-.25 9.278-.264 13.814-.343 9.159-.365 17.725.05 25.91.098 8.244.365 16.061.604 23.314 1.005 14.521.835 27.249 1.635 37.699 2.289 10.421.576 18.633 1.098 24.131 1.527 5.651.271 8.574.418 8.574.418l1.357.134c2.548.078 4.387 2.198 4.298 4.701a4.42 4.42 0 0 1-4.81 4.205c-.458.004-.785-.05-1.271-.208 0 0-2.873-1.032-8.669.248-2.739.711-6.316 1.369-10.605 4.268-2.156 1.752-4.569 5.987-7.052 7.688-2.491 1.581-4.89 1.112-7.421-.547-2.589-1.698-5.105-4.586-7.927-5.117-2.841-.372-5.927-.272-9.022-.546-6.309-.186-13.067.139-20.329.705-14.467 1.162-30.793 3.247-47.687 1.946-4.254-.177-8.374-.679-13.038-1.195-4.699-.316-9.489-.707-14.354-1.458l-1.869-.266-.488-.088-.188.011c.646-.136.026-.032.121-.045l-.986-.155-3.704-.433c-2.515-.32-4.974-.651-7.557-1.015-5.055-.661-10.226-1.407-15.369-1.898-10.406-1.167-21.051-1.678-31.827-1.097-10.692.909-21.697 1.742-32.804 2.777-11.147 1.233-22.414 2.242-33.906 3.632-5.634.676-11.423 1.362-17.182 2.078-5.797.827-11.582 1.648-17.319 2.522-11.636 1.481-23.149 3.728-34.835 5.719-5.85.975-11.648 2.385-17.516 3.577l-17.426 3.901c-23.182 5.58-46.438 11.248-68.995 17.682-22.683 6.297-44.803 13.226-65.857 20.364-21.057 7.358-41.095 15.582-60.285 22.936-18.765 7.529-35.878 17.044-51.693 25.377-15.729 8.59-31.004 15.705-45.007 20.257-14.058 4.691-26.721 7.54-37.145 9.288-10.601 1.625-18.921 2.21-24.843 2.384-2.895.153-4.968.049-6.427.116-1.416-.004-2.143-.012-2.143-.012-2.5.051-4.43-2-4.467-4.402-.011-2.418 1.971-4.44 4.437-4.388l.095-.073zM1175.648 390.315s-3.002.81-8.479 2.355c-5.512 1.528-13.574 3.946-23.707 7.091-10.144 3.029-22.521 6.957-36.633 11.475-14.211 4.584-30.233 9.717-47.619 15.299-17.54 5.558-36.433 11.708-56.885 17.306-20.372 5.475-41.99 10.974-64.761 14.747-22.812 3.83-46.638 6.768-71.099 7.326-6.028-.069-12.188-.004-18.275.011-6.338-.283-12.214-.613-18.338-.938-12.244-.643-24.379-1.241-36.536-1.87-12.286-1.041-24.522-2.188-36.72-3.287-6.121-.507-12.233-1.1-18.247-1.704-6.091-.751-12.123-1.646-18.143-2.177-12.1-.717-24.439.582-36.45.011-11.848-1.453-23.297-4.321-34.398-7.667-5.616-1.604-11.163-3.249-16.68-4.424-2.845-.827-5.609-1.426-8.361-2-2.758-.675-5.471-1.046-8.17-1.542-5.476-.916-11.018-1.285-16.582-1.292-5.54.087-11.169.482-16.633 1.04-11.039 1.267-22.243.894-32.189-1.228-10.047-2.271-19.395-5.889-28.183-9.737l-1.596-.771-.378-.176c1.039.463-1.793-.632-1.557-.637l-.123-.093-.822-.446-2.93-1.854a322.925 322.925 0 0 1-5.7-3.948c-4.229-2.995-8.095-6.24-11.748-9.327-6.692-6.026-12.729-11.679-18.231-17.135-11.298-10.657-21.489-18.967-30.247-25.229-8.671-6.326-15.872-10.608-20.918-13.28-4.953-2.543-7.896-3.621-7.896-3.621-2.992-1.125-4.517-4.575-3.333-7.66 1.146-3.026 4.632-4.534 7.683-3.423.243.172.473.291.778.371l.879-.521s3.216.681 8.28 3.593c4.966 2.787 12.286 7.016 21.552 12.303 9.298 5.316 20.04 12.65 33.005 19.931 6.455 3.658 13.192 7.747 20.439 11.698 3.575 1.854 7.134 3.918 10.863 5.742 1.8 1.003 3.902 1.905 5.954 2.757l3.099 1.42.789.375h.13c.183.13-.42-.116-.054.011l.379.177 1.625.418a4070.177 4070.177 0 0 0 27.115 8.265c4.643 1.373 9.415 2.887 14.216 4.362 2.424.763 4.846 1.479 7.39 2.135 2.359.812 4.985 1.297 7.53 2.012 10.248 2.416 20.604 5.009 31.368 7.614 5.282 1.186 10.892 2.61 16.119 3.669 5.49.96 11.062 1.99 16.688 3.017 11.229 2.061 22.629 4.018 34.061 6.192 11.646 1.68 23.368 3.312 35.203 5.038 5.892.845 11.835 1.729 17.768 2.588 5.954.612 11.959 1.226 17.937 1.815 12.085 1.256 24.135 2.49 36.184 3.721 12.199.701 24.388 1.482 36.512 2.229 6.006.413 12.301.816 18.07 1.111 5.9-.015 11.866.144 17.735.245 23.694-.381 46.908-2.836 69.275-6.56 22.263-3.634 43.604-8.876 63.7-14.276 20.113-5.374 38.943-11.391 56.464-16.967 34.703-11.209 63.709-21.062 84.196-27.36 10.357-3.263 18.365-5.667 23.875-7.188 5.447-1.629 8.37-2.476 8.37-2.476l.044-.058c3.193-.883 6.431.855 7.377 4.033.928 3.13-.865 6.373-3.964 7.328l-.067.041zM209.302 192.332s2.207.878 5.974 2.59c1.949.794 4.048 2.14 6.616 3.683 2.444 1.516 5.243 3.165 8.218 4.963 1.429 1.011 3.025 1.729 4.682 2.544 1.667.803 3.352 1.651 5.119 2.442a534.043 534.043 0 0 1 11.691 5.087c3.997 1.83 8.262 3.619 12.378 5.668 4.295 2.127 8.354 4.192 12.722 6.281 4.15 2.207 8.335 4.35 12.522 6.493 4.094 2.09 8.047 4.435 11.926 6.818 3.855 2.179 7.498 4.762 10.829 7.083 3.315 2.485 6.444 4.89 9.016 7.257 1.403 1.175 2.678 2.404 3.884 3.482 1.102 1.153 2.173 2.414 3.168 3.39 1.974 2.179 3.687 4.07 4.857 5.782 2.437 3.456 3.675 5.377 3.675 5.377s-1.78-1.48-4.813-4.23c-1.481-1.465-3.47-2.962-5.748-4.579-2.217-1.836-4.882-3.686-7.724-5.604-2.832-2.062-6.232-3.832-9.582-5.929-3.381-1.943-7.139-3.917-10.975-6.053-1.903-.981-3.888-1.979-5.89-3.024-1.999-.923-4.057-1.878-6.084-2.947a809.266 809.266 0 0 0-12.606-6.184 1944.72 1944.72 0 0 0-24.512-12.773c-3.939-2.062-7.658-4.151-11.213-6.033-3.432-2.242-7.301-4.258-9.894-6.603-2.775-2.193-5.278-4.331-7.342-6.254-2.244-1.862-4.002-3.565-5.677-4.749-3.359-2.483-5.217-3.978-5.217-3.978z"/><path fill="#FFF" d="M426.247 357.458s-8.589-6.054-21.697-14.569c-3.335-2.177-6.811-4.551-10.568-6.989-1.986-1.314-3.697-2.389-5.87-4.024-1.896-1.384-3.826-2.853-5.793-4.328-7.924-5.9-16.321-12.217-24.841-18.485-4.081-3.212-8.143-6.501-12.197-9.735-4.094-3.053-7.947-6.645-11.682-9.935-3.593-3.316-7.392-6.33-10.412-9.663-3.207-3.272-6.16-6.33-8.916-9.333-2.83-2.643-5.131-5.46-7.137-7.975-2.075-2.486-3.855-4.609-5.312-6.426a1332.395 1332.395 0 0 0-4.568-5.607c-.531-.653-.458-1.603.219-2.178.689-.515 1.611-.464 2.056.13l.124.092s1.773 1.951 4.837 5.348c1.572 1.66 3.416 3.695 5.545 6.027 2.082 2.347 4.449 4.943 7.42 7.641 2.843 2.562 5.911 5.511 9.188 8.568 3.143 3.091 6.976 5.809 10.753 8.854 3.726 3.057 7.498 6.234 11.935 9.196 4.062 2.962 8.377 6.026 12.636 9.041 8.699 5.762 17.392 11.417 25.495 16.935 2.013 1.285 3.688 3.299 5.62 4.628 1.636 1.111 3.532 3.007 5.472 4.011 3.968 2.261 7.587 4.374 10.915 6.319a8011.914 8011.914 0 0 1 22.792 13.01c2.838 1.652 3.81 5.252 2.179 8.074-1.647 2.897-5.273 3.889-8.12 2.236-.065-.042-.183-.131-.183-.131l.11-.732zM1532.028 77.26s-2.054 6.311-6.967 16.527c-2.514 5.158-5.6 11.373-9.589 18.23-3.895 6.921-8.578 14.614-13.724 22.84a617.012 617.012 0 0 1-8.203 12.862c-2.804 4.536-5.931 8.944-9.202 13.568-6.469 9.115-13.637 18.653-21.404 28.124-7.884 9.388-16.178 18.955-25.424 28.067-4.449 4.602-9.344 8.99-14.075 13.54-4.998 4.22-9.738 8.716-14.999 12.661-2.595 2.047-5.057 4.231-7.732 6.128l-8.012 5.826a40.342 40.342 0 0 1-3.981 2.973l-4.035 2.667c-2.695 1.746-5.405 3.436-8.029 5.223a1245.064 1245.064 0 0 1-15.896 10.423c-5.206 3.487-10.382 6.986-15.641 10.01-10.473 6.278-20.888 12.142-30.5 17.84-9.742 5.699-19.363 10.309-27.913 14.835-8.708 4.428-16.636 8.581-23.819 11.885-7.212 3.338-13.672 5.884-19.061 7.682-10.835 3.829-17.528 4.756-17.528 4.756s4.856-4.785 14.389-11.091c4.744-3.211 10.653-6.698 17.572-10.285 7.188-3.496 14.901-7.934 23.508-12.479 8.408-4.579 17.921-9.304 27.607-14.589 9.728-5.342 19.93-11.171 30.466-16.947 5.352-2.786 10.646-6.064 15.972-9.318 5.309-3.36 10.729-6.696 16.133-10.129 2.665-1.58 5.419-3.328 8.171-5.022l4.083-2.591c1.134-.708 2.541-1.721 3.851-2.611l7.858-5.482c2.562-1.889 5.106-3.914 7.585-5.864 5.115-3.87 9.881-8.198 14.682-12.332 4.597-4.421 9.409-8.633 13.873-13.186 8.932-8.934 17.005-18.401 24.689-27.626 7.596-9.418 14.699-18.672 21.101-27.7 6.357-9.097 12.436-17.669 17.676-25.833 5.391-8.053 10.122-15.563 14.256-22.228 4.343-6.646 8.15-12.401 11.487-16.983 3.186-4.685 5.857-8.262 7.846-10.693 1.895-2.405 2.929-3.678 2.929-3.678z"/><path fill="#FFF" d="M1596.663-13.53s-4.019 1.675-11.346 5.249c-3.668 1.693-7.63 4.316-12.537 7.374-4.309 3.57-9.775 7.415-14.476 13.074-4.938 5.359-9.285 12.33-12.924 20.351-1.932 3.829-3.068 8.46-3.595 13.333.054 2.554.171 5.104.054 7.585.132 1.361-.098 2.523-.188 3.883-.096.571-.282 1.216-.312 1.783l-.187.967-.089.396-.069.219c.005.18.156-.475.02-.031-.469 2.596-1.015 5.174-1.86 7.773-.926 2.539-1.897 5.138-2.741 7.737-.904 2.697-2.181 5.396-2.795 8.067-.438 1.333-.654 2.733-.917 4.191-.275 1.36-.57 2.745-.644 4.203-1.853 11.252-.671 24.009-2.071 36.802-.73 6.515-2.203 12.969-3.5 19.634l-.361 2.566-.111.617s-.256 1.318-.231.832l.006.326-.386 1.237c-.401 1.67-.794 3.318-1.322 4.902-.902 3.335-1.698 6.649-2.919 10.174-1.24 3.549-2.639 7.129-4.131 10.726-.713 1.777-1.384 3.683-2.203 5.296a87.322 87.322 0 0 1-2.429 5.039c-1.697 3.358-3.346 6.713-5.112 10.116a1130.313 1130.313 0 0 0-5.588 9.883c-3.722 6.586-8.002 12.962-12.023 19.466-4.333 6.377-8.432 12.981-12.744 19.519-4.261 6.524-8.157 13.313-12.316 20.082-4.137 6.809-8.398 13.652-12.533 20.579-16.577 27.892-36.162 55.395-56.889 82.438a26840.38 26840.38 0 0 1-16.383 19.818l-8.305 9.909c-2.838 3.561-5.856 6.404-8.684 9.553-11.785 12.566-23.142 25.613-35.853 37.431l-18.553 18.181c-6.39 5.794-12.839 11.549-19.27 17.391l-9.541 8.634-9.864 8.308c-6.549 5.491-13.095 10.993-19.732 16.431-26.426 21.366-53.397 41.43-80.407 59.368-27.252 17.496-55.604 31.656-82.895 43.543-13.615 5.88-26.816 11.549-39.764 16.988-6.466 2.627-12.804 5.311-19.044 7.859-6.195 2.611-12.497 4.808-18.473 7.244-12.143 4.812-23.967 8.672-35.028 12.624-5.618 1.993-11.288 3.365-16.62 5.014a1644.376 1644.376 0 0 1-15.682 4.597c-5.373 1.402-10.176 2.385-15.049 3.584-4.701.959-9.276 2.332-13.862 3.053-8.999 1.609-17.388 3.199-24.715 4.403-7.555 1.313-14.161 2.377-19.93 3.368-5.744 1.084-10.612 2.017-14.573 2.771-7.926 1.513-12.151 2.263-12.151 2.263l-.042.062c-2.177.42-4.211-1.028-4.709-3.159-.311-2.14 1.021-4.208 3.216-4.663 0 0 4.263-.677 12.269-2.166 4.046-.74 8.944-1.661 14.728-2.723 5.824-.891 12.459-1.992 20.003-3.174 7.464-1.242 15.525-2.69 24.338-4.167 4.458-.632 9.101-1.948 13.901-2.924 4.707-1.1 9.866-2.194 14.71-3.426 5.063-1.335 10.305-2.872 15.58-4.392 5.393-1.607 10.865-2.891 16.348-4.945 11.186-3.797 22.841-7.419 34.897-12.25 5.97-2.298 12.151-4.449 18.459-6.971 6.212-2.578 12.555-5.209 19.006-7.805a4615.118 4615.118 0 0 0 39.618-16.9c27.227-11.804 54.816-25.535 82.045-42.873 26.805-17.904 53.612-37.808 79.926-59.076 6.439-5.475 12.947-10.918 19.461-16.437l9.736-8.258 9.595-8.635c6.228-5.818 12.57-11.552 18.99-17.317l18.267-18.165c12.375-11.729 23.776-24.791 35.451-37.389 2.879-3.219 6.062-6.294 8.484-9.513l8.231-9.877c5.357-6.524 10.744-13.027 16.174-19.59 20.374-27.073 39.483-54.088 55.92-82.034 4.062-6.893 8.209-13.727 12.31-20.598 4.085-6.782 8.056-13.604 12.006-20.354 7.933-13.378 15.541-26.432 22.063-39.622 1.611-3.243 3.181-6.552 4.777-9.763 1.496-3.331 2.767-6.677 4.081-9.95 3.09-6.484 4.703-13.147 6.947-19.595.967-3.292 1.613-6.713 2.445-10.012.371-1.698.727-3.359 1.059-5.042l.269-1.223c.072-.089.188-.646.096-.521l.128-.564.377-2.461c1.062-6.653 2.199-13.153 3.029-19.598 1.77-12.816 3.404-25.175 5.634-36.884 1.058-5.877 2.337-11.54 3.864-16.857a595.047 595.047 0 0 0 4.312-15.758c.817-2.623 1.528-5.171 2.229-7.642.734-2.586 1.313-5.004 2.145-7.344a288.437 288.437 0 0 0 2.606-6.962c.856-2.363 1.687-4.565 2.881-6.643 4.404-8.336 9.249-15.682 14.624-21.459 5.241-5.97 10.909-10.174 15.513-14.032 5.16-3.284 9.479-6.345 13.062-8.234 7.24-3.778 11.009-5.811 11.009-5.811l.469-.075c1.817-1.09 4.271-.354 5.284 1.505.948 2.004.291 4.415-1.685 5.335-.131.181-.207.218-.289.208zM1465.485-121.821s.277.061.77.138c.442.083 1.231.327 2.279.653 1.889.613 5.034 1.47 8.14 4.76 1.501 1.616 2.791 4.174 2.895 6.993.193 2.693-.652 5.424-1.903 7.962-1.149 2.469-2.832 4.845-4.76 7.037-1.734 2.062-4.12 4.395-6.395 6.387-2.329 2.055-4.523 3.922-5.517 6.095-1.054 2.081-1.359 5.015-1.448 8.293.241 6.562.508 14.418-.597 22.178-.926 7.748-2.962 15.579-5.768 23.269-2.85 7.758-6.451 15.16-10.629 22.341-4.131 7.113-9.242 13.998-14.791 20.022-5.629 6.011-11.618 11.304-17.386 16.22-5.876 4.875-11.572 9.42-16.657 13.897-5.146 4.491-10.072 8.856-14.91 12.777-4.768 3.962-9.41 7.353-13.658 10.134-4.391 2.831-8.578 4.937-12.143 6.421-3.562 1.494-6.703 2.373-8.887 2.748-2.079.351-3.237.576-3.237.576-3.196.568-6.313-1.603-6.86-4.765-.538-3.174 1.598-6.312 4.799-6.827 0 0 .023-.04.057-.011l.622-.11s.904-.176 2.354-.427c1.637-.252 3.944-.858 6.826-1.962a55.762 55.762 0 0 0 10.443-5.254c3.929-2.325 8.222-5.354 12.899-8.992 4.671-3.626 9.604-7.798 14.948-12.186 5.424-4.566 11.352-8.943 17.147-13.692 5.735-4.614 11.556-9.536 16.925-14.91 5.345-5.483 10.11-11.503 14.198-18.112 4.089-6.6 7.791-13.619 10.538-20.663 2.795-7.163 4.831-14.345 5.928-21.562 1.224-7.262 1.199-13.998 1.215-21.239.084-3.594.514-7.494 2.344-11.219 2.151-3.688 5.065-5.731 7.215-7.674 4.38-3.797 8.163-7.646 10.119-11.373 2.045-3.85 1.776-6.959.005-8.769-1.67-1.955-4.198-2.971-5.749-3.427-1.361-.512-2.534-.799-2.534-.799-1.44-.281-2.256-1.593-1.997-2.921a2.526 2.526 0 0 1 3.044-2.044l.057-.005.059.042zM1090.756 274.966s-2.877-1.669-7.723-4.373c-5.005-2.863-12.046-6.845-20.359-11.741-8.331-4.941-18.125-10.707-28.492-16.957-10.465-6.186-21.63-12.587-32.971-18.757-5.683-3.068-11.37-6.195-17.105-8.921-5.625-2.945-11.291-5.594-16.824-7.965a625.024 625.024 0 0 0-16.049-6.806c-5.226-1.835-10.172-3.827-14.801-5.149-4.608-1.487-8.836-2.798-12.677-3.645-3.81-1.011-7.177-1.981-9.853-2.328-5.612-1.046-8.784-1.653-8.784-1.653s3.127.479 8.802 1.302c2.751.311 6.192 1.188 10.007 1.99 1.973.43 4.007.732 6.121 1.362 2.123.541 4.484 1.208 6.713 1.925 4.684 1.183 9.697 3.081 14.912 4.862 5.273 1.905 10.744 4.108 16.282 6.477 5.604 2.466 11.311 5.045 16.98 7.932 5.735 2.735 11.453 5.828 17.211 8.86a870.041 870.041 0 0 1 32.902 19.035c10.426 6.296 19.905 12.373 28.23 17.452a1868.06 1868.06 0 0 0 19.847 12.331 464.752 464.752 0 0 1 7.631 4.767zM908.087 435.229c-8.097 1.752-22.063 4.904-12.542 13.948 4.748 4.452 20.399 3.448 26.895 5.943 23.548 9.114 9.337 24.396.219 39.63 12.848 7.912 13.465-18.272 30.836-9.344 10.562 5.389 15.771 17.755 26.4 22.421-2.134-9.559-12.13-13.356-14.862-23.555-1.462-5.149-2.377-20.551-.396-25.729 2.42-6.182 12.203-16.957 16.883-22.141 5.917-6.408 16.7-6.801 19.585-15.904-13.791-3.734-32.619 9.035-46.46 12.652-14.184 3.644-27.998 3.406-41.843 1.674M25.398 78.587s1.846-.159 5.085-.61c3.296-.398 8.259-.759 14.432-.765 6.204.199 13.802.696 22.419 1.869 8.59 1.157 18.236 2.885 28.708 5.187 10.341 2.221 21.659 4.944 33.603 7.426 11.911 2.462 24.578 5.279 37.388 8.916 12.959 3.626 26.134 7.664 39.424 11.786 13.402 4.024 27.018 8.146 40.639 12.187 13.574 4.234 27.203 8.458 40.506 12.631 13.392 4.242 26.513 8.348 39.167 12.654 6.332 2.153 12.51 4.254 18.689 6.307 5.986 2.184 11.897 4.277 17.609 6.404 11.535 4.025 22.185 8.334 32.28 12.194 9.918 3.659 18.826 7.785 26.884 10.983 8.055 3.325 14.896 6.493 20.543 9.026 11.306 5.19 17.741 8.154 17.741 8.154s-6.518-2.662-17.947-7.475c-5.783-2.403-12.681-5.244-20.82-8.316-8.219-3.039-17.144-6.808-27.253-10.33-10.035-3.625-20.799-7.704-32.384-11.526-11.586-4.023-23.682-8.028-36.39-12.194-12.694-4.202-25.828-8.222-39.129-12.391-13.404-4.025-27.002-8.172-40.555-12.312-13.641-4.141-27.271-8.362-40.594-12.506-13.347-4.173-26.513-8.346-39.272-11.992a627.888 627.888 0 0 0-37.144-9.396c-11.894-2.674-23.204-5.663-33.452-8.088-10.457-2.392-19.912-4.52-28.461-5.925a223.767 223.767 0 0 0-22.208-2.494c-6.214-.124-11.093-.014-14.391.203-3.4.282-5.117.393-5.117.393z"/><path fill="#FFF" d="M1539.908 94.623s-.664 2.998-1.967 8.382c-.72 2.695-1.471 5.997-2.429 9.93-.826 3.938-1.791 8.45-2.841 13.607-2.148 10.123-4.437 22.56-7.594 36.676-1.498 7.074-3.651 14.496-5.585 22.443-2.611 7.733-4.731 16.013-8.364 24.163-1.834 4.133-3.198 8.565-5.325 12.67-2.179 4.165-4.332 8.299-6.451 12.642-4.612 8.57-9.866 16.941-15.069 25.766-10.021 17.743-21.918 35.754-33.951 54.532-6.054 9.376-12.728 18.532-19.183 28.019-3.255 4.724-6.573 9.405-9.886 14.269-3.353 4.66-6.896 9.274-10.335 14.004-7.023 9.46-13.871 18.985-21.111 28.429-7.379 9.244-14.744 18.545-22.185 27.804-3.788 4.52-7.299 9.335-11.286 13.729-4.024 4.458-8.017 8.932-11.972 13.351-7.951 8.694-15.49 17.787-23.642 26.265a9895.599 9895.599 0 0 1-24.47 24.669c-4.072 4.058-7.88 8.343-12.154 12.121-4.27 3.821-8.376 7.489-12.505 11.317-8.298 7.457-16.33 14.918-24.4 21.989-8.301 6.803-16.564 13.375-24.491 19.72-15.647 13.254-31.812 23.948-46.18 34.351a609.256 609.256 0 0 1-10.736 7.605c-3.478 2.462-7.079 4.521-10.478 6.73a3906.6 3906.6 0 0 1-19.697 12.062c-6.119 3.806-11.87 7.534-17.405 10.509-5.508 2.942-10.529 5.643-15.196 8.039-18.267 9.846-28.782 15.409-28.782 15.409s10.375-5.805 28.528-15.956c4.465-2.497 9.621-5.327 15.079-8.312 5.25-3.163 10.902-7.019 16.985-10.883 6.043-3.888 12.603-8.053 19.392-12.471 3.408-2.243 6.976-4.373 10.49-6.814 3.461-2.566 6.93-5.135 10.497-7.717 14.324-10.544 30.249-21.403 45.718-34.729a6125.178 6125.178 0 0 1 24.206-19.978 3417.691 3417.691 0 0 1 24.155-22.017c4.113-3.75 8.242-7.634 12.306-11.373 4.356-3.757 8.129-8.12 12.145-12.04 8.006-8.199 16.15-16.401 24.262-24.818 8.075-8.433 15.663-17.396 23.562-26.222a659.45 659.45 0 0 1 11.68-13.187c4.059-4.434 7.569-9.257 11.329-13.851 7.392-9.141 14.841-18.479 22.282-27.639 7.149-9.362 14.092-18.915 21.14-28.265 3.506-4.682 7.047-9.297 10.362-13.977 3.331-4.764 6.642-9.496 9.884-14.192 6.405-9.43 13.221-18.531 19.257-27.816 11.989-18.72 24.13-36.419 34.375-54.155 5.218-8.717 10.639-17.069 15.162-25.461 2.229-4.23 4.434-8.372 6.587-12.497 2.177-4.035 3.628-8.349 5.451-12.4 3.71-8.059 5.853-16.36 8.647-23.924 2.146-7.795 4.417-15.185 5.991-22.236 3.404-14.082 5.896-26.426 8.377-36.547 1.088-5.028 2.186-9.598 3.122-13.503 1.009-3.938 1.843-7.182 2.528-9.94 1.381-5.369 2.171-8.282 2.171-8.282z"/><g><path fill="#FFF" d="M1406.414-134.743s16.344 131.89-103.231 162.945c-119.505 31.024-225.104 22.981-292.313 47.959-67.241 24.866-292.523 106.35-292.523 106.35s-79.358 42.038-151.873 35.113c-72.405-6.931-381.524-81.008-381.524-81.008l-287.984-91.532-97.998 74.078s19.576 39.961 30.227 93.365c10.715 53.364 5.624 110.224 53.885 161.65 48.311 51.562 129.284 144.41 215.006 192.479 85.739 48.172 184.895 108.412 282.735 118.128 97.683 9.875 237.619 14.074 326.687 4.011 89.104-10.049 216.809-48.83 284.224-84.202 67.597-35.392 142.477-90.103 223.242-144.832 80.739-54.802 135.069-144.666 173.864-214.46 38.863-69.77 47.695-121.008 62.93-175.613 15.198-54.626 23.785-87.548 48.231-96.709 24.392-9.099 40.379-60.253-2.272-74.501-42.613-14.227-85.183-23.573-85.183-23.573l-6.13-9.648z"/><path fill="#FFF" d="M1441.904-56.145c11.096 33.167-33.859 47.941-58.373 63.58-33.778 21.634-45.505 51.772-94.062 39.598 11.22-22.968 53.812-37.441 69.95-59.566 21.723-29.684 14.577-60.196 34.78-91.584 3.669.174 11.524 3.141 14.255 5.082-4.23 19.427 16.27 27.428 20.413 44.517M-87.157 33.824c12.29 5.933 33.542 4.871 47.286 7.397 17.013 3.248 33.831 8.137 50.348 12.529 15.347 4.135 31.648 9.103 46.396 14.128 15.135 5.07 38.383 12.089 50.796 21.759-3.648 9.151-15.146 20.865-14.052 30.007 1.995 18.26-22.502 14.095-34.375 12.806-29.859-3.172-65.433-5.185-94.363 3.348 18.636-16.747-4.352-35.412-14.918-47.758-13.7-15.92-23.109-37.886-42.731-46.867"/><path fill="#FFF" d="M-81.505 42.996C-55.681 46.505-23.93 40.326.01 53.971c11.213 6.345 14.863 18.39 20.332 28.97 5.042 9.84 15.071 17.275 19.523 25.49 13.537 24.718-31.975 20.044-44.577 21.39-14.9 1.497-16.523 3.402-21.737-10.892-3.193-9.021-6.319-17.823-10.668-26.384-8.631-16.614-27.789-34.947-41.756-46.5"/><path fill="#FFF" d="M31.252 133.792c-7.958.529-2.107 13.722-3.352 19.735-1.682 8.039-7.827 14.914-13.644 20.474C.444 186.91-15.366 194.2-31.421 203.511c-10.149 6-32.963 23.303-45.303 13.787-5.736-4.344-4.652-16.184-5.983-22.878-1.804-9.631-8.256-15.991-10.895-24.44-4.333-13.67 7.193-14.536 16.943-18.234 11.227-4.182 20.973-9.874 32.503-13.765 11.346-3.642 22.41-8.229 34.072-10.823 10.866-2.442 19.455-.193 30.227.327M79.326 253.325c-4.12-11.003-15.536-18.863-23.597-8.907-9.773 11.979 2.837 22.472 4.802 34.454 2.567 14.934-6.91 17.487-14.147 26.792-3.006 3.981-13.252 24.04-10.753 29.727 5.025 11.147 22.576 4.678 27.949-1.737 6.238-7.319 5.489-20.176 18.932-22.516 9.904-1.669 19.873 7.273 28.67 10.13 11.7 3.727 21.93 7.6 33.591 13.498 4.185 2.091 7.245 4.212 12.037 5.058-.233-6.251-14.406-15.375-19.798-20.526-7.283-7.12-13.807-14.991-20.532-22.316-6.646-7.123-31.628-43.062-37.964-39.608M605.643 571.493c-9.822-6.506-33.692-20.503-35.349-32.728 6.787.284 14.088 2.86 18.926-2.478-6.094-9.253-18.764-12.569-29.011-15.129-2.789-.708-9.637-2.956-12.146-2.446-9.014 1.83-3.71 4.135-8.029 7.967-4.985 4.589.082 5.627-8.728 5.228-5.234-.152-11.247-6.427-16.401-7.653-7.247-1.572-21.52-1.422-27.803 3.585-14.494 11.551-.714 14.021 6.791 21.989 10.933 11.768-.512 12.832-9.351 19.312-20.916 15.407 7.323 35.604 15.726 51.333 2.786 5.225 5.124 18.35 11.339 19.826 11.5 2.583 4.321-11.64 2.244-16.954-8.606-21.622-4.006-25.214 12.225-39.931 6.974-6.289 12.366-12.283 17.725-20.231 2.4-3.771-4.026-5.912 1.934-9.041 2.793-1.491 10.92 2.31 13.677 2.934 8.378 1.839 40.318 19.726 42.077 13.573"/><path fill="#FFF" d="M1457.445 64.765s-1.599 7.27-5.191 20.792c-3.688 13.374-9.276 33.114-18.119 57.637-8.818 24.483-20.413 53.988-36.141 86.867-15.655 32.845-35.127 69.138-59.61 106.826-24.342 37.632-53.637 76.885-88.938 114.706-35.286 37.737-76.322 74.279-123.232 106.061-46.815 31.761-99.073 59.345-155.295 79.315a5491.397 5491.397 0 0 1-42.664 13.606c-14.559 3.653-29 7.524-43.793 11.016-14.539 3.032-28.956 6.232-43.586 9.157-14.706 2.631-29.485 5.64-44.266 7.998-59.063 9.686-118.755 16.059-177.852 18.238-58.976 2.591-117.326-.323-173.296-7.072-13.88-1.482-27.766-3.928-41.381-5.993-13.626-2.35-27.129-4.888-40.447-7.755-13.148-3.15-26.261-5.918-39.018-9.574-6.363-1.723-12.77-3.572-19.107-5.191-6.203-2.021-12.402-3.9-18.58-5.814-3.107-.973-6.083-1.855-9.205-2.866-3.029-1.011-6.061-2.018-9.058-3.136-5.986-2.051-11.915-4.197-17.911-6.304-5.875-2.157-11.615-4.49-17.444-6.706-5.722-2.365-11.499-4.397-16.98-6.971-11.033-4.985-22.098-9.488-32.509-14.773-5.257-2.627-10.523-5.264-15.634-7.706-5.091-2.554-10.092-5.416-15.082-8.038-39.68-21.277-73.947-44.387-102.75-66.584-28.837-22.323-52.094-43.825-70.702-62.042-9.179-9.338-17.538-17.451-24.16-25.118-6.797-7.424-12.632-13.75-17.066-19.092l-13.903-16.336s5.229 5.308 14.907 15.236c9.819 9.924 24.646 23.996 43.892 41.297 19.571 16.92 43.92 36.882 73.296 57.48 29.476 20.533 64.17 41.561 103.784 61.059 39.539 19.346 84.013 37.08 132.429 50.863 48.506 13.916 100.813 24.142 155.539 29.865 6.755.771 13.665 1.473 20.463 2.186 6.986.38 13.878.972 20.93 1.402 13.879 1.16 27.943 1.365 42.062 2.003 7.153.276 14.189.149 21.261.224 7.217 0 14.363.225 21.478-.019 7.16-.044 14.335-.253 21.564-.389l10.816-.183 10.759-.555c57.716-2.56 116.316-9.07 174.389-18.822 14.487-2.282 28.904-5.085 43.268-7.642 14.542-2.717 29.053-5.855 43.589-8.847 13.828-3.258 27.966-6.979 41.954-10.35a2344.8 2344.8 0 0 0 41.18-12.926c13.344-5.152 26.792-9.957 39.984-15.409 6.393-2.904 12.915-5.726 19.363-8.646 6.481-2.758 12.971-5.602 19.219-8.938 6.19-3.198 12.418-6.366 18.674-9.602 3.107-1.594 6.164-3.072 9.232-4.828l9.033-5.204a2821.574 2821.574 0 0 0 17.838-10.543c6.047-3.431 11.565-7.478 17.295-11.124 45.626-30.147 86.555-64.297 121.893-100.168 35.194-35.981 65.268-73.257 90.709-109.345 25.305-36.14 46.318-70.934 63.336-102.667 16.926-31.803 30.21-60.21 40.405-84.129 10.021-23.861 17.185-42.989 21.74-56.111 4.577-13.101 6.639-20.316 6.639-20.316z"/><path fill="#FFF" d="M739.336 678.56s2.361-1.207 6.711-2.962c4.417-1.848 10.652-4.141 18.225-6.441 3.779-1.209 7.917-2.473 12.295-3.624 4.41-1.26 9.055-2.528 13.843-3.613 9.645-2.393 19.96-4.577 30.258-6.598 10.425-2.018 20.827-3.87 30.509-5.362 4.89-.77 9.68-1.399 14.072-1.996 4.517-.764 8.736-1.245 12.672-1.645 3.855-.604 7.516-.99 10.751-1.43 3.157-.411 5.972-.693 8.227-1.107 2.297-.346 4.029-.525 5.213-.914 1.271-.25 1.938-.411 1.938-.411s-.631.378-1.715 1.063c-.984.68-2.693 1.617-4.775 2.561-4.228 2.019-10.488 4.347-18.148 6.774-7.624 2.446-16.556 4.927-26.136 7.362-9.628 2.36-19.88 4.588-30.324 6.688-10.326 1.946-20.706 3.767-30.542 5.206-9.738 1.503-18.797 2.749-26.721 3.615-3.936.586-7.489.902-10.807 1.197-3.132.43-5.89.712-8.203.812-4.672.661-7.343.825-7.343.825zM-80.216 66.56s3.847-1.885 10.599-3.214c6.692-1.197 16.351-1.614 27.952.764C-30 66.077-15.802 68.93.563 72.132c8.189 1.457 16.83 3.249 25.917 5.31 9.03 2.011 18.573 4.081 28.635 6.317 19.815 4.781 41.357 9.954 63.966 16.206 11.291 3.072 22.789 6.566 34.616 9.925 11.789 3.599 23.748 7.288 35.925 11.309 24.327 7.743 49.259 16.647 74.388 25.789 25.146 9.237 50.542 18.835 76.001 27.701 25.489 8.622 51.712 15.517 77.454 21.712 25.834 6.019 51.522 10.945 76.603 14.292 24.969 3.63 49.317 6.006 72.405 6.931 23.147 1.25 45.044.644 65.066-1.187 20.006-1.807 38.116-4.545 54.218-7.1 15.979-2.699 29.844-5.567 41.409-7.826a349.976 349.976 0 0 0 7.98-1.607c2.649-.583 5.026-1.092 7.394-1.603 4.241-1.02 7.839-2.035 10.857-3.13 6.089-2.217 9.337-3.377 9.337-3.377s-.633.635-1.912 1.787c-1.224 1.146-2.976 2.916-5.568 4.959-2.542 2.038-6.014 4.417-10.255 6.611a454.844 454.844 0 0 0-6.789 3.456c-2.402.944-5.139 2.159-7.953 3.352-11.183 4.509-25.29 8.746-41.848 11.999-16.562 3.326-35.457 5.371-56.046 5.941-20.619.545-42.93.44-66.394-.668-23.533-1.141-48.136-3.611-73.514-7.311-25.271-3.707-51.291-8.63-77.495-14.51-26.201-6.012-52.629-12.927-78.658-21.505-25.983-8.373-51.393-17.892-76.749-26.139-25.318-8.54-50.261-16.262-74.605-23.15-24.396-6.887-48.026-13.048-70.637-18.65-11.256-2.555-22.243-5.415-32.895-7.842a7373.125 7373.125 0 0 0-30.804-6.994c-19.767-4.332-37.873-8.49-54.098-11.764-16.01-3.319-29.993-6.463-41.664-8.621-11.691-1.936-20.487-5.757-26.28-9.307-5.882-3.63-8.786-6.878-8.786-6.878zM-107.189 185.147s1.477-1.377 4.061-3.922c2.635-2.435 6.683-5.951 12.316-9.907 5.543-3.889 12.839-8.121 21.608-12.18 8.755-3.975 19.102-7.292 30.65-10.058 11.432-2.856 24.151-4.626 37.704-5.25 13.413-.627 27.695-.095 42.288 1.033 14.614 1.17 29.543 2.851 44.875 5.311 15.293 2.531 30.749 7.467 45.159 14.068 14.492 6.752 27.904 15.206 40.369 24.368 12.419 9.217 23.996 18.978 34.738 28.877 10.768 9.688 20.812 19.55 30.405 28.631 4.771 4.616 9.368 9.019 13.897 13.325a661.663 661.663 0 0 0 13.066 12.234c8.512 7.764 16.396 14.497 23.515 20.679 7.155 6.215 13.101 11.938 17.667 16.967 4.688 5.049 7.933 9.355 9.975 12.401 2.231 3.04 3.14 4.918 3.14 4.918s-5.963-4.996-16.349-13.591c-5.239-4.218-11.742-9.143-19.061-15.068-7.199-6.015-15.504-12.725-24.349-20.086-17.798-15.223-37.048-34.077-58.531-53.186-10.815-9.415-22.113-19.062-34.493-27.561-12.293-8.49-25.35-16.233-39.044-22.105-6.936-2.904-13.954-5.19-21.095-6.778-3.651-.899-7.351-1.415-10.814-2.005l-5.244-.659-5.77-.431c-7.087-.509-14.788-.846-22.004-1.173-7.243-.287-14.398-.752-21.389-.955-14.053-.328-27.48.114-40.099.394-12.634.362-24.523.703-35.437 1.738-5.517.559-10.716 1.257-15.648 1.966a270.389 270.389 0 0 0-14.078 2.721c-8.71 2.044-16.281 4.344-22.552 6.752-3.174.995-5.835 2.172-8.324 3.234-2.233 1.161-4.391 2.006-5.983 2.847-3.367 1.584-5.169 2.451-5.169 2.451zM-43.13 263.262s1.917 1.036 5.144 3.053c.745.62 1.614 1.136 2.665 1.842 1.002.843 1.948 1.962 3.073 3.14 2.188 2.46 5.037 5.395 6.998 8.431 4.854 6.361 8.775 14.484 12.475 23.637 3.686 9.098 6.396 18.875 9.953 28.154 2.053 5.3 4.014 11.477 6.455 16.092 2.473 4.942 4.402 10.148 7.533 15.848 1.421 2.83 2.943 5.64 4.319 8.538 1.521 2.809 3.197 5.734 4.827 8.719.693 1.593 1.501 3.033 2.287 4.629l1.218 2.147.385.553c.005.182-.486-.535-.215-.155l.095.072.279.376.591 1.095c1.76 3.124 3.647 6.202 5.384 9.348l2.75 4.693 2.785 4.438c1.784 2.907 3.629 5.772 5.508 8.793a639.43 639.43 0 0 0 12.401 18.201c8.721 11.979 18.067 23.995 28.055 35.606 9.914 11.729 20.427 22.922 30.912 33.916a11426.586 11426.586 0 0 1 31.128 31.977c9.976 10.409 19.886 20.261 28.964 30.085 9.191 9.577 17.831 18.524 26.275 26.397 8.502 7.842 16.386 14.755 24.114 20.097 7.748 5.308 14.825 9.235 20.869 12.052 6.281 2.537 11.412 3.938 14.907 4.54 3.562.515 5.538.823 5.538.823s-1.965-.255-5.499-.61c-3.639-.479-8.802-1.765-15.144-4.159-6.284-2.533-13.589-6.337-21.474-11.519-7.906-5.147-16.447-11.526-25.235-19.034-8.897-7.496-18.129-16.058-27.721-25.129-9.611-9.182-20.108-18.416-30.751-28.199-10.691-9.721-21.796-19.839-32.924-30.097-11.266-10.142-22.909-20.448-34.069-31.188-5.543-5.393-11.09-10.777-16.653-16.323-5.647-5.372-10.866-11.087-16.2-16.646-5.233-5.628-10.205-11.437-15.22-17.188-2.397-2.928-4.784-5.942-7.163-8.906-1.215-1.505-2.451-2.924-3.528-4.417-1.156-1.463-2.181-2.93-3.25-4.502-2.162-2.816-4.275-5.773-6.36-8.622-2.293-3.274-4.041-6.153-6.148-9.108-1.942-2.932-3.9-5.771-5.666-8.761a598.011 598.011 0 0 0-5.16-8.958c-3.533-5.845-6.495-12.094-9.403-18.04-3.304-6.04-5.221-11.511-7.424-16.918-.618-1.25-1.117-2.615-1.716-3.953l-.357-.976-.219-.524-.111-.172-.154-.614-.081-.151-.632-2.131c-.835-2.694-1.668-5.572-2.427-8.112a323.242 323.242 0 0 1-3.552-14.577c-2.131-8.912-3.676-16.588-5.687-22.394a67.003 67.003 0 0 0-2.524-7.452 47.699 47.699 0 0 0-.939-2.993c-.489-.988-.943-1.814-1.375-2.768-1.534-3.178-2.515-5.064-2.515-5.064-1.339-2.961-.162-6.417 2.72-7.842 1.82-.765 3.774-.753 5.341.133l1.548.777z"/><path fill="#FFF" d="M83.765 237.651s4.197.926 9.907 2.788c2.888.955 6.247 2.138 9.741 3.529 1.8.863 3.574 1.528 5.451 2.485 1.844.812 3.659 1.865 5.428 2.842 1.8 1.007 3.495 2.165 5.235 3.439 1.789 1.222 3.287 2.514 4.797 3.856a38.29 38.29 0 0 1 3.934 4.114c1.151 1.413 2.321 2.789 3.127 4.233.792 1.328 1.53 2.672 1.991 3.824.584 1.238.976 2.296 1.123 3.18.573 1.777.646 2.83.646 2.83s-.723-.79-1.938-2.099c-1.314-1.299-3.084-2.925-5.274-4.8-2.272-1.877-4.986-3.854-7.895-5.816-1.523-.997-3.104-1.924-4.748-2.961-1.588-.981-3.309-2.024-4.959-2.913-3.395-2.048-6.803-4.009-10.042-5.938-3.257-1.986-6.257-3.938-8.742-5.78-4.971-3.621-7.782-6.813-7.782-6.813zM151.292 280.92c2.682.663 5.158 1.557 7.614 2.474a88.227 88.227 0 0 1 7.24 3.307c2.323 1.373 4.521 2.838 6.653 4.531 1.135.853 2.064 1.923 2.998 2.866.898.987 1.679 2.142 2.463 3.288l.083.015a.861.861 0 0 1-.036.888 1.618 1.618 0 0 1-.383.41c-.195.14-.115.293-.266.509-.044.193.101.432.119.666l.087.844-.426-.628c-.147-.23-.415-.378-.476-.743a1.474 1.474 0 0 1-.126-1.048c.117-.284.142-.583.358-.887l-.059.918c-1.106-.695-2.096-1.485-3.123-2.168l-3.218-2.108a61.294 61.294 0 0 1-3.32-1.942 31.562 31.562 0 0 1-3.266-2.03 172.851 172.851 0 0 1-6.652-4.08c-2.154-1.532-4.282-3.044-6.264-5.082z"/><path fill="#FFF" stroke="#FFF" stroke-linecap="round" stroke-linejoin="round" stroke-miterlimit="10" d="M212.977 320.895c-.1 4.138 1.149 8.041 3.326 10.765"/><path fill="#FFF" d="M454.995 477.584s4.057 1.683 9.992 4.199c1.436.749 3.101 1.425 4.735 2.21 1.765.804 3.619 1.339 5.469 2.145a488.719 488.719 0 0 1 11.732 4.71c4.01 1.426 8.045 2.829 11.868 4.258 1.971.58 3.729 1.51 5.483 2.063 1.732.587 3.482 1.146 4.948 1.595 6.126 2.047 10.285 3.723 10.285 3.723s-4.346-.703-10.649-2.114c-3.252-.694-6.982-1.43-10.924-2.765a894.214 894.214 0 0 1-12.104-3.922c-3.928-1.742-7.965-3.451-11.766-5.238-1.876-.781-3.715-1.538-5.291-2.604-1.576-.797-3.127-1.769-4.541-2.536-5.639-3.319-9.237-5.724-9.237-5.724zM546.997 504.615s2.587 1.378 7.177 3.859c1.149.578 2.416 1.305 3.93 1.999 1.396.546 2.99 1.121 4.616 1.863 3.381 1.346 7.114 2.985 11.458 4.009 2.196.506 4.417 1.172 6.732 1.895 2.4.607 4.79.981 7.297 1.433 4.954 1.137 10.352 1.958 15.815 2.761 5.493.75 11.224 1.243 17.005 1.916 5.9.623 11.809 1.119 17.75 1.762 5.926.588 11.931.688 17.735.238 5.86-.416 11.577-1.068 17.249-1.204 5.689-.307 11.215.284 16.447 1.022 5.222.69 10.146 1.662 14.715 3.082 2.257.68 4.408 1.568 6.479 2.392 2.002.788 3.834 1.81 5.508 2.726 3.367 2.022 6.197 4.023 8.173 6.058 2.17 1.911 3.484 3.659 4.23 4.926.949 1.173 1.374 1.793 1.374 1.793.614.94.43 2.045-.446 2.7-.672.488-1.509.388-2.166.023l-.238-.173s-.547-.389-1.705-1.205c-1.173-.79-2.632-1.962-4.794-3.033-1.02-.551-2.235-1.221-3.605-1.741-1.384-.566-2.691-1.36-4.415-1.757-3.134-1.126-6.787-2.157-10.9-2.929-4.074-1.016-8.724-1.477-13.539-2.162-4.946-.488-10.209-.928-15.69-1.707-5.506-.797-11.17-1.892-16.998-3.01-5.959-1.072-11.859-2.287-17.694-3.137-5.937-.83-11.807-1.514-17.695-2.41-5.815-.828-11.438-1.523-17.046-2.575-5.51-.983-10.764-2.014-15.753-3.219-2.557-.716-4.957-1.189-7.295-1.894a501.357 501.357 0 0 1-6.613-2.078c-4.317-1.189-8.058-2.928-11.501-4.324-1.626-.604-3.242-1.288-4.625-1.854-1.442-.791-2.734-1.482-3.855-2.1-4.55-2.534-7.117-3.945-7.117-3.945zM793.996 549.142s6.37.807 17.565 2.08c2.793.381 5.98.771 9.322 1.215 3.319.482 6.965.878 10.97 1.021 7.767.523 16.613 1.048 26.339 1.633 9.528.088 20.081.216 31.214.35 11.069-.47 22.703-.771 34.776-1.567 5.982-.507 12.19-1.087 18.359-1.598 3.085-.374 6.185-.556 9.321-.972 3.134-.432 6.217-.851 9.349-1.276 6.355-.841 12.589-1.719 18.889-2.546 6.425-1.205 12.782-2.314 19.092-3.417 6.399-1.034 12.657-2.397 18.911-3.806 6.283-1.39 12.516-2.645 18.639-4.189 12.279-3.216 24.34-6.181 35.928-9.843 11.725-3.201 22.688-7.062 33.172-10.46 10.399-3.77 20.283-7.083 29.229-10.884 9.047-3.41 17.188-6.913 24.322-9.884 7.24-2.998 13.382-6.051 18.553-8.318 5.133-2.297 9.053-4.279 11.79-5.626 2.703-1.237 4.149-1.981 4.149-1.981h.133c1.431-.725 3.22-.092 3.898 1.393.737 1.482.069 3.252-1.388 3.898l-.025.032s-1.438.669-4.24 1.983c-2.753 1.185-6.782 3.123-11.947 5.453-5.202 2.246-11.412 5.152-18.811 8.043-7.262 3.027-15.561 6.416-24.615 9.723-9.079 3.472-19.125 6.761-29.572 10.413-10.582 3.319-21.758 7.045-33.525 10.118-11.546 3.457-23.912 6.343-36.233 9.299-6.169 1.475-12.485 2.659-18.754 3.966-6.407 1.306-12.711 2.647-19.151 3.558-6.375 1.006-12.687 2.11-19.081 3.145-6.41.805-12.718 1.579-19.008 2.325-3.229.367-6.352.792-9.42 1.181-3.152.32-6.304.462-9.415.722-6.219.528-12.386.902-18.398 1.396-12.071.67-23.794.853-34.933 1.088a7730.597 7730.597 0 0 0-31.283-.713 2252.263 2252.263 0 0 0-26.38-2.085c-3.898-.29-7.522-.663-10.916-1.154a355.367 355.367 0 0 0-9.328-1.269 5197.041 5197.041 0 0 0-17.497-2.447zM-37.721 169.624s.958.454 2.608 1.209c.826.45 1.955.658 3.083.999 1.289.505 2.647.646 4.18 1.001 3.03.692 6.696 1.184 10.575 1.832 1.913.396 3.954.799 5.938 1.291 1.016.302 2.006.513 2.96.907l2.891 1.278c1.963.89 3.923 1.683 5.68 2.61 1.835 1.022 3.55 2.146 5.298 3.157 3.382 1.988 6.367 4.102 8.92 5.783 5.258 3.402 8.768 5.805 8.768 5.805s-1.001-.534-2.454-1.517c-1.622-.925-3.883-2.114-6.555-3.823-2.658-1.664-5.742-3.751-9.039-5.675-1.687-.972-3.462-1.95-5.207-2.967-1.836-.893-3.844-1.669-5.821-2.479l-2.813-1.316c-.894-.349-1.942-.551-2.953-.986a80.943 80.943 0 0 0-5.773-1.265c-3.843-.896-7.491-1.294-10.519-1.98-1.514-.434-2.945-.805-4.151-1.293-1.162-.555-2.296-.753-3.061-1.168-1.641-.892-2.555-1.403-2.555-1.403zM245.158 641.638s-10.114-4.606-27.799-12.585c-8.84-4.216-19.669-9.096-31.831-15.207-12.099-5.93-25.883-12.779-40.526-20.6-7.333-3.959-15.026-8.055-22.846-12.545-7.847-4.332-15.826-9.121-24.072-14.045-16.343-9.804-33.56-20.501-50.777-32.347-17.248-11.949-34.452-24.792-51.398-38.902-16.928-14-33.638-28.962-49.263-45.062-15.694-15.87-30.39-32.96-43.856-50.367-6.823-8.675-13.216-17.498-19.712-25.802-1.698-1.978-3.271-4.012-4.936-5.914-1.771-2.078-3.494-4.033-5.145-6.02-3.456-4.464-6.921-8.655-9.867-13.208-12.283-17.85-20.877-37.361-26.264-56.434-5.504-19.162-7.727-38.003-8.266-55.274-.21-8.657.087-16.941.592-24.801.501-7.866 1.843-15.678 2.237-21.521.988-12.083-.785-22.483-3.126-30.905-2.466-8.496-5.431-15.265-7.002-21.943-.697-3.334-1.072-6.793-.781-9.466.123-1.33.295-2.478.537-3.14.208-.752.247-1.052.247-1.052 1.376-5.745 7.076-9.146 12.814-7.773 3.724.997 6.552 3.774 7.575 7.292l2.089 7.233c.1.117.079-.307-.006-.184 0 0-.15.532.183 2.316.464 3.537 3.263 10.991 5.594 21.231 2.457 10.327 4.21 23.634 2.4 38.428-.934 7.694-2.396 14.008-3.132 21.304-.828 7.217-1.369 14.877-1.372 22.866-.234 15.86 1.499 33.256 5.925 50.918 4.424 17.666 11.724 35.712 22.565 52.441 2.571 4.242 5.599 8.27 8.543 12.178 1.64 2.127 3.271 4.149 4.909 6.223 1.742 2.24 3.37 4.444 4.973 6.632 6.379 8.853 12.52 17.645 18.918 26.472 12.716 17.423 26.51 34.505 41.488 50.553 14.971 16.052 30.707 31.419 47.26 45.431 16.467 14.136 33.44 27.178 50.284 39.118 16.826 12.021 33.67 22.854 49.883 32.712 8.194 4.804 16.095 9.445 23.88 13.739 7.786 4.412 15.39 8.573 22.718 12.4 7.305 3.938 14.422 7.485 21.149 10.874 6.725 3.541 13.167 6.557 19.27 9.419 12.219 5.829 22.944 10.419 31.754 14.284 8.753 4.021 15.939 6.834 20.724 8.847 4.776 2.028 7.313 3.092 7.313 3.092 2.532 1.06 3.701 3.983 2.758 6.421-1.145 2.572-4.018 3.729-6.494 2.707-.062-.041-.111-.034-.111-.034zM803.365 234.788s.061-.273.277-.707c.028-.301.146-.591.347-.949.257-1.009.746-2.083 1.517-3.172 1.404-2.109 2.903-3.38 4.774-4.653 1.942-1.084 3.923-1.75 5.974-2.254 4.068-1.039 8.37-1.18 12.805-.872 2.276.149 4.488.442 6.78.878 1.145.124 2.313.402 3.554.782l.846.226.553.12.423.119 1.505.521a530.941 530.941 0 0 1 11.948 4.083c3.788 1.415 7.274 2.237 10.389 3.122 1.438.425 2.901.553 4.096.799 1.333.256 2.448.412 3.259.569 1.878.237 2.93.485 2.93.485l.139.011c.885.163 1.39 1.072 1.236 1.789-.124.826-.735 1.295-1.453 1.346 0 0-1.175-.014-3.092.044-.926.016-2.11.01-3.348-.044-1.469.013-3.019.144-4.552-.025-3.239-.386-7.271-.509-11.213-1.188a733.802 733.802 0 0 0-12.47-1.812l-1.605-.177-.436-.09c.121.092-.169-.024-.224-.069l-.698.009c-.93-.106-1.825-.053-2.708-.041-1.954-.009-3.829.119-5.696.304-1.7.21-3.474.462-4.979.848-1.468.384-2.73.945-3.831 1.396-.941.371-1.652.976-1.869 1.282-.302.245-.263.635.086.143.241-.275.325-.721.319-1.04.006.45-.078.765-.055.918-.123.5-.128.773-.128.773-.524 4.338-4.566 7.405-8.916 6.839-4.323-.605-7.342-4.473-6.826-8.865.104-.472.187-.965.358-1.338l-.016-.11zM1012.94 144.358s.434.029 1.349-.043c.852.093 2.047-.109 3.664-.33 3.17-.362 7.579-1.215 12.963-2.18 10.684-2.252 25.047-5.043 39.28-7.923 14.326-2.814 28.812-5.341 39.778-6.509 2.862-.301 5.36-.405 7.782-.607 2.169-.155 4.261-.082 5.883-.117 1.828.006 3.315.29 4.278.423a63.74 63.74 0 0 0 1.466.179c2.127.221 3.726 2.221 3.374 4.396a3.796 3.796 0 0 1-4.268 3.366c-.162-.025-.185.006-.185.006l-.903-.138s-.291-.115-1.05-.195c-.718-.09-1.624-.418-3.095-.542-1.553-.057-3.337-.185-5.436-.254-2.24.018-4.614.063-7.293.174-10.796.481-25.276 1.902-39.659 3.768-14.517 1.853-28.926 3.748-39.776 5.142-5.437.715-9.955 1.164-13.158 1.361-1.628.169-2.836.133-3.666.143-.894-.091-1.328-.12-1.328-.12z"/><path fill="#FFF" d="M190.09 609.727s.438.355 1.221 1.185c.412.384.998.841 1.679 1.367a12.748 12.748 0 0 0 2.424 1.54c3.771 2.219 9.788 4.292 17.831 5.971 4.066.961 8.567 1.824 13.492 2.994 2.45.547 5.085 1.27 7.787 2.231 2.843 1.013 5.204 2.317 7.858 3.469 10.534 4.728 22.234 10.645 35.123 14.942 1.644.52 3.272 1.123 4.855 1.66 1.798.494 3.556.916 5.364 1.517 3.511.979 7.156 2.018 10.801 3.129 7.355 2.249 14.895 3.99 22.692 6.137 15.575 4.188 32.063 8.118 49.191 11.394l3.198.765 3.188.476c2.125.412 4.43.769 6.627 1.222 4.399.748 8.797 1.626 13.404 2.471 8.905 1.746 17.931 3.769 27.005 5.853 18.203 3.176 36.683 6.684 55.348 8.639 18.921 1.214 37.614 2.875 56.289 2.686 18.537-.385 36.745.416 54.406.101 4.428-.062 8.825-.13 13.177-.155 4.367-.097 8.608-.29 12.913-.432 4.202-.137 8.404-.259 12.553-.374 4.096-.298 8.225-.521 12.274-.758 3.984-.275 8.004-.535 11.872-.712 3.923-.379 7.809-.765 11.575-1.116 7.567-.75 14.932-1.286 21.838-2.331 7.023-.954 13.699-1.664 20.014-2.711 6.334-1.084 12.398-2.218 18.054-3.183 11.241-2.075 20.918-4.448 28.97-6.137 15.927-4.236 25.033-6.649 25.033-6.649l.103-.011a2.985 2.985 0 0 1 3.636 2.026c.43 1.579-.455 3.152-1.997 3.703 0 0-9.106 2.624-25.092 7.506-8.029 1.992-17.839 4.616-29.195 7.166-5.648 1.014-11.686 2.311-18.093 3.49-6.381 1.276-13.177 2.162-20.237 3.229-7.095 1.182-14.498 1.962-22.154 2.836-3.781.378-7.676.774-11.624 1.255-4.008.184-7.965.482-12.065.86-4.135.354-8.294.606-12.459.89-4.124.146-8.418.394-12.716.537-4.352.211-8.658.352-12.938.6-4.495.014-8.829.141-13.269.277-4.512 0-8.89.181-13.472.27-4.569-.127-9.019-.229-13.722-.356-9.142-.19-18.366-.516-27.65-.885-9.411-.185-18.803-1.177-28.254-1.889-9.472-.552-18.897-1.171-28.443-1.76-4.67-.112-9.434-.806-14.115-1.157-4.756-.436-9.543-.771-14.285-1.168-9.457-.581-19.015-1.148-28.382-1.845-9.237-1.073-18.503-2.248-27.447-3.612-4.489-.619-9.073-1.311-13.453-2.093-2.285-.248-4.437-.634-6.642-1.062l-3.534-.624-3.307-.746c-17.521-4.018-34.254-8.573-49.909-13.548-7.78-2.548-15.559-4.914-22.669-7.575-3.612-1.284-7.109-2.533-10.616-3.777-1.726-.592-3.428-1.344-5.139-1.959-1.707-.62-3.509-1.432-5.167-2.249-6.872-2.679-12.952-6.077-18.753-9.181a1649.758 1649.758 0 0 0-16.017-9.16c-2.396-1.518-4.881-2.914-7.03-4.068-2.216-1.119-4.571-2.057-6.889-2.971-4.575-1.735-8.892-3.107-12.854-4.545-7.891-2.666-14.036-5.658-17.486-8.647-.956-.582-1.589-1.358-2.296-1.91-.572-.677-1.066-1.208-1.331-1.671a34.221 34.221 0 0 1-1.094-1.367zM286.639 176.779s.98.555 2.886 1.401c1.899.939 4.68 2.362 8.327 3.661 3.616 1.466 8.164 2.909 13.285 4.581 5.22 1.464 11.144 2.962 17.67 4.711 6.421 1.637 13.507 3.369 20.958 5.55 7.493 2.25 14.933 5.091 22.824 8.002 7.903 2.772 15.879 5.955 24.129 9.062 8.155 3.32 16.641 5.909 25.223 8.743 4.142 1.576 8.388 2.48 12.737 3.69 4.229 1.122 8.42 2.544 12.695 3.292 8.559 1.772 16.92 3.628 25.21 4.766 4.259.633 8.188 1.274 12.18 1.823 3.959.343 7.873.879 11.714 1.265 7.523 1.043 14.829 1.105 21.464 1.608 6.622.449 12.774.342 18.271.579 5.513.211 10.211.158 14.034.035 7.905-.065 12.334-.065 12.334-.065s-4.435.333-12.28.834c-3.913.241-8.552.598-14.072.71-5.434.077-11.603.455-18.351.056-6.725-.238-14.006-.156-21.673-.93-3.871-.274-7.826-.618-11.829-.897-3.994-.366-8.051-1.09-12.225-1.636-8.351-.982-16.929-2.863-25.459-4.614-4.538-.753-8.747-2.095-13.091-3.119-4.278-1.245-8.779-2.111-12.945-3.644-8.488-2.911-17.071-5.62-25.15-8.974-8.207-3.313-16.17-6.574-24.061-9.427-7.91-2.822-15.362-6.093-22.655-8.431-7.116-2.394-14.235-4.341-20.558-6.173-6.464-1.838-12.389-3.669-17.56-5.455-5.124-1.853-9.608-3.58-13.139-5.3-3.612-1.419-6.242-3.056-8.051-4.114-1.862-1.035-2.842-1.59-2.842-1.59zM254.865 369.779s3.305.887 8.294 3.967c2.514 1.414 5.854 2.821 9.29 5.254 3.529 2.367 7.671 4.706 11.601 7.726 8.32 5.987 17.704 13.051 27.612 20.717a919.336 919.336 0 0 0 15.341 11.734c5.197 3.874 10.428 7.905 15.898 11.465 5.661 3.734 11.16 7.446 16.627 11.136a874.806 874.806 0 0 1 15.9 11.008c5.183 3.587 10.22 6.783 14.949 9.91 4.826 3.104 9.344 5.889 13.736 8.318 4.358 2.232 8.26 4.584 11.998 5.943 3.716 1.459 6.765 3.154 9.597 3.796 5.517 1.623 8.724 2.575 8.724 2.575l.112.031c1.098.326 1.631 1.381 1.373 2.521-.3.93-1.351 1.514-2.402 1.323 0 0-3.294-.831-9.047-2.312-3.014-.578-6.277-2.161-10.222-3.493-3.939-1.337-8.034-3.549-12.681-5.699-4.54-2.219-9.282-4.942-14.367-7.814-4.877-2.913-10.209-6.093-15.479-9.422-5.31-3.395-10.776-6.768-16.352-10.311-5.572-3.411-11.277-6.894-17.039-10.436-5.787-3.416-11.32-7.344-16.889-10.965-5.376-3.813-10.692-7.581-15.777-11.184-10.257-7.369-19.691-13.958-27.979-19.471-4.12-2.824-7.926-4.934-11.254-7.062-1.787-1.091-3.335-1.999-4.746-2.91-1.562-.834-2.978-1.655-4.294-2.315-5.05-2.804-8.066-4.348-8.066-4.348-3.165-1.781-4.844-4.894-3.077-8.023 1.65-3.225 5.111-3.6 8.303-1.789.092.065.181.128.316.13z"/><path fill="#FFF" stroke="#FFF" stroke-linecap="round" stroke-linejoin="round" stroke-miterlimit="10" d="M407.291 444.633c13.914 7.939 21.79 17.905 28.195 32"/><path fill="#FFF" d="M-59.825 401.816s.375.819 1.118 2.352c.732 1.478 2.155 3.587 3.935 6.175 3.639 5.047 9.65 11.768 17.206 19.543 7.439 7.791 16.656 16.38 26.548 25.489 9.899 9.167 20.809 18.643 31.82 27.855 10.919 9.334 22.089 18.633 32.529 27.039 10.673 8.335 20.639 16.178 29.343 22.529a994.982 994.982 0 0 0 11.876 8.56c3.599 2.593 6.867 4.686 9.455 6.385 5.329 3.368 8.526 5.038 8.526 5.038s-.838-.36-2.345-1.066c-1.587-.666-3.813-1.843-6.556-3.32-5.579-3.138-13.293-7.598-22.276-13.74-8.952-6.121-19.382-13.382-30.027-21.688-10.724-8.245-22.012-17.397-33.025-26.67C7.294 476.9-3.49 467.246-13.316 457.908c-9.863-9.275-18.679-18.494-25.975-26.5-7.273-8.027-12.691-15.346-16.167-20.683-1.751-2.615-2.822-4.971-3.443-6.421-.572-1.64-.924-2.488-.924-2.488zM650.271 192.903s.781-.004 2.288.069c1.455-.123 3.612.046 6.273-.028 5.359-.085 13.445-.47 23.646-1.925 10.051-1.415 22.236-4.102 35.867-8.509 13.73-4.419 28.252-10.935 44.046-19.421 7.942-4.059 16.298-8.497 24.919-12.796 8.706-4.292 17.766-8.698 27.634-12.572 19.132-7.401 39.211-15.497 60.541-22.974 21.445-7.189 43.523-13.967 66.309-20.334 22.659-6.585 45.839-12.482 69.075-18.252l17.529-4.058c5.885-1.223 11.59-2.754 17.524-3.662 11.868-2.176 23.653-4.558 35.316-6.202 5.822-.851 11.607-1.734 17.397-2.559 5.885-.761 11.656-1.509 17.368-2.204 11.464-1.562 22.831-2.636 33.892-3.88 22.412-2.301 43.955-4.147 64.53-5.912 10.22-.89 20.253-1.717 29.883-2.473 4.753-.385 9.491-.627 14.205-.896 4.671-.349 9.339-.232 13.88-.386 9.12-.302 17.715.129 25.975.141 8.162.346 15.998.563 23.26.959 14.482.891 27.287 1.714 37.682 2.318 10.342.672 18.613 1.186 24.178 1.519 5.623.248 8.624.454 8.624.454l1.301.102c2.515.134 4.364 2.227 4.273 4.808-.139 2.372-2.287 4.317-4.803 4.183-.43-.034-.899-.138-1.249-.299 0 0-2.947-.992-8.713.312-2.801.664-6.344 1.351-10.603 4.26-2.102 1.802-4.63 5.948-7.062 7.699-2.398 1.589-4.838 1.039-7.492-.56-2.463-1.747-4.995-4.551-7.85-5.113-2.808-.349-5.817-.288-8.985-.521-6.273-.241-13.071.141-20.348.742-14.411 1.059-30.732 3.146-47.598 1.871-4.361-.163-8.461-.693-13.108-1.155-4.721-.424-9.532-.729-14.39-1.478l-1.85-.357h-.461l-.204.04c.568-.099.048-.065.149-.082l-.956-.13-3.734-.409c-2.495-.351-5.004-.669-7.539-1.091-5.098-.601-10.271-1.35-15.433-1.939-10.371-1.15-21.046-1.686-31.781-.979-10.742.792-21.747 1.759-32.868 2.813-11.094 1.094-22.419 2.062-33.829 3.523-5.727.735-11.44 1.387-17.221 2.135-5.777.739-11.584 1.646-17.312 2.381-11.668 1.648-23.236 3.856-34.896 5.866-5.831.946-11.653 2.383-17.54 3.548l-17.364 3.818c-23.19 5.583-46.401 11.324-69.02 17.718-22.62 6.342-44.731 13.18-65.833 20.318-21.104 7.428-41.18 15.574-60.271 23.048-18.791 7.5-35.893 16.938-51.702 25.328-15.734 8.534-31.006 15.7-45.007 20.25-14.075 4.778-26.643 7.56-37.2 9.252-10.532 1.712-18.887 2.282-24.711 2.446-2.919.122-5.033.084-6.522.127-1.453-.023-2.26-.044-2.26-.044-2.322-.01-4.311-1.965-4.378-4.391.028-2.491 2.01-4.506 4.406-4.414l.065-.086.058.043zM1106.77 369.769s-2.938.792-8.439 2.371c-5.572 1.537-13.58 3.942-23.75 7.011-10.113 3.059-22.485 6.982-36.649 11.566-14.168 4.521-30.173 9.706-47.604 15.345-17.492 5.544-36.496 11.67-56.926 17.237-20.262 5.453-41.854 10.974-64.72 14.688-22.846 3.892-46.676 6.818-71.005 7.387-6.133-.055-12.226-.081-18.403-.069-6.312-.182-12.18-.602-18.347-.86-12.137-.657-24.308-1.202-36.526-1.881-12.219-1.073-24.493-2.104-36.682-3.34-6.067-.461-12.234-1.043-18.295-1.636-6.023-.853-12.059-1.611-18.08-2.134-12.114-.82-24.438.58-36.472-.095-11.833-1.358-23.336-4.261-34.375-7.566-5.648-1.63-11.17-3.249-16.641-4.482-2.831-.78-5.659-1.366-8.449-2.071-2.663-.559-5.422-.917-8.171-1.49-5.486-.883-10.939-1.314-16.566-1.239-5.517.061-11.165.489-16.684 1.05-10.95 1.279-22.146.837-32.183-1.249-10.074-2.215-19.363-5.922-28.103-9.696l-1.639-.844-.373-.128c1.082.403-1.715-.664-1.521-.615l-.156-.114-.789-.43-2.942-1.852c-1.899-1.44-3.554-2.515-5.755-3.989-4.236-2.911-8.086-6.239-11.8-9.375-6.562-6.017-12.633-11.691-18.229-17.129-11.229-10.515-21.392-18.856-30.145-25.199-8.702-6.213-15.829-10.582-20.93-13.184-4.965-2.528-7.804-3.625-7.804-3.625-3.056-1.162-4.61-4.638-3.463-7.748 1.26-2.991 4.686-4.537 7.75-3.327.249.039.451.146.709.228l.883-.469s3.35.69 8.354 3.553c4.974 2.837 12.256 6.998 21.579 12.33 9.303 5.313 20.036 12.651 32.918 19.865 6.481 3.676 13.197 7.798 20.466 11.722 3.579 1.848 7.125 3.996 10.906 5.814 1.878.952 3.957 1.889 5.898 2.766l3.131 1.436.776.324.143.057c.185.133-.477-.16-.05.006l.393.096 1.531.542c8.747 2.547 17.8 5.305 27.152 8.146 4.653 1.43 9.419 2.888 14.294 4.386 2.37.719 4.874 1.437 7.296 2.199 2.453.735 5.037 1.288 7.577 1.95 10.193 2.43 20.63 4.979 31.313 7.629 5.281 1.183 11.034 2.603 16.234 3.648a999.104 999.104 0 0 1 16.607 3.051c11.199 2.047 22.562 3.979 34.057 6.194 11.555 1.615 23.398 3.339 35.221 4.961 5.867.872 11.809 1.706 17.791 2.661 5.987.584 11.95 1.254 17.972 1.779 11.928 1.279 24.082 2.498 36.123 3.686 12.155.748 24.344 1.544 36.474 2.282 6.117.317 12.323.835 18.104 1.056 5.957.109 11.846.171 17.803.28 23.627-.28 46.889-2.749 69.188-6.441 22.338-3.667 43.688-8.988 63.754-14.409 20.216-5.4 38.942-11.39 56.371-16.9 34.833-11.252 63.821-21.024 84.273-27.399 10.294-3.25 18.338-5.638 23.781-7.259 5.503-1.573 8.541-2.387 8.541-2.387l.028-.032c3.099-.952 6.345.838 7.349 4.063.862 3.038-.909 6.305-4.04 7.234l-.034.064zM140.49 171.818s2.161.939 5.889 2.583c1.935.816 4.064 2.056 6.583 3.66a604.76 604.76 0 0 1 8.233 5.016 34.247 34.247 0 0 0 4.801 2.436c1.576.81 3.266 1.64 5.054 2.533 3.77 1.581 7.695 3.311 11.702 5.01 4.06 1.878 8.217 3.679 12.352 5.837 4.142 2.021 8.441 4.065 12.705 6.179 4.159 2.122 8.331 4.346 12.538 6.464 4.107 2.135 8.097 4.5 11.957 6.785 3.838 2.259 7.435 4.773 10.854 7.108 3.292 2.506 6.418 4.857 8.938 7.294 1.393 1.256 2.672 2.348 3.855 3.459 1.188 1.155 2.229 2.4 3.212 3.463 1.99 2.141 3.784 4.056 4.896 5.717 2.417 3.479 3.597 5.426 3.597 5.426s-1.706-1.583-4.766-4.302c-1.425-1.46-3.463-2.902-5.698-4.583-2.258-1.835-4.95-3.652-7.745-5.629-2.856-2.028-6.207-3.804-9.602-5.85-3.383-1.986-7.173-3.993-10.933-6.103a97.497 97.497 0 0 1-5.915-3.046c-2.052-.917-4.068-1.937-6.161-2.911-4.183-2.099-8.374-4.161-12.5-6.208-8.411-4.368-16.699-8.787-24.618-12.759-3.929-2.056-7.557-4.155-11.179-6-3.399-2.231-7.244-4.216-9.923-6.624a305.527 305.527 0 0 1-7.312-6.238c-2.168-1.902-3.911-3.64-5.711-4.777-3.256-2.487-5.103-3.94-5.103-3.94z"/><path fill="#FFF" d="M357.366 336.841s-8.571-5.936-21.712-14.472c-3.337-2.179-6.8-4.641-10.542-6.964-1.945-1.379-3.728-2.412-5.894-4.052-1.865-1.368-3.795-2.964-5.774-4.368a6465.93 6465.93 0 0 0-24.852-18.531c-4.081-3.211-8.216-6.456-12.178-9.635-4.101-3.04-7.945-6.635-11.655-9.904-3.625-3.389-7.42-6.355-10.499-9.73-3.148-3.235-6.078-6.318-8.878-9.262-2.818-2.723-5.073-5.465-7.17-8.046-1.975-2.5-3.751-4.629-5.208-6.441a593.48 593.48 0 0 1-4.673-5.59c-.507-.634-.357-1.618.267-2.189.715-.546 1.585-.422 2.075.242l.147.049s1.733 1.873 4.786 5.226c1.522 1.725 3.413 3.699 5.551 6.086 2.095 2.393 4.46 4.985 7.433 7.55a901.084 901.084 0 0 0 9.166 8.601c3.207 3.134 7.05 5.771 10.714 8.916 3.829 3.039 7.62 6.318 11.938 9.192 4.206 2.895 8.452 5.993 12.734 9.032 8.671 5.734 17.245 11.499 25.351 16.878 2.143 1.417 3.751 3.341 5.705 4.639 1.654 1.213 3.58 3.077 5.444 4.177 3.905 2.215 7.631 4.312 11.018 6.301a48289.928 48289.928 0 0 1 22.712 12.992c2.81 1.583 3.829 5.233 2.227 8.021-1.626 2.859-5.256 3.861-8.101 2.206-.122-.086-.185-.132-.218-.15l.086-.774zM1463.208 56.694s-2.157 6.337-7.04 16.573c-2.464 5.144-5.566 11.392-9.489 18.211a596.825 596.825 0 0 1-13.875 22.863c-2.569 4.078-5.237 8.485-8.155 12.85-2.814 4.495-5.929 8.951-9.233 13.552-6.39 9.077-13.578 18.687-21.341 28.17-7.806 9.404-16.291 18.918-25.413 27.982-4.523 4.643-9.322 9.094-14.104 13.517-4.907 4.288-9.785 8.775-15.018 12.747-2.53 2.031-5.051 4.222-7.716 6.123l-7.944 5.788c-1.34 1.056-2.498 1.979-4.012 3.01l-4.111 2.646a963.282 963.282 0 0 0-8.062 5.254c-5.304 3.491-10.571 6.981-15.838 10.417-5.195 3.537-10.273 6.962-15.625 9.935-10.561 6.396-20.786 12.252-30.542 17.895-9.68 5.662-19.155 10.268-27.888 14.861-8.605 4.399-16.689 8.532-23.852 11.863-7.214 3.284-13.578 5.95-19.017 7.755-10.879 3.752-17.563 4.675-17.563 4.675s4.892-4.851 14.482-11.013c4.655-3.28 10.655-6.789 17.657-10.416 7.022-3.469 14.697-7.85 23.425-12.438 8.411-4.587 17.908-9.279 27.614-14.593 9.692-5.368 19.888-11.108 30.424-16.89 5.391-2.844 10.564-6.208 15.992-9.48 5.306-3.233 10.666-6.604 16.037-9.927a782.311 782.311 0 0 1 8.244-5.06l4.089-2.544c1.165-.812 2.574-1.827 3.814-2.678l7.852-5.536c2.598-1.858 5.092-3.837 7.588-5.866 5.149-3.79 9.877-8.203 14.728-12.345 4.625-4.388 9.36-8.568 13.797-13.144 8.923-8.921 17.059-18.329 24.825-27.617 7.503-9.479 14.622-18.684 20.994-27.687 6.471-9.113 12.486-17.728 17.686-25.912 5.442-7.928 10.14-15.519 14.32-22.191 4.241-6.632 8.131-12.37 11.403-16.986 3.298-4.655 5.885-8.301 7.908-10.7 1.905-2.304 2.959-3.664 2.959-3.664z"/><path fill="#FFF" d="M1527.741-34.072s-4.021 1.669-11.275 5.209c-3.671 1.688-7.624 4.371-12.519 7.475-4.393 3.553-9.894 7.326-14.543 12.98-4.881 5.402-9.225 12.372-12.878 20.287-1.967 3.998-3.159 8.582-3.474 13.479-.141 2.51.032 5.04-.046 7.597.067 1.324-.173 2.427-.24 3.755.007.638-.256 1.189-.275 1.813l-.247.92-.074.495-.075.227c.075.146.162-.481.086-.12-.431 2.61-1.116 5.189-1.907 7.778a178.583 178.583 0 0 1-2.832 7.858c-.857 2.631-2.08 5.325-2.748 8.005-.423 1.308-.598 2.771-.848 4.099-.301 1.391-.501 2.896-.661 4.283-1.856 11.25-.622 24.003-2.017 36.803-.826 6.445-2.277 13.001-3.513 19.708l-.419 2.445-.149.664c.005-.136-.234 1.306-.197.869l-.037.292-.393 1.271c-.281 1.628-.837 3.246-1.274 4.954-.917 3.362-1.732 6.577-2.848 10.081-1.344 3.557-2.71 7.164-4.106 10.746-.741 1.758-1.436 3.639-2.266 5.334a263.577 263.577 0 0 0-2.446 4.931c-1.668 3.44-3.317 6.869-5.104 10.222-1.889 3.178-3.71 6.458-5.603 9.772-3.697 6.694-7.938 13.009-12.152 19.525-4.273 6.284-8.298 13.065-12.553 19.507-4.265 6.528-8.198 13.373-12.357 20.021-4.197 6.88-8.358 13.711-12.578 20.768-16.523 27.745-36.146 55.303-56.772 82.336a2291.588 2291.588 0 0 1-16.464 19.752l-8.31 9.915c-2.745 3.481-5.781 6.404-8.713 9.716-11.802 12.46-23.082 25.471-35.871 37.325l-18.537 18.285c-6.395 5.734-12.791 11.479-19.149 17.293l-9.651 8.647-9.844 8.225c-6.54 5.597-13.175 11.036-19.72 16.534-26.562 21.358-53.459 41.39-80.329 59.327-27.385 17.496-55.719 31.754-82.923 43.58a4319.053 4319.053 0 0 1-39.798 16.914c-6.505 2.73-12.86 5.312-19.052 7.859-6.231 2.618-12.473 4.913-18.494 7.217-12.127 4.93-23.876 8.742-35.104 12.608-5.629 2.137-11.147 3.474-16.527 5.138-5.423 1.593-10.694 3.109-15.684 4.603-5.437 1.348-10.239 2.329-15.04 3.493-4.742 1.024-9.296 2.359-13.827 3.077-9.079 1.6-17.451 3.162-24.891 4.456-7.384 1.258-14.029 2.383-19.841 3.296-5.696 1.021-10.554 2.062-14.55 2.75-7.943 1.54-12.146 2.444-12.146 2.444l-.073-.02c-2.102.381-4.205-1.104-4.634-3.139a3.991 3.991 0 0 1 3.113-4.65s4.333-.764 12.368-2.232c3.956-.756 8.897-1.598 14.722-2.664 5.748-.961 12.431-2.014 19.936-3.186 7.507-1.258 15.513-2.748 24.475-4.25 4.413-.62 8.981-1.904 13.784-2.886 4.777-1.135 9.882-2.219 14.808-3.435 5.005-1.381 10.177-2.873 15.552-4.41 5.27-1.568 10.896-2.868 16.324-4.92 11.137-3.792 22.863-7.442 34.873-12.22 6.018-2.362 12.229-4.486 18.401-7.009 6.229-2.526 12.589-5.192 19.058-7.87 12.834-5.289 26.113-10.943 39.631-16.802 27.227-11.794 54.804-25.635 82.023-42.964 26.84-17.886 53.559-37.673 79.935-59.028 6.507-5.385 12.893-10.906 19.521-16.451l9.682-8.25 9.537-8.626c6.318-5.747 12.615-11.604 18.934-17.36l18.399-18.102c12.361-11.701 23.724-24.838 35.441-37.364 2.812-3.257 6.002-6.339 8.521-9.567l8.188-9.821c5.435-6.562 10.82-13.068 16.146-19.613 20.356-27.042 39.558-54.122 55.915-82.038 4.14-6.931 8.251-13.697 12.319-20.595 4.037-6.804 8.021-13.633 11.99-20.258 8.006-13.427 15.567-26.607 22.104-39.692 1.624-3.319 3.196-6.637 4.769-9.819 1.489-3.329 2.767-6.676 4.106-9.923 3.029-6.53 4.701-13.198 6.933-19.568.941-3.253 1.663-6.725 2.424-10.057.352-1.715.668-3.377 1.121-5.06l.222-1.208c.054-.144.119-.556.026-.433l.201-.597.423-2.53c.995-6.69 2.14-13.19 3.012-19.514 1.787-12.894 3.406-25.172 5.599-36.954 1.048-5.925 2.327-11.598 3.895-16.971 1.557-5.289 2.93-10.573 4.263-15.61.781-2.648 1.547-5.21 2.372-7.733.621-2.48 1.146-5.024 2.011-7.339a188.05 188.05 0 0 1 2.658-6.973c.819-2.252 1.652-4.587 2.834-6.575 4.387-8.317 9.305-15.699 14.619-21.387 5.3-6.062 10.868-10.242 15.58-14.121 5.055-3.27 9.433-6.418 13.027-8.257 7.197-3.712 11.002-5.672 11.002-5.672l.46-.267c1.904-1.073 4.207-.262 5.293 1.696.945 1.945.295 4.274-1.756 5.239-.037.058-.206.223-.282.212zM1396.646-142.354s.212.018.741.171c.442.081 1.194.246 2.244.573 1.979.682 5.011 1.5 8.203 4.861 1.483 1.513 2.678 4.089 2.854 6.866.176 2.772-.638 5.528-1.805 7.948a24.683 24.683 0 0 1-4.945 7.042c-1.691 2.136-4.022 4.454-6.282 6.421-2.335 2.13-4.454 3.961-5.529 5.99-1.062 2.211-1.409 5.211-1.338 8.46.156 6.415.453 14.434-.727 22.086-.919 7.802-2.898 15.623-5.78 23.358-2.78 7.667-6.373 15.117-10.612 22.252-4.113 7.224-9.237 14.008-14.847 19.986-5.57 6.046-11.612 11.406-17.321 16.316-5.889 4.952-11.542 9.451-16.62 13.971-5.179 4.459-10.101 8.826-14.893 12.699-4.829 3.962-9.417 7.347-13.722 10.137-4.389 2.776-8.567 4.927-12.153 6.454-3.634 1.449-6.688 2.337-8.782 2.721-2.214.352-3.271.613-3.271.613-3.294.541-6.419-1.636-6.904-4.809-.597-3.161 1.578-6.287 4.755-6.775l.069-.032.727-.127s.8-.162 2.313-.364c1.62-.225 3.845-.848 6.796-1.991 3.027-1.102 6.451-2.777 10.399-5.192 3.946-2.411 8.313-5.478 12.967-9.08 4.645-3.643 9.548-7.799 14.942-12.242 5.442-4.532 11.265-9.002 16.998-13.61 5.872-4.607 11.716-9.51 17.045-14.959 5.378-5.46 10.099-11.476 14.227-18.142 4.012-6.562 7.691-13.55 10.476-20.705a99.054 99.054 0 0 0 5.98-21.518c1.243-7.163 1.18-13.968 1.217-21.162.117-3.708.494-7.594 2.342-11.306 2.079-3.641 5.055-5.776 7.219-7.667 4.311-3.757 8.161-7.647 10.119-11.374 2.047-3.849 1.7-6.969.039-8.745-1.795-2.045-4.193-2.92-5.772-3.405-1.406-.585-2.61-.754-2.61-.754-1.313-.341-2.259-1.649-1.94-3.068.215-1.394 1.613-2.275 3.027-2l.039.064.115.038zM1021.863 254.312s-2.848-1.515-7.773-4.38c-4.905-2.741-11.955-6.636-20.363-11.592-8.283-5.011-18.03-10.773-28.389-16.976-10.471-6.231-21.701-12.689-33.033-18.8-5.672-3.018-11.336-6.166-17.061-8.851-5.648-2.914-11.338-5.527-16.846-8.058-5.492-2.436-10.861-4.729-16.09-6.751-5.21-1.868-10.062-3.849-14.805-5.149-4.604-1.482-8.812-2.828-12.564-3.662-3.801-.956-7.15-1.959-9.982-2.412l-8.734-1.536s3.198.394 8.806 1.309c2.802.297 6.147 1.113 10.005 1.98 1.967.386 4.014.789 6.143 1.39 2.097.519 4.394 1.147 6.705 1.872 4.677 1.216 9.651 3.091 14.946 4.886 5.149 1.954 10.646 4.12 16.298 6.528 5.466 2.464 11.277 5.025 16.954 7.91 5.698 2.721 11.464 5.799 17.144 8.865 11.361 6.133 22.583 12.72 32.898 18.989 10.478 6.228 19.91 12.37 28.234 17.448a1284.228 1284.228 0 0 1 19.903 12.384 735.989 735.989 0 0 0 7.604 4.606zM839.176 414.598c-8.077 1.806-22.08 4.984-12.446 14.014 4.636 4.475 20.365 3.484 26.813 5.991 23.562 9.028 9.357 24.354.282 39.61 12.787 7.929 13.403-18.266 30.817-9.383 10.538 5.359 15.803 17.776 26.397 22.409-2.151-9.519-12.169-13.428-14.868-23.469-1.471-5.335-2.405-20.521-.376-25.835 2.359-6.094 12.204-16.889 16.902-22.097 5.851-6.453 16.694-6.797 19.462-15.98-13.7-3.682-32.532 9.228-46.362 12.761-14.189 3.589-27.959 3.479-41.887 1.683M-43.466 58.085s1.782-.195 5.09-.678c3.262-.347 8.203-.679 14.4-.671 6.234.174 13.85.644 22.446 1.854 8.647 1.011 18.21 2.851 28.655 5.188 10.397 2.214 21.686 4.919 33.617 7.347 11.917 2.509 24.642 5.313 37.523 8.918 12.803 3.646 26.013 7.761 39.309 11.744 13.452 4.157 27.058 8.225 40.685 12.312 13.563 4.134 27.14 8.371 40.523 12.561 13.312 4.282 26.547 8.358 39.157 12.733 6.256 2.055 12.489 4.152 18.642 6.176a603.897 603.897 0 0 0 17.637 6.425c11.547 4.078 22.195 8.383 32.214 12.156 9.975 3.776 18.925 7.706 26.913 11.132 8.125 3.293 14.889 6.448 20.583 8.975 11.286 5.208 17.75 8.148 17.75 8.148s-6.555-2.678-18.078-7.426c-5.7-2.397-12.639-5.302-20.801-8.347-8.132-3.024-17.121-6.842-27.133-10.375-10.014-3.584-20.825-7.729-32.435-11.584-11.54-3.885-23.683-8.014-36.439-12.123-12.596-4.137-25.743-8.202-39.178-12.513-13.332-3.935-26.977-8.075-40.503-12.188a14202.535 14202.535 0 0 1-40.548-12.574c-13.395-4.104-26.56-8.273-39.263-11.942-12.737-3.682-25.148-6.723-37.138-9.335-11.988-2.737-23.156-5.725-33.465-8.196C16.261 63.387 6.781 61.419-1.7 59.923c-8.594-1.343-16.161-2.136-22.244-2.384-6.246-.279-11.113-.109-14.357.093-3.426.311-5.165.453-5.165.453z"/><path fill="#FFF" d="M1470.978 74.077s-.62 2.941-1.921 8.321a268.622 268.622 0 0 0-2.355 10.025c-.837 3.882-1.771 8.427-2.877 13.532-2.229 10.164-4.517 22.607-7.646 36.69-1.46 7.141-3.598 14.532-5.543 22.433-2.614 7.687-4.796 16.049-8.467 24.184-1.663 4.154-3.118 8.525-5.293 12.693-2.073 4.146-4.261 8.391-6.401 12.632-4.655 8.568-9.895 16.915-15.012 25.752-10.154 17.744-21.948 35.734-34.013 54.545-6.039 9.365-12.711 18.582-19.231 27.974-3.262 4.86-6.508 9.501-9.812 14.283-3.409 4.697-6.87 9.372-10.372 14.062-7.027 9.452-13.857 18.961-20.961 28.397-7.49 9.217-14.899 18.576-22.271 27.879-3.855 4.475-7.388 9.329-11.38 13.673-3.959 4.358-7.88 8.929-11.865 13.319-7.971 8.737-15.562 17.83-23.724 26.301-8.203 8.299-16.36 16.587-24.544 24.716-4.014 3.993-7.817 8.247-12.082 12.074-4.222 3.764-8.363 7.552-12.497 11.323-8.235 7.418-16.293 14.859-24.359 21.925-8.33 6.792-16.54 13.399-24.502 19.808-15.658 13.199-31.804 23.861-46.267 34.338a1098.883 1098.883 0 0 1-10.649 7.616c-3.536 2.425-7.15 4.476-10.475 6.729-6.911 4.145-13.462 8.222-19.704 12.07-6.193 3.78-11.807 7.438-17.35 10.492-5.503 2.942-10.622 5.579-15.254 8.047-18.318 9.799-28.805 15.387-28.805 15.387s10.339-5.83 28.574-15.96c4.42-2.489 9.559-5.232 14.988-8.328 5.403-3.163 11.076-6.989 17.093-10.896 6.103-3.898 12.592-7.98 19.292-12.459 3.441-2.216 7.061-4.353 10.447-6.884 3.493-2.416 7.013-4.993 10.614-7.683 14.315-10.543 30.264-21.302 45.718-34.731 7.811-6.517 15.864-13.092 24.143-19.878 7.891-7.199 15.983-14.617 24.18-22.136 4.083-3.688 8.244-7.495 12.409-11.307 4.22-3.767 7.954-8.061 12.111-12.061 7.903-8.189 16.064-16.423 24.207-24.812 8.143-8.341 15.61-17.382 23.588-26.118 3.79-4.439 7.736-8.912 11.72-13.386 3.946-4.329 7.516-9.104 11.28-13.702a9824.657 9824.657 0 0 1 22.29-27.719c7.135-9.285 14.084-18.891 21.105-28.16 3.484-4.65 7.042-9.35 10.352-14.032 3.3-4.787 6.581-9.538 9.903-14.219 6.441-9.406 13.12-18.508 19.209-27.802 12.059-18.685 24.182-36.488 34.419-54.161 5.195-8.744 10.634-17.123 15.259-25.45 2.242-4.258 4.295-8.378 6.446-12.509 2.175-4.04 3.66-8.327 5.536-12.382 3.649-8.062 5.826-16.331 8.52-23.876 2.203-7.94 4.495-15.173 6.034-22.305 3.402-14.074 6-26.435 8.326-36.484 1.16-5.117 2.26-9.634 3.192-13.582 1.017-3.892 1.873-7.222 2.617-9.882a523.24 523.24 0 0 0 2.06-8.316z"/></g></svg>