<svg xmlns="http://www.w3.org/2000/svg" width="264" height="60" viewBox="0 0 264 60"><path d="M31.496 5.849l-.009-.012a.99.99 0 0 0-.081-.09l-1.725-1.732a.737.737 0 0 1 .089.103l1.726 1.731zM9.445 10.46c.007.146.017.3.031.458l.001.025.001.009a8.545 8.545 0 0 0 .133.887l.013.056c.03.136.065.274.105.415l.017.058c.044.147.096.299.154.451l.016.047c.009.021.021.045.029.067.031.077.064.154.1.233.02.043.038.086.059.129.04.084.084.169.129.254l.06.114c.068.123.141.247.22.371l.015.021c.075.117.156.235.243.354l.021.03.052.064a8.351 8.351 0 0 0 .382.473c.127.146.261.293.407.44l1.726 1.731a8.582 8.582 0 0 1-.408-.44l-.104-.121a7.63 7.63 0 0 1-.276-.348c-.024-.033-.052-.066-.076-.101a6.94 6.94 0 0 1-.238-.347l-.018-.027a7.588 7.588 0 0 1-.219-.369l-.064-.122a6.95 6.95 0 0 1-.186-.383 8.87 8.87 0 0 1-.143-.344 5.881 5.881 0 0 1-.152-.446l-.02-.067a7.709 7.709 0 0 1-.103-.403l-.015-.062a7.523 7.523 0 0 1-.135-.919 11.395 11.395 0 0 1-.03-.457 4.175 4.175 0 0 1 .014-.589c.009-.094.02-.189.033-.286l.005-.039c.017-.105.038-.214.062-.323l.021-.093a4.87 4.87 0 0 1 .089-.332 5.48 5.48 0 0 1 .111-.327l.034-.088a6.817 6.817 0 0 1 .149-.35c.053-.112.11-.224.172-.335l.04-.07c.072-.127.148-.252.232-.376l.008-.012c.085-.126.178-.249.275-.371l.067-.084c.039-.047.081-.094.122-.141.032-.037.064-.073.098-.109.045-.049.092-.096.139-.143.033-.034.066-.068.102-.102.052-.051.107-.1.162-.148.032-.029.062-.059.097-.087.072-.062.148-.123.226-.184l.053-.042a6.65 6.65 0 0 1 .298-.214l.108-.068c.07-.046.14-.091.213-.134.045-.027.092-.052.138-.078.067-.038.135-.076.204-.112l.157-.077.207-.099.171-.073.217-.088c.06-.022.121-.045.182-.066a6.82 6.82 0 0 1 .229-.078c.063-.021.128-.04.192-.06a11.87 11.87 0 0 1 .444-.119 10.977 10.977 0 0 1 .467-.101c.092-.017.186-.032.279-.047.07-.012.14-.022.212-.033.099-.013.202-.024.305-.036.07-.007.139-.016.21-.022a8.13 8.13 0 0 1 .355-.024c.062-.004.122-.009.186-.012.185-.008.373-.013.566-.013 4.901 0 8.709 2.573 11.312 5.188l-1.726-1.732a21.438 21.438 0 0 0-2.148-1.891l-.028-.022-.096-.07c-2.386-1.793-5.412-3.204-9.041-3.204-.193 0-.382.005-.567.013-.062.003-.12.008-.181.012-.121.007-.242.015-.359.024l-.209.022c-.104.012-.207.022-.308.036l-.209.032c-.096.016-.191.031-.283.049a6.129 6.129 0 0 0-.204.041c-.089.019-.178.038-.264.059-.066.017-.132.033-.197.051a5.931 5.931 0 0 0-.247.069c-.062.017-.125.037-.186.056a12.91 12.91 0 0 0-.235.08l-.175.064c-.077.03-.151.061-.226.092l-.161.069a7.413 7.413 0 0 0-.22.104 6.573 6.573 0 0 0-.146.071c-.075.039-.147.08-.22.121a4.78 4.78 0 0 0-.122.068c-.082.049-.161.101-.239.151-.027.017-.056.034-.082.052-.104.07-.205.143-.303.217l-.001.001a5.184 5.184 0 0 0-.279.226l-.071.065c-.064.057-.127.113-.188.171-.029.027-.056.056-.084.084-.053.054-.106.106-.156.161l-.081.094c-.048.054-.095.106-.139.16-.01.012-.021.022-.03.034l-.027.037c-.1.124-.194.249-.28.376l-.01.016a5.647 5.647 0 0 0-.229.372c-.008.015-.019.028-.026.043l-.016.03a5.587 5.587 0 0 0-.324.692l-.02.046-.01.029c-.042.111-.08.222-.113.331l-.017.06a6.363 6.363 0 0 0-.073.278c-.004.016-.01.032-.013.049-.003.011-.004.023-.006.036a5.66 5.66 0 0 0-.063.326l-.005.041a6.016 6.016 0 0 0-.033.287l-.005.042v.021a4.413 4.413 0 0 0-.009.524zM37.714 16.611l.109-14.233L36.098.646l-.11 14.233h-3.492l1.726 1.732zM4.288 40.636l.074.203.012.028c.035.09.075.184.115.277l.046.107c.058.137.12.271.188.409l.055.104c.052.106.105.215.163.324l.095.174c.05.092.1.187.152.276l.113.194c.053.091.105.182.162.271.041.067.084.14.127.205.057.095.115.187.176.276.045.066.092.142.139.212.062.095.126.188.191.28.049.07.099.146.149.217.068.098.139.191.21.293l.1.139.049.062c.286.385.595.771.924 1.158.05.06.101.114.15.174.123.143.249.28.378.426l.161.176c.179.191.361.386.55.572l1.726 1.729-.011-.011.011.011-.039-.038a48.218 48.218 0 0 1-.508-.527 7.72 7.72 0 0 1-.168-.188 18.09 18.09 0 0 1-.373-.42c-.051-.06-.102-.114-.151-.174-.329-.38-.638-.767-.924-1.15-.051-.063-.1-.135-.148-.2-.071-.099-.142-.192-.21-.291-.051-.07-.101-.146-.149-.218-.065-.095-.129-.188-.19-.28-.048-.068-.095-.144-.141-.213-.06-.095-.117-.187-.175-.274l-.127-.205c-.057-.095-.11-.187-.163-.272l-.112-.193c-.054-.093-.104-.187-.154-.279-.03-.059-.062-.113-.092-.17-.058-.107-.111-.219-.164-.322-.018-.035-.038-.072-.055-.109-.067-.141-.131-.272-.188-.406l-.049-.123c-.039-.093-.077-.183-.111-.271a4.18 4.18 0 0 1-.08-.222 4.954 4.954 0 0 1-.137-.417l-1.726-1.729c.028.1.061.203.098.311.009.031.021.063.031.094zM6.54 29.382c3.144 3.156 7.631 5.433 12.87 7.075 5.772 1.807 9.058 3.668 10.847 5.464a704.62 704.62 0 0 0-1.727-1.731c-1.788-1.797-5.073-3.654-10.846-5.465-.327-.103-.652-.207-.974-.312-3.854-1.291-7.267-2.947-9.985-5.071a20.47 20.47 0 0 1-1.911-1.688l.009.009-.009-.009 1.726 1.728z"/><path d="M42.145 41.855c-.004-.104-.01-.205-.016-.312a21.89 21.89 0 0 0-.048-.729c-.005-.062-.006-.131-.013-.193l-.027-.256-.024-.229a22.479 22.479 0 0 0-.094-.713l-.014-.094a19.176 19.176 0 0 0-.142-.806c-.014-.068-.029-.144-.045-.213a20.67 20.67 0 0 0-.135-.604c-.02-.081-.039-.163-.06-.244a24.874 24.874 0 0 0-.194-.706c-.01-.028-.018-.062-.027-.098-.08-.267-.168-.527-.26-.791-.026-.074-.055-.146-.081-.224-.04-.105-.077-.219-.119-.322a12.29 12.29 0 0 0-.132-.326l-.053-.129a19.55 19.55 0 0 0-.34-.762c-.025-.055-.052-.104-.078-.158-.125-.26-.255-.514-.394-.768-.008-.015-.016-.025-.023-.041a19.256 19.256 0 0 0-.999-1.601c-.037-.054-.076-.104-.113-.159l-.189-.264c-.093-.127-.191-.25-.289-.374l-.089-.116a19.792 19.792 0 0 0-.588-.699l-.151-.169c-.212-.236-.43-.47-.66-.7l-1.725-1.732a.043.043 0 0 0 .006.007l-.007-.007.02.02c.223.225.435.452.642.682.05.056.1.111.148.167.206.232.405.468.594.705.025.032.049.062.073.096.176.224.345.449.507.677l.089.123c.17.244.332.489.488.736l.089.145c.151.246.298.494.436.743.005.011.011.019.015.026.14.255.271.511.396.77.026.053.053.107.078.161.12.251.232.503.339.757l.055.133c.088.217.171.436.25.648.026.072.055.146.08.219.093.264.181.529.261.795.009.028.017.061.025.088.07.237.136.479.196.717.021.078.04.16.06.24.048.201.093.401.135.604l.045.217c.053.269.101.533.142.8.006.035.01.07.015.106.035.231.065.465.092.696.01.078.018.158.026.236.015.146.027.299.039.444.02.239.036.479.048.72.005.107.012.217.016.321a16.195 16.195 0 0 1-.044 2.226 15.36 15.36 0 0 1-.117 1.027l-.017.098c-.05.319-.111.643-.181.961l-.05.229c-.075.319-.158.646-.254.962-.017.059-.036.111-.054.168a16.833 16.833 0 0 1-.768 2.007l-.074.151c-.133.278-.274.556-.424.827-.045.082-.089.166-.136.248l-.152.258c-.078.133-.16.266-.243.396-.053.082-.105.166-.16.247-.088.135-.18.268-.272.396l-.164.229c-.107.146-.22.291-.333.438-.046.059-.089.117-.136.175-.051.062-.106.124-.159.187-.137.164-.275.328-.421.486-.073.081-.15.159-.226.239-.13.138-.261.271-.396.407-.086.084-.176.168-.265.25a15.849 15.849 0 0 1-.694.619l-.43.348a14.777 14.777 0 0 1-.772.568c-.106.07-.211.146-.319.219-.168.11-.342.219-.517.324-.104.062-.205.129-.312.188-.206.12-.419.232-.633.352-.081.043-.159.088-.241.131-.3.15-.607.299-.923.438-.065.027-.134.057-.198.082-.254.109-.511.217-.774.314-.118.045-.242.086-.362.129-.217.078-.436.154-.66.229-.14.045-.283.086-.425.129-.214.062-.43.125-.65.184-.151.041-.307.076-.461.113-.22.055-.441.104-.667.149a60.25 60.25 0 0 0-.486.099c-.229.043-.464.082-.7.119-.165.023-.331.053-.499.074-.248.033-.502.062-.756.092a36.99 36.99 0 0 1-.491.051c-.285.024-.577.045-.87.062-.143.009-.283.021-.428.025-.441.021-.891.03-1.35.03-9.528 0-13.173-4.354-13.82-4.562l-.175.209c-.007.01-.012.018-.019.021-.009.012-.02.021-.028.033l-.145.182c-.02.023-.038.049-.058.072l-.215.277a.461.461 0 0 1-.018.023c-.07.092-.144.188-.218.288l-.078.104c-.057.074-.112.152-.17.232-.028.039-.057.076-.085.117l-.188.271c-.021.029-.041.062-.062.091-.082.12-.164.243-.244.366-.018.022-.033.053-.051.078-.062.1-.124.192-.184.293l-.069.112-.16.272-.041.068c-.005.01-.009.019-.014.024-.078.142-.15.276-.217.411l-.031.068a4.345 4.345 0 0 0-.15.342c-.006.018-.015.033-.021.05-.003.009-.004.015-.008.021-.037.104-.07.197-.095.291H.267l1.725 1.729H5.92a2.81 2.81 0 0 1 .094-.287l.033-.082c.042-.104.09-.215.143-.323.013-.027.024-.056.037-.08.065-.135.139-.271.217-.41.016-.021.032-.051.049-.08.053-.094.108-.188.165-.281l.067-.11c.06-.099.121-.192.185-.293.017-.024.034-.055.052-.082.079-.121.16-.239.242-.36.021-.031.045-.062.066-.099a38.997 38.997 0 0 1 .271-.385c.057-.08.113-.158.17-.233.025-.033.051-.068.076-.104.076-.104.151-.201.224-.298l.009-.012c.075-.103.147-.191.217-.281.022-.024.043-.055.064-.08.046-.059.089-.11.131-.163l.062-.076c.061-.074.119-.146.168-.201.647.209 4.291 4.562 13.82 4.562.459 0 .907-.014 1.349-.029.146-.008.286-.02.43-.026.292-.018.584-.032.868-.062.167-.016.329-.033.493-.053.253-.026.507-.057.754-.092.169-.021.336-.049.502-.074.234-.037.468-.076.696-.119.165-.029.328-.062.49-.1.224-.045.443-.096.662-.146.156-.036.312-.075.467-.116.218-.059.431-.116.643-.182.145-.043.29-.084.432-.131.221-.069.436-.146.65-.225.123-.043.25-.086.372-.133.256-.098.504-.199.751-.307.072-.031.149-.062.222-.092.313-.143.619-.285.918-.438.089-.046.173-.097.261-.142.207-.11.414-.226.613-.338.11-.064.215-.134.322-.197.171-.104.341-.209.506-.315.111-.073.219-.149.327-.228a13.726 13.726 0 0 0 .77-.565 17.925 17.925 0 0 0 1.116-.959c.091-.086.183-.172.271-.259.133-.131.262-.266.389-.396.078-.082.157-.162.233-.246.141-.154.275-.312.409-.474.048-.06.1-.112.146-.17.008-.013.016-.021.024-.03l.127-.164c.116-.146.23-.293.34-.441a19.257 19.257 0 0 0 .598-.877c.084-.133.166-.266.245-.397.049-.082.098-.162.145-.244l.075-.129c.025-.045.046-.092.071-.14.146-.266.282-.532.411-.803.027-.059.057-.113.083-.172.145-.312.277-.631.4-.947l.038-.092c.018-.045.03-.094.047-.142.103-.272.196-.553.282-.827.018-.058.036-.109.053-.166.096-.318.18-.645.255-.966l.022-.088c.011-.045.016-.089.025-.134.069-.319.131-.641.181-.963.006-.032.013-.062.018-.103a15.9 15.9 0 0 0 .118-1.032c.003-.037.01-.072.012-.107.004-.038.003-.075.006-.114.022-.331.039-.661.042-.989.002-.307-.006-.646-.017-.984zM54.232 30.529c.006.349.016.699.03 1.056l.006.169c.017.352.04.71.072 1.076.003.029.003.059.006.087l.018.158a21.285 21.285 0 0 0 .186 1.387c.018.106.034.212.055.319.036.199.08.402.124.607.021.098.039.188.062.285.07.309.149.617.239.938l1.726 1.73c-.09-.32-.168-.631-.238-.934-.025-.109-.046-.215-.069-.322a19.8 19.8 0 0 1-.255-1.417 15.98 15.98 0 0 1-.048-.357c-.019-.154-.036-.312-.052-.459a25.433 25.433 0 0 1-.106-1.564 45.269 45.269 0 0 1-.029-1.025 16.66 16.66 0 0 1 .02-.933l.013-.233a17.652 17.652 0 0 1 .104-1.054c.019-.142.04-.279.063-.415a11.118 11.118 0 0 1 .495-1.932c.05-.136.102-.266.155-.394.033-.079.065-.161.1-.237a7.87 7.87 0 0 1 .193-.39c.032-.062.062-.127.095-.188.056-.1.115-.19.173-.284.052-.084.102-.173.155-.252.065-.097.134-.184.202-.274.05-.066.099-.138.149-.201.114-.141.23-.271.35-.395.037-.037.074-.07.11-.105.085-.084.171-.166.258-.241.047-.04.094-.076.142-.114.078-.063.157-.125.236-.182.05-.036.101-.069.15-.104.078-.051.156-.101.234-.146.05-.029.1-.059.15-.085.08-.043.159-.082.239-.118.047-.022.095-.045.142-.064a4.84 4.84 0 0 1 .259-.097c.038-.014.078-.029.117-.041a4.03 4.03 0 0 1 .366-.095 5.369 5.369 0 0 1 1.046-.103c1.515 0 3.079.627 4.333 1.886l-1.726-1.732c-.94-.943-2.056-1.532-3.193-1.768a5.656 5.656 0 0 0-1.14-.117c-.353 0-.703.034-1.047.102-.119.024-.24.057-.363.094-.043.014-.086.03-.128.045a3.747 3.747 0 0 0-.247.093c-.05.021-.101.045-.151.068a5.379 5.379 0 0 0-.229.113c-.053.028-.106.059-.159.09a5.186 5.186 0 0 0-.612.425c-.049.039-.098.077-.146.119a5.595 5.595 0 0 0-.255.237c-.037.036-.074.069-.111.107a6.268 6.268 0 0 0-.345.387l-.007.009c-.049.061-.095.128-.142.191-.07.093-.142.184-.209.284-.049.071-.094.151-.141.227-.058.095-.118.184-.174.283l-.016.03c-.029.053-.056.11-.084.165a8.191 8.191 0 0 0-.202.409c-.034.075-.065.155-.099.233-.038.091-.077.176-.113.271-.016.039-.027.085-.043.125-.035.097-.067.196-.1.296a9.148 9.148 0 0 0-.211.736c-.019.073-.04.141-.057.216-.015.064-.024.137-.038.202a14.35 14.35 0 0 0-.152.895 16.7 16.7 0 0 0-.059.533c-.009.09-.023.173-.03.266-.006.082-.009.169-.014.252l-.014.251a18.24 18.24 0 0 0-.019.92zM72.678 23.584a17.488 17.488 0 0 1 1.17 1.541c.019.027.035.056.054.083.135.199.266.401.394.606.05.081.098.163.146.244.094.154.188.31.277.467.055.097.107.195.161.293.08.145.16.288.237.436.057.106.109.215.164.322.071.141.143.28.211.422.056.114.108.229.162.345.064.138.129.276.191.416.053.119.104.239.155.359a30.477 30.477 0 0 1 .323.784 29.462 29.462 0 0 1 .472 1.275l.034.097c.115.338.225.681.329 1.021.028.09.055.184.081.271.078.261.153.521.225.777.027.102.055.197.081.299.091.34.179.683.26 1.021L55.92 40.879c.037.176.083.365.132.561l.035.141c.051.193.105.396.168.605l.004.016c.062.214.134.435.209.656.018.056.036.104.054.158.072.211.149.424.231.645l.019.05.004.011c.113.299.239.598.374.897l.052.114a18.515 18.515 0 0 0 .503 1.023 15.233 15.233 0 0 0 1.142 1.834l.034.053c.028.039.061.073.09.111.117.155.238.309.362.456.049.062.098.119.148.179.17.194.345.391.528.572.575.577 1.149 1.154 1.725 1.73a13.459 13.459 0 0 1-.528-.573c-.05-.06-.098-.115-.146-.175-.128-.151-.251-.312-.371-.469a4.053 4.053 0 0 0-.114-.148c-.2-.271-.388-.557-.566-.84-.03-.051-.061-.098-.091-.146a14.554 14.554 0 0 1-.488-.855c-.026-.049-.052-.1-.078-.146-.15-.291-.293-.584-.425-.874l-.053-.121c-.134-.301-.259-.6-.372-.893l-.03-.082a21.957 21.957 0 0 1-.221-.612l-.062-.179c-.072-.22-.142-.437-.203-.646l-.014-.047c-.058-.195-.109-.389-.158-.572-.014-.053-.026-.104-.039-.15a13.98 13.98 0 0 1-.13-.555l21.885-6.215a33.123 33.123 0 0 0-.26-1.021c-.026-.104-.055-.203-.083-.307-.07-.254-.143-.508-.218-.76-.029-.101-.059-.195-.088-.294a31.932 31.932 0 0 0-.325-1.006l-.047-.132a31.991 31.991 0 0 0-.315-.868c-.017-.045-.031-.091-.049-.135-.032-.085-.067-.168-.101-.253l-.141-.354c-.061-.146-.123-.296-.187-.439-.048-.11-.095-.225-.144-.331-.067-.15-.137-.3-.206-.449l-.147-.313a19.036 19.036 0 0 0-.226-.452c-.051-.099-.1-.198-.151-.295-.081-.156-.166-.309-.25-.461l-.149-.271a18.423 18.423 0 0 0-.29-.488c-.045-.074-.088-.149-.134-.223a20.112 20.112 0 0 0-.392-.604c-.02-.029-.037-.06-.057-.088-.15-.221-.304-.438-.462-.651l-.008-.011a19.379 19.379 0 0 0-1.64-1.913l-1.122-1.126-.604-.605a16.68 16.68 0 0 1 .944 1.041z"/><path d="M76.518 54.577a16.018 16.018 0 0 0 .561-.651l.09-.115c.106-.134.211-.268.312-.4.045-.062.09-.118.134-.182.111-.147.22-.306.326-.461.029-.043.06-.084.088-.127.136-.201.268-.404.396-.613.022-.032.043-.069.065-.104.103-.17.204-.342.303-.516l.05-.089.065-.123c.086-.152.169-.312.251-.473.035-.063.071-.135.105-.203.111-.224.221-.444.325-.678l-1.726-1.732c-.104.229-.214.455-.326.683l-.104.201-.25.471c-.04.072-.079.146-.119.216-.094.164-.19.327-.288.488l-.081.139a34.03 34.03 0 0 1-.388.604l-.105.15c-.102.146-.204.293-.31.438-.046.062-.094.127-.142.189-.101.135-.203.267-.308.396l-.131.163c-.169.206-.343.406-.521.604l-.112.121c-.156.17-.316.336-.48.5l-.111.111c-.19.186-.385.365-.582.542l-.127.108c-.176.148-.354.302-.537.442-.037.029-.074.062-.111.093-.21.159-.425.316-.643.473-.047.033-.096.062-.144.098-.194.133-.392.262-.592.385-.038.023-.074.049-.111.07-.229.139-.463.271-.699.396-.054.026-.108.058-.163.086-.214.108-.43.22-.65.318-.035.02-.07.034-.105.055-.248.109-.501.22-.756.317-.061.021-.121.046-.181.069a15.034 15.034 0 0 1-1.622.525c-.066.021-.133.035-.2.056-.258.063-.518.129-.782.185-.025.008-.05.016-.075.02-.285.061-.576.107-.869.156a4.03 4.03 0 0 1-.217.029c-.284.042-.571.079-.862.105a.26.26 0 0 1-.047.009c-.305.026-.614.051-.927.065a9.067 9.067 0 0 0-.229.014c-.316.014-.635.021-.96.021-4.704 0-9.775-2.371-13.57-6.181l.008.008c-.003-.002-.005-.006-.009-.008l1.726 1.731c3.795 3.81 8.866 6.181 13.571 6.181a27.492 27.492 0 0 0 1.19-.034c.312-.02.621-.039.926-.066a.37.37 0 0 0 .048-.008c.291-.027.577-.064.861-.107.072-.01.145-.021.217-.029.293-.046.583-.1.868-.156l.078-.018a17.4 17.4 0 0 0 .78-.188c.067-.018.134-.033.2-.053.274-.075.546-.152.812-.238.032-.013.064-.021.097-.033.24-.08.477-.166.711-.256.061-.021.121-.048.182-.07.256-.103.508-.204.755-.317.037-.019.072-.035.108-.052.22-.104.436-.21.648-.32.054-.027.109-.059.164-.086.236-.127.469-.26.697-.396.038-.021.076-.049.114-.07.199-.123.396-.251.589-.385a1.47 1.47 0 0 0 .146-.101c.218-.151.432-.309.64-.471.04-.03.077-.062.115-.095.182-.146.358-.289.533-.439.043-.037.087-.072.13-.111.197-.176.392-.354.58-.539.039-.037.076-.076.114-.111.162-.163.322-.329.479-.498.038-.047.076-.087.114-.128zM81.479 30.148h.172c.48 0 1.389.039 2.043.696l-1.725-1.731c-.655-.657-1.562-.697-2.044-.697l-.172.001h-1.675l1.726 1.731h1.675zM95.928 21.354l-1.726-1.732-.036 5.77 1.726 1.732zM113.556 22.172c.071.079.143.158.209.237.039.045.075.089.112.134.059.07.118.141.174.211l.108.139.155.203.084.115a14.536 14.536 0 0 1 .491.72 9.722 9.722 0 0 1 .368.621c.018.031.033.062.051.092l.097.185.043.083c.031.062.061.12.087.176l.024.051.087.193.007.016.055.133.017.045.015.039.018.056 1.726 1.732a1.326 1.326 0 0 0-.02-.061l-.007-.019-.018-.048c-.001-.005-.005-.012-.007-.016a2.604 2.604 0 0 0-.061-.147 5.225 5.225 0 0 0-.087-.191l-.023-.051a9.561 9.561 0 0 0-.088-.177c-.013-.026-.026-.054-.041-.081a5.856 5.856 0 0 0-.099-.187l-.05-.091a12.052 12.052 0 0 0-.367-.621l-.061-.093a11.844 11.844 0 0 0-.426-.621c-.02-.026-.037-.053-.057-.08a1.303 1.303 0 0 1-.034-.044l-.148-.194-.115-.147-.162-.196c-.041-.05-.081-.1-.124-.149l-.187-.211-.122-.137c-.106-.115-.217-.23-.331-.346l-1.726-1.732c.115.116.227.232.333.349l.1.11zM94.037 49.166c.009.177.018.352.031.518l.007.106c.011.122.026.237.041.354l.014.121c.026.188.059.375.096.549.008.041.02.078.028.119a4.87 4.87 0 0 0 .151.522c.017.048.031.103.049.146.021.051.045.098.066.146a2.986 2.986 0 0 0 .217.414c.024.038.046.078.071.111l.021.035c.074.104.153.194.239.28.575.578 1.15 1.155 1.726 1.731a2.397 2.397 0 0 1-.259-.312c-.028-.041-.053-.086-.079-.128a2.57 2.57 0 0 1-.214-.406 4.63 4.63 0 0 1-.113-.287l-.051-.15a6.335 6.335 0 0 1-.099-.369c-.01-.042-.021-.082-.03-.126a7.968 7.968 0 0 1-.094-.544c-.007-.046-.011-.098-.017-.145a11.853 11.853 0 0 1-.077-.959c-.004-.088-.01-.172-.013-.264a19.66 19.66 0 0 1-.01-.852l.091-11.937.031-4.122.033-.072.048-.104.006-.012.054-.116c.005-.012.011-.021.016-.034.017-.034.034-.073.054-.112l.029-.062.053-.104c.014-.026.027-.059.042-.084l.052-.104c.017-.033.035-.065.053-.104.018-.033.035-.063.054-.103l.065-.122.051-.093.065-.118c.063-.113.132-.229.203-.35.016-.024.03-.049.045-.073.078-.128.16-.259.249-.394.009-.017.019-.026.028-.041.087-.134.179-.267.275-.396l.036-.051a14.943 14.943 0 0 1 .393-.506l.105-.125.121-.142.113-.125.128-.139.121-.124a5.56 5.56 0 0 1 .262-.256l.14-.129c.044-.04.091-.079.137-.119.048-.041.096-.083.145-.123l.146-.115c.051-.038.1-.078.15-.115.051-.038.103-.074.153-.11.053-.036.104-.073.157-.108.053-.035.107-.069.162-.103.054-.034.107-.068.162-.101l.173-.097c.055-.03.109-.062.165-.09.061-.031.122-.06.185-.089.056-.026.111-.055.168-.079.064-.028.13-.053.194-.079.058-.023.115-.048.174-.068.067-.024.137-.046.206-.068.059-.019.116-.04.176-.057.073-.021.147-.038.222-.057.059-.015.116-.031.176-.044.08-.018.162-.03.244-.045.057-.01.111-.021.168-.029.092-.014.188-.022.28-.031.05-.004.098-.012.147-.016.145-.01.292-.016.441-.016.896 0 1.577.333 2.096.854l-1.726-1.732c-.519-.521-1.2-.854-2.096-.854-.149 0-.297.006-.441.017-.051.003-.099.011-.148.015-.094.01-.188.018-.279.031-.057.008-.111.02-.167.029-.082.015-.165.027-.245.045-.059.013-.114.028-.171.042-.076.02-.152.037-.227.059-.059.017-.114.037-.173.056-.07.022-.141.044-.209.069-.059.021-.113.045-.17.067-.066.026-.134.052-.198.08-.056.024-.109.052-.164.077-.063.03-.128.06-.189.092-.054.027-.105.057-.158.085-.061.034-.121.066-.181.102-.052.03-.102.062-.152.095-.058.036-.115.071-.172.108-.05.034-.099.068-.147.103l-.163.116-.141.109c-.052.04-.104.081-.155.123-.046.037-.09.075-.134.113-.05.043-.101.085-.148.129a13.74 13.74 0 0 0-.27.252 13.241 13.241 0 0 0-.255.261l-.11.118-.132.146-.102.117-.127.152a1.184 1.184 0 0 1-.034.039 10.912 10.912 0 0 0-.667.911l-.021.031c-.09.137-.174.271-.254.401l-.039.063a14.241 14.241 0 0 0-.227.386c-.014.022-.024.045-.037.065l-.062.111-.064.119-.046.09c-.022.043-.045.084-.065.125l-.032.064-.064.13-.019.039-.064.134-.005.012c-.094.197-.159.35-.194.422l-.031 4.123-.091 11.936c-.003.298.001.581.01.854.002.101.008.185.012.272zM117.964 28.891l-.039.043c-.079.092-.157.185-.231.275l-.004.005-.006.008c-.135.166-.26.33-.377.489l-.025.036c-.109.151-.212.299-.305.441-.01.014-.019.026-.027.04-.092.141-.175.273-.25.398l-.019.03c-.077.129-.146.246-.206.354l-.003.006-.004.008-.074.138-.011.021c-.022.041-.044.078-.062.115-.004.005-.007.014-.01.018a1.841 1.841 0 0 0-.05.099l-.011.021c-.017.029-.031.062-.044.084l-.035 4.604c-.023 3.039-.084 9.198-.091 11.935-.001.231.002.469.008.703l.008.223c.007.181.018.354.031.533.004.053.004.104.009.153.003.04.01.079.014.119.005.052.012.104.018.153.017.144.038.279.062.418.007.039.013.08.021.119.033.17.073.338.121.5.01.033.023.067.034.104.027.083.052.168.083.249.016.038.034.068.05.105.024.06.049.11.075.166.049.104.104.198.163.295.028.047.056.098.087.143.014.021.023.04.037.062.082.109.172.219.271.315l1.726 1.729a2.605 2.605 0 0 1-.394-.515 3.147 3.147 0 0 1-.167-.302c-.024-.053-.049-.104-.071-.157a3.948 3.948 0 0 1-.136-.364c-.011-.033-.023-.063-.033-.102a5.266 5.266 0 0 1-.121-.499l-.022-.128a10.92 10.92 0 0 1-.06-.404c-.007-.057-.014-.111-.02-.171-.009-.084-.015-.17-.021-.255a11.426 11.426 0 0 1-.032-.554 24.137 24.137 0 0 1-.016-.915c.007-2.733.067-8.896.091-11.936l.035-4.604c.051-.098.132-.256.243-.457l.002-.003.037-.066c.055-.098.116-.202.185-.315.011-.021.022-.035.034-.059.071-.117.15-.242.236-.376l.037-.056c.091-.139.189-.281.296-.43.012-.019.021-.029.033-.045.113-.155.235-.314.366-.479.008-.01.015-.021.022-.025.071-.091.146-.179.222-.267.022-.022.045-.051.068-.076.056-.062.113-.128.172-.191l.096-.101c.054-.056.107-.112.163-.168l.106-.104c.057-.056.114-.109.173-.164l.108-.1c.067-.061.136-.119.205-.179l.091-.078a9.52 9.52 0 0 1 .31-.244c.023-.018.049-.034.072-.052a8.473 8.473 0 0 1 .606-.409l.139-.082c.076-.044.154-.088.233-.13l.14-.074a7.413 7.413 0 0 1 .389-.185c.132-.058.267-.113.404-.163l.056-.02c.12-.043.242-.084.366-.12.049-.016.098-.027.147-.041.097-.027.195-.053.296-.075.056-.014.112-.025.17-.037.098-.02.196-.037.296-.054.059-.009.117-.02.176-.026.108-.015.218-.025.328-.035.053-.005.104-.012.157-.015.165-.011.331-.018.502-.018 1.188 0 2.027.397 2.62.992l-1.726-1.73c-.593-.596-1.432-.993-2.62-.993-.171 0-.337.007-.502.018-.053.004-.104.01-.157.015-.11.01-.221.021-.328.036l-.176.026c-.1.016-.198.034-.296.054-.058.012-.114.023-.17.036a6.783 6.783 0 0 0-.297.076c-.049.013-.098.025-.146.04a7.236 7.236 0 0 0-.369.121l-.053.019a6.555 6.555 0 0 0-.404.164c-.04.017-.078.036-.118.055a6.79 6.79 0 0 0-.271.13c-.047.023-.092.048-.138.072-.08.044-.16.087-.238.133l-.133.079c-.079.048-.156.098-.233.147l-.115.076a7.221 7.221 0 0 0-.271.193l-.058.042a7.974 7.974 0 0 0-.314.248l-.075.063c-.075.064-.15.129-.223.194l-.096.088c-.064.06-.127.119-.188.179l-.093.092c-.062.062-.122.124-.181.186l-.079.083c-.068.084-.136.158-.201.234z"/><path d="M97.57 57.496H78.088l1.725 1.733h19.483l.031-4.196-1.725-1.732zM150.369 30.693l.27-.333c.055-.065.108-.131.164-.196.064-.077.131-.154.197-.231.059-.067.117-.134.178-.201.068-.077.139-.155.211-.232a11.846 11.846 0 0 1 .418-.434 12.793 12.793 0 0 1 .447-.43c.071-.066.145-.132.217-.197l.262-.225.232-.191a29.581 29.581 0 0 1 .526-.4c.098-.069.198-.138.3-.205.086-.059.173-.117.262-.174.104-.065.213-.129.32-.191l.275-.161c.11-.061.229-.118.345-.177.097-.048.19-.098.291-.145.118-.056.243-.106.366-.158.103-.043.201-.087.307-.127.129-.05.264-.094.396-.139.104-.036.209-.073.313-.106.142-.042.284-.078.431-.115.105-.028.215-.059.323-.084.154-.035.312-.062.476-.09.105-.02.213-.042.324-.059.18-.027.365-.044.557-.062.095-.01.187-.023.281-.03.289-.021.584-.032.887-.032 1.908 0 3.16.523 3.979 1.346l-.861-.866c-.287-.289-.576-.577-.859-.866-.615-.617-1.477-1.065-2.668-1.251a8.518 8.518 0 0 0-1.312-.095c-.305 0-.6.012-.887.032-.1.008-.188.021-.285.031-.187.018-.373.035-.555.062-.109.017-.219.04-.326.06-.156.028-.314.055-.47.089-.112.025-.222.058-.33.086-.144.036-.285.071-.424.113-.109.033-.216.072-.321.108-.131.045-.266.088-.393.137-.104.041-.207.085-.312.129-.122.051-.242.102-.359.156-.104.048-.199.098-.297.147-.113.058-.229.114-.34.174-.097.053-.188.108-.279.163-.104.062-.213.125-.313.189-.091.058-.181.117-.269.177-.102.066-.197.133-.295.202a9.025 9.025 0 0 0-.25.187 7.948 7.948 0 0 0-.768.629c-.075.065-.146.132-.222.199a10.33 10.33 0 0 0-.24.229c-.07.066-.139.133-.204.201-.078.077-.151.154-.229.232-.062.067-.127.134-.188.201-.07.078-.145.156-.212.233-.062.067-.118.133-.179.199-.065.079-.135.156-.196.234-.058.064-.106.129-.161.193-.021.029-.051.06-.075.089-.065.082-.133.164-.194.245l-3.289-1.87 1.728 1.731 3.279 1.87zM120.241 57.496h-19.143l1.725 1.733h19.144l.032-4.196-1.726-1.732zM137.01 22.454c.155.184.307.371.447.562l.064.09c.104.15.213.302.312.455.028.046.062.092.089.138.229.364.438.736.616 1.112.021.049.045.097.065.145.072.161.145.322.207.483.014.031.023.062.039.093.067.183.133.364.189.546.016.041.021.083.037.125.044.144.084.287.119.43.014.053.025.104.037.155a18.004 18.004 0 0 1 .116.543c.027.178.053.354.067.53.004.04.006.08.011.12.02.222.029.441.027.657-.016 1.75-.035 4.614-.059 7.48l-.092 11.934c-.003.236 0 .476.006.716l.008.229.029.53.01.158c.004.043.013.084.018.127.005.056.012.105.021.16.018.146.037.281.062.42.008.043.017.084.021.127.035.172.074.342.123.506l.034.104c.027.088.056.18.089.264.014.034.031.067.047.104.023.059.051.109.076.167.049.104.104.194.16.293.03.049.061.103.094.146.018.021.026.047.045.068.078.105.164.206.256.301.576.576 1.149 1.153 1.729 1.73a2.834 2.834 0 0 1-.302-.37c-.032-.046-.062-.097-.093-.146a3.242 3.242 0 0 1-.162-.295c-.024-.057-.053-.107-.073-.164a3.673 3.673 0 0 1-.14-.371c-.01-.031-.021-.063-.03-.101a4.037 4.037 0 0 1-.145-.631c-.022-.142-.048-.278-.062-.425a2.98 2.98 0 0 1-.021-.158 2.962 2.962 0 0 1-.021-.285c-.016-.179-.021-.355-.03-.535l-.008-.222a24.69 24.69 0 0 1-.006-.72l.091-11.936c.021-2.865.044-5.729.061-7.479 0-.216-.014-.436-.028-.657-.003-.023 0-.046-.005-.069 0-.017-.004-.035-.006-.052-.02-.175-.039-.351-.067-.528l-.015-.071a7.935 7.935 0 0 0-.099-.467c-.014-.057-.026-.113-.042-.17a5.908 5.908 0 0 0-.111-.404c-.018-.05-.026-.1-.045-.149-.059-.177-.117-.354-.188-.53-.004-.011-.011-.021-.015-.032-.013-.03-.023-.062-.039-.091a19.703 19.703 0 0 0-.191-.452c-.021-.054-.049-.106-.074-.16a13.198 13.198 0 0 0-.275-.544l-.006-.013a13.596 13.596 0 0 0-.422-.695c-.099-.146-.195-.29-.303-.434-.021-.026-.036-.055-.059-.082-.006-.009-.014-.017-.021-.025a12.658 12.658 0 0 0-.442-.556c-.032-.042-.068-.083-.104-.124a11.74 11.74 0 0 0-.505-.546c-.575-.577-1.147-1.154-1.729-1.731.181.178.346.36.506.547.036.044.072.084.107.125z"/><path d="M143.305 57.496h-19.499l1.724 1.733h19.499l.033-4.196-1.725-1.732zM156.641 51.312c-.021-.039-.047-.082-.07-.121a10.234 10.234 0 0 1-.295-.539c-.022-.053-.053-.104-.075-.157-.104-.218-.2-.44-.288-.67-.021-.054-.037-.108-.061-.162-.063-.188-.129-.377-.186-.569l-.064-.236a9.726 9.726 0 0 1-.125-.543c-.015-.068-.026-.144-.043-.215a8.48 8.48 0 0 1-.14-1.576c.003-.34.017-.664.041-.976.021-.252.048-.489.08-.725.007-.05.01-.104.017-.152.043-.28.094-.55.151-.806v-.001c.056-.242.117-.472.187-.692.021-.072.047-.14.07-.21.049-.146.098-.288.15-.423.031-.08.064-.154.098-.23.051-.119.104-.232.156-.348a10.581 10.581 0 0 1 .267-.501c.059-.103.117-.2.182-.295.048-.072.095-.146.143-.213.066-.095.135-.185.202-.271.047-.062.094-.125.142-.185.047-.06.094-.104.139-.159.062-.064.121-.137.186-.195.047-.053.098-.1.145-.146a4.738 4.738 0 0 1 .321-.296c.062-.055.118-.104.178-.146.045-.037.09-.072.137-.105.06-.045.113-.086.174-.127l.126-.092c.058-.039.108-.072.165-.107.038-.023.076-.051.109-.073.061-.034.11-.065.164-.098.028-.019.062-.037.09-.056.078-.045.152-.086.224-.121 1.459-.789 2.896-1.137 4.146-1.137.724 0 1.379.112 1.946.324l-1.726-1.729a5.561 5.561 0 0 0-1.947-.327c-1.252 0-2.688.347-4.148 1.136-.064.037-.144.079-.223.124-.021.015-.048.028-.07.042a17.062 17.062 0 0 0-.284.171c-.062.038-.117.077-.182.119-.037.024-.076.058-.115.083-.062.043-.119.087-.184.135a1.47 1.47 0 0 0-.129.104c-.062.05-.121.101-.186.152-.045.039-.09.076-.137.119-.062.057-.123.113-.185.176l-.138.141c-.062.062-.125.134-.188.203l-.134.152a.938.938 0 0 0-.051.057c-.03.041-.062.09-.098.132-.064.086-.136.174-.199.269-.049.067-.095.141-.143.213-.062.099-.125.193-.186.299-.021.037-.045.066-.064.104l-.087.169c-.039.074-.078.148-.115.229a4.824 4.824 0 0 0-.149.334c-.033.08-.068.16-.104.244-.012.026-.022.056-.034.082-.039.104-.072.215-.106.321-.024.076-.056.148-.077.229a8.27 8.27 0 0 0-.167.623c-.006.023-.017.049-.021.072h-.002a10.58 10.58 0 0 0-.146.797c-.018.099-.021.201-.034.304-.021.188-.048.37-.062.567-.002.004-.002.008-.002.012v.025c-.021.303-.037.616-.039.946-.002.272.012.55.035.828.002.003 0 .005.002.007a8.508 8.508 0 0 0 .148.962c.036.179.077.354.124.532l.064.243c.057.19.117.382.188.567.02.053.034.104.057.155.006.019.01.032.018.05a10.383 10.383 0 0 0 .344.776c.095.188.194.371.302.548l.064.113c.107.175.221.344.34.505l.064.083c.022.031.053.062.078.1.146.188.301.363.463.526l1.728 1.729a7.498 7.498 0 0 1-.462-.523c-.025-.034-.057-.066-.082-.104a5.878 5.878 0 0 1-.402-.576zM173.211 21.833c.1.105.201.211.294.32.052.062.099.126.147.189.08.101.162.2.236.303.027.043.059.088.088.131.082.12.164.24.235.362.04.065.077.133.115.199.062.104.116.207.173.312.039.074.075.149.107.226.053.1.101.201.146.304.034.08.067.16.104.24.033.082.062.164.095.246.088.233.168.471.239.713l.02.06c.074.26.139.526.196.795.015.069.028.14.042.209.046.229.087.462.121.696.008.047.017.092.021.138a20.443 20.443 0 0 1 .122 1.076c.016.161.023.322.036.485.006.091.011.183.019.274.008.158.014.317.021.477l.009.271c.005.172.01.345.012.518l.004.23c.002.248.002.496 0 .746l-.076 8.523-.064 8.553c0 .104.002.202.006.301l.008.096c.002.045.004.093.008.135.002.012.004.02.004.028.017.129.031.247.057.354.004.021.01.039.016.06.021.104.051.195.08.277.004.006.004.012.008.02l.002.006c.021.048.041.091.062.133.008.016.012.027.02.039.025.048.056.092.084.133l.008.014a.705.705 0 0 0 .104.119l1.729 1.73c-.035-.036-.067-.075-.104-.117-.013-.02-.021-.038-.035-.056-.021-.029-.037-.06-.057-.091-.016-.021-.021-.049-.033-.069-.019-.032-.029-.062-.046-.101a.433.433 0 0 1-.109-.363 3.597 3.597 0 0 1-.067-.522l-.006-.087a7.25 7.25 0 0 1-.006-.305l.062-8.552.075-8.525c.002-.249.002-.498.001-.746-.001-.078-.004-.152-.004-.23-.003-.172-.009-.342-.013-.512l-.008-.279-.021-.463c-.007-.1-.011-.193-.019-.293-.011-.148-.021-.301-.033-.45-.004-.065-.008-.132-.014-.197a.6.6 0 0 1-.011-.074c-.024-.278-.062-.555-.097-.827-.01-.051-.02-.101-.023-.15a13.31 13.31 0 0 0-.117-.687c-.018-.071-.029-.144-.047-.214a12.504 12.504 0 0 0-.193-.791c-.006-.024-.018-.048-.021-.071a9.266 9.266 0 0 0-.23-.695c-.016-.035-.021-.073-.037-.108-.021-.053-.045-.104-.064-.157-.029-.074-.062-.148-.095-.222-.047-.107-.097-.213-.146-.318a6.108 6.108 0 0 0-.104-.216c-.06-.108-.116-.215-.181-.32-.037-.064-.069-.129-.108-.192a6.927 6.927 0 0 0-.243-.37c-.025-.041-.056-.083-.083-.123l-.01-.015c-.073-.102-.155-.2-.233-.3-.049-.06-.093-.121-.145-.18a7.257 7.257 0 0 0-.432-.47c-.576-.577-1.147-1.154-1.727-1.731l.005.005-.005-.005c.036.046.079.099.126.148z"/><path d="M181.082 56.364c.029-.034.061-.067.089-.104.06-.068.117-.14.175-.205.021-.021.035-.046.053-.062a.086.086 0 0 0 .021-.027c.035-.044.068-.088.104-.131.045-.059.088-.111.129-.167.043-.056.084-.106.123-.161.024-.031.052-.062.072-.098.03-.042.062-.088.092-.127.022-.031.045-.062.065-.094l.085-.121c.021-.029.041-.062.062-.088.021-.037.05-.074.074-.108.02-.028.037-.058.056-.082l.069-.104c.016-.022.027-.051.047-.069.021-.034.043-.066.062-.099.044-.066.085-.135.122-.188l-.92-3.678-1.729-1.729.92 3.674c-.035.059-.078.12-.121.188a.808.808 0 0 0-.063.099c-.015.021-.026.043-.043.062-.021.035-.049.072-.071.111-.019.022-.033.049-.054.073-.024.039-.054.079-.082.12-.021.023-.034.052-.053.077-.031.045-.062.093-.101.14-.019.023-.033.049-.052.071-.039.055-.082.11-.125.17-.013.021-.024.035-.039.056-.114.153-.239.316-.377.483l-.022.028c-.07.09-.147.181-.229.271-.021.021-.039.045-.06.068-.178.2-.367.405-.572.612-.025.024-.053.055-.078.078-.089.088-.184.176-.273.264a2.86 2.86 0 0 1-.056.052c-.108.103-.225.198-.342.3l-.087.071c-.098.079-.194.155-.297.233-.031.023-.062.049-.096.071a8.096 8.096 0 0 1-.394.281c-.022.019-.05.032-.071.049-.115.076-.23.151-.354.226l-.117.069a7.538 7.538 0 0 1-.445.251c-.004.003-.007.003-.009.003-.147.079-.31.153-.467.228-.044.021-.089.039-.134.061a9.301 9.301 0 0 1-.422.172c-.028.012-.062.023-.094.034-.17.062-.346.12-.521.173-.045.016-.091.025-.136.038a9.382 9.382 0 0 1-1.793.32l-.172.014a9.132 9.132 0 0 1-1.208.003c-2.756-.156-4.693-1.466-5.897-2.673l.223-.291-1.727-1.729-.269.353c-.022.031-.052.063-.076.099-.067.088-.137.174-.211.267-.026.032-.061.069-.088.104-.07.085-.145.171-.218.257-.041.047-.087.1-.13.146-.066.075-.136.147-.207.229l-.15.155c-.069.072-.146.146-.22.222l-.168.16c-.077.069-.159.146-.241.217-.062.053-.119.104-.184.153-.088.073-.182.146-.271.222-.062.047-.123.098-.188.145-.105.08-.225.158-.338.234-.059.037-.106.076-.165.113-.177.109-.354.221-.546.323-.029.021-.062.032-.098.052-.16.088-.326.172-.5.254-.07.03-.146.062-.224.097-.14.062-.28.12-.429.178-.088.034-.18.063-.271.099-.144.049-.287.099-.437.146-.101.028-.201.06-.304.087-.15.041-.309.079-.465.113-.106.022-.217.05-.324.07-.168.031-.342.062-.518.088-.109.02-.221.035-.334.051-.193.023-.398.044-.604.062a4.322 4.322 0 0 1-.305.026c-.312.021-.639.028-.977.028-.438 0-.867-.018-1.281-.053-2.902-.24-5.188-1.311-6.849-2.975.573.576 1.147 1.152 1.726 1.73 1.896 1.899 4.609 3.024 8.133 3.024.338 0 .658-.013.976-.031.104-.007.2-.019.303-.024.207-.02.412-.034.606-.062.113-.015.224-.029.332-.05.176-.022.351-.06.517-.089.11-.021.218-.045.323-.07.16-.031.312-.07.468-.111.103-.029.202-.06.302-.086l.438-.146c.091-.031.183-.062.27-.096.148-.062.295-.119.438-.185a4.56 4.56 0 0 0 .213-.093c.183-.085.357-.176.527-.27.021-.013.047-.021.066-.031.189-.106.375-.221.553-.331.049-.031.094-.065.143-.101.123-.082.246-.166.361-.252.06-.043.109-.087.168-.13.103-.077.2-.155.297-.235.056-.045.105-.092.16-.14a6.858 6.858 0 0 0 .414-.377c.087-.083.169-.166.25-.249l.121-.127c.089-.093.173-.186.254-.275.026-.029.058-.062.082-.095.111-.129.222-.257.321-.382.115-.143.225-.279.327-.415.573.575 1.146 1.149 1.721 1.728 1.283 1.289 3.405 2.692 6.468 2.692.221 0 .437-.01.646-.022l.172-.012c.175-.016.348-.033.517-.057l.106-.014c.196-.029.394-.065.581-.105l.142-.031c.15-.033.302-.07.446-.111.045-.014.09-.024.136-.037.179-.057.354-.11.521-.176.029-.012.062-.021.094-.033.145-.057.283-.11.42-.17.045-.021.091-.039.136-.061.157-.072.312-.146.466-.227l.008-.004c.151-.08.302-.164.445-.25.04-.024.081-.051.12-.072.116-.07.232-.146.347-.223.026-.019.056-.033.08-.053.135-.094.264-.187.391-.277.031-.025.064-.053.099-.076.101-.075.194-.15.289-.229.03-.025.062-.054.095-.078.114-.101.229-.194.336-.293l.069-.066c.086-.08.17-.161.252-.241l.097-.095c.092-.092.181-.182.266-.271.017-.017.027-.031.045-.049.09-.087.171-.178.25-.269zM183.852 30.392c1.562 0 2.517.428 3.094 1.012a351.293 351.293 0 0 0-1.725-1.731c-.582-.584-1.535-1.013-3.096-1.013h-.568l1.729 1.732h.566zM199.34 21.361l-1.727-1.732-.045 5.83 1.727 1.732zM197.466 49.602c.005.146.013.287.024.438.003.042.003.082.007.124l.012.103.017.139c.017.115.031.229.055.343.007.036.012.071.021.106.026.145.062.283.104.426.01.035.021.064.031.104.021.066.043.137.066.202l.047.101c.021.054.047.104.069.154.044.09.093.174.146.258.025.045.056.09.082.133.017.021.022.039.037.062.071.101.151.188.239.276.575.578 1.15 1.156 1.728 1.732a2.507 2.507 0 0 1-.36-.473 2.391 2.391 0 0 1-.144-.256c-.022-.051-.049-.104-.068-.154a3.975 3.975 0 0 1-.25-.836c-.01-.034-.014-.068-.02-.104a7.438 7.438 0 0 1-.055-.348l-.018-.14c-.008-.073-.012-.146-.021-.222a5.707 5.707 0 0 1-.022-.429l-.006-.176a15.429 15.429 0 0 1-.004-.522c-.004-2.533.116-15.759.125-16.453.006-.018.015-.035.021-.054a.822.822 0 0 0 .03-.088.133.133 0 0 0 .021-.052c.018-.036.029-.073.047-.112.008-.019.016-.036.021-.056.018-.041.033-.083.054-.127a.208.208 0 0 0 .024-.062l.062-.137c.013-.021.021-.047.032-.068l.064-.146c.015-.022.022-.052.037-.076.022-.052.049-.104.075-.155.013-.022.023-.05.036-.072.028-.06.061-.113.089-.174.015-.022.024-.05.037-.069l.108-.199c.01-.019.019-.033.025-.05.063-.116.135-.234.206-.354.015-.021.025-.045.041-.062.072-.121.149-.244.231-.367.005-.008.011-.018.016-.021.078-.115.16-.231.245-.353.019-.021.031-.044.051-.065.087-.119.179-.236.272-.354.027-.036.062-.073.09-.108l.116-.139a1.2 1.2 0 0 1 .104-.115c.04-.047.084-.093.125-.139l.104-.11a5.8 5.8 0 0 1 .135-.137l.107-.106.145-.134.115-.102c.049-.044.1-.086.146-.129.041-.032.08-.065.12-.098l.157-.122.125-.093c.057-.038.109-.077.166-.114.044-.029.087-.059.132-.087.058-.037.114-.071.173-.105.047-.027.092-.055.139-.081l.182-.098.146-.074a6.4 6.4 0 0 1 .188-.087 5.48 5.48 0 0 0 .146-.066c.062-.026.131-.052.197-.077.051-.019.104-.038.151-.057.067-.023.139-.044.207-.065.053-.017.104-.033.157-.048.072-.02.146-.036.221-.054.054-.013.104-.026.158-.037.076-.016.156-.028.236-.041.053-.009.104-.019.152-.025a4.22 4.22 0 0 1 .271-.028c.047-.004.092-.011.138-.014.139-.01.278-.015.422-.015 1.032 0 1.774.352 2.312.888-.574-.577-1.148-1.155-1.728-1.732-.533-.535-1.274-.887-2.312-.887-.145 0-.281.005-.422.015-.045.003-.093.009-.139.013-.091.009-.184.017-.271.028-.055.007-.104.018-.157.026-.078.013-.155.024-.232.04-.057.012-.108.026-.164.039-.071.017-.145.033-.214.052-.059.016-.109.033-.165.051-.065.02-.135.04-.196.062-.059.02-.108.04-.164.061l-.188.073c-.054.022-.104.047-.16.071-.06.026-.114.053-.176.081-.054.026-.104.054-.155.081-.057.029-.109.059-.165.089-.053.029-.104.06-.149.09a3.463 3.463 0 0 0-.157.097c-.05.032-.099.064-.147.098-.048.034-.1.068-.146.104-.05.034-.097.069-.144.104a4.17 4.17 0 0 0-.144.109c-.045.036-.091.072-.136.11a5.198 5.198 0 0 0-.264.229c-.045.039-.088.08-.129.12-.043.04-.082.079-.123.119l-.123.125-.115.12-.117.131-.106.121-.114.137c-.021.026-.045.053-.064.079-.008.01-.018.02-.021.029a6.168 6.168 0 0 0-.271.354c-.021.025-.037.052-.058.077-.08.109-.154.219-.229.327a.38.38 0 0 0-.029.045c-.078.118-.149.234-.225.35-.02.03-.036.06-.055.09a13.76 13.76 0 0 0-.265.465l-.062.11c-.022.046-.05.091-.071.138-.02.033-.033.067-.052.104-.021.047-.045.09-.065.135-.018.031-.031.064-.048.096l-.062.127c-.017.029-.027.062-.043.09-.021.041-.034.08-.055.117-.014.029-.022.06-.037.086-.018.037-.031.073-.047.108-.014.026-.021.054-.033.077-.017.035-.026.066-.043.1a.41.41 0 0 0-.026.074c-.015.027-.021.059-.034.084-.009.023-.02.044-.023.066-.008.021-.021.047-.024.065l-.001.001c-.008.696-.128 13.92-.126 16.453 0 .17.002.352.006.532.01.04.013.092.015.146zM231.048 30.693c.093-.115.188-.235.287-.354.049-.06.101-.12.149-.18.063-.081.137-.162.207-.244l.17-.191c.07-.08.144-.159.217-.239.061-.065.124-.132.188-.197.074-.078.149-.156.229-.234l.2-.199c.08-.077.162-.153.244-.229l.22-.197c.084-.075.171-.148.259-.222.077-.065.152-.129.232-.193.092-.072.185-.143.273-.213.083-.062.165-.124.25-.185.098-.069.195-.137.297-.204.088-.058.174-.116.266-.173.104-.065.209-.128.312-.19l.279-.161c.107-.061.227-.118.339-.175.099-.049.19-.099.293-.146.118-.055.242-.106.363-.157.103-.043.2-.087.308-.127.131-.049.264-.093.395-.138.104-.036.209-.073.315-.106.14-.042.282-.077.427-.114.106-.028.215-.06.324-.084.153-.034.312-.062.475-.09.104-.019.211-.042.32-.059.18-.026.364-.043.553-.062.097-.01.188-.023.283-.03.283-.021.576-.032.879-.032 1.916 0 3.17.525 3.991 1.35-.575-.577-1.149-1.154-1.728-1.731-.821-.825-2.076-1.351-3.991-1.351-.302 0-.594.012-.881.032-.097.008-.188.021-.279.03-.188.019-.376.036-.557.062-.104.017-.211.039-.315.058-.158.028-.318.056-.477.09-.109.025-.217.056-.321.083-.146.037-.29.073-.43.116-.106.032-.208.069-.312.104-.137.045-.271.09-.396.14-.104.039-.201.082-.301.124-.125.053-.252.104-.373.161-.096.045-.188.093-.282.141-.117.059-.234.117-.349.18-.096.051-.184.104-.271.155-.107.064-.221.129-.325.196a14.767 14.767 0 0 0-.56.377c-.081.059-.16.118-.239.178-.101.073-.19.147-.287.222-.073.062-.147.123-.224.185a7.972 7.972 0 0 0-.271.231c-.07.062-.142.125-.209.188a9.736 9.736 0 0 0-.254.238c-.062.063-.13.126-.191.19-.082.081-.16.162-.236.243-.062.063-.119.126-.182.189a8.317 8.317 0 0 1-.224.246c-.056.062-.108.124-.164.187-.071.083-.143.165-.211.247-.05.06-.1.119-.147.178-.021.025-.045.052-.062.078a8.7 8.7 0 0 1-.223.277l-3.285-1.87 1.728 1.731 3.285 1.87z"/><path d="M201.256 57.484h-19.753l1.726 1.733h19.751l.011-4.149-1.723-1.731zM218.167 22.655c.104.132.21.264.308.399.037.051.07.103.105.153.104.152.202.307.294.463.022.038.047.075.067.114.105.189.207.383.297.577.021.045.037.09.058.135.072.165.138.331.196.499l.041.117c.064.197.121.395.166.594l.023.114c.033.177.062.354.086.53.006.036.012.071.016.107.021.216.033.432.033.646-.032 4.108-.146 18.56-.159 20.805-.003.225 0 .46.007.699l.002.06c.008.242.021.487.043.737v.005l.003.024a10.086 10.086 0 0 0 .062.489c.021.14.041.271.069.407.003.02.007.029.011.047.025.122.059.241.088.359a.397.397 0 0 1 .027.099 4.596 4.596 0 0 0 .133.402c.006.012.016.021.02.035.051.127.104.25.17.369.01.021.021.039.025.06.067.125.146.243.229.358.008.012.018.021.021.031.01.016.021.021.028.034.079.104.163.21.259.308.576.574 1.149 1.151 1.729 1.729a2.457 2.457 0 0 1-.257-.305c-.021-.021-.038-.049-.058-.071a3.372 3.372 0 0 1-.225-.354c-.01-.021-.021-.039-.027-.062a4.199 4.199 0 0 1-.172-.372c-.008-.02-.015-.031-.021-.048a4.16 4.16 0 0 1-.155-.483 7.658 7.658 0 0 1-.089-.362c-.003-.015-.009-.027-.011-.045a6.874 6.874 0 0 1-.07-.41c-.005-.031-.012-.064-.016-.101-.021-.136-.032-.271-.047-.405 0-.004 0-.006-.002-.011a14.311 14.311 0 0 1-.043-.735l-.002-.068c-.009-.234-.011-.473-.009-.691.021-2.244.127-16.695.158-20.806a6.368 6.368 0 0 0-.022-.585c-.002-.021-.008-.041-.01-.061l-.015-.112a5.845 5.845 0 0 0-.089-.521c-.008-.041-.017-.082-.022-.123a7.743 7.743 0 0 0-.164-.586c-.014-.043-.028-.087-.046-.13a3.273 3.273 0 0 0-.08-.229c-.031-.085-.07-.169-.107-.253-.021-.049-.039-.098-.062-.146a8.618 8.618 0 0 0-.293-.574c-.021-.038-.046-.075-.065-.113-.096-.157-.19-.312-.297-.466-.033-.05-.068-.1-.104-.148-.028-.04-.058-.081-.083-.12-.073-.099-.153-.193-.229-.29-.05-.058-.094-.116-.142-.173a9.408 9.408 0 0 0-.499-.545c-.575-.578-1.146-1.155-1.729-1.732.178.177.34.358.496.543.056.065.101.128.151.188z"/><path d="M224.105 57.484h-19.914l1.726 1.733h19.913l.031-4.173-1.724-1.732zM237.312 51.311a3.453 3.453 0 0 0-.066-.117 7.479 7.479 0 0 1-.299-.547c-.024-.049-.051-.099-.073-.146a9.5 9.5 0 0 1-.29-.677c-.02-.053-.035-.104-.053-.152a8.8 8.8 0 0 1-.376-1.355c-.017-.068-.03-.144-.044-.213a11.054 11.054 0 0 1-.104-.746 8.9 8.9 0 0 1-.034-.828c.002-.34.019-.663.041-.979.021-.279.053-.552.09-.812l.006-.063c.082-.549.197-1.047.336-1.502.022-.072.052-.141.072-.212.049-.146.1-.284.147-.418.033-.083.065-.162.103-.241l.151-.339c.037-.075.075-.147.114-.223.051-.097.102-.189.152-.28.062-.104.123-.203.188-.3.046-.071.092-.144.141-.209.063-.097.133-.185.199-.271.051-.062.098-.127.146-.188.043-.053.086-.102.127-.146.062-.072.129-.145.189-.209a8.846 8.846 0 0 1 .457-.433c.062-.056.122-.104.183-.151l.129-.104a2.61 2.61 0 0 1 .181-.133c.039-.027.08-.062.118-.086.06-.041.115-.078.174-.113.032-.021.066-.046.104-.066.062-.037.117-.072.176-.104.022-.018.053-.031.074-.047.078-.045.151-.086.22-.121 1.465-.789 2.901-1.139 4.155-1.139.726 0 1.385.113 1.955.325l-1.727-1.729c-.57-.214-1.23-.327-1.955-.327-1.255 0-2.691.347-4.154 1.136l-.223.124c-.021.014-.041.023-.062.038a3.522 3.522 0 0 0-.188.115c-.028.019-.062.036-.089.058-.062.04-.123.081-.188.125-.033.024-.07.053-.105.077a4.421 4.421 0 0 0-.306.24l-.188.156c-.046.037-.087.074-.132.113-.062.061-.125.118-.188.182l-.132.137a3.867 3.867 0 0 0-.188.208l-.131.147c-.017.02-.029.031-.045.051-.033.041-.065.092-.1.135-.066.087-.135.175-.2.27-.048.067-.095.143-.144.217-.062.097-.125.191-.188.299-.021.035-.042.062-.062.103-.029.056-.061.116-.088.173a4.886 4.886 0 0 0-.115.229c-.055.108-.104.226-.153.342-.032.078-.065.151-.1.233a2.285 2.285 0 0 0-.034.082c-.04.104-.077.226-.114.339-.022.069-.051.142-.071.215a13.987 13.987 0 0 0-.195.725c-.056.244-.104.5-.144.771-.018.101-.021.211-.035.312-.021.188-.049.363-.062.559l-.001.015-.002.021c-.021.307-.035.619-.038.949-.002.272.013.551.036.828l.001.01c.021.243.06.488.103.732.014.074.028.148.045.227.037.18.076.354.123.528l.065.249c.054.186.112.368.179.549.021.062.039.12.062.182.008.018.013.029.019.049.081.211.173.418.269.617.025.055.056.104.078.154.093.188.189.363.293.538.024.041.047.083.074.123.105.175.219.343.338.503l.062.077c.025.036.057.069.084.104.146.183.293.354.452.518l.008.009c.575.577 1.149 1.154 1.728 1.729a7.233 7.233 0 0 1-.465-.526c-.025-.032-.054-.063-.078-.101a6.677 6.677 0 0 1-.418-.594zM254.327 22.351c.077.097.157.192.229.293.027.043.059.088.088.132.082.119.162.239.234.361.039.063.075.13.113.194a4.78 4.78 0 0 1 .28.535c.055.104.104.21.146.316.033.074.062.149.094.224.035.087.068.175.104.263.084.226.163.456.229.689.006.026.02.052.022.078.073.259.139.523.194.791.017.07.028.141.043.212.045.228.086.457.121.689.008.049.018.096.021.145.039.277.07.558.102.841l.02.234a19.567 19.567 0 0 1 .051.758c.01.161.016.322.021.483.002.089.006.178.009.266.004.175.008.35.01.524.001.075.003.148.003.225.002.25.002.498 0 .75l-.072 8.526-.062 8.55c-.001.104.001.202.005.297.002.041.005.08.012.119l.006.116c.002.009.004.015.004.022.014.132.031.252.055.363.004.019.009.031.014.055.021.102.051.195.082.279.002.006.003.012.006.017l.002.006c.021.045.037.086.062.126l.021.045c.021.04.045.074.066.109a.37.37 0 0 1 .021.033l.002.002a.486.486 0 0 0 .103.114c.573.578 1.149 1.155 1.728 1.732a1.844 1.844 0 0 1-.104-.119c-.005-.006-.01-.017-.014-.021-.026-.037-.057-.078-.078-.121-.012-.021-.021-.045-.03-.064a1.011 1.011 0 0 1-.047-.104c-.004-.013-.009-.021-.013-.035a1.773 1.773 0 0 1-.078-.262 1.218 1.218 0 0 1-.016-.065 5.911 5.911 0 0 1-.056-.354 4.372 4.372 0 0 1-.013-.173 1.165 1.165 0 0 1-.008-.083 7.404 7.404 0 0 1-.006-.306l.063-8.55.071-8.527c.002-.25.002-.499 0-.748 0-.076-.002-.15-.004-.229-.002-.172-.004-.35-.008-.521a9.56 9.56 0 0 1-.013-.271 19.487 19.487 0 0 0-.039-.758l-.031-.454c-.008-.065-.01-.133-.018-.198l-.008-.074a15.88 15.88 0 0 0-.1-.825c-.007-.053-.018-.105-.021-.157a14.788 14.788 0 0 0-.119-.679c-.014-.071-.027-.144-.044-.216-.06-.267-.121-.53-.192-.789-.01-.027-.02-.053-.024-.08a10.088 10.088 0 0 0-.23-.688c-.014-.036-.021-.074-.036-.109-.021-.053-.043-.104-.062-.156-.029-.072-.062-.145-.094-.217-.047-.11-.101-.221-.15-.329-.032-.068-.062-.137-.102-.204-.062-.113-.123-.225-.188-.336a7.066 7.066 0 0 0-.364-.572 5.655 5.655 0 0 0-.065-.1l-.013-.017a5.375 5.375 0 0 0-.26-.33c-.04-.05-.074-.101-.115-.148a7.541 7.541 0 0 0-.311-.336c-.042-.045-.08-.091-.124-.135-.575-.577-1.147-1.155-1.728-1.732.151.152.297.31.434.469.069.074.115.142.169.209z"/><path d="M261.755 56.357c.019-.021.035-.041.052-.062.078-.09.152-.18.229-.268a.114.114 0 0 1 .021-.025l.012-.016c.062-.079.127-.157.188-.234a.044.044 0 0 1 .012-.011l.185-.241c.011-.018.021-.025.03-.043l.131-.184c.02-.022.035-.049.053-.07.034-.049.066-.098.1-.145.021-.021.033-.048.051-.068a2.18 2.18 0 0 1 .094-.137c.013-.021.021-.039.035-.059.033-.049.062-.095.096-.141.008-.012.016-.021.021-.032.071-.113.142-.216.193-.302l-.908-3.676-1.727-1.729.906 3.674c-.033.056-.074.118-.117.187-.021.033-.047.065-.067.104l-.038.061c-.023.039-.054.082-.082.125-.015.021-.025.039-.043.062-.027.044-.061.09-.092.138-.018.021-.027.043-.044.062-.035.051-.071.104-.108.152-.015.021-.024.039-.039.062-.049.063-.1.133-.146.202l-.02.021c-.062.079-.121.159-.188.242-.004.008-.01.012-.014.018l-.178.227c-.019.021-.033.04-.051.061-.064.082-.136.164-.207.246l-.062.072c-.09.104-.18.203-.273.307-.006.008-.012.017-.021.021-.088.096-.183.188-.273.286-.023.022-.053.053-.079.075a4.582 4.582 0 0 1-.286.273c-.014.014-.022.024-.037.036-.108.103-.227.201-.345.302-.026.023-.062.049-.089.071-.1.081-.197.161-.304.24a8.438 8.438 0 0 1-.48.342c-.023.021-.052.034-.076.055-.112.073-.229.146-.352.223-.037.021-.074.047-.111.068a10.82 10.82 0 0 1-.449.252c-.006.004-.015.006-.021.01-.146.076-.299.146-.454.218-.043.021-.087.039-.131.058a11.716 11.716 0 0 1-.512.206c-.17.062-.346.119-.522.173-.046.014-.092.024-.137.038-.146.041-.295.078-.446.113-.046.01-.091.021-.138.03a8.148 8.148 0 0 1-.58.104l-.11.016c-.168.021-.339.041-.513.057l-.17.014a8.588 8.588 0 0 1-.646.021c-3.062 0-5.186-1.407-6.471-2.696.073-.099.146-.188.213-.282l-1.727-1.729c-.085.113-.176.23-.271.354-.046.061-.095.119-.141.18-.055.064-.104.131-.156.196-.099.122-.201.245-.311.37-.021.021-.041.047-.062.069-.088.1-.178.198-.271.3l-.124.129c-.079.081-.16.163-.244.244-.051.049-.104.097-.154.146l-.253.229c-.057.05-.114.102-.174.146-.09.072-.183.146-.276.223-.062.048-.123.096-.188.144-.104.075-.211.149-.32.226-.061.041-.119.084-.183.123a7.604 7.604 0 0 1-.448.271c-.033.021-.064.04-.1.06a11.77 11.77 0 0 1-.594.301 3.856 3.856 0 0 1-.189.082c-.149.063-.301.131-.458.188-.084.032-.173.062-.261.093a6.015 6.015 0 0 1-.442.146c-.099.028-.197.058-.298.084-.152.042-.309.08-.467.114-.106.022-.213.05-.322.07-.167.03-.34.062-.516.088a7.502 7.502 0 0 1-.33.049c-.195.023-.399.046-.605.062-.102.01-.197.021-.301.025-.312.02-.635.029-.971.029-3.526 0-6.246-1.127-8.146-3.029.575.574 1.146 1.152 1.729 1.729 1.896 1.904 4.617 3.031 8.145 3.031.335 0 .656-.014.971-.031.104-.007.199-.018.301-.025.205-.018.408-.032.604-.062.112-.015.222-.03.33-.049.176-.026.349-.058.517-.089.107-.021.215-.046.319-.069.161-.034.317-.073.472-.116.098-.023.197-.055.293-.082.154-.049.303-.099.449-.146.085-.029.171-.061.254-.09.161-.062.314-.129.467-.193.062-.023.123-.051.185-.078.207-.096.403-.193.597-.302.029-.019.061-.034.085-.051.16-.093.312-.185.464-.276.062-.039.116-.078.178-.119.108-.072.224-.148.328-.229a14.574 14.574 0 0 0 .465-.368c.058-.048.111-.098.17-.146a8.152 8.152 0 0 0 .648-.619c.043-.043.09-.086.127-.129.092-.098.178-.189.262-.287.021-.025.053-.057.076-.084.103-.115.196-.232.295-.352.002-.005.006-.009.01-.014.066-.084.133-.166.197-.249.029-.044.065-.088.104-.131.02-.025.035-.05.057-.074l1.721 1.729c1.125 1.129 2.893 2.352 5.367 2.639.354.041.725.062 1.104.062.221 0 .435-.012.646-.021.062-.004.114-.01.172-.014.175-.017.346-.033.515-.058.033-.005.071-.008.106-.014a9.006 9.006 0 0 0 .72-.135c.151-.033.304-.07.446-.111.045-.016.09-.024.135-.038.183-.056.354-.11.525-.172.026-.013.053-.021.079-.031.146-.058.29-.114.433-.175.043-.021.086-.038.129-.059.156-.068.312-.146.457-.223l.019-.008c.152-.08.308-.166.45-.253.036-.021.07-.043.107-.063.121-.074.24-.147.356-.229.022-.018.048-.03.071-.047.137-.096.27-.188.396-.285l.076-.061c.104-.082.211-.164.312-.25.025-.021.055-.043.08-.062.119-.104.234-.203.352-.311l.023-.021c.104-.097.203-.19.301-.289l.07-.065c.104-.104.198-.203.293-.308l.004-.003c.089-.102.184-.206.274-.311z"/><g><path fill="#D22224" d="M17.08.001c7.89 0 12.427 3.717 12.69 4.116.571-.57 2.274-2.448 2.346-3.461l3.981-.01-.109 14.232h-3.492c-.285-.53-5.699-10.605-15.398-10.605-5.923 0-7.763 3.874-7.652 6.187.113 2.474.981 6.867 12.621 9.996 14.68 3.944 18.429 12.914 18.369 20.68-.06 7.775-5.882 16.677-19.681 16.677-9.528 0-13.173-4.352-13.82-4.561-.622.729-2.396 3.043-2.741 4.336H.267l.132-17.354h3.76c.989 3.488 7.282 12.334 16.185 12.334 8.905 0 10.092-5.192 10.114-8.121.022-2.93-2.218-6.42-12.772-9.723C7.34 31.48-.076 25.766.001 15.691.077 5.71 9.187.001 17.08.001zM74.771 45.871l3.093 2.238c-2.848 6.232-8.28 10.113-15.967 10.113-9.115 0-19.606-8.898-19.522-19.918.02-2.49.408-4.889 1.13-7.08 2.417-7.555 10.598-12.938 17.664-12.938 10.028 0 14.67 8.125 16.638 16.378l-21.885 6.215c.74 3.449 3.529 10.598 9.883 10.598 5.163 0 7.883-3.916 8.966-5.606zM54.232 30.529c.028 1.824.132 3.721.798 6.087.435-.115 8.688-2.31 9.224-2.537 2.414-.97 2.808-2.167 2.476-4.854-.604-4.931-3.791-7.375-6.781-7.375-.353 0-.703.034-1.047.102-2.042.41-4.718 2.813-4.67 8.577M128.239 18.481c7.113 0 11.253 5.78 11.22 10.156l-.057 7.48-.092 11.934c-.021 2.445.209 5.249 3.438 5.249h.585l-.028 4.195h-19.5l.031-4.195h.727c2.962-.021 3.243-3.733 3.254-5.124l.091-11.938c.025-3.312.039-4.123.039-4.166-.021-1.083.149-6.072-4.059-6.072-4.918 0-7.277 4.739-7.683 5.514l-.035 4.604c-.023 3.039-.084 9.198-.091 11.934-.004 2.445.178 5.249 3.655 5.249h.538l-.032 4.195h-19.144l.032-4.195h.616c3.161 0 3.225-3.119 3.239-5.124l.092-11.938.024-3.282c.006-.686.135-6.921-3.739-6.921-4.746 0-6.939 5.354-7.226 5.959l-.031 4.123-.091 11.934c-.026 3.47.626 5.249 3.06 5.249h.527l-.031 4.195h-19.48l.032-4.196h.923c3.428 0 3.562-4.03 3.571-5.249l.091-11.934.035-4.583c.023-3.006-2.004-3.119-2.815-3.119l-.172.001h-1.675l.03-3.913 10.004-4.882h6.09l-.036 5.77c.733-.849 3.919-6.91 11.242-6.91 7.319 0 10.229 6.671 10.348 7.138.735-.691 5.343-7.138 12.483-7.138zM179.939 48.922l.92 3.674c-.814 1.24-3.532 5.646-9.062 5.646-5.221 0-7.713-4.092-7.965-4.711-1.367 1.816-3.734 4.738-9.439 4.738-7.588 0-11.438-5.229-11.386-12.187a11.992 11.992 0 0 1 7.328-11.013c5.424-2.279 9.046-2.553 13.392-3.141.021-3.348.239-8.102-5.512-8.102-4.929 0-7.805 2.895-9.572 5.128l-3.289-1.87c1.703-2.476 5.819-8.878 15.431-8.877 14.016 0 15.071 6.328 15.021 13.141l-.076 8.525-.062 8.551c-.017 1.756.666 2.025 1.396 2.025 1.084.008 1.98-.42 2.875-1.527zm-16.337-.531l.073-8.188.019-3.967c-.563-.213-1.227-.326-1.943-.326-1.252 0-2.688.347-4.146 1.136-1.151.624-3.987 2.37-4.028 7.748-.025 3.369 2.104 7.325 5.207 7.325.125 0 .252-.008.382-.021 3.466-.386 4.066-2.717 4.436-3.707M208.875 18.62c6.6 0 11.014 4.358 10.982 8.485-.032 4.108-.146 18.56-.159 20.805-.019 2.236.235 5.4 3.604 5.4h.834l-.03 4.174h-19.914l.021-4.127c.011 0 .185.004.642.004 2.926 0 3.299-3.199 3.312-4.812l.124-16.308c.012-1.462-.045-5.776-3.665-5.776-4.476 0-6.539 4.682-7.037 5.99-.007.693-.128 13.919-.126 16.453-.006 1.768.104 4.445 3.245 4.445.106 0 .544-.021.567-.021l-.015 4.146h-19.753l.042-4.174h.994c3.383 0 3.438-3.184 3.438-4.479-.01-3.372.127-15.4.14-16.508.009-1.135-.2-3.667-3.992-3.667h-.565l.026-3.959 10.562-5.071h5.466l-.048 5.83c1.737-2.392 4.794-6.83 11.305-6.83zM260.611 48.922l.908 3.674c-.811 1.24-3.521 5.646-9.047 5.646-5.226 0-7.703-4.092-7.982-4.711-1.352 1.816-3.731 4.738-9.426 4.738-7.599 0-11.45-5.229-11.396-12.187.04-5.235 3.314-9.325 7.348-11.013 5.412-2.279 9.039-2.553 13.387-3.141.024-3.348.232-8.102-5.522-8.102-4.914 0-7.79 2.895-9.554 5.128l-3.285-1.87c1.688-2.476 5.805-8.878 15.419-8.877 14.019 0 15.062 6.328 15.017 13.141l-.072 8.525-.064 8.551c-.014 1.756.661 2.025 1.398 2.025 1.078.008 1.957-.42 2.871-1.527zm-16.336-.531l.07-8.188.021-3.967c-.57-.213-1.231-.326-1.955-.326-1.255 0-2.69.347-4.155 1.136-1.139.624-3.97 2.37-4.012 7.748-.023 3.369 2.097 7.325 5.216 7.325.126 0 .255-.008.386-.021 3.461-.386 4.054-2.717 4.429-3.707"/></g></svg>