<svg xmlns="http://www.w3.org/2000/svg" viewBox="0 0 300.01 82.7"><defs><style>.cls-1uxternado{fill:#023324}</style></defs><title>logo-uexternado</title><g id="Capa_2" data-name="Capa 2"><g id="Capa_1-2" data-name="Capa 1"><path class="cls-1uxternado" d="M101.89 15.3a5.06 5.06 0 0 1-1.95-.9 4.61 4.61 0 0 1-1.33-1.67 5.61 5.61 0 0 1-.44-2.44V8.84 7.66 6.59v-1V2.9 1.42c.25 0 .52 0 .82.05a6.88 6.88 0 0 0 .84.06 7 7 0 0 0 .84-.06c.27 0 .58 0 .83-.05-.14 1.32-.23 2.55-.25 3.67s0 2.27 0 3.42a12.74 12.74 0 0 0 .26 3 3.71 3.71 0 0 0 .78 1.74 2.06 2.06 0 0 0 1.26.82 6 6 0 0 0 1.74.25 2.91 2.91 0 0 0 1.92-.63 3.89 3.89 0 0 0 .97-1.69 8 8 0 0 0 .41-2.33c.07-.84.1-1.8.1-2.71V4.15c0-.95-.09-1.84-.12-2.78l.55.05a2.62 2.62 0 0 0 .49.06 2.61 2.61 0 0 0 .5-.06l.51-.05c0 .3-.06.68-.09 1.18s-.05 1.1-.08 1.77-.06 1.38-.09 2.15 0 1.66 0 2.52c0 2.37-.51 4-1.51 5.05a6 6 0 0 1-4.47 1.54 11.37 11.37 0 0 1-2.43-.28M116.11 7.06a4.43 4.43 0 0 1 1.32-1.29 3.24 3.24 0 0 1 1.74-.49 3 3 0 0 1 2.33.9 4 4 0 0 1 .82 2.82v4.83c0 .49 0 1 .06 1.46h-3.05c.09-.69.15-1.52.18-2.48s0-2.05 0-3.24a3.33 3.33 0 0 0-.43-1.9 1.45 1.45 0 0 0-1.22-.62 1.42 1.42 0 0 0-1.34.81 4.61 4.61 0 0 0-.42 2.21v3.12c0 .71.05 1.44.11 2.11h-3.02c.05-.67.1-1.35.14-2.11s0-1.49 0-2.32v-.8-2.34c0-.72-.08-1.44-.14-2.18a4.23 4.23 0 0 0 .7.06 4.7 4.7 0 0 0 .74.06 4.17 4.17 0 0 0 .71-.06 5.22 5.22 0 0 0 .78-.06l-.1 1.51h.05zM125.1.59a1.54 1.54 0 0 1 1.13-.48 1.5 1.5 0 0 1 1.13.48 1.49 1.49 0 0 1 .48 1.13 1.53 1.53 0 0 1-.48 1.13 1.51 1.51 0 0 1-1.13.48 1.55 1.55 0 0 1-1.13-.48 1.48 1.48 0 0 1-.46-1.13 1.45 1.45 0 0 1 .46-1.13m-.27 7.13c0-.72-.06-1.44-.11-2.18a4 4 0 0 0 .66.06 5.51 5.51 0 0 0 .84.06 10.51 10.51 0 0 0 1.54-.11c-.09.74-.13 1.46-.16 2.18s0 1.53 0 2.34v3.13c0 .71.07 1.44.16 2.11h-3.04c0-.67.1-1.35.11-2.11s0-1.51 0-2.33v-.8-2.34M135.68 9.1c.41-1.17.81-2.36 1.2-3.55a1.75 1.75 0 0 0 .42.06 1.6 1.6 0 0 0 .4.06 1.57 1.57 0 0 0 .43-.06 2 2 0 0 0 .43-.06c-.21.54-.47 1.14-.79 1.84l-1 2.3c-.35.84-.69 1.73-1 2.7s-.69 1.92-1 2.92h-2.18c-.28-.75-.57-1.62-.91-2.54s-.67-1.85-1-2.77-.63-1.72-.92-2.51-.51-1.42-.69-1.95a6.37 6.37 0 0 0 .79.06 5.84 5.84 0 0 0 .79.06 5 5 0 0 0 .77-.06 5.09 5.09 0 0 0 .76-.06l1.11 3.55c.38 1.19.76 2.39 1.15 3.56.44-1.17.85-2.37 1.25-3.56M142.46 12a3.39 3.39 0 0 0 .49 1.2 2.22 2.22 0 0 0 .85.81 2.1 2.1 0 0 0 1.22.32 3.88 3.88 0 0 0 2.49-.91l.25.2-.46 1.12a4 4 0 0 1-1.22.6 6.32 6.32 0 0 1-1.87.25 6.87 6.87 0 0 1-1.88-.28 3.93 3.93 0 0 1-1.57-.87 4.61 4.61 0 0 1-1.08-1.61 6.09 6.09 0 0 1-.39-2.31 6.66 6.66 0 0 1 .34-2.28 4.61 4.61 0 0 1 1-1.64 5.12 5.12 0 0 1 1.49-1 5.48 5.48 0 0 1 1.88-.32 4 4 0 0 1 3.07 1.19 4.77 4.77 0 0 1 1.05 3.33v.42a.87.87 0 0 1 0 .24h-5.82a6.44 6.44 0 0 0 .18 1.53M145 7.14a1.19 1.19 0 0 0-1.13-.93 1.09 1.09 0 0 0-.76.31 2.39 2.39 0 0 0-.48.79 4.55 4.55 0 0 0-.27 1.06 11.47 11.47 0 0 0-.12 1.21h3.13a7.92 7.92 0 0 0-.37-2.44M152.76 8.08A4.77 4.77 0 0 1 154 6a2.61 2.61 0 0 1 1.79-.65h.32A6.29 6.29 0 0 0 156 6a7.45 7.45 0 0 0 0 .82v1.35l-.16.17a2.74 2.74 0 0 0-.46-.23 2.23 2.23 0 0 0-.57-.08 1.91 1.91 0 0 0-1.46.63 2 2 0 0 0-.52 1.4v3.12c0 .7.09 1.44.14 2.11H149.94c.07-.67.1-1.35.13-2.11s0-1.49 0-2.32v-.8-2.34c0-.72-.06-1.44-.13-2.18a4.2 4.2 0 0 0 .7.05 4 4 0 0 0 .69.09 4.17 4.17 0 0 0 .69-.09 4.61 4.61 0 0 0 .71-.05L152.71 8zM158.38 13.45a3.58 3.58 0 0 0 .49.51 1.82 1.82 0 0 0 .66.37 2.53 2.53 0 0 0 .93.16 1.63 1.63 0 0 0 1.1-.39 1 1 0 0 0 .38-.78 1 1 0 0 0-.34-.77 5.63 5.63 0 0 0-.86-.49c-.33-.15-.71-.33-1.12-.48a5.76 5.76 0 0 1-1.12-.65 2.64 2.64 0 0 1-.85-.93 2.72 2.72 0 0 1-.36-1.46 3.61 3.61 0 0 1 .33-1.49 3.23 3.23 0 0 1 2-1.55 4.11 4.11 0 0 1 2.79 0 6.59 6.59 0 0 1 1.34.71 8.5 8.5 0 0 0-.3.91c-.09.3-.14.57-.2.87h-.56a3 3 0 0 0-.19-.52 2.29 2.29 0 0 0-.4-.56 1.47 1.47 0 0 0-.58-.44 1.77 1.77 0 0 0-.83-.17 1.54 1.54 0 0 0-1 .33 1 1 0 0 0-.4.84.94.94 0 0 0 .34.78 5.35 5.35 0 0 0 .89.53c.35.14.73.27 1.16.43a6.65 6.65 0 0 1 1.15.55 3.69 3.69 0 0 1 .88 1 2.62 2.62 0 0 1 .35 1.47 3.3 3.3 0 0 1-.31 1.52 3.44 3.44 0 0 1-.88 1.07 3.48 3.48 0 0 1-1.24.59 5.67 5.67 0 0 1-1.47.18 5.13 5.13 0 0 1-1.65-.28 4.39 4.39 0 0 1-1.14-.54 11.86 11.86 0 0 0 .29-2h.51a4.26 4.26 0 0 0 .3.63M166.26.59a1.51 1.51 0 0 1 1.14-.47 1.54 1.54 0 0 1 1.14.48 1.49 1.49 0 0 1 .46 1.12 1.52 1.52 0 0 1-.47 1.13 1.55 1.55 0 0 1-1.14.48 1.52 1.52 0 0 1-1.14-.48 1.53 1.53 0 0 1-.48-1.13 1.48 1.48 0 0 1 .48-1.13M166 7.73c0-.72 0-1.44-.12-2.18a4.14 4.14 0 0 0 .68.06 5.49 5.49 0 0 0 .85.06 10.11 10.11 0 0 0 1.51-.11c-.06.74-.1 1.46-.12 2.18s0 1.53 0 2.34v3.13c0 .71.06 1.44.13 2.11H165.9c.07-.67.1-1.35.12-2.11s0-1.51 0-2.33v-.8-2.34M180.32 12c0 1.12.06 2.23.11 3.3h-2.87a1 1 0 0 0 0-.23v-.51V14v-.3a3.37 3.37 0 0 1-1.07 1.4 2.92 2.92 0 0 1-1.84.5 3.4 3.4 0 0 1-1.77-.41 3.18 3.18 0 0 1-1.18-1.07 5 5 0 0 1-.69-1.71 8.49 8.49 0 0 1-.21-2 6 6 0 0 1 .3-2 5.49 5.49 0 0 1 .9-1.67 3.54 3.54 0 0 1 1.24-1 3.2 3.2 0 0 1 1.53-.42 3.31 3.31 0 0 1 1.64.44 2.75 2.75 0 0 1 1.06 1.07h.06c0-1.23 0-2.37-.06-3.45s-.06-2.17-.13-3.35a4 4 0 0 0 .68.09 8 8 0 0 0 .85 0 8.47 8.47 0 0 0 .87 0 3.35 3.35 0 0 0 .65-.09c-.05 1.15-.1 2.27-.11 3.39s0 2.33 0 3.65V12m-6.28.4a4.38 4.38 0 0 0 .38 1.17 1.53 1.53 0 0 0 .58.62 1 1 0 0 0 .63.21 1.59 1.59 0 0 0 1.4-.95 6.94 6.94 0 0 0 .54-3.16 5.87 5.87 0 0 0-.52-2.75 1.51 1.51 0 0 0-1.31-.84 1.07 1.07 0 0 0-.64.2 1.48 1.48 0 0 0-.6.64 3.93 3.93 0 0 0-.43 1.22 8.59 8.59 0 0 0-.17 1.91 8.43 8.43 0 0 0 .14 1.73M184.55 5.67a5.52 5.52 0 0 1 1.94-.39 7 7 0 0 1 1.5.2 2.88 2.88 0 0 1 1.18.59 3.14 3.14 0 0 1 .77 1 4.07 4.07 0 0 1 .27 1.56v4.58a3.68 3.68 0 0 0 .07.78 1.13 1.13 0 0 0 .21.41.65.65 0 0 0 .37.19h.55v.51c-.4.14-.74.3-1 .36a2.84 2.84 0 0 1-.88.12 1.92 1.92 0 0 1-1.21-.36 2.4 2.4 0 0 1-.71-1.05 4.16 4.16 0 0 1-1.07 1 2.86 2.86 0 0 1-1.56.38 4.58 4.58 0 0 1-1.33-.18 3.17 3.17 0 0 1-.9-.58 2.68 2.68 0 0 1-.53-.86 3.78 3.78 0 0 1-.15-1 2.78 2.78 0 0 1 .21-1.15 2.26 2.26 0 0 1 .61-.81 3.26 3.26 0 0 1 .95-.62A7.72 7.72 0 0 1 185 10c.57-.15 1-.27 1.35-.4a1.6 1.6 0 0 0 .72-.3.61.61 0 0 0 .33-.33 1 1 0 0 0 .09-.41 1.81 1.81 0 0 0-.49-1.22 1.92 1.92 0 0 0-1.43-.49 4.36 4.36 0 0 0-.73.06 5.15 5.15 0 0 0-.69.27 2.31 2.31 0 0 0-.61.36 1.39 1.39 0 0 0-.42.41H183l-.27-1.21a6.15 6.15 0 0 1 1.86-1.06m3 5.25v-.79a5.85 5.85 0 0 1-.9.37 5 5 0 0 0-.87.38 2.23 2.23 0 0 0-.65.65 2.26 2.26 0 0 0-.25 1.19 1.82 1.82 0 0 0 .31 1.13 1.05 1.05 0 0 0 .83.42 1.28 1.28 0 0 0 1.08-.54 2.28 2.28 0 0 0 .44-1.49v-1.31M201.78 12c0 1.12.06 2.23.12 3.3H199v-.23c0-.13 0-.32.05-.51s0-.39 0-.56a2.12 2.12 0 0 0 0-.3 3.26 3.26 0 0 1-1.06 1.4 2.93 2.93 0 0 1-1.84.5 3.36 3.36 0 0 1-1.77-.41 3.31 3.31 0 0 1-1.2-1.07 5.21 5.21 0 0 1-.67-1.71 8.36 8.36 0 0 1-.23-2 6.8 6.8 0 0 1 .3-2 5.85 5.85 0 0 1 .85-1.63 3.49 3.49 0 0 1 1.24-1 3.3 3.3 0 0 1 1.54-.42 3.24 3.24 0 0 1 1.63.44 2.66 2.66 0 0 1 1.16.99V3.34c0-1.08-.07-2.17-.13-3.35a3.46 3.46 0 0 0 .67.09 8 8 0 0 0 .85 0 7.89 7.89 0 0 0 .84 0 3.61 3.61 0 0 0 .67-.08c-.06 1.15-.08 2.27-.12 3.39s0 2.33 0 3.65V12m-6.28.39a4 4 0 0 0 .38 1.17 1.63 1.63 0 0 0 .56.62 1.21 1.21 0 0 0 .67.21 1.56 1.56 0 0 0 1.37-.95 6.63 6.63 0 0 0 .56-3.16 5.64 5.64 0 0 0-.51-2.75 1.5 1.5 0 0 0-1.3-.84 1.06 1.06 0 0 0-.66.2 1.41 1.41 0 0 0-.6.64 4.57 4.57 0 0 0-.43 1.22 8.79 8.79 0 0 0-.18 1.91 8.26 8.26 0 0 0 .15 1.73M179.69 79c0 1.14.08 2.28.15 3.4H176.44s0-.11.06-.25 0-.34 0-.54 0-.37.06-.55 0-.28 0-.29l-.05-.07a3.31 3.31 0 0 1-1.23 1.46 3.76 3.76 0 0 1-2.16.53 4.3 4.3 0 0 1-2.05-.43 3.47 3.47 0 0 1-1.4-1.14 5.06 5.06 0 0 1-.82-1.71 8.66 8.66 0 0 1-.24-2.11 5.88 5.88 0 0 1 .35-2.08 4.93 4.93 0 0 1 1-1.68 4.32 4.32 0 0 1 1.45-1.09 4 4 0 0 1 1.8-.4 4.52 4.52 0 0 1 1.91.42 3.37 3.37 0 0 1 1.24 1.14v-3.57c0-1.11-.07-2.27-.14-3.46.22 0 .48.05.8.07s.63 0 1 0h1l.77-.07c-.07 1.16-.13 2.34-.15 3.46s-.06 2.43-.06 3.81v1.36c0 1.39 0 2.64.06 3.8m-7.33.39a3.54 3.54 0 0 0 .45 1.2 1.94 1.94 0 0 0 .66.68 2 2 0 0 0 .74.16 1.88 1.88 0 0 0 1.62-1 6.38 6.38 0 0 0 .62-3.22 5.37 5.37 0 0 0-.59-2.85 1.72 1.72 0 0 0-1.53-.89 1.92 1.92 0 0 0-.76.18 1.6 1.6 0 0 0-.67.65 3.42 3.42 0 0 0-.51 1.28 8.22 8.22 0 0 0-.22 2 8.76 8.76 0 0 0 .18 1.79M185.64 79a3 3 0 0 0 .59 1.23 2.58 2.58 0 0 0 1 .87 3.19 3.19 0 0 0 1.43.28 4.92 4.92 0 0 0 2.92-.92l.29.19-.52 1.17a4.52 4.52 0 0 1-1.43.65 8.3 8.3 0 0 1-2.2.24 9.62 9.62 0 0 1-2.2-.28 4.32 4.32 0 0 1-1.85-.95 4.47 4.47 0 0 1-1.26-1.62 5.65 5.65 0 0 1-.47-2.41 6.15 6.15 0 0 1 .42-2.38 4.83 4.83 0 0 1 1.15-1.67 4.68 4.68 0 0 1 1.74-1 6.44 6.44 0 0 1 2.22-.35 4.92 4.92 0 0 1 3.53 1.23 4.56 4.56 0 0 1 1.27 3.43v.45a.67.67 0 0 1-.06.27h-6.79a6.67 6.67 0 0 0 .18 1.57m3-5.06a1.33 1.33 0 0 0-1.32-1 1.41 1.41 0 0 0-.87.3 2.39 2.39 0 0 0-.59.82 5.25 5.25 0 0 0-.3 1.13 8.41 8.41 0 0 0-.13 1.23h3.65a7.39 7.39 0 0 0-.44-2.53M214.37 81a4.16 4.16 0 0 0-.19.88 13.76 13.76 0 0 1-8.57.33 7.42 7.42 0 0 1-2.77-1.46 6.06 6.06 0 0 1-1.73-2.2 6.5 6.5 0 0 1-.59-2.81 8.26 8.26 0 0 1 .77-3.69 7.18 7.18 0 0 1 2.07-2.47 8.84 8.84 0 0 1 3-1.42 16.06 16.06 0 0 1 3.59-.41 10.94 10.94 0 0 1 1.32.07 8.24 8.24 0 0 1 1.33.22 10.17 10.17 0 0 1 1.22.33 3.75 3.75 0 0 1 1 .4 4.57 4.57 0 0 0-.36 1.07 4.15 4.15 0 0 0-.18 1.05H214a6.15 6.15 0 0 0-1.86-1.44 5.73 5.73 0 0 0-2.24-.41 5.11 5.11 0 0 0-1.93.37 5.65 5.65 0 0 0-1.75 1.15 6 6 0 0 0-1.26 2 7.88 7.88 0 0 0-.49 2.89 7.13 7.13 0 0 0 .5 2.76 5.37 5.37 0 0 0 1.3 1.86 5.14 5.14 0 0 0 1.8 1.06 6.22 6.22 0 0 0 2 .33 6.85 6.85 0 0 0 1.18-.1 10 10 0 0 0 1.16-.32c.4-.17.73-.32 1.08-.51a5.26 5.26 0 0 0 .9-.62l.31.15a7.83 7.83 0 0 0-.33.91M216.87 75.21a5.19 5.19 0 0 1 1.29-1.76A4.91 4.91 0 0 1 220 72.4a6.73 6.73 0 0 1 2.2-.35 6 6 0 0 1 4.29 1.4 4.85 4.85 0 0 1 1.51 3.74 6.13 6.13 0 0 1-.43 2.33 5.41 5.41 0 0 1-1.21 1.76 5.1 5.1 0 0 1-1.83 1 6.85 6.85 0 0 1-2.35.38 8.73 8.73 0 0 1-2.12-.26 5.86 5.86 0 0 1-1.87-.84 4.5 4.5 0 0 1-1.3-1.56 5.16 5.16 0 0 1-.53-2.39 5.42 5.42 0 0 1 .51-2.42M224 74a1.76 1.76 0 0 0-1.76-1 2 2 0 0 0-1.72 1.12 8 8 0 0 0-.64 3.54 11.27 11.27 0 0 0 .13 1.67 5.86 5.86 0 0 0 .4 1.3 2.35 2.35 0 0 0 .71.89 2 2 0 0 0 1.11.29c1.49 0 2.27-1.63 2.27-4.94A6.06 6.06 0 0 0 224 74M230.48 70c0-1.12-.06-2.3-.12-3.46.2 0 .45.05.77.07s.66 0 1 0h1l.78-.07c-.07 1.16-.12 2.34-.16 3.46s-.07 2.43-.07 3.81v1.36c0 1.39 0 2.64.07 3.8s.09 2.29.16 3.41h-3.56c.05-1.13.07-2.27.12-3.41s0-2.41 0-3.8v-1.31-3.81M236.74 75.21a5.15 5.15 0 0 1 1.3-1.76 5 5 0 0 1 1.86-1.05 6.57 6.57 0 0 1 2.18-.35 6.06 6.06 0 0 1 4.3 1.4 4.85 4.85 0 0 1 1.54 3.75 5.81 5.81 0 0 1-.45 2.33 5.09 5.09 0 0 1-1.19 1.76 5 5 0 0 1-1.83 1 6.84 6.84 0 0 1-2.36.38 8.64 8.64 0 0 1-2.1-.26 5.87 5.87 0 0 1-1.87-.84 4.57 4.57 0 0 1-1.35-1.57 5.09 5.09 0 0 1-.5-2.39 5.56 5.56 0 0 1 .47-2.42m7.12-1.19a1.8 1.8 0 0 0-1.73-1 1.94 1.94 0 0 0-1.71 1.12 7.68 7.68 0 0 0-.63 3.54 11 11 0 0 0 .11 1.67 4.43 4.43 0 0 0 .4 1.3 2.23 2.23 0 0 0 .7.89 2.16 2.16 0 0 0 1.12.29c1.49 0 2.26-1.63 2.26-4.94a6.43 6.43 0 0 0-.52-2.82M253.29 73.91a4.43 4.43 0 0 1 1.55-1.36 4.35 4.35 0 0 1 2-.5 3.27 3.27 0 0 1 3.05 2 4.74 4.74 0 0 1 1.65-1.45 4.22 4.22 0 0 1 2-.54 3.86 3.86 0 0 1 2.75.9 4 4 0 0 1 1 3v5.02c0 .51.05 1 .07 1.51h-3.56a22.77 22.77 0 0 0 .21-2.58c0-1 .06-2.11.06-3.4a3 3 0 0 0-.52-1.95 1.66 1.66 0 0 0-1.4-.62 2 2 0 0 0-.95.21 2.49 2.49 0 0 0-.59.64 3.28 3.28 0 0 0-.29.79v4.71a18.15 18.15 0 0 0 .15 2.22h-3.57c.07-.7.14-1.43.17-2.22s0-1.53 0-2.41v-1.36a4.34 4.34 0 0 0-.36-1.94 1.34 1.34 0 0 0-1.35-.69 1.71 1.71 0 0 0-1.57.82 4.42 4.42 0 0 0-.5 2.27v3.23c0 .71.07 1.52.14 2.22h-3.58a20 20 0 0 0 .17-2.2V77v-2.41c0-.75-.07-1.51-.17-2.27.29 0 .57.08.85.1h1.7c.28 0 .56-.07.89-.1l-.09 1.61zM270 70c0-1.12-.08-2.3-.15-3.46.2 0 .46.05.77.07s.67 0 1 0h1l.79-.07c-.05 1.16-.09 2.34-.14 3.46s0 2.43 0 3.81a2.92 2.92 0 0 1 1.26-1.36 4.39 4.39 0 0 1 3.77 0 4.73 4.73 0 0 1 1.45 1.07 5 5 0 0 1 .94 1.56 6.12 6.12 0 0 1 .33 2 6.57 6.57 0 0 1-.49 2.66 4.71 4.71 0 0 1-1.25 1.73 4 4 0 0 1-1.73 1 6.84 6.84 0 0 1-1.86.28 4.27 4.27 0 0 1-1.92-.39 4.18 4.18 0 0 1-1.29-1c-.35.16-.68.38-1 .58a7.41 7.41 0 0 1-1 .62h-.57c.07-1.13.12-2.31.15-3.46s.06-2.42.06-3.81v-1.44c0-1.38 0-2.64-.06-3.81m3.32 9.14a5.25 5.25 0 0 0 .32 1.35 2.11 2.11 0 0 0 .61.91 1.48 1.48 0 0 0 1 .34 1.77 1.77 0 0 0 1.61-1.1 8.21 8.21 0 0 0 .61-3.69c0-2.41-.68-3.61-2-3.61a2 2 0 0 0-.92.21 1.72 1.72 0 0 0-.72.66 4 4 0 0 0-.43 1.29 9.8 9.8 0 0 0-.16 1.94c0 .59 0 1.16.08 1.71M283.78 67.16a2.15 2.15 0 0 1 2.68 0 1.59 1.59 0 0 1 0 2.39 2.12 2.12 0 0 1-2.68 0 1.56 1.56 0 0 1 0-2.39m-.29 7.42c0-.76-.09-1.51-.17-2.27.22 0 .48.08.78.1h1a9.73 9.73 0 0 0 1.81-.11 21 21 0 0 0-.18 2.28V80.22a17.78 17.78 0 0 0 .18 2.22h-3.61c.08-.7.13-1.41.17-2.22s0-1.5 0-2.41V77v-2.41M292 72.42a7.29 7.29 0 0 1 2.3-.37 6.44 6.44 0 0 1 1.76.21 4.62 4.62 0 0 1 1.39.57 3 3 0 0 1 .94 1.08 3.85 3.85 0 0 1 .3 1.57v4.73a5.57 5.57 0 0 0 .06.82.79.79 0 0 0 .27.42.76.76 0 0 0 .43.2 4.91 4.91 0 0 0 .63 0v.5a7 7 0 0 1-1.15.4 4.54 4.54 0 0 1-1 .13 2.21 2.21 0 0 1-2.27-1.49 4.42 4.42 0 0 1-1.27 1.08 3.69 3.69 0 0 1-1.83.41 5.43 5.43 0 0 1-1.56-.21 2.82 2.82 0 0 1-1.06-.58 2.55 2.55 0 0 1-.61-.88 3 3 0 0 1 .05-2.23 2.27 2.27 0 0 1 .73-.85 5.6 5.6 0 0 1 1.11-.61 14.86 14.86 0 0 1 1.45-.4c.67-.14 1.19-.27 1.59-.35a7.35 7.35 0 0 0 .88-.32.76.76 0 0 0 .36-.36.93.93 0 0 0 .09-.44 1.69 1.69 0 0 0-.59-1.3 2.43 2.43 0 0 0-1.71-.56 4.43 4.43 0 0 0-.82.11 3.73 3.73 0 0 0-.83.27 4.19 4.19 0 0 0-.71.37 2.52 2.52 0 0 0-.5.44h-.17l-.29-1.26a8 8 0 0 1 2.14-1.1m3.53 5.44v-.85a7.25 7.25 0 0 1-1.07.43 5 5 0 0 0-1.05.4 1.89 1.89 0 0 0-1.07 1.88 1.65 1.65 0 0 0 .38 1.16 1.19 1.19 0 0 0 1 .42 1.75 1.75 0 0 0 1.3-.51 2.24 2.24 0 0 0 .48-1.56v-1.38M19.77 52.06c-2.36.09-4.77.17-7.19.17-.14-2.37-.21-4.84-.21-7.39 0-1.44 0-2.8.08-4.18v-3.4c5.41 0 15 .48 15.07.49l.84.06v-7.33l-.84.08-7.63.44c-2.19.09-4.69.16-7.39.22v-6.35c0-2.1.09-4.22.21-6.38.46 0 1.06 0 1.81.06 1.19 0 2.56.1 4.06.17l4.69.28 4.44.27h.83v-7.4H0v46.69h28.65v-7.24l-.86.1c-.07 0-5.39.49-8 .64m46.65-26.65h-8.31l-.24.33-6.56 9.42-5.4-9.36-.25-.38h-.43c-3.65 0-10.79.05-11.65 0l-1.6-.11 1 1.35c.4.56 9 13.95 10.83 16.9C41.83 46 33 57.13 32.88 57.29l-1 1.26h8.08l.23-.35c.06-.1 4.65-7 6.69-10l5.82 9.94.23.37h13.36l-.79-1.21L54.33 40l11.06-13.29zm22.17 28.65a6.35 6.35 0 0 1-1.75.16 3.25 3.25 0 0 1-1.62-.32 2.51 2.51 0 0 1-.84-1.14c-.63-1.5-.35-18.34-.19-22.18l5.36.17h.83v-5h-.81l-5.32.13c.1-2.6.53-10.17.59-10.72l.08-.49-.42-.28-.7-.39-.37-.24-.38.19L73.42 18l-.48.21v.53c0 .06.19 5 .24 7.24l-4.07-.18h-.81v5h4.88v17.87c0 7.27 3 10.78 9.23 10.78a21.53 21.53 0 0 0 4.29-.48 20.31 20.31 0 0 0 3.65-1.08l.48-.21v-4.6l-1.16.59a5.55 5.55 0 0 1-1.09.39m20.57-29.56a19.94 19.94 0 0 0-6.74 1.09A14.85 14.85 0 0 0 97 28.93a15 15 0 0 0-3.59 5.52 21.07 21.07 0 0 0-1.28 7.68 19.62 19.62 0 0 0 1.43 7.8 14.81 14.81 0 0 0 9.67 8.49 24.32 24.32 0 0 0 6.74.92 23.56 23.56 0 0 0 6.67-.79 15.88 15.88 0 0 0 4.42-2.13l.17-.12.11-.21 1.53-3.69.25-.59-.53-.35-.85-.59-.46-.35-.45.38a13 13 0 0 1-8.13 2.76 8.21 8.21 0 0 1-3.8-.82 7.58 7.58 0 0 1-2.66-2.37 11 11 0 0 1-1.6-3.68 18 18 0 0 1-.5-3.9h19.59l.23-.36a2.31 2.31 0 0 0 .25-1.25v-1.34c0-4.85-1.3-8.68-3.88-11.4s-6.35-4-11.19-4m-5 13.82c.07-1 .18-1.93.33-2.92a17.07 17.07 0 0 1 .89-3.3 6.82 6.82 0 0 1 1.5-2.24 2.94 2.94 0 0 1 2.06-.76c1.5 0 2.51.77 3.15 2.46a21.27 21.27 0 0 1 1.21 6.76zm39.13-11.23a13.7 13.7 0 0 0-3.2 4l.11-4.83v-.91l-.9.1c-.75.07-8.63.07-9.38 0l-.94-.1.07 1c.18 2.28.18 29.32 0 31.44l-.07 1 1-.13c.66-.07 9.54-.07 10.21 0l1 .12-.09-1c-.22-2.16-.38-4.44-.46-6.77s-.09-4.9-.09-7.55v-2.75a6.07 6.07 0 0 1 7.77-5.49 8.79 8.79 0 0 1 1.41.56l.46.27.43-.34.64-.52.34-.28-.07-.44a7.21 7.21 0 0 1-.06-1v-3.23c0-1 0-1.83.1-2.54s.18-1.41.32-2l.21-1h-2.1a10.11 10.11 0 0 0-6.66 2.31M188.59 53c-.07-1.65-.09-3.16-.09-4.56 0-1.67 0-3.4.12-5.08s.13-3.72.13-5.94c0-4.45-1-7.73-3.07-9.81s-4.93-3.07-8.62-3.07a12.48 12.48 0 0 0-6.36 1.61 14.76 14.76 0 0 0-3.41 2.76l.14-2.68.06-.93-.92.08c-.9.09-9.16.09-10 0l-1-.1.1 1c.27 2.33.47 4.7.54 7s.13 4.84.13 7.52v2.62c0 2.65-.06 5.19-.13 7.54s-.27 4.6-.54 6.75l-.12 1 1-.13c.69-.07 9.66-.07 10.34 0l1 .12-.09-1c-.24-2.17-.39-4.45-.45-6.77s-.11-4.9-.11-7.55v-2.63a13.65 13.65 0 0 1 1.44-6.75 4.16 4.16 0 0 1 3.95-2.16 4.28 4.28 0 0 1 3.59 1.62c.89 1.14 1.36 3 1.36 5.59 0 3.92-.07 7.48-.15 10.62a75.87 75.87 0 0 1-.63 7.94l-.16 1.05 1.05-.16c.67-.06 9.63-.06 10.29 0l1 .12-.06-1c-.11-1.54-.2-3.1-.29-4.75m34.8 1.53a1.74 1.74 0 0 1-.88-.36 2.56 2.56 0 0 1-.51-1 9 9 0 0 1-.2-2.23q0-3.57.12-7.1c.08-2.43.13-5.08.13-7.82a12.15 12.15 0 0 0-1-5.24 9.77 9.77 0 0 0-2.91-3.64 13.09 13.09 0 0 0-4.4-2 21.24 21.24 0 0 0-5.33-.61 21.82 21.82 0 0 0-7 1.21 24.15 24.15 0 0 0-6.53 3.48l-.42.32.13.49.9 3.94.13.57h1.55l.22-.32a4.81 4.81 0 0 1 1.22-1.13 20.41 20.41 0 0 1 2-1.09 11.16 11.16 0 0 1 2.27-.75 9.09 9.09 0 0 1 2.26-.29 6.17 6.17 0 0 1 4.38 1.48 4.5 4.5 0 0 1 1.44 3.58 3 3 0 0 1-.2 1.14 1.76 1.76 0 0 1-.74.7 11.83 11.83 0 0 1-2.36.9c-1.13.34-2.68.72-4.58 1.15a26.93 26.93 0 0 0-4.36 1.3 12.86 12.86 0 0 0-3.45 2 8.2 8.2 0 0 0-2.31 3 9.57 9.57 0 0 0-.8 4.06 9.71 9.71 0 0 0 .61 3.4 7.81 7.81 0 0 0 2 3.05 9 9 0 0 0 3.41 2.07 14.76 14.76 0 0 0 4.8.7 11.14 11.14 0 0 0 5.7-1.36 13.14 13.14 0 0 0 3.13-2.53A8.21 8.21 0 0 0 214 58a7.76 7.76 0 0 0 4.68 1.33 10.85 10.85 0 0 0 3.21-.44 35.14 35.14 0 0 0 3.5-1.19l.52-.18v-2.88h-.79a15.07 15.07 0 0 1-1.75-.15M211.2 43.4c0 1-.06 2.38-.06 4.3a6.57 6.57 0 0 1-1.24 4.37 4 4 0 0 1-3.18 1.35 2.89 2.89 0 0 1-2.31-1 4.83 4.83 0 0 1-.91-3.22 6 6 0 0 1 .76-3.35 5.82 5.82 0 0 1 2-1.82 14.8 14.8 0 0 1 2.89-1.17 15.9 15.9 0 0 0 2.12-.76c0 .39 0 .81-.05 1.28m49.11-24.18c.09-3.55.24-7.19.41-10.84v-.93l-.92.11c-.61.06-9.58.06-10.2 0l-.91-.08v.9c.16 3.68.3 7.31.38 10.75.06 2.81.11 5.81.13 8.88a10.74 10.74 0 0 0-2.62-2 12.2 12.2 0 0 0-6-1.49 12.63 12.63 0 0 0-5.6 1.3 14 14 0 0 0-4.56 3.67 16.88 16.88 0 0 0-3 5.45 19.65 19.65 0 0 0-1.1 6.8 28.58 28.58 0 0 0 .78 6.8 17.37 17.37 0 0 0 2.49 5.64A12.06 12.06 0 0 0 234 58a14.06 14.06 0 0 0 6.42 1.37 12 12 0 0 0 6.81-1.73 11.23 11.23 0 0 0 2.26-2.16c-.07.54-.1 1-.14 1.33s-.09.56-.09.61l-.71 1.4 1.56-.29c.64-.08 9.13-.08 9.78 0l.92.06v-.9c-.16-3.52-.32-7.07-.41-10.64s-.11-7.52-.11-11.78V31c0-4.27.05-8.23.11-11.77m-12.84 32.03c-1.1 1.83-2.43 2.69-4.08 2.69a3.57 3.57 0 0 1-1.88-.54 4.43 4.43 0 0 1-1.6-1.76 11.59 11.59 0 0 1-1.25-3.46 27.35 27.35 0 0 1-.46-5.5 27.25 27.25 0 0 1 .56-6.09 14.06 14.06 0 0 1 1.41-3.76 4.93 4.93 0 0 1 1.74-1.79 4 4 0 0 1 1.88-.5 4.35 4.35 0 0 1 3.78 2.45c1.09 1.7 1.64 4.58 1.64 8.47 0 4.61-.59 7.9-1.73 9.79M295.29 29c-3.1-3-7.54-4.53-13.16-4.53a19.39 19.39 0 0 0-6.66 1.13 16.53 16.53 0 0 0-5.74 3.42 17 17 0 0 0-4 5.76 19.81 19.81 0 0 0-1.48 8 17.64 17.64 0 0 0 1.57 7.8 15 15 0 0 0 4.18 5.18 15.92 15.92 0 0 0 5.77 2.77 24.88 24.88 0 0 0 6.38.82 21.92 21.92 0 0 0 7.16-1.15 16.36 16.36 0 0 0 5.69-3.56 16.8 16.8 0 0 0 3.67-5.77 20.28 20.28 0 0 0 1.33-7.5c0-5.13-1.59-9.27-4.71-12.34M282.2 55a4.42 4.42 0 0 1-2.74-.81 7 7 0 0 1-1.85-2.4 15.49 15.49 0 0 1-1.07-3.88 36.81 36.81 0 0 1-.34-5c0-4.88.6-8.46 1.75-10.72 1.1-2.08 2.5-3.1 4.32-3.1a4.45 4.45 0 0 1 4.35 2.73 20.68 20.68 0 0 1 1.38 8.6c0 9.7-2 14.59-5.84 14.59"/></g></g></svg>