<svg xmlns="http://www.w3.org/2000/svg" width="484.707" height="107" viewBox="0 0 484.707 107"><path fill="#FF5F5C" d="M248.538 104.04c43.778 1.702 90.185-15.788 133.661-12.565 31.426 2.33 60.017 7.848 92.246 8.771 3.332.096 6.631.213 9.917.34.21-32.188.345-53.313.345-56.062 0-14.897-.08-29.567-1.319-44.435C481.754-.647 479.689-1 477.412-1h-22.695C444.539-1 434.578.509 423.951.509 394.051.509 386.874-1 369.397-1h-65.381C281.813-1 259.647.047 237.255.869 219.312 1.527 201.221 0 183.291-1h-54.697c-6.131 0-12.252.023-18.378.08-21.826.199-43.695-.048-65.451.781-9.015.344-18.088.087-27.007-.238-4.96-.182-10.885.93-14.925.412l.608.433C-2.265 2.424-1.22 12.169-1.42 16.246c-.397 8.141.686 16.403 1.216 24.491.186 2.841.274 25.132.322 58.985 9.074-.145 18.146-.232 27.196-.232 73.869-.001 147.64 1.688 221.224 4.55z"/></svg>