<svg xmlns="http://www.w3.org/2000/svg" width="130" height="59" viewBox="0 0 130 59"><path fill="#1EC1B3" stroke="#FFF" stroke-miterlimit="10" d="M7.397 30.768c-.083 4.91 2.202 8.454 2.405 8.747 5.121 7.394 22.022 6.114 36.615 6.114 16.953 0 12.422-1.188 29.156-1.188 7.203 0 14.404-.004 21.609 0 9.082.005 13.856 1.198 16.205-3.554 1.859-3.758.563-8.346-.412-12.891.976-5.368 2.271-10.786.412-15.224-2.349-5.611-7.123-4.202-16.205-4.196-7.205.005-14.406 0-21.609 0-16.734 0-12.203-1.404-29.156-1.404-15.563 0-33.757-1.724-37.482 9.096a25.85 25.85 0 0 0-.755 2.679 3.425 3.425 0 0 1-.101-.007c-.05.409-.103.837-.155 1.274-.468 2.563-.627 5.207-.608 7.782-.008.916.018 1.844.081 2.772"/></svg>