<svg xmlns="http://www.w3.org/2000/svg" width="60.5" height="54.282" viewBox="0 0 60.5 54.282"><path fill="#30BCB1" d="M8.78 6.746c2.57-.054 5.173-.067 7.743-.067 1.85 0 3.674-.178 5.527-.138 2.203.047 4.393.205 6.604.205 2.521 0 4.999.385 7.512.472 2.132.077 4.258.184 6.388.277 1.229.054 2.436-.069 3.65-.137.853-.045 1.789.026 2.641-.085 1.271-.167 2.725-.684 4.067-.375 1.228.278 2.227 1.535 2.56 2.691.985 3.445.219 7.119.355 10.658.073 1.903.289 3.815.203 5.734-.073 1.67-.33 3.36-.472 5.047-.289 3.375-.206 6.811-.206 10.22 0 1.312.059 2.576.137 3.866.076 1.273.424 2.823-.254 3.947-.632 1.044-1.47 2.096-2.73 2.355-1.182.242-2.488.137-3.714.137-3.033 0-6.069.087-9.03.271-3.719.23-7.362-.406-11.099-.406-3.088 0-6.086.338-9.169.338-2.775 0-5.322.251-8.053-.336-1.145-.247-2.583-.057-3.625-.596-1.043-.539-1.194-1.688-1.343-2.729-.199-1.401-.821-3.104-.611-4.54.214-1.455.726-2.789.884-4.275.583-5.488-.896-10.856-.405-16.335.237-2.641.143-5.343.268-7.999.064-1.354.157-2.744.223-4.119.052-1.097.132-2.153.679-3.117.578-1.019 1.345-1.095 2.49-1.1"/><path fill="#50514F" d="M38.061 52.376c-1.592 0-3.173-.115-4.716-.229-1.532-.111-3.116-.228-4.684-.228-1.531 0-3.071.086-4.561.168-2.123.119-4.377.151-6.506.197-2.113.043-4.109.088-6.26-.374-.396-.086-.84-.115-1.31-.146-.834-.055-1.698-.111-2.44-.495-1.259-.65-1.449-1.988-1.602-3.063a18.123 18.123 0 0 0-.274-1.397c-.246-1.106-.5-2.25-.342-3.324.101-.688.266-1.35.426-1.989.191-.768.373-1.492.455-2.267.292-2.759.05-5.556-.186-8.26-.229-2.629-.465-5.346-.221-8.067.141-1.571.164-3.202.187-4.778.015-1.069.03-2.138.08-3.2.033-.687.073-1.384.113-2.084.039-.678.078-1.358.11-2.035.057-1.21.153-2.298.743-3.34.708-1.247 1.701-1.35 2.925-1.355v.113c1.892-.031 3.96-.045 6.524-.045.824 0 1.643-.036 2.462-.071 1.002-.043 2.038-.088 3.076-.066.913.02 1.824.058 2.735.097 1.264.053 2.57.108 3.858.108 1.442 0 2.884.125 4.278.246 1.065.093 2.167.188 3.251.226 1.489.054 2.974.122 4.46.19l1.933.087c.906.04 1.829-.022 2.722-.081l.878-.055c.342-.019.697-.021 1.051-.018.514 0 1.064 0 1.553-.063.346-.045.706-.118 1.073-.192.984-.197 2.102-.422 3.171-.175 1.509.342 2.576 1.816 2.928 3.041.673 2.354.557 4.806.444 7.178-.057 1.188-.115 2.417-.069 3.599.023.605.061 1.21.099 1.816.081 1.292.164 2.628.104 3.96-.045 1.038-.162 2.096-.275 3.117a71.44 71.44 0 0 0-.198 1.949c-.234 2.738-.222 5.57-.209 8.309l.005 1.869c0 1.404.069 2.728.136 3.836.015.249.041.508.066.771.111 1.136.237 2.423-.392 3.465-.582.96-1.531 2.271-3.057 2.586-.963.198-1.98.177-2.964.158-.286-.005-.571-.011-.851-.011-3.091 0-6.119.091-8.999.271-.577.036-1.154.051-1.73.051zm-9.4-1.456c1.604 0 3.207.117 4.757.23 2.067.151 4.206.309 6.311.177 2.9-.181 5.949-.272 9.061-.272.287 0 .578.006.871.012.928.016 1.889.037 2.743-.139 1.13-.232 1.878-1.258 2.403-2.124.457-.757.353-1.821.252-2.85a22.937 22.937 0 0 1-.069-.81 64.033 64.033 0 0 1-.138-3.896l-.005-1.864c-.012-2.761-.025-5.616.213-8.398.055-.657.128-1.315.2-1.974.111-1.006.226-2.046.27-3.052.057-1.279-.024-2.588-.104-3.854-.038-.614-.076-1.228-.1-1.84-.047-1.225.012-2.476.069-3.685.109-2.291.222-4.66-.406-6.854-.275-.957-1.136-2.103-2.189-2.341-.863-.198-1.823-.006-2.753.18-.39.079-.772.154-1.139.203-.553.072-1.13.067-1.683.072-.338.003-.673 0-.996.017l-.866.054c-.919.061-1.873.125-2.833.083l-1.935-.087a468.283 468.283 0 0 0-4.449-.19c-1.109-.038-2.224-.135-3.302-.229-1.373-.119-2.792-.243-4.191-.243-1.309 0-2.626-.056-3.9-.109-.904-.038-1.808-.077-2.714-.096-1.004-.022-2.024.022-3.011.065a57.95 57.95 0 0 1-2.505.072c-3.121 0-5.506.021-7.732.067v-.022c-.36.11-.613.323-.848.736-.481.85-.563 1.813-.613 2.894-.033.68-.072 1.364-.111 2.045-.04.697-.08 1.39-.112 2.074a97.856 97.856 0 0 0-.079 3.167c-.022 1.595-.045 3.244-.19 4.854-.236 2.633-.004 5.306.221 7.891.239 2.752.487 5.598.184 8.452-.09.844-.288 1.637-.479 2.403-.161.645-.313 1.253-.407 1.892-.13.893.104 1.945.329 2.962.11.497.218.981.282 1.436.145 1.017.276 1.94 1.077 2.354.557.288 1.314.338 2.046.386.486.032.988.064 1.455.166 2.037.437 3.975.393 6.028.352 2.112-.047 4.35-.077 6.472-.195 1.502-.086 3.057-.172 4.615-.172z"/><path fill="#30BCB1" d="M38.061 52.231c-1.588 0-3.167-.116-4.707-.229-1.533-.112-3.12-.229-4.693-.229-1.535 0-3.078.087-4.569.17-1.5.082-3.049.169-4.6.169-.642 0-1.281.015-1.898.026-2.104.047-4.094.089-6.229-.37-.405-.088-.855-.117-1.329-.147-.821-.055-1.669-.11-2.384-.48-1.194-.618-1.378-1.917-1.527-2.96l-.004-.033c-.061-.429-.163-.886-.27-1.371-.242-1.092-.494-2.223-.34-3.271.1-.682.265-1.339.424-1.976.183-.739.374-1.502.458-2.286.293-2.771.051-5.576-.185-8.288-.229-2.621-.463-5.332-.221-8.04.142-1.578.165-3.21.186-4.788.015-1.05.03-2.135.08-3.195.033-.692.074-1.406.113-2.097.038-.664.078-1.352.109-2.025.057-1.191.15-2.26.725-3.274.671-1.181 1.583-1.275 2.8-1.28v.113a399.4 399.4 0 0 1 6.523-.046c.825 0 1.662-.036 2.472-.07 1-.043 2.032-.088 3.062-.065.914.02 1.84.058 2.735.096 1.265.053 2.571.108 3.861.108 1.441 0 2.885.125 4.28.247 1.062.092 2.161.188 3.244.226 1.463.052 2.946.12 4.381.187.67.031 1.342.062 2.011.091.91.04 1.831-.021 2.722-.08.299-.021.595-.04.892-.056.343-.02.703-.02 1.05-.02.525 0 1.069 0 1.564-.064.345-.047.705-.118 1.085-.193 1.017-.204 2.066-.414 3.107-.178 1.391.317 2.471 1.719 2.82 2.941.668 2.33.551 4.77.441 7.129-.059 1.192-.117 2.426-.07 3.613.024.602.062 1.217.1 1.812.079 1.29.162 2.626.105 3.953-.047 1.04-.164 2.102-.278 3.126-.069.635-.141 1.291-.196 1.935-.234 2.743-.223 5.579-.209 8.319l.003 1.87c0 1.419.07 2.74.137 3.846.015.245.041.5.065.771.111 1.114.235 2.379-.37 3.38-.567.936-1.489 2.216-2.964 2.52-.946.193-1.953.174-2.931.154-.286-.005-.57-.01-.852-.01-3.089 0-6.12.09-9.009.271-.573.032-1.147.048-1.72.048zm-9.4-1.167c1.598 0 3.199.117 4.746.231 2.072.151 4.214.308 6.331.176a146.19 146.19 0 0 1 9.052-.271c.285 0 .576.005.867.011.937.018 1.906.036 2.775-.142 1.188-.244 1.959-1.301 2.498-2.192.483-.8.376-1.888.273-2.942-.027-.277-.054-.54-.069-.8a63.338 63.338 0 0 1-.136-3.887c0-.621-.001-1.245-.003-1.867-.014-2.757-.025-5.608.209-8.382.057-.652.13-1.312.201-1.952.112-1.015.227-2.063.274-3.081.056-1.289-.026-2.604-.105-3.877-.037-.599-.076-1.219-.1-1.827-.047-1.219.012-2.468.071-3.675.108-2.303.221-4.683-.414-6.9-.285-.998-1.187-2.192-2.297-2.445-.893-.203-1.867-.008-2.812.181a16.8 16.8 0 0 1-1.131.202c-.539.07-1.106.07-1.655.07-.353 0-.688 0-1.011.019-.295.016-.59.035-.884.055-.91.061-1.852.121-2.8.081-.669-.029-1.34-.061-2.012-.091-1.433-.065-2.915-.134-4.375-.187-1.1-.038-2.208-.135-3.279-.228-1.381-.121-2.809-.243-4.22-.243-1.305 0-2.621-.057-3.892-.11-.891-.038-1.812-.076-2.72-.096-1.007-.021-2.028.023-3.017.066-.817.034-1.662.071-2.502.071-3.065 0-5.523.021-7.735.068l-.002-.026c-.413.114-.705.346-.97.813-.498.879-.581 1.859-.633 2.959-.032.676-.072 1.365-.11 2.031-.039.688-.08 1.398-.113 2.088-.048 1.051-.063 2.128-.079 3.172-.022 1.592-.045 3.238-.189 4.843-.237 2.646-.004 5.325.221 7.916.239 2.745.485 5.584.183 8.425-.088.832-.285 1.619-.476 2.381-.154.621-.314 1.261-.409 1.907-.134.919.102 1.984.331 3.015.111.498.216.969.28 1.425l.004.033c.139.974.282 1.98 1.15 2.431.585.302 1.358.353 2.106.401.479.031.974.064 1.43.161 2.055.442 4.003.4 6.066.357a84.675 84.675 0 0 1 1.913-.027c1.53 0 3.071-.087 4.56-.17 1.502-.083 3.054-.171 4.609-.171z"/><path fill="#50514F" d="M38.061 52.731c-1.606 0-3.2-.117-4.741-.23-1.527-.112-3.104-.228-4.658-.228-1.503 0-3.021.085-4.489.166l-.16.009c-1.996.11-4.124.145-6.136.186l-.272.005c-.628.014-1.249.027-1.865.027-1.274 0-2.802-.049-4.478-.408-.373-.081-.801-.108-1.255-.138-.878-.059-1.777-.118-2.583-.535C6 50.849 5.786 49.349 5.63 48.253c-.063-.447-.161-.886-.264-1.352-.256-1.157-.516-2.331-.35-3.467.104-.704.271-1.372.432-2.018.186-.748.368-1.485.448-2.226.289-2.729.047-5.506-.186-8.191-.23-2.639-.468-5.367-.221-8.128.141-1.568.163-3.186.184-4.75.016-1.086.031-2.161.081-3.212.03-.638.067-1.294.104-1.934l.024-.425c.033-.582.067-1.178.094-1.764.059-1.255.16-2.386.789-3.496.801-1.41 1.938-1.529 3.233-1.534l.502-.002v.107c1.77-.026 3.727-.038 6.023-.038.8 0 1.61-.034 2.396-.067 1.098-.047 2.12-.089 3.148-.068.917.02 1.847.058 2.746.096 1.312.055 2.587.108 3.84.108 1.478 0 2.99.132 4.324.249 1.119.097 2.18.188 3.218.224 1.465.052 2.951.12 4.387.187l2.01.091c.895.039 1.801-.022 2.667-.08.3-.021.6-.04.899-.056.852-.047 1.79.022 2.576-.08.329-.045.674-.114 1.04-.186 1.097-.22 2.299-.41 3.327-.178 1.654.378 2.813 1.971 3.19 3.292.688 2.399.573 4.871.461 7.262-.057 1.145-.119 2.41-.072 3.598.023.589.061 1.192.098 1.775.083 1.35.165 2.688.107 4.03-.049 1.091-.178 2.238-.281 3.16-.069.63-.14 1.282-.195 1.922-.235 2.764-.22 5.691-.207 8.273l.003 1.873c0 1.366.065 2.642.136 3.815.011.183.029.371.047.567l.018.189c.112 1.128.252 2.538-.44 3.684-.617 1.017-1.628 2.408-3.291 2.75-.765.157-1.544.177-2.138.177-.302 0-.604-.006-.904-.012-.285-.005-.565-.01-.842-.01-3.097 0-6.117.091-8.978.27a27.72 27.72 0 0 1-1.752.053zm-9.4-2.167c1.631 0 3.233.118 4.782.232 2.044.149 4.173.306 6.263.176 2.893-.18 5.949-.271 9.083-.271.288 0 .583.005.877.011.284.006.566.011.848.011.522 0 1.2-.017 1.816-.143.998-.205 1.684-1.155 2.169-1.961.397-.656.299-1.66.204-2.631l-.012-.118c-.023-.242-.046-.475-.06-.705a63.376 63.376 0 0 1-.137-3.916l-.003-1.865c-.014-2.621-.029-5.592.211-8.426.056-.65.129-1.308.2-1.944.107-.971.227-2.048.273-3.07.055-1.253-.026-2.547-.104-3.799l-.009-.154c-.035-.562-.07-1.14-.092-1.708-.049-1.253.015-2.563.071-3.719.106-2.269.216-4.604-.395-6.738-.249-.871-1.038-1.893-1.927-2.096-.714-.16-1.688.001-2.594.182-.408.083-.79.159-1.172.209-.583.077-1.193.068-1.752.075-.331 0-.646 0-.951.018-.295.016-.588.035-.88.055-.86.057-1.863.123-2.854.082l-2.198-.101c-1.373-.063-2.79-.127-4.185-.178-1.1-.038-2.201-.133-3.267-.226-1.328-.117-2.79-.245-4.214-.245-1.292 0-2.589-.055-3.844-.108-.957-.041-1.874-.079-2.778-.098-.989-.024-1.989.023-2.959.065l-.139.006c-.789.033-1.602.067-2.41.067-3.072 0-5.527.021-7.725.068h-.013c-.188.078-.353.217-.532.532-.442.782-.519 1.702-.568 2.737-.03.624-.066 1.259-.102 1.877l-.02.353c-.036.625-.072 1.266-.102 1.889-.047 1.015-.062 2.056-.077 3.067-.024 1.697-.047 3.349-.193 4.969-.233 2.601-.002 5.257.221 7.826.241 2.766.49 5.624.182 8.522-.091.863-.292 1.665-.485 2.439-.161.649-.312 1.263-.402 1.869-.122.831.105 1.849.325 2.833.115.518.221.998.287 1.464.13.92.25 1.758.889 2.089.492.254 1.212.302 1.909.347.471.031 1.004.065 1.501.171 1.523.328 2.955.372 4.154.372.587 0 1.178-.013 1.779-.024 2.114-.048 4.316-.078 6.423-.194l.204-.012c1.459-.081 2.969-.163 4.484-.163z"/><path fill="#E6E6E5" d="M17.254 1.797c0 2.445-.204 4.818-.204 7.252 0 .955-.296 3.012.829 3.444 1.268.488 1.68-1.334 1.68-2.154-.003-2.027-.203-3.968-.203-5.966 0-.838.264-2.258-.458-2.852-.857-.705-1.48.315-1.644 1.021"/><path fill="#3F352E" d="M18.283 12.824a1.36 1.36 0 0 1-.494-.098c-1.116-.429-1.049-2.079-1.004-3.169.008-.189.015-.362.015-.508 0-1.221.052-2.444.102-3.628.05-1.183.102-2.405.102-3.624h.274c.185-.329.443-.607.759-.714.232-.078.599-.101 1.02.246.678.556.618 1.636.571 2.503-.011.195-.021.379-.021.541 0 .996.051 2 .101 2.97.05.973.101 1.979.103 2.996 0 .672-.24 1.837-.902 2.292a1.106 1.106 0 0 1-.626.193zm-.786-10.225c-.016.96-.056 1.914-.095 2.843-.05 1.179-.102 2.397-.102 3.607 0 .152-.007.332-.016.529-.039.948-.098 2.382.684 2.682.256.1.47.085.655-.042.473-.324.686-1.294.686-1.879a58.718 58.718 0 0 0-.102-2.971c-.05-.977-.102-1.986-.102-2.995 0-.17.01-.363.021-.568.042-.755.093-1.694-.389-2.09-.197-.164-.375-.215-.54-.159-.326.111-.599.609-.7 1.043z"/><path fill="#E6E6E5" d="M18.283 12.857c-.15 0-.319-.028-.506-.101-1.139-.438-1.071-2.101-1.025-3.2a12.8 12.8 0 0 0 .015-.508c0-1.221.052-2.445.102-3.629s.101-2.405.101-3.623h.269c.189-.342.458-.636.787-.746.241-.082.619-.104 1.052.252.69.567.63 1.655.583 2.53-.011.196-.022.383-.022.54 0 .995.052 1.997.102 2.967.05.974.101 1.98.102 2.998.001.679-.243 1.856-.915 2.318a1.118 1.118 0 0 1-.645.202zM17.53 2.605c-.015.958-.057 1.911-.095 2.839a85.22 85.22 0 0 0-.101 3.604c0 .155-.007.338-.015.531-.039.938-.097 2.355.663 2.648.248.096.446.084.624-.039.458-.314.67-1.291.67-1.851-.002-1.003-.053-2.004-.102-2.971-.05-.977-.102-1.985-.102-2.995 0-.174.01-.367.022-.57.041-.748.092-1.677-.376-2.063-.28-.229-.453-.171-.51-.151-.311.106-.582.602-.678 1.018z"/><path fill="#3F352E" d="M18.283 13.107a1.65 1.65 0 0 1-.596-.118c-1.306-.501-1.233-2.272-1.185-3.443.008-.184.015-.357.015-.498 0-1.209.051-2.421.1-3.592.052-1.226.103-2.444.103-3.66v-.25h.376c.178-.283.456-.601.85-.733.418-.143.879-.042 1.29.296.787.646.724 1.802.674 2.73a9.471 9.471 0 0 0-.022.533c0 .964.05 1.94.098 2.883l.003.071c.048.92.102 1.962.103 3.011.001.629-.212 1.967-1.023 2.524a1.373 1.373 0 0 1-.786.246zm-1.064-11.06a90.654 90.654 0 0 1-.101 3.384c-.051 1.213-.102 2.419-.102 3.618 0 .146-.007.327-.015.518-.042 1.029-.107 2.583.865 2.957.343.132.659.107.917-.073.59-.405.809-1.511.808-2.112-.001-1.036-.055-2.072-.102-2.986l-.004-.071c-.048-.949-.098-1.931-.098-2.908 0-.16.011-.35.022-.55.045-.826.1-1.842-.491-2.327-.275-.227-.555-.299-.812-.208-.238.08-.468.303-.649.63l-.071.129h-.167zm1.065 10.495a1.08 1.08 0 0 1-.392-.08c-.928-.358-.865-1.883-.823-2.892.008-.189.015-.369.015-.521 0-1.245.054-2.504.101-3.615l.008-.182c.036-.868.073-1.757.087-2.65.117-.529.427-1.108.848-1.25.03-.01.101-.035.2-.035.178 0 .363.077.548.229.566.468.511 1.467.467 2.271a9.49 9.49 0 0 0-.021.557c0 .988.051 1.979.1 2.938.052 1.024.102 2.023.104 3.027 0 .589-.211 1.668-.778 2.057a.805.805 0 0 1-.464.146zm.044-10.726a.1.1 0 0 0-.039.008c-.186.063-.427.455-.515.837a80.93 80.93 0 0 1-.082 2.611l-.007.182c-.047 1.106-.101 2.36-.101 3.594 0 .158-.007.344-.015.542-.034.814-.091 2.176.502 2.405.169.065.28.065.392-.011.332-.228.562-1.049.562-1.645a60.219 60.219 0 0 0-.101-2.945c-.052-1.022-.103-2.02-.103-3.021 0-.178.01-.377.022-.585.036-.653.085-1.549-.286-1.855-.125-.105-.203-.117-.229-.117z"/><g><path fill="#E6E6E5" d="M30.146 1.797c0 2.445-.204 4.818-.204 7.252 0 .955-.296 3.012.829 3.444 1.269.488 1.682-1.334 1.679-2.154-.002-2.027-.202-3.968-.202-5.966 0-.838.265-2.258-.458-2.852-.857-.705-1.48.315-1.644 1.021"/><path fill="#3F352E" d="M31.175 12.824c-.159 0-.325-.032-.495-.098-1.116-.429-1.049-2.079-1.004-3.169.008-.189.015-.362.015-.508 0-1.221.052-2.444.102-3.628.05-1.183.102-2.405.102-3.624h.274c.185-.329.443-.607.759-.714.232-.078.599-.101 1.02.246.678.556.619 1.635.571 2.502-.011.196-.021.38-.021.542 0 .994.051 1.995.1 2.962.05.976.101 1.984.102 3.003.002.67-.236 1.833-.899 2.29a1.082 1.082 0 0 1-.626.196zm-.786-10.225c-.016.96-.056 1.914-.095 2.843-.05 1.178-.102 2.396-.102 3.606 0 .152-.007.332-.016.529-.039.948-.098 2.382.684 2.682.256.098.471.084.657-.042.474-.327.685-1.294.683-1.877-.001-1.007-.052-2.009-.101-2.979a58.328 58.328 0 0 1-.101-2.988c0-.17.011-.364.022-.569.042-.754.093-1.693-.389-2.089-.199-.164-.376-.215-.542-.159-.326.111-.599.609-.7 1.043z"/><g><path fill="#E6E6E5" d="M31.175 12.857c-.151 0-.32-.028-.507-.101-1.139-.438-1.07-2.101-1.024-3.2.007-.188.013-.364.013-.508 0-1.221.053-2.445.103-3.629.049-1.184.101-2.405.101-3.623h.27c.19-.342.458-.636.786-.746.242-.082.619-.104 1.052.252.69.567.629 1.655.582 2.53-.011.196-.021.383-.021.54 0 .994.051 1.996.101 2.965.049.974.102 1.982.103 3 .001.679-.242 1.856-.915 2.318a1.11 1.11 0 0 1-.644.202zm-.752-10.252c-.016.958-.056 1.911-.095 2.839a85.22 85.22 0 0 0-.101 3.604c0 .155-.009.338-.017.531-.039.938-.097 2.355.662 2.648.25.096.447.084.625-.039.458-.315.671-1.291.67-1.851-.001-1.003-.053-2.005-.102-2.972-.05-.977-.102-1.986-.102-2.994 0-.174.011-.367.021-.572.042-.746.092-1.675-.376-2.062-.281-.229-.453-.171-.509-.151-.31.107-.581.603-.676 1.019z"/><path fill="#3F352E" d="M31.175 13.107c-.195 0-.396-.04-.597-.118-1.306-.501-1.232-2.272-1.184-3.443.007-.184.013-.357.013-.498 0-1.21.051-2.421.101-3.592l.254-.094-.25-.01c.048-1.162.099-2.363.099-3.556v-.25h.377c.179-.283.457-.601.849-.733.422-.145.879-.042 1.291.295.786.646.724 1.802.673 2.731-.011.198-.021.38-.021.533 0 .992.051 1.989.101 2.952l.006.116c.047.94.096 1.913.097 2.897.001.629-.21 1.966-1.023 2.524a1.355 1.355 0 0 1-.786.246zm-1.064-11.06a89.968 89.968 0 0 1-.099 3.326l-.004.104c-.049 1.166-.101 2.372-.101 3.571 0 .146-.006.327-.013.518-.043 1.029-.108 2.584.864 2.957.341.132.657.107.92-.073.59-.405.808-1.51.806-2.112a58.348 58.348 0 0 0-.096-2.873l-.006-.115c-.05-.97-.102-1.972-.102-2.978 0-.162.01-.353.021-.554.044-.822.1-1.837-.491-2.323-.275-.226-.554-.297-.813-.208-.236.079-.466.303-.648.631l-.072.128h-.166zm1.064 10.495c-.123 0-.252-.026-.393-.08-.928-.358-.864-1.883-.822-2.892l.005-.13c.006-.141.011-.274.011-.391 0-1.233.054-2.499.101-3.615.039-.925.079-1.876.095-2.833.116-.529.425-1.107.848-1.25a.574.574 0 0 1 .199-.035c.178 0 .362.077.548.229.569.47.513 1.468.467 2.27-.012.223-.021.399-.021.558 0 .997.051 1.998.101 2.967l.006.131c.047.934.095 1.899.096 2.868.001.63-.239 1.685-.778 2.057a.797.797 0 0 1-.463.146zm.044-10.726a.09.09 0 0 0-.037.008c-.188.063-.429.455-.516.837a91.99 91.99 0 0 1-.089 2.794c-.047 1.111-.101 2.371-.101 3.594 0 .123-.005.263-.012.412l-.004.128c-.034.815-.091 2.177.502 2.406.169.065.281.065.393-.011.333-.229.563-1.051.562-1.645-.001-.957-.049-1.916-.095-2.843l-.006-.116a58.432 58.432 0 0 1-.102-3.007c0-.167.01-.353.02-.548.039-.691.089-1.584-.284-1.893-.127-.104-.204-.116-.231-.116z"/></g></g><g><path fill="#E6E6E5" d="M43.094 1.797c0 2.445-.205 4.818-.205 7.252 0 .955-.296 3.012.831 3.444 1.269.488 1.681-1.334 1.68-2.154-.002-2.027-.205-3.968-.205-5.966 0-.838.266-2.258-.458-2.852-.858-.705-1.48.315-1.643 1.021"/><path fill="#3F352E" d="M44.124 12.824c-.159 0-.325-.032-.495-.098-1.118-.429-1.05-2.079-1.006-3.17.008-.188.015-.361.015-.507a84.4 84.4 0 0 1 .103-3.628c.05-1.183.103-2.405.103-3.624h.272c.185-.328.443-.606.758-.714.232-.081.599-.101 1.021.245.678.557.619 1.635.571 2.502a10.15 10.15 0 0 0-.021.543c0 .995.052 1.997.102 2.966.05.975.102 1.982.103 3 .001.672-.238 1.836-.9 2.291-.19.129-.401.194-.626.194zm-.787-10.225c-.016.96-.057 1.914-.096 2.844-.05 1.178-.102 2.396-.102 3.606 0 .152-.007.332-.015.528-.039.949-.098 2.382.685 2.683.257.1.472.085.657-.042.473-.325.684-1.294.684-1.878-.001-1.005-.053-2.006-.103-2.975-.05-.976-.102-1.984-.102-2.992 0-.17.011-.364.022-.57.042-.754.094-1.692-.389-2.088-.198-.164-.376-.214-.542-.159-.327.111-.599.609-.699 1.043z"/><g><path fill="#E6E6E5" d="M44.123 12.857a1.38 1.38 0 0 1-.506-.101c-1.138-.438-1.071-2.101-1.025-3.2.007-.188.015-.364.015-.508 0-1.221.051-2.445.103-3.629.05-1.184.101-2.405.101-3.623h.27c.188-.342.458-.634.786-.746.24-.082.618-.104 1.051.252.691.567.63 1.655.583 2.53-.01.196-.02.383-.02.54 0 .994.05 1.996.101 2.965.049.974.101 1.982.101 3 .002.679-.24 1.856-.914 2.318a1.129 1.129 0 0 1-.646.202zm-.752-10.252c-.015.958-.056 1.911-.095 2.839-.05 1.177-.103 2.396-.103 3.604 0 .155-.005.338-.016.531-.036.938-.095 2.355.665 2.648.248.096.448.084.625-.039.458-.315.669-1.291.669-1.851a58.706 58.706 0 0 0-.103-2.972c-.048-.977-.1-1.986-.1-2.994 0-.173.011-.367.022-.57.042-.748.091-1.677-.378-2.063-.279-.229-.452-.171-.509-.151-.31.106-.582.602-.677 1.018z"/><path fill="#3F352E" d="M44.123 13.107a1.68 1.68 0 0 1-.597-.117c-1.308-.503-1.234-2.273-1.185-3.444l.003-.068c.006-.158.012-.307.012-.43 0-1.267.057-2.583.103-3.64.05-1.178.101-2.396.101-3.612v-.25h.377c.23-.365.527-.623.848-.732.423-.144.881-.042 1.291.295.788.646.725 1.803.674 2.733-.011.215-.02.385-.02.53 0 .961.045 1.906.1 2.952l.003.064c.048.958.098 1.947.098 2.949.002.628-.208 1.966-1.022 2.524a1.364 1.364 0 0 1-.786.246zM43.06 2.047a90.654 90.654 0 0 1-.101 3.384 84.185 84.185 0 0 0-.103 3.618c0 .129-.006.284-.013.449l-.002.068c-.043 1.029-.108 2.583.865 2.957.342.132.652.108.92-.074.59-.405.806-1.51.804-2.111 0-.99-.049-1.974-.097-2.925l-.003-.063a56.585 56.585 0 0 1-.101-2.978c0-.152.009-.332.018-.521.047-.854.103-1.871-.49-2.356-.275-.227-.554-.299-.812-.208-.239.082-.469.305-.648.63l-.071.129h-.166zm1.064 10.495a1.09 1.09 0 0 1-.393-.08c-.922-.356-.864-1.873-.825-2.877.011-.206.016-.384.016-.536 0-1.178.05-2.363.099-3.509l.008-.197c.038-.897.077-1.817.091-2.741.115-.528.425-1.107.846-1.25.029-.01.1-.035.2-.035.179 0 .363.078.548.229.569.469.513 1.468.469 2.271-.011.199-.022.388-.022.557 0 .968.048 1.943.095 2.885l.004.097c.054 1.005.102 1.991.104 2.983 0 .589-.211 1.667-.777 2.057a.793.793 0 0 1-.463.146zm.043-10.726a.092.092 0 0 0-.038.008c-.187.064-.427.455-.515.837a83.4 83.4 0 0 1-.085 2.703l-.008.197c-.048 1.141-.098 2.32-.098 3.488 0 .159-.005.346-.016.544-.031.82-.083 2.175.505 2.402.167.065.283.065.392-.011.332-.229.562-1.05.562-1.646-.002-.98-.05-1.958-.103-2.958l-.005-.098c-.047-.948-.096-1.929-.096-2.91 0-.177.011-.376.023-.584.036-.653.086-1.549-.288-1.856-.127-.104-.203-.116-.23-.116z"/></g></g><g><path fill="#FFF" d="M14.461 38.774v-9.067c0-.093.033-.171.097-.236a.323.323 0 0 1 .237-.098h2.17c.668 0 1.238.236 1.711.71.473.473.709 1.047.709 1.725 0 .76-.311 1.391-.932 1.891a2.855 2.855 0 0 1 1.37 1.009c.356.478.535 1.018.535 1.62 0 .77-.271 1.426-.813 1.969a2.68 2.68 0 0 1-1.968.812h-2.796c-.093 0-.169-.031-.229-.097s-.091-.144-.091-.238zm.682-5.242h1.822c.482 0 .893-.17 1.231-.508.338-.339.508-.744.508-1.217 0-.482-.169-.895-.508-1.238a1.665 1.665 0 0 0-1.231-.515h-1.822v3.478zm0 4.895h2.434c.575 0 1.066-.203 1.474-.611.408-.408.617-.904.625-1.488a2.083 2.083 0 0 0-.625-1.48 1.996 1.996 0 0 0-1.474-.619h-2.434v4.198z"/><path fill="#3F352E" d="M17.577 39.608h-2.74c-.29 0-.497-.089-.652-.257a.834.834 0 0 1-.223-.577v-9.067c0-.225.083-.427.241-.587a.818.818 0 0 1 .593-.247h2.169c.802 0 1.497.288 2.064.856.568.567.855 1.267.855 2.078 0 .662-.196 1.246-.585 1.744.354.222.664.508.924.855.421.564.635 1.211.635 1.92 0 .903-.323 1.685-.96 2.322a3.17 3.17 0 0 1-2.321.96zm-1.934-1.681h1.934c.441 0 .808-.152 1.121-.465a1.574 1.574 0 0 0-.002-2.264 1.507 1.507 0 0 0-1.119-.471h-1.934v3.2zm0-4.895h1.322c.347 0 .634-.118.877-.361.247-.247.361-.521.361-.863a1.21 1.21 0 0 0-.364-.888 1.177 1.177 0 0 0-.875-.365h-1.322v2.477z"/><path fill="#FFF" d="M27.994 39.108h-5.006c-.093 0-.172-.031-.237-.097s-.097-.144-.097-.237v-9.067c0-.093.032-.171.097-.236s.144-.098.237-.098c.092 0 .174.032.243.098s.104.144.104.236v8.72h4.659c.092 0 .174.035.243.105.069.068.104.15.104.242 0 .094-.035.172-.104.237s-.151.097-.243.097z"/><path fill="#3F352E" d="M27.994 39.608h-4.979a.838.838 0 0 1-.619-.244.824.824 0 0 1-.242-.59v-9.067c0-.226.084-.429.242-.589a.855.855 0 0 1 1.178-.011.806.806 0 0 1 .261.6v8.22h4.159c.228 0 .435.088.599.255a.826.826 0 0 1-.012 1.194.848.848 0 0 1-.587.232z"/><g><path fill="#FFF" d="M29.426 34.171c.009-1.371.468-2.537 1.377-3.498.909-.959 2.017-1.439 3.324-1.439 1.298 0 2.397.48 3.296 1.439.899.961 1.354 2.127 1.363 3.498-.009 1.373-.464 2.539-1.363 3.498-.899.96-1.999 1.439-3.296 1.439-1.307 0-2.416-.479-3.324-1.439-.908-.959-1.367-2.125-1.377-3.498zm.682 0c0 1.188.392 2.193 1.175 3.019.783.825 1.731 1.237 2.844 1.237 1.076 0 2.002-.414 2.782-1.244.779-.83 1.173-1.834 1.182-3.012-.009-1.195-.401-2.201-1.175-3.018-.774-.816-1.704-1.224-2.789-1.224-1.113 0-2.061.407-2.844 1.224-.783.817-1.175 1.823-1.175 3.018z"/><path fill="#3F352E" d="M34.127 39.608c-1.444 0-2.685-.537-3.688-1.596-.994-1.05-1.503-2.341-1.514-3.839.01-1.502.52-2.793 1.514-3.845 1.003-1.059 2.244-1.596 3.688-1.596 1.435 0 2.667.537 3.661 1.598.984 1.052 1.488 2.343 1.498 3.837-.01 1.503-.514 2.793-1.498 3.843-.993 1.061-2.225 1.598-3.661 1.598zm0-9.178c-.98 0-1.793.35-2.483 1.069-.697.727-1.036 1.601-1.036 2.672 0 1.064.339 1.938 1.038 2.674.69.729 1.502 1.082 2.481 1.082.94 0 1.731-.355 2.417-1.086.696-.742 1.039-1.617 1.047-2.674-.008-1.065-.348-1.941-1.038-2.67-.681-.718-1.475-1.067-2.426-1.067z"/></g><g><path fill="#FFF" d="M48.814 34.728h-2.657a.333.333 0 0 1-.347-.334c0-.102.032-.186.097-.25s.148-.098.25-.098h3.046c.083.01.155.047.215.111a.334.334 0 0 1 .091.236v3.395a.411.411 0 0 1-.125.25c-.899.714-1.947 1.07-3.143 1.07-1.4-.009-2.594-.493-3.582-1.453-.987-.959-1.481-2.125-1.481-3.498 0-1.354.494-2.512 1.481-3.477.988-.965 2.181-1.447 3.582-1.447 1.159 0 2.211.367 3.157 1.1a.284.284 0 0 1 .111.215.358.358 0 0 1-.07.258c-.13.167-.292.186-.487.056-.77-.63-1.674-.946-2.712-.946-1.215 0-2.249.416-3.102 1.245-.853.83-1.279 1.829-1.279 2.997 0 1.188.426 2.195 1.279 3.025s1.887 1.244 3.102 1.244c.955 0 1.812-.277 2.573-.834v-2.865z"/><path fill="#3F352E" d="M46.241 39.608h-.003c-1.527-.01-2.848-.546-3.927-1.595-1.083-1.052-1.632-2.35-1.632-3.856 0-1.486.549-2.776 1.631-3.834 1.08-1.055 2.403-1.59 3.931-1.59 1.266 0 2.432.405 3.463 1.204a.78.78 0 0 1 .303.561.86.86 0 0 1-.167.607c-.293.377-.754.445-1.164.172-.724-.59-1.508-.862-2.435-.862-1.088 0-1.989.361-2.753 1.104-.759.738-1.128 1.602-1.128 2.639 0 1.056.369 1.929 1.128 2.667.762.742 1.663 1.103 2.753 1.103.77 0 1.45-.195 2.073-.597v-2.103h-2.157a.833.833 0 0 1-.847-.834.836.836 0 0 1 .848-.847h3.004c.301.027.482.119.623.271a.835.835 0 0 1 .225.577l-.007 3.477a.9.9 0 0 1-.293.548c-1.001.792-2.162 1.188-3.469 1.188z"/></g></g><g><path fill="#FFF" d="M17.372 26.944l-3.26-4.533v4.447a.185.185 0 0 1-.186.187.184.184 0 0 1-.186-.187v-4.982c-.026-.083-.002-.152.07-.209a.206.206 0 0 1 .144-.027.159.159 0 0 1 .121.073l3.291 4.563v-4.424c0-.052.019-.096.055-.132s.08-.054.132-.054.097.018.136.054.058.08.058.132v5.006a.174.174 0 0 1-.058.133.198.198 0 0 1-.136.054.177.177 0 0 1-.147-.069l-.034-.032z"/><path fill="#3F352E" d="M17.739 27.438l-.029-.04a.57.57 0 0 1-.602-.189l-2.622-3.636v3.286a.56.56 0 0 1-.161.395.57.57 0 0 1-.794.007.56.56 0 0 1-.167-.401v-4.94a.55.55 0 0 1 .213-.548.764.764 0 0 1 .159-.08v-.044l.026.036a.543.543 0 0 1 .153-.021c.256.03.393.118.477.255l2.596 3.599v-3.263c0-.15.059-.291.165-.397a.58.58 0 0 1 .788-.01.548.548 0 0 1 .178.407v5.006a.546.546 0 0 1-.175.404.594.594 0 0 1-.206.125v.049z"/><path fill="#FFF" d="M19.282 24.849v-3.051c0-.051.018-.096.054-.131.036-.037.08-.055.132-.055s.097.018.136.055c.039.035.059.08.059.131v3.051c0 .502.177.929.531 1.28.354.353.78.53 1.277.536a1.795 1.795 0 0 0 1.292-.536c.354-.352.532-.778.532-1.28v-3.051c0-.051.018-.096.054-.131.036-.037.08-.055.132-.055s.097.018.136.055c.039.035.059.08.059.131v3.051c0 .605-.215 1.123-.645 1.553-.43.429-.949.644-1.56.644-.6 0-1.115-.215-1.544-.644a2.114 2.114 0 0 1-.645-1.553z"/><path fill="#3F352E" d="M21.47 27.42c-.7 0-1.309-.253-1.809-.753a2.487 2.487 0 0 1-.754-1.818v-3.051c0-.152.06-.294.167-.399.196-.202.57-.213.789-.002a.537.537 0 0 1 .174.401v3.051c0 .401.138.733.42 1.014.285.283.617.423 1.017.428a1.417 1.417 0 0 0 1.023-.427c.284-.281.421-.613.421-1.015v-3.051c0-.152.06-.294.167-.399.196-.202.571-.213.789-.002a.537.537 0 0 1 .174.401v3.051a2.49 2.49 0 0 1-.754 1.818c-.5.5-1.114.753-1.824.753z"/><path fill="#FFF" d="M25.165 26.858v-5.061c0-.051.018-.096.054-.131a.177.177 0 0 1 .132-.055h2.795a.18.18 0 0 1 .132.055c.036.035.054.08.054.131a.192.192 0 0 1-.054.141.187.187 0 0 1-.132.054h-2.601v2.149h2.274c.052 0 .096.02.132.059s.054.084.054.137a.177.177 0 0 1-.054.131.177.177 0 0 1-.132.055h-2.274v2.143h2.601c.051 0 .095.018.132.054a.19.19 0 0 1 .054.14.182.182 0 0 1-.054.133.187.187 0 0 1-.132.054h-2.81a.195.195 0 0 1-.12-.058.181.181 0 0 1-.051-.131z"/><path fill="#3F352E" d="M28.146 27.42h-2.771c-.209-.016-.328-.072-.422-.166a.55.55 0 0 1-.162-.396v-5.061a.55.55 0 0 1 .169-.401.546.546 0 0 1 .392-.159h2.794a.558.558 0 0 1 .561.561.565.565 0 0 1-.161.402.565.565 0 0 1-.4.167H25.92v1.399h1.899a.566.566 0 0 1 .394.97.547.547 0 0 1-.394.161H25.92v1.393h2.226a.55.55 0 0 1 .395.162.565.565 0 0 1 .166.406.56.56 0 0 1-.561.562z"/><path fill="#FFF" d="M29.503 26.269c-.083-.072-.091-.152-.023-.24a.174.174 0 0 1 .117-.062.158.158 0 0 1 .124.039c.584.471 1.18.703 1.785.699.476 0 .874-.119 1.195-.357.31-.223.465-.492.465-.808 0-.295-.147-.543-.442-.745-.29-.191-.709-.339-1.257-.442h-.016c-.554-.104-.98-.256-1.28-.458-.373-.242-.559-.559-.559-.947 0-.402.189-.742.567-1.016.362-.264.799-.396 1.312-.396.222 0 .446.037.671.113.225.074.4.146.524.217s.284.17.481.299c.093.062.109.143.046.24-.025.042-.061.066-.104.074s-.087-.002-.128-.027c-.187-.119-.338-.212-.454-.279s-.271-.133-.466-.198a1.815 1.815 0 0 0-.57-.097c-.435 0-.805.108-1.11.326-.285.212-.427.461-.427.744.005.26.14.479.404.66.253.176.642.313 1.165.412h.015c.595.107 1.056.273 1.381.496.398.259.598.601.598 1.024 0 .43-.204.792-.613 1.087-.394.285-.859.427-1.397.427-.684-.006-1.352-.268-2.004-.785z"/><path fill="#3F352E" d="M31.506 27.428h-.002c-.766-.006-1.517-.297-2.233-.865-.246-.214-.276-.517-.088-.763a.565.565 0 0 1 .368-.206c.193-.001.316.041.416.128.899.723 1.935.751 2.512.324.282-.203.314-.386.314-.507 0-.113-.032-.266-.279-.436-.241-.159-.618-.29-1.115-.384-.626-.113-1.091-.282-1.436-.516-.472-.307-.725-.743-.725-1.258 0-.521.25-.978.722-1.319a2.555 2.555 0 0 1 2.323-.335c.249.082.442.163.589.246.129.073.296.177.501.312a.53.53 0 0 1 .157.756.515.515 0 0 1-.355.241l-.095.009a.565.565 0 0 1-.296-.086 11.613 11.613 0 0 0-.445-.274 2.234 2.234 0 0 0-.397-.167c-.533-.177-1.003-.063-1.343.18-.241.18-.27.336-.27.438.001.076.028.205.241.351.146.102.439.243 1.022.354.656.115 1.169.302 1.539.555.496.321.761.784.761 1.334 0 .555-.258 1.023-.769 1.391-.456.329-1 .497-1.617.497z"/><g><path fill="#FFF" d="M36.155 26.858v-4.866h-1.638a.176.176 0 0 1-.132-.058.19.19 0 0 1-.054-.137c0-.051.018-.096.054-.131a.177.177 0 0 1 .132-.055h3.648c.052 0 .096.018.132.055.036.035.054.08.054.131a.194.194 0 0 1-.054.137.176.176 0 0 1-.132.058h-1.638v4.866a.179.179 0 0 1-.055.133c-.036.035-.08.054-.132.054a.184.184 0 0 1-.185-.187z"/><path fill="#3F352E" d="M36.341 27.42a.56.56 0 0 1-.561-.561v-4.491h-1.263a.563.563 0 0 1-.561-.57.55.55 0 0 1 .169-.401.546.546 0 0 1 .392-.159h3.648c.153 0 .295.06.4.168a.57.57 0 0 1-.4.963h-1.263v4.491a.552.552 0 0 1-.163.396.57.57 0 0 1-.398.164z"/></g><g><path fill="#FFF" d="M42.589 26.712c-.099-.188-.147-.484-.147-.893 0-.332-.147-.605-.442-.823a1.475 1.475 0 0 0-.629-.272.037.037 0 0 0-.023-.008.028.028 0 0 0-.016-.007h-1.319v2.149c0 .053-.02.096-.058.133-.039.035-.084.054-.136.054a.184.184 0 0 1-.186-.187v-5.061c0-.047.017-.088.05-.124s.074-.057.121-.062h1.551c.43 0 .794.15 1.095.453.3.303.45.67.45 1.099 0 .306-.082.585-.245.839a1.516 1.516 0 0 1-.648.566l.078.039a1.6 1.6 0 0 1 .52.48c.14.202.209.445.209.73 0 .279.023.488.07.628a.314.314 0 0 0 .078.132c.109-.01.178.031.209.125.026.123-.016.207-.124.248h-.016a.15.15 0 0 0-.035.004.272.272 0 0 1-.042.004h-.016c-.15.002-.267-.081-.349-.246zm-.062-3.548c0-.325-.115-.603-.345-.83a1.134 1.134 0 0 0-.827-.342h-1.342v2.345h1.374c.315-.012.585-.13.807-.357.222-.229.333-.501.333-.816z"/><path fill="#3F352E" d="M39.818 27.42a.56.56 0 0 1-.561-.561v-5.061c0-.143.052-.273.151-.38a.559.559 0 0 1 .356-.179l1.591-.002c.532 0 .99.189 1.361.564.371.374.559.833.559 1.362a1.904 1.904 0 0 1-.614 1.413c.092.09.177.189.252.298.184.266.276.583.276.944 0 .222.016.357.032.437a.524.524 0 0 1 .306.33c.075.345-.066.61-.347.717l-.242.032c-.17 0-.486-.06-.685-.455-.125-.237-.187-.586-.187-1.061 0-.213-.089-.373-.29-.521a1.093 1.093 0 0 0-.462-.203l-.098-.011h-.829v1.774a.55.55 0 0 1-.173.403.574.574 0 0 1-.396.16zm.569-3.458h.929c.278-.008.454-.086.609-.244a.75.75 0 0 0 .227-.554.744.744 0 0 0-.234-.563.757.757 0 0 0-.563-.233h-.967v1.594z"/></g><g><path fill="#FFF" d="M44.18 24.29c.005-.766.262-1.417.769-1.953a2.459 2.459 0 0 1 1.855-.803c.725 0 1.337.268 1.839.803.502.536.756 1.188.761 1.953-.005.766-.259 1.416-.761 1.951a2.424 2.424 0 0 1-1.839.804 2.458 2.458 0 0 1-1.855-.804c-.508-.535-.764-1.185-.769-1.951zm.381 0c0 .662.218 1.223.656 1.684.437.461.966.691 1.587.691.6 0 1.118-.232 1.552-.695s.655-1.023.66-1.68c-.005-.668-.224-1.229-.656-1.685s-.951-.683-1.556-.683a2.12 2.12 0 0 0-1.587.683c-.438.456-.656 1.017-.656 1.685z"/><path fill="#3F352E" d="M46.803 27.42a2.83 2.83 0 0 1-2.127-.921c-.572-.604-.865-1.347-.871-2.206.006-.866.299-1.608.871-2.214a2.833 2.833 0 0 1 2.127-.92c.829 0 1.54.31 2.113.921.567.605.857 1.349.862 2.208-.005.863-.295 1.605-.862 2.21-.573.611-1.284.922-2.113.922zm0-5.122c-.519 0-.95.186-1.316.567-.371.386-.551.852-.551 1.425 0 .567.181 1.033.553 1.426.717.757 1.849.791 2.594-.003.371-.396.554-.861.559-1.426-.004-.568-.186-1.036-.553-1.424-.363-.38-.783-.565-1.286-.565z"/></g></g></svg>