<svg xmlns="http://www.w3.org/2000/svg" width="39.555" height="40.394" viewBox="0 0 39.555 40.394"><path fill="#FFF" d="M10.002 5.831c.507.383 7.726 7.693 8.239 8.202.251.249.763.289 1.043.001.144-.148 1.188-1.031 1.436-1.423.152-.242 6.262-6.898 6.355-7.067.277-.5 1.105-1.131 1.663-1.255.466-.103 3.028 2.296 3.341 2.678.223.27.449.413.507.776.077.486-.173.643-.437.982-.211.275-2.102 2.055-2.251 2.215-.414.447-.9.87-1.331 1.308-.548.557-2.913 2.66-3.515 3.192-.484.427-.981.928-1.387 1.418-.289.35-.481.737-.836 1.044-.268.231-.496.314-.188.633.179.185.914.602 1.045.792.231.335 2.55 2.483 3.263 3.39.26.329 3.504 3.801 4.155 4.292.337.254.585.552.905.841.305.275.652.426.687.883.042.578-.396.787-.782 1.145-.385.355-.635.844-.989 1.236-.521.576-1.023 1.182-1.815 1.241-.925.069-1.652-.909-2.221-1.525-1.057-1.144-7.684-8.063-8.066-8.259-.463-.235-.85.258-1.161.568-.748.75-7.431 7.447-8.015 8.064-.251.264-.433.635-.727.852-.241.18-.554.279-.842.292-.633.025-.757-.363-1.153-.755-.789-.782-1.839-1.279-2.249-2.361-.266-.701.216-1.17.691-1.676.71-.758 6.923-7.191 7.801-7.879.312-.244.551-.559.837-.83.276-.262.64-.351.354-.817-.108-.176-.353-.33-.5-.483-.355-.367-7.073-6.775-8.466-8.087-.457-.431-1.133-1.142-.938-1.862.081-.299 2.462-3.412 3.345-3.386.972.028 1.512 1.098 2.202 1.62z"/></svg>