<svg id="Capa_1" xmlns="http://www.w3.org/2000/svg" width="75.631" height="73.496" viewBox="0 0 75.631 73.496"><style>.st0,.st1,.st2{stroke:#3f352e;stroke-miterlimit:10}.st0{stroke-width:2;fill:none}.st1,.st2{fill:#1ec1b3}.st2{fill:none}</style><path class="st2" d="M28.333 10.002c-1.881.504-3.464 1.753-5.124 2.722-3.026 1.766-6.113 3.868-8.658 6.268C9.15 24.084 6.79 35.976 7.765 43.167c1.111 8.211 8.154 15.602 15.7 18.619 8.875 3.55 16.689 1.211 24.506-2.792 7.289-3.731 12.084-10.307 14.25-18.157 1.396-5.055 1.173-8.393-1.462-12.977-2.279-3.96-3.277-7.959-6.635-11.325-4.197-4.208-9.021-5.021-14.693-5.584-4.229-.419-7.832-1.727-12.118-.759"/><path class="st1" d="M31.867 9.408c-1.882.503-3.465 1.753-5.124 2.722-3.026 1.767-6.113 3.868-8.658 6.268-5.401 5.091-7.763 16.984-6.787 24.175 1.112 8.211 8.154 15.602 15.7 18.62 8.876 3.548 16.689 1.21 24.507-2.793 7.287-3.732 12.083-10.306 14.249-18.156 1.396-5.055 1.174-8.394-1.463-12.977-2.277-3.961-3.276-7.959-6.634-11.326-4.197-4.208-9.021-5.021-14.693-5.585-4.229-.417-7.832-1.725-12.118-.758"/><path class="st0" d="M29.891 53.144c1.832-5.375 14.231-11.971 18.938-16.102-4.46-4.903-9.469-4.177-16.838-16.809"/></svg>