<?xml version="1.0" encoding="utf-8"?>
<!-- Generator: Adobe Illustrator 16.0.0, SVG Export Plug-In . SVG Version: 6.00 Build 0)  -->
<!DOCTYPE svg PUBLIC "-//W3C//DTD SVG 1.1//EN" "http://www.w3.org/Graphics/SVG/1.1/DTD/svg11.dtd">
<svg version="1.1" id="Capa_1" xmlns="http://www.w3.org/2000/svg" xmlns:xlink="http://www.w3.org/1999/xlink" x="0px" y="0px"
	 width="112px" height="132px" viewBox="0 0 112 132" enable-background="new 0 0 112 132" xml:space="preserve">
<g>
	<g>
		<path fill-rule="evenodd" clip-rule="evenodd" fill="#FFFFFF" stroke="#3F3832" stroke-miterlimit="10" d="M20.824,125.045v-12.98
			H13.54c-3.875,0-7.018,2.905-7.018,6.491c0,3.583,3.142,6.489,7.018,6.489h2.231v-2.822h-2.222c-2.253,0-4.089-1.585-4.089-3.667
			c0-2.084,1.791-3.671,4.042-3.671h4.521v10.16H20.824z"/>
		<path fill-rule="evenodd" clip-rule="evenodd" fill="#FFFFFF" stroke="#3F3832" stroke-miterlimit="10" d="M30.101,111.575
			c-3.72,0-6.737,2.561-6.737,6.441v7.027h2.741v-7.184c0-2.499,2.135-3.941,3.996-3.941c1.859,0,3.959,1.442,3.959,3.941
			l-0.002,7.184h2.78v-7.027C36.838,114.136,33.822,111.575,30.101,111.575z"/>
		<path fill-rule="evenodd" clip-rule="evenodd" fill="#FFFFFF" stroke="#3F3832" stroke-miterlimit="10" d="M52.011,118.474
			c0-3.742-2.47-6.409-6.191-6.409h-6.176v2.82h6.325c2.397,0,3.387,1.679,3.387,3.549c0,1.87-1.027,3.789-3.425,3.789l-6.325-0.001
			v2.794h6.176C49.502,125.016,52.011,122.213,52.011,118.474z"/>
		<path fill-rule="evenodd" clip-rule="evenodd" fill="#FFFFFF" stroke="#3F3832" stroke-miterlimit="10" d="M103.1,118.474
			c0-3.742-2.472-6.409-6.193-6.409h-6.174v2.82h6.325c2.397,0,3.385,1.679,3.385,3.549c0,1.87-1.026,3.789-3.424,3.789
			l-6.324-0.001v2.794h6.175C100.59,125.016,103.1,122.213,103.1,118.474z"/>
		<path fill-rule="evenodd" clip-rule="evenodd" fill="#FFFFFF" stroke="#3F3832" stroke-miterlimit="10" d="M64.821,120.661
			c1.194-0.651,1.788-1.846,1.788-3.89c0-3.597-1.91-4.706-5.632-4.706h-6.175v2.82h6.326c2.397,0,2.825,0.765,2.825,1.848
			c0,1.083-0.347,2.01-2.745,2.01h-6.324l-0.004,2.593h6.176c0.059,0,0.116,0,0.174-0.002c1.226,0.133,2.182,1.174,2.182,2.44
			c0,0.408,0.071,0.791-0.103,1.127c0.001,0.047,0.17,0.095,0.17,0.144h2.55C66.03,125.045,66.494,122.281,64.821,120.661z"/>
		<path fill-rule="evenodd" clip-rule="evenodd" fill="#FFFFFF" stroke="#3F3832" stroke-miterlimit="10" d="M69.168,118.367
			c0,3.692,2.867,6.686,6.406,6.686c3.538,0,6.407-2.994,6.407-6.686c0-3.688-2.87-6.681-6.407-6.681
			C72.036,111.687,69.168,114.679,69.168,118.367z M71.739,118.367c0-2.208,1.718-4,3.836-4c2.118,0,3.834,1.792,3.834,4
			c0,2.213-1.716,4.002-3.834,4.002C73.457,122.369,71.739,120.58,71.739,118.367z"/>
		
			<rect x="85.109" y="112.064" fill-rule="evenodd" clip-rule="evenodd" fill="#FFFFFF" stroke="#3F3832" stroke-miterlimit="10" width="2.809" height="12.98"/>
	</g>
	<g>
		<g>
			<g>
				<path fill-rule="evenodd" clip-rule="evenodd" fill="#FFFFFF" d="M88.031,69.749c-3.297,0-5.979-2.721-5.979-6.064V41.937
					c0-3.344,2.682-6.064,5.979-6.064c3.297,0,5.98,2.721,5.98,6.064v21.748C94.011,67.028,91.329,69.749,88.031,69.749z
					 M21.94,69.749c-3.297,0-5.979-2.721-5.979-6.064V41.937c0-3.344,2.682-6.064,5.979-6.064s5.979,2.721,5.979,6.064v21.748
					C27.919,67.028,25.237,69.749,21.94,69.749z"/>
				<path fill="#3F3832" d="M88.031,36.373c3.027,0,5.48,2.492,5.48,5.564v21.748c0,3.073-2.453,5.564-5.48,5.564
					c-3.025,0-5.479-2.491-5.479-5.564V41.937C82.552,38.864,85.006,36.373,88.031,36.373 M21.94,36.373
					c3.026,0,5.479,2.492,5.479,5.564v21.748c0,3.073-2.453,5.564-5.479,5.564c-3.026,0-5.479-2.491-5.479-5.564V41.937
					C16.461,38.864,18.914,36.373,21.94,36.373 M88.031,35.373c-3.573,0-6.479,2.945-6.479,6.564v21.748
					c0,3.62,2.906,6.564,6.479,6.564c3.573,0,6.48-2.945,6.48-6.564V41.937C94.511,38.317,91.604,35.373,88.031,35.373
					L88.031,35.373z M21.94,35.373c-3.573,0-6.479,2.945-6.479,6.564v21.748c0,3.62,2.906,6.564,6.479,6.564
					s6.479-2.945,6.479-6.564V41.937C28.419,38.317,25.513,35.373,21.94,35.373L21.94,35.373z"/>
			</g>
			<g>
				<path fill-rule="evenodd" clip-rule="evenodd" fill="#FFFFFF" d="M64.838,98.71c-3.297,0-5.979-2.721-5.979-6.065v-11.6H51.33
					v11.6c0,3.345-2.682,6.065-5.979,6.065c-3.297,0-5.98-2.721-5.98-6.065v-11.6H34.99c-2.631,0-4.772-2.141-4.772-4.772V36.041
					h49.755v40.232c0,2.631-2.142,4.772-4.774,4.772h-4.381v11.6C70.817,95.989,68.135,98.71,64.838,98.71z"/>
				<path fill="#3F3832" d="M79.472,36.541v39.732c0,2.36-1.913,4.272-4.274,4.272h-4.881v12.1c0,3.075-2.453,5.565-5.479,5.565
					c-3.026,0-5.479-2.49-5.479-5.565v-12.1H50.83v12.1c0,3.075-2.454,5.565-5.479,5.565c-3.026,0-5.48-2.49-5.48-5.565v-12.1H34.99
					c-2.36,0-4.272-1.912-4.272-4.272V36.541H79.472 M80.472,35.541h-1H30.717h-1v1v39.732c0,2.907,2.365,5.272,5.272,5.272h3.881
					v11.1c0,3.62,2.907,6.565,6.48,6.565c3.573,0,6.479-2.945,6.479-6.565v-11.1h6.529v11.1c0,3.62,2.906,6.565,6.479,6.565
					s6.479-2.945,6.479-6.565v-11.1h3.881c2.908,0,5.274-2.365,5.274-5.272V36.541V35.541L80.472,35.541z"/>
			</g>
			<g>
				<path fill-rule="evenodd" clip-rule="evenodd" fill="#FFFFFF" d="M30.064,33.5l0.047-0.543
					c0.625-7.236,5.311-13.628,12.575-17.203l-4.173-6.056C38.09,9.083,38.215,8.26,38.79,7.863c0.202-0.139,0.44-0.212,0.689-0.212
					c0.442,0,0.862,0.228,1.124,0.609l4.455,6.465c3.134-1.183,6.472-1.782,9.928-1.782c3.458,0,6.796,0.6,9.93,1.782l4.455-6.466
					c0.262-0.381,0.682-0.608,1.124-0.608c0.249,0,0.487,0.073,0.688,0.212c0.267,0.184,0.447,0.466,0.507,0.794
					c0.065,0.355-0.019,0.734-0.231,1.042l-4.171,6.055c7.263,3.574,11.949,9.966,12.575,17.203l0.047,0.543H30.064z M65.608,21.361
					c-1.212,0-2.199,0.985-2.199,2.197c0,1.212,0.986,2.199,2.199,2.199c1.211,0,2.197-0.986,2.197-2.199
					C67.806,22.347,66.82,21.361,65.608,21.361z M44.702,21.361c-1.212,0-2.199,0.985-2.199,2.197c0,1.212,0.986,2.199,2.199,2.199
					c1.211,0,2.197-0.986,2.197-2.199C46.899,22.347,45.913,21.361,44.702,21.361z"/>
				<path fill="#3F3832" d="M70.493,8.151c0.142,0,0.283,0.04,0.405,0.124c0.35,0.241,0.417,0.751,0.148,1.14l-4.503,6.538
					C73.704,19.283,78.724,25.613,79.364,33H30.609c0.638-7.387,5.661-13.717,12.821-17.048l-4.505-6.538
					c-0.267-0.388-0.201-0.898,0.149-1.14c0.122-0.084,0.263-0.124,0.405-0.124c0.265,0,0.538,0.139,0.711,0.392l4.679,6.791
					c3.083-1.215,6.508-1.891,10.116-1.891c3.609,0,7.035,0.675,10.118,1.891l4.678-6.791C69.955,8.29,70.228,8.151,70.493,8.151
					 M65.608,26.257c1.49,0,2.697-1.208,2.697-2.699c0-1.49-1.208-2.697-2.697-2.697c-1.49,0-2.699,1.207-2.699,2.697
					C62.91,25.049,64.118,26.257,65.608,26.257 M44.702,26.257c1.49,0,2.697-1.208,2.697-2.699c0-1.49-1.208-2.697-2.697-2.697
					c-1.491,0-2.699,1.207-2.699,2.697C42.003,25.049,43.21,26.257,44.702,26.257 M70.493,7.151c-0.606,0-1.18,0.308-1.536,0.825
					l-4.234,6.146c-3.083-1.114-6.355-1.679-9.738-1.679c-3.382,0-6.653,0.564-9.737,1.679l-4.235-6.146
					c-0.354-0.516-0.928-0.824-1.535-0.824c-0.351,0-0.688,0.104-0.973,0.301c-0.801,0.553-0.983,1.688-0.405,2.529l3.849,5.585
					c-7.129,3.698-11.711,10.108-12.336,17.348L29.519,34h1.09h48.755h1.09l-0.094-1.086c-0.627-7.24-5.209-13.65-12.336-17.348
					l3.847-5.584c0.286-0.415,0.4-0.931,0.311-1.415c-0.084-0.459-0.339-0.855-0.716-1.115C71.18,7.255,70.844,7.151,70.493,7.151
					L70.493,7.151z M65.608,25.257c-0.937,0-1.699-0.762-1.699-1.699c0-0.936,0.762-1.697,1.699-1.697
					c0.936,0,1.697,0.761,1.697,1.697C67.306,24.495,66.544,25.257,65.608,25.257L65.608,25.257z M44.702,25.257
					c-0.937,0-1.699-0.762-1.699-1.699c0-0.936,0.762-1.697,1.699-1.697c0.936,0,1.697,0.761,1.697,1.697
					C46.399,24.495,45.638,25.257,44.702,25.257L44.702,25.257z"/>
			</g>
		</g>
	</g>
</g>
<g>
</g>
<g>
</g>
<g>
</g>
<g>
</g>
<g>
</g>
<g>
</g>
<g>
</g>
<g>
</g>
<g>
</g>
<g>
</g>
<g>
</g>
<g>
</g>
<g>
</g>
<g>
</g>
<g>
</g>
</svg>
