<?xml version="1.0" encoding="utf-8"?>
<!-- Generator: Adobe Illustrator 16.0.0, SVG Export Plug-In . SVG Version: 6.00 Build 0)  -->
<!DOCTYPE svg PUBLIC "-//W3C//DTD SVG 1.1//EN" "http://www.w3.org/Graphics/SVG/1.1/DTD/svg11.dtd">
<svg version="1.1" id="Capa_1" xmlns="http://www.w3.org/2000/svg" xmlns:xlink="http://www.w3.org/1999/xlink" x="0px" y="0px"
	 width="196px" height="260px" viewBox="0 0 196 260" style="enable-background:new 0 0 196 260;" xml:space="preserve">
<style type="text/css">
<![CDATA[
	.st0{fill:#FFFFFF;stroke:#1E120D;stroke-miterlimit:10;}
	.st1{fill:none;stroke:#1E120D;stroke-width:0.5;stroke-miterlimit:10;}
	.st2{opacity:0.2;fill:#F9F7E0;stroke:#3F352E;stroke-miterlimit:10;}
	.st3{fill:none;stroke:#3F352E;stroke-miterlimit:10;}
	.st4{fill:none;stroke:#1E120D;stroke-miterlimit:10;}
]]>
</style>
<g>
	<path class="st0" d="M22.59,12.802c4.969-2.355,21.424-1.513,25.627-1.513c8.188,0,15.77,0.699,23.707,0.506
		c17.686-0.433,60.445-0.433,68.102-0.811c19.111,0.225,33.473-2.748,37.049,6.778c2.299,6.117,1.078,34.815,1.078,42.839
		c0,17.584-0.48,145.825-0.43,165.002c0.016,6.131,0.656,14.613-6.135,16.738c-6.693,2.094-37.082,1.393-45.244,1.393
		c-9.141,0-95.68,0.854-101.664-0.72c-6.057-1.593-7.637-7.442-7.867-12.526c-0.689-15.156,0.596-108.012,0.596-135.262
		c0-20.398-0.359-40.439-0.359-60.95c0-4.183,0.004-8.365,0-12.547C17.043,17.084,21.494,13.754,22.59,12.802"/>
	<path class="st4" d="M24.461,15.658c4.844-2.296,20.887-1.473,24.988-1.473c7.98,0,15.371,0.68,23.113,0.49
		c17.246-0.421,58.939-0.421,66.402-0.79c18.635,0.218,32.637-2.679,36.127,6.608c2.24,5.965,1.051,33.95,1.051,41.771
		c0,17.143-0.471,142.189-0.422,160.886c0.018,5.979,0.643,14.251-5.979,16.321c-6.527,2.043-36.16,1.359-44.115,1.359
		c-8.914,0-93.295,0.83-99.131-0.703c-5.904-1.553-7.443-7.256-7.668-12.212c-0.672-14.78,0.58-105.319,0.58-131.89
		c0-19.891-0.354-39.431-0.354-59.431c0-4.079,0.006-8.156,0-12.234C19.051,19.834,23.391,16.586,24.461,15.658"/>
	<path class="st3" d="M35.582,29.724c2.561-1.224,119.152,2.098,125.336,1.798c0.025-0.314,0.057,92.594,0.062,139.459
		c0.004,16.5,0.031,34.24,0.422,50.678c-8.422,0.704-14.021,1.037-22.311,0.704c-4.59-0.187-23.002,0.233-27.775,0.441
		c-8.373,0.364-62.176-0.282-66.572-0.441c-3.404-0.126-7.859-0.569-11.516-0.058c-0.74-3.808,1.701-165.251,2.199-173.877
		c0.379-6.599,0.02-13.76,0.025-18.95"/>
	<path class="st2" d="M94.967,227.564c-0.752,0-4.457,0.247-4.316,4.738c0.047,1.506,0.697,2.807,1.896,3.556
		c1.303,0.815,3.451,0.11,4.658-0.476C98.646,234.681,100.408,227.793,94.967,227.564"/>
	<path class="st1" d="M93.336,230.582c0.203,0,2.32,0.065,2.57,0.041c0.129-0.013,0.271-0.041,0.414,0.047
		c0.029,0.682-0.037,1.27-0.037,1.947c0,0.328,0.01,0.674-0.041,1.18c-0.723,0.072-2.365,0.039-2.672-0.006
		c-0.029-0.006-0.141-0.002-0.166-0.026c-0.027-0.026-0.014-0.071-0.027-0.11c-0.086-0.223-0.08-0.547-0.096-0.779
		c-0.025-0.362-0.006-2.023,0-2.046c0.014,0.009,0.039-0.24,0.055-0.228"/>
</g>
<g>
</g>
<g>
</g>
<g>
</g>
<g>
</g>
<g>
</g>
<g>
</g>
</svg>
