<?xml version="1.0" encoding="utf-8"?>
<!-- Generator: Adobe Illustrator 16.0.0, SVG Export Plug-In . SVG Version: 6.00 Build 0)  -->
<!DOCTYPE svg PUBLIC "-//W3C//DTD SVG 1.1//EN" "http://www.w3.org/Graphics/SVG/1.1/DTD/svg11.dtd">
<svg version="1.1" xmlns="http://www.w3.org/2000/svg" xmlns:xlink="http://www.w3.org/1999/xlink" x="0px" y="0px" width="800px"
	 height="634.113px" viewBox="0 0 800 634.113" enable-background="new 0 0 800 634.113" xml:space="preserve">
<g id="Capa_11">
	<g>
		<path fill="#F2F2F2" d="M595.227,131.889c6.953,25.714,3.824,55.32-17.043,75.771c-8.716,8.542-21.112,18.906-33.275,21.958
			c-10.183,2.554-38.006,4.511-39.339-10.756c7.729,0.143,14.073,4.22,22.566,2.859c6.803-1.091,13.698-5.075,19.682-8.186
			c14.312-7.441,22.237-17.994,30.393-31.375c8.39-13.766,13.097-29.505,6.164-45.389c-2.595-5.945-28.585-31.124-11.573-27.841
			c4.742,0.914,10.723,8.303,15.52,10.132"/>
		<path fill="#E5E5E5" d="M287.088,100.748c5.371-8.019,13.227-11.255,20.735-17.018c9.293-7.133,29.662-14.511,34.493-15.674
			c4.709-1.134,17.054-2.981,20.459-3.763c8.492-1.951,18.363-0.582,26.984-1.468l0.531,0.212c2.467-0.512,4.912-0.892,7.225-1.089
			c8.526-0.728,16.904,0.828,25.05,1.973c8.712,1.225,17.351,2.251,25.763,4.715c9.879,2.896,19.047,7.331,28.009,11.948
			l3.452,1.974c-0.074,0.492,0.055,0.912-0.074,1.405c-4.365,0.823-9.939-1.994-14.242-2.898c-4.297-0.902-8.488-1.416-12.814-2.07
			c-8.971-1.358-18.428-3.334-27.244-4.22c-15.039-1.511-31.863-0.243-46.913,2.222c-2.554,1.156-5.116,2.309-7.983,3.01
			c-6.122,1.497-12.687,0.582-18.661,2.616c-6.204,2.113-10.587,4.013-16.837,5.197c-13.318,2.524-20.756,9.796-31.133,17.739
			c-6.475,4.957-17.588,18.785-26.031,19.258c-1.58,0.088-3.293,0.376-4.9,0.055C271.646,116.513,282.881,107.028,287.088,100.748z"
			/>
		<path fill="#EDEDED" d="M331.16,313.677c-4-4.797-0.447-12.679-1.93-18.5c-1.5-5.889-5.985-13.375-10.197-17.799
			c-8.332-8.75-14.633-12.173-18.941-23.436c-4.561-11.923-9.978-19.338-23.471-14.224c-7.146,2.709-6.827,4.782-2.834,11.761
			c3.049,5.324,6.862,10.377,10.371,15.41c7.154,10.261,13.302,21.5,21.047,31.395c5.156,6.587,15.959,24.021,24.053,24.878
			c0.699-1.152,0.902-2.283,1.902-3.568V313.677z"/>
		<path fill="#D8D8D8" d="M326.122,318.856c-5.802-3.695-6.679-16.127-10.322-22.183c-3.908-6.496-9.253-12.539-14.282-18.312
			c-8.486-9.744-15.846-32.049-28.729-35.646c-4.332,8.558,14.454,29.282,19.479,35.979c9.301,12.392,19.269,24.861,26.455,38.681
			L326.122,318.856z"/>
		<path fill="#B3B3B3" d="M378.166,123.996c-2.76-2.68-3.343-7.652-5.906-10.852c-2.434-3.034-5.647-4.697-8.918-6.401
			c-8.031-4.181-16.596-5.428-25.611-3.972c-12.032,1.945-28.904,10.72-35.09,22.014c8.971-7.366,21.654-14.496,33.102-16.192
			c15.094-2.237,25.877,4.089,38.479,11.456L378.166,123.996z"/>
		<path fill="#B3B3B3" d="M380.88,124.612c0-12.186,8.265-23.25,19.239-28.767c6.224-3.128,12.748-5.482,19.63-6.4
			c6.021-0.804,15.124-2.376,20.781-0.434c0.821,0.282,1.624,0.233,2.478,0.555c-4.608,2.581-12.474,1.944-17.748,3.957
			c-4.758,1.816-9.709,3.018-14.4,5.201c-4.393,2.044-10.209,3.746-14.078,6.731c-3.643,2.811-6.892,6.995-9.981,10.359
			c-1.64,1.786-2.667,3.337-3.7,5.468L380.88,124.612z"/>
		<path fill="#E5E5E5" d="M387.046,135.342c-0.595,0.694-52.167-5.619-70.585,27.881c-17.184,31.252-8.635,72.606-6.102,76.356
			c-3.696-4.176-7.487-6.709-9.83-11.988c-2.445-5.512-4.346-11.743-5.988-17.518c-1.969-6.932-1.646-14.181-1.718-21.41
			c-0.068-6.929-0.418-13.23,1.231-19.961c1.436-5.852,2.314-11.766,5.002-17.095c2.491-4.943,4.697-10.825,8.855-14.519
			c4.551-4.044,11.732-6.496,17.215-9.091c6.913-3.272,15.479-6.156,23.152-6.221c8.973-0.077,17.367-0.144,25.954,2.651
			c3.167,1.031,10.643,6.985,11.695,8.909L387.046,135.342z"/>
		<path fill="#E5E5E5" d="M490.816,130.499c-5.528-6.458-15.184-10.707-22.983-15.115c-7.089-4.005-13.618-8.257-21.909-9.104
			c-15.168-1.552-28.98,1.55-41.5,10.036c-7.813,5.294-10.536,11.673-15.373,18.917c11.436-14.37,33.123-18.133,50.716-18.087
			c15.612,0.041,41.048,6.393,51.118,16.867L490.816,130.499z"/>
		<path fill="#EDEDED" d="M259.16,117.583c-39-4.496-56.59,40.95-62.121,70.077c-4.383-6.925-0.114-20.208,1.903-27.158
			c2.441-8.404,5.628-16.241,10.567-23.679c5.436-8.186,12.275-16.612,21.746-20c6.564-2.349,21.904-4.834,27.904,0.021V117.583z"/>
		<path fill="#EDEDED" d="M278.517,228.58c-21.808,15.268-64.932-9.938-72.069-31.274c3.648,31.069,39.807,52.644,68.123,41.14
			L278.517,228.58z"/>
		<path fill="#F2F2F2" d="M328.834,339.575c-15.648,10.318-24.5,33.396-35.734,48.346c-5.879,7.822-11.477,15.922-17.788,23.432
			c-7.381,8.781-9.022,18.312-15.341,27.553c6.389-36.828,32.534-84.314,65.903-105.25"/>
		<path fill="#EDEDED" d="M389.575,277.333c5.059-2.422,10.407-2.984,15.666-1.333c4.762,1.494,10.457,4.717,15.307,5.408
			c-4.551,1.476-11.288-0.577-16.308-0.074c-2.41,0.241-6.179,1.063-8.59,0.258c-1.849-0.617-3.754-2.309-6.075-2.925"/>
		<path fill="#D8D8D8" d="M371.574,299.667c1.067-4.732,12.938-8.631,17-9.648c4.707-1.179,17.982-2.958,19.274,3.925
			c-3.071,1.235-6.401-0.612-9.625,0.299c-1.417,0.401-2.508,1.455-3.983,1.757c-1.676,0.342-3.664,0.018-5.332,0.26
			c-3.175,0.461-6.158,1.483-9.334,2.147c-2.984,0.624-5.861,3.001-8.666,3.26"/>
		<path fill="#EDEDED" d="M404.241,307c-6.538,1.119-13.586,0.413-20,1.99c-2.652,0.652-14.87,8.057-7.642,10.651
			c2.093-5.546,6.032-5.021,10.724-6.893c4.265-1.701,8.085-3.714,12.585-4.082"/>
		<path fill="#D8D8D8" d="M376.241,315.667c-2.469,1.561-2.701,7.808-2.666,10.667c0.055,4.404,2.681,6.707,5.6,9.908
			c0.057-3.478-2.255-6.335-2.267-9.908c-0.009-2.539,2.699-7.738,0-9.667"/>
		<path fill="#EDEDED" d="M391.574,327c8.896-7.31,23.423,1.393,28.417,9.999c2.279,3.928,4.438,8.266,4.917,12.668
			c0.153,1.409,1.995,7.624,1.606,8.25c-1.388,2.229-5.066-1.545-6.34-2.573c-5.889-4.757-5.416-11.197-8.602-17.344
			c-1.665-3.212-3.853-6.379-6.991-8.332c-3.625-2.256-7.602-0.479-11.341-1.668"/>
		<path fill="#B3B3B3" d="M378.741,284c2.34-1.497,4.722-3.529,6.296-5.87c0.688-1.023,1.02-2.366,2.541-1.967
			c0.944,0.248,1.962,1.636,2.872,2.129c1.257,0.681,6.874,2.021,3.458,3.079c-1.365,0.422-2.771,0.084-4.167,0.587
			c-1.305,0.47-2.502,1.114-3.833,1.501c-1.631,0.475-5.669,2.211-7.167,1.208"/>
		<path fill="#B3B3B3" d="M356.907,288.5c0.216,8.458,17.333,5.551,17.424-1.424c-4.876,1.294-10.869,2.955-15.924,1.924"/>
		<path fill="#B3B3B3" d="M398.407,346c5.291-1.979,5.393-8.365,2.336-13.054c4.864,1.526,10.074,4.421,11.637,4.483
			c-2.671-8.871-19.875-10.769-18.982-6.031c0.207,1.098,4.419,3.58,5.148,5.463c1.035,2.67,1.569,5.813-0.639,8.139"/>
		<path fill="#B3B3B3" d="M379.951,343.129c-0.265,0.37,2.794,1.788,3.332,1.92c1.113,0.273,2.097-0.251,2.865-1.021
			c0.661-0.662,1.174-1.822,0.819-2.739c-0.128-0.329-0.386-1.025-0.739-1.156c-0.44-0.164-0.711,0.35-0.933,0.662
			c-0.594,0.839-1.357,1.579-2.381,1.876c-0.876,0.254-1.823,0.279-2.739,0.279"/>
		<path fill="#D8D8D8" d="M406.241,333.667c0,11.227,2.705,18.944,9.5,27.817c5.657,7.386,13.461,11.616,17.983,20.019
			c2.628,4.883,2.254,9.551,4.016,14.813c1.685,5.03,4.74,9.275,7.684,13.905c5.952,9.364,8.94,18.331,13.336,28.128
			c2.865,6.385,6.511,12.452,9.647,18.633c3.248,6.4,8.833,11.484,13.332,17.369c8.68,11.354,15.162,24.46,20.618,37.866
			c9.577,1.067,3.436-12.417,1.195-15.72c-3.977-5.861-5.741-11.323-9.408-17.063c-3.708-5.805-5.875-12.904-9.052-19.138
			c-1.302-2.556-10.05-19.433-8.819-9.53c-7.507-8.164-10.524-19.914-15.368-28.433c-2.648-4.66-5.041-10.819-8.164-15.201
			c-3.235-4.538-7.599-5.167-6.441-11.584c2.712-0.797,4.49-10.408-1.595-18.34c-2.519-3.283-6.683-5.098-9.728-7.495
			c-3.49-2.748-5.771-5.897-6.857-6.697c-7.079-5.212-8.452-8.452-11.212-14.752c-1.659-3.788-4.733-15.755-9.334-14.598"/>
		<path fill="#EDEDED" d="M327.575,422.334c0.974,9.812,9.655,17.206,12.519,26.667c3.052,10.083,1.251,20.65,2.781,31.368
			c1.521,10.656,5.569,20.039,6.7,31.299c0.536,5.336-2.311,30.682,1.968,33.529c5.784,3.849,20.301-13.899,22.533-18.345
			c5.283-10.52,5.265-21.454,1-32c-4.42-10.93-7.431-21.127-9.503-32.516c-1.024-5.624-3.446-8.421-7.15-12.817
			c-4.468-5.303-5.557-8.73-7.496-15.186c-1.605-5.344-5.006-8.888-10.018-11.333c-2.839-1.385-11.467-4.184-12-4"/>
		<path fill="#EDEDED" d="M480.407,275.5c-5.917,3.698-10.609,9.22-12.486,15.488c-2.439,8.151-0.532,15.548-0.914,23.849
			c5.924-9.843,0.224-24.379,8.4-33.337"/>
		<path fill="#EDEDED" d="M452.907,289c3.877-8.466,8.626-12.646,17.812-15.036c-3.547,2.501-6.774,6-9.799,9.159
			c-2.993,3.128-3.569,8.346-6.401,10.825c-0.453-1.506-1.505-2.349-2.111-3.448"/>
		<path fill="#D8D8D8" d="M560.907,467c-1.854-2.737,6.726-8.866,9.408-9.592c3.438-0.93,12.824-0.142,13.207,4.208
			c-4.135,0.076-8.398-2.319-12.956-1.291c-3.503,0.79-7.181,4.578-9.659,7.008"/>
		<path fill="#D8D8D8" d="M565.573,476.333c0.078-3.205,5.483-6.469,8.26-7.074c4.071-0.887,8.298,0.493,11.622,3.073
			c-3.616,1.105-7.923-1.147-11.891,0.251c-3.237,1.141-5.305,4.239-7.909,6.366c-0.285-0.405-0.812-0.634-1.082-0.949"/>
		<path fill="#D8D8D8" d="M552.741,445.001c-0.136,1.761,1.078,5.54,0.041,7.041c-1.298,1.878-2.309-0.138-2.703-1.375
			c-1.035-3.24-2.037-6.812,2.662-6"/>
		<path fill="#D8D8D8" d="M570.741,488.834c-2.03-5.453,7.213-5.397,10.167-5c1.568,0.211,2.608,1.08,0.666,1.666
			c-1.153,0.349-2.646-0.179-3.842-0.008c-2.268,0.324-3.88,2.532-5.991,2.842"/>
		<path fill="#EDEDED" d="M317.907,350c-11.861,1.521-25.077,49.684-30.773,62c-8.566,18.519-12.059,38.827-13.278,58.98
			c-1.05,17.355-2.646,35.717-1.944,53.016c0.262,6.477,4.333,19.417-6.008,20c-7.829,0.441-9.023-10.823-10.219-16.78
			c-3.266-16.278-0.738-31.131,2.445-47.164c3.49-17.581,5.203-36.344,7.777-54.052c3.397-23.372,19.582-65.361,43-77"/>
		<path fill="#D8D8D8" d="M301.907,357c-8.455,7.426-10.801,22.745-14.751,33.223c-4.155,11.021-8.998,20.712-11.197,31.829
			c-2.75,13.899-5.808,60.015-21.126,64.816c-3.225-9.155-0.493-22.812,2.074-31.868c3.111-10.977,5.989-21.545,8.948-32.052
			c4.641-16.478,13.495-38.873,24.052-52.948"/>
		<path fill="#F2F2F2" d="M494.24,313c2.825,7.782,21.761,16.819,29.368,21.334c9.047,5.369,16.885,13.784,23.463,21.814
			c3.234,3.949,11.43,29.529,15.688,15.519c2.699-8.88-9.402-21.187-14.667-27.333c-5.487-6.408-48.571-41.092-54.518-32.667"/>
		<path fill="#F2F2F2" d="M482.24,341.667c0.423-0.278-0.519-1.715,0.484-0.762c2.343,5.363,0.185,12.406,1.37,18.079
			c1.05,5.027,3.9,9.492,5.445,14.05c3.263,9.63,11.383,18.194,17.901,26.665c3.534,4.593,4.965,8.237,6.966,13.968
			c2.433,6.962,5.898,9.672,10.332,15.299c7.33,9.301,15.393,19.545,20.354,30.034c2.829,5.983,4.821,13.241,8.481,18.519
			c3.71,5.35,12.827,6.875,14.518,12.762c1.358-9.664-7.931-22.38-12.326-30.161c-4.896-8.667-12.003-15.492-16.916-24.165
			c-5.325-9.4-9.391-16.421-15.405-25.677c-2.955-4.549-5.441-12.1-9.056-16.093c-3.104-3.429-6.579-7.925-8.768-12.302
			c-4.229-8.458-6.981-11.377-9.862-19.401c-2.771-7.722-9.238-14.352-10.852-22.148"/>
		<path fill="none" d="M230.209,112.315c-10.244,7.051-16.035,33.778-20.654,45.245c-3.4,8.445-12.065,23.317-10.484,32.604"/>
		<g>
			<path fill="#4D4D4D" d="M280.739,126.218c-4.93-3.124-9.817-6.336-14.965-8.974c-5.137-2.627-10.563-4.693-16.174-5.42
				c-5.587-0.788-11.292-0.229-16.607,1.503c-5.314,1.723-10.242,4.54-14.512,8.158c-8.53,7.275-14.725,17.188-18.228,27.864
				c-3.562,10.684-4.585,22.206-2.983,33.352c1.51,11.15,5.637,21.967,12.174,31.103c3.235,4.586,7.095,8.731,11.452,12.276
				c2.175,1.778,4.484,3.389,6.887,4.854c2.322,1.451,4.841,2.576,7.483,3.475c5.288,1.795,10.956,2.624,16.636,2.872
				c5.691,0.239,11.437-0.19,17.064-1.261c5.631-1.043,11.162-2.774,16.294-5.363c2.562-1.298,5.013-2.834,7.243-4.663
				c2.24-1.813,4.26-3.936,5.857-6.382c-1.367,2.582-3.211,4.921-5.326,6.979c-2.131,2.048-4.531,3.811-7.062,5.348
				c-5.084,3.061-10.702,5.16-16.451,6.618c-5.769,1.415-11.707,2.142-17.678,2.19c-5.969,0.033-11.989-0.674-17.831-2.406
				c-2.909-0.875-5.798-2.039-8.481-3.585c-2.621-1.498-5.134-3.19-7.518-5.049c-4.771-3.715-9.029-8.096-12.623-12.964
				c-7.178-9.766-11.647-21.375-13.353-33.312c-1.612-11.956-0.495-24.293,3.492-35.694c2.007-5.675,4.712-11.15,8.1-16.143
				c3.372-5.008,7.479-9.555,12.262-13.298c4.77-3.738,10.237-6.693,16.122-8.274c5.86-1.596,12.085-1.905,18.008-0.744
				c5.927,1.166,11.443,3.635,16.463,6.695c2.517,1.532,4.936,3.194,7.295,4.922C276.131,122.636,278.428,124.436,280.739,126.218z"
				/>
		</g>
		<g>
			<path fill="#4D4D4D" d="M254.701,115.903c-7.79,0.739-15.189,3.376-21.523,7.602c-3.157,2.123-6.109,4.545-8.763,7.276
				c-2.674,2.707-5.114,5.653-7.284,8.794c-2.214,3.111-4.166,6.414-5.911,9.825c-1.78,3.396-3.272,6.941-4.629,10.54
				c-2.634,7.227-4.514,14.771-5.167,22.561c-0.584-7.82,0.687-15.754,2.978-23.297c2.304-7.561,5.764-14.795,10.308-21.328
				c2.309-3.238,4.868-6.314,7.743-9.084c2.894-2.744,6.046-5.248,9.512-7.241C238.834,117.482,246.884,115.401,254.701,115.903z"/>
		</g>
		<g>
			<path fill="#4D4D4D" d="M288.74,229.859c-5.666,3.013-11.991,4.781-18.391,5.626c-6.41,0.854-12.967,0.774-19.381-0.339
				c-6.383-1.162-12.713-3.395-18.02-7.29c-2.648-1.929-4.995-4.281-6.855-6.959c-1.817-2.702-3.212-5.677-3.951-8.798
				c2.338,5.983,6.583,10.942,11.795,14.334c2.614,1.691,5.421,3.083,8.362,4.13c2.931,1.074,5.97,1.864,9.058,2.397
				c6.173,1.115,12.519,1.293,18.809,0.808c3.146-0.262,6.285-0.687,9.389-1.332C282.674,231.841,285.729,230.945,288.74,229.859z"
				/>
		</g>
		<g>
			<path fill="#4D4D4D" d="M222.143,231.339c-3.224-1.799-5.955-4.512-8.01-7.628c-2.089-3.11-3.565-6.573-4.752-10.081
				c-1.161-3.524-2.034-7.115-2.79-10.713c-0.779-3.594-1.413-7.202-2.208-10.797c1.348,3.432,2.365,6.986,3.33,10.524
				c0.982,3.536,1.908,7.073,3.07,10.518c1.137,3.45,2.508,6.816,4.324,9.937C216.934,226.206,219.241,229.06,222.143,231.339z"/>
		</g>
		<g>
			<path fill="#4D4D4D" d="M250.262,117.383c-4.286,0.751-8.344,2.309-12.061,4.411c-3.712,2.122-7.096,4.786-10.087,7.834
				c-3.011,3.033-5.632,6.451-7.882,10.103c-2.228,3.666-4.104,7.569-5.489,11.69c0.829-4.271,2.38-8.423,4.489-12.269
				c2.097-3.856,4.744-7.42,7.829-10.564c3.103-3.121,6.653-5.833,10.597-7.81C241.581,118.783,245.912,117.561,250.262,117.383z"/>
		</g>
		<g>
			<path fill="#4D4D4D" d="M277.641,232.819c-3.299,0.217-6.536,0.738-9.812,1.122c-3.271,0.409-6.578,0.73-9.926,0.7
				c-3.332-0.062-6.76-0.479-9.895-1.842c-1.562-0.669-3.02-1.591-4.277-2.717c-1.234-1.151-2.305-2.461-3.088-3.922
				c2.069,2.59,4.782,4.504,7.791,5.565c3.017,1.063,6.253,1.401,9.489,1.437c3.245,0.059,6.514-0.193,9.804-0.367
				C271.01,232.605,274.346,232.463,277.641,232.819z"/>
		</g>
		<g>
			<path fill="#4D4D4D" d="M513.693,115.903c-0.936-1.135-1.7-2.397-2.518-3.613c-0.808-1.225-1.624-2.441-2.469-3.635
				c-1.673-2.398-3.449-4.716-5.348-6.926c-3.791-4.422-8.008-8.454-12.588-12.011c-9.126-7.172-19.538-12.536-30.381-16.579
				c-10.877-3.994-22.193-6.779-33.669-8.575c-5.739-0.895-11.507-1.636-17.303-2.137c-5.807-0.505-11.601-0.872-17.385-0.886
				c-11.578-0.118-23.179,0.907-34.479,3.32c-5.683,1.201-11.366,2.594-17.016,4.064c-2.825,0.737-5.642,1.507-8.441,2.305
				c-2.804,0.803-5.594,1.59-8.22,2.618c-5.32,2.049-10.338,4.934-15.173,8.122c-1.211,0.797-2.407,1.62-3.597,2.457
				c-1.166,0.822-2.3,1.703-3.422,2.615c-2.241,1.827-4.406,3.775-6.534,5.765c-4.271,3.971-8.347,8.17-12.3,12.481
				c-1.977,2.157-3.907,4.356-5.777,6.609c-1.877,2.246-3.704,4.539-5.355,6.965c2.951-5.083,6.518-9.792,10.199-14.376
				c3.699-4.578,7.609-8.985,11.707-13.235c2.061-2.115,4.185-4.174,6.409-6.15c1.114-0.984,2.259-1.952,3.454-2.871
				c1.174-0.9,2.359-1.788,3.563-2.654c4.812-3.466,9.96-6.584,15.525-8.938c2.807-1.192,5.649-2.081,8.456-2.976
				c2.82-0.876,5.651-1.692,8.487-2.491c5.676-1.585,11.362-3.088,17.135-4.416c11.624-2.614,23.538-3.699,35.411-3.651
				c5.949,0.051,11.87,0.461,17.745,1.008c5.886,0.561,11.764,1.294,17.598,2.317c11.653,2.068,23.218,5.007,34.228,9.492
				c11.011,4.422,21.494,10.376,30.511,18.122c4.482,3.89,8.604,8.197,12.163,12.918c1.78,2.359,3.432,4.81,4.954,7.329
				c0.756,1.263,1.481,2.542,2.193,3.826C512.185,113.393,512.849,114.703,513.693,115.903z"/>
		</g>
		<g>
			<path fill="#4D4D4D" d="M490.014,84.084c-3.52-2.624-7.162-5.066-10.958-7.243c-3.771-2.216-7.662-4.22-11.644-6.02
				c-7.956-3.611-16.207-6.568-24.652-8.811c-8.416-2.355-17.023-3.999-25.693-5.142c-4.336-0.581-8.695-0.998-13.065-1.256
				c-4.37-0.307-8.754-0.395-13.144-0.388c4.378-0.343,8.777-0.399,13.174-0.337c4.396,0.112,8.789,0.403,13.168,0.85
				c8.758,0.917,17.434,2.584,25.95,4.847c8.48,2.381,16.821,5.347,24.745,9.212c3.957,1.94,7.82,4.07,11.537,6.429
				C483.122,78.624,486.701,81.199,490.014,84.084z"/>
		</g>
		<g>
			<path fill="none" d="M456.82,69.979"/>
		</g>
		<g>
			<path fill="#808080" d="M513.693,115.903c-1.146-1.102-2.073-2.396-3.044-3.621c-0.964-1.235-1.892-2.48-2.874-3.68
				c-1.904-2.439-3.92-4.762-5.986-7.014c-4.143-4.499-8.643-8.608-13.44-12.358c-4.798-3.75-9.885-7.148-15.175-10.289
				c-5.281-3.166-10.783-6.011-16.354-8.961c6.193,1.197,12.205,3.241,17.975,5.87c5.758,2.65,11.261,5.944,16.289,9.885
				c5.028,3.934,9.578,8.518,13.386,13.636c1.908,2.555,3.593,5.267,5.116,8.039c0.735,1.404,1.455,2.807,2.109,4.238
				C512.369,113.07,512.95,114.519,513.693,115.903z"/>
		</g>
		<g>
			<path fill="#808080" d="M513.446,116.643c0.933-0.973,1.678-2.058,2.493-3.115c0.799-1.067,1.634-2.118,2.519-3.14
				c1.768-2.042,3.8-3.903,6.06-5.48c2.256-1.582,4.748-2.874,7.393-3.748c1.321-0.435,2.678-0.771,4.051-1
				c1.328-0.217,2.686-0.401,4.033-0.542c5.395-0.566,10.934-0.416,16.293,0.718c5.366,1.117,10.494,3.104,15.32,5.583
				c9.753,4.947,17.912,12.978,23.145,22.574c2.634,4.792,4.56,9.951,5.8,15.262c1.222,5.358,1.581,10.854,1.272,16.29
				c-0.656,10.88-3.832,21.484-8.839,31.09c-4.989,9.668-12.392,18.012-21.06,24.457c-8.664,6.444-18.61,11.344-29.294,13.37
				c-5.325,0.98-10.853,1.227-16.223,0.24c-5.353-0.979-10.503-3.342-14.442-6.987c4.592,2.748,9.58,4.52,14.73,5.264
				c5.146,0.769,10.427,0.509,15.541-0.542c10.252-2.122,19.832-7.037,28.108-13.419c8.245-6.443,15.394-14.369,20.12-23.697
				c4.795-9.276,7.814-19.543,8.402-29.941c0.295-5.189-0.057-10.424-1.206-15.452c-1.182-5.054-3.017-9.963-5.515-14.504
				c-2.5-4.537-5.638-8.724-9.351-12.332c-3.708-3.611-7.946-6.671-12.537-9.086c-4.615-2.423-9.491-4.36-14.55-5.46
				c-5.059-1.1-10.283-1.396-15.482-0.938c-1.302,0.111-2.587,0.26-3.89,0.448c-1.257,0.185-2.497,0.467-3.712,0.842
				c-2.426,0.753-4.734,1.892-6.864,3.326c-2.136,1.434-4.085,3.146-6.038,4.908c-0.98,0.878-1.947,1.787-2.967,2.664
				C515.74,115.158,514.691,116.073,513.446,116.643z"/>
		</g>
		<g>
			<path fill="#808080" d="M565.231,113.661c5.918,3.047,11.088,7.407,15.202,12.503c4.116,5.104,7.231,10.988,8.988,17.256
				c1.76,6.253,2.107,12.933,0.658,19.226c-1.416,6.301-4.668,12.07-9.05,16.648c4.11-4.83,6.949-10.697,7.96-16.865
				c1.045-6.165,0.325-12.516-1.688-18.351c-2.014-5.847-5.284-11.218-9.4-15.75c-4.123-4.534-9.094-8.233-14.618-10.677
				L565.231,113.661z"/>
		</g>
		<g>
			<path fill="#808080" d="M514.433,219.5c0.598,4.305,0.486,8.714-0.157,13.043c-0.294,2.173-0.795,4.31-1.342,6.434
				c-0.577,2.116-1.291,4.191-2.065,6.24c-0.823,2.03-1.717,4.029-2.708,5.977c-1.027,1.929-2.073,3.845-3.271,5.666
				c-2.344,3.669-5.001,7.121-8.008,10.257c2.005-3.854,4.081-7.6,6.002-11.402c0.936-1.915,1.905-3.801,2.755-5.743
				c0.886-1.923,1.728-3.862,2.478-5.835c0.798-1.954,1.493-3.947,2.14-5.955c0.678-2,1.217-4.041,1.764-6.086
				C513.06,227.987,513.805,223.797,514.433,219.5z"/>
		</g>
		<g>
			<path fill="#4D4D4D" d="M387.359,132.089l-0.405,0.314c-0.149,0.118-0.183,0.124-0.28,0.191
				c-0.184,0.126-0.277,0.163-0.342,0.173c-0.093-0.017-0.12-0.097-0.183-0.143l-0.327-0.323c-0.22-0.22-0.427-0.392-0.64-0.591
				c-0.421-0.383-0.88-0.769-1.336-1.131c-0.915-0.735-1.88-1.41-2.876-2.037c-1.99-1.256-4.115-2.307-6.303-3.209
				c-4.393-1.773-9.056-2.911-13.783-3.56c-9.463-1.229-19.232-0.645-28.43,1.853c-4.582,1.282-9.026,3.062-13.023,5.496
				c-2,1.233-3.844,2.585-5.551,4.21c-1.709,1.603-3.244,3.376-4.673,5.223c-2.874,3.683-5.252,7.76-7.128,12.094
				c-1.878,4.335-3.187,8.934-4.117,13.613c-1.853,9.382-2.017,19.096-1.365,28.702c0.385,4.806,0.914,9.603,1.856,14.308
				c0.994,4.644,2.448,9.27,4.156,13.771c3.419,9.027,8.032,17.59,13.356,25.674c5.309,8.108,11.376,15.722,17.921,23.058
				c-7.765-6.042-14.605-13.317-20.403-21.349c-5.779-8.053-10.513-16.857-14.205-26.087c-1.823-4.631-3.407-9.35-4.51-14.277
				c-1.084-4.88-1.85-9.813-2.253-14.77c-0.878-9.907-0.554-19.96,1.295-29.833c0.934-4.933,2.331-9.804,4.257-14.499
				c1.923-4.688,4.465-9.195,7.749-13.136c1.646-1.966,3.483-3.766,5.417-5.436c1.922-1.667,4.045-3.224,6.237-4.521
				c4.414-2.603,9.181-4.423,14.041-5.713c9.729-2.552,19.909-3.172,29.845-1.703c4.963,0.735,9.88,2.015,14.507,4.079
				c2.313,1.023,4.552,2.243,6.641,3.699c1.047,0.723,2.061,1.499,3.02,2.341c0.484,0.42,0.947,0.843,1.413,1.305
				c0.225,0.228,0.476,0.463,0.679,0.686l0.313,0.336c0.043,0.064,0.123,0.094,0.138,0.186c-0.013,0.065-0.052,0.157-0.183,0.338
				c-0.07,0.095-0.077,0.128-0.2,0.273L387.359,132.089z"/>
		</g>
		<g>
			<path fill="#808080" d="M479.385,242.893c6.096-8.064,11.415-16.737,15.244-26.041c3.89-9.272,6.341-19.096,7.413-29.047
				c0.535-4.977,0.75-9.984,0.665-14.986c-0.051-2.488-0.122-5.035-0.378-7.443c-0.255-2.449-0.661-4.881-1.22-7.276
				c-2.22-9.594-6.811-18.562-12.981-26.166c-3.082-3.807-6.477-7.363-10.206-10.545c-3.721-3.191-7.832-5.921-12.172-8.182
				c-8.643-4.491-18.506-6.663-28.308-6.994c-9.796-0.279-19.808,1.144-28.21,5.985c-4.217,2.398-8.107,5.441-11.565,8.944
				c-1.731,1.75-3.423,3.549-5.118,5.38c-1.7,1.83-3.367,3.71-5.189,5.567c0.752-2.494,1.9-4.824,3.24-7.035
				c1.345-2.209,2.919-4.281,4.676-6.192c3.518-3.811,7.507-7.264,12.03-9.967c2.257-1.354,4.634-2.529,7.108-3.481
				c2.49-0.945,5.051-1.603,7.604-2.135c5.132-1.029,10.356-1.431,15.554-1.271c5.197,0.17,10.372,0.848,15.434,2.062
				c5.046,1.204,10.05,2.955,14.695,5.354c4.646,2.38,8.996,5.298,13.038,8.586c4.044,3.289,7.714,7.046,10.874,11.194
				c6.282,8.312,10.808,17.979,12.801,28.188c0.503,2.549,0.843,5.128,1.021,7.716c0.185,2.631,0.162,5.146,0.128,7.713
				c-0.089,5.111-0.485,10.217-1.207,15.275c-1.446,10.113-4.283,20.029-8.556,29.27
				C491.527,226.618,485.812,235.095,479.385,242.893z"/>
		</g>
		<g>
			<path fill="#4D4D4D" d="M331.413,128.482c-4.685,2.244-8.987,5.191-13.079,8.347c-4.062,3.191-7.908,6.697-11.099,10.699
				c-0.79,1.003-1.538,2.036-2.208,3.109c-0.685,1.066-1.227,2.182-1.828,3.364l-3.635,6.889c-1.18,2.284-2.245,4.588-3.014,6.966
				c-0.773,2.376-1.236,4.826-1.437,7.313l-2.943-0.319c0.359-2.672,1.012-5.328,1.984-7.843c0.967-2.519,2.223-4.879,3.547-7.139
				l4-6.685c0.64-1.095,1.286-2.293,2.054-3.382c0.754-1.098,1.577-2.136,2.438-3.135c3.467-3.979,7.507-7.341,11.736-10.379
				C322.185,133.29,326.631,130.523,331.413,128.482z"/>
		</g>
		<g>
			<path fill="#4D4D4D" d="M380.497,124.783c-2.694-2.677-5.428-5.315-8.348-7.707c-2.923-2.385-6.067-4.482-9.438-6.084
				c-6.716-3.302-14.284-4.367-21.691-3.915c-7.381,0.475-14.577,2.834-21.152,6.286c-6.597,3.441-12.673,7.898-18.066,13.05
				c-5.412,5.126-10.202,10.957-13.899,17.395c-1.851,3.212-3.413,6.592-4.47,10.106c-0.525,1.756-0.917,3.545-1.129,5.345
				c-0.055,0.451-0.098,0.897-0.128,1.354l-0.093,1.416c-0.053,0.927-0.094,1.863-0.118,2.8c-0.18,7.478,0.525,15.029,2.744,22.194
				c1.088,3.582,2.561,7.062,4.521,10.271c0.981,1.601,2.084,3.134,3.334,4.542c1.251,1.391,2.601,2.777,4.316,3.605
				c-1.784-0.693-3.264-1.987-4.642-3.298c-1.359-1.35-2.567-2.848-3.665-4.42c-2.19-3.154-3.908-6.628-5.24-10.237
				c-2.614-7.253-3.661-15.002-3.679-22.683c-0.004-0.961,0.01-1.921,0.035-2.891l0.05-1.427c0.018-0.492,0.051-0.992,0.095-1.484
				c0.184-1.977,0.582-3.915,1.107-5.805c1.062-3.781,2.646-7.366,4.52-10.763c3.796-6.779,8.736-12.82,14.304-18.162
				c5.62-5.288,11.913-9.896,18.83-13.394c6.909-3.445,14.495-5.873,22.32-6.097c3.872-0.106,7.767,0.141,11.57,0.949
				c3.799,0.8,7.49,2.131,10.885,3.981C370.18,113.453,375.619,119,380.497,124.783z"/>
		</g>
		<path fill="#4D4D4D" d="M504.812,161.781c0.531-7.752-0.685-15.487-1.25-23.173c-0.773-7.757-2.897-15.56-7.121-22.304
			c-4.046-6.743-9.287-12.804-15.587-17.638c-3.152-2.41-6.615-4.444-10.296-5.997c-3.647-1.535-7.427-2.728-11.268-3.619
			c-15.405-3.493-31.785-1.994-46.327,3.891c-7.277,2.93-14.101,6.975-20.076,12.009c-3.002,2.551-5.613,5.476-7.938,8.603
			c-1.152,1.571-2.224,3.208-3.111,4.947c-0.859,1.742-1.574,3.604-1.711,5.543c0.287-1.921,1.131-3.686,2.104-5.329
			c0.974-1.652,2.113-3.202,3.336-4.68c2.457-2.938,5.197-5.667,8.229-7.955c6.072-4.665,12.865-8.324,20.002-10.986
			c14.276-5.276,30.055-6.56,44.832-3.161c3.694,0.834,7.322,1.957,10.811,3.4c3.457,1.423,6.708,3.344,9.738,5.571
			c6.074,4.459,11.178,10.249,15.306,16.611c4.185,6.3,6.547,13.711,7.645,21.261C503.184,146.448,504.676,154.038,504.812,161.781z
			"/>
		<path fill="#666666" d="M444.389,90.092c4.794,0.16,9.568,0.766,14.242,1.841c3.694,0.834,7.322,1.957,10.811,3.4
			c3.457,1.423,6.708,3.344,9.738,5.571c6.074,4.459,11.178,10.249,15.306,16.611c4.185,6.3,6.547,13.711,7.645,21.261
			c1.054,7.671,2.546,15.261,2.683,23.005c0.531-7.752-0.685-15.487-1.25-23.173c-0.773-7.757-2.897-15.56-7.121-22.304
			c-4.046-6.743-9.287-12.804-15.587-17.638c-3.152-2.41-6.615-4.444-10.296-5.997c-3.647-1.535-7.427-2.728-11.268-3.619
			L444.389,90.092z"/>
		<g>
			<path fill="#666666" d="M500.619,123.071c-0.012-2.205-0.674-4.464-1.432-6.636c-0.782-2.179-1.75-4.302-2.84-6.359
				c-2.19-4.107-4.858-7.994-8.086-11.358c-1.617-1.675-3.385-3.215-5.34-4.476c-1.98-1.211-4.068-2.336-6.146-3.411
				c-4.174-2.136-8.562-3.929-13.19-4.828c4.65,0.773,9.111,2.454,13.358,4.486c2.128,1.03,4.218,2.081,6.281,3.27
				c2.035,1.24,3.88,2.766,5.571,4.43c3.378,3.345,6.188,7.222,8.531,11.352c1.165,2.07,2.21,4.213,3.076,6.442
				c0.838,2.232,1.606,4.542,1.696,7.06L500.619,123.071z"/>
		</g>
		<g>
			<path fill="#666666" d="M374.144,122.413c-0.297-0.484-0.917-0.994-1.499-1.459c-0.598-0.471-1.229-0.922-1.866-1.383
				c-1.294-0.95-2.49-1.903-3.772-2.795c-2.559-1.773-5.145-3.525-8.044-4.598c-2.89-1.105-5.974-1.712-9.082-1.938
				c-3.108-0.211-6.261-0.097-9.341,0.483c3.057-0.7,6.215-0.941,9.36-0.85c3.145,0.104,6.3,0.594,9.312,1.612
				c1.503,0.507,2.973,1.152,4.358,1.933c1.382,0.765,2.733,1.582,4.058,2.442c1.326,0.847,2.623,1.795,3.89,2.649
				c0.649,0.433,1.312,0.866,1.964,1.339c0.646,0.494,1.314,0.935,1.901,1.755L374.144,122.413z"/>
		</g>
		<g>
			<path fill="#666666" d="M290.713,142.542c-1.062,3.142-2.213,6.241-3.21,9.361c-0.975,3.124-1.798,6.288-2.093,9.498
				c-0.082,0.8-0.131,1.603-0.138,2.405c-0.007,0.82-0.028,1.681-0.078,2.503l-0.36,4.942c-0.109,1.638-0.208,3.271-0.171,4.904
				c0.001,1.636,0.188,3.264,0.624,4.865c-1.446-3.03-1.612-6.517-1.607-9.812c-0.008-1.664,0.088-3.317,0.114-4.958
				c0.019-0.828,0.041-1.618,0.032-2.45c-0.004-0.85,0.034-1.698,0.112-2.542c0.34-3.376,1.263-6.638,2.479-9.739
				C287.62,148.408,289.129,145.452,290.713,142.542z"/>
		</g>
		<g>
			<path fill="#666666" d="M553.158,219.5c-1.283,1.277-2.812,2.31-4.442,3.138c-1.646,0.801-3.406,1.362-5.193,1.756
				c-3.591,0.784-7.255,0.839-10.872,0.831c-3.664-0.089-7.312-0.658-10.779-1.827c-1.729-0.587-3.415-1.305-5.014-2.182
				c-1.578-0.909-3.091-1.943-4.398-3.196c1.466,1.058,3.012,1.98,4.646,2.712c1.616,0.763,3.3,1.375,5.018,1.851
				c3.434,0.949,6.991,1.471,10.541,1.534c3.588,0.036,7.186,0.007,10.699-0.557C546.867,222.996,550.283,221.709,553.158,219.5z"/>
		</g>
		<g>
			<path fill="#4D4D4D" d="M432.379,223.254c-1.114-0.789-2.287-1.339-3.503-1.755c-1.2-0.436-2.442-0.711-3.65-0.856
				c-1.205-0.137-2.4-0.115-3.416,0.17c-0.507,0.143-0.96,0.345-1.338,0.62c-0.404,0.288-0.646,0.545-1.034,1.078
				c-0.342,0.443-0.641,0.93-0.811,1.35c-0.184,0.426-0.174,0.726-0.15,0.78c-0.018,0.078,0.181,0.286,0.602,0.406
				c0.407,0.112,0.928,0.129,1.418,0.043c0.996-0.191,1.865-0.685,1.964-1.658c0.143-1.031-0.528-2.294-1.228-3.435
				c0.59,0.351,1.135,0.782,1.62,1.313c0.481,0.53,0.892,1.193,1.059,2.032c0.158,0.836-0.107,1.834-0.676,2.529
				c-0.56,0.708-1.31,1.169-2.091,1.453c-0.787,0.279-1.629,0.41-2.535,0.289c-0.453-0.064-0.93-0.19-1.4-0.455
				c-0.466-0.265-0.938-0.681-1.23-1.236c-0.305-0.548-0.397-1.167-0.372-1.688c0.022-0.53,0.142-0.992,0.287-1.409
				c0.315-0.823,0.727-1.479,1.185-2.099c0.396-0.542,1.061-1.286,1.78-1.725c0.731-0.462,1.532-0.771,2.326-0.917
				c1.593-0.299,3.119-0.109,4.515,0.29c1.4,0.402,2.683,1.053,3.846,1.845C430.678,221.04,431.749,222.019,432.379,223.254z"/>
		</g>
		<g>
			<path fill="#4D4D4D" d="M403.041,223.831c0.56,0.62,1.149,1.188,1.726,1.754c0.581,0.558,1.171,1.099,1.759,1.562
				c0.295,0.228,0.605,0.422,0.873,0.56c0.255,0.154,0.549,0.129,0.343,0.087c-0.103-0.006-0.235,0.071-0.244,0.069
				c-0.021-0.004,0.009-0.076,0.031-0.183c0.052-0.217,0.075-0.554,0.084-0.89l-0.005,0.098c-0.037-0.365-0.301-0.854-0.758-1.329
				c-0.45-0.476-1.046-0.911-1.681-1.289c-0.64-0.371-1.331-0.689-2.022-0.911c-0.678-0.23-1.41-0.343-1.866-0.295l-0.25,0.026
				l0.071,0.006c-0.282-0.025-0.873,0.195-1.409,0.521c-0.547,0.329-1.119,0.721-1.675,1.15l-1.697,1.329
				c-0.585,0.438-1.169,0.905-1.828,1.266l1.107-1.907c0.393-0.618,0.777-1.256,1.238-1.846c0.455-0.598,0.935-1.196,1.536-1.739
				c0.61-0.527,1.289-1.104,2.45-1.321l-0.178,0.032c1.24-0.342,2.275-0.179,3.255,0.036c0.974,0.241,1.884,0.609,2.743,1.099
				c0.855,0.491,1.666,1.098,2.373,1.91c0.684,0.796,1.341,1.916,1.289,3.306l-0.003,0.085l-0.002,0.014
				c-0.071,0.471-0.16,0.946-0.379,1.497c-0.113,0.274-0.261,0.576-0.536,0.889c-0.264,0.31-0.754,0.635-1.262,0.687
				c-0.508,0.064-0.898-0.067-1.193-0.202c-0.295-0.141-0.521-0.302-0.722-0.466c-0.401-0.325-0.691-0.683-0.966-1.035
				c-0.547-0.702-0.965-1.442-1.334-2.202C403.55,225.438,403.224,224.658,403.041,223.831z"/>
		</g>
		<g>
			<path fill="#4D4D4D" d="M451.382,221.751c-1.909-0.585-3.704-1.519-5.446-2.49c-1.748-0.971-3.433-2.039-5.128-3.077
				c-3.364-2.116-6.717-4.216-10.147-6.109c-3.442-1.86-6.971-3.542-10.644-4.587c-3.657-1.031-7.469-1.47-11.077-0.721
				c-3.766,0.736-7.374,2.016-10.729,3.884c-3.387,1.807-6.492,4.163-9.541,6.643c-3.038,2.495-6.02,5.14-9.166,7.612
				c-3.159,2.449-6.483,4.751-10.104,6.434c6.604-4.502,11.82-10.403,17.725-15.83c2.945-2.718,6.146-5.264,9.7-7.335
				c3.565-2.027,7.501-3.543,11.539-4.29c4.213-0.8,8.53-0.302,12.447,0.971c3.935,1.267,7.575,3.138,10.984,5.275
				c3.429,2.114,6.632,4.51,9.806,6.898c1.578,1.209,3.161,2.399,4.759,3.567C447.971,219.742,449.586,220.891,451.382,221.751z"/>
		</g>
		<g>
			<path fill="#4D4D4D" d="M432.379,223.254c-1.114-0.789-2.287-1.339-3.503-1.755c-1.2-0.436-2.442-0.711-3.65-0.856
				c-1.205-0.137-2.4-0.115-3.416,0.17c-0.507,0.143-0.96,0.345-1.338,0.62c-0.404,0.288-0.646,0.545-1.034,1.078
				c-0.342,0.443-0.641,0.93-0.811,1.35c-0.184,0.426-0.174,0.726-0.15,0.78c-0.018,0.078,0.181,0.286,0.602,0.406
				c0.407,0.112,0.928,0.129,1.418,0.043c0.996-0.191,1.865-0.685,1.964-1.658c0.143-1.031-0.528-2.294-1.228-3.435
				c0.59,0.351,1.135,0.782,1.62,1.313c0.481,0.53,0.892,1.193,1.059,2.032c0.158,0.836-0.107,1.834-0.676,2.529
				c-0.56,0.708-1.31,1.169-2.091,1.453c-0.787,0.279-1.629,0.41-2.535,0.289c-0.453-0.064-0.93-0.19-1.4-0.455
				c-0.466-0.265-0.938-0.681-1.23-1.236c-0.305-0.548-0.397-1.167-0.372-1.688c0.022-0.53,0.142-0.992,0.287-1.409
				c0.315-0.823,0.727-1.479,1.185-2.099c0.396-0.542,1.061-1.286,1.78-1.725c0.731-0.462,1.532-0.771,2.326-0.917
				c1.593-0.299,3.119-0.109,4.515,0.29c1.4,0.402,2.683,1.053,3.846,1.845C430.678,221.04,431.749,222.019,432.379,223.254z"/>
		</g>
		<g>
			<path fill="#4D4D4D" d="M403.041,223.831c0.56,0.62,1.149,1.188,1.726,1.754c0.581,0.558,1.171,1.099,1.759,1.562
				c0.295,0.228,0.605,0.422,0.873,0.56c0.255,0.154,0.549,0.129,0.343,0.087c-0.103-0.006-0.235,0.071-0.244,0.069
				c-0.021-0.004,0.009-0.076,0.031-0.183c0.052-0.217,0.075-0.554,0.084-0.89l-0.005,0.098c-0.037-0.365-0.301-0.854-0.758-1.329
				c-0.45-0.476-1.046-0.911-1.681-1.289c-0.64-0.371-1.331-0.689-2.022-0.911c-0.678-0.23-1.41-0.343-1.866-0.295l-0.25,0.026
				l0.071,0.006c-0.282-0.025-0.873,0.195-1.409,0.521c-0.547,0.329-1.119,0.721-1.675,1.15l-1.697,1.329
				c-0.585,0.438-1.169,0.905-1.828,1.266l1.107-1.907c0.393-0.618,0.777-1.256,1.238-1.846c0.455-0.598,0.935-1.196,1.536-1.739
				c0.61-0.527,1.289-1.104,2.45-1.321l-0.178,0.032c1.24-0.342,2.275-0.179,3.255,0.036c0.974,0.241,1.884,0.609,2.743,1.099
				c0.855,0.491,1.666,1.098,2.373,1.91c0.684,0.796,1.341,1.916,1.289,3.306l-0.003,0.085l-0.002,0.014
				c-0.071,0.471-0.16,0.946-0.379,1.497c-0.113,0.274-0.261,0.576-0.536,0.889c-0.264,0.31-0.754,0.635-1.262,0.687
				c-0.508,0.064-0.898-0.067-1.193-0.202c-0.295-0.141-0.521-0.302-0.722-0.466c-0.401-0.325-0.691-0.683-0.966-1.035
				c-0.547-0.702-0.965-1.442-1.334-2.202C403.55,225.438,403.224,224.658,403.041,223.831z"/>
		</g>
		<g>
			<path fill="#4D4D4D" d="M400.812,247.474c-5.373,0.417-10.581,1.697-15.719,3.241c-2.562,0.792-5.109,1.644-7.594,2.627
				c-1.242,0.487-2.471,1.006-3.654,1.569c-0.59,0.282-1.171,0.575-1.717,0.882l-1.813,0.994c-4.729,2.626-9.298,5.488-13.256,8.992
				c-3.979,3.483-7.24,7.696-10.16,12.235l0.069-0.118l-10.77,19.612l0.094-0.203c-2.015,5.187-3.012,10.76-2.885,16.333
				c0.118,5.573,1.291,11.132,3.375,16.348c4.163,10.466,11.757,19.483,21.004,26.042c9.264,6.587,20.246,10.745,31.584,12.1
				c11.364,1.363,22.941-0.037,34.043-3.241c-5.348,2.217-10.998,3.754-16.764,4.606c-5.769,0.839-11.653,0.932-17.469,0.333
				c-11.633-1.185-23.012-5.251-32.717-11.899c-9.686-6.622-17.785-15.85-22.386-26.837c-2.288-5.477-3.688-11.379-3.868-17.366
				c-0.201-5.982,0.81-12.015,2.922-17.624l0.037-0.097l0.057-0.106l10.562-19.724l0.027-0.052l0.043-0.066
				c2.987-4.684,6.482-9.252,10.764-13.02c4.256-3.789,9.043-6.792,13.881-9.5l1.791-0.989c0.647-0.367,1.291-0.693,1.937-1.004
				c1.29-0.619,2.589-1.172,3.897-1.689c2.622-1.017,5.286-1.896,8.008-2.576c2.717-0.689,5.486-1.202,8.291-1.468
				c2.797-0.266,5.662-0.287,8.447,0.181L400.812,247.474z"/>
		</g>
		<g>
			<path fill="#666666" d="M460.959,243.789c3.152,1.082,5.838,3.174,8.355,5.312c2.513,2.174,4.843,4.548,7.167,6.902
				c4.903,4.437,9.227,9.687,12.569,15.482c0.844,1.445,1.637,2.921,2.381,4.419c0.748,1.409,1.546,2.979,2.192,4.518
				c1.326,3.11,2.291,6.396,2.83,9.761c1.097,6.758,0.315,13.655-1.091,20.199l-0.013,0.06l-0.036,0.106
				c-0.743,2.192-1.549,4.289-2.411,6.398c-0.862,2.103-1.782,4.184-2.769,6.24c-1.979,4.108-4.192,8.141-6.951,11.934l-3.516-2.711
				c2.698-3.325,5.027-7.065,7.139-10.925c1.055-1.934,2.053-3.905,2.997-5.904c0.94-1.992,1.85-4.039,2.651-6.054l-0.049,0.166
				c1.609-6.31,2.58-12.789,1.793-19.193c-0.388-3.192-1.179-6.34-2.336-9.368c-0.581-1.537-1.229-2.949-1.975-4.495
				c-0.673-1.494-1.393-2.966-2.163-4.411c-3.064-5.802-7.052-11.062-11.794-15.698c-2.235-2.444-4.457-4.889-6.871-7.144
				C466.641,247.165,464.064,244.99,460.959,243.789z"/>
		</g>
		<g>
			<path fill="#4D4D4D" d="M363.822,257.004c-0.573,0.063-1.135,0.309-1.696,0.473l-1.68,0.559l-3.339,1.142
				c-2.216,0.782-4.421,1.566-6.588,2.422c-2.172,0.839-4.307,1.752-6.354,2.764c-1.021,0.509-1.997,1.083-2.93,1.674
				c-0.908,0.596-1.811,1.283-2.37,2.017c-1.185,1.598-1.892,3.831-2.366,6.042c-0.468,2.236-0.801,4.541-1.003,6.864
				c-0.458,4.65-0.565,9.362-0.75,14.092c-0.676-4.686-1.042-9.417-0.987-14.188c0.063-2.383,0.183-4.783,0.601-7.181
				c0.207-1.199,0.473-2.399,0.858-3.594c0.391-1.191,0.885-2.393,1.715-3.5c0.878-1.146,1.889-1.903,2.924-2.625
				c1.033-0.712,2.128-1.277,3.222-1.809c2.187-1.069,4.452-1.875,6.731-2.592c2.287-0.693,4.597-1.279,6.934-1.729
				c1.164-0.242,2.343-0.415,3.519-0.588C361.441,257.118,362.633,256.914,363.822,257.004z"/>
		</g>
		<g>
			<path fill="#666666" d="M462.191,243.703c1.362-0.87,2.958-1.398,4.592-1.615c1.637-0.227,3.306-0.151,4.94,0.074
				c3.271,0.496,6.41,1.625,9.353,3.086c2.957,1.447,5.715,3.271,8.285,5.351c1.281,1.047,2.49,2.192,3.615,3.449
				c0.56,0.633,1.1,1.291,1.592,2.012c0.249,0.357,0.48,0.737,0.7,1.133c0.222,0.395,0.414,0.844,0.563,1.21
				c1.236,3.273,1.615,6.554,1.865,9.817c0.188,3.265,0.216,6.508,0.09,9.738c-0.2,6.463-0.798,12.855-1.21,19.289
				c-0.633-6.43-0.58-12.896-0.749-19.296c-0.107-3.2-0.181-6.394-0.5-9.542c-0.297-3.125-0.73-6.308-1.816-9.054
				c-0.494-1.344-1.373-2.519-2.375-3.69c-0.999-1.158-2.138-2.225-3.307-3.258c-2.345-2.068-4.953-3.857-7.67-5.437
				c-2.734-1.541-5.622-2.859-8.67-3.605C468.469,242.608,465.191,242.442,462.191,243.703z"/>
		</g>
		<g>
			<path fill="#666666" d="M491.303,297.39c1.886-1.092,4.134-1.534,6.34-1.524c2.217,0.009,4.434,0.451,6.498,1.268
				c2.068,0.808,3.987,2.005,5.614,3.509c1.62,1.497,2.962,3.351,3.607,5.432c-1.538-1.524-3.124-2.794-4.815-3.89
				c-1.69-1.09-3.479-1.98-5.328-2.717c-1.852-0.727-3.766-1.299-5.745-1.658C495.49,297.457,493.467,297.306,491.303,297.39z"/>
		</g>
		<g>
			<path fill="#666666" d="M489.699,303.9c0.769-1.388,2.391-2.239,3.996-2.497c1.627-0.265,3.279-0.034,4.784,0.489
				c1.509,0.526,2.896,1.362,4.05,2.449c1.13,1.088,2.099,2.471,2.333,4.035c-1.154-1.032-2.306-1.785-3.515-2.453
				c-1.2-0.663-2.437-1.219-3.697-1.663c-1.262-0.439-2.546-0.772-3.855-0.894C492.48,303.243,491.153,303.341,489.699,303.9z"/>
		</g>
		<g>
			<path fill="#808080" d="M480.734,263.728c-1.916-2.018-4.015-3.844-6.134-5.625c-2.149-1.743-4.308-3.491-6.701-4.783
				c-4.839-2.753-9.704-5.358-14.737-7.597c-10.051-4.42-20.73-7.659-31.651-6.565c-5.532,0.244-11.05,0.639-16.537,1.223
				c-5.489,0.566-10.943,1.402-16.309,2.589c-5.344,1.235-10.64,2.827-15.489,5.363c-2.43,1.25-4.721,2.772-6.754,4.607
				c-1.025,0.916-1.934,1.93-2.813,3.012c-0.901,1.063-1.798,2.119-2.598,3.26c0.671-1.22,1.458-2.381,2.237-3.532
				c0.772-1.153,1.632-2.294,2.598-3.323c1.93-2.072,4.21-3.8,6.62-5.279c4.858-2.928,10.222-4.875,15.648-6.333
				c10.895-2.897,22.116-3.937,33.251-4.537c1.412-0.071,2.751-0.134,4.216-0.163c1.442-0.015,2.88,0.044,4.309,0.167
				c2.856,0.254,5.677,0.742,8.431,1.445c5.505,1.424,10.783,3.5,15.806,6.02c5.039,2.483,9.826,5.441,14.443,8.535
				c2.407,1.531,4.499,3.424,6.512,5.355C477.086,259.509,479.014,261.537,480.734,263.728z"/>
		</g>
		<g>
			<path fill="#4D4D4D" d="M266.787,237.999c3.133,3.313,5.675,6.783,8.121,10.341l7.175,10.759
				c4.787,7.183,9.558,14.438,14.685,21.463l3.872,5.272c1.304,1.81,2.522,3.628,3.734,5.452c2.423,3.64,4.81,7.261,7.235,10.827
				c2.426,3.562,4.965,7.022,7.685,10.275c1.375,1.612,2.785,3.185,4.32,4.602c1.581,1.409,3.1,2.611,4.345,4.872
				c-2.631,0.274-4.656-1.104-6.364-2.539c-1.752-1.437-3.392-2.981-4.902-4.625c-3.052-3.266-5.681-6.831-8.215-10.415
				c-2.533-3.587-4.874-7.276-7.279-10.877c-1.206-1.794-2.428-3.58-3.681-5.292l-3.897-5.22
				c-5.234-6.959-10.752-13.753-15.662-21.028c-2.448-3.639-4.753-7.387-6.831-11.273
				C269.122,246.673,267.449,242.519,266.787,237.999z"/>
		</g>
		<g>
			<path fill="#4D4D4D" d="M460.661,108.75c-6.617-2.629-13.519-4.238-20.467-4.554c-6.938-0.303-13.9,0.614-20.449,2.807
				c-3.286,1.058-6.462,2.453-9.487,4.123c-3.047,1.637-5.898,3.623-8.602,5.801c-5.377,4.404-9.93,9.842-13.512,15.997
				c2.466-6.692,6.665-12.812,11.992-17.736c2.643-2.491,5.613-4.629,8.736-6.498c3.146-1.837,6.491-3.332,9.945-4.496
				c3.472-1.114,7.048-1.908,10.669-2.299c3.622-0.36,7.278-0.408,10.884,0.008C447.583,102.667,454.59,105.018,460.661,108.75z"/>
		</g>
		<g>
			<path fill="#808080" d="M445.67,218.835c-3.063-1.355-5.903-3.196-8.64-5.09c-2.751-1.88-5.436-3.817-8.301-5.396
				c-2.896-1.622-5.792-3.215-8.815-4.484c-1.515-0.62-3.061-1.172-4.659-1.483c-1.588-0.336-3.265-0.394-4.845,0.182
				c1.448-0.892,3.259-1.012,4.943-0.9c1.705,0.152,3.365,0.575,4.968,1.121c3.214,1.09,6.204,2.666,9.129,4.274
				c2.96,1.667,5.653,3.694,8.263,5.761C440.337,214.872,442.887,216.98,445.67,218.835z"/>
		</g>
		<g>
			<path fill="#1A1A1A" d="M325.739,321.121c-3.573-1.42-6.699-3.922-9.335-6.729c-2.674-2.803-4.884-5.941-7.081-8.986
				c-1.059-1.559-2.169-3.018-3.266-4.641c-1.032-1.615-2.052-3.206-3.011-4.811c-0.941-1.558-2.075-3.047-3.117-4.693
				c-1.008-1.644-1.907-3.483-2.064-5.412c1.579,3.528,4.653,5.628,7.071,8.777c1.213,1.487,2.276,3.05,3.415,4.527
				c1.085,1.463,2.279,3,3.384,4.54l3.207,4.656c1.033,1.562,2.133,3.056,3.22,4.558
				C320.381,315.877,322.814,318.65,325.739,321.121z"/>
		</g>
		<g>
			<path fill="#CCCCCC" d="M596.816,134.896c1.039,3.151,2.274,6.192,3.425,9.312c1.118,3.123,2.137,6.359,2.548,9.769
				c0.758,6.786-0.026,13.51-1.141,20.078c-0.646,3.39-1.738,6.643-3.146,9.731c-1.433,3.062-3.154,6.026-5.059,8.723
				c-1.765,2.703-3.458,5.602-5.445,8.3c-1.01,1.339-2.074,2.654-3.302,3.815c-1.218,1.16-2.606,2.186-4.159,2.788
				c1.408-0.884,2.546-2.075,3.554-3.342c1.003-1.277,1.887-2.644,2.694-4.061c1.656-2.816,3.023-5.784,4.697-8.72
				c1.675-2.853,3.23-5.647,4.456-8.636c1.257-2.952,2.253-6.014,2.799-9.124c0.591-3.208,1.076-6.448,1.402-9.672
				c0.354-3.225,0.479-6.474,0.358-9.67C600.161,147.813,597.679,141.494,596.816,134.896z"/>
		</g>
		<g>
			<path fill="#333333" d="M204.135,133.909c-2.898,2.794-4.655,6.476-6.133,10.147c-1.487,3.693-2.636,7.518-3.648,11.375
				c-0.481,1.933-1.036,3.875-1.363,5.784c-0.33,1.936-0.485,3.905-0.529,5.88c-0.084,3.954,0.271,7.922,0.717,11.886
				c0.688,7.951,2.182,15.798,4.769,23.321c1.292,3.752,2.897,7.411,5.005,10.774c2.068,3.375,4.723,6.451,8.09,8.643
				c-3.551-1.907-6.392-4.948-8.697-8.246c-2.272-3.347-4.024-7.018-5.468-10.784c-2.853-7.555-4.362-15.57-5.167-23.551
				c-0.403-3.993-0.723-8.025-0.592-12.081c0.067-2.026,0.25-4.057,0.615-6.065c0.358-2.039,0.973-3.936,1.53-5.867
				c1.153-3.847,2.432-7.672,4.076-11.352c0.841-1.83,1.772-3.624,2.865-5.318C201.293,136.766,202.56,135.158,204.135,133.909z"/>
		</g>
		<g>
			<path fill="#333333" d="M337.213,323.584c-1.812,0.63-3.656,0.876-5.423,1.218c-1.772,0.316-3.5,0.646-5.151,1.114
				c-1.65,0.47-3.222,1.075-4.67,1.949c-1.458,0.863-2.753,2.031-4.01,3.465c0.299-1.888,1.346-3.676,2.811-5.032
				c1.472-1.359,3.312-2.271,5.186-2.796c1.881-0.529,3.807-0.706,5.689-0.661C333.535,322.893,335.364,323.169,337.213,323.584z"/>
		</g>
		<g>
			<path fill="#333333" d="M340.1,335.318c-2.166,0.265-4.024,1.15-5.879,2.05c-1.838,0.931-3.602,2.004-5.323,3.134
				c-1.713,1.143-3.392,2.342-4.973,3.667c-1.571,1.342-3.082,2.732-4.335,4.527c0.282-2.215,1.532-4.225,2.947-5.909
				c1.439-1.699,3.13-3.163,4.978-4.379c1.847-1.217,3.854-2.201,5.986-2.854c1.063-0.332,2.169-0.551,3.288-0.645
				C337.905,334.848,339.07,334.891,340.1,335.318z"/>
		</g>
		<g>
			<path fill="#4D4D4D" d="M437.247,277.386c-0.264,0.127-0.556,0.248-0.764,0.41l-0.097-0.225c0.783-0.327,1.582-0.627,2.437-0.831
				c0.849-0.185,1.783-0.315,2.743-0.077c0.958,0.222,1.866,0.83,2.471,1.598c0.465,0.58,1.097,1.167,1.678,1.772
				c1.185,1.206,2.314,2.482,3.417,3.783c1.069,1.328,2.107,2.686,3.069,4.101c1.893,2.852,3.547,5.798,5.046,8.824
				c0.763,1.504,1.464,3.038,2.16,4.571l1.013,2.314c0.352,0.763,0.632,1.563,1.076,2.277c-0.645-0.567-1.133-1.279-1.643-1.953
				c-0.506-0.682-0.975-1.384-1.457-2.076c-0.938-1.401-1.863-2.806-2.758-4.223c-1.818-2.812-3.555-5.672-5.416-8.392
				c-0.924-1.364-1.879-2.711-2.894-4.017c-0.979-1.335-2.027-2.617-3.067-3.927c-0.512-0.668-1.06-1.286-1.57-2.075
				c-0.364-0.602-0.855-1.072-1.51-1.341c-1.33-0.553-3.078-0.296-4.73-0.089l-0.988,0.124l0.892-0.349
				C436.665,277.464,436.951,277.44,437.247,277.386z"/>
		</g>
		<g>
			<path fill="#4D4D4D" d="M358.914,289.72c-0.925-0.243-1.737-0.889-2.283-1.706c-0.543-0.823-0.855-1.807-0.88-2.82
				c-0.01-0.506,0.047-1.024,0.209-1.521c0.146-0.504,0.435-0.973,0.701-1.367c0.574-0.843,1.271-1.549,2.016-2.198
				c3.034-2.541,6.668-3.987,9.792-5.944c3.227-1.999,6.473-3.91,9.384-6.201c1.451-1.144,2.846-2.343,4.071-3.682
				c1.22-1.261,2.248-2.998,4.12-4.297c0.94-0.636,2.061-1.013,3.115-1.172c0.524-0.086,1.067-0.122,1.563-0.13
				c0.578-0.007,1.085,0.031,1.611,0.098c2.089,0.283,3.958,1.046,5.705,1.788c3.509,1.47,6.994,3.126,10.365,4.832
				c1.696,0.848,3.396,1.674,5.1,2.488c1.711,0.79,3.41,1.652,5.154,2.186c1.769,0.58,3.666,0.995,5.439,1.806
				c0.865,0.404,1.764,0.831,2.491,1.513c0.34,0.345,0.698,0.733,0.794,1.246c0.054,0.24,0.054,0.479,0.157,0.678
				c0.1,0.202,0.317,0.33,0.54,0.405c-0.229-0.046-0.473-0.144-0.617-0.358c-0.146-0.212-0.176-0.464-0.254-0.678
				c-0.133-0.426-0.5-0.739-0.855-1.017c-0.73-0.549-1.614-0.868-2.501-1.17c-1.763-0.594-3.623-0.858-5.509-1.289
				c-1.93-0.444-3.686-1.204-5.47-1.879c-1.776-0.703-3.519-1.476-5.262-2.233c-3.499-1.518-6.892-3.085-10.436-4.427
				c-1.754-0.694-3.448-1.364-5.139-1.564c-0.415-0.051-0.857-0.073-1.228-0.067c-0.452,0.011-0.859,0.043-1.271,0.115
				c-0.817,0.135-1.531,0.396-2.167,0.826c-1.305,0.849-2.342,2.426-3.734,3.897c-1.36,1.442-2.849,2.733-4.414,3.889
				c-3.143,2.302-6.484,4.203-9.818,6.011c-3.395,1.914-7.02,3.088-10.002,5.25c-0.735,0.534-1.435,1.137-1.993,1.821
				c-0.607,0.69-0.92,1.459-0.999,2.363C356.275,286.951,357.122,288.966,358.914,289.72z"/>
		</g>
		<g>
			<path fill="#4D4D4D" d="M421.914,271.053c1.375-0.615,2.949-0.654,4.422-0.446c1.482,0.223,2.896,0.713,4.209,1.35
				c1.314,0.64,2.532,1.431,3.655,2.33c1.117,0.911,2.154,1.903,3.047,3.1c-1.451-0.361-2.757-0.928-4.037-1.493
				c-1.272-0.577-2.501-1.184-3.716-1.779c-1.217-0.593-2.419-1.173-3.652-1.693C424.604,271.89,423.351,271.443,421.914,271.053z"
				/>
		</g>
		<g>
			<path fill="#4D4D4D" d="M356.58,286.053c0.08,1.037,0.952,1.626,1.799,1.941c0.873,0.323,1.816,0.48,2.755,0.53
				c1.849,0.128,3.741-0.265,5.564-0.746c1.818-0.545,3.692-1.137,5.443-1.864c1.731-0.713,3.429-1.589,5.019-2.622
				c1.618-0.992,3.145-2.143,4.608-3.372c0.735-0.612,1.454-1.247,2.151-1.907c0.272-0.246,0.534-0.613,0.855-1.009
				c0.319-0.387,0.627-0.78,1.051-1.2c0.111-0.106,0.221-0.212,0.395-0.336c0.069-0.055,0.191-0.13,0.329-0.193
				c0.177-0.074,0.126-0.047,0.251-0.089c0.366-0.113,0.82-0.176,1.315,0.007c0.483,0.19,0.753,0.53,0.929,0.772
				c0.18,0.253,0.29,0.475,0.403,0.661c0.111,0.187,0.212,0.338,0.322,0.452c0.177,0.179,0.351,0.35,0.505,0.479
				c0.327,0.288,0.711,0.569,1.104,0.821c1.574,1.047,3.442,1.758,5.201,2.674c-1.935-0.417-3.874-0.803-5.767-1.641
				c-0.474-0.213-0.923-0.461-1.381-0.764c-0.243-0.16-0.441-0.311-0.632-0.458c-0.265-0.206-0.469-0.445-0.641-0.66
				c-0.317-0.438-0.642-0.795-0.627-0.706c0.025,0.015-0.036,0.017-0.131,0.061c0.008-0.002-0.159,0.065-0.093,0.045
				c0.028-0.006,0.044-0.021,0.02,0.004c-0.022,0.022-0.089,0.092-0.147,0.163c-0.249,0.299-0.52,0.704-0.787,1.104
				c-0.271,0.387-0.559,0.845-0.982,1.294c-0.69,0.734-1.408,1.444-2.146,2.135c-1.502,1.354-3.113,2.594-4.828,3.692
				c-1.734,1.068-3.552,2-5.488,2.709c-0.5,0.183-0.979,0.336-1.442,0.473c-0.51,0.158-0.961,0.277-1.45,0.414
				c-0.959,0.271-1.943,0.501-2.945,0.679c-2.003,0.355-4.082,0.52-6.142,0.087c-1.003-0.234-1.997-0.547-2.89-1.101
				c-0.44-0.276-0.858-0.621-1.162-1.057C356.619,287.086,356.495,286.54,356.58,286.053z"/>
		</g>
		<g>
			<path fill="#4D4D4D" d="M426.747,297.553c-1.31-1.235-2.791-2.264-4.325-3.18c-1.539-0.893-3.164-1.712-4.846-2.177
				c-1.705-0.442-3.487-0.61-5.248-0.624c-1.746,0.007-3.559,0.163-5.074,0.815l0.167-0.931c0.352,0.313,0.889,0.552,1.444,0.839
				c0.281,0.146,0.576,0.305,0.872,0.533c0.29,0.224,0.602,0.548,0.763,0.992l0.273,0.757l-0.822,0.09
				c-3.864,0.426-7.74,0.411-11.576,0.283c-0.991-0.047-1.732-0.051-2.424,0.288c-0.723,0.341-1.663,0.944-2.71,1.246
				c-1.089,0.315-2.1,0.359-3.043,0.442c-0.472,0.039-0.919,0.08-1.349,0.151l-1.397,0.236c-3.699,0.672-7.368,1.633-10.663,3.216
				c-1.638,0.79-3.187,1.746-4.411,2.96c-1.221,1.209-2.157,2.648-2.485,4.262c-0.351,1.625-0.189,3.408,0.074,5.287
				c0.255,1.938,0.414,3.856,0.6,5.752c0.184,1.89,0.392,3.785,0.728,5.584c0.356,1.811,0.941,3.553,1.663,5.271
				c0.722,1.731,1.584,3.344,2.529,5.037c0.914,1.672,1.803,3.334,2.87,4.816c0.536,0.726,1.103,1.441,1.72,1.937
				c0.146,0.123,0.324,0.229,0.439,0.298c0.254,0.125,0.333,0.157,0.527,0.219c0.345,0.103,0.706,0.135,1.062,0.081
				c0.725-0.093,1.393-0.55,1.895-1.153c0.52-0.605,0.928-1.326,1.247-2.326c0.571,0.901,0.489,2.16-0.086,3.128
				c-0.577,0.971-1.595,1.699-2.763,1.948c-0.584,0.124-1.202,0.11-1.783-0.025c-0.27-0.058-0.639-0.197-0.818-0.277
				c-0.312-0.145-0.547-0.282-0.782-0.45c-0.92-0.655-1.585-1.437-2.197-2.235c-1.206-1.603-2.188-3.294-3.121-4.973
				c-0.935-1.641-1.898-3.402-2.662-5.202c-0.776-1.803-1.432-3.703-1.832-5.648c-0.407-1.958-0.653-3.869-0.882-5.785
				c-0.227-1.91-0.426-3.805-0.709-5.659c-0.302-1.888-0.584-3.988-0.136-6.133c0.435-2.16,1.642-4.099,3.167-5.538
				c1.525-1.464,3.306-2.509,5.119-3.357c3.66-1.653,7.516-2.496,11.354-3.085l1.441-0.199c0.517-0.07,1.025-0.1,1.508-0.125
				c0.962-0.048,1.883-0.083,2.644-0.283c0.812-0.204,1.513-0.633,2.526-1.088c0.514-0.223,1.122-0.357,1.68-0.389
				c0.298-0.018,0.584-0.012,0.803,0l0.738,0.044c3.809,0.22,7.608,0.435,11.377,0.169l-0.549,0.847
				c-0.062-0.27-0.485-0.6-0.994-0.879c-0.504-0.296-1.096-0.56-1.644-1.078l-0.658-0.622l0.825-0.309
				c1.842-0.691,3.709-0.736,5.538-0.676c1.831,0.087,3.647,0.377,5.401,0.927c1.76,0.593,3.33,1.505,4.846,2.494
				C424.102,295.095,425.517,296.239,426.747,297.553z"/>
		</g>
		<g>
			<path fill="#4D4D4D" d="M406.748,306.108c-1.912,0.885-3.661,2.024-5.5,3.045c-1.869,1.1-3.999,1.799-6.021,2.355
				c-1.038,0.284-1.975,0.575-2.983,0.91c-1.012,0.326-2.019,0.659-3.14,0.908c-2.354,0.488-4.562-0.011-6.201,0.474
				c-1.695,0.486-3.334,1.76-3.94,3.271c-0.584,1.418,0.004,3.571-0.052,5.849c-0.087,2.387-0.804,4.373-0.618,6.156
				c0.138,1.821,0.996,3.536,2.255,4.997c1.261,1.466,2.855,2.713,4.553,3.831c0.852,0.559,1.733,1.085,2.635,1.594l1.364,0.754
				c0.468,0.241,1.047,0.604,1.489,0.961c0.928,0.73,1.656,1.548,2.372,2.17c0.717,0.632,1.405,1.033,2.209,1.158
				c0.835,0.128,1.673,0.038,2.327-0.346c0.668-0.371,1.215-1.031,1.58-1.836c0.368-0.804,0.566-1.73,0.607-2.658
				c0.012-0.114,0.007-0.552-0.015-0.65c-0.013-0.169-0.06-0.38-0.109-0.557c-0.108-0.364-0.302-0.697-0.565-1.027
				c-0.264-0.328-0.61-0.645-0.988-0.96c-0.378-0.318-0.788-0.609-1.244-1.007c-0.872-0.749-1.625-1.652-2.234-2.591
				c-0.305-0.469-0.581-0.943-0.843-1.415c-0.254-0.466-0.474-0.812-0.78-1.214c-0.59-0.777-1.297-1.52-2.025-2.27
				c-0.73-0.747-1.494-1.509-2.114-2.432c-0.598-0.913-1.157-2.005-1.095-3.17l0.154-0.047c0.684,0.86,1.38,1.519,2.131,2.208
				c0.744,0.682,1.48,1.401,2.229,2.15c0.75,0.747,1.517,1.517,2.218,2.404c0.343,0.426,0.697,0.967,0.951,1.422
				c0.258,0.444,0.52,0.875,0.796,1.283c0.553,0.815,1.176,1.533,1.912,2.145c0.712,0.595,1.716,1.227,2.519,2.176
				c0.403,0.481,0.765,1.066,0.97,1.71c0.101,0.326,0.174,0.631,0.212,0.986c0.043,0.423,0.042,0.514,0.038,0.925
				c-0.033,1.174-0.253,2.35-0.739,3.474c-0.48,1.11-1.283,2.205-2.457,2.882c-1.179,0.69-2.555,0.825-3.789,0.639
				c-1.299-0.176-2.494-0.9-3.346-1.656c-0.874-0.758-1.562-1.513-2.301-2.075c-0.385-0.296-0.699-0.494-1.168-0.735l-1.406-0.761
				c-0.937-0.519-1.868-1.062-2.783-1.65c-1.823-1.176-3.602-2.527-5.08-4.271c-1.477-1.715-2.622-3.944-2.792-6.352
				c-0.184-2.455,0.604-4.559,0.634-6.384c0.033-0.966-0.088-1.954-0.156-3.062c-0.057-1.063-0.109-2.375,0.425-3.617
				c0.505-1.202,1.339-2.16,2.28-2.906c0.948-0.745,2.021-1.301,3.199-1.62c1.26-0.334,2.369-0.276,3.438-0.272
				c1.062,0.021,2.027,0.036,2.925-0.147c1.88-0.396,3.957-1.197,6.005-1.698c2.031-0.558,3.962-1.07,5.848-1.896
				c0.987-0.383,1.984-0.764,3.012-1.069c1.026-0.294,2.083-0.599,3.18-0.594L406.748,306.108z"/>
		</g>
		<g>
			<path fill="#4D4D4D" d="M392.396,326.288c1.005,0.471,1.94,0.678,3.05,0.779c1.087,0.097,2.261,0.073,3.48,0.108
				c0.613,0.008,1.324,0.07,1.979,0.215c0.655,0.138,1.272,0.336,1.854,0.539l1.695,0.615c0.541,0.193,1.198,0.488,1.748,0.758
				c2.285,1.14,4.35,2.942,5.658,5.195c0.337,0.556,0.62,1.137,0.88,1.726c0.241,0.562,0.47,1.155,0.671,1.729
				c0.408,1.159,0.748,2.319,1.074,3.468c0.648,2.294,1.237,4.555,2.104,6.638c0.856,2.079,2.03,3.962,3.678,5.312
				c0.408,0.339,0.845,0.646,1.303,0.919l0.348,0.2l0.137,0.078c0.002-0.002,0.131,0.08,0.199,0.134l0.242,0.197
				c0.269,0.235,0.484,0.448,0.705,0.666c0.867,0.865,1.7,1.709,2.495,2.6c1.564,1.777,3.003,3.726,4.085,5.848l-0.459,0.514
				c-1.136-0.649-2.031-1.395-2.943-2.183c-0.891-0.792-1.744-1.615-2.547-2.479c-0.804-0.859-1.57-1.765-2.361-2.593
				c-0.195-0.203-0.398-0.41-0.572-0.57l-0.099-0.087c0.01,0.01,0.079,0.048,0.016,0.009c0.065,0.037-0.043-0.023-0.056-0.031
				l-0.424-0.243c-0.559-0.334-1.095-0.711-1.598-1.129c-2.04-1.67-3.425-3.952-4.364-6.238c-0.953-2.3-1.554-4.644-2.197-6.906
				c-0.32-1.131-0.648-2.246-1.028-3.322c-0.191-0.544-0.389-1.058-0.615-1.585c-0.219-0.494-0.455-0.98-0.733-1.438
				c-1.083-1.856-2.731-3.302-4.677-4.281c-0.516-0.247-0.938-0.446-1.512-0.654l-1.646-0.598c-0.537-0.188-1.052-0.35-1.556-0.456
				c-0.505-0.109-0.979-0.153-1.55-0.163c-1.148-0.036-2.35-0.006-3.625-0.117c-0.636-0.056-1.288-0.152-1.936-0.314
				c-0.327-0.08-0.641-0.176-0.969-0.291c-0.356-0.128-0.636-0.25-0.896-0.367L392.396,326.288z"/>
		</g>
		<g>
			<path fill="#4D4D4D" d="M425.914,359.387c0.164-0.469,0.445-0.953,0.94-1.216c0.491-0.27,1.103-0.244,1.616-0.081
				c1.059,0.319,1.852,1.136,2.568,1.818c1.322,1.462,3.142,2.226,4.808,3.547c1.582,1.189,3.227,2.281,4.957,3.108
				c1.728,0.801,3.574,1.345,5.316,1.153l-0.881,0.931c0.017-0.145-0.18-0.722-0.384-1.209c-0.208-0.521-0.447-1.08-0.575-1.79
				c-0.058-0.355-0.098-0.763,0.007-1.229c0.098-0.462,0.39-0.952,0.756-1.242c0.382-0.306,0.696-0.445,1.132-0.581l0.224-0.055
				c0.114-0.021,0.248-0.045,0.35-0.052c0.202-0.017,0.4-0.015,0.59,0.002c1.509,0.188,2.479,0.887,3.462,1.396
				c0.952,0.526,1.915,1,2.682,0.955l-0.778,0.856c-0.011-0.865,0.404-1.73,0.957-2.293c0.551-0.579,1.192-0.954,1.83-1.249
				c0.646-0.296,1.286-0.499,1.958-0.66c0.657-0.176,1.533-0.218,2.226,0.033c0.689,0.22,1.246,0.535,1.824,0.77
				c0.571,0.236,1.184,0.435,1.798,0.626c1.225,0.394,2.506,0.778,3.618,1.46c-1.22-0.454-2.488-0.624-3.769-0.842
				c-0.641-0.114-1.282-0.235-1.935-0.414c-0.65-0.171-1.263-0.424-1.822-0.544c-0.556-0.125-1.018-0.051-1.594,0.146
				c-0.568,0.203-1.148,0.438-1.662,0.717c-1.053,0.555-1.81,1.385-1.725,2.236l0.079,0.796l-0.857,0.061
				c-1.522,0.106-2.659-0.539-3.685-1.016c-1.01-0.493-2.01-1.044-2.766-1.102c-0.091-0.007-0.175-0.005-0.252,0.002
				c-0.04,0.003-0.044,0.01-0.068,0.008c-0.032,0.004-0.126,0.033-0.186,0.048c-0.1,0.035-0.307,0.134-0.357,0.19
				c-0.074,0.064-0.075,0.09-0.102,0.175c-0.02,0.086-0.016,0.253,0.021,0.448c0.077,0.4,0.271,0.891,0.47,1.415
				c0.102,0.266,0.209,0.543,0.308,0.856c0.094,0.314,0.201,0.661,0.188,1.173l-0.021,0.851l-0.86,0.08
				c-2.304,0.214-4.467-0.508-6.323-1.486c-1.881-0.977-3.543-2.236-5.082-3.593c-0.729-0.65-1.517-1.227-2.321-1.876l-0.605-0.497
				c-0.188-0.169-0.381-0.328-0.583-0.526c-0.392-0.379-0.717-0.783-1.032-1.177c-0.635-0.784-1.233-1.536-2.084-1.954
				c-0.415-0.204-0.886-0.287-1.325-0.143C426.516,358.56,426.161,358.947,425.914,359.387z"/>
		</g>
		<g>
			<path fill="#4D4D4D" d="M425.247,360.387c0.192,1.096,1.194,1.687,2.076,2.188l1.411,0.747c0.486,0.248,0.955,0.605,1.359,0.923
				c0.859,0.689,1.634,1.416,2.432,2.104c0.787,0.693,1.608,1.281,2.475,1.956c1.693,1.317,3.308,2.771,4.945,3.9
				c1.661,1.111,3.726,1.851,5.535,3.412c0.896,0.766,1.682,1.775,2.182,2.858c0.529,1.119,0.787,2.272,0.939,3.4
				c0.275,2.256,0.132,4.397,0.4,6.348c0.066,0.508,0.15,0.908,0.281,1.454c0.124,0.535,0.24,1.076,0.333,1.636
				c0.091,0.56,0.155,1.133,0.175,1.738c0.013,0.604-0.002,1.243-0.237,1.988c-0.113,0.304-0.07,0.215-0.216,0.516
				c-0.12,0.229-0.227,0.408-0.442,0.629c-0.189,0.206-0.51,0.424-0.868,0.519c-0.371,0.106-0.71,0.065-0.983,0.003
				c-0.527-0.145-0.836-0.366-1.114-0.563c-0.272-0.203-0.498-0.406-0.711-0.605c-0.424-0.399-0.789-0.789-1.148-1.143
				c-0.337-0.34-0.745-0.681-0.901-0.746l1.487-1.561c1.14,2.427,2.228,4.846,3.467,7.158c1.22,2.321,2.589,4.548,4.26,6.534
				c0.412,0.5,0.843,0.985,1.292,1.454c0.466,0.484,0.934,0.995,1.377,1.507c0.894,1.026,1.714,2.118,2.449,3.264
				c0.737,1.144,1.384,2.352,1.861,3.625c0.507,1.272,0.686,2.602,1.385,3.758c-0.853-1.05-1.259-2.395-1.866-3.542
				c-0.609-1.166-1.351-2.256-2.156-3.29c-0.809-1.033-1.704-1.995-2.628-2.925c-0.468-0.463-0.937-0.903-1.432-1.348
				c-0.511-0.459-1.005-0.938-1.481-1.434c-1.895-1.997-3.465-4.271-4.842-6.61c-1.36-2.354-2.548-4.771-3.751-7.142l-1.53-3.013
				l3.017,1.452c0.812,0.391,1.177,0.811,1.607,1.197c0.403,0.389,0.771,0.77,1.124,1.096c0.322,0.318,0.772,0.613,0.795,0.594
				c-0.016-0.01-0.08-0.015-0.195,0.008c-0.104,0.023-0.189,0.097-0.201,0.105c-0.025,0.034,0.01-0.017,0.01-0.023
				c-0.016,0.068,0.115-0.273,0.09-0.22c0.187-0.582,0.1-1.648-0.058-2.597c-0.075-0.49-0.177-0.99-0.286-1.492
				c-0.115-0.488-0.243-1.131-0.306-1.679c-0.271-2.274-0.107-4.409-0.33-6.382c-0.097-0.979-0.292-1.93-0.648-2.749
				c-0.367-0.86-0.893-1.583-1.587-2.227c-1.388-1.284-3.338-2.182-5.161-3.503c-1.802-1.376-3.237-2.909-4.8-4.321
				c-0.762-0.692-1.625-1.406-2.359-2.202c-0.743-0.776-1.451-1.576-2.188-2.293c-0.401-0.374-0.738-0.717-1.174-1.007l-1.317-0.903
				c-0.439-0.312-0.866-0.66-1.222-1.08C425.516,361.446,425.254,360.925,425.247,360.387z"/>
		</g>
		<g>
			<path fill="#4D4D4D" d="M454.58,296.22c0.774-1.997,1.271-4.067,1.918-6.118c0.64-2.054,1.438-4.094,2.73-5.91
				c1.267-1.798,2.818-3.362,4.453-4.787c0.819-0.712,1.681-1.377,2.5-2.04c0.817-0.664,1.637-1.361,2.5-2.033
				c1.712-1.372,3.759-2.475,5.901-3.117c1.067-0.324,2.154-0.585,3.317-0.697c0.582-0.051,1.186-0.067,1.837,0.036
				c0.63,0.108,1.418,0.354,1.988,1.077c0.564,0.737,0.583,1.618,0.487,2.259c-0.116,0.667-0.253,1.208-0.686,1.887
				c-0.755,1.111-1.695,1.751-2.382,2.439c-0.175,0.164-0.327,0.34-0.441,0.481c-0.163,0.214-0.329,0.431-0.45,0.618
				c-0.269,0.391-0.538,0.837-0.791,1.285c-0.508,0.899-1.052,1.863-1.529,2.772c-1.92,3.689-3.278,7.699-3.939,11.804
				c-0.629,4.208-1.216,8.427-1.605,12.663c-0.414,4.234-0.662,8.488-0.759,12.756c0.011,2.155-0.216,4.295-0.486,6.416
				c-0.146,1.061-0.308,2.119-0.511,3.17c-0.219,1.044-0.402,2.115-0.868,3.083c0.419-0.985,0.554-2.058,0.725-3.107
				c0.153-1.055,0.268-2.116,0.363-3.179c0.172-2.125,0.385-4.253,0.225-6.373c-0.256-4.277-0.266-8.576-0.056-12.865
				c0.229-4.288,0.631-8.564,1.193-12.819c0.57-4.356,1.974-8.561,3.968-12.463c0.51-0.986,1.009-1.889,1.546-2.852
				c0.276-0.48,0.562-0.948,0.902-1.435c0.175-0.258,0.336-0.463,0.498-0.674c0.221-0.275,0.428-0.495,0.642-0.698
				c0.841-0.795,1.681-1.416,2.128-2.092c0.17-0.21,0.343-0.718,0.398-1.102c0.062-0.4,0.005-0.678-0.099-0.803
				c-0.173-0.318-1.211-0.513-2.148-0.419c-0.968,0.068-1.977,0.28-2.958,0.554c-1.971,0.54-3.759,1.473-5.443,2.693
				c-3.351,2.611-7.029,4.879-9.597,8.174c-1.306,1.593-2.258,3.514-3.028,5.484C456.251,292.266,455.567,294.317,454.58,296.22z"/>
		</g>
		<g>
			<path fill="#4D4D4D" d="M478.08,330.22c0.192,1.052,0.589,2.043,1.071,2.98c0.475,0.941,1.035,1.837,1.645,2.697
				c1.223,1.73,2.624,3.283,4.087,4.859c1.464,1.752,2.341,3.782,3.249,5.694l2.771,5.739c1.895,3.798,3.82,7.564,6.092,11.095
				l3.503,5.314l1.77,2.66l0.887,1.328l0.229,0.36l0.234,0.403c0.147,0.268,0.278,0.525,0.401,0.79
				c0.485,1.058,0.815,2.112,1.159,3.098c0.172,0.493,0.346,0.97,0.537,1.424l0.312,0.697l0.331,0.672
				c0.923,1.817,2.09,3.532,3.331,5.216c1.24,1.687,2.581,3.327,3.916,4.999c1.332,1.653,2.706,3.41,3.785,5.307
				c1.09,1.881,2.076,3.738,3.17,5.552c0.545,0.935,1.081,1.901,1.499,2.944c0.42,1.043,0.7,2.11,0.938,3.157
				c0.359,2.046,1.357,3.907,2.13,5.938c0.397,1.016,0.626,2.074,0.947,3.072c0.311,0.994,0.728,2.012,1.589,2.67
				c-0.935-0.555-1.501-1.567-1.929-2.543c-0.423-0.999-0.729-2.013-1.192-2.951c-0.898-1.879-2.108-3.739-2.683-5.883
				c-0.309-1.012-0.627-1.998-1.063-2.909c-0.433-0.913-0.986-1.786-1.568-2.659c-1.221-1.768-2.296-3.646-3.43-5.4
				c-1.12-1.764-2.446-3.322-3.818-4.961c-1.369-1.623-2.771-3.247-4.104-4.961c-1.328-1.715-2.568-3.538-3.603-5.512l-0.381-0.758
				l-0.348-0.759c-0.228-0.526-0.423-1.05-0.605-1.562c-0.365-1.024-0.69-2.002-1.099-2.882c-0.1-0.219-0.209-0.438-0.316-0.638
				l-0.164-0.29l-0.196-0.315l-0.876-1.339l-1.75-2.679c-1.158-1.806-2.336-3.538-3.47-5.405c-2.23-3.713-4.147-7.576-5.857-11.501
				c-0.86-1.965-1.708-3.912-2.516-5.904c-0.787-1.983-1.538-3.954-2.716-5.575c-1.303-1.664-2.627-3.403-3.716-5.26
				C479.178,334.396,478.235,332.369,478.08,330.22z"/>
		</g>
		<g>
			<path fill="#4D4D4D" d="M523.414,423.637c-0.074-1.746-0.23-3.49-0.186-5.253c0.065-1.749,0.223-3.57,1.106-5.228l0.229-0.429
				l0.358,0.367c2.447,2.513,4.523,5.362,6.426,8.269c1.893,2.913,3.83,5.765,5.706,8.697c3.771,5.822,7.42,11.701,11.42,17.301
				c1.002,1.398,2.022,2.779,3.06,4.146c1.051,1.382,2.1,2.812,3.088,4.258c1.973,2.899,3.812,5.884,5.488,8.951
				c1.679,3.065,3.243,6.185,4.737,9.328l0.557,1.18l0.14,0.296l0.146,0.359l0.242,0.603l0.959,2.416l1.907,4.835l-0.047-0.1
				c1.775,3.496,3.599,6.898,5.518,10.294c0.962,1.689,1.946,3.367,2.959,5.027c1.017,1.644,2.062,3.327,3.029,5.044
				c1.952,3.421,3.646,7.019,4.827,10.787c1.198,3.757,1.872,7.687,1.83,11.602c-0.314-3.9-1.203-7.719-2.602-11.332
				c-1.4-3.614-3.251-7.03-5.297-10.318c-1.019-1.649-2.129-3.228-3.213-4.88c-1.075-1.644-2.123-3.304-3.148-4.979
				c-2.054-3.338-3.985-6.793-5.812-10.233l-0.023-0.043l-0.023-0.057l-2.001-4.798l-0.995-2.4l-0.247-0.601l-0.098-0.242
				l-0.14-0.292l-0.56-1.166c-1.5-3.105-3.064-6.174-4.733-9.176c-1.681-2.995-3.425-5.95-5.345-8.785
				c-0.957-1.421-1.949-2.792-2.987-4.176c-1.051-1.398-2.08-2.812-3.062-4.254c-3.959-5.752-7.506-11.73-11.055-17.674
				l-5.346-8.912c-1.785-2.952-3.594-5.883-5.848-8.475l0.587-0.062c-0.871,1.4-1.162,3.163-1.323,4.874
				C523.484,420.136,523.477,421.89,523.414,423.637z"/>
		</g>
		<g>
			<path fill="#4D4D4D" d="M461.414,421.637c0.151,1.502,0.798,2.863,1.451,4.186c0.667,1.326,1.433,2.599,2.202,3.892
				c0.765,1.317,1.487,2.617,2.254,3.887c0.773,1.277,1.579,2.539,2.202,3.909c1.397,2.66,2.697,5.422,3.997,8.087
				c1.315,2.692,2.632,5.421,3.771,8.256l-2.314,0.465c-0.04-2.779-0.33-5.676,0.094-8.704l0.361-2.577l1.721,1.952
				c1.25,1.418,2.155,2.962,3.002,4.496c0.84,1.538,1.593,3.089,2.379,4.578l1.234,2.262c0.414,0.798,0.785,1.595,1.137,2.396
				l1.998,4.738c2.736,6.12,6.654,11.743,10.312,17.574c1.84,2.904,3.587,5.937,5.143,9.027c1.569,3.084,3.009,6.214,4.439,9.33
				l1.077,2.333c0.379,0.768,0.755,1.534,1.049,2.339c0.618,1.597,1.248,3.186,1.908,4.761c1.314,3.153,2.719,6.273,4.334,9.313
				c-2.121-2.712-4.026-5.609-5.791-8.581c-0.881-1.487-1.733-2.99-2.571-4.498c-0.433-0.748-0.778-1.536-1.117-2.325l-1.07-2.34
				c-1.429-3.116-2.856-6.217-4.397-9.244c-1.527-3.035-3.208-5.951-5.036-8.84c-3.614-5.775-7.597-11.457-10.476-17.884
				l-1.998-4.739c-0.336-0.767-0.69-1.525-1.065-2.249l-1.229-2.252c-0.814-1.543-1.559-3.077-2.363-4.549
				c-0.804-1.464-1.661-2.892-2.686-4.048l2.082-0.625c-0.376,2.616-0.121,5.424-0.068,8.313l0.118,6.524l-2.433-6.06
				c-1.096-2.728-2.385-5.402-3.699-8.093c-1.333-2.719-2.566-5.391-3.982-8.023c-0.762-1.287-1.346-2.681-1.936-4.071
				c-0.6-1.397-1.148-2.812-1.708-4.182c-0.562-1.392-1.132-2.804-1.598-4.254C461.696,424.672,461.301,423.149,461.414,421.637z"/>
		</g>
		<g>
			<path fill="#4D4D4D" d="M307.414,343.387c-0.888,2.854-2.717,5.316-4.654,7.56c-1.953,2.253-4.081,4.34-5.982,6.583
				c-0.949,1.118-1.848,2.276-2.586,3.514c-0.749,1.266-1.449,2.558-2.116,3.869c-1.335,2.623-2.505,5.327-3.527,8.079
				c-1.029,2.765-1.835,5.539-2.525,8.432c-0.756,2.917-1.64,5.774-2.615,8.608c-1.97,5.655-4.231,11.189-6.619,16.628
				c-2.451,5.408-4.948,10.776-7.052,16.262c-2.131,5.487-3.991,11.08-5.594,16.747c-3.207,11.338-5.371,22.966-6.729,34.688
				c-1.359,11.727-1.925,23.547-1.991,35.373c-0.252,11.754,1.719,23.395,4.297,34.924c1.293,5.762,2.716,11.531,4.147,17.273
				c1.444,5.74,2.987,11.439,4.8,17.041c0.904,2.802,1.877,5.578,2.929,8.322c1.081,2.775,2.075,5.627,3.021,8.438
				c1.901,5.631,3.716,11.239,6.242,16.462c0.313,0.653,0.644,1.297,0.979,1.936l0.506,0.929c0.185,0.313,0.374,0.661,0.555,0.945
				c0.715,1.157,1.555,2.313,2.474,3.35c1.85,2.088,4.08,3.822,6.545,5.255c2.459,1.444,5.126,2.62,7.841,3.766l4.108,1.718
				c1.306,0.56,2.623,0.997,3.985,1.326c5.466,1.35,11.26,0.555,17.018-0.578c2.896-0.558,5.811-1.189,8.807-1.647
				c2.98-0.458,5.955-0.772,8.905-1.088c5.895-0.626,11.735-1.267,17.277-2.884c5.603-1.618,11.04-3.878,16.499-6.184
				c5.438-2.307,11.008-4.675,16.656-6.527c5.419-2,10.752-4.65,16.04-7.271c10.595-5.291,20.998-11,31.802-16.112
				c2.69-1.262,5.508-2.489,8.312-3.496c2.769-1.044,5.523-2.098,8.258-3.225c5.453-2.277,10.912-4.534,16.309-6.939
				c2.701-1.212,5.354-2.453,8.037-3.769c2.742-1.344,5.726-2.286,8.7-2.855c5.982-1.146,11.911-1.154,17.694-2.262
				c5.914-1.036,12.188-0.238,16.477-4.855c1.139-0.928,2.259-1.896,3.216-2.986c0.235-0.274,0.458-0.558,0.641-0.854
				c0.175-0.281,0.3-0.636,0.462-0.978c0.309-0.681,0.642-1.349,0.979-2.01c1.424-2.602,2.305-5.445,2.974-8.339
				c-0.541,2.91-1.308,5.824-2.628,8.505c-0.309,0.675-0.608,1.349-0.884,2.032c-0.144,0.335-0.247,0.691-0.446,1.054
				c-0.192,0.345-0.418,0.654-0.653,0.954c-0.954,1.185-2.047,2.212-3.165,3.207c-1.134,0.986-2.268,1.935-3.559,2.783
				c-1.387,0.833-2.891,1.174-4.363,1.489c-2.951,0.591-5.938,0.835-8.779,1.402c-5.851,1.335-11.882,1.58-17.528,2.889
				c-2.831,0.653-5.525,1.613-8.069,2.976c-2.598,1.394-5.274,2.767-7.942,4.082c-5.345,2.651-10.784,5.111-16.339,7.276
				c-2.77,1.094-5.547,2.19-8.336,3.231c-2.782,1-5.412,2.148-8.096,3.404c-10.659,5.043-21.084,10.76-31.729,16.077
				c-5.343,2.644-10.658,5.301-16.381,7.417c-5.637,1.85-11.002,4.136-16.49,6.463c-5.47,2.309-11.019,4.62-16.829,6.301
				c-5.876,1.711-11.903,2.357-17.797,2.986c-2.95,0.314-5.881,0.626-8.768,1.07c-2.872,0.438-5.762,1.062-8.694,1.627
				s-5.926,1.085-9.002,1.272c-3.068,0.191-6.229,0.018-9.284-0.722c-1.522-0.366-3.03-0.87-4.452-1.48l-4.105-1.717
				c-2.75-1.161-5.531-2.381-8.195-3.942c-2.663-1.547-5.185-3.493-7.272-5.854c-1.048-1.187-1.964-2.437-2.806-3.805
				c-0.216-0.344-0.38-0.648-0.572-0.975l-0.559-1.025c-0.355-0.674-0.703-1.351-1.031-2.036
				c-2.646-5.477-4.488-11.203-6.385-16.809c-0.948-2.814-1.907-5.568-2.98-8.324c-1.072-2.798-2.062-5.626-2.982-8.473
				c-1.842-5.693-3.4-11.46-4.854-17.23c-1.439-5.775-2.859-11.531-4.166-17.353c-1.299-5.817-2.453-11.688-3.257-17.631
				c-0.397-2.972-0.712-5.959-0.902-8.961c-0.204-2.995-0.239-6.047-0.21-9.003c0.066-11.911,0.636-23.841,2.012-35.702
				c1.373-11.856,3.565-23.645,6.822-35.157c1.627-5.755,3.518-11.438,5.684-17.018c1.08-2.792,2.246-5.554,3.439-8.279
				c1.182-2.736,2.384-5.455,3.601-8.159c2.48-5.386,5.035-10.711,7.174-16.196c1.073-2.735,2.062-5.516,2.914-8.312
				c0.808-2.851,1.78-5.748,2.942-8.502c1.162-2.767,2.469-5.467,3.938-8.075c0.734-1.305,1.504-2.593,2.32-3.849
				c0.838-1.278,1.818-2.433,2.835-3.533c2.048-2.191,4.274-4.153,6.321-6.288C304.456,348.516,306.381,346.189,307.414,343.387z"/>
		</g>
		<g>
			<path fill="#4D4D4D" d="M329.564,419.4c0.146,3.262-0.267,6.519-0.631,9.75c-0.387,3.236-0.834,6.463-1.303,9.687
				c-0.492,3.219-1.025,6.431-1.562,9.641c-0.531,3.214-1.143,6.404-1.641,9.601c-0.981,6.385-1.79,12.809-2.269,19.251
				c-0.245,3.221-0.458,6.443-0.568,9.668c-0.123,3.215-0.12,6.454-0.146,9.708c-0.089,6.491-0.093,12.977,0.038,19.452
				c0.097,6.477,0.419,12.941,0.928,19.389c1.096,12.876,3.183,25.72,7.308,38.08c-2.65-5.952-4.6-12.209-6.219-18.54
				c-1.551-6.352-2.658-12.812-3.414-19.307c-0.792-6.493-1.175-13.022-1.438-19.544c-0.226-6.525-0.234-13.047-0.203-19.559
				c0.05-3.247,0.07-6.513,0.218-9.795c0.146-3.272,0.354-6.54,0.67-9.798c0.651-6.513,1.524-12.995,2.795-19.419
				c1.272-6.414,2.744-12.721,4.059-19.09c0.689-3.175,1.356-6.354,1.963-9.545c0.303-1.596,0.587-3.193,0.841-4.797
				C329.249,422.632,329.514,421.026,329.564,419.4z"/>
		</g>
		<g>
			<path fill="#4D4D4D" d="M328.044,417.838c1.765,3.494,3.125,7.119,4.462,10.735c0.689,1.803,1.281,3.634,1.932,5.446l1.824,5.471
				c1.195,3.65,2.311,7.322,3.449,10.983c0.577,1.827,1.128,3.665,1.73,5.484c0.584,1.831,1.196,3.64,1.973,5.429
				c-1.345-1.437-2.35-3.148-3.322-4.84c-0.936-1.717-1.798-3.469-2.574-5.251c-1.563-3.562-2.92-7.197-4.108-10.88
				c-0.569-1.85-1.149-3.694-1.677-5.555c-0.497-1.869-1.032-3.726-1.459-5.613C329.354,425.49,328.62,421.691,328.044,417.838z"/>
		</g>
		<g>
			<path fill="#4D4D4D" d="M344.907,449.8c-1.449,9.587-1.411,19.218-0.317,28.735c0.554,4.76,1.258,9.511,2.066,14.267
				c0.742,4.765,1.566,9.539,2.187,14.362c0.302,2.412,0.575,4.83,0.784,7.262c0.206,2.457,0.316,4.886,0.375,7.311
				c0.132,4.844,0.206,9.644,0.676,14.375c0.238,2.364,0.625,4.702,1.176,6.994c0.266,1.152,0.645,2.237,0.957,3.484
				c0.303,1.198,0.551,2.391,0.79,3.575c0.465,2.369,0.941,4.71,1.775,6.931c0.828,2.208,2.114,4.296,4.038,5.791
				c-1.037-0.624-1.982-1.424-2.787-2.357c-0.798-0.939-1.454-1.998-2.007-3.102c-1.104-2.217-1.767-4.599-2.442-6.918
				c-0.332-1.163-0.645-2.322-1.014-3.444c-0.346-1.079-0.833-2.255-1.187-3.439c-0.745-2.365-1.216-4.797-1.586-7.224
				c-0.745-4.863-0.908-9.742-1.179-14.551c-0.142-2.402-0.268-4.801-0.485-7.159c-0.227-2.38-0.521-4.763-0.843-7.142
				c-0.632-4.761-1.355-9.527-2.068-14.316c-0.646-4.798-1.299-9.622-1.597-14.49C341.534,469.03,342.199,459.115,344.907,449.8z"/>
		</g>
		<g>
			<path fill="#4D4D4D" d="M480.235,263.108c-3.212,1.078-6.452,0.261-9.538-0.081c-3.105-0.423-6.165-0.807-9.188-0.797
				c-6.245-0.005-12.509,0.357-18.837,0.319c-6.218-0.048-12.447,0.337-18.655,0.99c-6.215,0.61-12.416,1.47-18.597,2.487
				l-0.47-2.588c6.2-1.143,12.439-2.161,18.729-2.877c6.296-0.653,12.638-1.038,18.991-0.98c6.219,0.058,12.508-0.214,18.822-0.159
				c3.273,0.021,6.459,0.46,9.566,0.913c3.125,0.524,6.123,0.598,9.198,1.664L480.235,263.108z"/>
		</g>
		<g>
			<path fill="#4D4D4D" d="M346.569,276.15c2.149-2.126,4.593-2.225,6.973-2.964c2.39-0.625,4.812-1.17,7.264-1.654
				c4.892-0.965,9.856-2.029,14.957-2.146l0.184,2.491c-4.825,0.619-9.63,1.575-14.427,2.803c-2.396,0.616-4.811,1.222-7.271,1.677
				c-2.473,0.34-4.899,1.252-7.655-0.068L346.569,276.15z"/>
		</g>
		<g>
			<path fill="#4D4D4D" d="M427.907,315.5c0.461-0.228,1.021-0.174,1.496,0.015c0.479,0.194,0.911,0.483,1.307,0.807
				c0.785,0.66,1.45,1.44,2.073,2.243c1.235,1.618,2.25,3.381,3.217,5.159c0.927,1.801,1.793,3.631,2.552,5.507
				c0.737,1.88,1.478,3.778,1.855,5.77c-0.276-0.971-0.64-1.911-1.022-2.842c-0.374-0.935-0.771-1.86-1.188-2.776
				c-0.827-1.835-1.685-3.656-2.639-5.426c-0.924-1.784-1.935-3.525-3.084-5.165c-0.575-0.817-1.196-1.608-1.925-2.286
				C429.854,315.851,428.918,315.171,427.907,315.5z"/>
		</g>
		<g>
			<path fill="#4D4D4D" d="M442.407,300c0.088,1.538,0.097,3.075,0.153,4.607c0.055,1.533,0.102,3.064,0.236,4.588
				c0.099,1.526,0.277,3.046,0.557,4.543c0.137,0.749,0.314,1.491,0.558,2.212c0.23,0.725,0.545,1.425,0.996,2.05
				c-1.067-1.143-1.554-2.694-1.931-4.181c-0.362-1.509-0.539-3.05-0.678-4.586c-0.095-1.541-0.148-3.082-0.121-4.622
				C442.201,303.07,442.289,301.534,442.407,300z"/>
		</g>
		<g>
			<path fill="#4D4D4D" d="M426.731,283.301c-1.397,0.266-2.857,0.183-4.249-0.026c-1.398-0.199-2.75-0.519-4.104-0.782
				c-2.711-0.514-5.425-0.895-8.188-1.08c-2.755-0.211-5.519-0.203-8.282-0.023l-4.174,0.29c-0.7,0.043-1.404,0.079-2.11,0.1
				c-0.716,0.028-1.413,0.006-2.069,0.055c-2.566,0.202-5.078,1.461-7.754,2.401c-2.633,0.937-5.271,1.78-7.527,3.144
				c-2.254,1.329-4.014,3.354-4.852,5.739c-0.413,1.221-0.708,2.556-0.881,3.853c-0.084,0.649-0.131,1.297-0.114,1.902
				c0.009,0.301,0.038,0.589,0.09,0.83c0.046,0.241,0.146,0.418,0.159,0.424l-1.857,1.52c-0.416-0.549-0.538-1.054-0.625-1.493
				c-0.078-0.444-0.099-0.854-0.099-1.249c0.005-0.79,0.088-1.533,0.206-2.262c0.246-1.458,0.598-2.85,1.121-4.254
				c1.11-2.861,3.299-5.214,5.882-6.652c2.571-1.463,5.319-2.249,7.945-3.121c2.586-0.819,5.187-2.109,8.237-2.294
				c0.735-0.035,1.434,0.005,2.111-0.007c0.687-0.004,1.376-0.022,2.066-0.048l4.176-0.191c2.804-0.125,5.623-0.118,8.434,0.02
				c2.802,0.132,5.635,0.455,8.377,1.108C421.432,281.78,423.969,282.771,426.731,283.301z"/>
		</g>
		<g>
			<path fill="#4D4D4D" d="M471.296,304.533c0.188-1.263,0.242-2.53,0.17-3.78l-0.092-1.593l0.664,1.489
				c1,2.243,1.156,4.714,1.233,7.075c0.045,2.374-0.037,4.732,0.102,6.994l-1.389-0.671c0.349-0.261,0.684-0.522,0.961-0.786
				c0.278-0.253,0.488-0.562,0.496-0.659l1.832,0.22c0.107,1.893,0.079,3.782,0.045,5.662c-0.029,1.881-0.139,3.751-0.232,5.614
				l-0.258,5.571c-0.059,1.853-0.084,3.699-0.046,5.544l-1.411-0.33c0.264-0.422,0.519-0.771,0.781-1.141l0.391-0.543l0.196-0.267
				l0.097-0.131l0.045-0.062c0.019-0.02,0.031-0.059-0.015,0.053l1.366-3.304l-0.087,3.532c-0.042,1.669,0.333,3.407,0.89,5.055
				c0.594,1.635,1.359,3.264,2.638,4.53c-1.49-1.026-2.562-2.597-3.36-4.229c-0.8-1.648-1.354-3.427-1.491-5.335l1.279,0.229
				c-0.073,0.16-0.091,0.168-0.103,0.193l-0.047,0.078l-0.088,0.146l-0.176,0.284l-0.352,0.561c-0.227,0.369-0.468,0.756-0.651,1.1
				l-1.169,2.186l-0.243-2.516c-0.183-1.886-0.247-3.776-0.251-5.66c-0.018-1.884,0.037-3.762,0.113-5.63l0.213-5.585
				c0.071-1.854,0.078-3.702,0.061-5.544l1.832,0.22c-0.261,0.772-0.698,1.145-1.073,1.497c-0.389,0.34-0.778,0.615-1.161,0.878
				l-1.336,0.921l-0.054-1.593c-0.04-1.22,0.016-2.413,0.097-3.594l0.229-3.51c0.122-2.312,0.195-4.649-0.456-6.842l0.572-0.104
				C471.961,302.051,471.707,303.324,471.296,304.533z"/>
		</g>
		<g>
			<path fill="#999999" d="M323.907,439.5c0.282,3.143-0.022,6.32-0.551,9.432c-0.56,3.112-1.371,6.167-2.16,9.213
				c-0.776,3.049-1.607,6.076-2.143,9.153c-0.271,1.537-0.474,3.083-0.578,4.633c-0.127,1.543-0.037,3.099-0.126,4.711
				c-0.184,3.185-0.753,6.305-1.249,9.403c-0.248,1.551-0.478,3.1-0.634,4.652c-0.154,1.55-0.232,3.117-0.312,4.684
				c-0.14,3.133-0.156,6.274,0.046,9.403c0.199,3.12,0.559,6.276,1.707,9.216c-0.693-1.417-1.136-2.949-1.467-4.492
				c-0.335-1.545-0.561-3.112-0.729-4.684c-0.304-3.146-0.374-6.31-0.326-9.467c0.003-3.154,0.323-6.34,0.815-9.451
				c0.47-3.118,0.998-6.212,1.15-9.319c0.103-1.53,0.028-3.128,0.173-4.725c0.122-1.59,0.345-3.167,0.636-4.727
				c0.588-3.119,1.406-6.176,2.298-9.194c0.88-3.022,1.767-6.036,2.42-9.104C323.563,445.779,323.963,442.65,323.907,439.5z"/>
		</g>
		<g>
			<path fill="#808080" d="M322.574,463.001c0.731,8.155,2.042,16.173,3.899,24.063l0.512,2.176l-1.949-1.115
				c-0.724-0.414-1.28-1.018-1.696-1.626c-0.42-0.612-0.727-1.24-1.004-1.848c-0.537-1.216-0.957-2.405-1.579-3.316l1.776-0.571
				c0.045,4.141-0.217,8.235-0.314,12.313l-0.043,3.053c0.004,1.009,0.073,2.022,0.102,3.058c0.068,2.044,0.083,4.217-0.703,6.146
				c0.42-2.027,0.125-4.052-0.164-6.068c-0.341-2.012-0.544-4.122-0.627-6.172c-0.188-4.127-0.122-8.236-0.201-12.3l-0.062-3.242
				l1.839,2.67c0.841,1.221,1.284,2.488,1.802,3.614c0.488,1.13,1.058,2.145,1.853,2.604l-1.438,1.061
				c-0.899-4.021-1.517-8.098-1.887-12.191C322.339,471.214,322.22,467.089,322.574,463.001z"/>
		</g>
		<g>
			<path fill="#808080" d="M408.575,335.667c0.078,1.317,0.218,2.62,0.493,3.897c0.244,1.279,0.581,2.539,1.007,3.766
				c0.853,2.451,1.966,4.808,3.354,6.992c0.656,1.127,1.47,2.05,2.383,3.005c0.888,0.956,1.839,1.875,2.705,2.884
				c0.87,1.003,1.716,2.052,2.358,3.24c0.611,1.183,1.023,2.578,0.7,3.883c0.09-1.328-0.403-2.577-1.122-3.636
				c-0.696-1.082-1.577-2.042-2.498-2.962l-2.822-2.749c-0.928-0.92-1.867-1.985-2.55-3.132c-1.411-2.27-2.54-4.723-3.239-7.3
				C408.637,340.987,408.301,338.299,408.575,335.667z"/>
		</g>
		<g>
			<path fill="#808080" d="M447.37,369.667c-0.233-1.085-0.37-2.212-0.37-3.304v-0.378l0.551,0.204
				c0.947,0.56,1.856,1.265,2.765,1.733c0.885,0.486,1.946,0.673,2.741,0.322c0.828-0.333,1.217-1.309,1.887-2.246
				c0.166-0.236,0.384-0.47,0.622-0.68c0.235-0.213,0.556-0.38,0.808-0.489c0.566-0.24,1.155-0.346,1.735-0.371
				c1.16-0.049,2.251,0.198,3.294,0.48c1.045,0.276,2.052,0.621,3.065,0.905c1.995,0.552,4.188,0.891,6.106-0.178
				c-0.836,0.678-1.922,1.038-3.014,1.136c-1.1,0.101-2.193-0.069-3.254-0.271c-2.114-0.388-4.167-1.171-6.146-1.096
				c-0.484,0.026-0.963,0.127-1.377,0.308c-0.447,0.182-0.723,0.428-1.024,0.834c-0.292,0.387-0.546,0.861-0.881,1.326
				c-0.167,0.234-0.37,0.462-0.599,0.672c-0.214,0.19-0.586,0.417-0.801,0.488c-0.614,0.237-1.23,0.274-1.828,0.153
				c-0.591-0.125-1.115-0.384-1.588-0.68c-0.945-0.598-1.722-1.351-2.551-1.972l0.243-0.174
				C447.611,367.488,447.342,368.563,447.37,369.667z"/>
		</g>
		<g>
			<path fill="#4D4D4D" d="M555.794,459.43c0.857-1.559,2.013-2.66,3.059-3.978c1.056-1.29,2.099-2.622,3.287-3.871
				c1.187-1.246,2.542-2.404,4.115-3.265c0.394-0.213,0.796-0.411,1.208-0.587c0.447-0.183,0.859-0.318,1.289-0.444
				c0.852-0.247,1.707-0.434,2.584-0.563c0.877-0.127,1.77-0.206,2.713-0.141c0.475,0.037,0.961,0.1,1.48,0.264
				c0.189,0.062,0.211,0.073,0.349,0.125c0.13,0.055,0.268,0.112,0.374,0.167c0.23,0.109,0.443,0.233,0.65,0.36
				c1.623,1.049,2.736,2.368,3.924,3.461c0.585,0.552,1.154,1.055,1.755,1.404c0.659,0.387,1.417,0.771,2.155,1.159
				c1.492,0.783,3.006,1.584,4.473,2.579c0.729,0.508,1.452,1.055,2.128,1.783c0.335,0.368,0.663,0.787,0.921,1.336
				c0.252,0.54,0.415,1.298,0.213,2.023c-0.192,0.723-0.625,1.244-1.036,1.616c-0.421,0.38-0.852,0.643-1.278,0.873
				c-0.436,0.229-0.839,0.402-1.296,0.576c-0.468,0.175-0.991,0.298-1.485,0.355c-2.047,0.218-3.855-0.424-5.451-1.068
				c-1.607-0.67-3.095-1.42-4.576-2.019c-1.478-0.589-2.979-0.994-4.402-0.833c-1.463,0.205-2.968,0.772-4.346,1.553
				c-1.385,0.786-2.671,1.788-3.879,2.893c-1.228,1.095-2.217,2.406-3.881,3.198c0.469-1.79,1.699-2.997,2.877-4.235
				c1.199-1.223,2.51-2.372,3.992-3.326c1.484-0.946,3.126-1.709,4.978-2.029c1.927-0.288,3.779,0.181,5.419,0.757
				c1.656,0.58,3.17,1.338,4.67,1.921c1.489,0.584,2.992,1.012,4.311,0.828c1.121-0.084,3.057-1.175,3.072-1.663
				c0.027-0.09,0.018-0.204-0.074-0.421c-0.099-0.212-0.281-0.468-0.513-0.717c-0.464-0.502-1.08-0.98-1.724-1.427
				c-1.299-0.901-2.743-1.69-4.21-2.478c-0.738-0.398-1.475-0.776-2.257-1.245c-0.842-0.508-1.527-1.137-2.149-1.741
				c-1.229-1.216-2.303-2.495-3.493-3.296c-0.607-0.404-1.108-0.581-1.861-0.65c-0.728-0.064-1.516-0.048-2.301,0.025
				c-0.786,0.074-1.579,0.205-2.348,0.386c-0.379,0.089-0.77,0.199-1.104,0.315c-0.366,0.135-0.725,0.288-1.077,0.456
				c-1.411,0.679-2.692,1.651-3.873,2.77c-1.184,1.12-2.278,2.374-3.41,3.621C558.623,457.455,557.521,458.851,555.794,459.43z"/>
		</g>
		<g>
			<path fill="#4D4D4D" d="M585.915,463.887c1.907-0.325,3.697,0.51,5.258,1.549c0.782,0.542,1.521,1.2,2.108,2.045
				c0.578,0.84,0.967,1.908,0.965,3.009c-0.014,0.376,0.002,0.421-0.051,0.785c-0.04,0.309-0.107,0.576-0.201,0.856
				c-0.183,0.56-0.537,1.106-0.993,1.525c-0.938,0.852-2.086,1.119-3.083,1.219c-2.035,0.155-3.863-0.265-5.637-0.721
				c-1.744-0.508-3.336-0.968-4.96-1.135c-1.604-0.192-3.133,0.033-4.639,0.595c-0.752,0.28-1.492,0.649-2.216,1.071
				c-0.729,0.42-1.386,0.852-2.045,1.392c-0.653,0.528-1.281,1.114-1.907,1.726c-0.627,0.604-1.351,1.167-2.408,1.382
				c0.165-1.062,0.622-1.815,1.198-2.506c0.576-0.685,1.179-1.37,1.842-2.022c0.653-0.645,1.407-1.289,2.186-1.794
				c0.775-0.512,1.598-0.984,2.482-1.372c1.757-0.814,3.839-1.075,5.75-0.884c1.901,0.193,3.717,0.752,5.36,1.237
				c1.624,0.466,3.309,0.821,4.817,0.749c0.746-0.033,1.413-0.216,1.812-0.555c0.205-0.167,0.353-0.378,0.476-0.647
				c0.058-0.133,0.112-0.294,0.141-0.421c0.037-0.068,0.071-0.469,0.081-0.532c0.125-1.343-0.75-2.75-1.993-3.803
				C588.994,465.549,587.47,464.914,585.915,463.887z"/>
		</g>
		<g>
			<path fill="#4D4D4D" d="M585.248,473.553c0.36,0.411,0.615,0.582,0.894,0.811c0.266,0.211,0.521,0.434,0.789,0.671
				c0.554,0.46,1.215,0.869,1.895,1.283c0.68,0.417,1.394,0.823,2.096,1.333c0.688,0.521,1.422,1.104,1.973,2.066
				c0.406,0.744,0.806,1.569,1.026,2.483c0.218,0.9,0.355,2.021-0.174,3.158c-0.26,0.556-0.684,1.04-1.154,1.364
				c-0.469,0.333-0.961,0.542-1.437,0.686c-0.954,0.28-1.861,0.343-2.737,0.346c-3.503-0.01-6.596-1.147-9.562-1.116
				c-1.455-0.009-3.041,0.249-4.42,0.692c-1.394,0.424-2.539,1.665-4.294,2.012c0.421-0.785,0.958-1.383,1.568-1.938
				c0.614-0.539,1.312-1.075,2.099-1.484c0.785-0.413,1.606-0.694,2.424-0.913c0.795-0.228,1.689-0.382,2.545-0.449
				c3.512-0.222,6.675,0.847,9.637,0.793c0.731-0.001,1.447-0.07,2.041-0.249c0.599-0.188,0.979-0.46,1.139-0.789
				c0.186-0.332,0.203-0.925,0.053-1.569c-0.156-0.654-0.4-1.318-0.723-2.007c-0.213-0.469-0.71-0.99-1.275-1.463
				c-0.564-0.483-1.201-0.96-1.85-1.45c-0.648-0.495-1.318-1.004-1.944-1.643c-0.314-0.314-0.613-0.688-0.769-1.166
				C584.943,474.56,584.916,473.949,585.248,473.553z"/>
		</g>
		<g>
			<path fill="#4D4D4D" d="M580.248,486.22c0.047-0.209,0.189-0.425,0.404-0.562c0.217-0.138,0.484-0.186,0.733-0.187
				c0.513-0.008,0.97,0.18,1.398,0.383c0.839,0.445,1.561,1.091,2.104,1.914c0.528,0.814,0.919,1.877,0.737,3.062
				c-0.174,1.196-1.021,2.211-1.898,2.749c-1.742,1.143-3.801,1.198-5.391,1.129c-0.812-0.009-1.561-0.047-2.298,0.1
				c-0.745,0.123-1.475,0.458-2.24,0.903c0.332-0.817,0.958-1.538,1.769-2.049c0.816-0.494,1.752-0.76,2.604-0.907
				c1.716-0.29,3.146-0.48,4.271-1.185c0.539-0.337,0.864-0.706,1.01-1.176c0.146-0.473,0.087-1.128-0.164-1.781
				c-0.246-0.651-0.635-1.318-1.15-1.859c-0.25-0.277-0.544-0.511-0.86-0.67C580.967,485.931,580.579,485.9,580.248,486.22z"/>
		</g>
		<g>
			<path fill="#4D4D4D" d="M549.833,451.693c-0.2-1.199-0.584-2.308-0.948-3.444c-0.183-0.568-0.382-1.136-0.539-1.733
				c-0.145-0.617-0.361-1.167-0.301-2.058l0.045-0.68l0.826-0.105c1.567-0.198,3.197-0.515,5.059-0.334
				c0.922,0.108,1.92,0.395,2.78,0.976c0.862,0.575,1.52,1.398,1.942,2.237c0.479,0.961,0.622,1.812,0.759,2.688
				c0.121,0.865,0.163,1.717,0.14,2.562c-0.017,0.844-0.08,1.68-0.186,2.511c-0.086,0.824-0.282,1.684-1.064,2.357
				c-0.453-0.909-0.477-1.66-0.464-2.448c-0.01-0.782-0.061-1.564-0.152-2.334c-0.097-0.769-0.215-1.529-0.392-2.252
				c-0.165-0.708-0.443-1.437-0.715-1.911c-0.714-1.157-1.631-1.762-2.992-2.006c-1.354-0.26-2.965-0.141-4.617-0.185l0.871-0.784
				c-0.085,0.3-0.071,0.944-0.025,1.499l0.141,1.784C550.076,449.236,550.133,450.5,549.833,451.693z"/>
		</g>
		<g>
			<path fill="#4D4D4D" d="M332.246,567.553c4.981-1.207,9.29-3.995,13.553-6.737c2.146-1.367,4.299-2.745,6.549-4.008
				c1.123-0.634,2.279-1.223,3.472-1.753c1.188-0.538,2.447-0.977,3.632-1.391c9.676-3.376,19.563-5.9,29.422-8.488
				c9.998-2.442,20.143-3.784,30.266-4.94c2.506-0.306,5.133-0.566,7.687-0.587c2.565-0.046,5.114-0.01,7.655-0.006
				c5.071,0.054,10.17-0.072,15.1-1.424c-2.375,0.936-4.893,1.509-7.428,1.872c-2.535,0.375-5.093,0.57-7.642,0.728
				c-5.118,0.265-10.137,0.383-15.127,1.273c-5.03,0.778-10.063,1.489-15.06,2.37c-4.996,0.853-9.979,1.812-14.863,3.04
				l-14.773,3.807c-4.919,1.268-9.805,2.649-14.648,4.126c-4.835,1.335-9.187,3.89-13.641,6.385
				c-2.233,1.229-4.484,2.458-6.826,3.507C337.238,566.379,334.781,567.232,332.246,567.553z"/>
		</g>
		<g>
			<path fill="#4D4D4D" d="M431.58,539.553c6.952-1.201,13.548-3.566,20.008-6.229c6.455-2.689,12.78-5.71,19.23-8.572
				c6.441-2.794,12.853-5.689,19.406-8.301c3.319-1.401,6.761-2.18,9.983-3.453c1.62-0.614,3.197-1.338,4.632-2.289
				c1.42-0.95,2.715-2.186,3.406-3.822c-0.444,1.724-1.629,3.21-3.006,4.354c-1.384,1.16-2.964,2.044-4.562,2.837
				c-3.218,1.569-6.613,2.605-9.714,4.094c-6.369,2.947-12.737,5.935-19.184,8.776c-6.425,2.799-12.847,5.752-19.523,8.117
				C445.609,537.429,438.654,539.344,431.58,539.553z"/>
		</g>
		<g>
			<defs>
				<path id="SVGID_1_" d="M347.42,184.012c0,0,21.792-6.974,26.445-9.265c4.651-2.29,8.143,12.69,8.143,12.69l-12.229,16.626
					l-20.783-5.985L347.42,184.012z"/>
			</defs>
			<clipPath id="SVGID_2_">
				<use xlink:href="#SVGID_1_"  overflow="visible"/>
			</clipPath>
			<g clip-path="url(#SVGID_2_)">
				<path fill="#4D4D4D" d="M372.963,178.401c6.299,3.996,3.709,15.773-1.75,19.626c-7.52,5.303-18.931,0.367-20.432-7.696
					c-2.312-12.421,10.784-23.943,21.133-13.548"/>
				<path fill="#666666" d="M372.963,178.401c6.299,3.996,3.709,15.773-1.75,19.626c-2.738,1.931-5.997,2.534-9.096,2.063
					c-13.067-1.983-2.273-10.848-3.004-14.782c-1.113-5.976-6.99-6.724-2.989-9.943c4.312-3.47,10.421-3.976,15.79,1.417"/>
				<circle fill="#4D4D4D" cx="368.571" cy="184.284" r="7.336"/>
				<circle fill="#FFFFFF" cx="370.014" cy="183.069" r="5.486"/>
				<g>
					<path fill="#333333" d="M366.75,178.271c-1.071,1.004-1.729,2.24-1.934,3.517c-0.197,1.275,0.042,2.571,0.699,3.631
						c0.632,1.076,1.666,1.893,2.884,2.314c1.226,0.415,2.624,0.412,4.013-0.064c-1.068,1.02-2.727,1.476-4.291,1.185
						c-1.576-0.26-3.029-1.276-3.872-2.672c-0.838-1.397-1.058-3.157-0.55-4.671C364.174,179.994,365.351,178.742,366.75,178.271z"
						/>
				</g>
				<g>
					<path fill="#333333" d="M368.174,196.492c-0.65,0.898-1.633,1.577-2.729,2.003c-1.104,0.4-2.313,0.556-3.486,0.476
						c-2.36-0.164-4.553-1.053-6.467-2.248c-0.469-0.298-0.947-0.632-1.432-1.034c-0.456-0.396-0.898-0.83-1.285-1.321
						c-0.779-0.976-1.331-2.165-1.559-3.349c-0.446-2.395-0.003-4.542,0.596-6.648c0.621,2.111,0.871,4.278,1.633,5.976
						c0.721,1.707,1.965,2.844,3.622,3.871c1.669,1.045,3.418,1.944,5.253,2.462C364.151,197.208,366.096,197.279,368.174,196.492z"
						/>
				</g>
			</g>
		</g>
		<g>
			<defs>
				<path id="SVGID_3_" d="M438.053,171.975c0,0,22.793,1.998,27.97,1.686c5.176-0.312,2.601,14.853,2.601,14.853l-17.708,10.602
					l-16.851-13.558L438.053,171.975z"/>
			</defs>
			<clipPath id="SVGID_4_">
				<use xlink:href="#SVGID_3_"  overflow="visible"/>
			</clipPath>
			<g clip-path="url(#SVGID_4_)">
				<path fill="#4D4D4D" d="M463.777,176.681c4.264,6.122-2.68,15.981-9.205,17.422c-8.984,1.982-17.6-6.985-15.863-15
					c2.671-12.35,19.205-17.908,24.727-4.319"/>
				<path fill="#666666" d="M463.777,176.681c4.264,6.122-2.68,15.981-9.205,17.422c-3.271,0.721-6.51,0.017-9.187-1.615
					c-11.282-6.884,2.101-10.883,2.948-14.793c1.285-5.941-3.844-8.904,1.09-10.325c5.318-1.532,11.148,0.365,14.012,7.415"/>
				<circle fill="#4D4D4D" cx="457.452" cy="180.407" r="7.336"/>
				<path fill="#FFFFFF" d="M456.623,175.03c-2.657,1.451-3.637,4.785-2.184,7.445c1.451,2.659,4.783,3.638,7.441,2.186
					c2.661-1.451,3.641-4.784,2.189-7.443C462.617,174.557,459.283,173.577,456.623,175.03z"/>
				<g>
					<path fill="#333333" d="M458.098,174.158c-1.376,0.512-2.46,1.397-3.144,2.496c-0.676,1.091-0.952,2.405-0.761,3.601
						c0.172,1.273,0.805,2.4,1.767,3.268c0.97,0.855,2.261,1.394,3.726,1.492c-1.38,0.526-3.085,0.307-4.415-0.566
						c-0.679-0.42-1.243-1.02-1.691-1.693c-0.433-0.675-0.721-1.489-0.843-2.25c-0.239-1.649,0.243-3.331,1.295-4.54
						C455.057,174.751,456.625,174.051,458.098,174.158z"/>
				</g>
				<g>
					<path fill="#333333" d="M452.364,191.511c-0.947,0.577-2.115,0.822-3.29,0.792c-1.174-0.058-2.35-0.382-3.4-0.911
						c-2.113-1.063-3.791-2.731-5.094-4.573c-0.316-0.456-0.629-0.95-0.92-1.508c-0.268-0.542-0.508-1.113-0.674-1.715
						c-0.342-1.201-0.391-2.511-0.143-3.691c0.515-2.382,1.754-4.19,3.121-5.901c-0.244,2.187-0.852,4.282-0.807,6.142
						c0.006,1.854,0.713,3.384,1.843,4.972c1.136,1.609,2.4,3.115,3.893,4.302C448.378,190.615,450.144,191.434,452.364,191.511z"/>
				</g>
			</g>
		</g>
		<g>
			<path fill="#4D4D4D" d="M451.962,220.381c-1.909-0.585-3.704-1.519-5.446-2.49c-1.748-0.971-3.433-2.039-5.128-3.077
				c-3.364-2.116-6.717-4.216-10.147-6.109c-3.442-1.86-6.971-3.542-10.644-4.587c-3.657-1.031-7.469-1.47-11.077-0.721
				c-3.766,0.736-7.374,2.016-10.729,3.884c-3.387,1.807-6.492,4.164-9.541,6.643c-3.038,2.495-6.02,5.14-9.166,7.612
				c-3.159,2.449-6.483,4.751-10.104,6.434c6.604-4.502,11.82-10.403,17.725-15.83c2.945-2.718,6.146-5.264,9.7-7.335
				c3.565-2.027,7.501-3.543,11.539-4.29c4.213-0.8,8.53-0.302,12.447,0.97c3.935,1.268,7.575,3.139,10.984,5.275
				c3.429,2.114,6.632,4.51,9.806,6.898c1.578,1.209,3.161,2.399,4.759,3.567C448.551,218.372,450.166,219.521,451.962,220.381z"/>
		</g>
		<g>
			<path fill="#4D4D4D" d="M320.327,185.016c1.335-5.596,2.651-11.114,5.161-16.52c1.277-2.675,2.984-5.307,5.303-7.461
				c2.305-2.167,5.164-3.72,8.089-4.675c1.469-0.476,2.956-0.821,4.442-1.074c1.52-0.245,2.922-0.358,4.23-0.564
				c2.692-0.391,5.323-0.995,7.838-1.906c2.504-0.923,4.916-2.146,7.062-3.829c2.2-1.628,4.089-3.71,5.874-5.972
				c-0.917,2.733-2.413,5.314-4.382,7.562c-1.988,2.225-4.452,4.09-7.156,5.437c-2.699,1.365-5.597,2.258-8.5,2.854
				c-1.486,0.318-2.919,0.468-4.197,0.734c-1.312,0.245-2.597,0.562-3.829,0.974c-2.477,0.797-4.74,1.977-6.687,3.602
				c-1.954,1.618-3.587,3.696-5.04,5.995C325.631,174.791,323.362,180.124,320.327,185.016z"/>
		</g>
		<g>
			<path fill="#4D4D4D" d="M485.859,155.222c-4.785-3.2-9.054-7.12-13.607-10.124c-2.273-1.493-4.619-2.71-7.067-3.376
				c-2.443-0.676-4.992-0.814-7.577-0.517c-1.293,0.133-2.593,0.376-3.89,0.695c-1.273,0.286-2.64,0.741-4.125,1.066
				c-2.89,0.657-5.897,1.042-8.919,0.914c-3.02-0.109-6.033-0.789-8.764-1.994c-2.723-1.233-5.15-2.966-7.115-5.076
				c2.561,1.322,5.141,2.438,7.816,3.012c2.65,0.645,5.352,0.762,8.014,0.567c2.666-0.209,5.312-0.747,7.924-1.503
				c1.277-0.354,2.602-0.83,4.087-1.235c1.457-0.384,2.955-0.684,4.488-0.858c3.059-0.339,6.305-0.106,9.298,0.914
				c3.001,1.004,5.643,2.695,7.912,4.604C478.852,146.196,482.332,150.677,485.859,155.222z"/>
		</g>
		<g>
			<path fill="#4D4D4D" d="M328.36,192.017c10.147-4.491,20.407-9.086,31.185-12.229c5.38-1.57,10.877-2.759,16.429-3.411
				c5.551-0.658,11.147-0.774,16.687-0.361c-5.555-0.043-11.094,0.446-16.52,1.459c-5.429,1.008-10.737,2.534-15.904,4.423
				c-10.35,3.782-20.113,8.958-29.942,14.117L328.36,192.017z"/>
		</g>
		<g>
			<path fill="#4D4D4D" d="M485.417,182.852c-10.651-3.127-21.241-6.284-32.132-7.959c-5.438-0.837-10.942-1.29-16.463-1.212
				c-5.519,0.072-11.047,0.681-16.484,1.815c5.35-1.493,10.86-2.479,16.432-2.924c5.572-0.451,11.195-0.366,16.779,0.117
				c11.185,0.964,22.146,3.455,32.979,5.864L485.417,182.852z"/>
		</g>
		<g>
			<g>
				<path fill="#4D4D4D" d="M335.713,328.891c-0.629,0.758-1.419,1.382-2.213,1.963c-0.795,0.587-1.618,1.124-2.44,1.653
					l-4.927,3.13c-3.263,2.081-6.435,4.251-9.477,6.585c-6.106,4.635-11.668,9.98-16.506,15.949
					c-4.763,5.91-8.491,12.736-11.935,19.638c-3.421,6.933-6.484,14.062-9.387,21.26c-2.899,7.2-5.626,14.478-8.272,21.788
					c-0.656,1.824-1.334,3.671-1.947,5.466c-0.611,1.813-1.178,3.658-1.724,5.512c-1.111,3.702-2.187,7.432-3.204,11.179
					c-2.066,7.487-3.864,15.057-5.641,22.629c-0.923,3.778-1.782,7.572-2.758,11.341c-1.053,3.754-1.496,7.636-3.651,11.159
					c-0.546-4.097,0.649-7.829,1.268-11.683c0.696-3.838,1.541-7.644,2.36-11.456c1.713-7.608,3.541-15.19,5.387-22.78
					c0.947-3.789,1.904-7.58,2.997-11.348c0.56-1.881,1.14-3.758,1.776-5.634c0.646-1.89,1.334-3.69,2.001-5.529
					c2.695-7.32,5.474-14.618,8.431-21.852c2.962-7.232,6.09-14.409,9.6-21.428c1.759-3.507,3.613-6.975,5.641-10.359
					c2.031-3.379,4.223-6.692,6.769-9.782c5.031-6.076,10.722-11.677,17.166-16.279c3.222-2.295,6.639-4.306,10.159-6.051
					c1.764-0.868,3.543-1.686,5.334-2.456C332.286,330.688,334.111,330.014,335.713,328.891z"/>
			</g>
			<path fill="none" stroke="#999999" stroke-width="1.4799" stroke-miterlimit="10" d="M501.224,311.682
				c1.178,3.459,17.343,6.705,21.596,9.264c4.197,2.523,5.888,8.626,8.913,12.367c-1.651-0.83-3.539-1.711-5.351-2.393"/>
			<g>
				<path fill="#666666" d="M502.703,313.654c1.127-0.769,2.388-0.896,3.522-0.779c1.156,0.12,2.201,0.593,3.25,0.986
					c2.081,0.846,4.044,1.878,5.938,2.991c3.78,2.24,7.294,4.805,10.712,7.449c3.416,2.646,6.723,5.401,10.034,8.094
					c1.662,1.349,3.301,2.662,5.009,3.926c1.734,1.29,3.465,2.696,5.094,4.15c6.586,5.831,11.93,12.967,16.188,20.563
					c4.278,7.609,7.565,15.646,10.656,23.658l4.558,12.017c1.534,3.998,3.09,8.008,4.528,12.081s2.766,8.211,3.81,12.447
					c0.995,4.255,1.862,8.387,2.809,12.584c3.71,16.729,7.517,33.456,10.857,50.294c1.67,8.418,3.232,16.861,4.639,25.331
					c0.703,4.235,1.369,8.478,1.992,12.725l0.91,6.348c0.346,2.086,0.725,4.233,1.006,6.38c0.573,4.3,0.851,8.667,0.611,13.036
					c-0.24,4.362-1.006,8.743-2.565,12.883c-1.544,4.137-3.96,7.986-7.114,11.101c-3.145,3.13-6.969,5.493-11.014,7.153
					c-4.018,1.689-8.469,2.705-12.905,2.361c-4.44-0.305-8.689-1.956-12.362-4.309c-3.695-2.354-6.902-5.327-9.857-8.464
					c-2.959-3.144-5.668-6.483-8.422-9.753c-1.378-1.64-2.764-3.245-4.246-4.787c-1.475-1.56-2.881-3.223-4.198-4.919
					c-2.645-3.404-4.985-7.016-7.237-10.666c-4.496-7.297-8.627-14.835-13.997-21.536c5.517,6.581,9.829,14.055,14.475,21.235
					c2.326,3.591,4.734,7.131,7.423,10.44c1.349,1.658,2.747,3.241,4.25,4.763c1.517,1.52,2.961,3.136,4.369,4.752
					c2.811,3.246,5.545,6.535,8.502,9.597c2.951,3.056,6.124,5.914,9.698,8.126c3.558,2.213,7.568,3.699,11.71,3.932
					c4.146,0.263,8.278-0.717,12.117-2.394c3.851-1.646,7.421-3.934,10.318-6.9c2.912-2.954,5.09-6.57,6.514-10.469
					c1.43-3.903,2.124-8.071,2.314-12.259c0.191-4.194-0.113-8.416-0.712-12.603c-0.296-2.101-0.681-4.17-1.057-6.309l-0.98-6.367
					c-0.665-4.226-1.372-8.443-2.116-12.655c-1.49-8.425-3.135-16.821-4.887-25.198c-3.5-16.755-7.385-33.439-11.226-50.148
					c-0.969-4.156-1.895-8.405-2.881-12.489c-1.035-4.079-2.354-8.104-3.799-12.101c-1.443-3.998-3.016-7.969-4.58-11.961
					l-4.645-11.99c-3.081-7.966-6.286-15.852-10.409-23.2c-4.09-7.358-9.211-14.09-15.4-19.716c-1.555-1.415-3.137-2.732-4.826-4.02
					c-1.724-1.305-3.414-2.689-5.065-4.059c-3.308-2.75-6.558-5.518-9.889-8.156c-3.329-2.635-6.729-5.167-10.303-7.336
					c-1.787-1.077-3.619-2.062-5.501-2.85c-0.935-0.415-1.909-0.671-2.824-1.104C504.567,315.115,503.712,314.593,502.703,313.654z"
					/>
			</g>
			<path fill="none" stroke="#999999" stroke-width="1.4799" stroke-miterlimit="10" d="M534.769,331.414
				c10.582,6.49,14.33,14.377,21.336,25.652c6.454,10.387,14.212,16.466,19.029,27.451c-0.411-0.471-1.005-1.102-1.439-1.623
				c1.482,4.525,1.148,7.609,3.447,11.773c2.639,4.779,5,9.982,6.794,15.192c3.21,9.326,5.838,19.059,8.102,28.493
				c3.044,12.692,1.025,26.761,5.729,38.588"/>
			<path fill="none" stroke="#666666" stroke-width="1.4799" stroke-miterlimit="10" d="M331.028,335.36
				c-5.854,0.341-11.76,8.06-16.279,11.657c-5.135,4.092-11.006,7.527-15.574,12.244c-3.543,3.658-4.81,8.008-7.162,12.36
				c-3.316,6.139-9.735,11.968-10.562,19.236"/>
			<g>
				<path fill="#999999" d="M380.886,416.585c1.308-1.217,2.667-2.377,4.047-3.513c1.378-1.139,2.778-2.256,4.227-3.309
					c2.882-2.126,5.89-4.104,9.062-5.825l1.031-0.56l0.247,1.186l0.556,2.661l-1.289-0.672c3.063-1.407,5.82-3.541,8.664-5.615
					c2.847-2.062,5.825-4.179,9.301-5.427c1.722-0.642,3.581-0.977,5.383-1.065c1.811-0.108,3.594-0.017,5.352,0.101
					c1.76,0.1,3.499,0.252,5.24,0.235c1.738-0.02,3.48-0.21,5.178-0.696c-1.602,0.753-3.369,1.143-5.136,1.349
					c-1.771,0.213-3.553,0.258-5.31,0.275c-1.757,0.033-3.498,0.062-5.195,0.25c-1.703,0.189-3.322,0.577-4.886,1.203
					c-3.124,1.271-5.94,3.295-8.753,5.375c-2.825,2.063-5.696,4.265-9.088,5.721l-1.091,0.468l-0.198-1.14l-0.468-2.704l1.278,0.626
					c-3.145,1.576-6.207,3.353-9.223,5.222c-1.499,0.946-3.004,1.894-4.491,2.87L380.886,416.585z"/>
			</g>
		</g>
		<g>
			<path fill="#4D4D4D" d="M513.878,383.002c0.451,0.427,0.779,0.863,1.109,1.307c0.013,0.462,0.059,0.921,0.085,1.381l0.202,2.741
				c0.075,0.909,0.162,1.813,0.271,2.712l0.179,1.344c-0.234,0.49-0.453,0.985-0.769,1.509c-0.475-0.384-0.841-0.798-1.211-1.218
				l-0.186-1.396c-0.111-0.931-0.201-1.86-0.277-2.786l-0.204-2.77c-0.036-0.459-0.053-0.919-0.104-1.375
				C513.237,383.975,513.498,383.493,513.878,383.002z"/>
		</g>
	</g>
</g>
<g id="transparencia_blanco">
	
		<linearGradient id="SVGID_5_" gradientUnits="userSpaceOnUse" x1="-7005.0669" y1="633.624" x2="-7005.0669" y2="430.3115" gradientTransform="matrix(-1 0 0 1 -6603 0)">
		<stop  offset="0.4169" style="stop-color:#FFFFFF"/>
		<stop  offset="1" style="stop-color:#FFFFFF;stop-opacity:0"/>
	</linearGradient>
	<rect x="4.135" y="430.311" fill="url(#SVGID_5_)" width="795.865" height="203.312"/>
	<g>
	</g>
	<g>
	</g>
	<g>
	</g>
	<g>
	</g>
	<g>
	</g>
	<g>
	</g>
	<g>
	</g>
	<g>
	</g>
	<g>
	</g>
	<g>
	</g>
	<g>
	</g>
	<g>
	</g>
	<g>
	</g>
	<g>
	</g>
	<g>
	</g>
	<g>
	</g>
	<g>
	</g>
	<g>
	</g>
</g>
</svg>
