<svg xmlns="http://www.w3.org/2000/svg" width="224.667" height="191.333" viewBox="0 0 224.667 191.333"><path fill="#E0D963" d="M162.573 11.602s9.123 12.168-.987 22.055c-10.111 9.883-21.054 15.096-26.314 21.395s-23.007 27.213-23.007 27.213-5.491 8.689-13.081 12.131c-7.59 3.443-42.518 13.664-42.518 13.664l-33.819 7.287-5.513 12.949s4.218 2.85 8.315 7.543c4.094 4.695 6.821 10.631 14.55 13.002 7.73 2.369 21.063 6.986 32.312 6.883 11.251-.102 24.543.246 34.808-4.346 10.267-4.596 24.397-12.129 32.68-18.197 8.282-6.066 18.758-17.193 23.45-24.545 4.695-7.354 9.025-17.053 13.926-27.088 4.9-10.037 5.188-22.051 5.073-31.195-.113-9.146-2.15-14.74-3.745-21.027-1.596-6.289-2.61-10.059-.711-12.35 1.898-2.293.583-8.277-4.465-7.268s-9.803 2.494-9.803 2.494l-1.151-.6z"/><path fill="#E6E6E6" d="M170.564 17.391c2.994 2.658-.639 6.686-2.179 9.629-2.128 4.072-1.576 7.729-7.098 9.287-.189-2.912 3.212-6.777 3.562-9.896.471-4.182-1.973-6.812-1.758-11.082.383-.184 1.321-.334 1.707-.301.687 2.176 3.18 1.793 4.563 3.266"/><path fill="#CCC" d="M179.288 15.283c-4.041.025-11.118 4.246-8.45 9.279-2.48.715-4.223-3.043-5.699-4.686-1.904-2.121-2.578-4.287-1.746-7.256.563-.168 1.752-.17 2.32 0-.242 3.857 4.699 3.738 6.727 2.662 1.887-.998 6.478-4.586 7.45-.602"/><path fill="#666" d="M19.736 112.58c-.374.865.888 3.426.902 4.66.015 1.301-.439 2.338-1.013 3.459-.879 1.734-3.495 4.447-3.174 6.451.574-.184 1.592-1.25 2.233-1.039.895.291.153 1.553.748 2.137 1.183-1.156 1.115-2.375 3.163-2.021 1.302.225 2.298 1.371 3.609 1.541 1.186.154 3.095-.35 4.142-.898 1.353-.701 1.473-1.723 2.026-3.012.788-1.82 5.518-4.477 2.44-6.055-.987-.51-2.478-.639-3.53-.975-1.241-.396-2.182-.873-3.39-1.502-2.245-1.174-5.396-2.43-7.706-2.447M161.299 11.543c-.691-.943 1.086-1.574 1.684-1.826.346-.145 1.035-.734 1.376-.74.495-.006.66.537.998.771.411.287 1.024.305 1.501.432.541.152 1.075.402 1.621.537 1.216.293 2.323.168 3.488-.238 1.089-.379 2.746-1.111 3.777-.205.409.361.561.92.871 1.32.265.334.633.52.935.758-.435.639-1.878 1.119-2.567 1.518-1.108.631-2.342.812-3.441 1.547-.599.4-1.9 2.01-2.421.795-.25-.576.153-.861-.639-.984-.51-.08-1.033.184-1.549.051-.84-.225-.637-.805-.762-1.486-.106-.58-.468-1.098-.919-1.5-.558-.504-1.221-.619-1.953-.623-.316-.006-.651.107-.94.064-.334-.051-.458-.463-.81-.064M167.411 17.689c.017.629.562 1.887.843 2.635.237.633 1.02 2.121-.396 1.729-.752-.207-1.179-1.352-1.35-2.031-.217-.844-.073-1.502.599-2.105"/><path fill="#E6E6E6" d="M23.794 113.33c1.55-.111 3.6-1.426 5.109-1.951 1.871-.648 3.827-1.123 5.718-1.623a87.545 87.545 0 0 1 5.411-1.236c1.789-.355 4.503-.988 6.297-.727.149 1.115-.327 2.924.292 3.773 1.241 1.703-1.431 2.68-2.673 3.229-3.149 1.387-6.8 3.213-9.186 5.701.898-2.725-2.448-3.273-4.201-3.895-2.269-.803-4.451-2.439-6.916-2.219"/><path fill="#CCC" d="M24.865 113.926c2.778-1.129 5.571-3.545 8.73-3.559 1.467-.004 2.522.986 3.661 1.725 1.061.693 2.484.865 3.395 1.424 2.75 1.682-2.04 3.807-3.216 4.658-1.385 1-1.435 1.275-2.774.15-.835-.709-1.636-1.406-2.558-2.004-1.795-1.162-4.749-1.902-6.792-2.25M21.502 126.902c-.111.023-.208-.008-.319.018-.298 1.473 1.399 1.822 2.322 2.586.688.568 1.178 1.279 1.576 2.131.347.736.786 5.406 2.062 5.062.405-.109.675-1.844.984-2.262.658-.893 1.409-1.072 2.398-1.355 1.012-.293 4.933-.48 4.654-2.117-.152-.895-2.179-1.613-2.847-2.059-.841-.559-1.852-2.172-2.94-2.121-.434.021-1.066.605-1.601.68-.62.09-1.39.033-2.005-.023-1.311-.125-2.349-.809-3.721-.764"/><path fill="#CCC" d="M41.237 116.529c-.76.5.569 1.479.793 2.146.293.893.074 1.926-.197 2.811-.632 2.066-1.785 3.693-2.849 5.535-.678 1.17-1.954 4.18-3.721 3.943-.82-.113-1.381-1.344-1.895-1.943-.722-.848-1.726-1.111-2.479-1.805-1.204-1.107-.103-1.852.656-2.77.873-1.055 1.516-2.178 2.447-3.215.918-1.02 1.753-2.102 2.761-3.016.948-.857 1.927-1.129 3.021-1.691"/><path fill="#303030" d="M52.818 125.66c-1.033-.852-2.619-.994-2.856.455-.287 1.752 1.571 2.084 2.446 3.148 1.1 1.338.304 2.137.118 3.473-.078.564.048 3.145.624 3.564 1.133.822 2.5-.82 2.678-1.766.202-1.078-.606-2.314.6-3.316.886-.73 2.382-.402 3.422-.627a26.09 26.09 0 0 1 4.097-.57c.542-.029.97.008 1.488-.176-.377-.605-2.295-.707-3.132-.916-1.134-.283-2.227-.705-3.318-1.045-1.055-.33-5.583-2.484-6.014-1.773"/><path fill="#4C4C4C" d="M123.198 127.316c-1.337-.086-4.507-.119-5.359-1.236.681-.361 1.558-.514 1.726-1.33-1.13-.568-2.58-.16-3.741.158-.316.084-1.125.258-1.344.447-.787.689-.138.625-.34 1.244-.242.74.319.551-.568 1.021-.532.277-1.485 0-2.071.176-.813.25-2.212 1.07-2.554 1.932-.779 1.971.732 1.428 1.92 1.799 1.76.547.687 1.301.176 2.445-1.207 2.727 2.754 3.127 4.479 4.209.568.357 1.559 1.531 2.26 1.316 1.288-.389-.234-1.402-.749-1.809-2.088-1.65-1.831-2.27-1.057-4.658.332-1.023.532-1.93.609-3.016.035-.516-.734-.361-.319-1.014.197-.307 1.207-.385 1.519-.484.944-.293 5.125-.336 4.958-1.053"/><path fill="#B3B3B3" d="M178.988 28.516s.26.809.668 2.355c.398 1.545.96 3.82 1.478 6.762a106.108 106.108 0 0 1 1.354 10.684c.316 4.15.451 8.861.157 13.998-.282 5.129-.956 10.691-2.307 16.457-1.361 5.758-3.354 11.727-6.208 17.549-2.841 5.822-6.463 11.537-10.914 16.711a305.197 305.197 0 0 1-3.466 3.783c-1.237 1.199-2.447 2.396-3.722 3.598-1.268 1.123-2.518 2.258-3.807 3.377-1.312 1.104-2.61 2.242-3.941 3.324-5.322 4.316-10.893 8.344-16.626 11.926-5.72 3.615-11.678 6.645-17.619 9.154-1.473.648-2.981 1.191-4.458 1.764a110.039 110.039 0 0 1-4.453 1.525c-1.49.438-2.95.914-4.425 1.273l-2.19.568c-.73.162-1.456.326-2.181.484-.361.084-.717.162-1.076.242-.362.066-.722.133-1.08.201l-2.133.395c-.708.125-1.418.213-2.116.32-.7.094-1.39.217-2.083.281-1.384.129-2.74.311-4.079.373-.667.045-1.334.086-1.989.129-.656.037-1.306.039-1.952.061a84.198 84.198 0 0 1-13.997-.771c-4.137-.564-7.677-1.385-10.562-2.135-1.438-.408-2.727-.742-3.823-1.123-1.099-.357-2.041-.646-2.788-.926l-2.3-.832s.818.234 2.35.666c1.536.43 3.805.986 6.705 1.604 2.907.58 6.459 1.168 10.556 1.543 4.098.367 8.742.479 13.778.164a92.279 92.279 0 0 0 16.058-2.488c5.601-1.377 11.381-3.336 17.141-5.877.717-.32 1.439-.641 2.164-.961.713-.348 1.431-.693 2.151-1.043 1.45-.674 2.859-1.461 4.298-2.199.721-.375 1.417-.793 2.128-1.189.706-.404 1.428-.789 2.129-1.215.703-.422 1.409-.842 2.117-1.268l1.061-.637 1.044-.666c5.596-3.539 11.037-7.52 16.252-11.795 1.313-1.053 2.578-2.148 3.866-3.221 1.28-1.1 2.55-2.236 3.823-3.354 1.191-1.113 2.387-2.285 3.583-3.422a331.604 331.604 0 0 0 3.354-3.625c1.03-1.273 2.095-2.516 3.087-3.805.484-.656.964-1.307 1.443-1.959.48-.65.968-1.295 1.39-1.979.441-.676.872-1.346 1.312-2.018.214-.336.441-.664.642-1.01l.595-1.033c.397-.689.79-1.377 1.183-2.061.401-.678.722-1.4 1.082-2.09a87.157 87.157 0 0 0 6.413-16.883c1.446-5.584 2.313-10.994 2.789-16.023.457-5.037.553-9.688.442-13.805a123.863 123.863 0 0 0-.774-10.656c-.358-2.941-.729-5.25-1.027-6.812-.292-1.562-.497-2.39-.497-2.39z"/><path fill="gray" d="M142.582 130.348s.17-.256.491-.678c.331-.426.823-1.016 1.446-1.678.312-.332.648-.695 1.02-1.061.369-.369.754-.762 1.168-1.146a78.594 78.594 0 0 1 2.634-2.381 96.68 96.68 0 0 1 2.724-2.264c.443-.355.875-.686 1.284-1 .401-.328.797-.617 1.16-.887.36-.273.694-.523.987-.748.288-.223.556-.406.755-.574.208-.166.371-.291.471-.393.107-.096.162-.15.162-.15s-.033.07-.099.197a3.53 3.53 0 0 1-.339.529c-.308.443-.796 1.033-1.412 1.709a45.506 45.506 0 0 1-2.178 2.221 77.236 77.236 0 0 1-2.63 2.385 96.377 96.377 0 0 1-2.735 2.258c-.889.697-1.722 1.342-2.454 1.879-.358.275-.699.516-1.002.729-.288.221-.553.406-.77.559-.426.324-.683.494-.683.494z"/><path fill="#303030" d="M26.351 116.189s.268-.412.863-.92 1.519-1.092 2.814-1.518c1.269-.467 2.847-.992 4.647-1.613a84.096 84.096 0 0 1 2.88-.943c1.017-.316 2.086-.652 3.201-1.002 2.247-.656 4.682-1.363 7.281-2.023 1.298-.342 2.639-.65 4.008-.984a266.62 266.62 0 0 1 4.211-.93c2.861-.607 5.837-1.146 8.856-1.672 3.025-.512 6.095-.996 9.127-1.574 3.016-.592 6.016-1.391 8.928-2.25a95.795 95.795 0 0 0 8.427-2.922 85.967 85.967 0 0 0 7.59-3.443 51.164 51.164 0 0 0 6.39-3.82 90.841 90.841 0 0 0 4.977-3.791c1.443-1.176 2.655-2.246 3.667-3.131.252-.213.491-.422.712-.611.222-.215.439-.4.636-.58.36-.352.668-.654.902-.938.478-.559.735-.857.735-.857l-.082.281c-.062.182-.131.461-.275.805a7.964 7.964 0 0 1-.644 1.254c-.149.225-.301.465-.48.711-.188.248-.386.514-.599.795-.856 1.088-2.019 2.316-3.475 3.58-1.456 1.262-3.216 2.543-5.229 3.775a104.468 104.468 0 0 1-6.634 3.709 88.704 88.704 0 0 1-7.716 3.457 118.39 118.39 0 0 1-8.528 2.971c-2.949.889-5.957 1.709-9.032 2.334-3.059.645-6.123 1.154-9.114 1.771a186.18 186.18 0 0 0-8.729 1.949 240.16 240.16 0 0 0-8.07 2.168c-1.274.383-2.52.725-3.716 1.09-1.195.363-2.353.717-3.461 1.055-2.213.695-4.246 1.322-6.037 1.912-1.789.582-3.352 1.066-4.64 1.52-1.274.475-2.362.596-3.142.566-.784-.022-1.249-.181-1.249-.181zM30.411 129.498s.059-.217.173-.617c.13-.393.331-.977.664-1.686a15.86 15.86 0 0 1 1.459-2.434c.639-.895 1.479-1.818 2.466-2.746.979-.938 2.145-1.84 3.448-2.672 1.306-.828 2.747-1.584 4.26-2.299a63.186 63.186 0 0 1 4.757-2.027 20.369 20.369 0 0 1 5.293-1.168c1.813-.154 3.632-.082 5.392.119 1.759.203 3.463.525 5.093.887 1.63.354 3.18.76 4.652 1.125.731.18 1.449.355 2.137.523.685.168 1.356.338 1.99.477 1.288.285 2.462.51 3.523.723 1.06.199 1.976.438 2.721.672.744.24 1.317.477 1.694.672.388.178.581.301.581.301s-.868-.152-2.389-.412c-.762-.131-1.693-.248-2.751-.424-1.056-.182-2.262-.369-3.566-.609-2.618-.49-5.616-1.271-8.838-1.943-1.613-.324-3.282-.639-4.986-.781-1.707-.145-3.442-.17-5.141.021-.851.109-1.685.281-2.491.531-.402.123-.8.275-1.184.422l-.559.234-.597.275c-.735.354-1.512.764-2.249 1.139-.741.377-1.473.748-2.18 1.125-1.418.76-2.728 1.57-3.96 2.32-1.234.754-2.397 1.461-3.422 2.191a34.78 34.78 0 0 0-1.444 1.086c-.442.363-.857.721-1.24 1.068a21.105 21.105 0 0 0-1.858 1.951c-.255.281-.455.557-.644.793-.171.246-.32.453-.437.625l-.367.538z"/><path fill="#303030" d="M31.484 126.916s.211.164.58.457c.364.275.917.736 1.521 1.266.617.537 1.302 1.184 2.04 1.873a90.001 90.001 0 0 0 2.312 2.119c.405.342.806.693 1.22 1.004.407.332.834.615 1.24.908.423.256.82.533 1.227.736l.585.32c.197.086.385.172.566.256.36.176.708.291 1.013.402.153.057.295.107.428.154a462.164 462.164 0 0 1 1.083.302l-.721-.139c-.117-.027-.244-.049-.384-.078l-.446-.121c-.314-.088-.675-.18-1.054-.328l-.591-.215c-.202-.09-.407-.178-.621-.271-.432-.176-.858-.43-1.311-.656-.435-.262-.894-.52-1.334-.822-.45-.291-.887-.611-1.325-.926a86.493 86.493 0 0 1-2.494-1.949c-.785-.627-1.514-1.213-2.152-1.682a29.494 29.494 0 0 0-1.555-1.104l-.617-.408a.68.68 0 0 1-.196-.938.685.685 0 0 1 .942-.195l.044.035z"/><path fill="#303030" d="M41.216 133.617s.247-.012.684.016l.368.029c.147.029.312.076.492.131.354.117.802.248 1.172.447.838.357 1.694.934 2.583 1.631.887.699 1.712 1.518 2.589 2.232.507.412 1.052.904 1.559 1.227.523.35 1.019.762 1.648 1.148.303.197.612.398.917.602.319.197.648.395.975.604l.492.311.25.154.063.041c.013.008-.073-.035-.028-.014l.02.01.032.02.129.074 1.071.613.536.318.523.275c.348.188.701.377 1.055.566.738.361 1.491.744 2.264 1.094a59.392 59.392 0 0 0 4.816 1.947c1.65.596 3.329 1.109 5 1.605 1.669.48 3.319.949 4.909 1.412 1.592.463 3.132.883 4.589 1.332 1.457.432 2.829.832 4.109 1.135 1.287.299 2.474.527 3.542.619 1.064.094 2 .078 2.767.006.76-.098 1.351-.248 1.74-.387.382-.154.591-.236.591-.236l-.585.254c-.384.154-.972.322-1.737.447-.769.094-1.711.145-2.788.08a29.997 29.997 0 0 1-3.596-.455c-1.306-.234-2.708-.564-4.185-.922-1.47-.357-3.042-.684-4.654-1.051-1.615-.363-3.287-.734-4.983-1.113-1.694-.371-3.436-.736-5.159-1.168a93.253 93.253 0 0 1-2.583-.67c-.862-.215-1.708-.48-2.554-.73-.841-.258-1.666-.553-2.49-.84a93.91 93.91 0 0 1-1.222-.479l-.604-.24c-.191-.086-.383-.168-.573-.254-.378-.17-.753-.34-1.122-.504-.421-.189-.752-.371-1.127-.553-.363-.182-.722-.359-1.066-.553a402.49 402.49 0 0 1-1.029-.594c-.677-.371-1.331-.824-1.964-1.248-.664-.414-1.167-.85-1.696-1.258l-.386-.303-.096-.074-.049-.037-.022-.02-.055-.047-.011-.01-.183-.174c-.236-.23-.49-.459-.701-.676-.443-.438-.825-.857-1.185-1.248-.721-.754-1.314-1.428-1.838-1.895-.266-.26-.476-.436-.668-.6-.098-.082-.183-.162-.268-.24-.11-.068-.209-.133-.297-.189-.344-.236-.531-.367-.531-.367a.676.676 0 0 1-.176-.938.695.695 0 0 1 .528-.291l.198-.002zM52.367 123.857s.463-.15 1.141-.291c.341-.074.739-.146 1.172-.201.221-.021.445-.059.678-.066.227-.02.465-.021.705-.025.234.006.477.014.711.039.237.02.469.066.692.113.225.041.438.115.635.184.199.076.382.148.543.242.164.086.302.176.423.27.12.088.22.17.292.248.149.15.226.242.226.242s-.122-.029-.314-.088a7.192 7.192 0 0 0-.804-.182c-.326-.061-.703-.1-1.114-.131-.205-.014-.418-.014-.637-.023-.221-.006-.442-.01-.662-.01-.448-.006-.904-.006-1.331-.018a13.009 13.009 0 0 1-1.189-.076c-.705-.074-1.167-.227-1.167-.227zM61.541 124.309a7.65 7.65 0 0 1 1.802-.266c.305-.004.615.014.922.066.154.025.304.072.456.109.146.057.292.117.433.188l.015.008a.073.073 0 0 1 .04.08.392.392 0 0 1-.011.066c-.014.027 0 .037 0 .057.003.023.033.045.05.068l.053.074-.082-.037c-.027-.012-.062-.012-.088-.041-.029-.027-.062-.064-.066-.096-.007-.035-.016-.072-.022-.109l.057.09c-.151-.006-.294-.031-.442-.039l-.437-.021c-.147 0-.292-.004-.435-.01-.149.002-.296 0-.443-.006a14.279 14.279 0 0 1-.895-.037 4.665 4.665 0 0 1-.907-.144zM70.876 126.148a.51.51 0 0 1-.179-.033c-.479-.184-.913-.587-1.188-1.107a.5.5 0 0 1 .884-.469c.162.306.409.546.662.643a.5.5 0 0 1-.179.966zM102.896 126.562s.493-.074 1.235-.148c.185-.016.385-.033.6-.055.213-.01.431-.066.657-.096.456-.072.948-.137 1.43-.199.487-.084.972-.182 1.428-.252.228-.045.451-.066.661-.107.205-.045.404-.088.583-.125.73-.145 1.229-.217 1.229-.217s-.468.176-1.18.4c-.357.115-.772.248-1.232.342-.456.1-.944.201-1.432.295-.499.057-.994.115-1.464.16-.232.021-.458.053-.671.047-.212-.002-.414-.002-.602-.002a24.615 24.615 0 0 1-1.242-.043zM113.572 124.01s.341-.012.937-.025c.149-.006.313-.012.493-.016.18-.023.371-.053.576-.084.412-.062.877-.111 1.365-.256.25-.064.506-.131.774-.197.264-.072.53-.174.808-.264.56-.174 1.133-.402 1.726-.637.591-.23 1.192-.506 1.809-.773.611-.271 1.229-.555 1.853-.832a11.15 11.15 0 0 0 1.771-.986c.555-.371 1.094-.77 1.651-1.104.548-.344 1.129-.605 1.686-.836a10.272 10.272 0 0 1 1.646-.521c.26-.07.524-.104.771-.135.245-.037.487-.041.711-.043.447.002.843.043 1.156.137.314.062.55.168.703.244l.235.107c.109.051.158.18.106.285a.216.216 0 0 1-.211.125l-.036-.004-.238-.016c-.153-.014-.368-.043-.646-.023a2.015 2.015 0 0 0-.46.029c-.163.018-.342.021-.531.07a8.125 8.125 0 0 0-1.257.33c-.462.139-.948.35-1.471.559-.518.234-1.062.486-1.654.719-.59.236-1.217.455-1.862.676-.654.23-1.31.445-1.938.693-.634.258-1.262.516-1.884.768-.626.242-1.237.5-1.844.707-.601.219-1.187.424-1.756.576-.281.082-.551.172-.821.236-.27.057-.53.115-.782.17-.498.127-.965.168-1.379.227-.205.023-.396.051-.576.072-.18.002-.344.008-.493.01l-.938.012z"/><path fill="#666" d="M140.642 114.383s.68-.285 1.871-.789l.987-.416a14.01 14.01 0 0 0 1.148-.521c.807-.396 1.716-.846 2.712-1.332l3.12-1.746c1.07-.674 2.211-1.371 3.366-2.135.566-.396 1.143-.803 1.726-1.207.292-.207.59-.406.877-.621l.861-.66c.572-.443 1.152-.891 1.733-1.336l1.694-1.42a37.375 37.375 0 0 0 1.663-1.455c.539-.498 1.095-.977 1.616-1.479 1.039-1.014 2.069-2.002 3.012-3.014.969-.984 1.842-1.996 2.692-2.932.814-.973 1.606-1.869 2.286-2.74a75.176 75.176 0 0 0 1.854-2.379c.548-.707.989-1.354 1.372-1.875.376-.52.654-.941.852-1.223.196-.287.302-.438.302-.438l.006-.006a.336.336 0 0 1 .472-.086c.153.109.19.318.084.473l-.312.436c-.203.283-.492.701-.877 1.225-.393.518-.847 1.16-1.41 1.867a74.608 74.608 0 0 1-1.897 2.365c-.697.869-1.509 1.762-2.341 2.727-.87.932-1.762 1.932-2.75 2.908-.961 1.006-2.012 1.98-3.071 2.984-.534.5-1.094.971-1.645 1.461-.55.492-1.108.98-1.69 1.438-.573.469-1.147.936-1.72 1.4l-1.761 1.316-.871.65c-.294.211-.596.408-.892.611-.591.398-1.174.795-1.749 1.184-1.163.752-2.319 1.434-3.405 2.094-1.119.607-2.176 1.176-3.15 1.707-1.001.473-1.923.908-2.736 1.295-.405.201-.791.363-1.152.504-.363.146-.693.281-.995.404-1.196.485-1.882.761-1.882.761z"/><path fill="#303030" d="M31.916 129.576l.169-.797c.058-.262.17-.518.259-.779.196-.516.431-1.012.695-1.488.249-.484.517-.953.777-1.42a18.3 18.3 0 0 0 .707-1.406l.283-.713.091-.355c0-.096.013-.174.013-.262-.025-.371-.211-.654-.583-.908-.354-.258-.815-.463-1.3-.65l-1.503-.57-3.013-1.16c-1.011-.312-2.01-.658-3.018-.988l-.778-.27-.792-.318-1.48-.66a22.79 22.79 0 0 0-1.453-.596l-.722-.242c-.243-.061-.485-.107-.731-.168l.576-.576.071.436c.043.15.075.301.125.451l.328.949c.056.172.121.328.164.51.044.18.189.348.208.535.026.188.144.369.144.562v.281l-.09.074c-.003.051-.047.051-.05.076l-.041.131c-.041.324-.135.691-.208 1.025l-.235.986-.091.496-.058.494.009.5.1.5-.197-.479-.107-.514-.033-.521.014-.52c.015-.346.049-.689.085-1.025.028-.34.059-.648.059-.998v-.125c0-.018.005-.061 0-.051l-.009-.057-.022-.225c-.005-.15-.057-.301-.094-.447-.027-.146-.097-.297-.147-.443-.053-.148-.132-.301-.197-.449-.14-.297-.293-.609-.431-.941-.067-.166-.123-.346-.187-.52-.049-.182-.088-.375-.132-.566l-.155-.684.731.109c.286.045.574.082.859.135.275.07.557.131.824.209.536.172 1.057.357 1.564.559l1.499.592.715.275.75.244c1.042.332 2.09.648 3.127 1.002l2.993 1.215 1.495.645c.505.225 1.034.471 1.536.871.247.195.481.459.657.773.18.316.25.697.244 1.047-.009.178-.049.361-.082.535l-.147.414-.377.766c-.281.484-.581.953-.893 1.391-.302.451-.643.879-.946 1.314-.155.217-.312.436-.451.66-.14.225-.312.441-.424.676-.124.23-.265.457-.379.703l-.315.75z"/><path fill="#4C4C4C" d="M21.692 118.443s.098-.309.235-.854c.071-.271.145-.609.264-.988.128-.377.244-.83.656-1.256.216-.209.58-.342.925-.291.321.066.609.205.855.381l.188.133c.033.025.056.037.099.074l.08.066c.111.09.22.182.334.275.217.189.451.408.667.613.437.418.878.84 1.351 1.209.478.365.981.695 1.543.916.562.234 1.187.447 1.784.73.601.275 1.197.641 1.643 1.209.205.295.369.633.412.99l.003.031.076.018.078.039V121.908c0 .062-.078.154-.093.248-.016.186-.098.33-.137.475-.167.58-.449 1.051-.689 1.48-.489.848-.96 1.504-1.259 1.98-.144.24-.267.43-.334.562l-.105.209s.017-.08.052-.23c.048-.141.112-.357.22-.623.211-.527.56-1.258.946-2.133.182-.434.375-.916.48-1.41.027-.125.046-.25.046-.348a.538.538 0 0 0 .003-.178l-.008-.107-.007-.053v-.008c-.003-.033.007.035.002.027l-.004-.012-.003-.021a1.54 1.54 0 0 0-.305-.617c-.319-.377-.828-.662-1.379-.906-.551-.252-1.151-.445-1.775-.697-.636-.26-1.216-.648-1.733-1.064-.525-.418-.954-.895-1.368-1.322l-.604-.629-.31-.301-.073-.076a.417.417 0 0 1-.068-.059l-.147-.119a1.86 1.86 0 0 0-.572-.336.582.582 0 0 0-.48.092c-.295.24-.503.648-.67.99-.162.357-.301.668-.415.926a11.218 11.218 0 0 1-.404.795z"/><path fill="#303030" d="M19.584 119.047c.085.094.195.168.251.295l.103.17.066.188c.095.246.144.514.167.77.03.264.044.529.039.791 0 .262-.025.523-.047.783a10.345 10.345 0 0 1-.269 1.555 7.394 7.394 0 0 1-.226.766 4.14 4.14 0 0 1-.346.781c-.14.234-.275.438-.43.662l-.448.631c-.293.414-.574.82-.805 1.236-.108.207-.216.412-.305.621a4.545 4.545 0 0 0-.205.635 3.899 3.899 0 0 0-.084.646c-.006.213.012.432.035.646l-.524-.551a.45.45 0 0 0 .088-.006c.023-.01.044-.018.082-.039.07-.045.188-.158.323-.309.069-.078.145-.166.245-.264.095-.094.227-.203.39-.299.176-.094.402-.168.629-.158l.085.004h.062l.011-.006h.005l.1.027.074.023.041.016c.014 0 .014 0 .062.021.077.035.152.078.224.129.265.195.337.371.422.551.064.164.099.318.12.451.041.271.044.506.053.729l.008.613c0 .092.009.174.016.244l.016.09c.006.018.009.021.009.037l-1.067-.209c.136-.121.261-.318.378-.57.124-.25.237-.547.395-.865.162-.318.388-.68.747-.965.367-.285.799-.41 1.22-.441l.119-.004.178.008c.125.006.227.023.319.037.193.037.37.09.539.15.337.115.64.26.931.404.574.275 1.108.592 1.594.717.103.031.272.055.424.08.16.027.299.043.448.064.297.037.601.062.9.086.299.021.598.027.899.016.295-.01.592-.033.878-.088.294-.045.578-.115.848-.219.271-.102.517-.248.745-.426.11-.09.205-.197.311-.301.079-.121.169-.234.249-.363.056-.131.129-.268.178-.408l.124-.443.013-.041.021-.01.299-.084.303-.031-.288.09-.261.137.034-.049-.038.482c-.027.16-.08.316-.124.48-.058.152-.138.299-.21.453-.1.137-.189.283-.304.406a3.23 3.23 0 0 1-.81.621 4.24 4.24 0 0 1-.931.381c-.319.096-.643.16-.968.205-.327.047-.653.07-.98.084-.327.016-.649.01-.976-.008-.163-.01-.336-.016-.489-.031-.157-.018-.3-.021-.504-.055a5.677 5.677 0 0 1-1.01-.307c-.307-.123-.591-.258-.873-.379a7.235 7.235 0 0 0-.809-.311 2.35 2.35 0 0 0-.369-.082c-.064-.012-.115-.012-.147-.012l-.058-.008-.114.012a.983.983 0 0 0-.509.207c-.135.107-.258.283-.376.527-.117.242-.223.531-.368.846-.15.312-.34.674-.666.986l-.715.68-.351-.893a2.505 2.505 0 0 1-.095-.262c-.014-.074-.031-.15-.044-.223a4.61 4.61 0 0 1-.036-.387c-.013-.238-.004-.457-.008-.656 0-.203-.005-.393-.023-.541-.01-.072-.029-.127-.035-.164-.003-.01-.034-.025.054.049a.194.194 0 0 0 .092.031c.032.006.003 0-.007-.004l-.037-.014-.073-.021a.905.905 0 0 0 .092.02V129.93l.004.014h.003c.012 0 .037-.021.021-.021-.017.014-.054.027-.111.082-.053.049-.12.119-.193.195-.147.156-.323.359-.616.539-.071.041-.155.08-.236.117-.088.029-.18.053-.271.074-.189.031-.37.023-.542-.004l-.491-.078-.038-.473a5.756 5.756 0 0 1-.006-.881 5.28 5.28 0 0 1 .152-.867 6.2 6.2 0 0 1 .305-.812c.125-.254.259-.5.411-.729.305-.457.639-.869.969-1.264l.484-.588.464-.582c.116-.166.237-.371.334-.592.105-.217.199-.445.281-.678.168-.467.329-.941.442-1.43.055-.244.109-.488.144-.734.049-.246.078-.494.088-.74a3.63 3.63 0 0 0-.023-.746 1.297 1.297 0 0 0-.271-.685z"/><path fill="#4C4C4C" d="M25.9 116.037l.701.023c.222.002.486.004.793-.004.307-.004.651-.021 1.029-.037.377-.018.789-.035 1.224-.059.437-.012.905-.029 1.388 0a8.5 8.5 0 0 1 1.513.188 7.66 7.66 0 0 1 1.518.504l.358.186.088.043c.066.037.066.043.097.064l.163.1c.209.121.435.293.656.469a4.1 4.1 0 0 1 1.016 1.262c.236.48.335.994.354 1.467.024.479-.074.906-.162 1.295a7.287 7.287 0 0 1-.741 1.725c-.103.197-.211.342-.271.441-.068.1-.101.154-.101.154s.077-.242.209-.666c.065-.211.133-.471.209-.764.071-.295.132-.631.183-.988.026-.361.059-.754-.001-1.145a3.403 3.403 0 0 0-.38-1.146c-.211-.357-.528-.67-.864-.957l-.26-.195c-.084-.068-.209-.131-.314-.195l-.161-.098c-.017-.012-.072-.047-.065-.037l-.078-.039-.321-.158a6.777 6.777 0 0 0-1.328-.473c-.46-.109-.923-.197-1.38-.242-.913-.105-1.805-.137-2.565-.221a12.58 12.58 0 0 1-1.834-.297c-.217-.047-.38-.113-.499-.143l-.174-.057z"/><path fill="#666" d="M32.063 126.562h.153c.096.006.239.027.393.094.148.076.323.176.48.311.162.131.321.283.477.439.298.318.584.654.807.893.224.238.401.375.401.375s-.194-.109-.442-.332c-.252-.217-.545-.545-.85-.857-.296-.32-.62-.609-.903-.77-.074-.031-.137-.07-.197-.09-.062-.016-.118-.041-.167-.043l-.152-.02zM33.57 128.072s.037.074.098.209c.07.135.178.312.312.531.278.424.679.969 1.136 1.465.231.248.465.49.711.689.117.105.237.197.354.279.115.09.241.148.346.215.114.051.218.105.312.141.099.023.185.055.259.064.144.008.228.01.228.01s-.084.006-.233.008a1.76 1.76 0 0 1-.596-.164c-.109-.062-.241-.119-.36-.201a3.656 3.656 0 0 1-.375-.275 7.35 7.35 0 0 1-.732-.689 10.724 10.724 0 0 1-.63-.777c-.191-.256-.341-.516-.476-.734a5.067 5.067 0 0 1-.273-.555c-.051-.14-.081-.216-.081-.216zM35.525 124.309s.126.027.307.076c.182.061.428.1.665.156.248.049.492.104.675.141.188.043.309.078.309.078s-.129 0-.317-.014c-.19-.01-.438-.053-.688-.092a18.596 18.596 0 0 1-.358-.098c-.118-.027-.22-.076-.306-.111-.176-.08-.287-.136-.287-.136zM34.02 126.715l.154.223.175.254c.058.098.151.197.249.307.096.107.199.225.309.35.117.117.256.227.391.348.128.125.27.248.433.35.156.105.309.223.475.326.167.092.336.184.507.271.16.102.343.15.509.217.175.055.33.146.492.17.165.037.317.07.456.104.142.037.275.053.392.055.12.006.223.014.307.018l.266.016-.266.006c-.088.002-.191.002-.311.002h-.186c-.071-.006-.138-.023-.211-.031-.144-.027-.3-.057-.465-.09-.169-.018-.33-.098-.507-.154-.169-.064-.356-.115-.523-.217-.17-.088-.346-.178-.521-.271-.163-.105-.316-.223-.477-.336a2.942 2.942 0 0 1-.437-.359c-.134-.125-.27-.242-.383-.367a22.215 22.215 0 0 0-.3-.367 1.673 1.673 0 0 1-.235-.326l-.155-.264c-.087-.151-.138-.235-.138-.235zM37.933 127.621l-.164-.016c-.103-.02-.256.004-.429-.057a4.85 4.85 0 0 1-.279-.084c-.103-.025-.197-.082-.3-.129-.207-.086-.402-.234-.608-.359-.185-.154-.374-.297-.535-.451-.172-.15-.312-.299-.441-.428-.246-.256-.402-.438-.402-.438s.18.158.446.395c.132.121.291.254.459.398.165.15.355.285.542.434.194.127.382.275.582.363.101.045.188.109.285.141.094.035.181.064.265.098.163.07.318.07.417.098.103.019.162.035.162.035zM40.036 126.715l-.219-.008a5.778 5.778 0 0 0-.254-.014c-.094-.006-.205-.002-.321-.043a11.334 11.334 0 0 1-.378-.098c-.144-.027-.272-.094-.41-.15-.138-.064-.287-.115-.423-.197-.139-.078-.281-.15-.42-.23-.549-.33-1.082-.68-1.509-.895-.205-.119-.397-.176-.524-.236-.129-.051-.203-.084-.203-.084s.077.023.208.068c.129.049.337.08.545.197.22.104.476.219.732.375l.805.479c.14.078.277.158.413.232.134.086.278.135.415.201.136.057.26.133.392.162.127.041.251.078.363.115.227.07.432.066.568.098.141.014.22.028.22.028zM36.428 124.01s.117-.012.329-.037c.105 0 .227-.041.367-.068.143-.027.297-.088.471-.137.342-.105.726-.264 1.148-.418.213-.078.438-.15.663-.213.119-.025.229-.062.355-.08l.357-.041c.24-.02.477-.051.712-.062.235.004.471.01.696.012.452.004.867.049 1.228.066.715.043 1.195.076 1.195.076s-.121 0-.331-.004c-.212-.004-.51.004-.868-.012-.357-.008-.779-.047-1.224-.041h-.685c-.235.016-.473.053-.711.078l-.356.033c-.11.016-.23.049-.342.072a6.35 6.35 0 0 0-.657.197c-.423.143-.816.291-1.163.395-.174.047-.331.1-.478.113-.146.021-.272.059-.375.057l-.331.014z"/><path fill="#303030" d="M91.38 154.795l-3.477.334c-1.116.086-2.464.217-4.014.303-1.549.1-3.298.203-5.208.256-.954.029-1.947.057-2.979.057-1.031.021-2.097-.004-3.191-.021-2.189-.051-4.5-.123-6.887-.332a82.993 82.993 0 0 1-7.322-.932c-2.479-.43-4.984-.965-7.454-1.67-2.473-.689-4.894-1.553-7.228-2.512-1.166-.475-2.306-.992-3.422-1.438-.277-.109-.553-.223-.823-.314-.29-.102-.574-.205-.858-.307a22.289 22.289 0 0 1-1.732-.748 22.1 22.1 0 0 1-5.824-4.117c-1.628-1.592-2.922-3.326-3.958-5.014a27.99 27.99 0 0 1-1.354-2.502c-.396-.805-.712-1.658-.998-2.262a9.961 9.961 0 0 0-2.074-2.893c-.723-.709-1.409-1.207-1.945-1.789a3.296 3.296 0 0 1-.617-.889 1.988 1.988 0 0 1-.127-.34l-.036-.123a1.206 1.206 0 0 1 .83-1.492c.43-.121.87.004 1.172.287l.619.602c.007.006-.01-.029-.01-.029s.015.072.147.232c.249.322.949.906 1.771 1.787a12.549 12.549 0 0 1 2.42 3.688c.335.812.56 1.516.9 2.289.332.762.713 1.547 1.158 2.344a22.81 22.81 0 0 0 3.489 4.727c1.448 1.504 3.199 2.879 5.224 3.926.503.27 1.027.502 1.545.727.281.109.562.225.847.334.299.123.584.25.872.377 1.13.523 2.246 1.043 3.378 1.549 2.26 1.006 4.6 1.922 7.002 2.664 2.397.75 4.84 1.375 7.279 1.826 2.439.461 4.864.789 7.215 1.021 2.355.23 4.646.354 6.817.408 1.086.014 2.142.031 3.163.014 1.025-.006 2.012-.031 2.959-.064.945-.021 1.857-.076 2.718-.119a58.56 58.56 0 0 0 2.452-.17c1.536-.109 2.868-.264 3.968-.371 1.102-.111 1.968-.234 2.562-.309l.901-.115a.567.567 0 0 1 .632.488.559.559 0 0 1-.488.629c-.002-.001-.01.003-.014.003z"/><path fill="#303030" d="M24.698 127.621s.018.115.044.32c.018.104.062.225.102.361.035.139.117.279.178.447.157.316.364.678.631 1.035.13.178.271.355.427.531.147.182.323.34.481.512.175.164.337.336.521.48.176.152.354.295.536.424.36.26.722.453 1.049.598.163.057.315.129.454.158.143.027.26.07.366.076l.326.016s-.119.002-.328.002c-.103 0-.227-.033-.369-.053-.152-.021-.302-.086-.472-.143a5.71 5.71 0 0 1-1.075-.584 7.719 7.719 0 0 1-.553-.418c-.188-.145-.352-.314-.532-.475-.161-.18-.334-.344-.476-.529a6.334 6.334 0 0 1-.425-.549 6.343 6.343 0 0 1-.615-1.059c-.062-.166-.132-.316-.163-.461-.033-.143-.072-.266-.081-.365l-.026-.324z"/><path fill="#303030" d="M26.204 129.119s.124.074.306.195c.18.121.419.275.655.439.122.078.242.15.355.223.057.031.108.08.167.102.055.025.106.051.154.074.19.102.317.174.317.174s-.137-.043-.344-.117c-.103-.037-.227-.074-.34-.148-.121-.064-.245-.141-.371-.215a7.404 7.404 0 0 1-.629-.482c-.165-.143-.27-.245-.27-.245zM27.255 128.072s.236.26.544.689c.309.426.683 1.023 1.134 1.559.115.127.226.264.353.377.117.125.253.225.382.326.134.086.261.186.395.244.068.029.136.062.2.09.065.021.127.043.192.061.123.045.241.061.344.08.107.021.201.025.274.025.154.004.242.004.242.004s-.088.002-.242.014c-.073.008-.167.01-.275-.004-.11-.01-.23-.014-.359-.057a11.453 11.453 0 0 0-.202-.053 7.007 7.007 0 0 0-.205-.088c-.146-.051-.279-.148-.42-.234-.133-.105-.275-.207-.397-.332-.133-.113-.247-.248-.366-.381-.45-.547-.814-1.152-1.1-1.594-.283-.448-.494-.726-.494-.726zM28.607 127.316l.183.268c.066.08.151.176.242.283.103.098.216.211.341.336.26.234.573.502.933.76.352.264.752.514 1.155.758.403.24.81.475 1.208.662a8.95 8.95 0 0 0 1.108.463c.17.051.325.094.462.133.141.031.261.055.363.072l.323.025s-.118 0-.328-.004a4.755 4.755 0 0 1-.837-.168 9.567 9.567 0 0 1-1.128-.443 13.896 13.896 0 0 1-1.232-.645 15.233 15.233 0 0 1-1.146-.785 11.124 11.124 0 0 1-.923-.783 5.523 5.523 0 0 1-.559-.654 21.53 21.53 0 0 0-.165-.278zM23.794 126.865s.044.248.112.678c.023.217.104.473.187.762.042.145.086.297.13.459.062.154.124.324.19.494.116.355.287.721.465 1.107.164.393.398.779.595 1.197.229.406.449.832.702 1.252.244.422.504.846.77 1.27.515.859.947 1.766 1.403 2.568.232.406.452.795.689 1.146.229.355.472.676.713.955.482.555.983.932 1.378 1.107.189.104.356.146.465.182l.173.057s-.062-.014-.179-.035c-.111-.027-.286-.049-.488-.143-.208-.07-.443-.203-.701-.369a4.99 4.99 0 0 1-.788-.672 8.141 8.141 0 0 1-.777-.943 13.095 13.095 0 0 1-.741-1.135c-.473-.814-.918-1.705-1.438-2.543-.257-.43-.514-.857-.752-1.287-.25-.426-.466-.861-.691-1.273-.199-.426-.409-.828-.561-1.234a12.22 12.22 0 0 1-.417-1.141 19.6 19.6 0 0 1-.162-.518c-.037-.168-.069-.326-.104-.475-.062-.303-.12-.562-.124-.783-.029-.435-.049-.683-.049-.683z"/><path fill="#303030" d="M20.339 123.707s.056.197.121.541c.026.172.07.381.114.605.054.213.127.43.273.545.05.072.172.111.258.168.103.031.268.098.343.115.373.104.542.08.915.098.348.006.762.002 1.219.098l.352.09c.114.045.23.098.346.148l.083.041.022.012h.003l.029.016.008.008.032.02.123.076a4.1 4.1 0 0 1 .299.217c.343.281.621.561.881.799.264.24.507.445.737.568.231.115.435.166.676.135.134.002.398-.15.602-.316.212-.172.426-.363.657-.512.224-.154.48-.236.686-.225.102 0 .188.02.256.051a.513.513 0 0 1 .166.08l.123.086s-.051-.006-.145-.012a.518.518 0 0 0-.164.006.72.72 0 0 0-.195.057c-.135.059-.254.176-.382.344-.125.172-.251.4-.433.652-.195.256-.401.576-.916.777-.404.154-.941.148-1.389-.014-.448-.16-.814-.42-1.134-.678-.325-.26-.602-.533-.869-.742-.074-.062-.106-.084-.169-.133l-.123-.076-.031-.021-.007-.004c.008.006-.025-.018.022.01h-.003l-.011-.006-.048-.021a3.477 3.477 0 0 1-.183-.092l-.205-.068c-.292-.078-.637-.121-1.019-.176-.353-.047-.889-.188-1.14-.332l-.029-.014-.05-.02-.015-.012-.067-.039-.123-.082c-.085-.055-.164-.1-.24-.168-.148-.154-.296-.275-.384-.471-.112-.176-.141-.363-.169-.529-.003-.16 0-.309.014-.438.038-.254.093-.459.137-.627.082-.338.146-.535.146-.535zM23.945 120.4c-1.625.322-1.795 1.305-.828 2.248.421.414 1.107.33 1.463.658.313.291.688 1.146.888 1.295.451.348-.118.949.879.631.416-.131.316-1.045.668-1.344.921-.77 2.463.057 2.627-1.395-1.046-1.021-2.147-.346-3.311-.793-.937-.362-1.185-1.403-2.386-1.3"/><path fill="#666" d="M123.687 82.619s-.005-.033-.019-.088c-.003-.029-.01-.062-.017-.107a1.74 1.74 0 0 1-.029-.406c.017-.283.098-.502.22-.73.124-.219.284-.402.458-.572.352-.326.771-.584 1.229-.811.231-.109.469-.213.72-.297.126-.049.257-.088.391-.127l.102-.027.063-.016.045-.008.181-.037c.479-.1.965-.197 1.418-.281.458-.078.849-.189 1.205-.273.177-.039.321-.111.459-.156.143-.049.259-.094.358-.127.198-.076.311-.117.311-.117l.021-.004a.17.17 0 0 1 .226.104.175.175 0 0 1-.073.215s-.109.062-.295.174c-.097.055-.21.123-.344.201-.132.074-.278.18-.451.254-.342.15-.751.355-1.18.51-.431.164-.885.35-1.341.535l-.174.068-.043.016c.009 0-.017.014-.025.014l-.07.037a3.503 3.503 0 0 0-.282.15c-.188.109-.37.23-.539.354a4.844 4.844 0 0 0-.442.371 2.702 2.702 0 0 0-.309.35.648.648 0 0 0-.114.24c-.016.039.006.074.017.006a.22.22 0 0 0-.021-.121c.017.041.027.074.042.1.019.055.033.082.033.082a.908.908 0 1 1-1.725.536l-.006-.012z"/><path fill="#4C4C4C" d="M139.361 61.717l.13-.08c.088-.049.2-.135.348-.244.291-.219.687-.557 1.16-.963.946-.824 2.204-1.92 3.46-3.018 1.265-1.092 2.551-2.164 3.582-2.912.257-.189.507-.348.721-.496.219-.143.429-.256.594-.355.176-.096.341-.152.441-.197l.16-.066a.444.444 0 0 1 .585.242.442.442 0 0 1-.239.586.057.057 0 0 0-.018.01l-.087.031s-.041.014-.117.043c-.081.035-.191.057-.341.127-.153.08-.346.164-.559.281-.212.129-.455.26-.714.426-1.042.656-2.396 1.633-3.725 2.635-1.33 1.006-2.657 2.018-3.654 2.775-.501.375-.921.684-1.232.885-.15.104-.273.178-.361.217-.087.045-.134.073-.134.073z"/><path fill="#303030" d="M84.097 154.764s.068.014.195.045c.06.02.145.035.236.043.095.008.206.021.331.018.502.004 1.222-.133 2.116-.422.451-.141.948-.312 1.509-.477.278-.084.576-.158.901-.219.339-.055.649-.07.979-.102 1.317-.131 2.812-.205 4.339-.514.192-.037.383-.076.578-.113.2-.049.403-.102.611-.15.408-.102.828-.201 1.256-.305.856-.195 1.709-.443 2.603-.678a83.768 83.768 0 0 0 5.541-1.674l.36-.111.338-.123.724-.264c.487-.17.977-.34 1.473-.51.991-.332 2.002-.65 3.022-.961 1.981-.721 4.021-1.42 5.994-2.293 1.938-.951 3.898-1.854 5.731-2.932 1.826-1.09 3.682-2.049 5.417-3.092.437-.254.871-.512 1.305-.764.421-.26.838-.518 1.252-.77.411-.258.82-.506 1.225-.76.396-.26.79-.516 1.174-.771.387-.252.768-.504 1.146-.75.368-.26.727-.516 1.083-.766.711-.5 1.408-.971 2.041-1.475.638-.492 1.269-.943 1.831-1.412.568-.469 1.104-.916 1.608-1.334.997-.854 1.832-1.637 2.535-2.264l2.105-2.082.01-.014a.337.337 0 0 1 .477.006.336.336 0 0 1 .008.469l-2.061 2.176c-.691.656-1.51 1.482-2.495 2.371l-1.598 1.387c-.567.486-1.19.959-1.829 1.473-.631.521-1.325 1.016-2.037 1.537l-1.09.785c-.378.252-.758.512-1.147.773-.389.266-.784.529-1.181.797-.406.256-.818.518-1.232.781-.419.26-.838.525-1.263.795a736.143 736.143 0 0 1-2.617 1.57l-1.378.744c-.917.504-1.857.998-2.808 1.494-.94.514-1.928.951-2.907 1.416l-2.923 1.436c-.479.262-.983.467-1.474.697-.494.234-.987.465-1.48.699-.981.473-1.953.965-2.927 1.422-.981.424-1.961.832-2.932 1.215-.487.189-.971.377-1.454.562l-.724.264-.383.137-.368.111a72.373 72.373 0 0 1-5.73 1.498c-.925.188-1.823.395-2.682.535l-1.273.225c-.205.037-.415.072-.619.105l-.639.074c-.841.117-1.635.127-2.389.154l-2.108-.012c-.333-.004-.656-.01-.932.004-.29.016-.573.053-.854.1-.552.088-1.067.197-1.539.283-.939.178-1.713.234-2.226.135-.129-.012-.243-.045-.335-.068a1.257 1.257 0 0 1-.235-.082c-.12-.049-.185-.072-.185-.072z"/><path fill="#4C4C4C" d="M69.06 106.264s.127-.008.367-.027c.239-.02.595-.033 1.032-.109.442-.055.972-.17 1.577-.307a58.254 58.254 0 0 0 2.019-.535c.738-.201 1.539-.439 2.401-.637.869-.207 1.775-.342 2.723-.512.945-.168 1.924-.307 2.92-.467.999-.133 1.984-.357 2.992-.562.51-.084.985-.242 1.478-.359.488-.139.982-.232 1.453-.4.954-.312 1.896-.596 2.78-.961.444-.174.885-.334 1.309-.51.42-.188.834-.367 1.234-.541.811-.332 1.538-.734 2.229-1.066.688-.33 1.292-.693 1.844-.98a23.74 23.74 0 0 0 1.402-.793c.775-.449 1.219-.709 1.219-.709l-1.173.783c-.373.246-.824.551-1.364.867-.54.314-1.127.707-1.811 1.055-.685.354-1.403.783-2.208 1.143-.4.186-.809.383-1.229.578-.419.199-.865.352-1.31.539-.887.377-1.837.676-2.796 1-.479.172-.983.275-1.478.416-.494.125-.99.295-1.489.381-1.002.197-2.015.412-3.012.535-.999.148-1.979.275-2.926.439-.942.164-1.874.27-2.722.441-.855.172-1.661.387-2.402.562-.749.191-1.438.342-2.05.457-.617.109-1.156.197-1.604.23-.447.059-.801.041-1.041.045l-.364.004z"/><path fill="#303030" d="M76.879 127.242s.383-.102 1.053-.088c.33 0 .739-.041 1.225 0 .475.041 1.029.031 1.598.107 1.158.121 2.494.287 3.914.492.703.1 1.44.193 2.182.291.742.078 1.498.186 2.247.23.761.057 1.522.107 2.272.162.752.062 1.494.121 2.212.186.712.061 1.397.102 2.051.141.65.025 1.265.051 1.831.041.562-.029 1.086-.02 1.538-.092.446-.066.855-.076 1.169-.172l1.002-.236.028-.006a.227.227 0 0 1 .27.168.23.23 0 0 1-.159.268s-.377.105-1.033.291c-.331.111-.742.141-1.211.229-.466.098-1.002.109-1.582.164-.583.039-1.21.035-1.874.041-.662-.014-1.362-.023-2.078-.059l-2.204-.092c-.755-.02-1.521-.039-2.289-.064-.779-.014-1.542-.092-2.299-.139-.754-.068-1.496-.141-2.213-.211-1.431-.139-2.75-.266-3.882-.332-.571-.049-1.072-.049-1.524-.066a26.54 26.54 0 0 1-.631-.018c-.205.008-.389.01-.558.014-.667.016-1.048.021-1.048.021-.414.012-.76-.203-.77-.615-.008-.414.318-.656.728-.656h.035zM100.901 128.078a.497.497 0 0 1-.292-.094c-1.462-1.053-2.717-1.482-4.331-1.482a.5.5 0 0 1 0-1c1.818 0 3.288.5 4.915 1.67a.5.5 0 0 1-.292.906zM47.441 148.332l.245.17c.167.105.411.238.741.385.653.301 1.631.629 2.817.973 1.187.344 2.592.67 4.099 1.014 1.508.346 3.124.666 4.746.961 1.619.309 3.244.592 4.775.822 1.528.229 2.955.443 4.181.58.616.066 1.181.125 1.679.176.501.045.941.074 1.299.088.722.033 1.136.02 1.136.02s-.103.01-.296.025a9.812 9.812 0 0 1-.84.043c-.725.012-1.761 0-2.998-.096a75.443 75.443 0 0 1-4.217-.449 120.655 120.655 0 0 1-4.799-.768 103.8 103.8 0 0 1-4.755-1.02 56.3 56.3 0 0 1-4.084-1.156c-1.183-.385-2.137-.799-2.783-1.135a4.963 4.963 0 0 1-.712-.441c-.154-.128-.234-.192-.234-.192z"/><path fill="#4C4C4C" d="M106.104 87.168s.073-.045.22-.125c.139-.08.367-.195.626-.359a20.394 20.394 0 0 0 2.231-1.529 24.552 24.552 0 0 0 3.084-2.891c1.111-1.213 2.188-2.689 3.274-4.432a203.96 203.96 0 0 1 1.75-2.691c.62-.922 1.27-1.883 2.026-2.818 1.482-1.828 3.015-3.775 4.708-5.729a145.173 145.173 0 0 1 5.419-5.795c1.887-1.941 3.851-3.848 5.83-5.748l1.519-1.395c.51-.457.996-.932 1.532-1.365 1.048-.887 2.08-1.789 3.152-2.615l1.582-1.256c.533-.404 1.067-.805 1.594-1.201 1.051-.811 2.121-1.561 3.158-2.32a452.776 452.776 0 0 1 6.062-4.252c.968-.67 1.914-1.322 2.83-1.953l1.361-.896c.451-.293.915-.553 1.358-.824.89-.551 1.768-.994 2.588-1.461.83-.434 1.62-.854 2.366-1.229 1.498-.74 2.804-1.387 3.879-1.916 1.068-.531 1.912-.947 2.485-1.23l.877-.438.139-.068a.516.516 0 1 1 .322.971s-.352.062-.847.514c-.243.234-.556.498-.812 1.029-.114.301-.121.857-.264 1.172-.155.293-.426.381-.771.363-.349-.025-.768-.164-1.08-.055-.306.123-.602.299-.924.461-.639.334-1.292.754-1.98 1.225-1.37.93-2.874 2.07-4.625 2.906-.432.221-.874.414-1.362.627-.491.225-.986.465-1.515.666l-.198.08-.05.018-.021.014c.057-.041 0-.006.009-.014l-.103.041-.393.172c-.269.105-.535.215-.809.326-.541.225-1.099.439-1.644.684a21.058 21.058 0 0 0-3.215 1.709 174.098 174.098 0 0 0-3.1 2.145c-1.037.75-2.113 1.49-3.158 2.285l-1.597 1.184c-.524.41-1.05.82-1.578 1.23-1.07.82-2.09 1.697-3.133 2.562-.526.42-1.026.895-1.537 1.35l-1.513 1.371c-1.984 1.877-3.967 3.764-5.849 5.684a144.9 144.9 0 0 0-5.383 5.771c-1.671 1.934-3.2 3.885-4.68 5.715-1.439 1.816-2.595 3.725-3.694 5.457-1.071 1.746-2.19 3.32-3.32 4.576a25.587 25.587 0 0 1-3.166 3.033 22.184 22.184 0 0 1-2.318 1.648c-.285.182-.492.287-.639.377-.143.084-.217.125-.217.125a.503.503 0 0 1-.69-.186.506.506 0 0 1 .186-.693h.003l.015-.007z"/><path fill="#666" d="M161.507 78.764s-.245.248-.703.717-1.126 1.158-1.956 2.049c-.834.881-1.838 1.975-2.984 3.232-1.151 1.258-2.448 2.682-3.862 4.232-1.418 1.549-2.956 3.236-4.664 4.943s-3.548 3.484-5.6 5.156c-2.043 1.68-4.243 3.326-6.635 4.77-.608.344-1.219.693-1.829 1.041-.639.342-1.244.635-1.87.957-1.242.629-2.488 1.264-3.734 1.895-1.279.59-2.561 1.178-3.835 1.76-.636.291-1.274.584-1.909.873-.647.264-1.293.52-1.922.811-1.247.609-2.396 1.449-3.623 2.07-1.254.541-2.56.908-3.857 1.205-.646.16-1.284.311-1.909.5-.317.092-.632.186-.945.279-.309.092-.602.211-.899.318a11.21 11.21 0 0 0-1.717.811c-.548.322-1.079.686-1.598 1.055-1.02.752-2.152 1.348-3.266 1.711-1.128.35-2.261.514-3.35.629l-.207.02-.046.004c.134-.023-.214.035-.187.027h-.027l-.098-.004-.392-.016c-.272-.025-.5-.039-.795-.068-.593-.055-1.164-.162-1.711-.254a87.774 87.774 0 0 1-2.782-.668 36.49 36.49 0 0 0-4.429-.789c-1.225-.127-2.181-.146-2.833-.117-.644.027-.985.08-.985.08a.679.679 0 1 1-.204-1.343c.029-.006.059-.006.088-.008l.065-.104s.358-.121 1.025-.121h2.851c1.22 0 2.705.115 4.402.098.85 0 1.75.023 2.696.002.458-.021.929-.018 1.409-.045.238-.01.499-.041.752-.064l.383-.037.097-.012.024-.002c.015 0-.058.014-.014.004l.047-.01.188-.043c1.013-.232 2.07-.473 3.159-.727.545-.121 1.1-.25 1.665-.377.282-.064.565-.131.851-.195.289-.068.571-.162.862-.242 1.153-.334 2.34-.676 3.551-1.023.597-.188 1.236-.361 1.812-.561.602-.211 1.211-.43 1.828-.645 1.229-.436 2.471-.891 3.741-1.322 1.243-.496 2.509-.998 3.777-1.504l1.918-.756c.628-.277 1.256-.559 1.888-.836 1.265-.564 2.53-1.127 3.8-1.695a1010.33 1010.33 0 0 0 3.756-1.854c.617-.307 1.268-.615 1.852-.918.596-.33 1.188-.66 1.78-.986 2.332-1.379 4.501-2.943 6.51-4.584 2.006-1.633 3.824-3.369 5.518-5.053 1.69-1.684 3.223-3.348 4.64-4.889 2.814-3.098 5.132-5.721 6.81-7.518.838-.91 1.502-1.604 1.957-2.072.455-.475.697-.723.697-.723l.006-.008a.679.679 0 0 1 .956-.02c.268.26.277.688.018.957l-.002.007z"/><path fill="#303030" d="M54.247 114.084s.27-.035.742-.08c.236-.029.525-.02.862-.014.329.012.699.02 1.101.029.202.016.407.004.614-.021.206-.012.426-.027.648-.043.463-.053.947-.113 1.45-.162.502-.049 1.022-.109 1.555-.137.531-.031 1.072-.066 1.612-.1l1.61-.068c.539-.025 1.067-.016 1.579-.008.513.006 1.01.053 1.478.094.473.061.915.109 1.315.207.201.045.396.084.578.127.182.045.355.109.512.156.319.104.594.191.81.297.436.203.676.32.676.32s-.269-.047-.727-.145c-.227-.061-.513-.09-.836-.135a11.09 11.09 0 0 0-1.082-.109c-.396-.041-.83-.027-1.284-.043-.456 0-.936.008-1.434.027-.251.012-.506.023-.76.033-.257.021-.518.035-.777.049-.531.029-1.067.062-1.604.098-1.078.043-2.153.086-3.161.129-.508.023-.995.027-1.457.041-.472-.027-.954-.008-1.35-.094-.41-.062-.782-.133-1.094-.199-.317-.057-.596-.133-.834-.148-.472-.06-.742-.101-.742-.101z"/><path fill="#666" d="M85.195 118.135s-1.195-.105-2.988-.201c-.447-.021-.936-.068-1.449-.094-.264-.023-.507-.025-.808-.066-.267-.033-.542-.07-.823-.104-1.121-.135-2.321-.281-3.521-.42-.59-.088-1.181-.182-1.765-.27-.582-.072-1.163-.209-1.716-.326-.556-.129-1.101-.209-1.598-.367-.499-.143-.97-.281-1.407-.41a10.367 10.367 0 0 1-1.168-.396c-.345-.131-.644-.242-.89-.338-.491-.188-.776-.293-.776-.293a.176.176 0 0 1-.099-.229.17.17 0 0 1 .216-.105l.015.004s.286.09.779.25l.895.287c.345.115.732.24 1.169.33.432.104.903.215 1.401.33.493.131 1.03.178 1.573.275.551.088 1.111.189 1.701.232.588.055 1.184.117 1.78.174 1.186.078 2.375.156 3.489.232.281.018.555.123.826.139.232.023.524.098.771.098h4.448c.379 0 .681.303.681.674a.68.68 0 0 1-.681.682h-.028l-.027-.088zM179.104 27.387s.145.742.244 2.043c.05.652.089 1.445.089 2.354s-.023 1.934-.067 3.051a53.243 53.243 0 0 1-.083 1.746c-.026.604-.086 1.229-.146 1.867a58.394 58.394 0 0 1-.522 4.012c-.25 1.383-.538 2.809-.93 4.234-.18.719-.413 1.428-.63 2.143-.253.703-.477 1.426-.771 2.119-.139.348-.269.701-.415 1.047l-.459 1.031c-.079.176-.138.332-.234.523l-.253.494c-.169.326-.334.652-.5.977-.33.654-.656 1.303-.98 1.941-.323.641-.63 1.277-.989 1.883-.687 1.225-1.374 2.395-2.013 3.512-.646 1.113-1.325 2.113-1.928 3.059-.612.932-1.168 1.797-1.692 2.537a22.492 22.492 0 0 1-1.453 1.852c-.859.992-1.476 1.469-1.476 1.469s.209-.756.804-1.922c.286-.592.678-1.277 1.166-2.033.502-.752 1.022-1.627 1.616-2.568.584-.941 1.252-1.947 1.92-3.025.653-1.082 1.334-2.234 2.061-3.412.372-.58.701-1.211 1.047-1.842l1.034-1.91c.173-.32.349-.646.521-.969l.261-.486c.074-.141.154-.322.232-.482l.465-.994c.15-.334.285-.674.424-1.014.29-.674.509-1.375.758-2.064.211-.697.443-1.391.622-2.094.381-1.395.65-2.795.889-4.156.216-1.363.399-2.686.518-3.947.121-1.266.228-2.461.289-3.568.08-1.107.113-2.125.154-3.025a54.5 54.5 0 0 1 .16-2.338c.062-.648.123-1.158.176-1.51.049-.348.091-.535.091-.535z"/><path fill="#666" d="M179.845 35.898s.01.16.031.436c.014.293.03.686.039 1.16.013.943.006 2.195-.065 3.449a30.648 30.648 0 0 1-.155 1.834 14.187 14.187 0 0 1-.269 1.59c-.044.232-.121.438-.169.623-.062.18-.137.33-.188.459-.062.121-.132.205-.169.27-.04.057-.062.094-.062.094s.016-.037.049-.102c.03-.068.083-.158.131-.287.03-.129.083-.287.118-.469.024-.184.07-.391.085-.619.04-.463.061-.998.044-1.576a30.126 30.126 0 0 0-.092-1.807 47.3 47.3 0 0 0-.395-3.367 34.41 34.41 0 0 0-.186-1.076c-.055-.264-.083-.414-.083-.414l-.005-.01a.68.68 0 0 1 1.333-.28c.002.032.008.065.008.092z"/><path fill="#4C4C4C" d="M180.347 14.693s-.303.391-.827 1.16c-.267.377-.509.865-.814 1.449-.231.607-.56 1.291-.704 2.119-.182.818-.217 1.754-.125 2.756.022.502.174 1.025.414 1.527.132.252.291.506.434.76.081.125.124.258.191.387.029.064.046.137.072.201l.034.1.017.051.009.027c.006.016-.012-.055 0-.014.101.287.188.58.257.883.056.307.109.619.166.938.063.312.087.648.18.953.042.158.09.311.146.463.05.154.11.309.176.459.462 1.221 1.307 2.42 1.896 3.77.288.691.516 1.416.776 2.152l.1.273.021.07.032.098.009.035.039.139c.055.189.103.377.151.566.095.389.201.754.286 1.168.074.43.145.865.201 1.303.03.217.069.439.083.656.016.211.026.422.042.641.023.428.055.857.068 1.291v1.297c.012.875-.051 1.744-.084 2.627-.069.875-.095 1.766-.15 2.656-.051.895-.059 1.791-.086 2.699-.024.912-.05 1.83-.072 2.762-.059 3.703-.443 7.562-.953 11.428-.167.961-.339 1.926-.507 2.896l-.261 1.455c-.08.506-.214.965-.317 1.449-.46 1.914-.849 3.852-1.431 5.754l-.809 2.865c-.308.941-.613 1.877-.924 2.816l-.46 1.404-.506 1.385c-.34.922-.682 1.84-1.019 2.754-1.42 3.631-2.954 7.152-4.611 10.477-1.72 3.293-3.723 6.312-5.759 9.039a309.908 309.908 0 0 1-2.99 3.951c-.489.631-.968 1.254-1.438 1.863-.473.611-.963 1.193-1.426 1.773-.921 1.17-1.881 2.223-2.769 3.248-.439.521-.914.98-1.356 1.449-.445.463-.879.914-1.299 1.348-.448.439-.871.816-1.285 1.203-.419.377-.798.762-1.207 1.096-.8.672-1.542 1.307-2.21 1.848a300 300 0 0 1-1.785 1.465c-.507.434-.936.805-1.288 1.104l-1.073.922-.008.008a.452.452 0 1 1-.588-.688s.381-.32 1.093-.922c.355-.299.792-.67 1.311-1.105.522-.42 1.122-.906 1.796-1.451.679-.545 1.394-1.15 2.191-1.807.403-.318.793-.707 1.209-1.08.407-.377.863-.777 1.275-1.176l1.29-1.324c.442-.459.917-.906 1.351-1.42.887-1.008 1.849-2.043 2.766-3.199.465-.572.952-1.141 1.431-1.746.473-.609.953-1.229 1.444-1.859a289.103 289.103 0 0 0 2.979-3.934c2.033-2.719 3.985-5.656 5.705-8.926a126.595 126.595 0 0 0 4.583-10.414c.332-.908.665-1.822.998-2.74l.499-1.379.45-1.398c.301-.932.601-1.869.903-2.803l.784-2.84c.565-1.873.951-3.824 1.397-5.736.104-.477.239-.969.31-1.432l.248-1.441c.165-.959.326-1.916.492-2.871.482-3.846.845-7.615.885-11.326.018-.924.039-1.838.054-2.746.014-.91.026-1.814.037-2.703.027-1.785.033-3.52-.065-5.197l-.084-1.246c-.041-.41-.1-.816-.15-1.217-.077-.82-.288-1.576-.43-2.342-.093-.377-.225-.76-.335-1.133l-.174-.562-.042-.139c-.006-.014-.021-.066-.02-.051l-.023-.066-.103-.271c-.273-.721-.53-1.428-.812-2.113-.552-1.379-1.09-2.691-1.544-3.986a19.003 19.003 0 0 1-.572-1.902 145.64 145.64 0 0 0-.47-1.803c-.069-.303-.14-.6-.209-.893-.069-.289-.162-.568-.208-.852-.049-.287-.093-.564-.137-.84-.045-.275-.095-.545-.088-.814-.048-1.078.025-2.088.23-2.963.176-.895.497-1.629.743-2.283.318-.617.579-1.17.828-1.559l.763-1.199.03-.043a.455.455 0 0 1 .624-.143.454.454 0 0 1 .108.661zM161.16 11.395s.029-.01.083-.025c.048-.014.14-.043.257-.07.23-.041.588-.133 1.087.014.241.072.51.256.683.523.173.264.251.58.271.898.021.32-.014.652-.082.977-.057.307-.156.67-.268.996-.11.338-.224.648-.206.914.02.273.154.588.337.91.392.637.87 1.412 1.197 2.234.344.826.596 1.723.75 2.648.157.926.222 1.867.218 2.818a12.784 12.784 0 0 1-.337 2.828c-.214.92-.507 1.791-.804 2.605-.3.822-.605 1.592-.856 2.332-.255.734-.496 1.455-.755 2.115a16.24 16.24 0 0 1-.786 1.787 9.334 9.334 0 0 1-.834 1.326c-.279.35-.536.611-.722.775l-.296.244a.675.675 0 0 1-.865-1.035l.006-.008.06-.047s.073-.061.213-.172a4.09 4.09 0 0 0 .565-.58c.224-.283.484-.646.737-1.111.258-.463.517-1.014.771-1.637.255-.625.508-1.318.786-2.066.281-.756.61-1.529.922-2.322.312-.791.613-1.609.833-2.451.221-.848.356-1.715.379-2.605a15.182 15.182 0 0 0-.131-2.658 11.377 11.377 0 0 0-.632-2.477c-.289-.791-.68-1.457-1.089-2.174-.196-.369-.378-.773-.406-1.252-.005-.488.172-.857.276-1.174.224-.623.379-1.225.362-1.705-.015-.5-.226-.791-.501-.873-.277-.1-.575-.053-.761-.018-.177.035-.298.076-.298.076a.295.295 0 0 1-.369-.188.295.295 0 0 1 .188-.369h.005l.012-.003z"/><path fill="#4C4C4C" d="M161.211 11.373c.013-.004-.092-.043-.121-.223-.018-.188.136-.426.367-.635.238-.213.549-.436.916-.656l.592-.348c.204-.123.438-.232.604-.379.1-.084.198-.17.301-.254.057-.049.114-.1.209-.154a.613.613 0 0 1 .398-.068c.284.076.392.223.511.336.119.119.216.246.31.363.094.113.19.244.271.33.088.08.144.129.249.158.104.033.239.055.387.074.16.021.322.045.485.068.639.078 1.35.232 2.006.354l.496.1c.166.025.331.039.498.059l.475.055.524.012.456-.033c.15-.023.299-.061.448-.088l.441-.154c.144-.061.312-.139.468-.209.165-.066.327-.139.491-.205.171-.061.359-.111.532-.168.188-.033.372-.062.554-.092l.018-.006h.047l.029-.004h.064l.12-.004.25-.008c.158-.01.388.039.574.061.191.043.379.127.552.209.334.209.589.477.766.732.195.258.346.498.512.723.076.102.16.242.231.314.088.104.176.205.258.311.331.334.702.607 1.073.787.372.176.718.303 1.01.396.585.184.918.291.918.291s-.347-.031-.961-.115a6.437 6.437 0 0 1-1.098-.256 3.938 3.938 0 0 1-1.319-.748c-.097-.098-.194-.188-.293-.281-.125-.119-.194-.215-.296-.328-.191-.217-.371-.459-.56-.67a2.052 2.052 0 0 0-.591-.504c-.115-.035-.23-.082-.352-.104l-.183-.016c-.062-.01-.119-.02-.21-.01l-.244.018-.126.01-.062.006-.032.004h-.009c-.007 0 .051-.004.023-.004l-.014.004-.433.092c-.145.055-.288.105-.433.16l-.451.203c-.163.07-.307.145-.479.215-.178.066-.358.139-.54.199-.193.043-.384.094-.578.125-.196.018-.401.035-.592.045l-.522-.02c-.218-.02-.375-.045-.562-.064-.182-.027-.367-.045-.54-.08l-.521-.102c-.694-.139-1.301-.322-1.963-.43-.16-.027-.319-.059-.476-.092a2.306 2.306 0 0 1-.543-.148c-.194-.066-.386-.234-.503-.377-.121-.152-.194-.271-.282-.396-.088-.127-.163-.24-.245-.34-.071-.1-.172-.172-.161-.172.015 0 .022-.008-.011 0-.031.01-.082.045-.134.076-.114.082-.226.158-.337.236-.255.166-.496.248-.715.344-.218.092-.423.182-.62.266-.384.168-.717.328-.965.492-.245.162-.419.336-.428.494-.01.155.084.223.071.223z"/><path fill="#4C4C4C" d="M162.573 11.602l.236-.041c.163-.021.396-.057.694-.043.301.006.671.037 1.082.152.409.113.888.295 1.292.713.198.209.37.484.452.807.066.281.067.621.091.881.019.273.082.484.208.592.02.037.063.057.106.076a.289.289 0 0 1 .06.041l.019.006.002.004c-.021-.008.052.023-.048-.018l.017.008.054.014c.071.014.173.055.191.033.039-.012.051.004.127-.012.243-.029.545-.139.907-.209l.294-.033.322.008c.132.021.158.021.284.053.11.027.233.07.363.148a.751.751 0 0 1 .335.496c.021.191-.01.301-.019.385-.021.164-.01.166 0 .186.005.025.13.123.166.115.004 0 .109.012.203-.025.216-.066.477-.236.718-.43l.378-.311.056-.045.025-.021.051-.041.102-.07.209-.135c.126-.096.298-.182.466-.266.162-.088.327-.162.486-.215.319-.133.627-.229.933-.33.602-.195 1.166-.367 1.659-.596.119-.064.239-.125.353-.188.126-.068.246-.135.363-.203.234-.135.496-.252.727-.367.49-.195.964-.359 1.409-.338.221-.025.422.025.606.062.188.018.337.109.479.168.286.096.459.275.592.359l.197.143s-.077-.037-.224-.102c-.144-.059-.34-.182-.624-.234-.139-.027-.288-.088-.459-.078-.171 0-.348-.027-.539.023-.096.02-.193.033-.288.055l-.298.109c-.203.059-.405.195-.616.293-.209.137-.418.254-.641.418-.108.078-.224.154-.34.234a37.93 37.93 0 0 0-.384.24c-.532.299-1.124.537-1.714.75-.289.111-.587.221-.864.352a3.807 3.807 0 0 0-.394.195c-.127.066-.258.125-.392.23-.503.287-.931.904-1.763 1.197-.225.061-.469.104-.785 0a1.164 1.164 0 0 1-.611-.49c-.174-.273-.143-.625-.108-.785.014-.082.014-.135.014-.115.005.049.056.111.062.104a.294.294 0 0 0-.094-.037c-.033-.012-.171-.035-.2-.043a1.18 1.18 0 0 1-.167-.016l-.194.018c-.274.037-.59.137-.975.168a1.35 1.35 0 0 1-.342-.01c-.14-.01-.182-.039-.264-.061l-.052-.02-.015-.004-.059-.023-.01-.008-.032-.018-.136-.088a.834.834 0 0 1-.238-.211c-.296-.346-.33-.768-.33-1.061 0-.318.019-.543-.007-.797a1.258 1.258 0 0 0-.249-.582c-.272-.342-.661-.574-1.019-.727a4.763 4.763 0 0 0-.988-.301 5.733 5.733 0 0 0-.667-.088c-.159.003-.241 0-.241 0z"/><path fill="#666" d="M146.508 72.129s-.371.002-1.021.01c-.646.002-1.573.01-2.685-.008-1.109-.018-2.403-.035-3.793-.059a108.802 108.802 0 0 0-4.345.008c-.738.029-1.478.033-2.204.088a40.4 40.4 0 0 0-2.128.164c-.689.074-1.354.154-1.98.246-.627.109-1.222.191-1.761.326-.54.117-1.038.229-1.467.355-.434.121-.813.219-1.118.334l-.962.338s.344-.137.95-.369c.297-.131.68-.244 1.108-.379.216-.066.44-.146.685-.213l.776-.191c.538-.145 1.136-.242 1.762-.363a34.046 34.046 0 0 1 1.986-.281c.691-.07 1.408-.139 2.136-.178.729-.059 1.468-.07 2.211-.102 1.482-.025 2.966-.012 4.354.021 1.388.031 2.683.088 3.794.125a369.846 369.846 0 0 0 3.702.128z"/><path fill="#4C4C4C" d="M163.724 12.201l.079.061c.045.045.13.084.211.184.092.088.188.209.272.369a1.6 1.6 0 0 1 .17.596c.049.459-.082.949-.126 1.395a2.51 2.51 0 0 0 0 .648c.012.059.04.266.068.33.027.09.064.199.109.314.081.227.188.453.291.688.113.229.204.465.312.689.202.457.378.906.472 1.312.056.203.082.4.096.568.007.18.007.326-.024.453-.013.125-.06.215-.081.273l-.042.09c-.01 0 .008-.141-.054-.361-.022-.107-.08-.232-.134-.375a6.843 6.843 0 0 0-.242-.457l-.695-1.135c-.258-.428-.536-.891-.742-1.43a3.396 3.396 0 0 1-.137-.438c-.052-.188-.042-.244-.072-.445-.021-.311.03-.607.092-.871.06-.266.154-.498.228-.705.07-.207.133-.389.168-.559a1.607 1.607 0 0 0-.074-.854c-.03-.105-.082-.197-.102-.252l-.043-.088z"/><path fill="#666" d="M137.483 98.445c-.708.639-1.911 1.746-.451 2.102.723.18 2.228-.814 3.007-.932 2.862-.443 2.316 1.887 2.279 3.916 1.722.061.292-2.574 2.534-2.68 1.358-.068 2.58.865 3.896.719-.755-.822-1.97-.635-2.813-1.48-.448-.445-1.408-1.91-1.505-2.545-.115-.748.242-2.375.416-3.16.217-.971 1.276-1.625 1.033-2.686-1.572.406-2.714 2.754-3.888 3.895-1.204 1.166-2.579 1.932-4.059 2.549"/><path fill="#303030" d="M29.51 113.254l.468-.354c.304-.225.773-.539 1.392-.891.626-.34 1.404-.727 2.329-1.098.921-.381 1.979-.75 3.147-1.113 1.166-.369 2.437-.738 3.76-1.176a59.503 59.503 0 0 1 4.23-1.246c1.482-.373 3.022-.723 4.583-1.074 1.559-.361 3.146-.727 4.731-1.096 1.589-.354 3.177-.711 4.741-1.062 1.57-.33 3.11-.672 4.609-.961.749-.146 1.482-.291 2.206-.436.724-.125 1.433-.25 2.122-.371 1.374-.256 2.688-.432 3.894-.625 1.205-.201 2.32-.307 3.306-.434.984-.131 1.846-.207 2.556-.273l2.229-.195-2.221.283c-.705.084-1.562.191-2.542.354-.977.158-2.087.297-3.286.518-1.204.211-2.507.416-3.877.697-1.373.264-2.817.553-4.31.865-1.496.301-3.028.65-4.596.99-1.557.363-3.145.727-4.727 1.09-1.59.355-3.182.715-4.743 1.064-1.565.344-3.106.682-4.579 1.045-1.478.363-2.89.764-4.227 1.18-1.34.412-2.619.756-3.787 1.102-1.17.35-2.234.682-3.16 1.027-.926.344-1.714.701-2.347 1.021-.627.336-1.107.621-1.423.836-.311.218-.478.333-.478.333zM180.866 28.67s.1.326.279.936c.088.305.197.684.329 1.127.144.438.309.943.49 1.508.365 1.133.84 2.496 1.33 4.082.256.789.471 1.648.721 2.545.182.91.442 1.861.545 2.885.061.508.168 1.023.187 1.555.028.533.055 1.074.085 1.627.03 1.111-.018 2.24-.022 3.408.006 2.338-.146 4.805-.277 7.354-.069 1.273-.209 2.564-.312 3.875l-.167 1.973c-.065.662-.153 1.322-.227 1.988-.16 1.336-.3 2.67-.48 4.023-.209 1.338-.415 2.684-.626 4.025-.115.67-.192 1.346-.342 2.01-.142.666-.281 1.332-.42 1.998-.292 1.324-.537 2.658-.863 3.959-.343 1.293-.688 2.58-1.024 3.85-.177.633-.311 1.271-.521 1.885-.2.621-.4 1.232-.595 1.838-.4 1.215-.773 2.414-1.167 3.572-.448 1.15-.888 2.271-1.313 3.361-.799 2.199-1.798 4.178-2.637 6.039-.215.465-.425.92-.628 1.363-.211.441-.451.854-.668 1.262-.443.82-.865 1.592-1.264 2.324-.401.727-.75 1.418-1.122 2.033-.382.605-.733 1.162-1.053 1.664l-1.995 3.166 1.933-3.203c.304-.51.646-1.074 1.016-1.688.356-.617.695-1.32 1.081-2.051l1.21-2.34c.21-.42.446-.834.652-1.273.201-.443.401-.898.609-1.363.818-1.867 1.789-3.85 2.56-6.057.413-1.09.837-2.209 1.268-3.355l1.146-3.572c.194-.604.388-1.215.583-1.83.209-.613.342-1.25.518-1.883.331-1.266.668-2.547 1.006-3.842.32-1.295.558-2.621.843-3.941.136-.66.271-1.324.41-1.986.143-.662.222-1.342.334-2.01.217-1.342.428-2.682.643-4.02.183-1.334.327-2.682.493-4.004.08-.664.168-1.322.233-1.984.058-.658.114-1.316.173-1.969.11-1.303.256-2.59.326-3.861.133-2.539.323-4.994.342-7.334.016-1.164.076-2.309.058-3.398l-.062-1.611c-.015-.527-.115-1.037-.166-1.543-.091-1.014-.344-1.955-.508-2.867-.229-.898-.424-1.756-.666-2.547-.455-1.592-.905-2.967-1.247-4.105-.172-.57-.326-1.078-.457-1.523l-.311-1.133-.263-.942z"/><g><path fill="#3F352E" d="M85.311 180.897c-14.797 0-32.492-3.381-45.9-9.526-11.487-5.266-18.632-12.023-20.662-19.544l.966-.26c1.95 7.224 8.904 13.757 20.112 18.895 20.768 9.52 53.25 12.354 66.84 5.827l.433.902c-5.237 2.514-13.003 3.706-21.789 3.706z"/></g><g><path fill="#3F352E" d="M59.575 186.106c-20.637 0-45.345-10.238-53.328-30.47l.931-.367c8.269 20.957 34.959 30.965 55.852 29.737l.059.998a59.877 59.877 0 0 1-3.514.102z"/></g><g><path fill="#3F352E" d="M192.382 83.184l-.698-.715c20.367-19.893 4.289-53.457-6.35-75.668l-1.264-2.645.902-.43 1.264 2.642c10.108 21.104 27.026 56.423 6.146 76.816z"/></g><g><path fill="#3F352E" d="M202.222 84.55l-.345-.939c7.093-2.601 13.811-12.897 15.968-20.947l.966.26c-2.221 8.289-9.195 18.915-16.589 21.626z"/></g></svg>