<svg xmlns="http://www.w3.org/2000/svg" width="31.333" height="21.876" viewBox="0 0 31.333 21.876"><path fill="#E72B2C" d="M30.042 5.125c-.11-.432-.172-.902-.337-1.299-.14-.336-.323-.643-.452-.979-.238-.629-.44-1.08-1.082-1.35C27.05 1.027 25.704 1 24.442 1H11.195c-1.528 0-3.042.152-4.559.152l.182.043-.342.024c-.297.014-.578.01-.857.092-.595.173-1.095.486-1.582.865-.554.431-.717 1.191-.915 1.845a14.561 14.561 0 0 0-.451 1.874c-.25 1.557-.601 3.154-.668 4.744-.044 1.076.375 2.004.492 3.055.066.6.079 1.221.189 1.811.119.637.282 1.271.478 1.883.191.59.239 1.152.619 1.684.787 1.098 2.153 1.166 3.344 1.357.715.117 1.417.266 2.146.262 1.207 0 2.385-.115 3.568-.178 1.351-.072 2.649-.158 4.006-.047 1.163.098 2.377.26 3.544.264.899.004 1.792-.113 2.701-.113a7.84 7.84 0 0 0 1.24-.104 17.033 17.033 0 0 1 2.599-.197c.917.002 1.567-.289 2.061-1.047.321-.492.447-1.225.604-1.785.188-.676.458-1.43.57-2.1.183-1.078.229-2.18.229-3.283-.001-2.283.216-4.763-.351-6.976zm-9.61 6.313c-.144.078-.317.062-.473.133-.124.055-.245.172-.354.242-1.128.715-2.395 1.395-3.418 2.27-.586.502-1.187.684-1.847 1.055-.337.191-1.112.996-1.499.898-.033-.633-.007-1.279-.006-1.914.002-.725-.114-1.428-.149-2.146-.04-.775.149-1.484.149-2.252V7.722c0-.602.155-1.469-.037-2.033l.074.037c.176.246.529.369.791.518.68.385 1.42.717 2.071 1.131.593.377 1.106.838 1.694 1.223.666.432 1.344.828 2.032 1.203.439.24 1.314.643 1.54 1.084-.248.127-.334.422-.568.553z"/><path fill="#3F352E" d="M19.461 21.229h-.046c-.865-.003-1.751-.09-2.607-.174-.328-.032-.654-.064-.977-.092-1.227-.101-2.409-.035-3.629.031l-.309.017c-.368.02-.735.044-1.102.068-.809.055-1.646.11-2.493.11h-.001c-.663 0-1.271-.104-1.858-.206l-.786-.125c-1.141-.167-2.433-.355-3.251-1.497-.326-.455-.442-.909-.556-1.349-.04-.155-.08-.312-.132-.472a16.253 16.253 0 0 1-.496-1.944 11.4 11.4 0 0 1-.136-1.201c-.017-.217-.033-.433-.058-.646a9.433 9.433 0 0 0-.225-1.159c-.146-.618-.298-1.257-.269-1.972.052-1.228.267-2.454.476-3.641.069-.389.137-.777.199-1.162.092-.574.245-1.208.466-1.938l.066-.227c.189-.65.403-1.387 1.02-1.869C3.351 1.32 5.614.709 5.812.696 5.928.688 8.695.5 10.226.5h13.245c1.392 0 2.74.041 3.921.537.814.342 1.086.917 1.357 1.634.063.167.143.326.222.485.078.157.156.315.224.479.127.308.197.634.266.95.03.14.06.278.095.414.46 1.803.421 3.738.383 5.609-.01.503-.021 1.001-.021 1.49 0 .926-.027 2.146-.235 3.367-.084.498-.244 1.022-.398 1.53a36.06 36.06 0 0 0-.184.62c-.034.12-.065.249-.099.382-.127.511-.272 1.089-.568 1.542-.566.869-1.352 1.273-2.471 1.273-.856 0-1.75.067-2.527.191-.958.148-1.777.111-2.624.165-.45.032-.9.061-1.351.061zm-4.982-1.318c.474 0 .951.016 1.435.056.328.027.659.06.992.093.833.082 1.695.166 2.513.169l.043.5v-.5c.43 0 .858-.027 1.287-.056.816-.052 1.595-.008 2.532-.155a17.637 17.637 0 0 1 2.674-.203c.79 0 1.263-.237 1.643-.82.204-.312.327-.804.435-1.237.035-.142.07-.279.106-.408.058-.209.124-.424.19-.643.145-.478.295-.971.369-1.406.196-1.148.221-2.313.221-3.2 0-.495.01-1.001.021-1.51.037-1.806.074-3.672-.352-5.341-.038-.146-.071-.3-.104-.452-.062-.285-.12-.555-.212-.779a6.097 6.097 0 0 0-.195-.416 6.5 6.5 0 0 1-.262-.577c-.232-.613-.37-.881-.809-1.065-1.011-.426-2.249-.461-3.535-.461H10.226c-1.497 0-4.318.192-4.347.194-.275.053-2.168.613-2.508.876-.361.282-.519.829-.673 1.359l-.07.237a13.92 13.92 0 0 0-.436 1.809c-.063.388-.131.781-.201 1.175-.202 1.155-.412 2.349-.461 3.51-.023.576.106 1.121.243 1.699.096.407.196.828.246 1.279.025.224.043.451.061.68.028.368.056.737.122 1.095.115.605.271 1.219.464 1.82.058.179.104.355.148.53.099.383.184.713.4 1.016.57.796 1.548.938 2.583 1.089l.812.13c1.448.25 2.806.171 4.116.084.372-.025.744-.05 1.116-.069l.308-.017a42.464 42.464 0 0 1 2.33-.085zm-2.541-3.368l-.192-.023-.358-.09-.019-.369a21.77 21.77 0 0 1-.012-1.377l.005-.563c.001-.414-.039-.819-.078-1.226a18.976 18.976 0 0 1-.072-.896c-.022-.463.027-.892.076-1.308.037-.318.075-.638.075-.968V7.721c0-.188.014-.4.029-.622.03-.443.063-.947-.04-1.251l-.391-1.151 1.273.637.072.101c.06.083.247.177.398.252.081.04.16.08.233.121.265.15.54.293.814.435.437.226.874.453 1.278.71.32.203.618.43.917.657.256.195.511.391.784.568.614.398 1.268.786 1.998 1.183l.216.115c.692.363 1.284.702 1.529 1.18l.227.441-.439.23a.746.746 0 0 0-.131.146c-.1.129-.224.288-.428.401a1.238 1.238 0 0 1-.399.127 1.008 1.008 0 0 0-.112.025c-.023.011-.084.058-.124.088a2.426 2.426 0 0 1-.166.12c-.294.187-.597.37-.902.555-.851.517-1.731 1.05-2.46 1.673-.442.38-.889.595-1.321.803-.196.095-.397.191-.605.308-.084.049-.204.149-.34.259-.52.416-.919.711-1.335.711zm.479-9.881c-.006.171-.018.341-.028.504-.013.197-.026.387-.026.555v2.002c0 .37-.04.728-.082 1.084-.045.393-.088.764-.07 1.144.014.284.042.566.068.848.042.439.084.878.083 1.324l-.005.574c-.002.196-.005.394-.005.59l.293-.234c.187-.15.356-.282.476-.35.229-.129.448-.234.662-.338.409-.197.762-.367 1.105-.662.792-.676 1.708-1.231 2.592-1.768.3-.182.597-.362.885-.545.029-.019.061-.043.093-.068.086-.066.194-.149.322-.207a1.38 1.38 0 0 1 .345-.097c.034-.007.068-.01.099-.021a.987.987 0 0 0 .112-.132c-.257-.189-.638-.39-.856-.505l-.23-.122a30.475 30.475 0 0 1-2.064-1.223c-.295-.192-.57-.401-.845-.611-.275-.21-.551-.42-.846-.608-.38-.241-.792-.453-1.202-.666a24.293 24.293 0 0 1-.847-.452l-.029-.016z"/></svg>