<svg xmlns="http://www.w3.org/2000/svg" width="45.25" height="43.25" viewBox="0 0 45.25 43.25"><path fill="#FFF" d="M17.351 1.232c-1.444.383-2.661 1.336-3.936 2.08-2.324 1.348-4.696 2.955-6.65 4.791C2.617 11.996.804 21.083 1.553 26.58c.853 6.275 6.262 11.928 12.057 14.234 6.819 2.713 12.819.928 18.822-2.135 5.6-2.852 9.283-7.877 10.945-13.879 1.071-3.863.902-6.416-1.125-9.92-1.748-3.025-2.515-6.082-5.092-8.658-3.227-3.217-6.93-3.838-11.288-4.27-3.249-.318-6.015-1.318-9.308-.578"/><path fill="#DED96B" d="M20.389 42.588c-2.209 0-4.524-.396-6.943-1.357C7.002 38.664 1.93 32.666 1.11 26.641.32 20.836 2.322 11.66 6.46 7.777c1.751-1.643 4.015-3.273 6.731-4.85.321-.188.64-.391.961-.594.742-.469 1.502-.951 2.339-1.285l-.024-.107c2.408-.543 4.501-.193 6.713.176.884.146 1.797.299 2.736.391 4.342.432 8.208 1.061 11.559 4.398 1.785 1.787 2.705 3.74 3.676 5.809.453.967.922 1.965 1.488 2.943 2.003 3.465 2.31 6.15 1.168 10.262-1.761 6.357-5.729 11.385-11.173 14.158-3.592 1.83-7.69 3.508-12.245 3.51zM17.457 1.664c-1.004.27-1.931.855-2.828 1.424-.329.207-.658.416-.989.609-2.66 1.541-4.869 3.133-6.57 4.731-3.94 3.697-5.839 12.504-5.077 18.094.777 5.721 5.624 11.43 11.781 13.881 7.077 2.814 13.3.51 18.455-2.119 5.218-2.658 9.024-7.488 10.719-13.6 1.08-3.896.808-6.312-1.081-9.58-.586-1.012-1.062-2.025-1.523-3.01-.938-1.996-1.823-3.883-3.499-5.557-3.142-3.131-6.848-3.729-11.017-4.143-.969-.094-1.897-.248-2.795-.398-1.87-.312-3.649-.609-5.576-.332z"/></svg>