<?xml version="1.0" encoding="utf-8"?>
<!-- Generator: Adobe Illustrator 16.0.0, SVG Export Plug-In . SVG Version: 6.00 Build 0)  -->
<!DOCTYPE svg PUBLIC "-//W3C//DTD SVG 1.1//EN" "http://www.w3.org/Graphics/SVG/1.1/DTD/svg11.dtd">
<svg version="1.1" id="Capa_1" xmlns="http://www.w3.org/2000/svg" xmlns:xlink="http://www.w3.org/1999/xlink" x="0px" y="0px"
	 width="1363.742px" height="663.076px" viewBox="0 0 1363.742 663.076" enable-background="new 0 0 1363.742 663.076"
	 xml:space="preserve">
<path fill="#E0D963" d="M684.124,0h-6H-1.507v655.236c11-0.94,22.183-2.6,31.827-5.237c31.502-8.622,60.7-10.012,94.344-8.61
	c55.749,2.33,112.786,10.16,168.618,7.379c61.706-3.072,123.047-9.153,185.327-9.153c63.535,0,126.806,2.013,190.098,5.427
	c4.119,0.222,8.26,0.153,12.424-0.112c4.166,0.266,8.31,0.334,12.427,0.112c63.293-3.414,126.573-5.427,190.108-5.427
	c62.279,0,123.644,6.081,185.349,9.153c55.832,2.781,112.915-5.049,168.663-7.379c33.645-1.401,63.118-0.012,94.62,8.61
	c9.645,2.638,20.196,4.297,32.196,5.237V0H684.124z"/>
<g>
</g>
<g>
</g>
<g>
</g>
<g>
</g>
<g>
</g>
<g>
</g>
</svg>
