<?xml version="1.0" encoding="utf-8"?>
<!-- Generator: Adobe Illustrator 24.0.3, SVG Export Plug-In . SVG Version: 6.00 Build 0)  -->
<svg version="1.1" id="Capa_1" xmlns="http://www.w3.org/2000/svg" xmlns:xlink="http://www.w3.org/1999/xlink" x="0px" y="0px"
	 viewBox="0 0 400 404" style="enable-background:new 0 0 400 404;" xml:space="preserve">
<style type="text/css">
	.st0{fill:#28170C;}
	.st1{fill:#190B06;enable-background:new    ;}
	.st2{fill:#231009;enable-background:new    ;}
	.st3{opacity:0.82;}
	.st4{fill:#452A17;stroke:#1E1007;stroke-width:0.2585;}
	.st5{opacity:0.82;fill:#28170C;enable-background:new    ;}
	.st6{opacity:0.27;}
	.st7{fill:#B3824A;}
	.st8{opacity:0.34;fill:#94633A;enable-background:new    ;}
	.st9{fill:url(#SVGID_1_);}
	.st10{fill:none;stroke:#49250A;stroke-width:0.2585;}
	.st11{opacity:0.47;fill:#CA9F6A;enable-background:new    ;}
	.st12{fill:#B2804B;}
	.st13{fill:none;stroke:#4D3C34;stroke-width:0.2585;}
	.st14{fill:none;stroke:#875529;stroke-width:0.7755;}
	.st15{opacity:0.65;fill:url(#SVGID_2_);enable-background:new    ;}
	.st16{fill:#CCAB7F;stroke:#563304;stroke-width:0.2585;}
	.st17{opacity:0.47;fill:#B2804B;enable-background:new    ;}
	.st18{fill:url(#SVGID_3_);}
	.st19{fill:url(#SVGID_4_);}
	.st20{fill:#391E0D;}
	.st21{opacity:0.47;fill:#160A03;enable-background:new    ;}
	.st22{fill:#452A17;}
	.st23{fill:#FCD695;stroke:#4C2505;stroke-width:0.4721;}
	.st24{fill:url(#SVGID_5_);}
	.st25{opacity:0.98;}
	.st26{fill:#FEEECC;stroke:#4C2505;}
	.st27{fill:url(#SVGID_6_);}
	.st28{fill:url(#SVGID_7_);}
	.st29{opacity:0.26;enable-background:new    ;}
	.st30{fill:url(#SVGID_8_);}
	.st31{fill:url(#SVGID_9_);}
	.st32{fill:url(#SVGID_10_);}
	.st33{fill:url(#SVGID_11_);}
	.st34{opacity:0.26;fill:#28170C;enable-background:new    ;}
	.st35{fill:url(#SVGID_12_);}
	.st36{fill:url(#SVGID_13_);}
	.st37{fill:#CCAB7F;}
	.st38{fill:#FCD695;stroke:#4C2505;stroke-width:0.472;}
	.st39{enable-background:new    ;}
	.st40{fill:#2B150B;}
	.st41{fill:#2D150E;enable-background:new    ;}
	.st42{opacity:0.8;}
	.st43{fill:#28180E;}
	.st44{opacity:0.8;fill:#28180E;}
	.st45{opacity:0.9;}
	.st46{opacity:0.7;fill:#28180E;}
	.st47{opacity:0.7;}
	.st48{fill:#28180E;enable-background:new    ;}
	.st49{fill:#190F09;enable-background:new    ;}
	.st50{fill:#0C0704;enable-background:new    ;}
	.st51{opacity:0.4;fill:#452A17;}
	.st52{opacity:0.5;}
	.st53{fill:#B77F55;}
</style>
<path class="st0" d="M351.7,192.6c-1.5-11.3-11.2-18.1-21.4-20.1c-0.3-0.7-0.6-1.5-0.9-2.2c2.9-10.2,4-21.8-1.8-31.2
	c-5.5-8.8-15.9-9.7-25.2-8.1c-0.9-0.9-1.8-1.7-2.7-2.6c1.6-11.6-2.7-22.2-13.8-27.8c-10.4-5.3-23.2-4.5-33.8,0.2
	c-1.5-0.5-3-0.9-4.5-1.4c-4.4-21.9-38.7-26.3-48.7-8.9c-1.3-1.8-2.9-3.3-4.7-4.5c-16.4-10.6-43.1,1.8-42.7,22.1
	c-0.5,0.3-1,0.6-1.6,0.8c-11.5-4.1-24.6-3.3-35.2,3.1c-12,7.2-14.3,20.7-9.6,33.2c-10.6-1.1-21.9,0.8-27.2,11.3
	c-5.2,10.2-1.2,23.2,3.4,32.9c-10.8,3.2-19.4,11.3-19.8,23.3c-0.5,12.7,10.3,21.5,21.1,24.8c0.5,0.2,0.9-0.1,1.1-0.4
	c0.1-0.1,0.3-0.3,0.4-0.4c8.6,16.2,33.5,7.7,42.8-6.5c1.8,9.2,7.7,15.9,17.9,14.4c8.9-1.3,17.2-8.1,21.4-16.4
	c1.1,5.9,3.6,12.1,9.5,13.8c6.6,1.9,13.3-1.6,18.6-5.4c7-5,11.8-11.4,15.1-18.5l2-0.1c0.9,1.4,1.9,2.7,2.9,4
	c6.4,7.7,16.8,15.5,27.1,16.2c10.2,0.6,14-7.4,14.6-16.2c5.3,7.7,14.3,12.8,23.5,13.3c10.3,0.5,15.2-7.6,15.7-16.7
	c11.6,13.2,38.8,18,43.9-1.2C347.3,211.9,353.1,203.3,351.7,192.6z"/>
<path class="st1" d="M194.9,52.6c-4.7-4.5-11.7-4-17-1.1c-0.4-0.2-0.8-0.4-1.2-0.7c-2.3-5.7-6-11.3-12.1-13.3
	c-5.7-1.9-10.8,1.5-14.5,5.7c-0.7-0.1-1.4-0.1-2.2-0.2c-3.4-5.8-9.2-9-16.3-7.4c-6.7,1.5-12.2,6.6-15.4,12.6
	c-0.9,0.3-1.7,0.7-2.6,1.1c-9.9-8.2-27.2,2.5-25.5,14c-1.2-0.3-2.5-0.4-3.8-0.3C73,64.5,65.3,79.9,72.8,88.8c-0.1,0.3-0.3,0.6-0.4,1
	c-6.8,2.4-12.5,7.6-15,14.4c-2.9,7.7,0.9,14.6,7.6,18.5c-5.2,3.4-9.7,8.5-8.4,15.1c1.3,6.5,7.8,10.9,13.4,13.5
	c-3.8,5.4-4.8,12.2-0.7,17.8c4.4,5.9,12.5,5.8,18.6,3.3c0.3-0.1,0.4-0.3,0.3-0.6c0-0.1,0-0.2,0-0.3c9.8,4.1,18.1-9,17.3-18.8
	c4.1,3.5,9.2,4.3,13.4-0.2c3.6-3.9,5-10,3.9-15.3c2.6,2.2,6,4.1,9.3,2.7c3.7-1.6,5.5-5.7,6.6-9.3c1.4-4.8,1.3-9.5,0.2-13.9l0.9-0.8
	c0.9,0.3,1.8,0.5,2.8,0.7c5.7,1.1,13.3,0.7,18.3-2.8c4.9-3.5,3.7-8.5,0.8-12.7c5.2,1.5,11.2,0.5,15.6-2.7c4.9-3.6,4.2-9,1.2-13.3
	c10.1,1.6,24.3-6.2,19.7-16.8C199.9,62.9,199.4,56.9,194.9,52.6z"/>
<path class="st2" d="M253.5,110.3c-0.3,0.4-0.4-0.8-0.6-1.2c1.2-6,1.3-12.7-2.6-17.8c-3.7-4.8-9.8-4.7-15.2-3.3
	c-0.6-0.5-1.1-0.9-1.7-1.3c0.4-6.7-2.7-12.6-9.5-15.3c-6.4-2.5-13.8-1.4-19.8,1.9c-0.9-0.2-1.8-0.4-2.7-0.6c-3.7-12.4-24-13-29-2.6
	c-0.9-0.9-1.9-1.7-3-2.3c-10.2-5.2-25.2,3.3-23.9,14.9c-0.3,0.2-0.6,0.4-0.9,0.6C138,75,123,70,118,91c-11-4-27,5-13.4,23.3
	c0,0-18.6,0.7-10.6-23.3c2.2-6.5,14.8-9.7,21-9.6c-3.4-6.9-2.7-14.8,4-19.6c5.9-4.2,13.5-5.3,20.5-3.6c0.3-0.2,0.6-0.4,0.9-0.6
	c-1.2-11.6,13.8-20.1,23.9-14.9c1.1,0.6,2.1,1.4,3,2.3c5-10.5,25.4-9.8,29,2.6c0.9,0.2,1.8,0.4,2.7,0.6c6-3.2,13.4-4.4,19.8-1.9
	c6.8,2.7,9.8,8.5,9.5,15.3c0.6,0.4,1.1,0.9,1.7,1.3c5.4-1.4,11.5-1.5,15.2,3.3c3.9,5.1,3.8,11.8,2.6,17.8c0.2,0.4,0.4,0.8,0.6,1.2
	C248.5,85.3,262,99,253.5,110.3z"/>
<g class="st3">
	<g>
		<g>
			<path class="st0" d="M105.1,292c0,0,56.8-71.3,109.4-11C214.5,281.1,168.6,227.2,105.1,292z"/>
		</g>
		<g>
			<path class="st0" d="M110.1,311c0,0,44.5-79.3,106.2-27.9C216.3,283.1,162.2,237.1,110.1,311z"/>
		</g>
		<g>
			<g>
				<g>
					<path class="st0" d="M316.8,278.2c0,0-61.4-48.1-92.9,12.1C223.9,290.3,251.2,236.7,316.8,278.2z"/>
				</g>
				<g>
					<path class="st0" d="M316.2,292.3c0,0-54.6-55.5-93.7,0.2C222.5,292.5,256.6,242.8,316.2,292.3z"/>
				</g>
			</g>
		</g>
	</g>
</g>
<path class="st4" d="M373.4,162.2c-3.9-30-26-52-49.3-49.1c-7,0.9-13.2,3.9-18.5,8.4c-17.4-24.3-43-42.1-72.4-49.9
	c-13.7-2.8-25.7-4.2-40.1-4.2c-3.4,0.2-6.8,0.5-10.2,0.9c-54.6,6.8-96.8,46-109.4,95.4c-5.6-2.3-11.6-3.3-17.7-2.5
	c-23.3,2.9-39,29.6-35.1,59.6c3.9,30,26,52,49.3,49.1c8.1-1,15.2-4.9,21-10.7c25.3,29.4,70.5,36.6,120.8,30.3
	c54.7-6.9,99.5-27.7,113-68.7c4.4,1.2,8.9,1.7,13.6,1.1C361.6,218.9,377.3,192.2,373.4,162.2z"/>
<path class="st5" d="M371.9,153.9c-1.4,24.3-15.8,44-35.6,46.5c-4.6,0.6-9.2,0.2-13.6-1.1c-13.6,41-58.3,61.9-113.1,68.7
	c-50.3,6.3-95.4-0.9-120.8-30.3c-5.8,5.9-12.9,9.7-21,10.7c-21.7,2.7-42.2-16-48.2-42.8c-0.2,4.3-0.1,8.7,0.5,13.1
	c3.9,30,26,52,49.3,49.1c8.1-1,15.2-4.9,21-10.7c25.3,29.4,70.5,36.6,120.8,30.3c54.7-6.9,99.5-27.7,113-68.7
	c4.4,1.2,8.9,1.7,13.6,1.1c23.3-2.9,39-29.6,35.1-59.6C372.8,158,372.4,155.9,371.9,153.9z"/>
<g class="st6">
	<g>
		<g>
			<path class="st7" d="M233.3,89.7c36.9,10.7,55,27.1,72.4,51.4c5.3-4.6,11.6-7.6,18.5-8.4c22.2-2.8,43.3,17,48.6,44.8
				c0.1-3.6-0.1-7.4-0.6-11.2c-3.9-30-26-52-49.3-49.1c-7,0.9-13.2,3.9-18.5,8.4c-17.4-24.3-43-42.1-72.4-49.9
				c-15.5-5.2-40.1-4.2-40.1-4.2c-3.4,0.2-6.8,0.4-10.2,0.9c-54.6,6.8-96.8,46-109.4,95.4c-5.6-2.3-11.6-3.3-17.7-2.5
				c-23.3,2.9-39,29.6-35.1,59.6c0.2,1.4,0.4,2.8,0.7,4.2c0.8-25.2,15.3-45.9,35.7-48.5c6.1-0.8,12.1,0.2,17.7,2.5
				c12.6-49.4,54.9-88.6,109.4-95.4C186.1,87.5,211.5,85.8,233.3,89.7z"/>
		</g>
	</g>
</g>
<path class="st8" d="M73.5,163.7c0,0,11.7-39.1,45.6-67c20.7-17,47.3-29.5,77.8-28.8c21.5,1.1,34.6,4.1,36,4.2
	c49.8,17.7,55,29,73.5,51c0,0-62.8-21.6-127.7-14C141.4,113.6,88.6,157.6,73.5,163.7z"/>
<g>
	
		<image style="overflow:visible;opacity:0.34;enable-background:new    ;" width="117" height="104" xlink:href="E2F34A19F2FC0B97.png"  transform="matrix(2.1112 0 0 2.1089 71.7646 82.7075)">
	</image>
	<g>
		
			<radialGradient id="SVGID_1_" cx="73.5268" cy="270.6537" r="95.0625" gradientTransform="matrix(1.13 0 0 -1.1085 112.323 491.6021)" gradientUnits="userSpaceOnUse">
			<stop  offset="0" style="stop-color:#B2804B"/>
			<stop  offset="0.509" style="stop-color:#B07E4A"/>
			<stop  offset="0.6924" style="stop-color:#A97845"/>
			<stop  offset="0.823" style="stop-color:#9E6D3D"/>
			<stop  offset="0.9279" style="stop-color:#8D5D31"/>
			<stop  offset="1" style="stop-color:#7C4D25"/>
		</radialGradient>
		<path class="st9" d="M195.1,131c0,0-86.1-49.9-108.8,26c-11.4,38.1-1.6,72.2,59.3,115.1c64.6,45.5,130.1,1.2,150.6-56.7
			c10.1-28.5,21.6-61.6,1.2-94.1C297.4,121.3,239.2,50,195.1,131z"/>
		<path class="st10" d="M195.1,131c0,0-86.1-49.9-108.8,26c-11.4,38.1-1.6,72.2,59.3,115.1c64.6,45.5,130.1,1.2,150.6-56.7
			c10.1-28.5,21.6-61.6,1.2-94.1C297.4,121.3,239.2,50,195.1,131z"/>
	</g>
</g>
<path class="st11" d="M88.1,179.3c22.7-75.9,108.8-26,108.8-26c44.1-81,102.3-9.7,102.3-9.7c4.7,7.4,7.6,14.9,9.4,22.3
	c0.8-14.5-1.9-29.3-11.1-44c0,0-58.2-71.3-102.3,9.7c0,0-86.1-49.9-108.8,26C82,172.1,80.7,186,84.1,200
	C84.6,193.2,86,186.3,88.1,179.3z"/>
<g>
	<path class="st12" d="M257.6,238.3c0,0,22.8-5.1,26.5,17.5c0.6,3.6-0.8,11.8,0.7,17.1c8.1,28.4,20.4,66.5-82.7,76.1
		c0,0-75.9,20.7-66.1-54.6c0,0-9.5-23.5,14.3-35L257.6,238.3z"/>
</g>
<path class="st13" d="M253.3,286.5c0,0,18,11.3,7.7,25.1"/>
<path class="st14" d="M184.8,216c1.3-0.2,15.2-9.7,33.1-4.2"/>
<path class="st14" d="M180.7,213.3c1.2-0.2,16.8-13,40.7-4.7"/>
<radialGradient id="SVGID_2_" cx="160.2417" cy="-41.5255" r="55.1862" gradientTransform="matrix(1.1264 -8.850000e-02 -9.020000e-02 -1.1049 27.7699 279.6966)" gradientUnits="userSpaceOnUse">
	<stop  offset="0" style="stop-color:#CA9E64;stop-opacity:0"/>
	<stop  offset="0.1822" style="stop-color:#C69B62;stop-opacity:0.1822"/>
	<stop  offset="0.3523" style="stop-color:#BB915C;stop-opacity:0.3523"/>
	<stop  offset="0.5175" style="stop-color:#A88152;stop-opacity:0.5175"/>
	<stop  offset="0.6798" style="stop-color:#8E6A44;stop-opacity:0.6798"/>
	<stop  offset="0.8398" style="stop-color:#6B4D32;stop-opacity:0.8398"/>
	<stop  offset="0.9964" style="stop-color:#42291C;stop-opacity:0.9964"/>
	<stop  offset="1" style="stop-color:#41281B"/>
</radialGradient>
<path class="st15" d="M140.2,283.4c0,0,117.7,146.5,142-17.7c0,0,16.6,44.2-0.7,58.2C264.3,338,205,352,188.1,353.4
	c-27.8,2.4-60.3-10.2-53.5-54.1"/>
<path class="st16" d="M283.8,280.9c3,36.8-27.6,68.8-64.9,74.6c-10.1,1.7-14.1,1.9-21.6,0.4c-28.3-8.5-54-34.2-56.4-63.7
	c-3.2-38.7,26.3-72.6,65.7-75.7C246.1,213.3,280.6,242.2,283.8,280.9z"/>
<path class="st17" d="M207.6,230.6c37.1-2.9,69.9,22.5,76.3,57.7c0-2.2,0-4.5-0.2-6.8c-3.2-38.7-37.7-67.6-77.2-64.5
	c-39.4,3.1-68.9,37-65.7,75.7c0.2,2.3,0.5,4.5,0.9,6.7C142.2,263.7,170.4,233.5,207.6,230.6z"/>
<g>
	<g>
		<g>
			<path class="st12" d="M98.9,141c0,0,47.8-62.2,94-11C192.9,130,152.6,84.3,98.9,141z"/>
		</g>
		<g>
			<path class="st12" d="M103.4,157.3c0,0,37.1-68.9,91-25.6C194.4,131.7,147.2,92.9,103.4,157.3z"/>
		</g>
		<g>
			<g>
				<g>
					<path class="st12" d="M270.2,94.8c0,0-62.6-25.2-73.8,32C196.4,126.8,205.8,76.1,270.2,94.8z"/>
				</g>
				<g>
					<path class="st12" d="M273.2,106.7c0,0-58.7-33-77.4,22.3C195.8,129,211.8,79.9,273.2,106.7z"/>
				</g>
			</g>
		</g>
	</g>
</g>
<linearGradient id="SVGID_3_" gradientUnits="userSpaceOnUse" x1="-414.2963" y1="-73.2185" x2="-392.3051" y2="-73.2185" gradientTransform="matrix(1.2136 -0.1356 3.980000e-02 -1.0348 733.4006 59.3108)">
	<stop  offset="0" style="stop-color:#673B15"/>
	<stop  offset="0.1667" style="stop-color:#6E421B;stop-opacity:0.8333"/>
	<stop  offset="0.4181" style="stop-color:#83572B;stop-opacity:0.5819"/>
	<stop  offset="0.7211" style="stop-color:#A57946;stop-opacity:0.2789"/>
	<stop  offset="1" style="stop-color:#CA9E64;stop-opacity:0"/>
</linearGradient>
<path class="st18" d="M227.4,199c0,0,36.5,2.9,24.6-19.2"/>
<linearGradient id="SVGID_4_" gradientUnits="userSpaceOnUse" x1="-3203.8762" y1="-221.8136" x2="-3174.1599" y2="-221.8136" gradientTransform="matrix(-1.2458 0.199 1.580000e-02 -1.0426 -3807.865 603.7652)">
	<stop  offset="0" style="stop-color:#673B15"/>
	<stop  offset="0.1667" style="stop-color:#6E421B;stop-opacity:0.8333"/>
	<stop  offset="0.4181" style="stop-color:#83572B;stop-opacity:0.5819"/>
	<stop  offset="0.7211" style="stop-color:#A57946;stop-opacity:0.2789"/>
	<stop  offset="1" style="stop-color:#CA9E64;stop-opacity:0"/>
</linearGradient>
<path class="st19" d="M145.9,194.1c-13.8,26.3,25.6,12.4,25.6,12.4s5.5-1.1,8.4-2.5"/>
<g>
	<path class="st20" d="M153.5,195.8c1.4,7.6,8.7,12.6,16.4,11.2c7.7-1.4,17.8-5.1,16.4-12.6c-2.8-12.8-13.6-16.1-21.3-14.7
		C157.3,181,152.2,188.3,153.5,195.8z"/>
	<path class="st21" d="M153.5,195.8c1.3,7.1,8.2,11.8,15.5,10.5c7.3-1.3,16.8-4.8,15.5-11.9c-2.6-12.1-12.9-15.2-20.1-13.9
		C157.1,181.9,152.2,188.7,153.5,195.8z"/>
	<path class="st22" d="M160.7,195c1.1,4.9,6.1,8,11.1,6.8c5-1.1,8.2-6,7-10.9c-1.1-4.9-6.1-8-11.1-6.8
		C162.7,185.2,159.6,190.1,160.7,195z"/>
	<path class="st23" d="M167.4,195.9c-0.5,2.3,1,4.5,3.3,4.9c2.3,0.5,4.5-1,5-3.2c0.5-2.3-1-4.5-3.3-4.9
		C170.1,192.2,167.9,193.6,167.4,195.9z"/>
</g>
<path class="st13" d="M162.3,310.8"/>
<g>
	
		<linearGradient id="SVGID_5_" gradientUnits="userSpaceOnUse" x1="-739.4912" y1="1023.2985" x2="-707.9471" y2="1023.2985" gradientTransform="matrix(0.5754 0.8179 0.8179 -0.5754 -216.5786 1415.5732)">
		<stop  offset="0" style="stop-color:#673B15"/>
		<stop  offset="0.1667" style="stop-color:#6E421B;stop-opacity:0.8333"/>
		<stop  offset="0.4181" style="stop-color:#83572B;stop-opacity:0.5819"/>
		<stop  offset="0.7211" style="stop-color:#A57946;stop-opacity:0.2789"/>
		<stop  offset="1" style="stop-color:#CA9E64;stop-opacity:0"/>
	</linearGradient>
	<path class="st24" d="M180.9,243.6c1.6,9.5,32.4,2.9,44.3-4.5c3.4-2.1,3.7-11.3,3.2-11.6C219.5,220.7,193.3,205.2,180.9,243.6"/>
	<g class="st25">
		<g>
			<g>
				<path class="st0" d="M201.7,221.6c11.7-3,23.3,1.4,27.7,10c-0.1-1.1-0.2-2.3-0.5-3.4c-2.9-10.7-15.8-16.6-29-13.3
					c-13.1,3.4-21.5,14.8-18.6,25.5c0.3,1.1,0.7,2.2,1.3,3.2C182.1,234,190,224.6,201.7,221.6z"/>
			</g>
			<g>
				<path class="st0" d="M196.6,234c3.9-1,7.9,0.9,9.5,4.4c0-0.5-0.1-0.9-0.2-1.4c-1.1-4.3-5.6-6.9-10-5.7c-4.4,1.1-7,5.5-5.8,9.8
					c0.1,0.5,0.3,0.9,0.5,1.3C190.2,238.6,192.7,235,196.6,234z"/>
			</g>
			<g>
				<path class="st0" d="M214.9,230c-3.9,0.8-6.6,4.4-6.4,8.2c-0.2-0.4-0.3-0.9-0.4-1.3c-1-4.3,1.8-8.6,6.2-9.6
					c4.4-1,8.8,1.8,9.7,6.1c0.1,0.5,0.2,0.9,0.2,1.4C222.7,231.3,218.8,229.2,214.9,230z"/>
			</g>
			<path class="st0" d="M206,237.2c0.2,2.2-1.5,4.1-3.8,4.3c-2.3,0.2-4.2-1.5-4.4-3.7c-0.2-2.2,1.5-4.1,3.8-4.3
				C203.8,233.3,205.8,235,206,237.2z"/>
			<path class="st0" d="M217,236.3c0.2,2.2-1.5,4.1-3.8,4.3c-2.2,0.2-4.2-1.5-4.4-3.7c-0.2-2.2,1.5-4.2,3.8-4.3
				C214.8,232.5,216.8,234.1,217,236.3z"/>
		</g>
	</g>
</g>
<g>
	<path class="st26" d="M266.7,295.8c0,0-34.7,1.2-56.6-8.5c-11.1-4.9-42.6-26.6-48.6,2.4c0,0,19.4,52.2,90.2,23.7
		C260.3,309.9,256.7,303.3,266.7,295.8z"/>
	
		<linearGradient id="SVGID_6_" gradientUnits="userSpaceOnUse" x1="-26.5193" y1="261.5443" x2="-20.3348" y2="261.5443" gradientTransform="matrix(0.9903 0.1392 0.1392 -0.9903 145.9361 547.1812)">
		<stop  offset="0" style="stop-color:#B2804B"/>
		<stop  offset="0.3816" style="stop-color:#B88751;stop-opacity:0.6184"/>
		<stop  offset="0.9553" style="stop-color:#C89C62;stop-opacity:4.470000e-02"/>
		<stop  offset="1" style="stop-color:#CA9E64;stop-opacity:0"/>
	</linearGradient>
	<path class="st27" d="M164.4,269.9c0,0-16,13.9-4.3,30.8"/>
	
		<linearGradient id="SVGID_7_" gradientUnits="userSpaceOnUse" x1="-26.5193" y1="261.5443" x2="-20.3348" y2="261.5443" gradientTransform="matrix(0.9903 0.1392 0.1392 -0.9903 145.9361 547.1812)">
		<stop  offset="0" style="stop-color:#B2804B"/>
		<stop  offset="0.3816" style="stop-color:#B88751;stop-opacity:0.6184"/>
		<stop  offset="0.9553" style="stop-color:#C89C62;stop-opacity:4.470000e-02"/>
		<stop  offset="1" style="stop-color:#CA9E64;stop-opacity:0"/>
	</linearGradient>
	<path class="st28" d="M164.4,269.9c0,0-16,13.9-4.3,30.8"/>
	<g class="st29">
		<path class="st0" d="M164.4,269.9c-1.7,2.4-3.1,4.8-4.3,7.3c-1.2,2.5-2.1,5-2.5,7.6c-0.2,1.3-0.3,2.6-0.4,3.9c0,1.3,0.1,2.6,0.3,4
			c0.5,2.7,1.4,5.3,2.5,8c-2.1-2-3.8-4.6-4.8-7.4c-0.5-1.4-0.8-2.9-0.9-4.5c-0.1-1.5,0-3.1,0.2-4.6c0.5-3,1.8-5.8,3.4-8.3
			C159.8,273.6,161.8,271.4,164.4,269.9z"/>
	</g>
	
		<linearGradient id="SVGID_8_" gradientUnits="userSpaceOnUse" x1="-660.9907" y1="1039.0895" x2="-653.3143" y2="1039.0895" gradientTransform="matrix(0.8548 0.5189 0.5189 -0.8548 273.7148 1540.3232)">
		<stop  offset="0" style="stop-color:#58585A"/>
		<stop  offset="0.2077" style="stop-color:#7E6F5D;stop-opacity:0.7923"/>
		<stop  offset="0.4275" style="stop-color:#9F8460;stop-opacity:0.5725"/>
		<stop  offset="0.6383" style="stop-color:#B79262;stop-opacity:0.3617"/>
		<stop  offset="0.834" style="stop-color:#C59B64;stop-opacity:0.166"/>
		<stop  offset="1" style="stop-color:#CA9E64;stop-opacity:0"/>
	</linearGradient>
	<path class="st30" d="M257.4,308.2c0,0-1.5-2.8-5.2-3.1c-1.1-0.1-6.2,10-7.7,9.5"/>
	
		<linearGradient id="SVGID_9_" gradientUnits="userSpaceOnUse" x1="-3675.3774" y1="323.3613" x2="-3667.7798" y2="323.3613" gradientTransform="matrix(-0.9962 -8.700000e-02 8.700000e-02 -0.9962 -3520.115 297.9228)">
		<stop  offset="0" style="stop-color:#58585A"/>
		<stop  offset="0.2077" style="stop-color:#7E6F5D;stop-opacity:0.7923"/>
		<stop  offset="0.4275" style="stop-color:#9F8460;stop-opacity:0.5725"/>
		<stop  offset="0.6383" style="stop-color:#B79262;stop-opacity:0.3617"/>
		<stop  offset="0.834" style="stop-color:#C59B64;stop-opacity:0.166"/>
		<stop  offset="1" style="stop-color:#CA9E64;stop-opacity:0"/>
	</linearGradient>
	<path class="st31" d="M162.4,289.3c0,0,2.9-1.4,6,0.5c0.9,0.6-1,11.7,0.5,12.1"/>
	
		<linearGradient id="SVGID_10_" gradientUnits="userSpaceOnUse" x1="-2409.4756" y1="-1622.6787" x2="-2404.1895" y2="-1622.6787" gradientTransform="matrix(-0.9938 0.1107 0.1107 0.9938 -1942.6826 2173.01)">
		<stop  offset="0" style="stop-color:#B2804B"/>
		<stop  offset="0.3816" style="stop-color:#B88751;stop-opacity:0.6184"/>
		<stop  offset="0.9553" style="stop-color:#C89C62;stop-opacity:4.470000e-02"/>
		<stop  offset="1" style="stop-color:#CA9E64;stop-opacity:0"/>
	</linearGradient>
	<path class="st32" d="M268.5,307.4c0,0,10.2-14.8-3-26.3"/>
	<path class="st13" d="M162.6,289.8c0,0,4.8-5.8,5.5-4.4c2.4,4.6,8.7,15.6,11.2,11.8c3.3-4.9,0.3-10.5,0.3-10.5s3.3,18.9,10.3,14.6
		c7-4.3,47.9,0.1,47.9,0.1s6.7,10.2,9.4,2.1c2.7-8.2,2.7-8.2,2.7-8.2s-4.9,16.6-0.3,11.7c5.9-6.2,1.9,3.8,11.7-6"/>
	
		<linearGradient id="SVGID_11_" gradientUnits="userSpaceOnUse" x1="0.5306" y1="222.885" x2="76.7824" y2="222.885" gradientTransform="matrix(0.9997 2.640000e-02 2.640000e-02 -0.9997 171.4507 546.2575)">
		<stop  offset="0" style="stop-color:#B2804B"/>
		<stop  offset="0.3816" style="stop-color:#B88751;stop-opacity:0.6184"/>
		<stop  offset="0.9553" style="stop-color:#C89C62;stop-opacity:4.470000e-02"/>
		<stop  offset="1" style="stop-color:#CA9E64;stop-opacity:0"/>
	</linearGradient>
	<path class="st33" d="M178,318.6c0,0,13.1,4.8,24.8,6.7c15.7,2.6,44.2-1.6,51.6-11C254.4,314.3,218.9,359.2,178,318.6z"/>
	<path class="st34" d="M184.7,320.9c0,0,13.1,3.9,19.5,5c8.6,1.4,31.7,1.6,35.8-3.5C240,322.3,207.1,343,184.7,320.9z"/>
	<path class="st13" d="M179.3,297.1"/>
</g>
<linearGradient id="SVGID_12_" gradientUnits="userSpaceOnUse" x1="-59.4645" y1="225.2826" x2="5.8652" y2="225.2826" gradientTransform="matrix(1 0 0 -1 84 446)">
	<stop  offset="0" style="stop-color:#B2804B"/>
	<stop  offset="0.2854" style="stop-color:#BF9058;stop-opacity:0.7146"/>
	<stop  offset="0.619" style="stop-color:#C79B61;stop-opacity:0.381"/>
	<stop  offset="1" style="stop-color:#CA9E64;stop-opacity:0"/>
</linearGradient>
<path class="st35" d="M46.2,232.8c-14-11.1-18.8-28.6-12.2-41.2c-1.3,1.1-2.6,2.3-3.7,3.6c-10.5,12.7-6.3,33.1,9.3,45.6
	c15.7,12.4,36.9,12.2,47.4-0.5c1.1-1.4,2-2.8,2.8-4.3C78.6,244.8,60.2,243.9,46.2,232.8z"/>
<linearGradient id="SVGID_13_" gradientUnits="userSpaceOnUse" x1="-1772.4003" y1="-4166.6191" x2="-1708.312" y2="-4166.6191" gradientTransform="matrix(-0.338 -0.9412 -0.9412 0.338 -4168.3408 -63.8844)">
	<stop  offset="0" style="stop-color:#CA9E64;stop-opacity:0"/>
	<stop  offset="0.4146" style="stop-color:#BF9058;stop-opacity:0.4146"/>
	<stop  offset="1" style="stop-color:#B2804B"/>
</linearGradient>
<path class="st36" d="M356.7,171.9c-5.9,16.7-21.1,27-35.5,25.2c1.5,0.9,3.1,1.6,4.7,2.2c15.8,5.4,33.9-5.3,40.6-24
	c6.6-18.7-0.8-38.2-16.5-43.6c-1.7-0.6-3.4-0.9-5.1-1.2C357.4,137.9,362.7,155.2,356.7,171.9z"/>
<line class="st37" x1="214.4" y1="356.1" x2="202.6" y2="355.4"/>
<g>
	<path class="st20" d="M245.3,184.9c0.5,7.5-5.3,13.9-13,14.4c-7.6,0.5-18-0.7-18.5-8.2c-0.3-12.8,9.2-18.4,16.8-18.9
		C238.3,171.7,244.8,177.4,245.3,184.9z"/>
	<path class="st21" d="M245.3,184.8c0.4,7-5,13.1-12.2,13.6c-7.2,0.5-17-0.7-17.4-7.7c-0.3-12,8.7-17.3,15.9-17.8
		C238.7,172.5,244.9,177.8,245.3,184.8z"/>
	<path class="st22" d="M238.3,185.8c0.1,4.9-3.9,9-8.9,9c-5,0.1-9.1-3.8-9.2-8.7c-0.1-4.9,3.9-9,8.9-9
		C234.1,177,238.2,180.9,238.3,185.8z"/>
	<path class="st38" d="M232.3,188.1c1,2.1,0.1,4.6-2,5.6c-2.1,1-4.6,0.1-5.7-1.9c-1-2.1-0.1-4.6,2-5.6
		C228.7,185.1,231.3,186,232.3,188.1z"/>
</g>
<g class="st39">
	<path class="st40" d="M84.2,194.4c-4.6,6.2,0.5,13.3,3.7,18.8c3,5.2,6.6,14.1,0.8,18.8c-0.1,0.1,0,0.2,0.1,0.1
		c5.4-3.6,2.9-11.9,0.7-16.5C86.6,209.3,79.1,201.7,84.2,194.4C84.3,194.4,84.2,194.4,84.2,194.4L84.2,194.4z"/>
	<path class="st40" d="M83.6,195.2c-2,2-2.1,4.8-1.6,7.4c0.7,3.6,2.4,7,3.8,10.3c1.5,3.2,3.1,6.6,3.6,10.1c0.2,1.4,0.1,3-0.6,4.3
		c-0.8,1.6-2.4,2.3-3.9,3c0,0,0,0.1,0,0.1c2.8-0.6,4.6-2.9,4.8-5.5c0.2-3.3-1.3-6.6-2.5-9.5c-1.5-3.5-3.3-7-4.5-10.7
		C81.8,201.7,81.2,197.9,83.6,195.2C83.7,195.2,83.6,195.2,83.6,195.2L83.6,195.2z"/>
</g>
<g class="st39">
	<path class="st40" d="M276,134c-39.6-22.3-63,12-87,10c-21.1-1.8-38.8-25.5-86-6c-29,12-5.8,88.3-11,81C46,155,87,89,92,92.5
		c-6.4-10.8,1.1-24.8,10.7-32.7c16.6-13.7,39.1-18,60.3-16.3c21.2,1.6,41.7,8.7,61.9,15.7c-1.7-11.5,16.8-20.1,27.9-17.6
		c11.1,2.5,18.7,13.8,20.4,25.3c9.1-3.6,22.5,2.1,29,9.6c6.5,7.5,7.7,19.3,3,28.1c13.7,9.5,14.8,81.8-3.3,98.5
		C295.4,209.2,292,143,276,134z"/>
</g>
<g class="st39">
	<path class="st2" d="M304.2,90.4c0.2,0.4,0.4,0.8,0.6,1.3c8.9,3.3,16.4,10.2,19.7,19.2c3.8,10.2-1.4,19.4-10.2,24.4
		c6.9,4.6,12.8,11.3,10.9,20.1c-1.8,8.6-4.4,14.3-11.9,17.8c5,7.2,6.2,16.3,0.7,23.6c-2.3,3.1-5.4,4.9-8.8,5.8"/>
	<path class="st2" d="M278,124c-1.7,1.1-1,26,13,39c-5.8,3.1-6.1,20.1,4.3,21.9c-4.1,4.3-3.4,10.3,0.5,15.3c0,0-12.8,13.8-5.8,31.8
		c3-2,10-5,15-14c5.4-9.8,3.8-17.9,3.8-17.9l3.5-19.9L315,165c0,0,1.1-11.9-1-15C306,138,278,124,278,124z"/>
	<path class="st2" d="M101.4,107.6c1.8,0.9,3.5,25.8-9.2,40.1c6.1,2.5,8,19.5-2.2,22.2c4.5,3.9,4.3,9.9,1,15.3
		c0,0,13.1,11.9,7.1,41.9c-3.2-1.7-8.7-14.9-14.6-23.4c-6.3-9.2-5.4-17.5-5.4-17.5l-5.4-19.5l-4.1-14.9c0,0-2.2-11.7-0.4-15
		C74.9,124.1,101.4,107.6,101.4,107.6z"/>
	<path class="st2" d="M165.2,134.4c-0.7,1.9-25.3,6-40.8-5.2c-1.9,6.3-41.7,15.7-45.5,5.8c-3.4,4.8,7-29,38.8-29
		C166.1,106.2,165.2,134.4,165.2,134.4z"/>
	<image style="overflow:visible;" width="246" height="192" xlink:href="E2F34A19F2FC0B95.png"  transform="matrix(1 0 0 1 70 41)">
	</image>
	<path class="st2" d="M66.5,126.1c-1.1,0.1-2.2,0.5-3.1,1c-8.7,4.7-10,19.7-1.1,24.5c0,0.3,0,0.6,0,0.9c-4.7,4.1-7.6,10.2-7.5,16.5
		c0.1,7.1,5.4,11.5,12,12.5c-3.1,4.4-5.2,10-1.9,14.9c3.1,4.8,9.8,6.3,15.2,6.6c-1.3,5.6,0,11.4,5.2,14.6c2.1,1.3,4.5,1.7,6.7,1.4"
		/>
</g>
<path class="st41" d="M298.9,110.4c4.6-8.7,3.4-20.2-3-27.6c-6.3-7.4-19.5-13-28.5-9.5c-1.7-11.3-9-23.6-20.1-24.9
	C217,45,213,70,213,70c-0.3-0.3-3-16-17.3-17.3c-6-0.6-10.9-1.1-15.4,2.1c-0.7-0.2-1.4-0.5-2.1-0.7c-2-6.4-6.8-10.9-14.1-11.1
	c-6.8-0.2-13.4,3.5-18,8.5c-0.9,0.1-1.8,0.3-2.7,0.4c-7.7-10.4-27-4-28.2,7.5c-1.1-0.6-2.3-1-3.6-1.2C100.3,56.9,89.1,70,94.3,80.5
	c-0.2,0.3-0.4,0.6-0.6,0.8c-7.1,0.7-13.9,4.4-18,10.4c-4.7,6.8-2.6,14.4,2.9,19.8c-5.9,2.1-14.2,9.8-16.5,16.2
	c-6,17.3,8.2,52.6,8.2,52.6c4.3-20.3,10.2-34.6,17.3-44.7c12.6,1.1,36.7-7.6,37.8-12.6c16.3,10,40.5,4,41.1,2.1c0,0,0-0.1,0-0.2
	c0.5,0.3,1,0.5,1.5,0.8c-0.2,1.2,0,1.5,0.5,0.6C173,135.8,206,143,214,128c0,0,0.1-0.1,0.1-0.1c28.6-2.5,56.1-7.2,66.2,1
	c6.7,5.4,7,19.3,7.7,26.1c2,19,17.7,31,17.7,31C312.1,158.7,317,110,298.9,110.4z"/>
<g class="st42">
	<g>
		<path class="st43" d="M213.3,76.8c-16.1,6.8-32.3-6.7-45-15.5c-12-8.3-32.9-19.4-45.7-9.7c-0.2,0.2-0.5-0.1-0.3-0.3
			c10-9.6,29.6-0.8,40.4,5.5c14.9,8.7,31.9,27.4,50.6,19.9C213.3,76.7,213.4,76.8,213.3,76.8L213.3,76.8z"/>
		<path class="st43" d="M211.2,77.7c-5.4,3.2-12.2,2.3-18.4,0.2c-8.6-2.9-16.5-7.8-24.3-12.3c-7.6-4.3-15.4-9.1-23.9-11.6
			c-3.5-1-7.2-1.5-10.6-0.7c-4,1-6,3.9-8.2,6.6c0,0-0.2,0-0.1-0.1c2-5.4,8-8.1,14.4-7.4c8,0.9,15.8,5.4,22.7,9.2
			c8.3,4.6,16.3,9.7,25,13.7C195.1,78.7,204.1,81.5,211.2,77.7C211.2,77.6,211.3,77.7,211.2,77.7L211.2,77.7z"/>
		<path class="st43" d="M223.5,59.7c-3,14.1-23.3,5.8-32.9,0.6c-6.7-3.6-12.3-8.3-18.1-13c-8.1-6.5-19.1-15.2-30.3-12.6
			c-0.2,0-0.4-0.3-0.2-0.3c8.3-2.8,17.3,2.5,24.1,7.2c6.8,4.7,12.6,10.4,19.6,15c9.8,6.5,33.1,18.4,37.8,3.1
			C223.4,59.6,223.5,59.7,223.5,59.7L223.5,59.7z"/>
		<path class="st43" d="M221.9,67.4c-5.4,4.3-12.1,6.1-19.8,4.3c-8-1.9-15.1-6.7-21.7-11.1c-13.6-9.2-30.6-24-48.3-17.9
			c-0.2,0.1-0.4-0.2-0.2-0.3c14.9-6.4,31.3,5.7,43,13.8c7.1,5,14.4,10.3,22.7,13.6c8.8,3.5,17.2,2.5,23.9-2.7
			C221.8,67,222.1,67.3,221.9,67.4L221.9,67.4z"/>
		<path class="st44" d="M225.4,40.5c7.5,3.4-0.2,12.4-4.1,14.8c-4.5,2.8-12,2.7-17.5,2.1c-6.3-0.7-12.7-0.5-18.6-2.9
			c-11.8-4.7-22-12.7-34.7-15.5c-6.9-1.5-13.6-0.4-19.2,2.8c-6.1,3.4-11.3,9.5-8.7,16.3c0.1,0.3-0.4,0.5-0.5,0.2
			c-4.8-8.5,5.8-17,13.8-19.5c10.9-3.4,21.9,1,31.9,6.1c5.5,2.8,10.7,5.8,16.4,8.3c6.5,2.9,13.7,2.8,20.8,3.6
			c6.6,0.7,14.2,0.1,18.6-4.1c2.7-2.6,7.2-9,1.7-11.8C224.8,40.7,225.1,40.4,225.4,40.5L225.4,40.5z"/>
	</g>
</g>
<g class="st45">
	<g>
		<path class="st44" d="M237.1,113.5c-20.5,9-43.1-6.9-60.6-17.2c-16.6-9.7-45.1-22.5-60.9-10.1c-0.3,0.2-0.7-0.1-0.5-0.4
			c12.2-12.1,38.7-2.2,53.5,5.2c20.3,10.1,44.5,32.3,68.3,22.3C237.1,113.3,237.2,113.5,237.1,113.5L237.1,113.5z"/>
		<path class="st46" d="M234.4,114.6c-6.8,4.2-15.8,3.3-24.2,0.9c-11.6-3.2-22.5-8.9-33.1-14c-10.4-5-21-10.5-32.5-13.3
			c-4.7-1.1-9.5-1.5-13.9-0.4c-5.1,1.3-7.5,5-10.2,8.4c-0.1,0.1-0.2,0-0.2-0.1c2.1-6.7,9.7-10.2,18.3-9.6c10.6,0.8,21.3,6,30.7,10.4
			c11.3,5.3,22.4,11.2,34.2,15.7C213.4,116.5,225.4,119.6,234.4,114.6C234.3,114.5,234.4,114.6,234.4,114.6L234.4,114.6z"/>
		<path class="st44" d="M243.3,108.1c-7.1,5.1-15.9,7.1-25.9,4.6c-10.6-2.6-20-8.7-28.7-14.4c-18-11.7-40.6-30.5-63.8-23.7
			c-0.3,0.1-0.5-0.3-0.2-0.4c19.6-7.3,41.3,8.1,56.8,18.5c9.5,6.3,19,13.1,30,17.5c11.6,4.6,22.7,3.7,31.5-2.4
			C243.2,107.6,243.6,107.9,243.3,108.1L243.3,108.1z"/>
		<g class="st47">
			<path class="st43" d="M89.4,121.7c5.3-4.1,10.8-7.9,16.6-11.2c5.8-3.3,12-6,18.4-7.8c6.4-1.8,13.2-2.7,19.9-2.5
				c6.7,0.2,13.3,1.6,19.7,3.7c6.4,2.1,12.4,5,18.4,8c6,3,11.9,6.2,18.1,8.5c1.6,0.6,3.1,1.1,4.8,1.5c1.6,0.4,3.2,0.7,4.9,1
				c3.3,0.5,6.6,0.8,9.9,0.7c3.3-0.1,6.6-0.6,9.8-1.7c3.1-1.1,6.1-2.8,8.5-5.1c-2.4,2.3-5.3,4.1-8.5,5.3c-3.1,1.2-6.5,1.8-9.8,1.9
				c-3.4,0.1-6.7-0.1-10-0.6c-1.7-0.3-3.3-0.5-4.9-0.9c-1.6-0.4-3.2-0.9-4.8-1.5c-6.3-2.3-12.2-5.4-18.2-8.4c-6-3-12-5.7-18.3-7.9
				c-6.3-2.1-12.8-3.5-19.5-3.8c-6.6-0.3-13.3,0.6-19.7,2.3c-6.4,1.8-12.6,4.4-18.4,7.6C100.3,114,94.7,117.7,89.4,121.7z"/>
		</g>
		<g>
			<path class="st43" d="M105.7,127.8c1.4-2.7,3.1-5.2,5.1-7.4c2-2.2,4.4-4.1,7.1-5.6c5.3-2.9,11.4-4.1,17.4-4.2
				c6-0.1,12,0.7,17.9,2c5.9,1.3,11.7,2.9,17.4,4.7c5.7,1.8,11.4,3.9,17,5.8c5.7,2,11.3,3.9,17.1,5.4c5.8,1.4,11.8,2.3,17.7,1.8
				c3-0.3,5.9-0.8,8.7-2c2.8-1.1,5.4-2.7,7.6-4.7c-2.2,2.1-4.7,3.7-7.5,4.9c-2.8,1.2-5.7,1.9-8.7,2.2c-6,0.6-12.1-0.2-17.9-1.6
				c-5.9-1.4-11.5-3.4-17.2-5.3c-5.7-2-11.3-3.9-17-5.8c-5.7-1.8-11.4-3.5-17.3-4.8c-5.8-1.3-11.8-2.1-17.7-2.1
				c-5.9,0-12,1.1-17.2,4c-2.6,1.4-5,3.2-7.1,5.4C108.9,122.8,107.2,125.2,105.7,127.8z"/>
		</g>
		<g>
			<path class="st43" d="M86.7,145.9c4.2-5.6,8.8-10.9,14.1-15.5c5.3-4.6,11.3-8.5,17.9-11c6.5-2.6,13.6-3.9,20.6-3.9
				c7,0,14.1,1.2,20.8,3c6.8,1.8,13.3,4.4,19.8,7.2c6.5,2.7,12.8,5.7,19.4,8.1c3.3,1.2,6.6,2.2,10.1,2.8c3.4,0.6,6.9,1,10.4,1
				c3.5,0,7-0.5,10.3-1.6c3.3-1.1,6.4-2.9,9-5.2c-2.5,2.4-5.6,4.3-8.9,5.4c-3.3,1.2-6.9,1.7-10.4,1.8c-3.5,0.1-7-0.3-10.5-0.9
				c-3.5-0.6-6.9-1.6-10.2-2.8c-6.6-2.4-13-5.4-19.4-8c-6.5-2.7-13-5.2-19.7-7.1c-6.7-1.9-13.7-3.1-20.6-3.1c-7,0-14,1.2-20.5,3.8
				c-6.5,2.5-12.5,6.3-17.8,10.8C95.7,135.1,91,140.4,86.7,145.9z"/>
		</g>
		<g>
			<path class="st43" d="M108.6,91.1c-0.9-1.5-1.6-3.3-1.7-5.1c-0.1-1.8,0.4-3.7,1.1-5.3c1.6-3.3,4.4-5.9,7.3-8.1
				c3-2.1,6.4-3.7,9.9-4.8c3.5-1,7.2-1.5,10.9-1.5c7.4,0,14.5,2,21.3,4.7c6.8,2.7,13.3,6.1,19.7,9.4c6.5,3.3,13,6.7,19.9,9
				c6.9,2.4,14,4,21.2,4.9c3.6,0.4,7.2,0.6,10.9,0.3c3.6-0.3,7.2-1.1,10.4-2.9c1.6-0.9,3-2,4.2-3.3c1.2-1.3,2.3-2.8,3.1-4.4
				c0.4-0.8,0.7-1.7,0.8-2.6c0.1-0.4,0-0.9,0.1-1.3c0-0.2-0.1-0.4-0.1-0.7c0-0.2-0.1-0.4-0.2-0.6l-0.3-0.6c-0.1-0.2-0.3-0.4-0.4-0.5
				c-0.2-0.4-0.6-0.7-1-1c-0.3-0.3-0.8-0.5-1.1-0.8l-0.3-0.2c-0.1,0-0.2-0.1-0.2-0.3c0-0.3,0.3-0.3,0.5-0.2c-0.2-0.1-0.5,0-0.5,0.2
				c0,0.2,0.3,0.3,0.5,0.4c0.4,0.2,0.8,0.4,1.2,0.7c0.3,0.3,0.7,0.6,1,1c0.1,0.2,0.3,0.4,0.4,0.5l0.3,0.6c0.1,0.2,0.2,0.4,0.2,0.7
				c0,0.2,0.1,0.4,0.1,0.7c0,0.5,0.1,0.9,0,1.4c-0.1,0.9-0.4,1.8-0.8,2.6c-0.8,1.7-1.9,3.2-3.1,4.5c-1.2,1.4-2.7,2.6-4.3,3.5
				c-3.2,1.8-6.9,2.6-10.6,2.9c-3.7,0.3-7.3,0.2-11-0.3c-7.2-0.9-14.4-2.6-21.3-5c-6.9-2.4-13.4-5.7-19.9-9
				c-6.5-3.3-12.9-6.7-19.7-9.4c-6.7-2.6-13.9-4.6-21.1-4.6c-3.6,0-7.2,0.5-10.7,1.5c-3.5,1.1-6.7,2.7-9.7,4.7c-3,2-5.7,4.5-7.4,7.8
				c-0.8,1.6-1.3,3.4-1.2,5.2C107,87.7,107.7,89.5,108.6,91.1z"/>
		</g>
	</g>
</g>
<g class="st47">
	<path class="st48" d="M306.6,92.7c-1.9-10.8-12.2-19-22.2-22.3c-4-1.3-8.5-1.1-12.6-0.4c-3.2,0.6-7.8,1.9-8.3,5.7
		c0,0.2,0.3,0.3,0.3,0.1c1.1-4.4,6.8-5.2,10.6-5.6c3.8-0.4,7.6-0.1,11.2,1.1c9.5,3.2,18.7,11.4,20.9,21.4
		C306.5,92.8,306.6,92.8,306.6,92.7L306.6,92.7z"/>
	<path class="st48" d="M305.5,96.2c-3.1-10.7-11.6-19.2-22.4-22.1c-5-1.3-18.3-0.8-18.3,6.6c0,0.2,0.3,0.2,0.3,0
		c0.7-7.6,14.2-7.3,19.4-5.7c10,2.9,17.8,11.4,20.8,21.3C305.4,96.3,305.5,96.3,305.5,96.2L305.5,96.2z"/>
	<path class="st48" d="M306.5,101.2c-3.1-10.7-11.6-19.2-22.4-22.1c-5-1.3-18.3-0.8-18.3,6.6c0,0.2,0.3,0.2,0.3,0
		c0.7-7.6,14.2-7.3,19.4-5.7c10,2.9,17.8,11.4,20.8,21.3C306.4,101.3,306.5,101.3,306.5,101.2L306.5,101.2z"/>
	<path class="st48" d="M300.4,103.3c1.4-6.9-5.6-12.3-11.2-14.7c-4.8-2.1-13.6-3.3-15.7,3.1c0,0.1,0.2,0.2,0.2,0.1
		c3.4-5.9,10.3-5,15.8-2.7C294.9,91.5,301.3,96.7,300.4,103.3C300.3,103.4,300.4,103.4,300.4,103.3L300.4,103.3z"/>
	<path class="st48" d="M301.3,100c0.1-9.2-8-15.3-16.3-17.1c-6.3-1.4-15.1,0.7-12.7,8.9c0,0.1,0.2,0.1,0.2-0.1
		c-1.7-8.5,7.1-9.7,13.4-8.2c7.8,1.8,15.3,8,15.3,16.5C301.1,100.1,301.3,100.1,301.3,100L301.3,100z"/>
	<path class="st48" d="M304.6,94.6c4.8-7.8,0.9-17.3-5.3-23.1c-4.7-4.4-13.3-7.1-15.5,1.2c0,0.1,0.1,0.2,0.2,0.1
		c2.9-8.2,11-4.8,15.7-0.2c5.8,5.6,9.1,14.7,4.7,22C304.4,94.7,304.6,94.7,304.6,94.6L304.6,94.6z"/>
</g>
<g class="st47">
	<path class="st48" d="M270,58.6c-4.8-8.8-16.3-12-26.1-11c-4,0.4-7.9,2.3-11.4,4.5c-2.7,1.7-6.4,4.7-5.8,8.2c0,0.2,0.3,0.2,0.3-0.1
		c-0.3-4.2,4.6-7.2,7.9-9c3.3-1.9,6.7-3,10.4-3.4C254.6,47.1,265.1,50.7,270,58.6C269.9,58.7,270,58.6,270,58.6L270,58.6z"/>
	<path class="st48" d="M270.3,67c-4.6-8.9-13.9-14.4-24.5-14.2c-4.9,0.1-17.3,4.1-16.1,10.7c0,0.2,0.3,0.1,0.3-0.1
		c-0.6-7.1,12.2-10.3,17.3-10.3c9.9,0.1,18.5,5.7,22.9,13.9C270.2,67.2,270.3,67.1,270.3,67L270.3,67z"/>
	<path class="st48" d="M265.6,72.8c0.2-6.7-7.2-9.7-12.8-10.5c-4.8-0.6-13.3,0.5-14.2,7c0,0.1,0.2,0.1,0.2,0
		c2.2-6.3,8.9-7.3,14.4-6.6C258.6,63.5,265.4,66.6,265.6,72.8C265.5,72.9,265.6,72.9,265.6,72.8L265.6,72.8z"/>
	<path class="st48" d="M265.9,69.6c-1.3-8.4-9.9-11.9-18-11.3c-6.2,0.4-14,4.6-10.5,11.4c0.1,0.1,0.2,0,0.2-0.1
		c-3-7.3,5.1-10.7,11.3-11c7.6-0.4,15.6,3.2,17,11.1C265.8,69.7,265.9,69.7,265.9,69.6L265.9,69.6z"/>
	<path class="st48" d="M267.2,62.5c5.6-3.3,7.3-10.9,3.5-15.9c-3.4-4.4-10.6-4.9-15.7-4.7c-6.2,0.2-12.9,2.3-18.4,5.4
		c-5,2.9-11.1,7.8-11.6,14.2c0,0.2,0.3,0.2,0.4,0c1.8-5.9,5.2-9.8,10.3-13c5-3.2,10.9-5,16.5-5.8c4.9-0.7,10.5-0.2,14.9,1.8
		c3.1,1.5,4.7,4.2,5.2,7.7c0.6,4-2.2,7.9-5.2,10.1C266.9,62.4,267,62.6,267.2,62.5L267.2,62.5z"/>
</g>
<g class="st47">
	<path class="st49" d="M88.8,62.5c0.2-7,6.4-12.7,12.9-15.2c2.6-1,5.7-1.1,8.6-0.8c2.2,0.2,5.5,0.9,6.3,3.3c0,0.1-0.2,0.2-0.2,0.1
		c-1.2-2.8-5.2-3.1-7.8-3.2c-2.7-0.1-5.2,0.2-7.6,1.2C94.8,50.3,89.3,56,88.8,62.5C88.9,62.5,88.8,62.5,88.8,62.5L88.8,62.5z"/>
	<path class="st49" d="M91.3,67.9c0.1-7.1,4.1-13.5,10.9-16.7c3.1-1.5,12.2-3,13.6,1.6c0,0.1-0.2,0.2-0.2,0
		c-1.9-4.6-10.9-2.6-14.1-0.9c-6.2,3.2-9.8,9.5-10,16C91.4,67.9,91.3,67.9,91.3,67.9L91.3,67.9z"/>
	<path class="st49" d="M96.1,70c-2.3-4.1,1.4-8.4,4.7-10.7c2.8-1.9,8.5-3.9,11.2-0.2c0.1,0.1-0.1,0.1-0.1,0.1
		c-3.4-3.2-7.9-1.7-11.1,0.5C97.5,61.9,94.2,66,96.1,70C96.2,70,96.1,70.1,96.1,70L96.1,70z"/>
	<path class="st49" d="M94.9,68.1c-1.9-5.7,2.5-10.6,7.7-12.9c4-1.7,10.3-1.6,10.3,3.8c0,0.1-0.1,0.1-0.1,0
		c-0.5-5.5-6.6-5.1-10.6-3.3C97.2,57.9,93.4,62.7,94.9,68.1C95,68.1,94.9,68.1,94.9,68.1L94.9,68.1z"/>
	<path class="st49" d="M91.9,64c-4.6-0.3-8.1-4.5-7.3-8.9c0.7-3.8,5.1-6.4,8.4-8c3.9-1.9,8.8-2.7,13.3-2.5c4.1,0.2,9.5,1.3,11.8,5.2
		c0.1,0.1-0.1,0.2-0.2,0.1c-3-3.1-6.4-4.5-10.6-4.9c-4.2-0.4-8.4,0.3-12.2,1.6c-3.3,1.1-6.7,3.2-8.8,5.9c-1.5,1.9-1.6,4.1-0.8,6.5
		c0.9,2.7,3.9,4.2,6.5,4.7C92,63.9,92,64,91.9,64L91.9,64z"/>
</g>
<g class="st47">
	<path class="st49" d="M293.5,231.1c-5.2-4.8-5.4-13.2-3-19.7c1-2.6,3-5,5.1-7c1.6-1.6,4.3-3.6,6.6-2.6c0.1,0.1,0.1,0.3-0.1,0.2
		c-2.8-0.9-5.7,1.9-7.5,3.8c-1.8,1.9-3.2,4.1-4.1,6.5C288.4,218.6,289,226.4,293.5,231.1C293.6,231.1,293.6,231.1,293.5,231.1
		L293.5,231.1z"/>
	<path class="st49" d="M296.7,229.8c-3.2,3.3-8.7,3.1-11.5-0.3c-2.4-3.1-1.5-8.1-0.5-11.6c1.2-4.2,3.7-8.4,6.9-11.6
		c2.8-2.9,7.2-6.3,11.7-5.5c0.2,0,0.1,0.2-0.1,0.2c-4.4,0.2-7.6,1.9-10.7,4.8c-3,2.9-5.3,6.6-6.8,10.3c-1.3,3.2-2,7.1-1.3,10.5
		c0.5,2.4,2.1,3.9,4.4,4.9c2.6,1.1,5.7-0.1,7.8-1.8C296.7,229.7,296.8,229.7,296.7,229.8L296.7,229.8z"/>
</g>
<g class="st47">
	<path class="st49" d="M91.3,170.6c4.7-4.3,4.9-12,2.8-18c-0.9-2.4-2.7-4.6-4.6-6.4c-1.5-1.4-4-3.3-6-2.3c-0.1,0.1,0,0.2,0.1,0.2
		c2.6-0.8,5.2,1.8,6.9,3.5c1.7,1.8,3,3.7,3.7,5.9C96,159.2,95.5,166.4,91.3,170.6C91.2,170.6,91.3,170.6,91.3,170.6L91.3,170.6z"/>
	<path class="st49" d="M88.4,169.5c2.9,3,8,2.8,10.4-0.3c2.2-2.8,1.4-7.4,0.5-10.5c-1.1-3.8-3.4-7.7-6.3-10.6
		c-2.6-2.7-6.6-5.7-10.7-5c-0.1,0-0.1,0.2,0.1,0.2c4,0.2,6.9,1.7,9.7,4.4c2.8,2.6,4.8,6,6.2,9.4c1.2,3,1.8,6.5,1.2,9.6
		c-0.4,2.2-1.9,3.6-4,4.5C93.2,172,90.4,170.9,88.4,169.5C88.4,169.3,88.3,169.4,88.4,169.5L88.4,169.5z"/>
</g>
<g class="st47">
	<path class="st49" d="M77.4,165.5c2.9,3,8,2.8,10.4-0.3c2.2-2.8,1.4-7.4,0.5-10.5c-1.1-3.8-3.4-7.7-6.3-10.6
		c-2.6-2.7-6.6-5.7-10.7-5c-0.1,0-0.1,0.2,0.1,0.2c4,0.2,6.9,1.7,9.7,4.4c2.8,2.6,4.8,6,6.2,9.4c1.2,3,1.8,6.5,1.2,9.6
		c-0.4,2.2-1.9,3.6-4,4.5C82.2,168,79.4,166.9,77.4,165.5C77.4,165.3,77.3,165.4,77.4,165.5L77.4,165.5z"/>
</g>
<g class="st47">
	<path class="st50" d="M65.4,114.5c-4.5-5.4-3.7-13.8-0.5-19.9c1.3-2.5,3.6-4.6,5.9-6.3c1.8-1.3,4.7-3,6.9-1.7
		c0.1,0.1,0,0.3-0.1,0.2c-2.7-1.3-5.9,1.2-8,2.8c-2.1,1.7-3.7,3.6-4.9,5.9C61.8,101.4,61.4,109.3,65.4,114.5
		C65.5,114.5,65.4,114.5,65.4,114.5L65.4,114.5z"/>
	<path class="st50" d="M70.9,116.8c-4.7-5.3-5.9-12.8-3-19.7c1.3-3.2,7.1-10.3,11.2-7.8c0.1,0.1,0,0.2-0.1,0.2
		c-4.5-2.2-9.9,5.3-11.2,8.7C65.2,104.7,66.7,111.8,70.9,116.8C71,116.8,70.9,116.9,70.9,116.8L70.9,116.8z"/>
	<path class="st50" d="M75.9,115.3c-4.4-1.6-4.5-7.2-3.6-11.1c0.8-3.3,3.8-8.6,8.2-7.6c0.1,0,0,0.1,0,0.1c-4.7-0.1-7.1,4-8,7.8
		C71.5,108.3,71.8,113.5,75.9,115.3C75.9,115.2,75.9,115.3,75.9,115.3L75.9,115.3z"/>
	<path class="st50" d="M73.6,114.6c-5.2-3-5.2-9.6-2.8-14.7c1.8-3.9,6.6-8,10.2-4c0.1,0.1,0,0.1-0.1,0.1c-4-3.8-8.3,0.6-10.1,4.6
		C68.6,105.5,68.9,111.6,73.6,114.6C73.8,114.6,73.7,114.6,73.6,114.6L73.6,114.6z"/>
	<path class="st50" d="M68.7,113.6c-3.6,2.8-9,2-11.3-1.8c-2-3.3-0.5-8.2,0.9-11.5c1.7-4,4.8-7.9,8.3-10.7c3.2-2.5,8-5.3,12.3-4
		c0.2,0,0.1,0.3-0.1,0.2c-4.4-0.3-7.8,0.9-11.2,3.4c-3.4,2.5-6.1,5.8-8.1,9.3c-1.7,3-2.9,6.8-2.6,10.3c0.2,2.4,1.5,4.2,3.7,5.4
		c2.5,1.4,5.7,0.6,8-0.8C68.7,113.5,68.8,113.6,68.7,113.6L68.7,113.6z"/>
</g>
<g class="st47">
	<path class="st50" d="M61.4,149.5c-4.5-5.4-3.7-13.8-0.5-19.9c1.3-2.5,3.6-4.6,5.9-6.3c1.8-1.3,4.7-3,6.9-1.7
		c0.1,0.1,0,0.3-0.1,0.2c-2.7-1.3-5.9,1.2-8,2.8c-2.1,1.7-3.7,3.6-4.9,5.9C57.8,136.4,57.4,144.3,61.4,149.5
		C61.5,149.5,61.4,149.5,61.4,149.5L61.4,149.5z"/>
	<path class="st50" d="M66.9,151.8c-4.7-5.3-5.9-12.8-3-19.7c1.3-3.2,7.1-10.3,11.2-7.8c0.1,0.1,0,0.2-0.1,0.2
		c-4.5-2.2-9.9,5.3-11.2,8.7C61.2,139.7,62.7,146.8,66.9,151.8C67,151.8,66.9,151.9,66.9,151.8L66.9,151.8z"/>
	<path class="st50" d="M71.9,150.3c-4.4-1.6-4.5-7.2-3.6-11.1c0.8-3.3,3.8-8.6,8.2-7.6c0.1,0,0,0.1,0,0.1c-4.7-0.1-7.1,4-8,7.8
		C67.5,143.3,67.8,148.5,71.9,150.3C71.9,150.2,71.9,150.3,71.9,150.3L71.9,150.3z"/>
	<path class="st50" d="M69.6,149.6c-5.2-3-5.2-9.6-2.8-14.7c1.8-3.9,6.6-8,10.2-4c0.1,0.1,0,0.1-0.1,0.1c-4-3.8-8.3,0.6-10.1,4.6
		C64.6,140.5,64.9,146.6,69.6,149.6C69.8,149.6,69.7,149.6,69.6,149.6L69.6,149.6z"/>
	<path class="st50" d="M64.7,148.6c-3.6,2.8-9,2-11.3-1.8c-2-3.3-0.5-8.2,0.9-11.5c1.7-4,4.8-7.9,8.3-10.7c3.2-2.5,8-5.3,12.3-4
		c0.2,0,0.1,0.3-0.1,0.2c-4.4-0.3-7.8,0.9-11.2,3.4c-3.4,2.5-6.1,5.8-8.1,9.3c-1.7,3-2.9,6.8-2.6,10.3c0.2,2.4,1.5,4.2,3.7,5.4
		c2.5,1.4,5.7,0.6,8-0.8C64.7,148.5,64.8,148.6,64.7,148.6L64.7,148.6z"/>
</g>
<g class="st39">
	<path class="st40" d="M296,107.6c8.6,9.5,6,25.8,5,38c-1,11.5-0.8,30.4,8.4,36.6c0.2,0.1,0.1,0.4-0.1,0.3
		c-8.3-4.2-9.3-21.3-9.1-31.3c0.3-13.7,5.5-32.3-4.3-43.5C295.9,107.6,296,107.5,296,107.6L296,107.6z"/>
	<path class="st40" d="M297.1,108.9c3.4,2.9,4.9,8.1,5.6,13.4c1,7.3,0.7,14.6,0.6,21.8c-0.1,7-0.4,14.2,0.8,21.3
		c0.5,2.9,1.3,5.7,2.8,7.9c1.7,2.6,3.9,3.1,6.1,3.9c0,0,0.1,0.1,0,0.1c-3.6,0.3-6.8-3.2-8.4-8.1c-1.9-6.1-1.8-13.4-1.7-19.6
		c0.1-7.6,0.4-15.1,0-22.8C302.5,120.3,301.4,112.8,297.1,108.9C297.1,108.9,297.1,108.8,297.1,108.9L297.1,108.9z"/>
	<path class="st40" d="M283.8,105.5c8.8-2.1,9.9,15.4,9.8,24.1c-0.1,6.1-1.1,11.6-2.1,17.4c-1.3,8-3,18.8,1.7,26.3
		c0.1,0.1,0,0.4-0.1,0.2c-3.9-5.3-3.6-13.6-2.9-20c0.7-6.5,2.2-12.6,2.8-19.1c0.8-9.3,0.8-30.1-9.1-28.8
		C283.8,105.7,283.8,105.5,283.8,105.5L283.8,105.5z"/>
	<path class="st40" d="M288.5,104c3.9,2.9,6.7,7.3,7.7,13.6c1.1,6.5,0.2,13.2-0.5,19.4c-1.6,12.8-5.5,29.7,2.7,41.3
		c0.1,0.1,0,0.4-0.1,0.2c-7.6-9.4-5.1-25.1-3.6-36.1c0.9-6.8,2-13.7,1.7-20.8c-0.3-7.6-3.1-13.6-7.9-17.2
		C288.3,104.2,288.4,103.9,288.5,104L288.5,104z"/>
</g>
<path class="st51" d="M180.9,167c0.9,0.7,1.9,1.7,2.2,3.2c0.3,1.7-0.4,3.3-1.4,3.8c-0.9,0.5-2,0.1-3.1-0.2c-8.4-2.7-17-2.2-24.7,1.4
	c-2.2,1-12.4,8-13.6-0.3c-0.8-5.6,9-10.8,11.3-11.9C160.6,158.2,171.3,159.4,180.9,167z"/>
<path class="st51" d="M212.3,166.4c-0.8,0.7-1.6,1.7-1.7,3c-0.1,1.5,0.9,2.8,1.9,3.1c1,0.3,2-0.2,3-0.6c8-3.4,16.5-4,24.7-2
	c2.4,0.6,13.4,5.2,13.4-2c0-4.9-10.4-8.1-12.9-8.8C231.1,156.3,220.7,158.6,212.3,166.4z"/>
<g class="st52">
	<g>
		<path class="st53" d="M280.8,279.1c-0.8,0.3-1.6,0.4-2.4,0.6c-0.8,0.1-1.6,0.2-2.4,0.2c-1.6,0.1-3.2,0.2-4.7,0.5l-0.2-1
			c1.6-0.2,3.2-0.4,4.8-0.4c0.8,0,1.6,0,2.4,0C279.1,279,280,279.1,280.8,279.1z M280.8,279.1c-0.8,0.2-1.6,0.2-2.4,0.4l-2.4,0.3
			c-1.6,0.2-3.2,0.4-4.7,0.6c-0.3,0-0.5-0.1-0.6-0.4c0-0.3,0.1-0.5,0.4-0.6c1.6-0.3,3.3-0.3,4.9-0.3c0.8,0,1.6,0.1,2.4,0.1
			C279.2,279.2,280,279.2,280.8,279.1z"/>
	</g>
	<g>
		<path class="st53" d="M270.2,279c0.4-0.7,1-1.3,1.6-1.8c0.7-0.5,1.4-0.8,2.2-1c0.8-0.2,1.5-0.4,2.3-0.5c0.8-0.1,1.5-0.3,2.3-0.3
			c-1.3,0.9-2.9,1.3-4.3,1.8c-0.7,0.2-1.4,0.4-2.1,0.7C271.5,278.2,270.8,278.6,270.2,279z"/>
	</g>
	<g>
		<path class="st53" d="M269.3,278.1c0.2-0.8,0.5-1.5,1-2.2c0.5-0.7,1.1-1.2,1.8-1.6c0.7-0.4,1.3-0.8,2-1.2c0.7-0.4,1.4-0.7,2.1-1
			c-1,1.2-2.3,2.2-3.6,3c-0.6,0.4-1.2,0.8-1.8,1.3C270.3,277,269.8,277.5,269.3,278.1z"/>
	</g>
	<g>
		<path class="st53" d="M269.7,281.4c0.9-0.2,1.8-0.2,2.7-0.1l2.6,0.2c0.8,0.1,1.7,0.1,2.5,0.1c0.8,0,1.7-0.1,2.6-0.2
			c-0.8,0.5-1.6,0.8-2.5,1c-0.9,0.2-1.8,0.2-2.7,0.1C273.1,282.3,271.4,281.8,269.7,281.4z"/>
	</g>
	<g>
		<path class="st53" d="M272.7,278.4c0.6-0.2,1.3-0.3,1.9-0.4c0.6-0.1,1.2-0.2,1.8-0.4c1.2-0.3,2.4-0.6,3.7-0.7
			c-0.5,0.4-1.1,0.7-1.7,1c-0.6,0.3-1.2,0.5-1.8,0.7c-0.6,0.2-1.3,0.3-2,0.2C273.9,278.8,273.3,278.6,272.7,278.4z"/>
	</g>
</g>
<g>
</g>
<g>
</g>
<g>
</g>
<g>
</g>
<g>
</g>
<g>
</g>
<g>
</g>
<g>
</g>
<g>
</g>
<g>
</g>
<g>
</g>
<g>
</g>
<g>
</g>
<g>
</g>
<g>
</g>
</svg>
