<?xml version="1.0" encoding="utf-8"?>
<!-- Generator: Adobe Illustrator 24.0.3, SVG Export Plug-In . SVG Version: 6.00 Build 0)  -->
<svg version="1.1" id="Capa_1" xmlns="http://www.w3.org/2000/svg" xmlns:xlink="http://www.w3.org/1999/xlink" x="0px" y="0px"
	 viewBox="0 0 400 404" style="enable-background:new 0 0 400 404;" xml:space="preserve">
<style type="text/css">
	.st0{fill:#9F6E32;}
	.st1{fill:#B78C53;}
	.st2{fill:#D7A557;}
	.st3{opacity:0.17;fill:#9F6E32;}
	.st4{fill:#755B42;}
	.st5{fill:#B78849;}
	.st6{opacity:0.75;fill:#A57A47;}
	.st7{opacity:0.82;}
	.st8{fill:#28170C;}
	.st9{fill:#452A17;stroke:#1E1007;stroke-width:0.2585;}
	.st10{opacity:0.82;fill:#28170C;enable-background:new    ;}
	.st11{opacity:0.27;}
	.st12{fill:#B3824A;}
	.st13{opacity:0.34;fill:#94633A;enable-background:new    ;}
	.st14{fill:url(#SVGID_1_);}
	.st15{fill:url(#SVGID_2_);}
	.st16{fill:none;stroke:#49250A;stroke-width:0.2585;}
	.st17{opacity:0.47;fill:#CA9F6A;enable-background:new    ;}
	.st18{fill:#B2804B;}
	.st19{fill:none;stroke:#4D3C34;stroke-width:0.2585;}
	.st20{fill:none;stroke:#875529;stroke-width:0.7755;}
	.st21{opacity:0.65;fill:url(#SVGID_3_);enable-background:new    ;}
	.st22{fill:#CCAB7F;stroke:#563304;stroke-width:0.2585;}
	.st23{opacity:0.47;fill:#B2804B;enable-background:new    ;}
	.st24{fill:url(#SVGID_4_);}
	.st25{fill:#391E0D;}
	.st26{opacity:0.47;fill:#160A03;enable-background:new    ;}
	.st27{fill:#452A17;}
	.st28{fill:url(#SVGID_5_);}
	.st29{fill:#8C6239;}
	.st30{fill:url(#SVGID_6_);}
	.st31{opacity:0.98;}
	.st32{fill:#FEEECC;stroke:#4C2505;stroke-width:0.517;}
	.st33{fill:url(#SVGID_7_);}
	.st34{fill:url(#SVGID_8_);}
	.st35{fill:url(#SVGID_9_);}
	.st36{fill:url(#SVGID_10_);}
	.st37{fill:url(#SVGID_11_);}
	.st38{opacity:0.26;fill:#28170C;enable-background:new    ;}
	.st39{fill:url(#SVGID_12_);}
	.st40{fill:#CCAB7F;}
	.st41{fill:#28180E;}
	.st42{opacity:0.26;fill:#755B42;}
	.st43{opacity:0.27;fill:#9F6E32;}
	.st44{opacity:0.29;fill:#8E6B44;}
	.st45{fill:#70502D;}
	.st46{opacity:0.26;fill:#8E6B44;}
	.st47{opacity:0.17;}
</style>
<g>
	<path class="st0" d="M74.9,116.2c0,0-67.2,57.3-9.4,166.9s0,0,0,0"/>
	<g>
		<path class="st1" d="M73.8,338.5c5.5,10.1-3.4,19.8-9.2,27.5c-5.4,7.2-12.4,19.9-5.1,28c0.1,0.1-0.1,0.3-0.2,0.2
			c-7.1-6.3-1.8-18.2,2.3-24.8C67.2,360.4,79.7,350.3,73.8,338.5C73.6,338.5,73.7,338.5,73.8,338.5L73.8,338.5z"/>
		<path class="st1" d="M74.5,339.8c2.5,3.4,2.1,7.5,0.8,11.4c-1.7,5.3-4.8,10.1-7.7,14.8c-2.8,4.6-5.8,9.3-7.3,14.5
			c-0.6,2.1-0.8,4.4-0.1,6.5c0.8,2.5,3,3.8,5,5.2c0,0,0,0.1,0,0.1c-3.9-1.3-6-5.1-5.8-9c0.3-4.9,3.2-9.7,5.6-13.8
			c2.9-5,6.2-9.9,8.6-15.2C75.8,349.8,77.4,344.3,74.5,339.8C74.4,339.9,74.4,339.8,74.5,339.8L74.5,339.8z"/>
		<path class="st1" d="M61.6,331.9c10.1,2.4,4.6,14.5,1.2,20.3c-2.4,4-5.6,7.3-8.8,10.7c-4.4,4.7-10.3,11.2-8.2,18.3
			c0,0.1-0.2,0.2-0.2,0.1c-2.1-5.2,1.4-10.6,4.5-14.6c3.2-4,7.1-7.4,10.2-11.5C64.7,349.3,72.5,335.3,61.6,331.9
			C61.6,331.9,61.6,331.8,61.6,331.9L61.6,331.9z"/>
		<path class="st1" d="M67.2,332.9c3,3.6,4.3,7.8,3,12.4c-1.4,4.8-4.8,8.9-7.9,12.7c-6.6,7.8-17.1,17.4-12.9,28.7
			c0.1,0.1-0.2,0.2-0.2,0.1c-4.5-9.5,4.2-18.9,9.9-25.7c3.5-4.1,7.3-8.2,9.7-13.1c2.5-5.2,1.9-10.4-1.8-14.8
			C66.9,332.9,67.1,332.8,67.2,332.9L67.2,332.9z"/>
		<path class="st1" d="M49.8,330.2c2.4-4.4,8.8,0.8,10.5,3.4c2,2.9,1.9,7.5,1.4,10.9c-0.5,3.8-1.8,7.8-3.5,11.2
			c-3.4,7-9,12.8-11.1,20.5c-1.1,4.2-0.3,8.3,1.9,12c2.4,3.9,6.7,7.5,11.5,6.3c0.2-0.1,0.3,0.3,0.1,0.3c-6,2.5-12-4.5-13.8-9.6
			c-2.4-6.9,0.8-13.4,4.4-19.3c2-3.2,4.1-6.3,5.9-9.6c2.1-3.8,3.4-8.2,4-12.5c0.5-4,0.1-8.7-2.8-11.7c-1.8-1.8-6.4-4.9-8.3-1.7
			C49.9,330.5,49.6,330.4,49.8,330.2L49.8,330.2z"/>
	</g>
	<g>
		<path class="st1" d="M77.4,238.8c4.7,10.4-4.9,19.5-11.2,26.7c-5.9,6.8-13.9,18.9-7.1,27.5c0.1,0.1-0.1,0.3-0.2,0.2
			c-6.7-6.9-0.4-18.3,4.2-24.6C69.2,260.1,82.5,251,77.4,238.8C77.3,238.8,77.4,238.7,77.4,238.8L77.4,238.8z"/>
		<path class="st1" d="M78,240.2c2.2,3.6,1.5,7.7,0,11.4c-2.1,5.1-5.6,9.7-8.8,14.2c-3.1,4.4-6.5,8.8-8.3,13.9
			c-0.7,2.1-1.1,4.3-0.5,6.5c0.7,2.5,2.7,4,4.6,5.6c0,0,0,0.1,0,0.1c-3.8-1.6-5.6-5.5-5.1-9.5c0.7-4.9,3.9-9.4,6.6-13.4
			c3.3-4.8,6.9-9.4,9.8-14.5C78.6,250.2,80.6,244.8,78,240.2C77.9,240.2,78,240.1,78,240.2L78,240.2z"/>
		<path class="st1" d="M65.8,231.2c9.9,3.1,3.5,14.9-0.4,20.3c-2.7,3.8-6.1,6.8-9.6,10c-4.8,4.4-11.2,10.4-9.6,17.6
			c0,0.1-0.2,0.2-0.2,0.1c-1.7-5.4,2.2-10.5,5.6-14.2c3.5-3.8,7.6-6.9,11-10.7C67.5,248.8,76.4,235.5,65.8,231.2
			C65.7,231.3,65.8,231.2,65.8,231.2L65.8,231.2z"/>
		<path class="st1" d="M71.3,232.7c2.7,3.8,3.7,8.1,2.1,12.6c-1.7,4.7-5.5,8.5-8.9,12c-7.1,7.3-18.4,16.1-15,27.6
			c0,0.1-0.2,0.2-0.3,0.1c-3.7-9.8,5.6-18.6,11.9-24.8c3.8-3.8,7.9-7.7,10.7-12.4c2.9-5,2.6-10.3-0.7-14.9
			C71,232.7,71.2,232.6,71.3,232.7L71.3,232.7z"/>
		<path class="st1" d="M54.1,228.7c2.7-4.2,8.7,1.5,10.2,4.1c1.8,3.1,1.3,7.6,0.6,10.9c-0.8,3.8-2.4,7.6-4.3,11
			c-3.9,6.7-10,12.1-12.6,19.6c-1.4,4.1-0.9,8.3,1,12.1c2.1,4.1,6.1,8,11,7.1c0.2,0,0.3,0.3,0.1,0.3c-6.2,2-11.6-5.4-13-10.6
			c-1.8-7.1,1.8-13.3,5.8-18.9c2.2-3,4.6-5.9,6.6-9.1c2.3-3.6,4-8,4.9-12.2c0.8-3.9,0.8-8.7-2-11.8c-1.7-2-6-5.4-8.2-2.3
			C54.2,229,54,228.9,54.1,228.7L54.1,228.7z"/>
	</g>
	<g>
		<path class="st2" d="M308.3,68.2c-10.3,5-19.6-4.4-27-10.5c-7-5.8-19.3-13.4-27.7-6.4c-0.1,0.1-0.3-0.1-0.2-0.2
			c6.7-6.8,18.3-0.9,24.7,3.5C286.8,60.6,296.3,73.6,308.3,68.2C308.3,68.1,308.4,68.2,308.3,68.2L308.3,68.2z"/>
		<path class="st2" d="M307,68.8c-3.5,2.3-7.6,1.7-11.4,0.3c-5.2-2-9.8-5.3-14.4-8.4c-4.5-3-9-6.3-14.1-7.9c-2.1-0.7-4.3-1-6.5-0.4
			c-2.5,0.7-3.9,2.8-5.4,4.7c0,0-0.1,0-0.1,0c1.5-3.8,5.4-5.8,9.3-5.3c4.9,0.6,9.5,3.7,13.5,6.3c4.9,3.2,9.6,6.7,14.7,9.4
			C297,69.7,302.4,71.6,307,68.8C307,68.7,307,68.8,307,68.8L307,68.8z"/>
		<path class="st2" d="M315.6,56.4c-2.8,9.9-14.8,3.9-20.3,0.2c-3.9-2.6-7-5.9-10.3-9.3c-4.5-4.6-10.7-10.9-17.8-9.1
			c-0.1,0-0.2-0.2-0.1-0.2c5.3-1.9,10.5,1.9,14.3,5.2c3.9,3.4,7.1,7.4,11,10.7C298,58.6,311.6,67.1,315.6,56.4
			C315.5,56.3,315.6,56.4,315.6,56.4L315.6,56.4z"/>
		<path class="st2" d="M314.3,61.9c-3.7,2.8-8,3.9-12.5,2.4c-4.7-1.6-8.7-5.2-12.3-8.5c-7.5-6.9-16.6-18-28-14.2
			c-0.1,0-0.2-0.2-0.1-0.2c9.7-4,18.7,5.1,25.1,11.2c3.9,3.7,7.9,7.7,12.7,10.3c5.1,2.8,10.3,2.4,14.9-1.1
			C314.2,61.6,314.4,61.8,314.3,61.9L314.3,61.9z"/>
		<path class="st2" d="M317.8,44.6c4.3,2.6-1.2,8.7-3.9,10.3c-3,1.8-7.6,1.5-10.9,0.9c-3.8-0.7-7.7-2.2-11.1-4
			c-6.8-3.7-12.4-9.7-19.9-12c-4.1-1.3-8.3-0.7-12.1,1.3c-4,2.2-7.8,6.3-6.8,11.2c0,0.2-0.3,0.3-0.3,0.1
			c-2.2-6.1,5.1-11.8,10.2-13.3c7-2,13.4,1.4,19,5.3c3.1,2.1,6.1,4.4,9.3,6.4c3.7,2.2,8.1,3.8,12.3,4.6c4,0.7,8.7,0.5,11.8-2.3
			c1.9-1.7,5.2-6.1,2.1-8.2C317.5,44.8,317.6,44.5,317.8,44.6L317.8,44.6z"/>
	</g>
	<g>
		<path class="st2" d="M99.5,106.3c-1,11.4-13.9,14.6-22.9,17.8c-8.5,3-21.4,9.7-19.7,20.5c0,0.2-0.2,0.2-0.3,0
			c-2.4-9.2,8.7-16.2,15.7-19.4c9.6-4.4,25.7-5.9,27.1-19C99.4,106.2,99.5,106.2,99.5,106.3L99.5,106.3z"/>
		<path class="st2" d="M99.4,107.7c0.2,4.2-2.4,7.4-5.6,9.9c-4.4,3.4-9.6,5.7-14.6,8c-4.9,2.3-10,4.5-14.1,8
			c-1.7,1.4-3.1,3.2-3.7,5.4c-0.7,2.5,0.4,4.8,1.3,7.1c0,0,0,0.1-0.1,0c-2.5-3.2-2.2-7.6,0.2-10.7c3-3.9,8-6.3,12.3-8.4
			c5.2-2.5,10.6-4.8,15.6-7.8C95,116.7,99.4,113.1,99.4,107.7C99.3,107.7,99.4,107.7,99.4,107.7L99.4,107.7z"/>
		<path class="st2" d="M93.2,94c7.1,7.5-4.2,14.7-10.3,17.5c-4.2,2-8.7,2.9-13.2,4c-6.3,1.5-14.8,3.6-17,10.6c0,0.1-0.3,0.1-0.2-0.1
			c1.1-5.5,7-8,11.9-9.6c4.9-1.6,10-2.2,14.9-3.9C86,110.1,100.3,102.9,93.2,94C93,94,93.1,93.9,93.2,94L93.2,94z"/>
		<path class="st2" d="M97.2,97.9c0.5,4.7-0.8,8.9-4.4,12c-3.8,3.2-8.9,4.8-13.6,6.1c-9.8,2.9-23.9,5-26.6,16.7
			c0,0.1-0.3,0.1-0.3-0.1c1.6-10.4,14-13.4,22.5-15.8c5.2-1.5,10.7-2.8,15.4-5.5c5-2.9,7.3-7.6,6.8-13.3
			C96.9,97.8,97.2,97.8,97.2,97.9L97.2,97.9z"/>
		<path class="st2" d="M83.4,106.4c-2.3,2.1-4.8,4-7.5,5.4c-3.3,1.8-6.8,3.1-10.3,4.7c-6.2,2.8-12.5,6.5-14.3,13.6
			c-1.4,5.2-0.3,14.3,6.1,15.6c0.2,0,0.3-0.3,0.1-0.4c-4.7-1.7-6.3-7-6.1-11.6c0.2-4.3,1.8-8.2,5.1-11c5.9-5.2,13.9-6.9,20.6-10.9
			c3.2-1.9,6.4-4.3,8.9-7.2C85.2,105.4,84.3,105.9,83.4,106.4z"/>
	</g>
	<g>
		<path class="st1" d="M157.4,368.8c4.7,10.4-4.9,19.5-11.2,26.7c-5.9,6.8-13.9,18.9-7.1,27.5c0.1,0.1-0.1,0.3-0.2,0.2
			c-6.7-6.9-0.4-18.3,4.2-24.6C149.2,390.1,162.5,381,157.4,368.8C157.3,368.8,157.4,368.7,157.4,368.8L157.4,368.8z"/>
		<path class="st1" d="M158,370.2c2.2,3.6,1.5,7.7,0,11.4c-2.1,5.1-5.6,9.7-8.8,14.2c-3.1,4.4-6.5,8.8-8.3,13.9
			c-0.7,2.1-1.1,4.3-0.5,6.5c0.7,2.5,2.7,4,4.6,5.6c0,0,0,0.1,0,0.1c-3.8-1.6-5.6-5.5-5.1-9.5c0.7-4.9,3.9-9.4,6.6-13.4
			c3.3-4.8,6.9-9.4,9.8-14.5C158.6,380.2,160.6,374.8,158,370.2C157.9,370.2,158,370.1,158,370.2L158,370.2z"/>
		<path class="st1" d="M145.8,361.2c9.9,3.1,3.5,14.9-0.4,20.3c-2.7,3.8-6.1,6.8-9.6,10c-4.8,4.4-11.2,10.4-9.6,17.6
			c0,0.1-0.2,0.2-0.2,0.1c-1.7-5.4,2.2-10.5,5.6-14.2c3.5-3.8,7.6-6.9,11-10.7C147.5,378.8,156.4,365.5,145.8,361.2
			C145.7,361.3,145.8,361.2,145.8,361.2L145.8,361.2z"/>
		<path class="st1" d="M151.3,362.7c2.7,3.8,3.7,8.1,2.1,12.6c-1.7,4.7-5.5,8.5-8.9,12c-7.1,7.3-18.4,16.1-15,27.6
			c0,0.1-0.2,0.2-0.3,0.1c-3.7-9.8,5.6-18.6,11.9-24.8c3.8-3.8,7.9-7.7,10.7-12.4c2.9-5,2.6-10.3-0.7-14.9
			C151,362.7,151.2,362.6,151.3,362.7L151.3,362.7z"/>
		<path class="st1" d="M134.1,358.7c2.7-4.2,8.7,1.5,10.2,4.1c1.8,3.1,1.3,7.6,0.6,10.9c-0.8,3.8-2.4,7.6-4.3,11
			c-3.9,6.7-10,12.1-12.6,19.6c-1.4,4.1-0.9,8.3,1,12.1c2.1,4.1,6.1,8,11,7.1c0.2,0,0.3,0.3,0.1,0.3c-6.2,2-11.6-5.4-13-10.6
			c-1.8-7.1,1.8-13.3,5.8-18.9c2.2-3,4.6-5.9,6.6-9.1c2.3-3.6,4-8,4.9-12.2c0.8-3.9,0.8-8.7-2-11.8c-1.7-2-6-5.4-8.2-2.3
			C134.2,359,134,358.9,134.1,358.7L134.1,358.7z"/>
	</g>
	<g>
		<path class="st1" d="M179.3,375.8c9.8-6,7-18.9,5.9-28.4c-1.1-9-0.8-23.5,9.7-26.8c0.2-0.1,0.1-0.3-0.1-0.3
			c-9.4,1.9-10.7,14.9-10.4,22.6C184.6,353.6,190.4,368.7,179.3,375.8C179.2,375.8,179.3,375.9,179.3,375.8L179.3,375.8z"/>
		<path class="st1" d="M180.6,375c3.9-1.7,5.6-5.5,6.4-9.4c1.2-5.4,0.9-11.1,0.8-16.6c-0.1-5.4-0.4-11,1-16.2
			c0.6-2.1,1.5-4.2,3.2-5.7c2-1.7,4.5-1.8,6.9-2c0,0,0.1-0.1,0-0.1c-4-0.8-7.8,1.4-9.5,4.9c-2.2,4.4-2.1,10-2.1,14.8
			c0,5.8,0.4,11.7-0.1,17.5C186.7,367.1,185.4,372.7,180.6,375C180.5,375,180.5,375.1,180.6,375L180.6,375z"/>
		<path class="st1" d="M165.5,375.5c9.9,3,11.3-10.3,11.2-17c-0.1-4.7-1.2-9.1-2.2-13.7c-1.4-6.3-3.3-14.9,2-19.9
			c0.1-0.1,0-0.3-0.2-0.2c-4.5,3.5-4.1,9.9-3.4,14.9c0.7,5.1,2.4,10,3,15.1C176.8,362,176.7,378,165.5,375.5
			C165.5,375.4,165.4,375.5,165.5,375.5L165.5,375.5z"/>
		<path class="st1" d="M170.8,377.4c4.4-1.6,7.6-4.6,8.8-9.2c1.2-4.8,0.3-10.1-0.5-14.9c-1.7-10.1-6.1-23.6,3.2-31.2
			c0.1-0.1,0-0.3-0.2-0.2c-8.6,6-5.9,18.5-4.3,27.2c1,5.3,2.2,10.8,1.8,16.2c-0.4,5.7-3.6,10-9,12
			C170.6,377.2,170.7,377.5,170.8,377.4L170.8,377.4z"/>
		<path class="st1" d="M154.4,371c-0.1,5,8,3.7,10.7,2.3c3.2-1.5,5.4-5.5,6.7-8.7c1.5-3.6,2.3-7.6,2.6-11.5
			c0.6-7.7-1.4-15.6,0.7-23.3c1.1-4.2,3.9-7.3,7.7-9.4c4-2.2,9.5-3.1,13.1,0.4c0.1,0.1,0.4-0.1,0.3-0.2c-4-5.2-12.6-2.1-16.7,1.4
			c-5.5,4.8-6.1,12-5.9,18.9c0.1,3.8,0.4,7.5,0.3,11.3c-0.1,4.3-1.2,8.9-2.8,12.8c-1.5,3.7-4.3,7.6-8.3,8.7c-2.5,0.7-8,1.1-8.1-2.7
			C154.7,370.8,154.4,370.8,154.4,371L154.4,371z"/>
	</g>
	<g>
		<path class="st1" d="M321,210.9c10-5.5,7.9-18.5,7.2-28.1c-0.6-9,0.4-23.5,11-26.3c0.2,0,0.1-0.3-0.1-0.3
			c-9.4,1.4-11.4,14.4-11.5,22.1C327.4,189,332.4,204.3,321,210.9C320.9,210.9,320.9,211,321,210.9L321,210.9z"/>
		<path class="st1" d="M322.3,210.2c3.9-1.5,5.9-5.2,6.9-9.1c1.4-5.4,1.4-11.1,1.6-16.6c0.2-5.4,0.2-11,1.8-16.1
			c0.7-2.1,1.7-4.1,3.5-5.5c2.1-1.6,4.5-1.6,7-1.7c0,0,0.1-0.1,0-0.1c-4-1-7.8,1-9.8,4.5c-2.4,4.3-2.6,9.9-2.8,14.7
			c-0.3,5.8-0.2,11.7-1,17.4C328.8,202.6,327.2,208.1,322.3,210.2C322.2,210.1,322.2,210.2,322.3,210.2L322.3,210.2z"/>
		<path class="st1" d="M307.2,210c9.7,3.5,11.8-9.7,12-16.4c0.2-4.7-0.8-9.2-1.6-13.8c-1.1-6.4-2.6-15.1,3-19.8
			c0.1-0.1,0-0.3-0.1-0.2c-4.6,3.2-4.6,9.6-4.1,14.7c0.5,5.1,1.9,10.1,2.3,15.2C319.2,197,318.2,212.9,307.2,210
			C307.2,209.9,307.1,209.9,307.2,210L307.2,210z"/>
		<path class="st1" d="M312.4,212.1c4.5-1.4,7.8-4.2,9.2-8.8c1.5-4.8,0.8-10.1,0.2-15c-1.3-10.1-4.9-23.9,4.8-31
			c0.1-0.1,0-0.3-0.2-0.2c-8.9,5.6-6.8,18.2-5.6,26.9c0.7,5.4,1.7,10.9,1,16.3c-0.7,5.7-4.1,9.8-9.6,11.5
			C312.2,211.9,312.3,212.1,312.4,212.1L312.4,212.1z"/>
		<path class="st1" d="M296.3,204.9c-0.4,5,7.8,4.1,10.6,2.9c3.3-1.4,5.7-5.3,7.1-8.3c1.7-3.5,2.7-7.5,3.2-11.3
			c1-7.7-0.6-15.7,1.8-23.2c1.3-4.1,4.3-7.1,8.1-9c4.1-2,9.7-2.6,13.1,1c0.1,0.1,0.4,0,0.3-0.2c-3.7-5.3-12.5-2.8-16.8,0.6
			c-5.7,4.5-6.6,11.7-6.8,18.5c-0.1,3.8,0.1,7.5-0.2,11.3c-0.3,4.3-1.6,8.8-3.4,12.7c-1.7,3.6-4.6,7.4-8.7,8.3
			c-2.5,0.6-8,0.7-7.9-3.1C296.6,204.7,296.3,204.7,296.3,204.9L296.3,204.9z"/>
	</g>
	<g>
		<path class="st1" d="M280,303.9c10-5.5,7.9-18.5,7.2-28.1c-0.6-9,0.4-23.5,11-26.3c0.2,0,0.1-0.3-0.1-0.3
			c-9.4,1.4-11.4,14.4-11.5,22.1C286.4,282,291.4,297.3,280,303.9C279.9,303.9,279.9,304,280,303.9L280,303.9z"/>
		<path class="st1" d="M281.3,303.2c3.9-1.5,5.9-5.2,6.9-9.1c1.4-5.4,1.4-11.1,1.6-16.6c0.2-5.4,0.2-11,1.8-16.1
			c0.7-2.1,1.7-4.1,3.5-5.5c2.1-1.6,4.5-1.6,7-1.7c0,0,0.1-0.1,0-0.1c-4-1-7.8,1-9.8,4.5c-2.4,4.3-2.6,9.9-2.8,14.7
			c-0.3,5.8-0.2,11.7-1,17.4C287.8,295.6,286.2,301.1,281.3,303.2C281.2,303.1,281.2,303.2,281.3,303.2L281.3,303.2z"/>
		<path class="st1" d="M266.2,303c9.7,3.5,11.8-9.7,12-16.4c0.2-4.7-0.8-9.2-1.6-13.8c-1.1-6.4-2.6-15.1,3-19.8
			c0.1-0.1,0-0.3-0.1-0.2c-4.6,3.2-4.6,9.6-4.1,14.7c0.5,5.1,1.9,10.1,2.3,15.2C278.2,290,277.2,305.9,266.2,303
			C266.2,302.9,266.1,302.9,266.2,303L266.2,303z"/>
		<path class="st1" d="M271.4,305.1c4.5-1.4,7.8-4.2,9.2-8.8c1.5-4.8,0.8-10.1,0.2-15c-1.3-10.1-4.9-23.9,4.8-31
			c0.1-0.1,0-0.3-0.2-0.2c-8.9,5.6-6.8,18.2-5.6,26.9c0.7,5.4,1.7,10.9,1,16.3c-0.7,5.7-4.1,9.8-9.6,11.5
			C271.2,304.9,271.3,305.1,271.4,305.1L271.4,305.1z"/>
		<path class="st1" d="M255.3,297.9c-0.4,5,7.8,4.1,10.6,2.9c3.3-1.4,5.7-5.3,7.1-8.3c1.7-3.5,2.7-7.5,3.2-11.3
			c1-7.7-0.6-15.7,1.8-23.2c1.3-4.1,4.3-7.1,8.1-9c4.1-2,9.7-2.6,13.1,1c0.1,0.1,0.4,0,0.3-0.2c-3.7-5.3-12.5-2.8-16.8,0.6
			c-5.7,4.5-6.6,11.7-6.8,18.5c-0.1,3.8,0.1,7.5-0.2,11.3c-0.3,4.3-1.6,8.8-3.4,12.7c-1.7,3.6-4.6,7.4-8.7,8.3
			c-2.5,0.6-8,0.7-7.9-3.1C255.6,297.7,255.3,297.7,255.3,297.9L255.3,297.9z"/>
	</g>
	<g>
		<path class="st1" d="M300.3,224.8c-0.1,0-0.2-0.1-0.3-0.1c0.4,6.1,2,12.6,3.1,18.1c2.2,11,3.7,28.9-6.8,33.3
			c-0.2,0.1-0.1,0.4,0.1,0.3c9.5-2.7,9.3-18.7,8.1-28.2C303.6,241.2,300.9,232.6,300.3,224.8z"/>
		<path class="st1" d="M299.1,224.7c0,0,0-0.1,0-0.1c-0.1,0-0.3,0-0.4-0.1c0,5.5,0.8,11.1,1.4,16.6c0.8,6.6,1.7,13.5,1,20
			c-0.3,2.7-1.1,5.2-2.7,7.1c-1.8,2.2-4.4,2.3-7,2.7c0,0,0,0.1,0,0.1c4.3,0.9,7.9-1.9,9.3-6.4c1.7-5.5,1-12.4,0.3-18.3
			C300.4,239.1,299.3,231.9,299.1,224.7z"/>
		<path class="st1" d="M311.7,233.6c-0.4-2-0.8-4.5-1.1-7.2c-0.1,0-0.3,0-0.4-0.1c0.1,0.9,0.2,1.8,0.2,2.6c0.7,5.8,2.4,11.2,4,16.8
			c2.3,7.7,5.3,18.3,0.3,24.6c-0.1,0.1,0.1,0.3,0.2,0.2c4.2-4.4,3.1-12.3,1.7-18.5C315.4,245.8,313,239.8,311.7,233.6z"/>
		<path class="st1" d="M307,225.8c-0.1,0-0.3,0-0.4-0.1c0.5,3.3,1.3,6.6,2.1,9.8c3.1,12.3,9.3,29,0.5,38.6c-0.1,0.1,0.1,0.4,0.2,0.2
			c8.3-7.7,3.9-23,1.1-33.6C309.1,235.8,307.7,230.8,307,225.8z"/>
		<path class="st1" d="M314.2,236.6c-0.2-3.2-0.1-6.6,0.2-9.8c-0.2,0-0.4-0.1-0.6-0.1c-0.3,2.8-0.4,5.8-0.3,8.6
			c0.3,9.6,3.4,19.2,2.1,28.7c-0.7,5.2-3.2,9.2-6.8,11.8c-3.9,2.9-9.6,4.1-13.7,0c-0.2-0.2-0.4,0.1-0.3,0.3
			c4.8,6.2,13.5,2.2,17.3-2.2c5.2-6.1,4.9-15,3.8-23.4C315.4,245.9,314.6,241.3,314.2,236.6z"/>
	</g>
	<g>
		<path class="st1" d="M268.2,287.6c-12.7-3.3-26.9,8.6-34.7,17.1c-12.2,13.2-23.1,38.3-45.2,33.5c-0.1,0-0.1,0.1,0,0.2
			c19.2,4.5,31.1-14.5,41-27.3c8.4-10.8,23.3-25.7,38.4-22.7C267.8,288.2,268,287.9,268.2,287.6z"/>
		<path class="st1" d="M265,294.7c-3.1-0.9-6.6-0.9-9.8,0.2c-8,2.7-14.5,9.5-20.2,15.4c-6.9,7.1-13.4,14.6-21,21
			c-6.4,5.4-14.7,10.5-23.4,7.5c-0.1,0-0.1,0.1,0,0.1c6.8,2.6,13.4,0.1,19.2-3.7c7.9-5.2,14.3-12.4,20.8-19.2
			c6.3-6.6,12.6-13.7,20.5-18.4c3.2-1.9,6.9-3.2,10.7-3c1.1,0.1,2.1,0.3,3.1,0.6C265,295.1,265,294.9,265,294.7z"/>
		<path class="st1" d="M171.5,321.4c8.6,15.5,26.2,1.2,34.1-7.1c5.5-5.8,9.4-12.5,13.5-19.2c5.7-9.4,13.7-22,26.3-21.7
			c0.2,0,0.3-0.4,0-0.4c-9.7-1.2-16.8,7-21.9,14c-5.1,7-8.9,15-14.2,21.9c-7.6,9.8-26.8,29-37.6,12.5
			C171.6,321.2,171.4,321.3,171.5,321.4L171.5,321.4z"/>
		<path class="st1" d="M175.8,330.1c7.3,3.4,14.9,3.6,21.8-0.6c7.3-4.4,12.5-11.9,17.2-18.7c9.8-14.3,20.7-35.9,41.2-33.9
			c0.3,0,0.3-0.4,0-0.4c-17.8-3.1-29.3,15.3-37.6,27.8c-5.1,7.7-10.1,15.7-17.1,21.8c-7.4,6.5-16.3,7.7-25.3,3.7
			C175.8,329.6,175.6,330,175.8,330.1L175.8,330.1z"/>
		<path class="st1" d="M271.5,284.2c0.3-0.2,0.6-0.5,1-0.7c-4.2-6.1-13.4-9.7-20-10.1c-12.5-0.8-21.8,7.2-29.7,15.8
			c-4.3,4.7-8.4,9.6-13,14c-5.3,5.1-12,9.3-18.8,12.2c-6.3,2.7-14.3,4-20.6,0.5c-3.9-2.2-11.1-8.3-6.8-13c0.3-0.3-0.2-0.6-0.4-0.4
			c-6.2,6,5.5,14.1,10.5,15.8c5.8,2,13.3-0.2,18.6-2.4c6.1-2.5,11.9-6.4,16.9-10.7c10-8.7,16.9-20.6,28.6-27.3
			c6.4-3.7,13.6-4.2,20.7-2.2C263.4,277,268.5,280,271.5,284.2z"/>
	</g>
	<g>
		<path class="st1" d="M55.5,307.2c-0.3,0.2-0.6,0.3-0.9,0.4c-0.9,1.4-1.8,2.6-2.7,3.7c-6.2,8-15.9,18.1-10.3,28.9
			c0,0.1,0.1,0,0.1,0c-6.1-12.5,7.3-23,13.4-32.4C55.2,307.6,55.4,307.4,55.5,307.2z"/>
		<path class="st1" d="M50.8,308.9c-0.2,0-0.4,0.1-0.5,0.1c-0.5,0.8-1,1.6-1.5,2.4c-3.1,4.9-6.5,9.9-8.5,15.5
			c-1.4,4-1.9,8.4,0.6,12.1c0,0,0.1,0,0.1,0c-3.1-4.7-1.3-10.5,1-15.2C44.5,318.5,47.7,313.7,50.8,308.9z"/>
		<path class="st1" d="M72.5,297.9c0.5,6.6-5.1,12.6-9.5,17c-3.4,3.5-6.9,6.9-9.5,11.1c-3.8,6-9.8,18.8,0.8,21.5
			c0.1,0,0.1-0.1,0-0.1c-11.5-3.8-2.8-18.4,1.9-24.5c3.4-4.3,7.6-7.8,11-12c3-3.6,6.3-8.4,5.7-13.3
			C72.8,297.8,72.6,297.9,72.5,297.9z"/>
		<path class="st1" d="M57.6,316.7c4.3-4.8,10.2-11,11.8-17.7c-0.2,0.1-0.4,0.2-0.6,0.2c-2,7.9-9.5,14.8-14.7,20.7
			c-3.4,3.9-7.2,8.2-8.7,13.2c-1.5,4.8-0.2,9.3,2.9,13.2c0.1,0.1,0.3,0,0.2-0.2c-3.8-4.8-4.3-10.3-1.6-15.8
			C49.7,325.3,53.8,321,57.6,316.7z"/>
		<path class="st1" d="M66.5,349.4c-2.2,3.4-6.9,0-8.8-2c-3-3.2-3.4-8.2-2.7-12.4c0.7-4.5,2.3-9.2,4.5-13.2c2-3.5,4.3-6.7,6.5-10
			c2.7-4.2,5.2-8.8,5.7-13.7c-0.2,0.1-0.4,0.1-0.6,0.2c-0.1,0.9-0.2,1.8-0.5,2.7c-2.3,8-8.4,14.1-12.2,21.4
			c-1.9,3.7-3.3,7.8-3.9,11.8c-0.5,3.5-0.7,8.4,1.3,11.5c1.8,2.7,8.3,8.4,11,3.8C66.9,349.4,66.6,349.3,66.5,349.4z"/>
	</g>
	<path class="st1" d="M282.9,143c0,0,85.9,134.3-19.8,153.2c-44,7.9-49,39.8-92.3,43.8C67.4,349.8,282.9,143,282.9,143z"/>
	<path class="st1" d="M125.8,331.3c0,0,57.9,40.3,17.9,66c-16.7,10.7-13.3,24.6-30.3,33.6C72.8,452.4,125.8,331.3,125.8,331.3z"/>
	<path class="st3" d="M282.9,143c0,0-0.3,0.3-0.8,0.8c18.8,35.6,55.5,123.2-28.4,138.3c-44,7.9-49,39.8-92.3,43.8
		c-8.1,0.8-14.2,0.2-18.7-1.5c0,11.3,8,17.6,28.1,15.7c43.3-4.1,48.2-35.9,92.3-43.8C368.8,277.3,282.9,143,282.9,143z"/>
	<path class="st4" d="M194.8,284.4c0,0,129.9,18.3,111.5-69.4c0,0,6.7,76.2-91.7,65L194.8,284.4z"/>
	<path class="st1" d="M157.8,257.3c0,0,78.4,88.5,3.2,114.6c-31.4,10.9-31.3,34.8-62.6,42.8C23.7,433.7,157.8,257.3,157.8,257.3z"/>
	<path class="st3" d="M157.8,257.3c0,0-0.2,0.2-0.5,0.7c17.9,23.9,54.9,83.9-4.8,104.6c-31.4,10.9-31.3,34.8-62.6,42.8
		c-5.9,1.5-10.4,1.8-13.9,1.1c1.3,8.3,7.9,12,22.4,8.3c31.3-8,31.2-31.9,62.6-42.8C236.2,345.8,157.8,257.3,157.8,257.3z"/>
	<path class="st1" d="M107.3,253.1c-15.4-20.7-22-38.9,34.5-62.1c34.2-14,28.9-35.6,19.5-50.5c-13.6,0.3-27.2,0.9-40.7,1.6
		c6.7,7.4,11.9,17.6-14.2,39.5c-37.2,31.3-38.2,35.8-42.3,54.9s16.2,51.4,26.1,92.2c9.9,40.8-60.3,87.4,27.7,43.3
		C205.8,327.8,122.7,273.8,107.3,253.1z"/>
	<path class="st1" d="M102.8,259.6c-20.3-15.9-31.5-31.7,16.9-69c29.2-22.5,18.5-42,5.4-53.9c-13.1,3.9-26,8.1-38.9,12.3
		c8.5,5.3,16.1,13.9-3.2,41.8c-27.6,40-27.4,44.6-26.4,64.1c1,19.5,51.6,22.1,71.9,58.8c20.3,36.8-57.5,123.4,15.7,57.7
		S123.1,275.5,102.8,259.6z"/>
	<path class="st1" d="M122.8,304.1c20.9-15.1,32.7-30.5-14.2-69.6c-28.3-23.7-16.9-42.7-3.3-54c12.9,4.4,25.6,9.1,38.3,13.8
		c-8.7,5-16.6,13.2,1.6,41.9c26.1,41,25.6,45.6,23.8,65.1c-1.8,19.4-52.4,20-74.2,55.9s52.6,125.6-18,57S101.8,319.2,122.8,304.1z"
		/>
	<path class="st5" d="M115.7,265.4c20.9-15.1,32.7-30.5-14.2-69.6c-28.3-23.7-16.9-42.7-3.3-54c12.9,4.4,25.6,9.1,38.3,13.8
		c-8.7,5-16.6,13.2,1.6,41.9c26.1,41,25.6,45.6,23.8,65.1s-52.4,20-74.2,55.9c-21.7,35.9,52.6,125.6-18,57S94.8,280.5,115.7,265.4z"
		/>
	<path class="st6" d="M119.7,354.1c11.8-23,15.4-42-44.1-55.7c-36-8.3-27.3-36.5-20.3-52.8c13.5-1.9,19.9,2.6,33.4,1.1
		c-5.5,8.3-8.9,19.3,20.4,36.7c41.8,24.8,51.4,28,53.4,45c2.1,18.1-40.5,43.9-43.6,85.7c-3.2,41.9,103.7,88.2,9.7,59
		C34.5,443.8,107.8,377.1,119.7,354.1z"/>
	<path class="st4" d="M154,472.2c-90-39.8-9.6-97.8,4.7-119.2c14.4-21.5,20.1-39.9-37.5-60.3c-34.8-12.3-22.9-39.4-14.2-54.7
		c0.1,0,0.1,0,0.2,0c-2.5-0.4-5.1-0.6-8.2-0.5c-8.7,15.4-20.6,42.4,14.2,54.7c57.6,20.4,51.9,38.9,37.5,60.3
		C136.4,374,56,432,146,471.8c27,11.9,36.8,15,37.6,12.5C177.7,482.4,168.2,478.5,154,472.2z"/>
	<g>
		<g class="st7">
			<g>
				<g>
					<path class="st8" d="M118.1,255.2c0,0,50.8-71.3,104.4-16.1C222.5,239,175.7,189.7,118.1,255.2z"/>
				</g>
				<g>
					<path class="st8" d="M123.8,273.1c0,0,38.6-78.3,100.5-32.3C224.3,240.9,170,199.5,123.8,273.1z"/>
				</g>
				<g>
					<g>
						<g>
							<path class="st8" d="M320.5,231c0,0-61.4-43-88.5,16.4C232,247.4,255.4,194.6,320.5,231z"/>
						</g>
						<g>
							<path class="st8" d="M320.6,244.6c0,0-55.2-50.4-89.9,5C230.7,249.6,260.9,200.2,320.6,244.6z"/>
						</g>
					</g>
				</g>
			</g>
		</g>
		<path class="st9" d="M368.8,116.8c-5.3-28.6-27.6-48.5-49.8-44.5c-6.6,1.2-12.5,4.4-17.3,9.1c-17.9-22.4-43.5-38.2-72.1-44.1
			c-13.3-2-24.9-2.8-38.7-2c-3.2,0.3-6.5,0.8-9.7,1.4c-52,9.4-90.5,49.1-100.1,97.2c-5.5-2,16.4,96.6,21.6,90.7
			c25.8,26.9,69.5,31.5,117.4,22.9c52.1-9.4,94-31.7,104.9-71.7c4.3,1,8.7,1.1,13.1,0.3C360.4,171.8,374.1,145.4,368.8,116.8z"/>
		<path class="st9" d="M365.1,120.3c-3.8-28.8-25-50-47.3-47.1c-6.7,0.8-12.7,3.7-17.8,8.1c-16.7-23.3-41.3-40.4-69.6-47.9
			c-13.2-2.7-24.7-4.1-38.5-4.1c-3.2,0.2-6.5,0.4-9.8,0.8c-52.4,6.6-93,44.2-105.1,91.7c-5.4-2.2-11.2-3.2-17-2.4
			c-22.4,2.8-37.5,28.5-33.7,57.3c3.8,28.8,25,49.9,47.3,47.1c7.8-1,14.6-4.7,20.2-10.3c24.4,28.3,67.7,35.2,116,29.1
			c52.6-6.6,95.6-26.6,108.6-66c4.2,1.2,8.6,1.6,13,1C353.7,174.8,368.8,149.1,365.1,120.3z"/>
		<path class="st10" d="M367,108.9c-0.1,23.4-12.9,43-31.8,46.4c-4.4,0.8-8.8,0.6-13.1-0.3c-10.9,40.1-52.8,62.3-104.9,71.7
			c-47.9,8.6-91.6,4-117.4-22.9c-5.2,5.9-11.9,10-19.6,11.4c-20.6,3.7-19.7,22.6,2.5,18.6c7.7-1.4,14.4-5.5,19.6-11.4
			c25.8,26.9,69.5,31.5,117.4,22.9c52.1-9.4,94-31.7,104.9-71.7c4.3,1,8.7,1.1,13.1,0.3c22.2-4,35.9-30.4,30.6-59
			C368,112.8,367.5,110.8,367,108.9z"/>
		<g>
			<path class="st10" d="M365.8,115.6c-1.4,23.3-15.2,42.3-34.2,44.7c-4.4,0.6-8.8,0.2-13-1c-13,39.4-56,59.4-108.6,66
				c-48.3,6-91.7-0.9-116-29.1c-5.5,5.6-12.4,9.3-20.2,10.3C53,209,33.2,191,27.5,165.3c-0.2,4.1-0.1,8.3,0.5,12.6
				c3.8,28.8,24.9,49.9,47.3,47.1c7.8-1,14.6-4.7,20.2-10.3c24.4,28.3,67.7,35.2,116,29.1c52.6-6.6,95.6-26.6,108.6-66
				c4.2,1.2,8.6,1.6,13,1c22.4-2.8,37.5-28.5,33.8-57.3C366.6,119.6,366.2,117.5,365.8,115.6z"/>
			<g class="st11">
				<g>
					<g>
						<path class="st12" d="M232.6,54c35.5,10.3,52.9,26.1,69.5,49.4c5.1-4.4,11.1-7.3,17.8-8.1c21.3-2.7,41.6,16.3,46.7,43.1
							c0.1-3.5-0.1-7.1-0.5-10.7c-3.8-28.8-25-50-47.4-47.1c-6.7,0.8-12.7,3.7-17.8,8.1c-16.7-23.3-41.3-40.4-69.6-47.9
							c-14.9-5-38.5-4.1-38.5-4.1c-3.3,0.2-6.5,0.4-9.8,0.8C130.6,43.9,90,81.6,78,129c-5.4-2.2-11.2-3.1-17-2.4
							c-22.4,2.8-37.5,28.5-33.8,57.3c0.2,1.4,0.4,2.7,0.7,4.1c0.7-24.2,14.7-44.1,34.3-46.6c5.9-0.7,11.6,0.2,17,2.4
							c12.1-47.4,52.7-85.1,105.1-91.7C187.3,51.8,211.7,50.2,232.6,54z"/>
					</g>
				</g>
			</g>
			<path class="st13" d="M74.1,128.1c0,0,16.3-40.6,48.8-67.4c19.8-16.4,45.4-28.3,74.8-27.6c20.6,1.1,33.3,3.9,34.6,4
				c47.9,17,52.9,27.9,70.6,49c0,0-60.3-20.8-122.7-13.4C144.4,76.9,88.6,122.2,74.1,128.1z"/>
			
				<linearGradient id="SVGID_1_" gradientUnits="userSpaceOnUse" x1="-51.9271" y1="266.1953" x2="10.835" y2="266.1953" gradientTransform="matrix(1 0 0 -1 84 446)">
				<stop  offset="0" style="stop-color:#B2804B"/>
				<stop  offset="0.2854" style="stop-color:#BF9058;stop-opacity:0.7146"/>
				<stop  offset="0.619" style="stop-color:#C79B61;stop-opacity:0.381"/>
				<stop  offset="1" style="stop-color:#CA9E64;stop-opacity:0"/>
			</linearGradient>
			<path class="st14" d="M52.9,191.4c-13.4-10.7-18-27.4-11.7-39.6c-1.3,1-2.5,2.2-3.6,3.5c-10.1,12.2-6.1,31.8,8.9,43.8
				c15,11.9,35.4,11.7,45.5-0.5c1.1-1.3,2-2.7,2.7-4.2C84,203,66.3,202,52.9,191.4z"/>
		</g>
		<g class="st11">
			<g>
				<g>
					<path class="st12" d="M230.7,54.5c36,8.3,54.2,23.2,72.1,45.6c4.8-4.7,10.7-7.9,17.3-9c21.2-3.8,42.4,14.1,48.9,40.5
						c-0.1-3.5-0.4-7.1-1.1-10.7c-5.3-28.6-27.6-48.5-49.8-44.5c-6.6,1.2-12.5,4.4-17.3,9c-17.9-22.4-43.5-38.2-72.1-44.1
						c-15.2-4.2-38.7-2-38.7-2c-3.2,0.3-6.5,0.8-9.7,1.4c-52,9.4-90.5,49.1-100.1,97.2c-5.5-1.9-38.4,18.9-19,15.4
						c5.8-1,15.5-2.7,21-0.7c9.5-48,48.1-87.8,100.1-97.2C185.3,54.8,209.6,51.9,230.7,54.5z"/>
				</g>
			</g>
		</g>
		<path class="st13" d="M76.3,137c0,0,14.1-41.4,45.1-69.9c18.9-17.4,43.8-30.7,73.2-31.6c20.7-0.1,33.5,2.1,34.7,2.2
			c48.7,14.4,54.3,25,73.2,45.1c0,0-61.4-17.5-123.2-6.8C143.8,82.1,90.5,130.3,76.3,137z"/>
		<g>
			
				<image style="overflow:visible;opacity:0.34;enable-background:new    ;" width="117" height="104" xlink:href="7CBAC621B9937DCE.png"  transform="matrix(2.0253 -0.1087 0.1086 2.0231 80.3728 54.1056)">
			</image>
			<g>
				
					<radialGradient id="SVGID_2_" cx="85.8289" cy="303.9065" r="91.3256" gradientTransform="matrix(1.1284 -6.056176e-02 -5.940948e-02 -1.1069 120.787 495.7574)" gradientUnits="userSpaceOnUse">
					<stop  offset="0" style="stop-color:#B2804B"/>
					<stop  offset="0.509" style="stop-color:#B07E4A"/>
					<stop  offset="0.6924" style="stop-color:#A97845"/>
					<stop  offset="0.823" style="stop-color:#9E6D3D"/>
					<stop  offset="0.9279" style="stop-color:#8D5D31"/>
					<stop  offset="1" style="stop-color:#7C4D25"/>
				</radialGradient>
				<path class="st15" d="M196.2,96c0,0-85.2-43.4-103.1,30.6c-9,37.2,2.2,69.3,62.8,107.3c64.4,40.3,124.9-5.6,141.6-62.2
					c8.2-27.9,17.6-60.2-3.6-90.3C293.8,81.5,234.3,16.1,196.2,96z"/>
				<path class="st16" d="M196.2,96c0,0-85.2-43.4-103.1,30.6c-9,37.2,2.2,69.3,62.8,107.3c64.4,40.3,124.9-5.6,141.6-62.2
					c8.2-27.9,17.6-60.2-3.6-90.3C293.8,81.5,234.3,16.1,196.2,96z"/>
			</g>
		</g>
		<path class="st17" d="M96,147.9c17.9-74,103.1-30.6,103.1-30.6c38.2-79.9,97.7-14.6,97.7-14.6c4.9,6.9,8.1,13.9,10.1,21
			c0-13.9-3.3-28-12.9-41.7c0,0-59.5-65.4-97.7,14.6c0,0-85.2-43.4-103.1,30.6c-3.4,14.1-3.9,27.5,0.1,40.7
			C93.4,161.4,94.3,154.7,96,147.9z"/>
		<g>
			<path class="st18" d="M261.6,195.8c0,0,21.6-6.1,26.3,15.4c0.7,3.4-0.2,11.3,1.6,16.4c9.2,26.9,23,62.8-75.4,77.3
				c0,0-71.7,23.8-66.2-49c0,0-10.3-22,11.9-34.4L261.6,195.8z"/>
		</g>
		<path class="st19" d="M260,242.2c0,0,17.8,9.9,8.7,23.7"/>
		<path class="st20" d="M190.6,178.1c1.2-0.2,14.1-10.1,31.6-5.7"/>
		<path class="st20" d="M186.6,175.8c1.2-0.2,15.4-13.3,38.8-6.6"/>
		
			<radialGradient id="SVGID_3_" cx="175.2902" cy="-5.078" r="53.2474" gradientTransform="matrix(1.12 -0.1487 -0.1493 -1.0985 24.9985 288.688)" gradientUnits="userSpaceOnUse">
			<stop  offset="0" style="stop-color:#CA9E64;stop-opacity:0"/>
			<stop  offset="0.1822" style="stop-color:#C69B62;stop-opacity:0.1822"/>
			<stop  offset="0.3523" style="stop-color:#BB915C;stop-opacity:0.3523"/>
			<stop  offset="0.5175" style="stop-color:#A88152;stop-opacity:0.5175"/>
			<stop  offset="0.6798" style="stop-color:#8E6A44;stop-opacity:0.6798"/>
			<stop  offset="0.8398" style="stop-color:#6B4D32;stop-opacity:0.8398"/>
			<stop  offset="0.9964" style="stop-color:#42291C;stop-opacity:0.9964"/>
			<stop  offset="1" style="stop-color:#41281B"/>
		</radialGradient>
		<path class="st21" d="M151.3,245.1c0,0,120.5,134.5,135.4-24.3c0,0,22.2,38.9-2.5,59.9c-15.9,14.4-67.1,26.9-83.3,29.2
			c-26.6,3.7-58.3-6.6-54.1-49.1"/>
		<path class="st22" d="M289,235.3c4.8,35.2-22.9,67.4-58.4,74.9c-9.6,2.2-13.4,2.5-20.7,1.5c-27.6-6.7-53.6-30.1-57.4-58.2
			c-5-37,21.5-71,59.2-76C249.3,172.4,283.9,198.3,289,235.3z"/>
		<path class="st23" d="M214.2,190.9c35.5-4.7,68.2,18,76.1,51.5c-0.1-2.2-0.3-4.3-0.6-6.5c-5-37-39.6-62.9-77.3-57.9
			c-37.7,5-64.2,39-59.1,76c0.3,2.2,0.7,4.3,1.2,6.4C153.2,226,178.8,195.6,214.2,190.9z"/>
		<g>
			<g>
				<g>
					<path class="st18" d="M104.4,110.6c0,0,42.7-62.1,89.6-15.4C194,95.2,152.9,53.5,104.4,110.6z"/>
				</g>
				<g>
					<path class="st18" d="M109.6,126c0,0,32.1-68,86-29.2C195.6,96.8,148.2,62,109.6,126z"/>
				</g>
				<g>
					<g>
						<g>
							<path class="st18" d="M266.4,57.5c0,0-61.4-21-69.2,34.5C197.2,92,203.6,42.9,266.4,57.5z"/>
						</g>
						<g>
							<path class="st18" d="M269.8,68.7c0,0-58-28.6-73.1,25.4C196.7,94.1,209.5,46.2,269.8,68.7z"/>
						</g>
					</g>
				</g>
			</g>
		</g>
		
			<linearGradient id="SVGID_4_" gradientUnits="userSpaceOnUse" x1="-407.8678" y1="-33.0663" x2="-387.2968" y2="-33.0663" gradientTransform="matrix(1.2046 -0.2004 -1.571677e-02 -1.0354 717.8036 30.8011)">
			<stop  offset="0" style="stop-color:#673B15"/>
			<stop  offset="0.1667" style="stop-color:#6E421B;stop-opacity:0.8333"/>
			<stop  offset="0.4181" style="stop-color:#83572B;stop-opacity:0.5819"/>
			<stop  offset="0.7211" style="stop-color:#A57946;stop-opacity:0.2789"/>
			<stop  offset="1" style="stop-color:#CA9E64;stop-opacity:0"/>
		</linearGradient>
		<path class="st24" d="M227.1,154.1c0,0,34.2,0.9,22.1-19.2"/>
		<path class="st25" d="M240.5,137.4c1.4,7.8-3.8,15.2-11.7,16.7c-7.9,1.4-15.5-3.7-17-11.5c-1.4-7.8,3.8-15.2,11.7-16.7
			C231.4,124.5,239,129.6,240.5,137.4z"/>
		<path class="st26" d="M239.1,136.6c1.4,7.4-3.7,14.5-11.2,15.9c-7.6,1.4-14.8-3.5-16.2-11c-1.4-7.4,3.6-14.6,11.2-15.9
			C230.4,124.3,237.7,129.2,239.1,136.6z"/>
		<path class="st27" d="M232.2,139.4c0.6,4.6-2.6,8.7-7.3,9.4c-4.6,0.6-8.9-2.6-9.5-7.1c-0.6-4.5,2.6-8.7,7.3-9.4
			C227.3,131.6,231.6,134.8,232.2,139.4z"/>
		
			<linearGradient id="SVGID_5_" gradientUnits="userSpaceOnUse" x1="-3210.6619" y1="-183.9161" x2="-3189.7085" y2="-183.9161" gradientTransform="matrix(-1.2333 0.2655 -4.010031e-02 -1.0419 -3787.7554 817.8597)">
			<stop  offset="0" style="stop-color:#673B15"/>
			<stop  offset="0.1667" style="stop-color:#6E421B;stop-opacity:0.8333"/>
			<stop  offset="0.4181" style="stop-color:#83572B;stop-opacity:0.5819"/>
			<stop  offset="0.7211" style="stop-color:#A57946;stop-opacity:0.2789"/>
			<stop  offset="1" style="stop-color:#CA9E64;stop-opacity:0"/>
		</linearGradient>
		<path class="st28" d="M179.7,164.1c0,0-35.2,14.7-23.9-10"/>
		<path class="st25" d="M161.5,152.3c0.7,7.9,7.8,13.7,15.8,13c8-0.7,14-7.6,13.3-15.5c-0.7-7.9-7.8-13.7-15.8-13
			C166.8,137.5,160.8,144.4,161.5,152.3z"/>
		<path class="st26" d="M162.6,151.2c0.7,7.5,7.4,13.1,15.1,12.4c7.7-0.7,13.3-7.3,12.7-14.8c-0.7-7.5-7.4-13.1-15.1-12.4
			C167.7,137,162,143.6,162.6,151.2z"/>
		<path class="st27" d="M170,152c0.6,4.6,4.9,7.7,9.5,7.1c4.6-0.6,7.9-4.8,7.3-9.4c-0.6-4.6-4.9-7.7-9.5-7.1
			C172.7,143.3,169.4,147.5,170,152z"/>
		<path class="st29" d="M173.5,153.3c-0.7,2.3,0.6,4.8,3,5.5c2.4,0.7,4.9-0.6,5.6-2.9c0.7-2.3-0.6-4.8-2.9-5.5
			C176.8,149.7,174.3,151,173.5,153.3z"/>
		<path class="st29" d="M221.5,143.7c-0.7,2.3,0.6,4.8,2.9,5.5c2.4,0.7,4.9-0.6,5.6-2.9c0.7-2.3-0.6-4.8-2.9-5.5
			C224.8,140.1,222.3,141.4,221.5,143.7z"/>
		<g>
			
				<linearGradient id="SVGID_6_" gradientUnits="userSpaceOnUse" x1="-762.6039" y1="1056.5809" x2="-732.299" y2="1056.5809" gradientTransform="matrix(0.6184 0.7859 0.7859 -0.6184 -158.1221 1436.028)">
				<stop  offset="0" style="stop-color:#673B15"/>
				<stop  offset="0.1667" style="stop-color:#6E421B;stop-opacity:0.8333"/>
				<stop  offset="0.4181" style="stop-color:#83572B;stop-opacity:0.5819"/>
				<stop  offset="0.7211" style="stop-color:#A57946;stop-opacity:0.2789"/>
				<stop  offset="1" style="stop-color:#CA9E64;stop-opacity:0"/>
			</linearGradient>
			<path class="st30" d="M188.4,204.8c2,9,31.2,1.1,42.3-6.6c3.2-2.2,2.9-11,2.5-11.3C224.2,180.9,198.2,167.3,188.4,204.8"/>
			<g class="st31">
				<g>
					<g>
						<path class="st8" d="M207.2,182.6c11.1-3.5,22.4,0.2,27.1,8.2c-0.1-1.1-0.3-2.2-0.7-3.3c-3.3-10.1-16-15.1-28.5-11.2
							c-12.4,3.9-19.9,15.3-16.6,25.4c0.3,1.1,0.8,2.1,1.4,3.1C189,195.6,196.1,186.1,207.2,182.6z"/>
					</g>
					<g>
						<path class="st8" d="M202.9,194.8c3.7-1.2,7.6,0.5,9.3,3.8c-0.1-0.4-0.2-0.9-0.3-1.3c-1.3-4.1-5.7-6.3-9.9-5
							c-4.1,1.3-6.4,5.6-5.1,9.7c0.1,0.4,0.3,0.8,0.5,1.2C197,199.6,199.2,196,202.9,194.8z"/>
					</g>
					<g>
						<path class="st8" d="M220.3,190.1c-3.7,1-6.1,4.5-5.7,8.2c-0.2-0.4-0.4-0.8-0.5-1.3c-1.2-4.1,1.3-8.3,5.5-9.5
							c4.2-1.1,8.5,1.3,9.7,5.3c0.1,0.4,0.2,0.9,0.2,1.3C227.8,190.8,224,189,220.3,190.1z"/>
					</g>
					<path class="st8" d="M212.1,197.4c0.3,2.1-1.2,4.1-3.4,4.3c-2.2,0.3-4.1-1.2-4.4-3.3c-0.3-2.1,1.2-4.1,3.4-4.3
						C209.8,193.8,211.8,195.3,212.1,197.4z"/>
					<path class="st8" d="M222.6,196c0.3,2.1-1.2,4.1-3.4,4.3c-2.1,0.3-4.1-1.2-4.4-3.3c-0.3-2.1,1.2-4.1,3.4-4.4
						C220.3,192.4,222.3,193.9,222.6,196z"/>
				</g>
			</g>
		</g>
		<g>
			<path class="st32" d="M273.3,250.5c0,0-33.3,2.9-54.7-5.3c-10.9-4.2-42.2-23.3-46.5,4.8c0,0,21.3,49.1,87.7,18.1
				C267.9,264.3,264.2,258.2,273.3,250.5z"/>
			
				<linearGradient id="SVGID_7_" gradientUnits="userSpaceOnUse" x1="-6.2825" y1="296.4284" x2="-2.5115" y2="296.4284" gradientTransform="matrix(0.9997 -2.721635e-02 -2.721635e-02 -0.9997 182.759 547.1653)">
				<stop  offset="0" style="stop-color:#B2804B"/>
				<stop  offset="0.3816" style="stop-color:#B88751;stop-opacity:0.6184"/>
				<stop  offset="0.9553" style="stop-color:#C89C62;stop-opacity:4.470000e-02"/>
				<stop  offset="1" style="stop-color:#CA9E64;stop-opacity:0"/>
			</linearGradient>
			<path class="st33" d="M171.9,241.4c0,0-8.2,10,0.5,19"/>
			
				<linearGradient id="SVGID_8_" gradientUnits="userSpaceOnUse" x1="-672.3959" y1="1080.6934" x2="-665.0216" y2="1080.6934" gradientTransform="matrix(0.8814 0.4723 0.4723 -0.8814 338.1526 1534.3215)">
				<stop  offset="0" style="stop-color:#58585A"/>
				<stop  offset="0.2077" style="stop-color:#7E6F5D;stop-opacity:0.7923"/>
				<stop  offset="0.4275" style="stop-color:#9F8460;stop-opacity:0.5725"/>
				<stop  offset="0.6383" style="stop-color:#B79262;stop-opacity:0.3617"/>
				<stop  offset="0.834" style="stop-color:#C59B64;stop-opacity:0.166"/>
				<stop  offset="1" style="stop-color:#CA9E64;stop-opacity:0"/>
			</linearGradient>
			<path class="st34" d="M265.1,262.8c0,0-1.6-2.6-5.1-2.7c-1,0-5.4,9.9-6.9,9.5"/>
			
				<linearGradient id="SVGID_9_" gradientUnits="userSpaceOnUse" x1="-3686.6819" y1="365.4531" x2="-3679.3821" y2="365.4531" gradientTransform="matrix(-0.9994 -3.348414e-02 3.348414e-02 -0.9994 -3516.8103 497.0351)">
				<stop  offset="0" style="stop-color:#58585A"/>
				<stop  offset="0.2077" style="stop-color:#7E6F5D;stop-opacity:0.7923"/>
				<stop  offset="0.4275" style="stop-color:#9F8460;stop-opacity:0.5725"/>
				<stop  offset="0.6383" style="stop-color:#B79262;stop-opacity:0.3617"/>
				<stop  offset="0.834" style="stop-color:#C59B64;stop-opacity:0.166"/>
				<stop  offset="1" style="stop-color:#CA9E64;stop-opacity:0"/>
			</linearGradient>
			<path class="st35" d="M172.9,249.6c0,0,2.8-1.5,5.8,0.2c0.9,0.5-0.4,11.3,1.1,11.6"/>
			
				<linearGradient id="SVGID_10_" gradientUnits="userSpaceOnUse" x1="-2424.8162" y1="-1662.0989" x2="-2419.7375" y2="-1662.0989" gradientTransform="matrix(-0.9864 0.1638 0.1638 0.9864 -1841.1509 2284.8857)">
				<stop  offset="0" style="stop-color:#B2804B"/>
				<stop  offset="0.3816" style="stop-color:#B88751;stop-opacity:0.6184"/>
				<stop  offset="0.9553" style="stop-color:#C89C62;stop-opacity:4.470000e-02"/>
				<stop  offset="1" style="stop-color:#CA9E64;stop-opacity:0"/>
			</linearGradient>
			<path class="st36" d="M275.7,261.5c0,0,9-14.7-4.2-25.1"/>
			<path class="st19" d="M173.2,250c0,0,4.3-5.8,5-4.5c2.5,4.2,9.1,14.5,11.4,10.7c2.9-4.8-0.3-10.1-0.3-10.1s4.1,18,10.7,13.5
				c6.5-4.5,46-2.4,46-2.4s6.9,9.5,9.1,1.5c2.2-8,2.2-8,2.2-8s-3.9,16.2,0.3,11.3c5.3-6.3,2.1,3.5,10.9-6.3"/>
			
				<linearGradient id="SVGID_11_" gradientUnits="userSpaceOnUse" x1="14.0059" y1="265.2981" x2="87.2616" y2="265.2981" gradientTransform="matrix(0.9997 -2.721635e-02 -2.721635e-02 -0.9997 182.759 547.1653)">
				<stop  offset="0" style="stop-color:#B2804B"/>
				<stop  offset="0.3816" style="stop-color:#B88751;stop-opacity:0.6184"/>
				<stop  offset="0.9553" style="stop-color:#C89C62;stop-opacity:4.470000e-02"/>
				<stop  offset="1" style="stop-color:#CA9E64;stop-opacity:0"/>
			</linearGradient>
			<path class="st37" d="M189.4,276.9c0,0,12.8,3.9,24.1,5.2c15.1,1.7,42.3-3.8,48.9-13.3C262.5,268.8,230.8,313.7,189.4,276.9z"/>
			<path class="st38" d="M196,278.7c0,0,12.7,3.1,18.9,3.8c8.3,0.9,30.5-0.1,34.2-5.2C249.1,277.3,218.6,298.8,196,278.7z"/>
		</g>
		
			<linearGradient id="SVGID_12_" gradientUnits="userSpaceOnUse" x1="-1740.1608" y1="-4186.4121" x2="-1678.5922" y2="-4186.4121" gradientTransform="matrix(-0.388 -0.9217 -0.9217 0.388 -4183.4956 170.4892)">
			<stop  offset="0" style="stop-color:#CA9E64;stop-opacity:0"/>
			<stop  offset="0.4146" style="stop-color:#BF9058;stop-opacity:0.4146"/>
			<stop  offset="1" style="stop-color:#B2804B"/>
		</linearGradient>
		<path class="st39" d="M353.3,127c-4.8,16.3-18.8,27-32.7,26c1.5,0.8,3,1.4,4.7,1.9c15.4,4.4,32.3-6.9,37.7-25.1
			c5.4-18.3-2.7-36.6-18.1-40.9c-1.6-0.5-3.3-0.7-5-0.9C352.2,94.3,358.2,110.7,353.3,127z"/>
		<line class="st40" x1="226.3" y1="311" x2="214.9" y2="311"/>
		<g>
			<g class="st7">
				<g>
					<path class="st41" d="M146.5,131.6c0,0,26.6,2.3,20.4,24.9C166.9,156.5,172.6,136.6,146.5,131.6z"/>
				</g>
				<g>
					<path class="st41" d="M142.7,135.9c0,0,26.6-2,24,21.3C166.7,157.3,169.2,136.6,142.7,135.9z"/>
				</g>
				<g>
					<path class="st41" d="M146.2,141.2c0,0,22.8-1.7,20.6,18.3C166.8,159.5,168.9,141.8,146.2,141.2z"/>
				</g>
			</g>
			<g class="st7">
				<g>
					<path class="st41" d="M251,114.9c0,0-26.2,5.1-17.6,26.9C233.4,141.8,225.6,122.6,251,114.9z"/>
				</g>
				<g>
					<path class="st41" d="M255.3,118.8c0,0-26.6,0.8-21.6,23.8C233.7,142.6,229,122.3,255.3,118.8z"/>
				</g>
				<g>
					<path class="st41" d="M252.3,124.4c0,0-22.8,0.7-18.5,20.4C233.8,144.8,229.8,127.4,252.3,124.4z"/>
				</g>
			</g>
		</g>
	</g>
	<path class="st4" d="M303.9,81.1c-25.1-75.8-40.8-31.8-76.8-50C103.6-31.4,76.4,109.6,67,144.9c-20,75.5,2.6,133,5,178.5
		c0.9-1,1.8-2,2.7-3c0.8-0.9,4.9-6.5,2.2-2.5c5.1-7.7,13.1-11.5,22.1-7.5c0.5,0.2,1,0.5,1.5,0.8c6.7-26.4,10.2-60.7,5.9-103.4
		C95.8,103.3,207.8,110,215,85.8c7.6-25.4,25.4-11.4,25.4-11.4c62.9-1.6,66.4,36.7,66.5,43.5C307,112.9,306.9,90.1,303.9,81.1z"/>
	<g>
		
			<image style="overflow:visible;opacity:0.51;" width="303" height="347" xlink:href="7CBAC621B9937DD2.png"  transform="matrix(1 0 0 1 32.3728 3.3878)">
		</image>
		<g>
			<path class="st1" d="M288.5,56.7c-16.6-30.2-41.3-5.9-77.4-23.9C135-5.1,101.3,76.8,66.9,126.7c-49.8,72.3,1,131.3,0.6,199.8
				c3.1-2.9,6.3-5.8,9.4-8.6c1.3-3.5,3.6-6.5,6.9-8.8c2.6-1.8,4.7-2.5,7.4-3c0.6-0.4,1.3-0.8,2-1.2c1.6-6.8,7.9-13,15-13
				c0.8,0,1.6,0.1,2.4,0.2c2.3-15.5,3.3-33,2.4-52.7c-0.3-6.9-8.2-29.1-9-36.6C93.4,98.3,206.4,104.9,213.7,80.8
				c7.6-25.4,23.5-10.3,23.5-10.3c65-1.5,67.9,33.4,67.9,33.4C307.4,109.8,295.3,69.1,288.5,56.7z"/>
		</g>
	</g>
	<path class="st4" d="M166.9,105.2c0,0-125.5,5.5-92.8,84.8c0,0-19.7-70.6,75-77.2L166.9,105.2z"/>
	<path class="st4" d="M146.4,265.8c0,0-131,5.8-96.9,88.6c0,0-20.5-73.7,78.3-80.6L146.4,265.8z"/>
	<path class="st0" d="M151.1,352c-1.3,0.2-2.7,0.3-4,0.5"/>
	<path class="st4" d="M88.7,380.1c-0.3-0.6-0.6-1.1-0.8-1.8c-0.5-1.2-0.8-2.5-0.9-3.8c-15.1,12.3-23.1,31-13.2,59.2
		C73.9,433.7,67,402.6,88.7,380.1z"/>
	<path class="st4" d="M106.1,300.4c-0.6,1.4-1.3,2.7-2.2,3.8c45.4,36-6.7,79.7-6.7,79.7C153.7,349.4,127.5,324.4,106.1,300.4z"/>
	<path class="st4" d="M51.4,313.4c0,0,113.4-65.9,44.7-123.5c0,0,52.4,55.8-31.9,107.8L51.4,313.4z"/>
	<path class="st1" d="M94.6,270.6c18.5-18,38.9-24.7-7.7-64.2c-23.9-20.2-13.5-43.3-1.8-56.5c13.4,2.5,13.5-7.3,26.8-4.4
		c-7.8,6.2-10.8,31.6,11.5,57.3c31.8,36.8,32,41.4,33.1,60.9c1,19.5-48.9,27.5-65.2,66.2c-16.3,38.7,32.1,79.6-9.4,59
		C-6.4,345.1,76.1,288.6,94.6,270.6z"/>
	<path class="st3" d="M88.9,392.5C9,335,83.1,292.3,101.7,274.3c18.5-18,38.9-24.7-7.7-64.2c-23.9-20.2-10.2-40.9-1.8-56.5
		c8.2-15.3,58.8-39,60.1-37.3c-13.3-2.9-61.4,13.3-66.5,29.6c-11.7,13.2-22.9,40.3,1,60.5c46.6,39.5,26.2,46.2,7.7,64.2
		c-18.5,18-92.6,60.7-12.8,118.3c17.8,12.8,27.3,18.9,31.6,20.2C107.9,405.9,100,400.5,88.9,392.5z"/>
	<path class="st4" d="M225.9,67.2c0.4,0.1,2.8,0.3,2.5,0.2c-17.3-10-56.6-26.7-75.9-7.2c-38,38.1-73.6,46-73.5,49
		c0.2,3,49.5-20.3,73.7-44C171.6,46.6,210.1,61.8,225.9,67.2z"/>
	<path class="st42" d="M60.1,143c-1,1.8,1,3.7,2.7,2.7c10.1-6,30.4-18.4,41.6-27.8c15.3-12.8,91.5-15.9,96.8-24.2
		c7.4-11.4,40.9-25.5,26.6-26.5c-14.2-1-5.9,4.4-22.4-6.8c-14.3-9.7-44.4-5.6-53.5,9.9C137.4,94.7,86.8,96.3,60.1,143z"/>
	<path class="st43" d="M109.7,63.9c-2.2,3.2,2,6.9,4.9,4.4c16.5-14.4,41.1-33.1,52.7-27.9c18,8.1,14,34.1,63,26.1
		c59.9-9.8,77.2,34,76.2,29.6c-3.9-16.8-13.4-45.6-26.8-50.6c-13.4-5-18.9,2-40.4-6.8C222.4,31.5,156-3.5,109.7,63.9z"/>
	<path class="st44" d="M71.3,157.7c1.8-4.1,6.4-3.1,3.6-7.2c-34.5,46.9,1.5,139.1,1.5,139.1s46.6-45.6,4-74.3
		C52.7,196.6,65.4,166.2,71.3,157.7z"/>
	<path class="st4" d="M184.3,307.9c0,0,1.9,40.9-35.3,56.9c-0.6,2-1.5,3.9-2.7,5.5C171,362.8,190.7,345.4,184.3,307.9z"/>
	<path class="st1" d="M312.7,209.8c6.7-6.2,18.5-21.2,12.5-34.3c0,0-29.2,39.2-37.5,33.6c0,0,0.1,2,0.3,6c0.1,2,0.5,9,0.5,9
		S306.9,215.1,312.7,209.8z"/>
	<path class="st4" d="M325.1,175.5c0,0-0.6,0.8-1.7,2.2c1.6,11.7-8.1,23.8-13.9,29.2c-4.3,4-15.9,10.1-21.3,12.9
		c0.1,2.2,0.2,4.3,0.2,4.3s18.5-9,24.3-14.3C319.4,203.6,331.2,188.6,325.1,175.5z"/>
	<path class="st4" d="M63.2,171.1c0,0-7,27.1,26.9,49s-10.6,58.6-10.6,58.6s34.3-40.2,9.5-54.9C60.9,207.1,54,181.2,63.2,171.1z"/>
	<path class="st45" d="M114.2,151.8c0,0-18.7,22.8,8.3,55s46.1,52.2,9.1,75.1s0.8-0.2,6.2-10.5s15-15.3-19.2-61.5
		C90.5,171.7,108.8,156.8,114.2,151.8z"/>
	<path class="st46" d="M108.4,202.4c-9.5-5.4-9.8-8.5-3,0c8.8,11,19.5,43.3,18,51c-4.2,22.2-50.6,40-65,57c-27,32-5,58,4.1,59.5
		c6.5,1.1-18-19.3,9.5-39.4c27.4-20.1,61.8-38.2,68.1-56.7C145,259.4,141.6,221.3,108.4,202.4z"/>
	<g>
		<path class="st1" d="M151.5,54c-10.1,1.7-18.8,10.1-23.9,16.3c-9.8,12.2-16.1,35.3-39.2,31.4c-0.1,0-0.1,0.1,0,0.2
			c20,3.8,28.5-13.8,36.1-25.6C129.9,68,139.2,57.2,151,55C151.2,54.7,151.4,54.3,151.5,54z"/>
		<path class="st1" d="M149.3,60.7c-0.5,0.1-1.1,0.3-1.6,0.5c-7.5,2.6-12.7,9-17.4,14.4c-5.6,6.6-10.7,13.6-17.2,19.5
			c-5.4,5-12.8,9.8-22.1,7.2c-0.1,0-0.1,0.1,0,0.1c7.3,2.2,13.5-0.2,18.5-3.7c7-4.9,12.1-11.6,17.3-17.9C132,74.6,137,68,144.1,63.6
			c1.6-1,3.3-1.8,5.1-2.3C149.3,61.1,149.3,60.9,149.3,60.7z"/>
		<path class="st1" d="M74.7,85.8c11.5,14,26.5,0.5,32.8-7.2c4.4-5.4,7.1-11.5,10-17.8c4-8.6,9.6-20.3,22.3-20.3
			c0.2,0,0.2-0.4,0-0.4c-9.9-0.9-15.6,6.7-19.4,13.2c-3.8,6.5-6.1,13.8-10.2,20.2c-5.8,9.1-21.5,26.9-35.3,12.1
			C74.7,85.6,74.6,85.7,74.7,85.8L74.7,85.8z"/>
		<path class="st1" d="M75.6,97.6c8,2.9,15.6,3,21.8-0.9c6.5-4.1,10.3-11,13.8-17.4c7.2-13.2,14.1-33.1,35.1-31.7
			c0.3,0,0.2-0.4,0-0.4c-18.5-2.5-26.5,14.4-32.6,26c-3.7,7.1-7.3,14.5-13.1,20.2c-6.2,6-14.9,7.3-24.7,3.8
			C75.4,97.1,75.3,97.5,75.6,97.6L75.6,97.6z"/>
	</g>
	<g>
		<path class="st1" d="M308.7,93.3c-13.2,1.6-20-12.1-25.9-21.6c-5.5-8.9-16.3-21.9-28.2-17.4c-0.2,0.1-0.3-0.2-0.1-0.3
			c9.9-5,20.5,5.8,25.9,13c7.4,9.9,13.1,27.7,28.3,26.1C308.8,93.2,308.8,93.3,308.7,93.3L308.7,93.3z"/>
		<path class="st1" d="M307,93.5c-4.7,1.3-9.1-0.9-12.7-3.9c-5-4.1-8.8-9.5-12.7-14.6C277.8,70,274,64.7,269,61
			c-2.1-1.5-4.4-2.7-7-2.8c-3-0.1-5.4,1.6-7.8,3.2c0,0-0.1,0-0.1-0.1c3.1-3.6,8-4.4,12.2-2.4c5.2,2.4,9.1,7.6,12.6,11.9
			c4.2,5.3,8.1,10.9,12.8,15.8C295.7,90.7,300.9,94.8,307,93.5C307,93.4,307,93.5,307,93.5L307,93.5z"/>
		<path class="st1" d="M321.1,83c-6.8,9.9-17.7-1.2-22.5-7.4c-3.3-4.3-5.5-9.2-7.9-14c-3.3-6.8-7.8-16-16.3-16.7
			c-0.2,0-0.2-0.3,0-0.3c6.6-0.1,10.9,6,13.9,11.1c3,5.2,5,10.8,8.2,15.9C301,78.9,312.7,93.3,321.1,83
			C321.1,82.9,321.1,82.9,321.1,83L321.1,83z"/>
		<path class="st1" d="M317.6,88.6c-5.2,1.8-10.3,1.3-14.7-2c-4.6-3.5-7.6-9-10.4-14C286.9,62.2,281,46.6,267,46.5
			c-0.2,0-0.2-0.3,0-0.3c12.2-0.8,18.7,12.5,23.5,21.7c2.9,5.6,5.8,11.4,10.1,16.1c4.5,4.9,10.5,6.4,16.8,4.4
			C317.7,88.2,317.8,88.5,317.6,88.6L317.6,88.6z"/>
		<path class="st1" d="M304.5,75c-2.9-2.1-5.7-4.5-8-7.2c-2.8-3.3-5.2-7-7.9-10.5c-4.8-6.4-10.5-12.5-19-12.9
			c-6.3-0.3-16.3,3.3-16.2,10.8c0,0.2,0.4,0.2,0.4,0c0.7-5.7,6.4-8.9,11.7-9.8c4.9-0.8,9.7,0.1,13.8,3c7.4,5.4,11.3,14,17.5,20.7
			c3,3.2,6.5,6.2,10.3,8.3C306.2,76.7,305.3,75.9,304.5,75z"/>
	</g>
	<g class="st47">
		<path class="st1" d="M302.9,81c-13.1,7.2-27.1-4.8-37.9-12.6c-10.2-7.3-28-16.9-38.3-7.1c-0.2,0.2-0.4-0.1-0.3-0.3
			c8-9.5,24.5-2.1,33.7,3.4c12.6,7.6,27.4,24.4,42.7,16.5C302.9,80.8,303,80.9,302.9,81L302.9,81z"/>
		<path class="st1" d="M301.2,81.9c-4.4,3.3-10,2.7-15.3,1c-7.3-2.4-14-6.6-20.6-10.5c-6.4-3.8-13-7.9-20.2-9.9
			c-2.9-0.8-6-1.1-8.8-0.2c-3.3,1.1-4.9,3.9-6.6,6.6c0,0.1-0.1,0-0.1,0c1.5-5.2,6.4-8,11.8-7.6c6.7,0.5,13.3,4.4,19.1,7.7
			c7,4,13.9,8.4,21.2,11.8C287.9,83.5,295.4,85.8,301.2,81.9C301.2,81.8,301.2,81.8,301.2,81.9L301.2,81.9z"/>
		<path class="st1" d="M310.9,64.9c-2.4,13.4-19.3,6-27.4,1.3c-5.6-3.3-10.3-7.6-15.2-11.9c-6.8-6-15.6-13.4-24.9-10.6
			c-0.2,0.1,0.1,0.4,0.3,0.3c6.9-2.8,13.6,0.8,19.2,5.1c5.7,4.3,10.6,9.6,16.4,13.7c8.2,5.9,27.7,16.6,31.4,2.1
			C310.8,64.7,311,64.8,310.9,64.9L310.9,64.9z"/>
		<path class="st1" d="M310,72.3c-4.6,4-10.2,5.6-16.5,3.8c-6.6-1.9-12.4-6.5-17.8-10.8c-11.1-8.9-24.9-23.1-39.8-17.6
			c-0.2,0.1-0.3-0.2-0.1-0.3c12.5-5.8,25.9,5.8,35.5,13.6c5.8,4.8,11.7,9.9,18.6,13.2c7.2,3.4,14.2,2.6,19.9-2.2
			C309.9,71.9,310.1,72.1,310,72.3L310,72.3z"/>
		<path class="st1" d="M312.2,49c6.2,3.3-0.4,11.7-3.7,13.9c-3.8,2.6-10,2.4-14.5,1.8c-5.2-0.7-10.6-2.5-15.5-4.8
			c-9.7-4.6-18.1-12.3-28.6-15.1c-5.7-1.5-11.3-0.5-16,2.4c-5.1,3.1-9.6,8.8-7.5,15.3c0.1,0.3-0.3,0.4-0.4,0.2
			c-3.8-8.1,5.1-16,11.8-18.3c9.1-3.1,18.2,1.2,26.4,6.1c4.5,2.7,8.8,5.6,13.4,8c5.3,2.8,11.4,4.7,17.3,5.5
			c5.4,0.8,11.8,0.2,15.5-3.6c2.3-2.4,6.2-8.4,1.7-11.1C311.8,49.2,312,48.9,312.2,49L312.2,49z"/>
	</g>
	<path class="st4" d="M227.4,67.4c0,0,38.2-24,58.6,0s20.4,29,20.4,29S283.4,22.4,227.4,67.4z"/>
	<path class="st4" d="M227.4,67.4c0,0-61.3-49.9-109.2-11.9S148.4,8.4,227.4,67.4z"/>
	<path class="st4" d="M225.9,67.2c0,0,18.5-31.4,47-24.6C301.4,49.4,249.4,32.1,225.9,67.2z"/>
</g>
</svg>
