<?xml version="1.0" encoding="utf-8"?>
<!-- Generator: Adobe Illustrator 16.0.0, SVG Export Plug-In . SVG Version: 6.00 Build 0)  -->
<!DOCTYPE svg PUBLIC "-//W3C//DTD SVG 1.1//EN" "http://www.w3.org/Graphics/SVG/1.1/DTD/svg11.dtd">
<svg version="1.1" id="Capa_1" xmlns="http://www.w3.org/2000/svg" xmlns:xlink="http://www.w3.org/1999/xlink" x="0px" y="0px"
	 width="404px" height="478px" viewBox="0 0 404 478" enable-background="new 0 0 404 478" xml:space="preserve">
<path fill="none" stroke="#000000" stroke-miterlimit="10" stroke-dasharray="6" d="M382.191,237.902
	c0,99.433-80.607,180.04-180.039,180.04c-99.436,0-180.043-80.607-180.043-180.04c0-99.434,80.607-180.044,180.043-180.044
	C301.584,57.858,382.191,138.469,382.191,237.902z"/>
<path fill="#6FC0B2" d="M359.691,237.902c0,87.007-70.533,157.541-157.539,157.541c-87.01,0-157.545-70.534-157.545-157.541
	c0-87.008,70.535-157.545,157.545-157.545C289.158,80.357,359.691,150.895,359.691,237.902z"/>
<g>
	<g>
		<path fill="none" stroke="#3F3832" stroke-width="2" stroke-miterlimit="10" d="M218.871,326.591
			c26.342-4.147,39.039-58.776,45.279-80.992c7.703-27.421,32.556-47.481,8.223-84.968c-35.984-55.435-145.378-39.381-141.51,29.798
			c0.945,16.758,10.447,33.207,12.573,49.288c2.662,20.135,6.004,39.451,17.737,56.945c20.288,30.211,34.688,32.573,63.482,28.156"
			/>
		<path fill="none" stroke="#3F3832" stroke-miterlimit="10" d="M199.584,325.24c1.357-3.427-0.076-10.427-0.248-14.294
			c-0.225-4.732-0.264-9.53-0.264-14.318c0-4.419-0.246-9.062,4.854-9.71c3.316-0.418,11.326-0.909,12.791,2.302
			c0.711,1.565,0.545,5.228,0.689,6.965c0.223,2.386,0.197,4.665,0.318,7.073c0.265,5.168,0.569,10.597,0.258,15.848
			c-0.078,1.251-0.098,4.569-0.826,5.566c-1.107,1.512-4.02,0.727-5.875,0.819c-2.032,0.098-11.49,2.286-11.697-0.506"/>
		<path fill="none" stroke="#3F3832" stroke-miterlimit="10" d="M200.863,286.411c-0.073-3.242-2.699-7.845-4.031-10.975
			c-1.6-3.769-3.499-7.468-5.406-11.143c-2.199-4.225-4.699-8.085-6.154-12.583c-0.879-2.744-1.488-5.84-2.764-8.413
			c5.346-1.949,10.383-1.041,15.918-1.392c2.438-0.153,4.098-1.194,6.853-0.642c2.142,0.43,4.153,0.802,6.313,1.206
			c2.022,0.365,4.496,1.663,6.334,1.47c1.858-0.199,4.166-1.197,6.182-1.47c1.359-0.197,5.964-0.989,6.85,0.508
			c0.502,0.84-1.195,5.104-1.534,6.393c-2.425,9.142-7.899,17.504-10.229,26.762c-0.55,2.168-1.163,4.4-2.038,6.443
			c-0.334,0.78-0.721,1.913-1.289,2.559c-1.22,1.373,0.132,0.688-1.721,0.815c-2.674,0.183-13.566-2.536-13.537,3.015"/>
		<path fill="none" stroke="#3F3832" stroke-miterlimit="10" d="M179.884,328.753c0,2.655,0.181,5.245,0.298,7.755
			c0.129,2.608,0.756,4.106,1.192,6.254c0.8,3.959-2.31,2.909-2.687,5.373c-0.289,1.875,2.473,3.335,2.348,5.907
			c-1.408,0.092-1.953,0.856-2.041,2.146c-0.153,2.156,1.252,1.158,1.863,2.598c1.547,3.634-2.188,2.418-2.468,5.143
			c-0.173,1.65,1.13,1.257,1.726,2.166c0.822,1.236,0.688,1.42,1.259,2.906c0.895,2.343,2.099,3.307,3.95,5.297
			c2.995,3.207,5.372,8.248,8.797,10.873c3.332,2.555,11.584,1.423,15.871,1.415c2.59,0,4.962,0.496,6.938-1.108
			c1.519-1.234,2.641-3.736,4.149-5.153c3.805-3.566,9.499-4.817,11.809-9.831c1.352-2.959-0.898-3.813-0.841-6.271
			c0.062-2.657,2.52-2.659,1.714-5.873c-0.273-1.036-1.524-1.642-1.411-2.747c0.235-2.219,1.746-0.774,2.339-2.396
			c0.973-2.673-3.367-3.449-1.678-5.97c0.863-1.284,2.58,0.123,3.23-1.476c0.738-1.843-1.478-2.276-2.189-3.215
			c-2.184-2.927-1.521-3.919,1.521-5.203c0.225-1.55-1.027-2.466-1.511-3.816c-0.538-1.505-0.486-2.785-0.55-4.425
			c-3.773,0.191-8.334-0.437-12.25-0.626c-5.109-0.256-10.303-0.151-15.461-0.312c-5.275-0.176-10.73-1.128-16.065-0.6
			c-2.116,0.211-3.621,0.94-5.603,1.563c-1.35,0.423-4.298,0.953-4.251,1.113"/>
		<path fill="none" stroke="#3F3832" stroke-miterlimit="10" d="M181.09,345.389c5.111,0.204,11.363,1.786,16.593,1.55
			c5.737-0.261,11.654-0.474,17.291-0.791c5.936-0.328,12.276-0.854,17.802-2.328"/>
		<path fill="none" stroke="#3F3832" stroke-miterlimit="10" d="M181.09,355.358c5.111,0.196,11.363,1.782,16.593,1.544
			c5.737-0.258,11.654-0.472,17.291-0.788c5.936-0.334,12.276-0.859,17.802-2.329"/>
		<path fill="none" stroke="#3F3832" stroke-miterlimit="10" d="M181.09,365.317c5.111,0.206,11.363,1.788,16.593,1.551
			c5.737-0.266,11.654-0.477,17.291-0.793c5.936-0.329,12.276-0.85,17.802-2.328"/>
		<path fill="none" stroke="#3F3832" stroke-miterlimit="10" d="M183.448,244.12c-4.563,1.186-15.277-13.087-18.819-17.157"/>
		<path fill="none" stroke="#3F3832" stroke-miterlimit="10" d="M204.477,241.354c3.597-4.752-2.199-15.309-2.66-20.673
			c-0.526-5.953,0.812-13.462-1.211-18.622"/>
		<path fill="none" stroke="#3F3832" stroke-miterlimit="10" d="M226.062,242.456c3.479-7.143,10.49-13.006,14.818-19.872
			c3.346-5.303,5.57-11.786,9.536-16.657"/>
		<path fill="none" stroke="#3F3832" stroke-miterlimit="10" d="M114.181,181.93c0.026,0.92-13.864-3.422-17.39-4.565
			c-5.826-1.882-13.976-3.296-19-6.654"/>
		<path fill="none" stroke="#3F3832" stroke-miterlimit="10" d="M129.753,153.357c-0.442-7.482-18.292-19.791-23.834-24.802
			c-4.297-3.885-18.312-13.265-18.782-19.488"/>
		<path fill="none" stroke="#3F3832" stroke-miterlimit="10" d="M165.978,129.77c-1.95-4.322-5.603-8.868-7.739-13.549
			c-6.527-14.304-9.977-29.737-16.336-44.133c-3.996-9.052-7.758-18.233-12.066-27.14c-1.139-2.353-3.248-8.236-4.191-7.5"/>
		<path fill="none" stroke="#3F3832" stroke-miterlimit="10" d="M195.624,109.926c0.083-5.221-0.249-10.401-0.552-15.584"/>
		<path fill="none" stroke="#3F3832" stroke-miterlimit="10" d="M224.402,119.033c2.219-1.061,1.475-1.393,2.832-3.808
			c5.012-8.888,8.439-20.26,10.951-30.038c5.65-22.004,8.006-45.529,17.17-66.542c0.48-0.248,0.493,0.2,0.047,1.308"/>
		<path fill="none" stroke="#3F3832" stroke-miterlimit="10" d="M248.898,120.748c3.908-13.105,12.419-26.616,18.27-34.971"/>
		<path fill="none" stroke="#3F3832" stroke-miterlimit="10" d="M267.574,146.154c2.219-1.956,3.826-5.159,5.553-7.819
			c7.021-10.808,15.127-20.738,22.77-31.115c10.125-13.747,19.998-27.648,30.963-40.763c3.637-4.357,9.934-9.271,11.559-14.93
			c-0.605-0.033-1.15,0.139-1.652,0.538"/>
		<path fill="none" stroke="#3F3832" stroke-miterlimit="10" d="M295.804,175.492c4.806-0.991,9.92-5.497,13.581-8.678
			c7.234-6.272,14.449-12.153,21.902-18.118c2.742-2.194,6.373-7.765,9.352-8.631"/>
		<path fill="none" stroke="#3F3832" stroke-miterlimit="10" d="M297.467,212.571c9.316-2.952,19.592-3.298,28.785-6.645"/>
	</g>
	<g>
		<path fill="#DDD86B" stroke="#3F3832" stroke-width="2" stroke-miterlimit="10" d="M209.896,321.83
			c26.341-4.151,39.041-58.778,45.28-80.996c7.703-27.422,32.567-47.479,8.229-84.968c-35.994-55.434-145.387-39.388-141.514,29.796
			c0.943,16.76,10.441,33.207,12.573,49.291c2.659,20.132,5.999,39.448,17.739,56.939c20.288,30.214,34.688,32.578,63.477,28.158"/>
		<path fill="none" stroke="#3F3832" stroke-miterlimit="10" d="M190.613,320.473c1.354-3.426-0.077-10.424-0.25-14.284
			c-0.226-4.741-0.262-9.535-0.262-14.327c0-4.42-0.248-9.062,4.85-9.707c3.32-0.421,11.322-0.915,12.791,2.299
			c0.713,1.566,0.544,5.225,0.691,6.971c0.221,2.376,0.193,4.666,0.315,7.067c0.263,5.174,0.573,10.596,0.259,15.847
			c-0.078,1.253-0.099,4.571-0.82,5.568c-1.109,1.512-4.021,0.732-5.882,0.817c-2.027,0.097-11.485,2.293-11.692-0.505"/>
		<path fill="none" stroke="#3F3832" stroke-miterlimit="10" d="M191.886,281.645c-0.071-3.238-2.694-7.846-4.026-10.975
			c-1.604-3.767-3.503-7.467-5.41-11.143c-2.195-4.222-4.692-8.084-6.148-12.583c-0.885-2.741-1.49-5.836-2.765-8.404
			c5.341-1.953,10.384-1.052,15.919-1.396c2.431-0.157,4.098-1.204,6.85-0.642c2.145,0.425,4.154,0.8,6.311,1.2
			c2.033,0.374,4.502,1.667,6.336,1.474c1.859-0.203,4.168-1.195,6.179-1.474c1.362-0.192,5.968-0.988,6.855,0.508
			c0.494,0.842-1.196,5.101-1.538,6.39c-2.425,9.148-7.898,17.508-10.227,26.762c-0.553,2.177-1.16,4.407-2.033,6.453
			c-0.336,0.777-0.723,1.914-1.293,2.55c-1.218,1.386,0.129,0.693-1.722,0.821c-2.673,0.185-13.563-2.536-13.538,3.012"/>
		<path fill="#50514F" stroke="#3F3832" stroke-miterlimit="10" d="M170.906,323.99c0,2.651,0.184,5.242,0.301,7.751
			c0.13,2.606,0.76,4.106,1.196,6.258c0.798,3.953-2.317,2.908-2.687,5.37c-0.285,1.875,2.469,3.334,2.342,5.906
			c-1.406,0.096-1.95,0.859-2.04,2.146c-0.149,2.154,1.251,1.156,1.873,2.599c1.538,3.636-2.194,2.418-2.478,5.143
			c-0.17,1.653,1.133,1.255,1.725,2.17c0.828,1.23,0.693,1.414,1.265,2.901c0.894,2.343,2.103,3.307,3.948,5.292
			c2.995,3.212,5.371,8.255,8.793,10.881c3.338,2.547,11.588,1.42,15.875,1.412c2.588,0,4.959,0.496,6.938-1.112
			c1.52-1.227,2.639-3.727,4.15-5.146c3.809-3.576,9.498-4.821,11.805-9.838c1.355-2.952-0.894-3.812-0.835-6.261
			c0.063-2.663,2.522-2.665,1.704-5.878c-0.266-1.039-1.521-1.645-1.408-2.754c0.237-2.213,1.75-0.772,2.348-2.384
			c0.967-2.682-3.373-3.446-1.68-5.973c0.857-1.282,2.58,0.12,3.227-1.477c0.746-1.846-1.475-2.278-2.184-3.217
			c-2.189-2.917-1.528-3.922,1.516-5.196c0.227-1.555-1.023-2.469-1.51-3.825c-0.539-1.504-0.484-2.786-0.549-4.425
			c-3.773,0.193-8.334-0.43-12.248-0.626c-5.117-0.255-10.303-0.142-15.461-0.31c-5.277-0.177-10.732-1.13-16.066-0.602
			c-2.121,0.213-3.625,0.947-5.604,1.569c-1.349,0.419-4.3,0.948-4.255,1.107"/>
		<path fill="none" stroke="#3F3832" stroke-miterlimit="10" d="M172.113,340.626c5.115,0.201,11.366,1.785,16.597,1.546
			c5.737-0.258,11.651-0.474,17.288-0.787c5.939-0.336,12.277-0.856,17.804-2.329"/>
		<path fill="none" stroke="#3F3832" stroke-miterlimit="10" d="M172.113,350.588c5.115,0.201,11.366,1.786,16.597,1.551
			c5.737-0.268,11.651-0.475,17.288-0.792c5.939-0.332,12.277-0.855,17.804-2.329"/>
		<path fill="none" stroke="#3F3832" stroke-miterlimit="10" d="M172.113,360.555c5.115,0.197,11.366,1.783,16.597,1.547
			c5.737-0.26,11.651-0.478,17.288-0.796c5.939-0.328,12.277-0.849,17.804-2.325"/>
		<path fill="none" stroke="#3F3832" stroke-miterlimit="10" d="M174.473,239.354c-4.563,1.19-15.272-13.087-18.82-17.155"/>
		<path fill="none" stroke="#3F3832" stroke-miterlimit="10" d="M195.506,236.593c3.598-4.755-2.201-15.305-2.668-20.681
			c-0.52-5.948,0.82-13.454-1.203-18.624"/>
		<path fill="none" stroke="#3F3832" stroke-miterlimit="10" d="M217.087,237.689c3.483-7.141,10.493-12.999,14.813-19.874
			c3.352-5.304,5.582-11.789,9.548-16.65"/>
		<path fill="none" stroke="#3F3832" stroke-miterlimit="10" d="M105.208,177.163c0.026,0.92-13.862-3.421-17.386-4.566
			c-5.832-1.882-13.98-3.293-19.008-6.654"/>
		<path fill="none" stroke="#3F3832" stroke-miterlimit="10" d="M120.779,148.585c-0.444-7.476-18.293-19.783-23.833-24.794
			c-4.297-3.885-18.314-13.264-18.782-19.487"/>
		<path fill="none" stroke="#3F3832" stroke-miterlimit="10" d="M157.005,125c-1.95-4.317-5.604-8.863-7.745-13.548
			c-6.521-14.3-9.975-29.735-16.328-44.128c-3.998-9.051-7.758-18.238-12.066-27.144c-1.143-2.354-3.25-8.234-4.193-7.494"/>
		<path fill="none" stroke="#3F3832" stroke-miterlimit="10" d="M186.65,105.158c0.084-5.218-0.245-10.403-0.551-15.579"/>
		<path fill="none" stroke="#3F3832" stroke-miterlimit="10" d="M215.434,114.268c2.211-1.057,1.473-1.394,2.832-3.81
			c5.009-8.884,8.434-20.258,10.947-30.032c5.648-22.008,8.003-45.525,17.166-66.547c0.482-0.246,0.497,0.2,0.052,1.308"/>
		<path fill="none" stroke="#3F3832" stroke-miterlimit="10" d="M239.92,115.98c3.908-13.104,12.422-26.613,18.277-34.969"/>
		<path fill="none" stroke="#3F3832" stroke-miterlimit="10" d="M258.604,141.386c2.221-1.955,3.822-5.158,5.551-7.815
			c7.02-10.805,15.127-20.741,22.767-31.109c10.129-13.754,19.999-27.654,30.964-40.771c3.641-4.353,9.929-9.265,11.557-14.922
			c-0.595-0.044-1.151,0.137-1.648,0.529"/>
		<path fill="none" stroke="#3F3832" stroke-miterlimit="10" d="M286.83,170.723c4.805-0.984,9.922-5.498,13.578-8.668
			c7.234-6.277,14.449-12.157,21.901-18.124c2.742-2.194,6.379-7.764,9.354-8.629"/>
		<path fill="none" stroke="#3F3832" stroke-miterlimit="10" d="M288.491,207.811c9.316-2.953,19.591-3.299,28.785-6.646"/>
	</g>
</g>
<path fill="none" stroke="#000000" stroke-miterlimit="10" stroke-dasharray="6" d="M202.951,425.575
	c0,23.317-0.109,19.372-0.098,42.425"/>
<g>
</g>
<g>
</g>
<g>
</g>
<g>
</g>
<g>
</g>
<g>
</g>
<g>
</g>
<g>
</g>
<g>
</g>
<g>
</g>
<g>
</g>
<g>
</g>
<g>
</g>
<g>
</g>
<g>
</g>
</svg>
