<?xml version="1.0" encoding="utf-8"?>
<!-- Generator: Adobe Illustrator 16.0.0, SVG Export Plug-In . SVG Version: 6.00 Build 0)  -->
<!DOCTYPE svg PUBLIC "-//W3C//DTD SVG 1.1//EN" "http://www.w3.org/Graphics/SVG/1.1/DTD/svg11.dtd">
<svg version="1.1" id="Capa_1" xmlns="http://www.w3.org/2000/svg" xmlns:xlink="http://www.w3.org/1999/xlink" x="0px" y="0px"
	 width="399.12px" height="433.06px" viewBox="0 0 399.12 433.06" style="enable-background:new 0 0 399.12 433.06;"
	 xml:space="preserve">
<style type="text/css">
<![CDATA[
	.st0{fill:#E0D963;}
	.st1{fill:#FFFFFF;stroke:#3F352E;stroke-miterlimit:10;}
	.st2{fill:none;stroke:#000000;stroke-miterlimit:10;stroke-dasharray:6;}
	.st3{fill:#1EC1B3;stroke:#3F352E;stroke-miterlimit:10;}
	.st4{fill:#CCCCCC;}
	.st5{fill:none;stroke:#3F352E;stroke-miterlimit:10;}
	.st6{fill:#B3B3B3;stroke:#3F352E;stroke-miterlimit:10;}
	.st7{fill:#4F504E;stroke:#3F352E;stroke-miterlimit:10;}
]]>
</style>
<path class="st2" d="M372.191,189.902c0,99.433-80.607,180.04-180.039,180.04c-99.436,0-180.043-80.607-180.043-180.04
	c0-99.434,80.607-180.044,180.043-180.044C291.584,9.858,372.191,90.469,372.191,189.902z"/>
<path class="st0" d="M349.691,189.902c0,87.007-70.533,157.541-157.539,157.541c-87.01,0-157.544-70.534-157.544-157.541
	c0-87.008,70.534-157.545,157.544-157.545C279.158,32.357,349.691,102.895,349.691,189.902z"/>
<g>
	<path class="st6" d="M236.658,194.667c3.947-4.52,21.379-21.856,23.592-27.47c2.447-6.191-4.742-13.27-8.18-18.372
		c-3.771-5.599-9.088-10.934-14.697-14.401c-2.568-1.586-5.568-2.43-7.037,0.855c-6.455-1.427-13.211-10.311-17.381-15.165
		c-4.938-5.745-10.047-12.782-13.994-19.478c-1.676-2.847-2.777-7.83-6.029-9.035c-1.426-0.533-3.496,0.382-5,0.035
		c-1.609-0.369-2.803-1.546-4.188-2.357c-8.727-5.123-4.408,5.211-1.635,9.386c3.6,5.418,7.895,9.547,11.959,14.627
		c4.977,6.221-0.012,12.019-7.045,7.454c-7.885-5.114-16.609-32.059-29.018-19.006c-2.053,2.161-2.82,5.05-5.299,6.936
		c-1.727,1.314-5.6,2.121-6.775,4.276c-1.684,3.09,0.971,6.485,2.053,9.407c1.207,3.268,1.662,6.025,1.473,9.645
		c-4.525,5.134-11.783-13.877-26.596-6.169c-2.164,1.128-4.75,6.202-3.275,8.742c0.828,1.427,5.756,3.146,7.461,4.545
		c4.348,3.556,11.109,10.035,11.041,16.238c-0.039,3.621-2.035,5.597-5.807,4.185c-3.158-1.183-5.047-5.788-7.266-8.178
		c-4.59-4.956-10.164-9.92-17.564-9.488c-8.643,0.504-3.316,10.232-1.347,15.524c2.439,6.561,5.195,12.117,10.423,17.045
		c1.865,1.756,5.697,3.541,6.445,6.222c1.008,3.619-2.766,6.178-6.125,6.15c-7.445-0.065-13.033-12.588-15.639-18.365
		c-3.013-6.68-4.701-16.007-14.522-14.248c-2.235,3.956,5.84,9.639,7.712,12.912c2.543,4.451,4.804,10.649,4.005,15.961
		c-0.49,0.035-1.025,0.112-1.512,0.123c0.074,2.68,4.561,5.08,6.394,6.993c2.283,2.385,4.092,5.219,6.2,7.632
		c4.594,5.26,10.863,8.207,15.84,13.194c4.768,4.774,5.834,10.098,7.037,16.239c1.1,5.617,7.111,13.008,10.529,17.68
		c3.482,4.759,9.168,8.473,14.379,10.101c6.98,2.179,10.588-2.921,15.865-7.055c10.596-8.308,21.246-15.808,31.146-24.911
		c5.652-5.193,11.49-9.189,17.039-14.707c4.758-4.734,10.508-9.773,15.635-13.789"/>
	<path class="st4" d="M229.662,135.928c0,0,0.918,3.215-0.459,5.051c-1.379,1.837-5.512,7.35-6.891,8.5
		c-1.379,1.147-13.09,16.304-15.615,17.681c-2.527,1.381-30.549,23.197-32.613,25.034c-2.068,1.839-18.832,16.535-20.672,19.292
		c-1.836,2.755-2.066,5.512-5.971,7.578c-3.902,2.066-8.955,4.593-10.793,4.825c-1.838,0.228-3.193-1.156-2.4,2.406
		c0.793,3.563,3.777,10.913,6.764,13.669c2.986,2.754,5.744,7.119,8.496,9.416c2.758,2.298,6.662,4.823,10.564,4.365
		c3.906-0.462,9.418-4.365,12.404-6.202c2.984-1.838,16.992-13.321,20.439-15.158c3.445-1.838,19.291-18.832,23.426-21.128
		c4.135-2.299,15.615-14.011,19.977-17.457c4.367-3.443,10.107-10.562,14.242-14.008c4.133-3.445,5.053-6.432,6.891-11.023
		c1.84-4.595,0.457-6.662-1.146-10.564c-1.611-3.905-6.203-7.809-9.65-12.402c-3.443-4.591-6.887-7.578-9.414-9.188
		C234.715,135.009,231.729,135.009,229.662,135.928z"/>
	<path class="st7" d="M233.758,197.27c-0.672,4.614,2.973,15.552,5.729,20.179c3.635,6.102,9.154,11.48,13.801,16.758
		c9.199,10.453,20.18,18.126,30.344,27.272c10.133,9.118,19.715,17.914,26.961,29.422c3.484,5.534,8.932,10.137,11.838,16.019
		c2.848,5.764,5.576,11.342,8.078,17.21c3.469,8.134,10.324,32.452-7.266,24.786c-6.01-2.618-11.832-6.627-17.633-10.235
		c-5.568-3.465-11.342-6.063-16.361-10.51c-9.75-8.634-20.059-16.811-29.416-26.136c-5.631-5.61-7.785-12.854-12.244-19.211
		c-4.168-5.942-8.037-12.032-12.654-17.567c-4.102-4.916-8.896-9.499-12.699-14.676c-3.926-5.348-13.473-16.304-15.041-16.569
		c-4.52-1.566-6.205-1.897-10.266-3.52c6.186-5.2,14.896-8.029,20.914-14.27c4.5-4.663,15.635-17.48,15.621-16.94"/>
	<path class="st3" d="M78.156,220.283c-8.4-8.046-3.33,14.224-5.207,20.235c-2.06,6.604-4.531,13.363-4.142,20.472
		c0.128,2.331,3.286,10.767,7.1,10.175c3.009-0.463,4.652-10.569,4.986-12.854c1.04-7.068,2.934-15.088,0.515-22.059
		C79.938,232.022,80.95,223.53,78.156,220.283"/>
	<path class="st3" d="M76.4,161.488c-4.278,1.129-0.12,15.087,1.307,22.029c0.904,4.404,6.949,17.254,1.057,20.375
		c-11.883,6.293-14.217-31.128-14.217-36.065c0-7.47,0.057,0.104-0.629-6.943c-0.758-7.775,7.697-22.792,12.586-27.062
		c9.038-7.897,17.418-16.887,26.871-24.228c5.782-4.488,9.948-10.582,15.596-15.005c5.891-4.608,12.805-8.825,19.027-12.854
		c4.971-3.221,9.494-7.517,15.227-9.714c5.553-2.126,11.068-6.413,17.148-4.823c5.875,1.54,13.166,5.494,17.555,9.827
		c3.049,3.012,9.357,13.343,0.822,12.97c-2.922-0.127-5.174-4.269-7.447-4.401c-3.398-0.192-3.826,4.147-3.586,6.854
		c0.408,4.562,5.385,9.838,8.969,13.163c3.477,3.23,11.387,9.791,5.637,14.926c-5.697,5.089-10.939-6.478-13.275-9.804
		c-2.785-3.966-9.656-13.99-15.637-12.983c-4.365,0.732-8.119,8.642-12.154,10.733c-3.012,1.557-6.125,1.294-5.721,5.527
		c0.262,2.748,2.9,5.846,3.684,8.578c0.432,1.491,1.896,7.962,0.639,9.406c-3.004,3.448-5.244-3.434-7.273-4.749
		c-4.826-3.131-15.461-4.33-20.346-0.789c-6.42,4.656-0.859,10.118,3.166,14.3c4.662,4.842,11.148,6.9,10.643,15.015
		c-0.658,10.593-12.256-4.975-14.604-7.374c-4.244-4.334-11.6-11.167-16.866-5.394c-4.689,5.138,2.224,12.291,5.036,17.578
		c2.986,5.601,5.055,10.588,8.787,16.022c1.246,1.818,4.285,6.559,2.426,8.479c-1.689,1.742-6.984,0.278-8.873-0.317
		c-7.015-2.208-7.691-11.011-11.358-17.169c-1.829-3.072-3.612-6.521-6.209-8.958c-1.495-1.398-6.796-6.16-8.996-5.348
		c-4.066,1.497-0.232,4.431,1.227,5.43c2.976,2.046,4.15,2.725,6.227,6.046c2.101,3.364,7.014,11.413,5.21,15.515
		c-2.595,5.895-12.314-2.901-14.001-6.444C82.801,171.213,79.397,160.826,76.4,161.488"/>
	<path class="st5" d="M180.168,195.805c-0.717,2.633-13.316,14.608-16.658,17.984c-5.857,5.921-13.021,11.095-19.229,16.844
		c1.773,2.481,12.738,15.409,13.418,16.65"/>
	<path class="st5" d="M168.729,245.238c-1.016-4.758,20.195-14.996,24.197-17.977c9.393-6.994,20.455-15.022,28.117-23.806
		c4.115-4.717,7.785-9.66,12.541-13.88c5.283-4.682,11.316-7.812,15.74-13.29c1.689-2.094,2.811-5.017,4.789-6.627"/>
	<path class="st5" d="M236.955,141.472c2.574,8.032,10.09,13.931,16.342,18.791"/>
	<path class="st1" d="M232.102,211.113c-4.023,1.598,1.488,8.712,3.471,12.25c2.32,4.142,4.758,8.977,7.258,12.936
		c2.641,4.184,6.037,6.966,9.15,10.729c3.357,4.062,6.537,7.787,10.1,11.676c5.049,5.513,10.268,12.59,15.459,17.67
		c7.705,7.54,15.455,15.477,22.719,23.668c5.561,6.267,10.766,14.367,14.201,22.087c3.725,8.366,1.893,13.884,9.781,19.248
		c5.742-2.078,4.65-7.007,4.227-11.98c-0.57-6.675-5.324-14.108-9.418-19.55c-9.982-13.267-21.291-25.295-33.877-36.305
		c-5.895-5.158-11.082-10.186-15.842-16.434c-4.338-5.694-10.477-9.79-15.229-15.136
		C245.369,232.147,232.281,209.635,232.102,211.113"/>
	<path class="st5" d="M132.631,225.219c8.676,0.18,12.055-3.325,17.613-9.806c5.48-6.383,11.977-12.343,18.076-17.974
		c12.48-11.52,27.068-20.786,39.539-32.684c4.566-4.357,9.4-8.725,13.244-13.777c2.367-3.109,8.373-4.886,7.691-8.702
		c-0.48-2.691,4.16-9.223,4.568-8.846"/>
	<path class="st5" d="M121.58,162.065c1.631,0.548,8.684,10.482,9.682,11.87c4.576,6.351,9.832,11.492,15.678,16.646
		c2.326,2.05,9.66,11.763,11.799,13.61"/>
	<path class="st5" d="M104.542,182.655c4.712,6.631,12.208,11.729,18.218,17.276c4.514,4.168,9.27,8.168,13.449,12.613
		c1.082,1.149,6.264,6.888,6.908,8.212"/>
	<path class="st5" d="M132.941,131.773c2.33,1.855,3.385,5.251,4.943,7.729c4.08,6.482,10.627,11.821,16.082,17.139
		c7.451,7.261,19.736,20.668,26.543,28.381"/>
	<path class="st5" d="M152.818,110.001c7.625,11.22,17.998,25.807,26.943,36.065c23.678,27.144,23.955,34.33,10.934,13.579"/>
	<path class="st5" d="M168.676,110.238c6.258,8.505,13.182,16.297,20.086,24.295c4.035,4.673,7.34,9.927,11.17,14.769
		c11.371,14.382,8.178,18.736,3.061,4.245"/>
	<path class="st5" d="M194.709,106.689c3.188,2.496,5.549,6.691,7.982,9.881c3.939,5.165,7.729,9.974,12.115,14.758
		c1.977,2.158,9.82,11.921,11.613,14.094"/>
</g>
<path class="st2" d="M193.951,379.575c0,23.317-0.109,19.372-0.098,42.425"/>
<g>
</g>
<g>
</g>
<g>
</g>
<g>
</g>
<g>
</g>
<g>
</g>
</svg>
