<svg xmlns="http://www.w3.org/2000/svg" width="404" height="478" viewBox="0 0 404 478"><path fill="none" stroke="#000" stroke-miterlimit="10" stroke-dasharray="6" d="M382.191 237.902c0 99.433-80.607 180.04-180.039 180.04-99.436 0-180.043-80.607-180.043-180.04 0-99.434 80.607-180.044 180.043-180.044 99.432 0 180.039 80.611 180.039 180.044z"/><path fill="#6FC0B2" d="M359.691 237.902c0 87.007-70.533 157.541-157.539 157.541-87.01 0-157.545-70.534-157.545-157.541 0-87.008 70.535-157.545 157.545-157.545 87.006 0 157.539 70.538 157.539 157.545z"/><g stroke="#3F3832" stroke-miterlimit="10"><g fill="none"><path stroke-width="2" d="M218.871 326.591c26.342-4.147 39.039-58.776 45.279-80.992 7.703-27.421 32.556-47.481 8.223-84.968-35.984-55.435-145.378-39.381-141.51 29.798.945 16.758 10.447 33.207 12.573 49.288 2.662 20.135 6.004 39.451 17.737 56.945 20.288 30.211 34.688 32.573 63.482 28.156"/><path d="M199.584 325.24c1.357-3.427-.076-10.427-.248-14.294-.225-4.732-.264-9.53-.264-14.318 0-4.419-.246-9.062 4.854-9.71 3.316-.418 11.326-.909 12.791 2.302.711 1.565.545 5.228.689 6.965.223 2.386.197 4.665.318 7.073.265 5.168.569 10.597.258 15.848-.078 1.251-.098 4.569-.826 5.566-1.107 1.512-4.02.727-5.875.819-2.032.098-11.49 2.286-11.697-.506"/><path d="M200.863 286.411c-.073-3.242-2.699-7.845-4.031-10.975-1.6-3.769-3.499-7.468-5.406-11.143-2.199-4.225-4.699-8.085-6.154-12.583-.879-2.744-1.488-5.84-2.764-8.413 5.346-1.949 10.383-1.041 15.918-1.392 2.438-.153 4.098-1.194 6.853-.642 2.142.43 4.153.802 6.313 1.206 2.022.365 4.496 1.663 6.334 1.47 1.858-.199 4.166-1.197 6.182-1.47 1.359-.197 5.964-.989 6.85.508.502.84-1.195 5.104-1.534 6.393-2.425 9.142-7.899 17.504-10.229 26.762-.55 2.168-1.163 4.4-2.038 6.443-.334.78-.721 1.913-1.289 2.559-1.22 1.373.132.688-1.721.815-2.674.183-13.566-2.536-13.537 3.015M179.884 328.753c0 2.655.181 5.245.298 7.755.129 2.608.756 4.106 1.192 6.254.8 3.959-2.31 2.909-2.687 5.373-.289 1.875 2.473 3.335 2.348 5.907-1.408.092-1.953.856-2.041 2.146-.153 2.156 1.252 1.158 1.863 2.598 1.547 3.634-2.188 2.418-2.468 5.143-.173 1.65 1.13 1.257 1.726 2.166.822 1.236.688 1.42 1.259 2.906.895 2.343 2.099 3.307 3.95 5.297 2.995 3.207 5.372 8.248 8.797 10.873 3.332 2.555 11.584 1.423 15.871 1.415 2.59 0 4.962.496 6.938-1.108 1.519-1.234 2.641-3.736 4.149-5.153 3.805-3.566 9.499-4.817 11.809-9.831 1.352-2.959-.898-3.813-.841-6.271.062-2.657 2.52-2.659 1.714-5.873-.273-1.036-1.524-1.642-1.411-2.747.235-2.219 1.746-.774 2.339-2.396.973-2.673-3.367-3.449-1.678-5.97.863-1.284 2.58.123 3.23-1.476.738-1.843-1.478-2.276-2.189-3.215-2.184-2.927-1.521-3.919 1.521-5.203.225-1.55-1.027-2.466-1.511-3.816-.538-1.505-.486-2.785-.55-4.425-3.773.191-8.334-.437-12.25-.626-5.109-.256-10.303-.151-15.461-.312-5.275-.176-10.73-1.128-16.065-.6-2.116.211-3.621.94-5.603 1.563-1.35.423-4.298.953-4.251 1.113"/><path d="M181.09 345.389c5.111.204 11.363 1.786 16.593 1.55 5.737-.261 11.654-.474 17.291-.791 5.936-.328 12.276-.854 17.802-2.328M181.09 355.358c5.111.196 11.363 1.782 16.593 1.544 5.737-.258 11.654-.472 17.291-.788 5.936-.334 12.276-.859 17.802-2.329M181.09 365.317c5.111.206 11.363 1.788 16.593 1.551 5.737-.266 11.654-.477 17.291-.793 5.936-.329 12.276-.85 17.802-2.328M183.448 244.12c-4.563 1.186-15.277-13.087-18.819-17.157M204.477 241.354c3.597-4.752-2.199-15.309-2.66-20.673-.526-5.953.812-13.462-1.211-18.622M226.062 242.456c3.479-7.143 10.49-13.006 14.818-19.872 3.346-5.303 5.57-11.786 9.536-16.657M114.181 181.93c.026.92-13.864-3.422-17.39-4.565-5.826-1.882-13.976-3.296-19-6.654M129.753 153.357c-.442-7.482-18.292-19.791-23.834-24.802-4.297-3.885-18.312-13.265-18.782-19.488M165.978 129.77c-1.95-4.322-5.603-8.868-7.739-13.549-6.527-14.304-9.977-29.737-16.336-44.133-3.996-9.052-7.758-18.233-12.066-27.14-1.139-2.353-3.248-8.236-4.191-7.5M195.624 109.926c.083-5.221-.249-10.401-.552-15.584M224.402 119.033c2.219-1.061 1.475-1.393 2.832-3.808 5.012-8.888 8.439-20.26 10.951-30.038 5.65-22.004 8.006-45.529 17.17-66.542.48-.248.493.2.047 1.308M248.898 120.748c3.908-13.105 12.419-26.616 18.27-34.971M267.574 146.154c2.219-1.956 3.826-5.159 5.553-7.819 7.021-10.808 15.127-20.738 22.77-31.115 10.125-13.747 19.998-27.648 30.963-40.763 3.637-4.357 9.934-9.271 11.559-14.93a2.356 2.356 0 0 0-1.652.538M295.804 175.492c4.806-.991 9.92-5.497 13.581-8.678 7.234-6.272 14.449-12.153 21.902-18.118 2.742-2.194 6.373-7.765 9.352-8.631M297.467 212.571c9.316-2.952 19.592-3.298 28.785-6.645"/></g><path fill="#DDD86B" stroke-width="2" d="M209.896 321.83c26.341-4.151 39.041-58.778 45.28-80.996 7.703-27.422 32.567-47.479 8.229-84.968-35.994-55.434-145.387-39.388-141.514 29.796.943 16.76 10.441 33.207 12.573 49.291 2.659 20.132 5.999 39.448 17.739 56.939 20.288 30.214 34.688 32.578 63.477 28.158"/><path fill="none" d="M190.613 320.473c1.354-3.426-.077-10.424-.25-14.284-.226-4.741-.262-9.535-.262-14.327 0-4.42-.248-9.062 4.85-9.707 3.32-.421 11.322-.915 12.791 2.299.713 1.566.544 5.225.691 6.971.221 2.376.193 4.666.315 7.067.263 5.174.573 10.596.259 15.847-.078 1.253-.099 4.571-.82 5.568-1.109 1.512-4.021.732-5.882.817-2.027.097-11.485 2.293-11.692-.505"/><path fill="none" d="M191.886 281.645c-.071-3.238-2.694-7.846-4.026-10.975-1.604-3.767-3.503-7.467-5.41-11.143-2.195-4.222-4.692-8.084-6.148-12.583-.885-2.741-1.49-5.836-2.765-8.404 5.341-1.953 10.384-1.052 15.919-1.396 2.431-.157 4.098-1.204 6.85-.642 2.145.425 4.154.8 6.311 1.2 2.033.374 4.502 1.667 6.336 1.474 1.859-.203 4.168-1.195 6.179-1.474 1.362-.192 5.968-.988 6.855.508.494.842-1.196 5.101-1.538 6.39-2.425 9.148-7.898 17.508-10.227 26.762-.553 2.177-1.16 4.407-2.033 6.453-.336.777-.723 1.914-1.293 2.55-1.218 1.386.129.693-1.722.821-2.673.185-13.563-2.536-13.538 3.012"/><path fill="#50514F" d="M170.906 323.99c0 2.651.184 5.242.301 7.751.13 2.606.76 4.106 1.196 6.258.798 3.953-2.317 2.908-2.687 5.37-.285 1.875 2.469 3.334 2.342 5.906-1.406.096-1.95.859-2.04 2.146-.149 2.154 1.251 1.156 1.873 2.599 1.538 3.636-2.194 2.418-2.478 5.143-.17 1.653 1.133 1.255 1.725 2.17.828 1.23.693 1.414 1.265 2.901.894 2.343 2.103 3.307 3.948 5.292 2.995 3.212 5.371 8.255 8.793 10.881 3.338 2.547 11.588 1.42 15.875 1.412 2.588 0 4.959.496 6.938-1.112 1.52-1.227 2.639-3.727 4.15-5.146 3.809-3.576 9.498-4.821 11.805-9.838 1.355-2.952-.894-3.812-.835-6.261.063-2.663 2.522-2.665 1.704-5.878-.266-1.039-1.521-1.645-1.408-2.754.237-2.213 1.75-.772 2.348-2.384.967-2.682-3.373-3.446-1.68-5.973.857-1.282 2.58.12 3.227-1.477.746-1.846-1.475-2.278-2.184-3.217-2.189-2.917-1.528-3.922 1.516-5.196.227-1.555-1.023-2.469-1.51-3.825-.539-1.504-.484-2.786-.549-4.425-3.773.193-8.334-.43-12.248-.626-5.117-.255-10.303-.142-15.461-.31-5.277-.177-10.732-1.13-16.066-.602-2.121.213-3.625.947-5.604 1.569-1.349.419-4.3.948-4.255 1.107"/><path fill="none" d="M172.113 340.626c5.115.201 11.366 1.785 16.597 1.546 5.737-.258 11.651-.474 17.288-.787 5.939-.336 12.277-.856 17.804-2.329M172.113 350.588c5.115.201 11.366 1.786 16.597 1.551 5.737-.268 11.651-.475 17.288-.792 5.939-.332 12.277-.855 17.804-2.329M172.113 360.555c5.115.197 11.366 1.783 16.597 1.547 5.737-.26 11.651-.478 17.288-.796 5.939-.328 12.277-.849 17.804-2.325M174.473 239.354c-4.563 1.19-15.272-13.087-18.82-17.155M195.506 236.593c3.598-4.755-2.201-15.305-2.668-20.681-.52-5.948.82-13.454-1.203-18.624M217.087 237.689c3.483-7.141 10.493-12.999 14.813-19.874 3.352-5.304 5.582-11.789 9.548-16.65M105.208 177.163c.026.92-13.862-3.421-17.386-4.566-5.832-1.882-13.98-3.293-19.008-6.654M120.779 148.585c-.444-7.476-18.293-19.783-23.833-24.794-4.297-3.885-18.314-13.264-18.782-19.487M157.005 125c-1.95-4.317-5.604-8.863-7.745-13.548-6.521-14.3-9.975-29.735-16.328-44.128-3.998-9.051-7.758-18.238-12.066-27.144-1.143-2.354-3.25-8.234-4.193-7.494M186.65 105.158c.084-5.218-.245-10.403-.551-15.579M215.434 114.268c2.211-1.057 1.473-1.394 2.832-3.81 5.009-8.884 8.434-20.258 10.947-30.032 5.648-22.008 8.003-45.525 17.166-66.547.482-.246.497.2.052 1.308M239.92 115.98c3.908-13.104 12.422-26.613 18.277-34.969M258.604 141.386c2.221-1.955 3.822-5.158 5.551-7.815 7.02-10.805 15.127-20.741 22.767-31.109 10.129-13.754 19.999-27.654 30.964-40.771 3.641-4.353 9.929-9.265 11.557-14.922-.595-.044-1.151.137-1.648.529M286.83 170.723c4.805-.984 9.922-5.498 13.578-8.668 7.234-6.277 14.449-12.157 21.901-18.124 2.742-2.194 6.379-7.764 9.354-8.629M288.491 207.811c9.316-2.953 19.591-3.299 28.785-6.646"/></g><path fill="none" stroke="#000" stroke-miterlimit="10" stroke-dasharray="6" d="M202.951 425.575c0 23.317-.109 19.372-.098 42.425"/></svg>