<svg xmlns="http://www.w3.org/2000/svg" width="658" height="412" viewBox="0 0 658 412"><path fill="none" stroke="#50514F" stroke-miterlimit="10" d="M28.777 83.076c1.344 9.088-1.438 19.742-1.924 28.924-.561 10.601 0 21.387 0 32M631.217 84.076c-1.344 9.088 1.438 19.742 1.924 28.924.561 10.601 0 21.387 0 32M510.953 146.117c20.523-1.598 41.021-4.169 61.639-4.076 10.26.046 20.312 1.135 30.471 2.453 9.541 1.238 20.938 4.233 30.078.506M26.853 144c27-1 53 1 80 3 18 2 36 3 53.879 2.068"/><path fill="none" stroke="#000" stroke-miterlimit="10" stroke-dasharray="6" d="M514.191 202.902c0 99.433-80.607 180.04-180.039 180.04-99.436 0-180.043-80.607-180.043-180.04 0-99.434 80.607-180.044 180.043-180.044 99.432 0 180.039 80.611 180.039 180.044z"/><path fill="#DDD86B" d="M491.691 202.902c0 87.007-70.533 157.541-157.539 157.541-87.01 0-157.544-70.534-157.544-157.541 0-87.008 70.534-157.545 157.544-157.545 87.006 0 157.539 70.538 157.539 157.545z"/><g stroke="#3F3832" stroke-miterlimit="10"><path fill="none" d="M305.875 189.136c-40.289-21.063-93.474-.484-95.939 52.077-1.552 32.938 21.915 44.291 49.778 51.441 14.404 3.698 75.478 30.711 83.572 31.684 19.918 2.411 62.432-50.07 78.164-65.98 25.193-25.482 52.133-56.296 51.697-94.37-.469-41.912-43.738-87.514-88.564-75.853-41.371 10.763-80.004 61.727-78.708 103.739"/><path fill="#DF5F5C" d="M295.759 189.136c-40.287-21.063-93.47-.484-95.943 52.077-1.545 32.938 21.915 44.291 49.78 51.441 14.403 3.698 75.484 30.711 83.574 31.684 19.92 2.411 62.434-50.07 78.156-65.98 25.195-25.482 52.135-56.296 51.707-94.37-.473-41.912-43.74-87.514-88.564-75.853-41.373 10.763-80.006 61.727-78.709 103.739"/><path fill="none" d="M292.5 187.078c-40.29-21.063-93.474-.485-95.94 52.077-1.551 32.938 21.915 44.291 49.779 51.44 14.404 3.699 75.479 30.712 83.571 31.685 19.918 2.411 62.432-50.07 78.164-65.981 25.193-25.48 52.133-56.295 51.697-94.369-.469-41.912-43.738-87.513-88.564-75.853-41.371 10.762-80.004 61.727-78.707 103.739"/></g></svg>