<svg id="Capa_1" xmlns="http://www.w3.org/2000/svg" width="391.621" height="448.478" viewBox="0 0 391.621 448.478"><style>.st0{fill:#e0d963}.st1,.st2,.st3{stroke-miterlimit:10}.st1{stroke:#3f352e;fill:#ff5f5c}.st2,.st3{fill:none}.st2{stroke-dasharray:6;stroke:#000}.st3{stroke:#3f352e}</style><path class="st2" d="M376.191 209.902c0 99.433-80.607 180.04-180.039 180.04-99.436 0-180.043-80.607-180.043-180.04 0-99.434 80.607-180.044 180.043-180.044 99.432 0 180.039 80.611 180.039 180.044z"/><path class="st0" d="M353.691 209.902c0 87.007-70.533 157.541-157.539 157.541-87.01 0-157.544-70.534-157.544-157.541 0-87.008 70.534-157.545 157.544-157.545 87.006 0 157.539 70.538 157.539 157.545z"/><path class="st3" d="M167.875 196.136c-40.289-21.063-93.474-.484-95.94 52.077-1.552 32.938 21.915 44.291 49.778 51.441 14.404 3.698 75.479 30.711 83.572 31.684 19.918 2.411 62.432-50.07 78.164-65.98 25.193-25.482 52.133-56.296 51.697-94.37-.469-41.912-43.738-87.514-88.564-75.853-41.371 10.763-80.004 61.727-78.707 103.739"/><path class="st1" d="M157.76 196.136c-40.287-21.063-93.47-.484-95.944 52.077-1.545 32.938 21.915 44.291 49.78 51.441 14.404 3.698 75.484 30.711 83.574 31.684 19.92 2.411 62.434-50.07 78.156-65.98 25.195-25.482 52.135-56.296 51.707-94.37-.473-41.912-43.74-87.514-88.564-75.853-41.373 10.763-80.006 61.727-78.709 103.739"/><path class="st3" d="M154.5 194.078c-40.289-21.063-93.473-.485-95.94 52.077-1.551 32.938 21.915 44.291 49.779 51.44 14.405 3.699 75.479 30.712 83.571 31.685 19.918 2.411 62.432-50.07 78.164-65.981 25.193-25.48 52.133-56.295 51.697-94.369-.469-41.912-43.738-87.513-88.564-75.853-41.371 10.762-80.004 61.727-78.707 103.739"/></svg>