<svg id="Capa_1" xmlns="http://www.w3.org/2000/svg" width="391.621" height="448.478" viewBox="0 0 391.621 448.478"><style>.st0,.st1,.st2,.st3{fill:#666;stroke:#3f352e;stroke-miterlimit:10}.st1,.st2,.st3{fill:#f2f2f2}.st2,.st3{fill:#ccc}.st3{fill:#ff5f5c}.st4{fill:#1ec1b3}.st5{fill:#f2f2f2}.st6{fill:none;stroke:#000;stroke-miterlimit:10;stroke-dasharray:6}.st7{fill:#303030}.st8{fill:none;stroke:#3f352e;stroke-miterlimit:10}.st9{fill:#00a2c2}.st10,.st11{fill:#e6e6e6;stroke:#3f352e;stroke-miterlimit:10}.st11{fill:none;stroke-width:.5}</style><path class="st6" d="M376.191 195.32c0 99.433-80.607 180.04-180.039 180.04-99.436 0-180.043-80.607-180.043-180.04 0-99.434 80.607-180.044 180.043-180.044 99.432 0 180.039 80.611 180.039 180.044z"/><path class="st4" d="M353.691 195.32c0 87.007-70.533 157.541-157.539 157.541-87.01 0-157.544-70.534-157.544-157.541 0-87.008 70.534-157.545 157.544-157.545 87.006 0 157.539 70.537 157.539 157.545z"/><path class="st6" d="M195.951 385.993c0 23.317-.109 19.372-.098 42.425"/><path class="st5" d="M135.867 163.809s-1.697 2.669 1.941 4.609c3.637 1.938-2.186.734 3.152 5.092 5.336 4.358 20.611-14.793 25.221-15.762 4.607-.971-4.123-9.701-6.305-10.914-2.184-1.213-4.609-1.941-7.762.242-3.149 2.182-16.247 16.733-16.247 16.733z"/><path class="st3" d="M142.84 69.105c-3.426.686-6.723 4-9.592 6.299-3.289 2.635-6.52 4.908-9.713 7.646-4.162 3.572-17.75 10.487-14.926 17.316 1.562 3.782 7.764 4.842 10.459 2.805 1.729-1.309 2.039-3.68 4.521-2.106 2.678 1.696 1.033 3.184-.047 4.848-2.148 3.292-4.607 6.995-7.275 9.965-1.4 1.556-6.186 8.369-8.315 8.281-1.715-.067-6.895-7.674-8.012-9.168-2.822-3.774-4.119-8.284-4.608-12.761-.564-5.163.243-7.746 2.935-12.233 2.387-3.981 4.396-5.982 8.375-8.553 10.635-6.885 36.366-12.625 35.987-12.417"/><path class="st11" d="M141.385 70.562c-3.426.685-6.723 3.998-9.592 6.298-3.287 2.634-6.52 4.907-9.713 7.647-4.162 3.572-17.75 10.486-14.926 17.315 1.562 3.782 7.764 4.843 10.459 2.805 1.729-1.309 2.039-3.681 4.521-2.105 2.68 1.694 1.035 3.182-.047 4.846-2.148 3.293-4.607 6.996-7.277 9.965-1.398 1.556-6.185 8.37-8.314 8.281-1.713-.067-6.894-7.674-8.011-9.167-2.822-3.773-4.119-8.283-4.608-12.761-.563-5.162.243-7.746 2.935-12.232 2.388-3.982 4.396-5.983 8.376-8.554 10.634-6.885 36.363-12.625 35.986-12.417"/><path class="st0" d="M143.264 69.263c2.408-.334 6.088 1.536 7.557 3.458.514.674 1.613 2.34 1.068 3.294-.547.958-2.891.447-3.871.44.184.396.225.895.352 1.263-.818-.009-1.596.03-2.395.103-.047.81.115 1.557-.012 2.386-.666.003-2.236-.517-2.814-.053-.541.435-.328 1.646-.391 2.366-.539-.032-1.885-.701-2.402-.359-.545.354-.328 1.625-.383 2.256-.93.014-1.885-.069-2.812-.057-.145.852.174 1.659.006 2.525-.826.016-1.766-.176-2.529.1.027.58.156 1.214.029 1.812-.518.007-1.854-.287-2.248.111-.264.271-.09 1.83-.121 2.234-.787.079-2.666-.7-3.248.034-.289.36.188 1.932.123 2.421-.771-.1-1.549-.195-2.35-.185-.096.747.215 1.381.166 2.106-5.059-1.379-5.084 6.032-8.588 7.677-1.59.749-4.855.95-6.355.053-1.578-.941-3.692-3.001-3.719-4.96-.028-2.196 1.702-4.001 3.204-5.564 2.232-2.312 24.766-19.842 25.988-20.74 1.434-1.053 3.854-2.784 5.745-2.721M155.479 87.008c-.584-2.311-2.436-5.17-4.184-6.966-.131.591-.299 2.079-.832 2.464-.623.454-2.275.07-3.094.083.168.82.275 2.011-.393 2.396-.445.254-2.291.05-2.838.059-.072.781-.061 1.597-.133 2.381-.842-.103-1.721-.445-2.658-.343-.053.596-.062 1.213-.088 1.812-.924.021-2.373-.312-2.879.486-.291.458-.059 1.86-.107 2.407-1.105.028-2.547-.116-3.668-.232.129.624.041 1.327.191 1.969-.818-.327-1.855-.503-2.68-.197-.076.707-.006 1.414-.27 2.088-1.086.018-2.184-.129-3.246.065.117.801.861 1.156.752 1.986-1.096.017-2.232-.151-3.258.213.137.67.512 1.381.447 2.116-.949.008-3.27-.024-4 .659 1.885 1.005 2.807 3.104 5.574 3.849 1.957.523 4.662-1.855 6.25-2.844 4.695-2.926 8.492-5.533 13.291-8.277 1.85-1.059 8.447-4.134 7.592-6.733.178-.033.357-.033.535-.003"/><path class="st3" d="M105.804 129.075c-.228 1.224-.395 2.473-.604 3.689-.465 2.684-1.061 5.95-.592 8.71.788 4.646 4.3 9.934 7.032 13.684 3.445 4.724 8.727 5.812 13.713 8.259 1.938.949 4.553 2.214 6.828 1.781 1.801-.341 3.383-2.976 4.592-4.405 1.678-1.988 2.781-3.924 4.818-5.657 2.307-1.962 4.211-4.167 6.621-6.042 1.949-1.517 3.701-2.543 5.975-3.421 2.793-1.079 4.465-.492 6.561 1.552 1.865 1.818 3.523 3.432 5.045 5.62.971 1.396 3.975 4.388 3.5 6.143-.885 3.278-11.326 8.49-7.043 12.597 1.857 1.783 5.244.296 7.564.273 1.422-.019 2.869.107 4.289.162 1.008.037 2.932-.273 3.844.127.709.311 1.359 1.175 2.088 1.627.641.397 1.234.682 1.936.964 1.072.437 2.117.849 3.125 1.439 2.146 1.253 4.285 3.226 6.111 4.792 2.391 2.043 4.656 4.318 6.576 6.777 1.975 2.535 3.447 5.613 5.793 7.795 1.922 1.788 113.721 139.397 116.051 144.027 2.299 4.575 5.639 7.066 10.883 7.264 5.418.196 9.381-1.544 11.709-6.582 2.139-4.629.24-9.242-2.262-13.514-1.498-2.562-4.344-4.691-6.453-6.817-2.82-2.842-47.123-61.226-50.85-66.897-3.873-5.896-67.26-85.126-69.928-88.917-4.309-6.11-37.721-49.696-41.084-53.923-2.613-3.278-5.191-6.652-7.115-10.387-1.508-2.927-3.139-6.41-5.514-8.661-.828-.784-2.059-1.575-2.922-2.211-1.287-.949-1.283-.778-2.445.302-2.002 1.859-4.518 2.838-6.84 4.288-3.939 2.47-7.932 5.005-11.721 7.789-1.857 1.367-3.805 3.25-6.26 3.175-1.205-.04-2.293-1.039-3.375-.671-1.439.5-1.928 2.646-2.553 3.825-.818 1.555-2.023 2.913-3.178 4.229-1.369 1.561-2.67 3.145-4.07 4.684-1.602 1.762-3.234 3.476-4.79 5.289-1.008 1.174-2.704 1.73-3.495 3.082-.603 1.031-1.335 2.956-1.56 4.16z"/><path class="st11" d="M337.047 326.736c-1.496-2.562-4.344-4.691-6.453-6.817-2.818-2.842-47.123-61.226-50.85-66.897-3.875-5.896-67.26-85.126-69.928-88.917-4.307-6.11-37.721-49.696-41.084-53.923-2.613-3.278-5.189-6.652-7.113-10.387-1.51-2.927-3.141-6.41-5.516-8.661-.828-.784-2.057-1.575-2.924-2.211-1.285-.949-1.281-.778-2.443.302-2.004 1.859-4.518 2.838-6.838 4.288-3.941 2.47-7.934 5.005-11.725 7.789-1.855 1.367-3.803 3.25-6.256 3.175-1.207-.04-2.295-1.039-3.377-.671-1.439.5-1.928 2.646-2.553 3.825-.818 1.555-2.023 2.913-3.178 4.229-1.369 1.561-2.668 3.145-4.07 4.684-1.602 1.762-3.233 3.476-4.79 5.289-1.008 1.174-2.703 1.73-3.496 3.082-.603 1.032-1.336 2.957-1.561 4.161-.229 1.224-.396 2.473-.603 3.689-.465 2.684-1.062 5.95-.593 8.71.789 4.646 4.3 9.934 7.032 13.684 3.445 4.724 8.726 5.812 13.712 8.259 1.936.949 4.553 2.214 6.826 1.781 1.805-.341 3.385-2.976 4.594-4.405 1.678-1.988 2.783-3.924 4.82-5.657 2.307-1.962 4.211-4.167 6.619-6.042 1.949-1.517 3.701-2.543 5.975-3.421 1.912-.739 4.725-.96 6.082-.202 1.475.088 2.283.613 3.244 1.787.611.748 2.334 1.793 2.213 2.668.77.845.324-.045 1.029.97.266.381.791.864 1.244 1.425.941.025 1.975 1.865 2.516 2.79.506.864 1.549 2.195 1.061 3.092-.002.124-2.252.67-2.283.785-.885 3.278-11.324 8.49-7.043 12.597 1.855 1.783 5.244.296 7.564.273 1.422-.019 2.869.107 4.289.162 1.008.037 2.932-.273 3.844.127.709.311 1.359 1.175 2.088 1.627.641.397 1.234.682 1.936.964 1.072.437 2.117.849 3.125 1.439 2.145 1.253 4.285 3.226 6.113 4.792 2.389 2.043 4.656 4.318 6.574 6.777 1.975 2.535 3.447 5.613 5.793 7.795 1.922 1.788 113.721 139.397 116.051 144.027 2.299 4.575 5.639 7.066 10.883 7.264 5.418.196 9.379-1.544 11.709-6.582 2.141-4.63.245-9.243-2.259-13.515z"/><path class="st1" d="M195.199 201.215c.65-1.01.664-2.027.658-3.222-.762-.067-2.854-.031-3.115-.712-.119-.316.834-2.717.979-3.109-1.076-.333-2.041-1.549-3.256-1.168.203-.915.242-1.836.254-2.779-1.021.051-2.076.395-3.125.281.031-1.043.438-2.018.383-3.089-1.105-.111-2.328-.029-3.385-.202.381-.583 1.367-2.518.938-3.205-.469-.751-2.75-.302-3.527-.11.586-.757 1.088-1.849 1.029-2.804-1.279-.324-2.465-.732-3.785-.768.391-1.027.793-2.25 1.084-3.358-.939.79-2.674.446-3.83.229.273-1.232.225-2.536-.035-3.787-.77-.071-1.697.096-2.375-.281-.447-.248-.453-.964-.99-1.157-.969-.353-9.906.896-11.357-1.153-1.777-2.51 4.104-8.71 5.611-9.625 1.176-.715 1.098-1.49 1.887-2.369-.141-1.088-1.291-.939-2.857-.189-.748.412-9.1 6.305-10.207 7.054-3.023 2.046-6.842 5.05-7.316 8.552l-5.943-4.409c4.002-2.013 8.951-6.202 10.988-7.872 1.951-1.602 10.922-9.766 10.371-10.597-2.672-3.438-10.645 5.079-11.801 6.037-2.424 2.005-8.484 7.646-10.932 11.414l-6.705-4.672c-1.607 2.728 4.385 6.248 5.971 6.002-.084.232-.438.941-.4 1.114 1.219 5.706 7.564 5.2 7.979 4.221.6-1.42.756-1.43 2.283-1.295-.439.63-1.279 2.63-.648 3.393.623.753 2.727-.116 3.697.005.102 1.165-.381 2.311-.371 3.519 1.055.134 1.977-.326 2.969-.283.016 1.267-.115 2.555-.096 3.819 1 .173 1.811-.62 2.83-.424.082.978-.135 2.074-.502 2.93 1.068.137 2.045-.54 3.117-.23.02 1.294-.26 2.493-.252 3.771 1.059.097 2.092.04 3.117.017-.168 1.035-.707 2.051-.926 3.069 1.293.245 2.721.129 3.941.472-.232 1.018-1.012 2.089-.934 3.212 1.242.108 2.473.02 3.684.022-.402 1.248-.791 1.907-.805 3.226 1.037.244 2.553-.23 3.551-.397.002 1.295-.705 2.626-.674 4.081.674-.405 2.949-1.632 3.766-.597.598.759-.592 2.94-.602 3.852 1.02.199 2.143-.254 3.111-.254.15 1.162-.428 2.311-.371 3.498 1.104.067 2.275-.673 3.414-.688-.277.844-.307 1.924-.775 2.64 1.275.12 2.441-.013 3.678.182-1.314 2.243 1.457 2.731 3.207 2.528 2.314-.268 5.141-1.18 6.938-2.792 3.109-2.779 4.066-6.815 3.979-10.938-.814-.796-2.384-.508-3.517-.605z"/><path class="st11" d="M164.166 160.48c-5.127 2.868-15.359 9.306-16.355 15.363M149.215 175.641c-2.246 3.336.17 3.85 3.049 3.398a48.198 48.198 0 0 1-.371 3.518 30.207 30.207 0 0 0 2.969-.284 978.158 978.158 0 0 0-.096 3.819c.797-.313 2.041-.108 2.83-.424a6.485 6.485 0 0 1-.502 2.931c-.613-.78.842-2.236 2.297-.78 0 1.454 0 2.909 1.455 4.363 1.455 0 1.455 0 2.23-.024a65.437 65.437 0 0 1-.926 3.067c1.316.156 2.639.212 3.941.474a11.348 11.348 0 0 0-.932 3.211c1.225.061 2.455.068 3.682.022a9.646 9.646 0 0 0-.805 3.226c1.199.126 2.385-.11 3.551-.397-.168 1.377-.561 2.694-.674 4.08 3.842-2.546 3.928.219 3.164 3.256a15.644 15.644 0 0 0 3.111-.255 45.698 45.698 0 0 1-.371 3.499 55.433 55.433 0 0 0 3.414-.688c-.408.828-.297 1.81-.775 2.641a57.89 57.89 0 0 1 3.678.182c-2.367 4.771 8.725.969 10.145-.265 2.102-1.821 3.238-4.444 3.721-7.134.588-3.274.297-4.625-3.256-4.406 2.355-4.293-1.494-1.982-2.455-4.142-.785-1.763 2.457-4.387-2.279-4.069.332-.895.039-1.887.254-2.779a19.87 19.87 0 0 1-3.125.281c.555-3.328.174-3.01-3.002-3.292 1.965-2.906.533-4.189-2.588-3.314 2.27-2.813-.135-3.403-2.758-3.57.418-1.1.779-2.224 1.082-3.36-2.021.663-3.477.663-3.477.663v-4.365c-4.365-1.454-10.186-1.454-14.551-1.454 0-5.82 4.365-10.186 7.273-13.097-1.453 0-1.453 0-2.184-.496"/><path class="st2" d="M151.408 169.667c1.48 1.153 7.576 8.919 9.096 10.576 2.338 2.556 15.379 19.375 20.963 23.915 2.197 1.789 4.75 3.361 7.766 2.578 3.18-.827 1.656-5.314.451-7.304-.857-1.414-20.018-25.714-21.311-27.241-2.357-.223-4.826.83-6.445-.949-.816-.9-.807-1.581-.518-2.735.215-.864.625-1.714.35-2.8-.989-3.916-9.742 2.992-10.352 3.96"/><path class="st1" d="M148.436 95.898c.463-2.913 5.795-4.076 6.611-.615 1.07 4.525-7.723 5.68-6.611.615"/><path class="st10" d="M154.25 116.69c.848 4.052 4.344 9.274 6.68 12.771 2.42 3.615 54.002 67.635 57.967 72.205 4.553 5.248 80.889 99.901 89.994 111.361 2.104 2.644 3.229 5.418 5.965 7.335-.414-3.758 4.449-5.126 7.363-4.891-2.115-2.984-106.039-132.503-116.303-147.735-3.594-5.334-34.756-53.967-44.293-57.207-3.039-1.035-7.191-2.69-7.789 1.391-.023 2.199.121 3.957.662 5.925"/><g><path class="st9" d="M293.357 259.336l-.41 4.348 5.281 10.569 11.744 2.617 8.396-10.079.748-3.859-5.629-11.158-11.834-1.54-8.296 9.102zm7.301 1.214c.707-.247 2.195-2.291 2.895-2.027.488-.179 3.338.508 3.898.556 1.104.091 1.271-.095 2.07.676.168.165.963 1.504 1.096 1.797.398.386.533 1.349.666 1.982.213 1 .836.812-.061 1.43-.963.662-1.131 2.04-2.355 1.986-.514-.022-1.893-.128-2.33-.265-.051-.002-.762-.082-.92-.089-.465-.027-1.719-.07-2.17-.186-1.176-.301-2.564-1.112-3.037-2.161-.705-1.558-1.275-2.847.248-3.699zM227.002 266.184l-1.416 5.449 5.502 11.003 13.996 2.362 8.635-10.961 1.057-4.433-5.758-11.566-13.889-1.458-8.127 9.604zm6.943 2.375c.736-.259 2.166-3.263 2.893-2.989.51-.184 4.041.511 4.623.562 1.15.094 1.877-.267 2.705.534.18.167.498 1.311.637 1.614.414.404 1.402 1.711 1.543 2.369.219 1.043-.791 1.675-1.725 2.317-1.006.687.125 1.43-1.148 1.372-.537-.025-3.07-.292-3.527-.437-.055-.003-.465-.089-.629-.101-.482-.027-2.121-.127-2.596-.245-1.227-.314-.92-1.439-1.41-2.531-.733-1.625-1.668-2.415-1.366-2.465zM258.078 316.375l-1.416 5.448 5.5 11.004 13.998 2.364 8.631-10.965 1.059-4.427-5.76-11.569-13.889-1.461-8.123 9.606zm6.94 2.373c.736-.254 2.168-3.26 2.893-2.984.512-.184 4.039.506 4.623.558 1.148.097 1.879-.271 2.709.534.176.168.494 1.313.637 1.617.412.398 1.398 1.711 1.539 2.372.223 1.038-.789 1.675-1.723 2.312-1.004.688.129 1.43-1.15 1.374-.535-.024-3.068-.291-3.525-.442-.057.004-.467-.082-.631-.092-.482-.029-2.119-.129-2.592-.249-1.229-.315-.922-1.44-1.412-2.529-.734-1.629-1.667-2.422-1.368-2.471z"/><path class="st7" d="M233.461 275.117l-.012-.023a97.838 97.838 0 0 1-1.824-3.328c-.295-.559-.6-1.113-.881-1.679l-.857-1.694-.119-.232.182-.232c.787-.99 1.59-1.967 2.398-2.937.4-.488.82-.964 1.229-1.44.41-.486.828-.961 1.246-1.433l.189-.213.262.042c1.352.212 2.709.408 4.059.626s2.697.46 4.043.708l.16.028.053.121c.492 1.167.975 2.334 1.502 3.483a69.513 69.513 0 0 0 1.662 3.405l.061.114-.09.122-2.326 2.995c-.785.99-1.6 1.96-2.439 2.902l-.154.182-.227-.033a118.43 118.43 0 0 1-4.055-.661 86.22 86.22 0 0 1-4.033-.818l-.029-.005zm4.146.193c1.365.125 2.725.271 4.084.441l-.383.145a72.517 72.517 0 0 1 2.484-2.859l2.602-2.765-.027.229a65.319 65.319 0 0 0-1.557-3.458c-.539-1.14-1.131-2.26-1.711-3.382l.209.151a163.37 163.37 0 0 1-4.094-.391c-1.357-.153-2.715-.319-4.074-.482l.449-.171c-.404.489-.805.975-1.217 1.461-.412.478-.812.964-1.232 1.436-.834.952-1.668 1.897-2.523 2.831l.061-.47.75 1.739c.254.58.484 1.171.727 1.756.48 1.154.939 2.326 1.375 3.507 1.365.059 2.722.158 4.077.282z"/><path class="st7" d="M244.533 272.349c-.193-.943-.512-1.83-.863-2.699-.184-.435-.365-.868-.578-1.283a17.512 17.512 0 0 0-.725-1.218l-.105-.156-.119-.008c-.344-.006-.691.005-1.031-.022a10.417 10.417 0 0 1-1.021-.115c-.676-.104-1.344-.28-2.01-.449a22.324 22.324 0 0 0-2.016-.417 26.293 26.293 0 0 0-2.027-.324l-.295-.036-.174.212a35.014 35.014 0 0 0-1.381 1.829 21.063 21.063 0 0 0-1.23 1.957l.076.062a21.474 21.474 0 0 0 1.74-1.521 30.865 30.865 0 0 0 1.588-1.648l-.463.176a28.2 28.2 0 0 0 2.037.233c.682.06 1.367.119 2.055.128.689.018 1.379.022 2.059.102.342.035.68.088 1.014.16.338.063.668.167 1.004.25l-.225-.162c.143.449.287.898.467 1.334.184.434.396.849.615 1.263.439.83.924 1.641 1.523 2.396l.085-.044z"/><path class="st7" d="M229.51 279.747l-.01-.021a308.908 308.908 0 0 1-3.119-6.088l-1.527-3.058-1.5-3.069-.123-.247.186-.225a500.68 500.68 0 0 1 4.377-5.251l2.213-2.598 2.234-2.583.188-.212.264.039 7.328 1.069c2.441.363 4.879.751 7.314 1.152l.15.022.059.125 1.379 3.127c.463 1.039.947 2.072 1.42 3.107a189.444 189.444 0 0 0 2.947 6.169l.061.119-.092.11-4.301 5.313a219.809 219.809 0 0 1-4.416 5.215l-.156.182-.227-.032a353.951 353.951 0 0 1-7.32-1.11c-1.217-.198-2.441-.384-3.656-.597-1.215-.216-2.432-.42-3.646-.656l-.027-.002zm3.728.246c1.229.117 2.455.268 3.684.396 2.455.264 4.902.56 7.352.875l-.385.149a243.881 243.881 0 0 1 4.465-5.177l4.578-5.078-.033.23a178.6 178.6 0 0 0-2.852-6.213c-.492-1.026-.973-2.057-1.479-3.081l-1.514-3.061.207.154a604.02 604.02 0 0 1-7.357-.841l-7.348-.916.447-.17-2.199 2.609-2.225 2.598a544 544 0 0 1-4.5 5.14l.062-.468 1.395 3.119 1.371 3.133a295.817 295.817 0 0 1 2.666 6.266c1.228.095 2.445.226 3.665.336z"/><path class="st7" d="M222.047 272.312c.182.545.395 1.076.592 1.611.193.536.416 1.062.629 1.596.434 1.053.881 2.099 1.344 3.138.467 1.04.932 2.081 1.451 3.097.52 1.014 1.068 2.013 1.605 3.021l.07.132.119.009c1.232.082 2.457.229 3.682.397 1.221.169 2.436.396 3.652.616 1.215.231 2.428.453 3.646.65 1.219.203 2.439.381 3.658.572l.26.04.191-.211c.758-.849 1.498-1.711 2.234-2.586.725-.878 1.449-1.757 2.156-2.651l1.062-1.336c.355-.445.697-.906 1.043-1.354a88.532 88.532 0 0 0 2.035-2.756l-.074-.063a76.586 76.586 0 0 0-2.4 2.439c-.395.414-.797.816-1.182 1.243l-1.152 1.263c-.771.834-1.531 1.684-2.281 2.543-.744.86-1.486 1.723-2.205 2.608l.449-.173c-1.229-.137-2.451-.293-3.68-.418a118.894 118.894 0 0 0-3.689-.342c-1.232-.11-2.463-.216-3.684-.381a51.138 51.138 0 0 1-3.656-.59l.189.139c-.43-1.058-.846-2.12-1.297-3.166-.443-1.048-.945-2.07-1.443-3.098a124.482 124.482 0 0 0-1.551-3.047c-.273-.5-.539-1.009-.824-1.502-.285-.495-.557-.994-.859-1.479l-.09.039z"/><path class="st7" d="M221.951 272.731s.107-.071.229-.184c.123-.11.275-.287.389-.509a1.17 1.17 0 0 0 .141-.373c.027-.145-.002-.309-.021-.479a.992.992 0 0 1 .043-.483c.055-.151.148-.292.27-.426.115-.133.236-.268.311-.415.08-.138.156-.281.221-.421.145-.278.133-.435.152-.685.029-.509-.156-.767-.156-.767l-.092-.032s-.303.098-.58.521c-.141.213-.262.4-.312.707-.029.152-.043.278-.066.442-.027.157-.004.319.008.496.016.179.014.338-.039.494-.039.156-.135.281-.254.406-.115.125-.236.236-.299.364-.066.127-.09.259-.111.381-.041.244-.025.486.004.648.029.161.074.281.074.281l.088.034zM227.488 285.103s.137-.152.258-.269c.121-.109.287-.324.402-.547.055-.11.123-.255.146-.395.029-.143.002-.318-.016-.489a.98.98 0 0 1 .045-.488c.053-.154.148-.296.266-.427.113-.136.24-.269.312-.414.08-.143.156-.288.225-.428.139-.277.201-.646.219-.897.031-.506-.082-.979-.082-.979l-.09-.029s-.377.311-.658.732c-.137.213-.293.508-.344.811-.031.154-.064.33-.084.497a2.464 2.464 0 0 0-.002.523c.016.177.006.353-.041.507a1.046 1.046 0 0 1-.258.417c-.115.119-.236.236-.301.366a1.252 1.252 0 0 0-.113.381c-.039.245-.053.57-.021.728.031.165.047.369.047.369l.09.031zM242.252 267.645s.094-.021.207-.115c.115-.092.252-.222.357-.412.051-.094.105-.193.123-.315.02-.119-.016-.267-.041-.415-.025-.151-.031-.296.02-.422.051-.133.143-.258.254-.369.105-.113.225-.225.293-.35.07-.119.141-.24.201-.363.131-.238.133-.426.143-.65a1.46 1.46 0 0 0-.164-.733l-.092-.029s-.312.123-.574.486c-.129.183-.25.367-.291.635-.025.13-.039.259-.053.397-.021.143.006.29.023.449a.987.987 0 0 1-.018.435.737.737 0 0 1-.24.353c-.107.104-.223.201-.281.311-.062.107-.078.224-.096.329-.033.219.004.389.041.532.037.146.096.217.096.217l.092.029zM233.588 266.732s.08.026.191-.07c.119-.089.248-.199.354-.39.051-.098.102-.183.119-.305.02-.121-.018-.264-.043-.411a.738.738 0 0 1 .023-.421.99.99 0 0 1 .248-.363c.109-.114.225-.222.291-.35.074-.122.141-.241.203-.366.129-.236.146-.465.154-.69a1.852 1.852 0 0 0-.146-.776l-.094-.031s-.326.165-.588.531c-.127.179-.256.387-.297.656a5.55 5.55 0 0 0-.057.41c-.02.139.002.295.023.451.018.156.021.305-.021.441-.033.136-.127.247-.238.35-.109.105-.225.204-.283.312-.061.104-.08.222-.098.333-.027.21.02.347.057.489.035.145.111.17.111.17l.091.03zM251.471 277.291s.141-.185.264-.299c.119-.107.293-.341.408-.559.057-.111.125-.266.148-.406.025-.143.004-.324-.016-.493-.018-.167-.018-.341.045-.491.053-.15.154-.292.27-.429.115-.135.238-.268.312-.413.08-.145.156-.287.223-.425.141-.276.195-.615.213-.87.029-.506-.094-.944-.094-.944l-.094-.03s-.363.272-.643.701c-.139.211-.291.488-.344.797a9.023 9.023 0 0 0-.08.479c-.029.164-.01.349 0 .523.014.179.008.349-.041.507a.92.92 0 0 1-.258.413c-.113.122-.234.24-.301.366-.064.129-.088.261-.111.382-.041.246-.064.603-.033.762.027.162.039.397.039.397l.093.032zM242.955 286.297s.057.071.178-.037c.121-.111.252-.215.365-.436.055-.112.105-.201.129-.34.025-.141-.008-.289-.029-.456-.018-.17-.02-.331.043-.479.051-.15.148-.29.268-.42.111-.137.234-.263.309-.412.078-.139.154-.281.221-.421.145-.276.182-.573.201-.827.027-.506-.109-.906-.109-.906l-.09-.031s-.354.238-.633.661c-.137.214-.285.472-.334.78a4.819 4.819 0 0 0-.078.471c-.031.162-.01.342.002.52.012.174.008.348-.041.501a.96.96 0 0 1-.258.413c-.115.126-.236.237-.299.367-.066.127-.09.257-.115.383-.037.244.023.34.057.502.027.162.121.14.121.14l.092.027z"/><g><path class="st7" d="M265.668 325.171l-.012-.022a97.891 97.891 0 0 1-1.826-3.328c-.291-.562-.6-1.116-.883-1.683l-.857-1.69-.119-.238.186-.23c.783-.99 1.59-1.964 2.398-2.934.4-.491.82-.963 1.229-1.443.41-.483.826-.955 1.246-1.433l.189-.207.26.04c1.354.211 2.705.406 4.059.628 1.354.216 2.699.454 4.049.702l.154.03.055.123c.488 1.168.971 2.335 1.5 3.482.52 1.153 1.08 2.29 1.662 3.405l.061.117-.09.115-2.324 3a68.522 68.522 0 0 1-2.439 2.898l-.156.185-.225-.031a157.747 157.747 0 0 1-4.055-.661 86.014 86.014 0 0 1-4.035-.817l-.027-.008zm4.144.19c1.365.127 2.729.27 4.086.443l-.385.148a69.051 69.051 0 0 1 2.484-2.865l2.602-2.763-.031.231a67.345 67.345 0 0 0-1.551-3.46c-.543-1.139-1.131-2.259-1.713-3.382l.209.151c-1.365-.117-2.73-.246-4.092-.398-1.361-.145-2.717-.314-4.076-.472l.445-.17c-.398.486-.799.975-1.215 1.454-.41.479-.811.967-1.23 1.436-.832.956-1.67 1.897-2.525 2.831l.062-.467.75 1.739c.25.577.482 1.168.725 1.753a104.64 104.64 0 0 1 1.379 3.51c1.364.063 2.723.156 4.076.281z"/><path class="st7" d="M276.74 322.402c-.195-.943-.512-1.83-.863-2.702a19.674 19.674 0 0 0-.578-1.284 15.993 15.993 0 0 0-.727-1.209l-.105-.164-.119-.003c-.344-.008-.689.003-1.033-.023a11.246 11.246 0 0 1-1.02-.116c-.676-.104-1.344-.283-2.012-.454a26.063 26.063 0 0 0-2.014-.415 29.382 29.382 0 0 0-2.027-.326l-.297-.034-.17.216a30.915 30.915 0 0 0-1.381 1.828 21.237 21.237 0 0 0-1.232 1.957l.076.067a22.359 22.359 0 0 0 1.742-1.525 30.836 30.836 0 0 0 1.588-1.648l-.469.177c.678.104 1.361.17 2.045.228.678.067 1.359.127 2.053.136.686.012 1.375.02 2.055.097.342.04.682.089 1.018.159.334.066.668.168.998.25l-.221-.164c.145.451.287.903.469 1.336.182.434.398.851.613 1.266.443.83.922 1.641 1.521 2.395l.09-.045z"/><path class="st7" d="M261.715 329.8l-.01-.022a319.868 319.868 0 0 1-3.119-6.084l-1.525-3.062-1.504-3.068-.117-.245.184-.224a409.492 409.492 0 0 1 4.373-5.253l2.215-2.597 2.236-2.585.182-.209.268.039 7.326 1.069c2.441.363 4.881.75 7.318 1.146l.148.025.057.131 1.381 3.123c.465 1.043.947 2.073 1.418 3.109a194.678 194.678 0 0 0 2.947 6.166l.061.12-.09.11-4.299 5.312a212.215 212.215 0 0 1-4.416 5.218l-.156.179-.229-.029a340.698 340.698 0 0 1-7.318-1.109c-1.221-.201-2.439-.384-3.656-.601-1.215-.215-2.434-.42-3.646-.653l-.029-.006zm3.724.245c1.234.119 2.459.267 3.684.396 2.457.264 4.908.561 7.355.879l-.385.146a234.16 234.16 0 0 1 4.463-5.176l4.576-5.078-.029.229a191.087 191.087 0 0 0-2.85-6.213c-.496-1.026-.977-2.057-1.479-3.077l-1.518-3.066.209.153a523.184 523.184 0 0 1-7.355-.837l-7.354-.918.453-.171-2.203 2.614-2.225 2.592a446.132 446.132 0 0 1-4.5 5.144l.066-.47 1.393 3.119 1.373 3.134c.91 2.077 1.801 4.167 2.668 6.265 1.223.093 2.442.224 3.658.335z"/><path class="st7" d="M254.254 322.366c.184.542.393 1.075.59 1.609.197.538.418 1.062.627 1.597.432 1.051.883 2.102 1.346 3.141.467 1.04.936 2.079 1.453 3.097.52 1.012 1.07 2.012 1.602 3.019l.07.13.121.009c1.234.086 2.459.233 3.682.4 1.223.168 2.438.396 3.652.615 1.215.234 2.432.453 3.646.651 1.221.203 2.439.379 3.66.572l.258.043.191-.214c.76-.846 1.496-1.713 2.23-2.584.73-.876 1.451-1.758 2.156-2.652l1.068-1.336c.354-.446.693-.904 1.041-1.361a84.912 84.912 0 0 0 2.037-2.75l-.076-.066a77.95 77.95 0 0 0-2.404 2.442c-.393.413-.793.817-1.174 1.243l-1.156 1.256c-.773.838-1.531 1.691-2.279 2.547a112.12 112.12 0 0 0-2.203 2.608l.447-.17c-1.229-.137-2.453-.294-3.684-.421a136.554 136.554 0 0 0-3.689-.34c-1.227-.112-2.459-.214-3.68-.379a49.741 49.741 0 0 1-3.658-.594l.188.143c-.428-1.055-.842-2.121-1.291-3.17-.447-1.048-.947-2.068-1.449-3.095-.5-1.021-1.018-2.041-1.547-3.046-.273-.501-.539-1.007-.824-1.504-.285-.492-.557-.994-.859-1.481l-.092.041z"/><path class="st7" d="M254.113 322.908s.133-.133.252-.242a2.13 2.13 0 0 0 .398-.542 1.39 1.39 0 0 0 .143-.392c.027-.141.002-.315-.018-.482a1.031 1.031 0 0 1 .045-.492c.055-.148.15-.29.268-.426.117-.135.242-.269.314-.413.078-.143.154-.284.223-.426.139-.272.213-.669.229-.915.029-.509-.078-1.003-.078-1.003l-.092-.032s-.379.332-.66.76c-.137.207-.299.514-.352.821a9.758 9.758 0 0 0-.084.494c-.027.161-.012.354-.004.527.018.18.01.359-.039.509a1.052 1.052 0 0 1-.256.419c-.119.122-.238.241-.303.363a1.254 1.254 0 0 0-.113.387 2.559 2.559 0 0 0-.02.711c.035.158.055.344.055.344l.092.03zM259.852 334.691s.057.076.176-.035c.121-.111.246-.212.367-.431.053-.11.104-.197.125-.339.023-.139-.006-.29-.027-.456a.97.97 0 0 1 .039-.479 1.26 1.26 0 0 1 .268-.417c.115-.139.236-.267.311-.411.08-.143.156-.285.219-.424.145-.276.186-.583.205-.834.027-.508-.104-.918-.104-.918l-.096-.03s-.352.247-.633.673c-.137.213-.283.475-.338.781-.027.148-.053.314-.078.476-.025.162-.008.344.006.518.016.179.006.346-.043.503a.94.94 0 0 1-.256.411c-.115.126-.24.241-.301.366-.064.128-.09.262-.111.382-.041.244.023.335.051.499.033.16.125.135.125.135l.095.03zM274.418 317.822s.109-.081.225-.176c.115-.092.264-.254.371-.441.051-.095.105-.21.123-.335.02-.12-.01-.272-.035-.421a.77.77 0 0 1 .025-.43c.045-.133.135-.252.246-.366.111-.116.227-.227.293-.353.074-.123.145-.241.203-.367.133-.235.115-.36.123-.584.01-.446-.186-.671-.186-.671l-.092-.031s-.291.062-.555.423c-.127.183-.236.339-.275.605-.025.132-.035.238-.049.381-.023.141.008.287.025.438.02.163.023.304-.018.436a.755.755 0 0 1-.238.349c-.107.108-.221.202-.281.308-.061.111-.078.227-.098.333-.027.215-.014.45.021.597.037.145.076.274.076.274l.096.031zM265.754 316.912s.096-.039.213-.133c.115-.091.256-.23.361-.419.051-.096.104-.201.123-.326.018-.122-.014-.267-.039-.415a.797.797 0 0 1 .023-.427c.047-.13.139-.252.252-.363.104-.113.221-.228.289-.353.074-.125.143-.244.205-.363.129-.239.123-.409.133-.628.012-.448-.166-.714-.166-.714l-.096-.031s-.305.102-.566.467c-.127.182-.246.357-.287.622-.023.134-.035.253-.051.396-.023.139.006.289.025.439.018.162.025.305-.021.44-.033.134-.123.245-.236.353-.107.101-.223.197-.283.304a1.04 1.04 0 0 0-.096.336c-.031.214-.002.409.035.549a.92.92 0 0 0 .09.235l.092.031zM283.83 326.876s.066.045.188-.06c.121-.114.254-.228.367-.449.057-.111.109-.204.129-.347.027-.136-.006-.293-.023-.46a.983.983 0 0 1 .039-.48c.055-.15.15-.287.266-.42.115-.13.24-.262.314-.41.078-.146.152-.281.221-.422.141-.274.174-.553.189-.806.029-.506-.113-.884-.113-.884l-.094-.031s-.342.219-.621.639c-.139.211-.281.461-.336.769-.027.15-.051.306-.072.466-.029.163-.006.341.002.518a1.34 1.34 0 0 1-.039.499 1 1 0 0 1-.256.413c-.113.119-.236.238-.305.366a1.28 1.28 0 0 0-.107.38c-.041.244.014.365.041.527.033.158.115.158.115.158l.095.034zM275.115 336.479s.082.008.203-.103c.119-.108.26-.246.375-.466.055-.113.111-.215.135-.355.021-.141-.008-.298-.025-.469a.968.968 0 0 1 .039-.477c.057-.154.15-.293.271-.426.113-.135.234-.266.309-.407.078-.147.152-.284.221-.427.143-.278.16-.511.178-.762.031-.512-.129-.844-.129-.844l-.092-.032s-.328.172-.609.597c-.139.214-.273.443-.324.748a7.138 7.138 0 0 0-.07.458c-.029.159-.008.331.004.509.012.176.008.344-.039.499a.951.951 0 0 1-.256.407c-.115.125-.238.242-.301.368-.068.124-.088.257-.113.383-.037.244.002.403.033.565.029.158.1.201.1.201l.09.033z"/></g><g><path class="st7" d="M299.816 266.867l-.012-.018a88.347 88.347 0 0 1-1.613-2.941c-.531-.982-1.035-1.983-1.539-2.98l-.105-.21.16-.203a144.54 144.54 0 0 1 2.123-2.598c.352-.429.727-.849 1.086-1.272.361-.426.73-.847 1.1-1.262l.164-.19.234.037c1.195.188 2.393.36 3.588.557a123.7 123.7 0 0 1 3.576.624l.139.023.045.109.65 1.546c.221.514.457 1.02.684 1.528.449 1.023.947 2.02 1.467 3.016l.049.103-.074.103-2.055 2.647a64.525 64.525 0 0 1-2.156 2.565l-.141.16-.199-.031a81.435 81.435 0 0 1-3.582-.587c-.596-.112-1.191-.208-1.783-.333-.594-.129-1.188-.239-1.779-.387l-.027-.006zm1.856.023c.602.042 1.201.108 1.809.156 1.203.103 2.406.233 3.605.387l-.336.125a63.446 63.446 0 0 1 2.197-2.526l2.295-2.441-.023.201a51.71 51.71 0 0 0-1.379-3.052c-.244-.503-.48-1.009-.736-1.506l-.77-1.487.182.135c-1.205-.104-2.41-.217-3.613-.35-1.203-.128-2.404-.282-3.605-.421l.395-.147c-.354.426-.705.857-1.072 1.281-.363.424-.719.855-1.088 1.271-.734.844-1.479 1.679-2.232 2.502l.057-.413c.439 1.024.889 2.047 1.303 3.084.424 1.025.83 2.062 1.219 3.104.597.014 1.192.062 1.792.097z"/><path class="st7" d="M309.602 264.423c-.174-.832-.453-1.62-.762-2.388a19.125 19.125 0 0 0-.512-1.134c-.193-.372-.418-.721-.643-1.071l-.098-.145-.102-.002a10.644 10.644 0 0 1-1.814-.122c-.6-.093-1.186-.251-1.777-.398a21.15 21.15 0 0 0-1.781-.37 25.875 25.875 0 0 0-1.791-.29l-.262-.025-.152.188c-.842 1.049-1.643 2.138-2.307 3.343l.066.057c1.088-.844 2.039-1.805 2.943-2.799l-.414.155c.596.094 1.199.151 1.805.199.604.06 1.207.115 1.816.119.607.011 1.217.019 1.818.091.602.062 1.193.196 1.781.358l-.197-.141c.127.399.256.793.412 1.178.162.381.357.753.545 1.12.391.732.82 1.446 1.346 2.116l.08-.039z"/><path class="st7" d="M296.322 270.957l-.01-.018a280.684 280.684 0 0 1-2.756-5.38c-.912-1.797-1.795-3.606-2.678-5.411l-.105-.219.16-.198c1.277-1.56 2.57-3.101 3.867-4.642l1.961-2.298 1.977-2.286.16-.182.236.034 6.475.943c2.156.321 4.311.665 6.463 1.019l.135.02.051.11 1.221 2.765 1.254 2.75a166.64 166.64 0 0 0 2.607 5.449l.051.104-.078.098-3.801 4.695a168.238 168.238 0 0 1-3.908 4.606l-.139.159-.197-.028c-2.156-.32-4.316-.614-6.471-.975-1.074-.179-2.154-.341-3.229-.528-1.076-.19-2.154-.373-3.223-.58l-.023-.007zm3.295.223c1.086.104 2.168.234 3.252.348 2.172.222 4.332.517 6.498.785l-.332.125a175.335 175.335 0 0 1 3.938-4.577l4.049-4.489-.033.202a156.926 156.926 0 0 0-2.514-5.487l-1.307-2.723-1.34-2.709.182.138a527.72 527.72 0 0 1-6.502-.743l-6.492-.812.396-.15-1.949 2.309-1.965 2.292a400.06 400.06 0 0 1-3.975 4.546l.055-.411c.824 1.837 1.65 3.671 2.443 5.525a251.238 251.238 0 0 1 2.359 5.536c1.079.08 2.159.191 3.237.295z"/><path class="st7" d="M289.727 264.392c.336.952.701 1.896 1.076 2.831.385.932.781 1.854 1.189 2.775.412.919.822 1.838 1.285 2.734.457.896.941 1.779 1.414 2.675l.062.115.105.007c1.09.074 2.172.204 3.252.355 1.082.147 2.154.35 3.229.536 1.074.211 2.148.404 3.225.581 1.078.182 2.156.336 3.234.509l.229.033.166-.19a88.404 88.404 0 0 0 1.973-2.285c.646-.773 1.287-1.551 1.91-2.341.627-.788 1.258-1.573 1.863-2.382a79.94 79.94 0 0 0 1.799-2.433l-.068-.06a70.867 70.867 0 0 0-2.123 2.16 91.858 91.858 0 0 0-2.061 2.213c-.682.736-1.355 1.489-2.016 2.245a97.646 97.646 0 0 0-1.949 2.306l.396-.151c-1.086-.122-2.168-.258-3.256-.369-1.082-.117-2.17-.217-3.256-.302-1.088-.1-2.18-.191-3.256-.336a50.054 50.054 0 0 1-3.23-.521l.164.125c-.381-.937-.748-1.877-1.143-2.803s-.838-1.83-1.277-2.733c-.443-.905-.902-1.8-1.373-2.694a66.472 66.472 0 0 0-1.484-2.637l-.079.037z"/><path class="st7" d="M289.574 264.965s.127-.164.236-.264a2.23 2.23 0 0 0 .361-.5c.047-.097.115-.232.133-.358.02-.122.004-.284-.014-.435-.049-.298.059-.576.273-.807a1.82 1.82 0 0 0 .277-.368c.07-.126.139-.255.195-.377.129-.247.18-.56.195-.781.025-.452-.082-.85-.082-.85l-.082-.028s-.322.258-.57.634c-.125.188-.26.437-.307.708a6.67 6.67 0 0 0-.074.435c-.023.145-.008.305.002.46.031.315-.045.597-.26.812a1.532 1.532 0 0 0-.27.324 1.154 1.154 0 0 0-.102.338c-.029.219-.057.532-.027.677.027.14.029.353.029.353l.087.027zM294.693 275.22s.041.102.146.003c.111-.098.213-.172.318-.364.049-.1.09-.167.109-.292.023-.123-.01-.254-.023-.401-.045-.304.055-.561.271-.793.098-.119.209-.229.273-.361.068-.127.137-.251.189-.371.133-.247.17-.526.186-.748.027-.444-.092-.819-.092-.819l-.08-.025s-.314.229-.564.604a1.883 1.883 0 0 0-.299.693 6.662 6.662 0 0 0-.07.423c-.021.14-.006.306.004.464.033.312-.049.592-.266.804-.1.111-.209.213-.264.325-.061.112-.08.229-.1.336-.031.219.031.267.061.411.023.141.119.087.119.087l.082.024zM307.533 260.413s.107-.091.209-.173.23-.236.33-.401c.043-.085.096-.19.113-.299.016-.104-.008-.244-.031-.377-.059-.267.039-.509.242-.702.096-.1.199-.202.258-.312.064-.105.129-.218.178-.324.117-.211.174-.541.184-.739.01-.395-.088-.812-.088-.812l-.086-.028s-.33.272-.561.594c-.113.162-.25.406-.285.646a5.88 5.88 0 0 0-.061.395c-.02.122 0 .278.016.413.043.281-.027.528-.23.71-.102.094-.201.181-.254.278-.053.097-.068.198-.086.296-.021.189-.02.421.016.547.025.126.055.264.055.264l.081.024zM299.811 259.813s.127-.155.229-.238c.104-.08.242-.268.342-.43a1.14 1.14 0 0 0 .117-.315c.02-.11-.01-.256-.031-.387-.053-.267.043-.509.246-.705.096-.1.199-.201.26-.315.064-.104.127-.216.178-.323.119-.211.152-.48.164-.676.008-.394-.115-.751-.115-.751l-.082-.026s-.309.211-.537.529c-.113.162-.24.375-.275.614-.023.113-.043.25-.057.377-.018.122.004.271.02.407.043.278-.025.522-.23.704-.098.091-.201.177-.252.276a.87.87 0 0 0-.084.292c-.025.194-.045.486-.01.614.027.125.037.33.037.33l.082.025v-.002zM315.766 268.541s.229-.227.465-.608a6.861 6.861 0 0 0 .675-1.453 6.7 6.7 0 0 0 .328-1.567c.039-.443-.006-.763-.006-.763s-.23.228-.463.605a6.832 6.832 0 0 0-.899 2.276 4.604 4.604 0 0 0-.107.745c-.04.447.007.765.007.765zM308.102 277.051s.1-.086.209-.184c.109-.1.244-.267.352-.463.047-.096.104-.21.123-.336.021-.125 0-.275-.018-.423-.045-.302.059-.577.275-.807.102-.117.211-.238.275-.361.072-.131.137-.257.197-.378.125-.244.201-.637.217-.857a5.016 5.016 0 0 0-.053-.93l-.082-.029s-.352.339-.604.713c-.117.188-.268.479-.314.748-.027.134-.059.31-.078.452a1.853 1.853 0 0 0-.002.477c.033.314-.047.601-.266.813-.104.109-.213.219-.268.328a1.029 1.029 0 0 0-.1.34 2.06 2.06 0 0 0-.004.597c.027.142.057.273.057.273l.084.027z"/></g><path class="st8" d="M324.043 280.133c2.6 6.479 5.559 15.102 10.574 20.001M312.998 288.442c.857 3.006 2.988 5.493 3.826 8.765M275.057 348.457c-.895 2.986 5.502 15.551 6.979 19.553M259.527 345.561c.93 3.237 2.07 6.842 3.375 10.115M242.131 298.606a31.372 31.372 0 0 1 2.479 10.562M227.959 298.421c4.627 7.534 7.326 17.693 7.654 26.521"/></g></svg>