<svg xmlns="http://www.w3.org/2000/svg" width="404" height="478" viewBox="0 0 404 478"><path fill="none" stroke="#000" stroke-miterlimit="10" stroke-dasharray="6" d="M382.191 209.902c0 99.433-80.607 180.04-180.039 180.04-99.436 0-180.043-80.607-180.043-180.04 0-99.434 80.608-180.044 180.043-180.044 99.432 0 180.039 80.611 180.039 180.044z"/><path fill="#DF5F5C" d="M359.691 209.902c0 87.007-70.533 157.541-157.539 157.541-87.01 0-157.544-70.534-157.544-157.541 0-87.008 70.534-157.545 157.544-157.545 87.006 0 157.539 70.538 157.539 157.545z"/><path fill="none" stroke="#000" stroke-miterlimit="10" stroke-dasharray="6" d="M202.951 397.575c0 23.317-.109 19.372-.098 42.425"/><path fill="#5BA1BF" d="M69.406 216.262c4.207 2.846 2.264 18.337 2.835 23.922.851 8.312 1.187 16.771 2.435 25.14 1.114 7.48 1.238 15.448 2.026 23.114.772 7.489 2.97 14.6 4.382 21.896 1.213 6.272 2.217 16.085.048 22.177a89.193 89.193 0 0 0 1.247-3.406c-.414.877-.74 2.107-1.174 3.04 7.044-1.695 15.773-1.572 23.065-2.261 7.276-.685 14.17-2.326 21.472-3.333 17.568-2.426 34.058-11.678 51.924-12.565 6.489-.325 16.724 2.35 22.241-.886-2.092-8.12-3.086-17.22-3.188-25.887-.041-3.83-.307-7.839-.008-11.649.312-3.957 2.143-9.12 1.227-13.075-1.023-4.411-7.044-5.109-10.453-7.808-3.172-2.51-3.72-5.612-7.377-7.896-6.977-4.352-14.097-8.338-21.122-12.648-7.792-4.785-14.731-10.379-22.658-14.941-6.876-3.959-13.245-12.395-21.096-8.302-6.052 3.152-9.96 5.378-17.443 5.37-3.599-.003-7.776.584-11.263-.091-3.698-.713-5.097-1.962-9.015-1.511-1.8.209-7.51.702-6.89 1.197M129.008 134.36c2.157 5.192-7.515 18.452-9.752 23.517-2.739 6.193-5.814 12.184-7.906 18.652-1.33 4.113-6.835 11.853-7.279 15.628-.679 5.824 15.832 9.295 22.322 12.978 35.591 20.189 66.666 46.96 99.751 70.958 19.691 14.285 39.455 27.243 59.43 40.768 12.848 8.694 21.508 6.846 34.77-.042 6.039-3.139 11.76-7.257 17.904-10.36 8.078-4.079 9.631-4.154 12.102-12.347 3.672-12.187 8.043-22.697 14.031-34.013 2.291-4.326 3.965-8.958 7.648-12.17-5.314-6.914-10.945-8.115-8.014-18.156.322-.273.348-.251.078.059-12.131 3.084-18.637-8.13-26.498-13.604-7.246-5.048-17.197-5.904-25.193-11.52 1.906-1.973 2.43-4.54 2.996-6.968-5.529.903-11.826.795-17.066-1.891-5.344-2.735-8.711-10.543-13.016-12.671-2.619-1.296-4.527 1.52-6.287.689-2.715-1.286-4.242-3.472-6.484-5.717-5.203-5.207-4.697 3.186-6.607-3.93-9.281 1.171-12.545-10.705-20.219-16.972-3.996-3.259-8.42-10.656-13.094-4.32-3.973-2.812-13.594-7.582-16.945-11.268 1.125-1.011 1.477-5.358 2.449-6.306-11.4-4.262-23.406-1.813-29.944-15.332-.137 1.581-1.426 2.934-1.764 4.521-10.313-3.612-15.744-10.324-25.786-3.201-2.606 1.845-1.405 3.158-4.866 4.907-1.282.646-5.685 1.107-7.302 1.442-4.446.919-13.458 1.002-15.405 4.233"/><path fill="#363636" d="M302.438 314.859l1.465-.591c.924-.399 2.303-.858 3.826-1.611 1.541-.714 3.348-1.544 5.266-2.521 1.92-.974 3.967-2.008 6.01-3.045 2.043-1.051 4.092-2.1 6.008-3.085 1.926-.965 3.688-1.949 5.264-2.642 3.135-1.438 5.365-2.119 5.365-2.119s-1.857 1.416-4.855 3.123c-1.494.879-3.285 1.771-5.176 2.8-1.902 1.009-3.932 2.092-5.957 3.171-2.043 1.096-4.088 2.099-6.027 3.065a88.995 88.995 0 0 1-5.379 2.507c-1.588.741-2.949 1.156-3.887 1.537-.939.351-1.475.556-1.475.556l-.448-1.145zM81.396 325.715l.869-.37a21.384 21.384 0 0 1 2.663-.787c2.294-.567 5.614-.936 9.549-1.175 1.989-.139 4.048-.278 6.296-.636 2.237-.308 4.601-.635 7.045-.975 4.888-.648 10.104-1.347 15.318-2.041 20.855-2.791 41.76-5.246 41.76-5.246 0-.002-20.786 3.324-41.617 6.31-5.209.757-10.412 1.521-15.295 2.23-2.435.357-4.797.707-7.034 1.03-2.215.371-4.426.542-6.37.694-3.932.305-7.171.609-9.371 1.084-1.11.222-1.929.488-2.474.666-.572.229-.877.348-.877.348l-.462-1.132zM164.69 260.944c1.819-.392 3.647-.676 5.478-1.017l5.499-.844c3.667-.555 7.347-.988 11.028-1.406l.858-.102.046.863c.39 7.233.775 14.463 1.032 21.699.281 7.238.531 14.478.607 21.725-.739-7.211-1.308-14.43-1.849-21.654-.559-7.221-.988-14.447-1.42-21.677l.905.765c-3.685.4-7.37.781-11.071 1.051l-5.548.382c-1.855.068-3.702.197-5.565.215zM109.036 231.479s-.098.285-.289.766c-.093.24-.312.494-.521.815-.212.334-.533.593-.863.928a10.566 10.566 0 0 1-2.669 1.632c-1.035.494-2.214.798-3.39 1.088-1.191.209-2.385.394-3.519.403a16.667 16.667 0 0 1-3.082-.181c-.9-.149-1.617-.398-2.112-.583-.481-.228-.737-.368-.737-.368s.303.043.803.141c.507.073 1.235.099 2.1.109.874-.036 1.878-.07 2.958-.199.538-.045 1.087-.145 1.65-.222.565-.062 1.125-.207 1.691-.306.556-.136 1.122-.232 1.662-.403.542-.154 1.08-.293 1.579-.482a15.07 15.07 0 0 0 2.651-1.197c.327-.253.71-.434.94-.664.242-.236.506-.41.652-.624.307-.416.496-.653.496-.653zM104.127 206.929s-.098.282-.296.765c-.086.241-.309.494-.515.818-.216.331-.536.588-.865.921a10.617 10.617 0 0 1-2.67 1.637c-1.038.494-2.214.795-3.389 1.085-1.189.214-2.386.398-3.518.402a16.567 16.567 0 0 1-3.087-.178 10.881 10.881 0 0 1-2.109-.581c-.482-.228-.737-.371-.737-.371s.304.044.799.143c.511.075 1.237.097 2.104.104.87-.033 1.876-.066 2.956-.196.54-.042 1.089-.142 1.649-.222.564-.062 1.126-.207 1.69-.308.557-.135 1.125-.229 1.664-.399.542-.154 1.078-.293 1.576-.484a14.6 14.6 0 0 0 2.652-1.197c.326-.251.708-.432.943-.666.242-.235.505-.406.652-.626.313-.416.501-.647.501-.647z"/><path fill="#363636" d="M183.511 263.381s-.038 1.808.006 4.494c.046 2.669.188 6.285.21 9.898-.055 1.807-.007 3.616-.186 5.306-.072.845-.113 1.665-.203 2.433-.124.771-.242 1.494-.353 2.164-.102.672-.195 1.282-.372 1.806-.155.526-.287.987-.396 1.371l-.34 1.188s.097-.438.274-1.21c.084-.378.19-.844.312-1.38.148-.527.208-1.142.269-1.812.071-.666.15-1.39.23-2.158.041-.769.039-1.583.061-2.421.08-1.674-.069-3.475-.112-5.263-.228-3.585-.573-7.154-.776-9.88-.197-2.709-.258-4.5-.258-4.5l1.634-.036z"/><path fill="#5493A5" d="M62.933 214.022c.125 8.576 1.126 17.448 11.02 23.735 11.256 7.152 27.025 14.222 40.156 15.544 24.125 2.419 45.93 6.104 69.618.005-21.038-9.221-35.807-27.312-53.935-40.646-7.109-5.229-13.725-5.919-20.716-5.286-6.584-4.538-14.485-5.139-20.497-4.538-2.46.247-10.641 2.457-13.92 8.976-9.038 1.771-16.777 4.979-10.634 10.941"/><path opacity=".2" fill="#CACACA" d="M146.344 255.859l-65.405-29.834 37.483-18.392s67.157 46.498 65.305 45.67c-1.849-.83-37.383 2.556-37.383 2.556z"/><path fill="#5493A5" d="M113.949 251.121c3.016-5.293 9.703-8.147 9.718-15.384-3.35-2.635-7.082-4.594-11.356-4.258M109.856 222.477c8.238 1.597 8.718-15.291.123-12.971-.522 4.645 2.562 7.308-.123 11.335"/><path opacity=".2" fill="#DBDBDB" d="M183.507 251.629l-37.257 4.23 46.958 23.083v-20.477zM193.208 258.465v20.477l97.687 47.985z"/><path fill="#5493A5" d="M371.201 244.575l-12.959-9.412 5.318-9.413-14.322-13.093-17.186-5.321-6.08 8.229-17.963-11.52 2.352-7.754s-1.859-7.571-12.271-14.732c-6.549-4.502-18.008-3.275-18.008-3.275l-4.418 5.018-17.076-10.952 3.492-6.886s-4.336-9.983-12.277-14.186c-6.957-3.682-16.641-3.82-16.641-3.82l-4.902 5.438-16.93-10.86 4.371-6.034s-5.941-7.758-12.957-13.371c-6.137-4.91-16.506-4.09-16.506-4.09l-5.436 6.294-27.299 2.438s35.465 32.733 44.19 33.28c8.736.545 54.018 26.732 57.838 30.007s56.195 37.646 64.383 40.921c8.18 3.273 33.826 22.371 38.189 20.732 4.366-1.638 13.098-7.638 13.098-7.638z"/><path fill="#5493A5" d="M176.419 153.462c2.854-.86 9.313-1.065 10.791-4.503 1.758-4.092-2.892-5.783-6.328-5.772-.815 3.036-1.905 5.918-3.373 8.637M225.523 184.561c2.83-.201 11.092-3.456 8.076-8.075-3.213-4.911-5.836 3.429-6.984 4.8M277.357 216.751c2.791-1.651 9.914-1.573 11.59-4.887 2.285-4.511-4.65-5.577-8.232-5.397-.119 3.021-2.08 5.896-3.357 8.102M329.191 251.668c4.074.78 13.354-3.288 10.498-9.41-4.111-8.812-7.332 3.534-9.953 5.047M353.195 243.484c9.266 5.915 3.338-12.519 1.092-2.184M301.91 211.838c1.828 1.197 10.373 1.363 8.074-4.242-2.479-6.055-5.992.477-7.529 2.607M257.717 173.102c2.658 1.417 4.594 5.386 4.838 8.09-3.053.166-6.207.287-9.121-.533-.135-2.229 1.414-4.397 2.646-5.919"/><path fill="#CACACA" d="M208.609 150.73c1.512-.487 4.027.087 6.002 1.148 4.402-3.109-2.629-10.59-6.002-3.874"/><path fill="none" d="M312.82 265.854l-129.309-91.661"/><path fill="#666" d="M312.348 266.523l-128.837-92.33 129.782 90.991z"/><path fill="#5493A5" d="M342.283 260.944c3.961 10.22 3.428 21.331 1.736 31.772 7.062-.654 9.168-15.835 12.791-21.157 4.723-6.937 11.363-13.806 10.719-22.786-8.646 1.969-18.27 7.537-26.885 10.535"/><path fill="#3F3F3F" d="M327.17 265.726c-1.312.964-2.152 2.181-2.885 3.456l-2.102 3.884-4.195 7.768-8.379 15.544-8.246 15.613c-2.701 5.23-5.439 10.445-8.086 15.709l-.814 1.623-1.547-1.06L95.319 194.64l-1.175-.802.629-1.276 30.016-61.003 1.067-2.166 1.316 1.526c1.688 1.959 3.77 3.341 5.86 4.705l6.238 4.132 12.485 8.269 24.964 16.532 49.932 33.066 49.936 33.068 51.879 34.081-1.296.954zm-3.158.036l-48.869-32.904-49.803-33.26-49.802-33.26-24.905-16.631-12.447-8.314-6.225-4.157c-2.068-1.399-4.142-2.788-6.605-3.587l2.38-.642-30.019 61.004-.55-2.078 195.597 133.626-2.363.566c3.006-5.062 5.916-10.181 8.863-15.279l8.699-15.372 8.564-15.441 4.275-7.726 2.133-3.861c.446-.853.827-1.733 1.077-2.684z"/><path fill="none" stroke="#3F3F3F" stroke-width="2.004" stroke-miterlimit="10" d="M291.84 326.91l49.383-24.205 30.984-56.163-46.478 18.398M357.275 237.093l14.932 9.449M306.943 205.254l17.993 11.383M257.449 173.941l17.94 11.349M211.584 144.924l15.621 9.88M126.261 132.281l22.789-2.357"/><path fill="#3F3F3F" d="M194.709 260.007l2.902 53.259.082 1.469-1.451.237-120.065 19.85-1.772.295-.128-1.771a3085.265 3085.265 0 0 0-2.684-33.668L70.2 282.85l-.697-8.414c-.257-2.805-.346-5.62-1.039-8.387l-.399-1.593 1.84-.179 14.438-1.386 14.433-1.46 28.844-3.079 28.819-3.281c4.803-.561 9.608-1.057 14.404-1.7 4.785-.675 9.562-1.465 14.285-2.647l.384 3.255c-4.872-.051-9.704.287-14.516.741-4.809.484-9.6 1.12-14.401 1.692l-28.794 3.493-28.772 3.698-14.374 1.933-14.365 2.003 1.441-1.773c-.206 2.843.188 5.634.416 8.44l.753 8.409 1.511 16.819c.988 11.215 2.02 22.425 3.131 33.63l-1.901-1.478 120.065-19.85-1.367 1.708-2.904-53.258 3.274-.179z"/><path fill="none" stroke="#3F3F3F" stroke-width="2.004" stroke-miterlimit="10" d="M110.476 209.98l9.975-1.203"/><path fill="#3F3F3F" d="M68.472 266.098l-1.154-12.623-1.279-12.607-1.385-12.596-.697-6.299c-.234-2.1-.394-4.207-1.299-6.229l-.692-1.558 2.127-.259 10.249-1.237.392 3.257-10.247 1.238 1.43-1.815c-.416 2.174-.094 4.259.159 6.36l.757 6.288 1.52 12.586 1.625 12.565 1.753 12.552-3.259.377z"/><g fill="none" stroke="#3F3F3F" stroke-miterlimit="10"><path stroke-width="1.743" d="M114.88 232.696l1.039 15.625M78.424 235.133l1.152 15.305"/><path stroke-width="2.043" d="M96.329 225.753c9.901-.573 18.108 2.104 18.335 5.983.226 3.877-7.616 7.49-17.518 8.068-9.904.575-18.11-2.101-18.336-5.982-.227-3.879 7.615-7.49 17.519-8.069zM115.614 247.682c.229 3.874-7.619 7.49-17.521 8.066-9.899.575-18.107-2.104-18.336-5.98"/></g><g fill="none" stroke="#3F3F3F" stroke-miterlimit="10"><path stroke-width="1.743" d="M139.431 227.87l1.149 15.305"/><path stroke-width="2.043" d="M155.063 232.612c-8.458-.087-15.033-2.592-15.233-6.059-.057-.969.391-1.922 1.251-2.815M172.33 245.363c-3.196 1.626-7.917 2.815-13.232 3.122-9.9.576-18.113-2.101-18.336-5.982"/></g><g fill="none" stroke="#3F3F3F" stroke-miterlimit="10"><path stroke-width="1.743" d="M110.521 209.459l1.043 15.626M74.068 211.896l1.15 15.302"/><path stroke-width="2.043" d="M91.968 202.512c9.905-.577 18.118 2.103 18.344 5.986.225 3.876-7.621 7.491-17.523 8.065-9.904.577-18.113-2.103-18.34-5.982-.225-3.878 7.621-7.494 17.519-8.069zM79.762 230.762c-2.632-1.066-4.265-2.536-4.359-4.235"/></g><g fill="none" stroke="#3F3F3F" stroke-width="1.989" stroke-miterlimit="10"><path d="M272.383 186.849c9.221 5.115 15.428 11.55 13.861 14.374-1.568 2.822-10.312.966-19.531-4.148-9.223-5.119-15.43-11.548-13.863-14.373 1.572-2.825 10.312-.968 19.533 4.147z"/><path d="M286.254 201.231l-7.262 14.524c-1.564 2.823-10.312.967-19.529-4.148-9.227-5.113-15.43-11.551-13.861-14.373l7.262-14.522"/></g><g fill="none" stroke="#3F3F3F" stroke-width="1.958" stroke-miterlimit="10"><path d="M348.549 213.293c8.932 4.952 14.908 11.262 13.342 14.084-1.564 2.824-10.076 1.098-19.016-3.859-8.936-4.955-14.908-11.261-13.344-14.086 1.569-2.823 10.078-1.094 19.018 3.861zM324.57 219.271l4.916-9.808"/><path d="M361.844 227.412l-7.281 14.514c-1.502 2.712-9.453 1.276-17.963-3.293"/></g><g fill="none" stroke="#3F3F3F" stroke-width="1.93" stroke-miterlimit="10"><path d="M298.16 181.652c8.684 4.812 14.451 11.006 12.885 13.827-1.564 2.823-9.869 1.21-18.551-3.607-8.68-4.815-14.449-11.003-12.887-13.828 1.569-2.822 9.873-1.207 18.553 3.608zM274.543 188.159l5.088-10.106"/><path d="M311.066 195.487l-7.295 14.505c-1.566 2.823-9.879 1.21-18.559-3.604"/></g><g fill="none" stroke="#3F3F3F" stroke-width="1.898" stroke-miterlimit="10"><path d="M261.748 165.021c-1.568 2.822-9.648 1.337-18.037-3.318-8.402-4.656-13.936-10.719-12.369-13.541 1.562-2.828 9.643-1.341 18.041 3.313 8.394 4.659 13.929 10.721 12.365 13.546zM226.412 157.924l4.93-9.762"/><path d="M261.748 165.021l-7.318 14.493c-1.562 2.823-9.646 1.339-18.037-3.32a49.207 49.207 0 0 1-4.375-2.722"/></g><g fill="none" stroke="#3F3F3F" stroke-width="1.858" stroke-miterlimit="10"><path d="M202.9 122.366c8.396 4.657 13.986 10.625 12.486 13.329-1.5 2.707-9.523 1.123-17.916-3.531-8.397-4.658-13.988-10.625-12.491-13.331 1.504-2.704 9.524-1.123 17.921 3.533zM180.65 127.52l4.361-8.681"/><path d="M215.414 135.699l-6.982 13.899c-1.502 2.703-9.523 1.123-17.917-3.534-2.479-1.373-4.711-2.862-6.59-4.346"/></g><g fill="none" stroke="#3F3F3F" stroke-width="1.938" stroke-miterlimit="10"><path d="M221.08 155.416c8.75 4.852 14.576 11.076 13.006 13.899-1.564 2.822-9.928 1.179-18.676-3.674-8.75-4.853-14.578-11.076-13.01-13.9 1.567-2.824 9.93-1.179 18.68 3.675z"/><path d="M234.068 169.334l-7.291 14.508c-1.566 2.823-9.93 1.178-18.682-3.675-8.75-4.854-14.568-11.076-13.005-13.9l7.292-14.507"/></g><g fill="none" stroke="#3F3F3F" stroke-width="1.938" stroke-miterlimit="10"><ellipse transform="rotate(-60.988 170.272 128.59)" cx="170.275" cy="128.588" rx="5.847" ry="18.116"/><path d="M186.139 137.378l-7.291 14.512c-1.564 2.822-9.93 1.179-18.681-3.674-8.75-4.855-14.573-11.079-13.004-13.9l7.289-14.509"/></g><g fill="none" stroke="#3F3F3F" stroke-width="1.958" stroke-miterlimit="10"><path d="M325.242 220.575c8.938 4.956 14.91 11.266 13.344 14.088-1.566 2.825-10.078 1.098-19.016-3.861-8.934-4.954-14.908-11.261-13.342-14.085 1.565-2.823 10.079-1.092 19.014 3.858z"/><path d="M338.607 234.672l-7.283 14.511c-1.562 2.825-10.082 1.098-19.016-3.856-8.938-4.953-14.906-11.263-13.342-14.085l7.283-14.514"/></g><path fill="#383838" d="M124.404 147.073l-.262 2.261c-.086.717-.172 1.591-.443 2.573-.258.977-.444 2.129-.866 3.303-.423 1.167-.805 2.475-1.359 3.791-.572 1.307-1.076 2.739-1.806 4.112-1.35 2.811-2.936 5.726-4.559 8.61l-2.476 4.252c-.778 1.428-1.539 2.838-2.278 4.2-.689 1.378-1.355 2.709-1.985 3.977-.647 1.255-1.186 2.486-1.708 3.609-2.08 4.498-3.471 7.499-3.471 7.499s.275-.783.762-2.145c.506-1.354 1.179-3.312 2.127-5.61.47-1.152.95-2.408 1.542-3.707.588-1.301 1.163-2.702 1.866-4.088.719-1.371 1.461-2.795 2.215-4.236.797-1.422 1.611-2.866 2.425-4.313 1.665-2.852 3.28-5.723 4.661-8.479.727-1.365 1.305-2.735 1.932-4 .607-1.277 1.04-2.546 1.516-3.679.456-1.148.722-2.236 1.055-3.186.345-.939.5-1.809.643-2.519.296-1.414.469-2.225.469-2.225z"/><path fill="#383838" d="M104.618 191.939s.195.229.547.624c.176.187.376.475.64.69l.867.786c.69.562 1.522 1.209 2.431 1.886a35.663 35.663 0 0 0 2.924 1.958c2.071 1.241 4.188 2.448 5.65 3.536.359.285.688.541.975.774.297.222.508.472.704.645.382.367.598.58.598.58s-.229-.195-.63-.544c-.206-.164-.431-.397-.738-.6-.301-.211-.638-.449-1.011-.708-1.514-.996-3.672-2.069-5.823-3.19a38.329 38.329 0 0 1-3.1-1.818 73.168 73.168 0 0 1-2.574-1.771c-.373-.302-.714-.577-1.013-.821-.317-.239-.501-.485-.697-.671a47.472 47.472 0 0 1-.585-.595l.835-.761z"/><g><path fill="#363636" d="M108.344 190.022s.831-1.667 2.163-4.123c.679-1.221 1.442-2.662 2.312-4.175.874-1.512 1.804-3.124 2.728-4.742.959-1.595 1.916-3.191 2.812-4.689s1.786-2.868 2.521-4.056c1.497-2.368 2.557-3.915 2.557-3.915s-.823 1.665-2.145 4.121c-.679 1.225-1.436 2.67-2.305 4.184-.867 1.516-1.797 3.136-2.721 4.753-.961 1.595-1.922 3.191-2.824 4.685-.901 1.501-1.797 2.869-2.534 4.057a151.102 151.102 0 0 1-2.564 3.9z"/></g></svg>