<svg xmlns="http://www.w3.org/2000/svg" width="404" height="478" viewBox="0 0 404 478"><path d="M203.053 390.44l-.005-1c1.972-.009 3.983-.051 5.978-.127l.038 1c-2.005.076-4.028.119-6.011.127zm-6.014-.069a188.68 188.68 0 0 1-6.009-.266l.061-.998c1.994.12 4.004.209 5.976.264l-.028 1zm18.031-.384l-.07-.998a182.29 182.29 0 0 0 5.958-.52l.104.994c-1.979.207-3.995.383-5.992.524zm-30.036-.345a184.118 184.118 0 0 1-5.978-.662l.126-.992c1.982.253 3.983.475 5.946.658l-.094.996zm41.999-.901l-.137-.99a180.18 180.18 0 0 0 5.911-.916l.17.986c-1.979.34-3.979.65-5.944.92zm-53.93-.624a179.754 179.754 0 0 1-5.92-1.059l.192-.98c1.962.383 3.943.737 5.889 1.053l-.161.986zm65.784-1.415l-.203-.979c1.95-.404 3.914-.845 5.836-1.31l.235.973a178.92 178.92 0 0 1-5.868 1.316zm-77.587-.901a180.114 180.114 0 0 1-5.836-1.453l.258-.967c1.92.513 3.873.999 5.804 1.445l-.226.975zm89.277-1.928l-.268-.963a180.493 180.493 0 0 0 5.736-1.697l.3.954a179.137 179.137 0 0 1-5.768 1.706zm-100.898-1.175a181.654 181.654 0 0 1-5.745-1.849l.322-.946c1.891.643 3.813 1.261 5.713 1.838l-.29.957zm112.374-2.431l-.332-.943c1.877-.66 3.765-1.359 5.609-2.079l.363.932a181.51 181.51 0 0 1-5.64 2.09zm-123.798-1.457a182.883 182.883 0 0 1-5.604-2.229l.385-.923a179.87 179.87 0 0 0 5.573 2.217l-.354.935zm134.988-2.903l-.395-.919a181.293 181.293 0 0 0 5.442-2.442l.425.905a183.309 183.309 0 0 1-5.472 2.456zm-146.115-1.742a179.526 179.526 0 0 1-5.438-2.6l.446-.895c1.778.887 3.598 1.757 5.408 2.585l-.416.91zm156.976-3.352l-.454-.891a177.55 177.55 0 0 0 5.271-2.801l.484.875c-1.747.966-3.53 1.914-5.301 2.817zm-167.762-2.026a183.15 183.15 0 0 1-5.25-2.956l.505-.863a176.456 176.456 0 0 0 5.221 2.939l-.476.88zm178.267-3.785l-.513-.858a183.597 183.597 0 0 0 5.075-3.147l.541.841a179.447 179.447 0 0 1-5.103 3.164zm-188.664-2.3a179.686 179.686 0 0 1-5.039-3.298l.562-.827a181.408 181.408 0 0 0 5.011 3.279l-.534.846zm198.764-4.198l-.568-.822a182.474 182.474 0 0 0 4.858-3.479l.596.803a184.55 184.55 0 0 1-4.886 3.498zm-208.728-2.563a184.045 184.045 0 0 1-4.807-3.625l.615-.788a181.965 181.965 0 0 0 4.78 3.604l-.588.809zm218.38-4.596l-.622-.783a180.396 180.396 0 0 0 4.619-3.795l.647.762a184.144 184.144 0 0 1-4.644 3.816zm-227.868-2.808a182.36 182.36 0 0 1-4.554-3.933l.666-.746a180.385 180.385 0 0 0 4.529 3.912l-.641.767zm237.028-4.976l-.673-.74a177.42 177.42 0 0 0 4.359-4.095l.696.718a183.41 183.41 0 0 1-4.382 4.117zm-246.002-3.038a183.4 183.4 0 0 1-4.282-4.225l.714-.7a183.32 183.32 0 0 0 4.258 4.201l-.69.724zm254.629-5.34l-.72-.694a181.374 181.374 0 0 0 4.081-4.375l.742.67a181.207 181.207 0 0 1-4.103 4.399zm-263.05-3.247a180.982 180.982 0 0 1-3.992-4.497l.759-.651a182.817 182.817 0 0 0 3.969 4.472l-.736.676zm271.11-5.687l-.765-.645a180.688 180.688 0 0 0 3.783-4.638l.785.619a180.55 180.55 0 0 1-3.803 4.664zm-278.941-3.435a181.56 181.56 0 0 1-3.683-4.749l.8-.6a181.299 181.299 0 0 0 3.664 4.723l-.781.626zm286.391-6.017l-.806-.593a181.792 181.792 0 0 0 3.469-4.88l.824.565a180.017 180.017 0 0 1-3.487 4.908zm-293.597-3.599a181.512 181.512 0 0 1-3.359-4.981l.838-.545a181.746 181.746 0 0 0 3.34 4.953l-.819.573zm300.407-6.331l-.843-.538a180.598 180.598 0 0 0 3.137-5.103l.86.51a178 178 0 0 1-3.154 5.131zM47.512 303.13a184.297 184.297 0 0 1-3.02-5.19l.873-.488a179.824 179.824 0 0 0 3.002 5.161l-.855.517zm313.092-6.628l-.877-.48a180.517 180.517 0 0 0 2.79-5.304l.893.451a180.243 180.243 0 0 1-2.806 5.333zm-318.955-3.848a180.005 180.005 0 0 1-2.665-5.376l.903-.429a177.998 177.998 0 0 0 2.65 5.346l-.888.459zm324.388-6.91l-.907-.421a181.556 181.556 0 0 0 2.43-5.481l.921.39c-.78 1.84-1.602 3.694-2.444 5.512zm-329.536-3.927a178.984 178.984 0 0 1-2.299-5.539l.93-.368c.73 1.845 1.5 3.698 2.286 5.508l-.917.399zm334.237-7.178l-.934-.358a176.196 176.196 0 0 0 2.057-5.635l.945.327a178.133 178.133 0 0 1-2.068 5.666zm-338.654-3.991a176.604 176.604 0 0 1-1.928-5.698l.952-.305c.604 1.89 1.25 3.796 1.917 5.667l-.941.336zm342.599-7.411l-.955-.295a180.57 180.57 0 0 0 1.668-5.744l.965.263a179.985 179.985 0 0 1-1.678 5.776zM28.42 259.192a183.17 183.17 0 0 1-1.542-5.814l.971-.24c.475 1.922.991 3.867 1.533 5.782l-.962.272zm349.424-7.561l-.973-.23c.456-1.927.886-3.893 1.279-5.843l.98.197a175.748 175.748 0 0 1-1.286 5.876zm-352.311-4.116c-.413-1.95-.8-3.937-1.148-5.904l.984-.175c.347 1.957.731 3.932 1.142 5.872l-.978.207zm354.688-7.675l-.986-.165c.327-1.961.625-3.951.886-5.916l.991.132a180.83 180.83 0 0 1-.891 5.949zm-356.787-4.168a180.007 180.007 0 0 1-.751-5.967l.994-.108c.215 1.975.467 3.972.748 5.934l-.991.141zm358.37-7.755l-.995-.099c.195-1.968.36-3.974.491-5.961l.998.065a184.362 184.362 0 0 1-.494 5.995zm-359.675-4.201c-.15-1.988-.27-4.008-.355-6.004l.999-.043c.084 1.985.204 3.994.353 5.972l-.997.075zm360.464-7.8l-.999-.033a182.735 182.735 0 0 0 .063-9.576l1-.02a187.677 187.677 0 0 1-.064 9.629zm-360.975-4.212a180.258 180.258 0 0 1 .039-6.015l1 .023a182.46 182.46 0 0 0-.039 5.982l-1 .01zm359.822-11.376a181.563 181.563 0 0 0-.412-5.968l.996-.086c.171 1.992.311 4.011.415 6.001l-.999.053zm-358.548-.593l-.998-.056c.111-1.995.257-4.013.434-5.999l.996.089a179.81 179.81 0 0 0-.432 5.966zm357.526-11.324a181.769 181.769 0 0 0-.807-5.927l.988-.151c.302 1.972.575 3.978.812 5.96l-.993.118zm-356.465-.589l-.992-.122c.244-1.993.524-3.997.832-5.957l.988.155a178.12 178.12 0 0 0-.828 5.924zm354.653-11.235c-.366-1.948-.77-3.92-1.202-5.86l.977-.217c.434 1.951.84 3.933 1.208 5.892l-.983.185zm-352.802-.582l-.982-.188c.375-1.961.788-3.943 1.228-5.889l.976.221a175.753 175.753 0 0 0-1.222 5.856zm350.205-11.093a182.978 182.978 0 0 0-1.592-5.766l.959-.282a182.321 182.321 0 0 1 1.601 5.798l-.968.25zm-347.567-.575l-.968-.253a178.247 178.247 0 0 1 1.621-5.793l.958.285a177.684 177.684 0 0 0-1.611 5.761zm344.191-10.9a179.881 179.881 0 0 0-1.975-5.646l.938-.346a182.833 182.833 0 0 1 1.986 5.678l-.949.314zm-340.778-.563l-.948-.317c.633-1.892 1.31-3.806 2.011-5.688l.938.349a177.04 177.04 0 0 0-2.001 5.656zm336.64-10.66a180.167 180.167 0 0 0-2.342-5.485l.913-.408a179.658 179.658 0 0 1 2.354 5.516l-.925.377zm-332.451-.581l-.925-.381c.76-1.848 1.563-3.711 2.388-5.537l.911.411a180.109 180.109 0 0 0-2.374 5.507zm327.585-10.309a179.558 179.558 0 0 0-2.705-5.32l.884-.468a179.084 179.084 0 0 1 2.719 5.349l-.898.439zm-322.654-.619l-.897-.441c.88-1.788 1.806-3.592 2.752-5.362l.882.472a180.01 180.01 0 0 0-2.737 5.331zm317.068-9.929a183.46 183.46 0 0 0-3.055-5.131l.851-.525a179.334 179.334 0 0 1 3.071 5.16l-.867.496zm-311.419-.638l-.865-.501a180.414 180.414 0 0 1 3.103-5.163l.849.529a178.492 178.492 0 0 0-3.087 5.135zm305.14-9.522a180.184 180.184 0 0 0-3.39-4.919l.813-.581a181.527 181.527 0 0 1 3.409 4.947l-.832.553zm-298.8-.64l-.83-.558a185.736 185.736 0 0 1 3.438-4.943l.812.585a181.453 181.453 0 0 0-3.42 4.916zm291.858-9.084a180.724 180.724 0 0 0-3.71-4.686l.773-.634a180.602 180.602 0 0 1 3.731 4.712l-.794.608zm-284.86-.629l-.792-.611a182.792 182.792 0 0 1 3.757-4.702l.771.637a181.199 181.199 0 0 0-3.736 4.676zm277.286-8.618a180.337 180.337 0 0 0-4.015-4.432l.729-.684a182.16 182.16 0 0 1 4.037 4.457l-.751.659zm-269.661-.607l-.749-.662a181.098 181.098 0 0 1 4.059-4.441l.727.687a182.975 182.975 0 0 0-4.037 4.416zm261.487-8.123a183.009 183.009 0 0 0-4.301-4.158l.684-.73a181.123 181.123 0 0 1 4.324 4.182l-.707.706zm-253.271-.573l-.704-.711a185.286 185.286 0 0 1 4.342-4.161l.68.733a185.342 185.342 0 0 0-4.318 4.139zm244.534-7.6a183.49 183.49 0 0 0-4.568-3.866l.633-.773c1.54 1.26 3.084 2.567 4.593 3.887l-.658.752zm-235.764-.53l-.655-.756a182.307 182.307 0 0 1 4.606-3.862l.63.776a178.966 178.966 0 0 0-4.581 3.842zm226.501-7.048a178.042 178.042 0 0 0-4.816-3.556l.58-.814a179.484 179.484 0 0 1 4.843 3.576l-.607.794zm-217.217-.481l-.604-.797c1.593-1.207 3.225-2.4 4.85-3.548l.577.816a181.204 181.204 0 0 0-4.823 3.529zm207.469-6.47a177.809 177.809 0 0 0-5.044-3.229l.525-.852a182.106 182.106 0 0 1 5.072 3.248l-.553.833zm-197.71-.423l-.55-.836a183.33 183.33 0 0 1 5.072-3.216l.521.854a182.745 182.745 0 0 0-5.043 3.198zm187.515-5.866a182.95 182.95 0 0 0-5.25-2.887l.467-.884c1.774.937 3.55 1.914 5.28 2.902l-.497.869zm-177.325-.362l-.493-.87a180.242 180.242 0 0 1 5.272-2.871l.464.886c-1.75.915-3.514 1.876-5.243 2.855zm166.73-5.234a179.172 179.172 0 0 0-5.435-2.53l.406-.913c1.832.815 3.67 1.671 5.466 2.544l-.437.899zm-156.155-.298l-.434-.901a179.659 179.659 0 0 1 5.448-2.511l.403.915a182.395 182.395 0 0 0-5.417 2.497zm145.202-4.578a181.772 181.772 0 0 0-5.596-2.161l.345-.938c1.883.691 3.776 1.422 5.627 2.172l-.376.927zm-134.288-.233l-.372-.928a180.09 180.09 0 0 1 5.619-2.147l.341.94a182.598 182.598 0 0 0-5.588 2.135zM258.32 39.32a177.854 177.854 0 0 0-5.712-1.774l.28-.96c1.917.56 3.849 1.161 5.745 1.784l-.313.95zm-111.78-.182l-.31-.951c1.893-.616 3.828-1.21 5.75-1.766l.277.961a178.423 178.423 0 0 0-5.717 1.756zm100.299-3.174a178.33 178.33 0 0 0-5.819-1.387l.216-.977c1.951.431 3.919.9 5.851 1.395l-.248.969zm-88.808-.144l-.245-.97c1.933-.488 3.903-.951 5.855-1.376l.213.978c-1.941.422-3.9.882-5.823 1.368zm77.128-2.434c-1.945-.362-3.93-.697-5.898-.995l.149-.988c1.979.3 3.975.636 5.931 1l-.182.983zm-65.439-.106l-.18-.983c1.962-.358 3.958-.688 5.934-.981l.146.989c-1.964.291-3.95.619-5.9.975zm53.613-1.685c-1.97-.232-3.972-.434-5.951-.6l.084-.996c1.99.167 4.003.37 5.984.603l-.117.993zm-41.782-.068l-.113-.993c1.971-.225 3.985-.421 5.986-.584l.081.997c-1.99.161-3.994.357-5.954.58zm29.863-.933a183.02 183.02 0 0 0-5.978-.206l.018-1c1.998.036 4.02.105 6.011.207l-.051.999zm-17.94-.029l-.048-.999c1.996-.095 4.019-.158 6.013-.187l.015 1c-1.983.029-3.996.091-5.98.186z"/><path fill="#DF5F5C" d="M359.691 209.902c0 87.007-70.533 157.541-157.539 157.541-87.01 0-157.544-70.534-157.544-157.541 0-87.008 70.534-157.545 157.544-157.545 87.006 0 157.539 70.538 157.539 157.545z"/><path d="M203 439h-1v-6h1v6zm.363-11.498l-1-.002c.005-2.333.013-4.23.021-5.983l1 .004c-.008 1.752-.015 3.65-.021 5.981zm.053-11.962l-1-.004c.008-1.733.016-3.643.022-5.982l1 .002c-.006 2.341-.014 4.251-.022 5.984zm.032-11.761l-1 .104.003-5.884h1l-.003 5.78z"/><path fill="#5BA1BF" d="M69.406 216.262c4.207 2.846 2.264 18.337 2.835 23.922.851 8.312 1.187 16.771 2.435 25.14 1.114 7.48 1.238 15.448 2.026 23.114.772 7.489 2.97 14.6 4.382 21.896 1.213 6.272 2.217 16.085.048 22.177a89.193 89.193 0 0 0 1.247-3.406c-.414.877-.74 2.107-1.174 3.04 7.044-1.695 15.773-1.572 23.065-2.261 7.276-.685 14.17-2.326 21.472-3.333 17.568-2.426 34.058-11.678 51.924-12.565 6.489-.325 16.724 2.35 22.241-.886-2.092-8.12-3.086-17.22-3.188-25.887-.041-3.83-.307-7.839-.008-11.649.312-3.957 2.143-9.12 1.227-13.075-1.023-4.411-7.044-5.109-10.453-7.808-3.172-2.51-3.72-5.612-7.377-7.896-6.977-4.352-14.097-8.338-21.122-12.648-7.792-4.785-14.731-10.379-22.658-14.941-6.876-3.959-13.245-12.395-21.096-8.302-6.052 3.152-9.96 5.378-17.443 5.37-3.599-.003-7.776.584-11.263-.091-3.698-.713-5.097-1.962-9.015-1.511-1.8.209-7.51.702-6.89 1.197M129.008 134.36c2.157 5.192-7.515 18.452-9.752 23.517-2.739 6.193-5.814 12.184-7.906 18.652-1.33 4.113-6.835 11.853-7.279 15.628-.679 5.824 15.832 9.295 22.322 12.978 35.591 20.189 66.666 46.96 99.751 70.958 19.691 14.285 39.455 27.243 59.43 40.768 12.848 8.694 21.508 6.846 34.77-.042 6.039-3.139 11.76-7.257 17.904-10.36 8.078-4.079 9.631-4.154 12.102-12.347 3.672-12.187 8.043-22.697 14.031-34.013 2.291-4.326 3.965-8.958 7.648-12.17-5.314-6.914-10.945-8.115-8.014-18.156.322-.273.348-.251.078.059-12.131 3.084-18.637-8.13-26.498-13.604-7.246-5.048-17.197-5.904-25.193-11.52 1.906-1.973 2.43-4.54 2.996-6.968-5.529.903-11.826.795-17.066-1.891-5.344-2.735-8.711-10.543-13.016-12.671-2.619-1.296-4.527 1.52-6.287.689-2.715-1.286-4.242-3.472-6.484-5.717-5.203-5.207-4.697 3.186-6.607-3.93-9.281 1.171-12.545-10.705-20.219-16.972-3.996-3.259-8.42-10.656-13.094-4.32-3.973-2.812-13.594-7.582-16.945-11.268 1.125-1.011 1.477-5.358 2.449-6.306-11.4-4.262-23.406-1.813-29.944-15.332-.137 1.581-1.426 2.934-1.764 4.521-10.313-3.612-15.744-10.324-25.786-3.201-2.606 1.845-1.405 3.158-4.866 4.907-1.282.646-5.685 1.107-7.302 1.442-4.446.919-13.458 1.002-15.405 4.233"/><path fill="#363636" d="M302.438 314.859l1.465-.591c.924-.399 2.303-.858 3.826-1.611 1.541-.714 3.348-1.544 5.266-2.521 1.92-.974 3.967-2.008 6.01-3.045 2.043-1.051 4.092-2.1 6.008-3.085 1.926-.965 3.688-1.949 5.264-2.642 3.135-1.438 5.365-2.119 5.365-2.119s-1.857 1.416-4.855 3.123c-1.494.879-3.285 1.771-5.176 2.8-1.902 1.009-3.932 2.092-5.957 3.171-2.043 1.096-4.088 2.099-6.027 3.065a88.995 88.995 0 0 1-5.379 2.507c-1.588.741-2.949 1.156-3.887 1.537-.939.351-1.475.556-1.475.556l-.448-1.145zM81.396 325.715l.869-.37a21.384 21.384 0 0 1 2.663-.787c2.294-.567 5.614-.936 9.549-1.175 1.989-.139 4.048-.278 6.296-.636 2.237-.308 4.601-.635 7.045-.975 4.888-.648 10.104-1.347 15.318-2.041 20.855-2.791 41.76-5.246 41.76-5.246 0-.002-20.786 3.324-41.617 6.31-5.209.757-10.412 1.521-15.295 2.23-2.435.357-4.797.707-7.034 1.03-2.215.371-4.426.542-6.37.694-3.932.305-7.171.609-9.371 1.084-1.11.222-1.929.488-2.474.666-.572.229-.877.348-.877.348l-.462-1.132zM164.69 260.944c1.819-.392 3.647-.676 5.478-1.017l5.499-.844c3.667-.555 7.347-.988 11.028-1.406l.858-.102.046.863c.39 7.233.775 14.463 1.032 21.699.281 7.238.531 14.478.607 21.725-.739-7.211-1.308-14.43-1.849-21.654-.559-7.221-.988-14.447-1.42-21.677l.905.765c-3.685.4-7.37.781-11.071 1.051l-5.548.382c-1.855.068-3.702.197-5.565.215zM109.036 231.479s-.098.285-.289.766c-.093.24-.312.494-.521.815-.212.334-.533.593-.863.928a10.566 10.566 0 0 1-2.669 1.632c-1.035.494-2.214.798-3.39 1.088-1.191.209-2.385.394-3.519.403a16.667 16.667 0 0 1-3.082-.181c-.9-.149-1.617-.398-2.112-.583-.481-.228-.737-.368-.737-.368s.303.043.803.141c.507.073 1.235.099 2.1.109.874-.036 1.878-.07 2.958-.199.538-.045 1.087-.145 1.65-.222.565-.062 1.125-.207 1.691-.306.556-.136 1.122-.232 1.662-.403.542-.154 1.08-.293 1.579-.482a15.07 15.07 0 0 0 2.651-1.197c.327-.253.71-.434.94-.664.242-.236.506-.41.652-.624.307-.416.496-.653.496-.653zM104.127 206.929s-.098.282-.296.765c-.086.241-.309.494-.515.818-.216.331-.536.588-.865.921a10.617 10.617 0 0 1-2.67 1.637c-1.038.494-2.214.795-3.389 1.085-1.189.214-2.386.398-3.518.402a16.567 16.567 0 0 1-3.087-.178 10.881 10.881 0 0 1-2.109-.581c-.482-.228-.737-.371-.737-.371s.304.044.799.143c.511.075 1.237.097 2.104.104.87-.033 1.876-.066 2.956-.196.54-.042 1.089-.142 1.649-.222.564-.062 1.126-.207 1.69-.308.557-.135 1.125-.229 1.664-.399.542-.154 1.078-.293 1.576-.484a14.6 14.6 0 0 0 2.652-1.197c.326-.251.708-.432.943-.666.242-.235.505-.406.652-.626.313-.416.501-.647.501-.647z"/><path fill="#363636" d="M183.511 263.381s-.038 1.808.006 4.494c.046 2.669.188 6.285.21 9.898-.055 1.807-.007 3.616-.186 5.306-.072.845-.113 1.665-.203 2.433-.124.771-.242 1.494-.353 2.164-.102.672-.195 1.282-.372 1.806-.155.526-.287.987-.396 1.371l-.34 1.188s.097-.438.274-1.21c.084-.378.19-.844.312-1.38.148-.527.208-1.142.269-1.812.071-.666.15-1.39.23-2.158.041-.769.039-1.583.061-2.421.08-1.674-.069-3.475-.112-5.263-.228-3.585-.573-7.154-.776-9.88-.197-2.709-.258-4.5-.258-4.5l1.634-.036z"/><path fill="#5493A5" d="M62.933 214.022c.125 8.576 1.126 17.448 11.02 23.735 11.256 7.152 27.025 14.222 40.156 15.544 24.125 2.419 45.93 6.104 69.618.005-21.038-9.221-35.807-27.312-53.935-40.646-7.109-5.229-13.725-5.919-20.716-5.286-6.584-4.538-14.485-5.139-20.497-4.538-2.46.247-10.641 2.457-13.92 8.976-9.038 1.771-16.777 4.979-10.634 10.941"/><path fill="#CACACA" d="M146.344 255.859l-65.405-29.834 37.483-18.392s67.157 46.498 65.305 45.67c-1.849-.83-37.383 2.556-37.383 2.556z" opacity=".2"/><path fill="#5493A5" d="M113.949 251.121c3.016-5.293 9.703-8.147 9.718-15.384-3.35-2.635-7.082-4.594-11.356-4.258M109.856 222.477c8.238 1.597 8.718-15.291.123-12.971-.522 4.645 2.562 7.308-.123 11.335"/><path fill="#DBDBDB" d="M183.507 251.629l-37.257 4.23 46.958 23.083v-20.477zM193.208 258.465v20.477l97.687 47.985z" opacity=".2"/><path fill="#5493A5" d="M371.201 244.575l-12.959-9.412 5.318-9.413-14.322-13.093-17.186-5.321-6.08 8.229-17.963-11.52 2.352-7.754s-1.859-7.571-12.271-14.732c-6.549-4.502-18.008-3.275-18.008-3.275l-4.418 5.018-17.076-10.952 3.492-6.886s-4.336-9.983-12.277-14.186c-6.957-3.682-16.641-3.82-16.641-3.82l-4.902 5.438-16.93-10.86 4.371-6.034s-5.941-7.758-12.957-13.371c-6.137-4.91-16.506-4.09-16.506-4.09l-5.436 6.294-27.299 2.438s35.465 32.733 44.19 33.28c8.736.545 54.018 26.732 57.838 30.007s56.195 37.646 64.383 40.921c8.18 3.273 33.826 22.371 38.189 20.732 4.366-1.638 13.098-7.638 13.098-7.638z"/><path fill="#5493A5" d="M176.419 153.462c2.854-.86 9.313-1.065 10.791-4.503 1.758-4.092-2.892-5.783-6.328-5.772-.815 3.036-1.905 5.918-3.373 8.637M225.523 184.561c2.83-.201 11.092-3.456 8.076-8.075-3.213-4.911-5.836 3.429-6.984 4.8M277.357 216.751c2.791-1.651 9.914-1.573 11.59-4.887 2.285-4.511-4.65-5.577-8.232-5.397-.119 3.021-2.08 5.896-3.357 8.102M329.191 251.668c4.074.78 13.354-3.288 10.498-9.41-4.111-8.812-7.332 3.534-9.953 5.047M353.195 243.484c9.266 5.915 3.338-12.519 1.092-2.184M301.91 211.838c1.828 1.197 10.373 1.363 8.074-4.242-2.479-6.055-5.992.477-7.529 2.607M257.717 173.102c2.658 1.417 4.594 5.386 4.838 8.09-3.053.166-6.207.287-9.121-.533-.135-2.229 1.414-4.397 2.646-5.919"/><path fill="#CACACA" d="M208.609 150.73c1.512-.487 4.027.087 6.002 1.148 4.402-3.109-2.629-10.59-6.002-3.874"/><path fill="none" d="M312.82 265.854l-129.309-91.661"/><path fill="#666" d="M312.348 266.523l-128.837-92.33 129.782 90.991z"/><path fill="#5493A5" d="M342.283 260.944c3.961 10.22 3.428 21.331 1.736 31.772 7.062-.654 9.168-15.835 12.791-21.157 4.723-6.937 11.363-13.806 10.719-22.786-8.646 1.969-18.27 7.537-26.885 10.535"/><path fill="#3F3F3F" d="M327.17 265.726c-1.312.964-2.152 2.181-2.885 3.456l-2.102 3.884-4.195 7.768-8.379 15.544-8.246 15.613c-2.701 5.23-5.439 10.445-8.086 15.709l-.814 1.623-1.547-1.06L95.319 194.64l-1.175-.802.629-1.276 30.016-61.003 1.067-2.166 1.316 1.526c1.688 1.959 3.77 3.341 5.86 4.705l6.238 4.132 12.485 8.269 24.964 16.532 49.932 33.066 49.936 33.068 51.879 34.081-1.296.954zm-3.158.036l-48.869-32.904-49.803-33.26-49.802-33.26-24.905-16.631-12.447-8.314-6.225-4.157c-2.068-1.399-4.142-2.788-6.605-3.587l2.38-.642-30.019 61.004-.55-2.078 195.597 133.626-2.363.566c3.006-5.062 5.916-10.181 8.863-15.279l8.699-15.372 8.564-15.441 4.275-7.726 2.133-3.861c.446-.853.827-1.733 1.077-2.684z"/><path fill="#3F3F3F" d="M292.281 327.81l-.882-1.8 49.099-24.066 29.484-53.444-43.885 17.372-.737-1.863 49.072-19.425-32.485 58.882z"/><path fill="#3F3F3F" d="M357.82 236.226l14.93 9.448-1.07 1.693-14.932-9.448zM307.494 204.399l17.993 11.382-1.071 1.693-17.993-11.382zM257.988 173.092l17.94 11.348-1.071 1.694-17.94-11.349zM212.114 144.063l15.62 9.88-1.071 1.693-15.62-9.88zM148.943 128.924l.206 1.994-22.79 2.355-.206-1.993zM194.709 260.007l2.902 53.259.082 1.469-1.451.237-120.065 19.85-1.772.295-.128-1.771a3085.265 3085.265 0 0 0-2.684-33.668L70.2 282.85l-.697-8.414c-.257-2.805-.346-5.62-1.039-8.387l-.399-1.593 1.84-.179 14.438-1.386 14.433-1.46 28.844-3.079 28.819-3.281c4.803-.561 9.608-1.057 14.404-1.7 4.785-.675 9.562-1.465 14.285-2.647l.384 3.255c-4.872-.051-9.704.287-14.516.741-4.809.484-9.6 1.12-14.401 1.692l-28.794 3.493-28.772 3.698-14.374 1.933-14.365 2.003 1.441-1.773c-.206 2.843.188 5.634.416 8.44l.753 8.409 1.511 16.819c.988 11.215 2.02 22.425 3.131 33.63l-1.901-1.478 120.065-19.85-1.367 1.708-2.904-53.258 3.274-.179zM120.329 207.785l.24 1.99-9.975 1.204-.24-1.99z"/><path fill="#3F3F3F" d="M68.472 266.098l-1.154-12.623-1.279-12.607-1.385-12.596-.697-6.299c-.234-2.1-.394-4.207-1.299-6.229l-.692-1.558 2.127-.259 10.249-1.237.392 3.257-10.247 1.238 1.43-1.815c-.416 2.174-.094 4.259.159 6.36l.757 6.288 1.52 12.586 1.625 12.565 1.753 12.552-3.259.377zM115.753 232.65l1.04 15.625-1.738.116-1.04-15.625zM79.287 235.066l1.152 15.306-1.738.13-1.15-15.305z"/><path fill="#3F3F3F" d="M94.487 240.904c-9.59 0-16.456-2.888-16.696-7.022-.268-4.583 7.676-8.517 18.479-9.148a46.582 46.582 0 0 1 2.709-.079c9.594 0 16.463 2.888 16.705 7.022.267 4.584-7.677 8.517-18.478 9.147-.91.053-1.824.08-2.719.08zm4.492-14.207c-.853 0-1.725.025-2.591.075-9.964.583-16.724 4.152-16.558 6.99.143 2.452 5.787 5.098 14.657 5.098.856 0 1.73-.025 2.6-.076 9.963-.582 16.722-4.15 16.557-6.989-.144-2.451-5.791-5.098-14.665-5.098zM95.329 256.851c-9.398 0-16.345-2.848-16.591-7.023l2.039-.12c.167 2.839 7.294 5.6 17.257 5.021 4.664-.271 8.993-1.232 12.191-2.705 2.817-1.298 4.451-2.898 4.369-4.282l2.039-.12c.137 2.323-1.835 4.545-5.554 6.258-3.424 1.577-8.015 2.603-12.927 2.888-.961.056-1.904.083-2.823.083zM140.296 227.8l1.148 15.304-1.737.13-1.148-15.304z"/><path fill="#3F3F3F" d="M155.052 233.634c-9.33-.096-16.009-2.983-16.242-7.021-.072-1.227.459-2.466 1.535-3.583l1.472 1.417c-.68.706-1.005 1.395-.967 2.047.141 2.435 5.5 5.007 14.225 5.097l-.023 2.043zM156.426 249.585c-3.897 0-7.532-.499-10.443-1.448-3.892-1.27-6.108-3.25-6.242-5.576l2.039-.117c.08 1.387 1.888 2.789 4.836 3.75 3.345 1.091 7.755 1.541 12.421 1.271 4.951-.286 9.626-1.384 12.829-3.013l.927 1.821c-3.445 1.752-8.416 2.93-13.637 3.231a45.78 45.78 0 0 1-2.73.081zM111.386 209.403l1.043 15.627-1.738.116-1.043-15.627zM74.936 211.839l1.15 15.303-1.736.13-1.151-15.302z"/><path fill="#3F3F3F" d="M90.125 217.663c-9.589 0-16.455-2.888-16.696-7.022-.266-4.588 7.679-8.521 18.48-9.148.91-.053 1.826-.08 2.723-.08 9.592 0 16.459 2.89 16.699 7.027.266 4.586-7.68 8.518-18.484 9.144-.909.052-1.826.079-2.722.079zm4.507-14.208c-.857 0-1.734.025-2.604.076-9.964.579-16.724 4.149-16.56 6.991.144 2.452 5.788 5.098 14.657 5.098.857 0 1.733-.025 2.604-.076 9.966-.578 16.728-4.146 16.563-6.987-.142-2.453-5.788-5.102-14.66-5.102zM79.378 231.708c-3.982-1.614-4.915-3.678-4.996-5.125l2.04-.113c.066 1.194 1.423 2.414 3.723 3.345l-.767 1.893zM282.805 203.536c-4.006 0-10.357-2.143-16.575-5.592-8.729-4.845-16.426-11.802-14.25-15.725.677-1.216 2.127-1.832 4.311-1.832 4.004 0 10.355 2.143 16.574 5.592 8.729 4.842 16.427 11.799 14.249 15.726-.676 1.215-2.125 1.831-4.309 1.831zm-26.514-21.16c-1.349 0-2.286.295-2.572.809-.98 1.768 3.672 7.577 13.477 13.02 5.939 3.295 11.921 5.342 15.609 5.342 1.348 0 2.285-.294 2.57-.807.982-1.771-3.669-7.582-13.475-13.021-5.941-3.296-11.922-5.343-15.609-5.343z"/><path fill="#3F3F3F" d="M275.533 218.068c-1.053 0-2.271-.146-3.643-.437-3.784-.804-8.369-2.634-12.91-5.154-7.605-4.215-13.408-9.465-14.438-13.065-.291-1.016-.227-1.911.19-2.661l7.241-14.484 1.779.89-7.262 14.522c-.171.31-.177.696-.037 1.186.72 2.517 5.249 7.306 13.49 11.873 4.374 2.427 8.763 4.185 12.359 4.948 3.694.785 5.442.268 5.818-.412l7.242-14.487 1.779.89-7.262 14.524c-.686 1.243-2.164 1.867-4.346 1.867z"/><g><path fill="#3F3F3F" d="M358.376 229.713c-3.975 0-9.947-1.996-15.976-5.339-8.257-4.579-15.874-11.538-13.726-15.417.686-1.235 2.156-1.86 4.37-1.86 3.974 0 9.947 1.996 15.979 5.339 4.405 2.442 8.256 5.292 10.844 8.024 2.88 3.041 3.876 5.596 2.879 7.392-.683 1.234-2.154 1.861-4.37 1.861zm-25.332-20.657c-1.388 0-2.356.311-2.657.852-.984 1.777 3.47 7.49 12.962 12.754 5.666 3.142 11.424 5.094 15.027 5.094 1.389 0 2.358-.311 2.658-.853.382-.688-.067-2.434-2.588-5.095-2.454-2.59-6.137-5.31-10.372-7.658-5.668-3.143-11.427-5.094-15.03-5.094z"/><path fill="#3F3F3F" d="M328.603 209.014l1.75.876-4.913 9.81-1.75-.876zM350.978 244.271c-3.934 0-9.639-1.982-14.841-4.775l.927-1.726c8.92 4.79 15.705 5.373 16.643 3.682l7.263-14.479 1.75.878-7.281 14.514c-.738 1.331-2.343 1.906-4.461 1.906z"/></g><g><path fill="#3F3F3F" d="M307.464 197.834c-3.891 0-9.662-1.914-15.438-5.119-8.026-4.453-15.402-11.271-13.263-15.139.479-.861 1.635-1.887 4.426-1.887 3.891 0 9.663 1.914 15.44 5.119 4.285 2.375 8.022 5.161 10.524 7.846 2.782 2.985 3.728 5.507 2.736 7.293-.477.861-1.632 1.887-4.425 1.887zm-24.276-20.214c-1.445 0-2.417.317-2.737.893-.985 1.78 3.298 7.404 12.511 12.516 5.42 3.008 10.978 4.876 14.502 4.876 1.446 0 2.417-.317 2.736-.893.404-.728-.031-2.433-2.46-5.041-2.367-2.541-5.936-5.195-10.048-7.474-5.421-3.009-10.979-4.877-14.504-4.877z"/><path fill="#3F3F3F" d="M278.775 177.606l1.724.868-5.09 10.106-1.723-.868zM300.177 212.324c-4.106 0-10.131-2.151-15.432-5.091l.937-1.688c9.217 5.111 16.257 5.764 17.247 3.979l7.276-14.47 1.725.867-7.295 14.505c-.738 1.327-2.343 1.898-4.458 1.898z"/></g><g><path fill="#3F3F3F" d="M258.084 167.4c-3.796 0-9.342-1.82-14.833-4.868-4.15-2.299-7.759-5.016-10.163-7.648-2.67-2.924-3.561-5.408-2.575-7.183.484-.876 1.657-1.922 4.493-1.922 3.793 0 9.34 1.819 14.837 4.866 7.77 4.311 14.873 10.976 12.735 14.836-.487.876-1.661 1.919-4.494 1.919zm-23.079-19.722c-1.491 0-2.497.335-2.833.943-.521.939.367 2.849 2.316 4.984 2.269 2.484 5.707 5.065 9.682 7.268 5.146 2.855 10.477 4.629 13.913 4.629 1.49 0 2.497-.334 2.834-.941.99-1.788-3.095-7.315-11.996-12.255-5.149-2.855-10.482-4.628-13.916-4.628z"/><path fill="#3F3F3F" d="M230.502 147.736l1.695.856-4.93 9.762-1.694-.855zM250.746 181.896c-3.744 0-9.23-1.771-14.814-4.872a50.506 50.506 0 0 1-4.458-2.773l1.087-1.557a48.053 48.053 0 0 0 4.291 2.669c6.231 3.46 12.655 5.279 15.624 4.431.563-.162.941-.411 1.124-.74l7.302-14.461 1.694.855-7.318 14.493c-.452.818-1.213 1.372-2.278 1.677-.65.188-1.408.278-2.254.278z"/></g><g><path fill="#3F3F3F" d="M211.976 137.946c-3.753 0-9.345-1.858-14.956-4.97-7.762-4.306-14.905-10.884-12.853-14.593.457-.822 1.56-1.8 4.225-1.8 3.754 0 9.347 1.858 14.959 4.97 4.143 2.298 7.759 4.988 10.182 7.574 2.695 2.877 3.617 5.304 2.667 7.018-.456.822-1.558 1.801-4.224 1.801zm-23.584-19.505c-1.354 0-2.302.307-2.6.843-.943 1.705 3.214 7.122 12.129 12.067 5.268 2.922 10.654 4.737 14.055 4.737 1.374 0 2.297-.299 2.598-.843.385-.695-.042-2.333-2.397-4.847-2.294-2.449-5.749-5.013-9.727-7.22-5.27-2.922-10.657-4.737-14.058-4.737z"/><path fill="#3F3F3F" d="M184.183 118.425l1.66.834-4.36 8.681-1.66-.834zM205.01 151.822c-3.962 0-9.805-2.093-14.945-4.946-2.458-1.361-4.717-2.852-6.715-4.429l1.151-1.458c1.919 1.515 4.094 2.949 6.464 4.262 8.912 4.945 15.707 5.601 16.654 3.896l6.964-13.865 1.66.834-6.982 13.899c-.701 1.264-2.232 1.807-4.251 1.807z"/></g><g><path fill="#3F3F3F" d="M230.523 171.665c-3.915 0-9.741-1.935-15.583-5.176-4.319-2.395-8.087-5.199-10.612-7.896-2.809-3.001-3.769-5.533-2.775-7.322.476-.857 1.627-1.88 4.412-1.88 3.915 0 9.741 1.936 15.585 5.178 7.225 4.006 12.555 8.907 13.578 12.486.298 1.043.232 1.962-.196 2.731-.474.857-1.625 1.879-4.409 1.879zm-24.558-20.336c-1.416 0-2.406.322-2.717.882-.403.726.041 2.436 2.496 5.058 2.39 2.553 5.99 5.226 10.137 7.526 5.485 3.042 11.096 4.933 14.644 4.933 1.415 0 2.405-.321 2.715-.881.169-.305.178-.728.026-1.258-.705-2.465-4.965-7.061-12.655-11.324-5.487-3.045-11.099-4.936-14.646-4.936z"/><path fill="#3F3F3F" d="M223.204 186.164c-4.131 0-10.22-2.179-15.578-5.15-8.087-4.486-15.526-11.344-13.383-15.217l7.274-14.473 1.731.87-7.292 14.507c-1.004 1.816 3.323 7.466 12.61 12.618 9.292 5.152 16.376 5.832 17.364 4.052l7.272-14.473 1.731.87-7.291 14.508c-.731 1.32-2.33 1.888-4.438 1.888z"/></g><g><path fill="#3F3F3F" d="M182.554 139.723c-3.914 0-9.74-1.934-15.585-5.174-8.091-4.485-15.533-11.343-13.387-15.217.477-.858 1.629-1.88 4.413-1.88 3.914 0 9.74 1.935 15.585 5.176 8.09 4.486 15.53 11.343 13.386 15.215-.476.858-1.628 1.88-4.412 1.88zm-24.558-20.334c-1.437 0-2.402.313-2.718.883-.987 1.782 3.34 7.432 12.631 12.583 5.487 3.042 11.099 4.931 14.646 4.931 1.416 0 2.406-.322 2.717-.882.986-1.781-3.341-7.429-12.63-12.581-5.488-3.044-11.1-4.934-14.646-4.934z"/><path fill="#3F3F3F" d="M175.278 154.239c-.958 0-2.047-.119-3.263-.358-3.625-.713-8-2.424-12.318-4.818-7.226-4.009-12.555-8.912-13.577-12.489-.298-1.042-.232-1.96.196-2.729l7.27-14.473 1.731.87-7.289 14.509c-.188.339-.196.761-.045 1.291.704 2.464 4.964 7.06 12.653 11.327 4.146 2.299 8.319 3.937 11.752 4.611 3.524.693 5.209.165 5.611-.56l7.272-14.477 1.731.87-7.291 14.512c-.703 1.274-2.212 1.914-4.433 1.914z"/></g><g><path fill="#3F3F3F" d="M335.071 237c-3.975 0-9.947-1.997-15.976-5.342-4.406-2.443-8.257-5.293-10.844-8.024-2.879-3.04-3.875-5.596-2.878-7.392.684-1.233 2.153-1.859 4.367-1.859 3.973 0 9.946 1.995 15.978 5.336 4.407 2.444 8.259 5.295 10.847 8.027 2.879 3.041 3.875 5.597 2.878 7.392-.472.849-1.612 1.862-4.372 1.862zm-25.332-20.659c-1.387 0-2.355.31-2.654.851-.4.721.07 2.438 2.588 5.096 2.453 2.59 6.137 5.31 10.372 7.658 5.665 3.144 11.423 5.096 15.026 5.096 1.389 0 2.358-.311 2.659-.853.382-.688-.067-2.435-2.587-5.096-2.454-2.591-6.138-5.312-10.375-7.661-5.669-3.14-11.427-5.091-15.029-5.091z"/><path fill="#3F3F3F" d="M327.846 251.511c-3.917 0-9.961-1.973-16.012-5.329-4.406-2.442-8.258-5.292-10.845-8.025-2.878-3.04-3.874-5.596-2.878-7.391l7.265-14.478 1.75.878-7.283 14.514c-.4.723.049 2.47 2.568 5.131 2.454 2.591 6.138 5.311 10.373 7.658 7.905 4.384 14.184 5.612 16.668 4.899.513-.147.855-.369 1.016-.66l7.265-14.476 1.75.878-7.283 14.511c-.439.797-1.176 1.333-2.207 1.629-.612.176-1.334.261-2.147.261z"/></g><g><path fill="#383838" d="M124.404 147.073l-.262 2.261c-.086.717-.172 1.591-.443 2.573-.258.977-.444 2.129-.866 3.303-.423 1.167-.805 2.475-1.359 3.791-.572 1.307-1.076 2.739-1.806 4.112-1.35 2.811-2.936 5.726-4.559 8.61l-2.476 4.252c-.778 1.428-1.539 2.838-2.278 4.2-.689 1.378-1.355 2.709-1.985 3.977-.647 1.255-1.186 2.486-1.708 3.609-2.08 4.498-3.471 7.499-3.471 7.499s.275-.783.762-2.145c.506-1.354 1.179-3.312 2.127-5.61.47-1.152.95-2.408 1.542-3.707.588-1.301 1.163-2.702 1.866-4.088.719-1.371 1.461-2.795 2.215-4.236.797-1.422 1.611-2.866 2.425-4.313 1.665-2.852 3.28-5.723 4.661-8.479.727-1.365 1.305-2.735 1.932-4 .607-1.277 1.04-2.546 1.516-3.679.456-1.148.722-2.236 1.055-3.186.345-.939.5-1.809.643-2.519.296-1.414.469-2.225.469-2.225z"/></g><g><path fill="#383838" d="M104.618 191.939s.195.229.547.624c.176.187.376.475.64.69l.867.786c.69.562 1.522 1.209 2.431 1.886a35.663 35.663 0 0 0 2.924 1.958c2.071 1.241 4.188 2.448 5.65 3.536.359.285.688.541.975.774.297.222.508.472.704.645.382.367.598.58.598.58s-.229-.195-.63-.544c-.206-.164-.431-.397-.738-.6-.301-.211-.638-.449-1.011-.708-1.514-.996-3.672-2.069-5.823-3.19a38.329 38.329 0 0 1-3.1-1.818 73.168 73.168 0 0 1-2.574-1.771c-.373-.302-.714-.577-1.013-.821-.317-.239-.501-.485-.697-.671a47.472 47.472 0 0 1-.585-.595l.835-.761z"/></g><g><path fill="#363636" d="M108.344 190.022s.831-1.667 2.163-4.123c.679-1.221 1.442-2.662 2.312-4.175.874-1.512 1.804-3.124 2.728-4.742.959-1.595 1.916-3.191 2.812-4.689s1.786-2.868 2.521-4.056c1.497-2.368 2.557-3.915 2.557-3.915s-.823 1.665-2.145 4.121c-.679 1.225-1.436 2.67-2.305 4.184-.867 1.516-1.797 3.136-2.721 4.753-.961 1.595-1.922 3.191-2.824 4.685-.901 1.501-1.797 2.869-2.534 4.057a151.102 151.102 0 0 1-2.564 3.9z"/></g></svg>