<svg id="Capa_1" xmlns="http://www.w3.org/2000/svg" width="391.621" height="416" viewBox="0 0 391.621 416"><style>.st0{opacity:.2}.st1{fill:#ff5f5c}.st2{fill:none}.st3{fill:#666}.st4{fill:#ccc}.st5{fill:#333}.st6{fill:#353535}.st7{fill:#00a2c2}.st8{fill:#0595a8}.st9{fill:#3d3d3d}.st10{fill:#ddd}</style><path d="M190.053 366.44l-.005-1c1.972-.009 3.983-.051 5.978-.127l.038 1c-2.005.076-4.028.119-6.011.127zm-6.014-.069a188.68 188.68 0 0 1-6.009-.266l.061-.998c1.994.12 4.004.209 5.976.264l-.028 1zm18.031-.384l-.07-.998a182.29 182.29 0 0 0 5.958-.52l.104.994c-1.979.207-3.995.383-5.992.524zm-30.036-.345a184.118 184.118 0 0 1-5.978-.662l.126-.992c1.982.253 3.983.475 5.946.658l-.094.996zm41.999-.901l-.137-.99a180.18 180.18 0 0 0 5.911-.916l.17.986c-1.979.34-3.979.65-5.944.92zm-53.93-.624a179.754 179.754 0 0 1-5.92-1.059l.192-.981c1.962.384 3.943.738 5.889 1.054l-.161.986zm65.784-1.415l-.203-.979c1.95-.404 3.914-.845 5.836-1.31l.235.973a178.92 178.92 0 0 1-5.868 1.316zm-77.587-.901a180.114 180.114 0 0 1-5.836-1.453l.258-.967c1.92.513 3.873.999 5.804 1.445l-.226.975zm89.277-1.928l-.268-.963a178.83 178.83 0 0 0 5.736-1.696l.3.953a172.66 172.66 0 0 1-5.768 1.706zm-100.898-1.175a179.61 179.61 0 0 1-5.745-1.848l.322-.947c1.882.641 3.804 1.259 5.713 1.838l-.29.957zm112.373-2.431l-.332-.943a177.57 177.57 0 0 0 5.609-2.078l.363.932a183.702 183.702 0 0 1-5.64 2.089zm-123.797-1.456a183.35 183.35 0 0 1-5.604-2.229l.385-.924c1.842.769 3.717 1.515 5.573 2.217l-.354.936zm134.987-2.905l-.394-.92a176.777 176.777 0 0 0 5.442-2.441l.425.906a177.716 177.716 0 0 1-5.473 2.455zm-146.114-1.741a181.529 181.529 0 0 1-5.438-2.6l.446-.895c1.782.888 3.602 1.758 5.408 2.584l-.416.911zm156.976-3.352l-.454-.891c1.764-.9 3.538-1.843 5.271-2.802l.484.875a177.916 177.916 0 0 1-5.301 2.818zm-167.762-2.027a179.697 179.697 0 0 1-5.25-2.955l.505-.863a180.056 180.056 0 0 0 5.221 2.939l-.476.879zm178.267-3.783l-.513-.859c1.692-1.011 3.4-2.069 5.075-3.147l.541.842a186.598 186.598 0 0 1-5.103 3.164zm-188.664-2.301a187.395 187.395 0 0 1-5.039-3.297l.562-.828a181.438 181.438 0 0 0 5.011 3.279l-.534.846zm198.764-4.199l-.568-.822a178.71 178.71 0 0 0 4.858-3.479l.596.803a180.736 180.736 0 0 1-4.886 3.498zm-208.728-2.561a188.852 188.852 0 0 1-4.807-3.623l.615-.789a185.055 185.055 0 0 0 4.78 3.604l-.588.808zm218.38-4.596l-.622-.783a180.09 180.09 0 0 0 4.619-3.795l.647.762a182.44 182.44 0 0 1-4.644 3.816zm-227.868-2.809a182.74 182.74 0 0 1-4.554-3.933l.666-.746a178.952 178.952 0 0 0 4.529 3.911l-.641.768zm237.028-4.977l-.672-.74a180.634 180.634 0 0 0 4.359-4.094l.696.717a180.777 180.777 0 0 1-4.383 4.117zm-246.002-3.038a187.083 187.083 0 0 1-4.282-4.223l.714-.701a185.073 185.073 0 0 0 4.258 4.201l-.69.723zm254.629-5.339l-.72-.695a180.793 180.793 0 0 0 4.081-4.374l.742.67a182.554 182.554 0 0 1-4.103 4.399zm-263.05-3.247a186.446 186.446 0 0 1-3.991-4.495l.759-.652a180.805 180.805 0 0 0 3.97 4.472l-.738.675zm271.11-5.687l-.765-.645a181.76 181.76 0 0 0 3.783-4.638l.785.619a178.23 178.23 0 0 1-3.803 4.664zm-278.941-3.436a181.595 181.595 0 0 1-3.683-4.748l.8-.6a181.867 181.867 0 0 0 3.664 4.723l-.781.625zm286.391-6.016l-.805-.594a178.96 178.96 0 0 0 3.468-4.88l.824.566a180.363 180.363 0 0 1-3.487 4.908zm-293.597-3.599a183.82 183.82 0 0 1-3.359-4.979l.838-.545a184.909 184.909 0 0 0 3.34 4.952l-.819.572zm300.407-6.33l-.843-.539a176.707 176.707 0 0 0 3.137-5.102l.86.51a175.636 175.636 0 0 1-3.154 5.131zM34.512 279.13a181.63 181.63 0 0 1-3.019-5.189l.872-.488c.969 1.73 1.979 3.467 3.003 5.16l-.856.517zm313.092-6.629l-.877-.48c.96-1.753 1.898-3.537 2.79-5.303l.893.451a179.199 179.199 0 0 1-2.806 5.332zm-318.955-3.847a182.435 182.435 0 0 1-2.665-5.376l.903-.43a179.243 179.243 0 0 0 2.65 5.347l-.888.459zm324.388-6.912l-.907-.42a181.53 181.53 0 0 0 2.43-5.481l.921.391c-.778 1.835-1.6 3.69-2.444 5.51zm-329.536-3.925a182.053 182.053 0 0 1-2.299-5.538l.93-.367a182.14 182.14 0 0 0 2.286 5.507l-.917.398zm334.237-7.177l-.934-.359c.716-1.863 1.408-3.76 2.057-5.635l.945.326a178.474 178.474 0 0 1-2.068 5.668zm-338.654-3.992a182.205 182.205 0 0 1-1.928-5.696l.952-.305a182.838 182.838 0 0 0 1.917 5.665l-.941.336zm342.599-7.412l-.955-.295a178.34 178.34 0 0 0 1.668-5.743l.965.263a177.065 177.065 0 0 1-1.678 5.775zM15.42 235.192a183.829 183.829 0 0 1-1.542-5.813l.971-.24c.475 1.922.991 3.867 1.533 5.782l-.962.271zm349.424-7.562l-.973-.23c.456-1.924.886-3.89 1.279-5.842l.98.197c-.395 1.964-.827 3.94-1.286 5.875zm-352.311-4.115c-.413-1.95-.8-3.937-1.148-5.904l.984-.174c.347 1.956.731 3.932 1.142 5.871l-.978.207zm354.688-7.675l-.986-.164c.327-1.961.625-3.951.886-5.915l.991.131a180.37 180.37 0 0 1-.891 5.948zm-356.787-4.168a180.343 180.343 0 0 1-.751-5.967l.994-.107c.215 1.973.467 3.97.748 5.934l-.991.14zm358.37-7.755l-.995-.1c.195-1.966.36-3.972.491-5.961l.998.065a183.502 183.502 0 0 1-.494 5.996zM9.129 199.716c-.15-1.988-.27-4.009-.355-6.005l.999-.043c.084 1.985.204 3.994.353 5.972l-.997.076zm360.464-7.801l-.999-.033a182.674 182.674 0 0 0 .063-9.575l1-.02a187.581 187.581 0 0 1-.064 9.628zM8.618 187.704a180.258 180.258 0 0 1 .039-6.015l1 .023a182.373 182.373 0 0 0-.039 5.981l-1 .011zm359.822-11.377c-.104-1.98-.242-3.987-.412-5.967l.996-.086c.171 1.99.311 4.009.415 6l-.999.053zm-358.548-.591l-.998-.057c.111-1.994.257-4.013.434-5.997l.996.088a179.42 179.42 0 0 0-.432 5.966zm357.526-11.326a182.273 182.273 0 0 0-.807-5.927l.988-.15c.302 1.969.575 3.974.812 5.958l-.993.119zm-356.465-.589l-.992-.121c.245-1.994.524-3.998.832-5.956l.988.154a180.354 180.354 0 0 0-.828 5.923zm354.653-11.235c-.366-1.948-.771-3.92-1.202-5.858l.977-.217c.434 1.949.84 3.932 1.208 5.892l-.983.183zm-352.802-.581l-.982-.188c.375-1.961.788-3.941 1.228-5.888l.976.221c-.439 1.936-.85 3.906-1.222 5.855zm350.205-11.092a182.574 182.574 0 0 0-1.592-5.767l.959-.281a183.058 183.058 0 0 1 1.601 5.798l-.968.25zm-347.567-.575l-.968-.254a176.483 176.483 0 0 1 1.621-5.792l.958.285a177.792 177.792 0 0 0-1.611 5.761zm344.191-10.9a179.881 179.881 0 0 0-1.975-5.646l.938-.346a181.022 181.022 0 0 1 1.986 5.678l-.949.314zm-340.778-.564l-.948-.318a181.102 181.102 0 0 1 2.011-5.688l.938.35a178.22 178.22 0 0 0-2.001 5.656zm336.64-10.66a179.101 179.101 0 0 0-2.342-5.484l.913-.408a178.671 178.671 0 0 1 2.354 5.516l-.925.376zm-332.451-.581l-.925-.381a177.442 177.442 0 0 1 2.388-5.536l.911.412a179.228 179.228 0 0 0-2.374 5.505zm327.585-10.311a179.37 179.37 0 0 0-2.705-5.318l.884-.469a179.057 179.057 0 0 1 2.719 5.35l-.898.437zm-322.654-.616l-.897-.441a178.116 178.116 0 0 1 2.752-5.36l.882.471a180.94 180.94 0 0 0-2.737 5.33zm317.068-9.932a179.607 179.607 0 0 0-3.055-5.131l.851-.525a182.913 182.913 0 0 1 3.071 5.158l-.867.498zm-311.419-.636l-.865-.5a178.547 178.547 0 0 1 3.103-5.163l.849.529a177.94 177.94 0 0 0-3.087 5.134zm305.14-9.522a180.681 180.681 0 0 0-3.39-4.918l.813-.582a179.004 179.004 0 0 1 3.409 4.947l-.832.553zm-298.8-.64l-.83-.557a179.77 179.77 0 0 1 3.438-4.942l.812.584a177.833 177.833 0 0 0-3.42 4.915zm291.858-9.084a184.243 184.243 0 0 0-3.71-4.687l.773-.633a180.602 180.602 0 0 1 3.731 4.712l-.794.608zm-284.86-.629l-.792-.611a176.921 176.921 0 0 1 3.757-4.701l.771.637a179.063 179.063 0 0 0-3.736 4.675zm277.286-8.619a184.075 184.075 0 0 0-4.015-4.432l.729-.684a180.331 180.331 0 0 1 4.037 4.457l-.751.659zm-269.661-.607l-.749-.662a181.098 181.098 0 0 1 4.059-4.441l.727.688a179.217 179.217 0 0 0-4.037 4.415zm261.487-8.122a180.096 180.096 0 0 0-4.301-4.158l.684-.73a184.05 184.05 0 0 1 4.324 4.182l-.707.706zm-253.271-.573l-.704-.711a183.586 183.586 0 0 1 4.342-4.161l.68.734a179.588 179.588 0 0 0-4.318 4.138zm244.534-7.6a180.388 180.388 0 0 0-4.568-3.866l.634-.773a182.397 182.397 0 0 1 4.593 3.888l-.659.751zm-235.764-.53l-.655-.756c1.51-1.309 3.06-2.608 4.606-3.862l.63.777a176.954 176.954 0 0 0-4.581 3.841zm226.501-7.05a182.143 182.143 0 0 0-4.816-3.556l.58-.814a182.505 182.505 0 0 1 4.843 3.575l-.607.795zm-217.217-.479l-.604-.797a185.487 185.487 0 0 1 4.85-3.548l.577.816a183.457 183.457 0 0 0-4.823 3.529zm207.469-6.47a180.428 180.428 0 0 0-5.044-3.229l.525-.852a185.614 185.614 0 0 1 5.072 3.246l-.553.835zm-197.71-.422l-.55-.836a179.716 179.716 0 0 1 5.072-3.216l.521.854a179.115 179.115 0 0 0-5.043 3.198zm187.515-5.867a183.531 183.531 0 0 0-5.25-2.886l.467-.885c1.767.934 3.543 1.909 5.28 2.901l-.497.87zm-177.325-.361l-.493-.871c1.732-.98 3.505-1.945 5.272-2.87l.464.887a180.206 180.206 0 0 0-5.243 2.854zm166.73-5.235a179.153 179.153 0 0 0-5.436-2.529l.407-.914c1.823.812 3.662 1.668 5.465 2.543l-.436.9zm-156.155-.299l-.434-.9a176.537 176.537 0 0 1 5.448-2.512l.403.916a177.957 177.957 0 0 0-5.417 2.496zm145.202-4.579a178.535 178.535 0 0 0-5.596-2.159l.345-.939c1.866.685 3.76 1.416 5.627 2.172l-.376.926zm-134.287-.231l-.373-.928a174.466 174.466 0 0 1 5.62-2.146l.341.939a178.247 178.247 0 0 0-5.588 2.135zm123.024-3.9a182.491 182.491 0 0 0-5.713-1.774l.281-.959c1.902.557 3.835 1.156 5.744 1.784l-.312.949zm-111.78-.181l-.31-.951a184.499 184.499 0 0 1 5.75-1.765l.277.961c-1.902.55-3.826 1.139-5.717 1.755zm100.299-3.174c-1.925-.493-3.883-.96-5.819-1.387l.216-.977a178.7 178.7 0 0 1 5.851 1.395l-.248.969zm-88.808-.145l-.245-.969a180.62 180.62 0 0 1 5.855-1.375l.213.977c-1.946.424-3.905.884-5.823 1.367zm77.128-2.434a185.25 185.25 0 0 0-5.898-.993l.149-.988c1.951.295 3.946.631 5.931.999l-.182.982zM156.72 9.28l-.18-.984c1.976-.359 3.973-.689 5.934-.979l.146.988c-1.95.29-3.935.617-5.9.975zm53.613-1.686c-1.965-.23-3.968-.432-5.952-.599l.084-.996c1.995.167 4.008.37 5.984.602l-.116.993zm-41.782-.067l-.113-.994c1.995-.228 4.009-.424 5.986-.582l.08.996c-1.966.158-3.969.353-5.953.58zm29.863-.934c-1.966-.1-3.977-.169-5.978-.205l.018-1c2.012.036 4.035.105 6.011.207l-.051.998zm-17.94-.03l-.048-.998a183.06 183.06 0 0 1 6.013-.188l.015 1c-1.983.03-3.996.093-5.98.186z"/><path class="st1" d="M346.691 185.902c0 87.007-70.533 157.541-157.539 157.541-87.01 0-157.544-70.534-157.544-157.541 0-87.008 70.534-157.545 157.544-157.545 87.006 0 157.539 70.538 157.539 157.545z"/><path d="M190 415h-1v-6h1v6zm.363-11.498l-1-.002c.005-2.333.013-4.23.021-5.983l1 .004c-.008 1.752-.015 3.65-.021 5.981zm.053-11.962l-1-.004c.008-1.733.016-3.643.022-5.982l1 .002c-.006 2.341-.014 4.251-.022 5.984zm.032-11.761l-1 .104.003-5.884h1l-.003 5.78z"/><path class="st7" d="M56.406 192.262c4.207 2.846 2.264 18.337 2.835 23.922.851 8.312 1.187 16.771 2.435 25.14 1.114 7.48 1.238 15.448 2.026 23.114.772 7.489 2.97 14.6 4.382 21.896 1.213 6.272 2.217 16.085.048 22.177a89.193 89.193 0 0 0 1.247-3.406c-.414.877-.74 2.107-1.174 3.04 7.044-1.695 15.773-1.572 23.065-2.261 7.276-.685 14.169-2.326 21.472-3.333 17.568-2.426 34.057-11.678 51.924-12.565 6.488-.325 16.723 2.35 22.24-.886-2.092-8.12-3.086-17.22-3.188-25.887-.041-3.83-.307-7.839-.008-11.649.312-3.957 2.143-9.12 1.227-13.075-1.023-4.411-7.045-5.109-10.453-7.808-3.172-2.51-3.719-5.612-7.377-7.896-6.977-4.352-14.096-8.338-21.121-12.648-7.793-4.785-14.732-10.379-22.658-14.941-6.877-3.959-13.246-12.395-21.096-8.302-6.052 3.152-9.96 5.378-17.443 5.37-3.599-.003-7.776.584-11.263-.091-3.698-.713-5.097-1.962-9.015-1.511-1.8.209-7.51.702-6.89 1.197M116.008 110.36c2.158 5.192-7.514 18.452-9.752 23.517-2.739 6.193-5.814 12.184-7.906 18.652-1.33 4.113-6.835 11.853-7.279 15.628-.679 5.824 15.832 9.295 22.322 12.978 35.592 20.189 66.666 46.96 99.752 70.958 19.691 14.285 39.455 27.243 59.43 40.768 12.848 8.694 21.508 6.846 34.77-.042 6.039-3.139 11.76-7.257 17.904-10.36 8.078-4.079 9.631-4.154 12.102-12.347 3.672-12.187 8.043-22.697 14.031-34.013 2.291-4.326 3.965-8.958 7.648-12.17-5.314-6.914-10.945-8.115-8.014-18.156.322-.273.348-.251.078.059-12.131 3.084-18.637-8.13-26.498-13.604-7.246-5.048-17.197-5.904-25.193-11.52 1.906-1.973 2.43-4.54 2.996-6.968-5.529.903-11.826.795-17.066-1.891-5.344-2.735-8.711-10.543-13.016-12.671-2.619-1.296-4.527 1.52-6.287.689-2.715-1.286-4.242-3.472-6.484-5.717-5.203-5.207-4.697 3.186-6.607-3.93-9.281 1.171-12.545-10.705-20.219-16.972-3.996-3.259-8.42-10.656-13.094-4.32-3.973-2.812-13.594-7.582-16.945-11.268 1.125-1.011 1.477-5.358 2.449-6.306-11.4-4.262-23.406-1.813-29.943-15.332-.137 1.581-1.426 2.934-1.764 4.521-10.314-3.612-15.744-10.324-25.787-3.201-2.605 1.845-1.404 3.158-4.865 4.907-1.283.646-5.686 1.107-7.303 1.442-4.445.919-13.457 1.002-15.404 4.233"/><path class="st5" d="M289.438 290.859l1.465-.591c.924-.399 2.303-.858 3.826-1.611 1.541-.714 3.348-1.544 5.266-2.521 1.92-.974 3.967-2.008 6.01-3.045 2.043-1.051 4.092-2.1 6.008-3.085 1.926-.965 3.688-1.949 5.264-2.642 3.135-1.438 5.365-2.119 5.365-2.119s-1.857 1.416-4.855 3.123c-1.494.879-3.285 1.771-5.176 2.8-1.902 1.009-3.932 2.092-5.957 3.171-2.043 1.096-4.088 2.099-6.027 3.065a88.995 88.995 0 0 1-5.379 2.507c-1.588.741-2.949 1.156-3.887 1.537-.939.351-1.475.556-1.475.556l-.448-1.145zM68.396 301.715l.869-.37a21.384 21.384 0 0 1 2.663-.787c2.294-.567 5.614-.936 9.549-1.175 1.989-.139 4.048-.278 6.296-.636 2.237-.308 4.601-.635 7.045-.975 4.888-.648 10.104-1.347 15.319-2.041 20.855-2.791 41.76-5.246 41.76-5.246 0-.002-20.787 3.324-41.617 6.31-5.209.757-10.413 1.521-15.295 2.23-2.435.357-4.797.707-7.034 1.03-2.215.371-4.426.542-6.37.694-3.932.305-7.171.609-9.371 1.084-1.11.222-1.929.488-2.474.666-.572.229-.877.348-.877.348l-.463-1.132zM151.689 236.944c1.82-.392 3.648-.676 5.479-1.017l5.498-.844c3.668-.555 7.348-.988 11.029-1.406l.857-.102.047.863c.389 7.233.775 14.463 1.031 21.699.281 7.238.531 14.478.607 21.725-.738-7.211-1.307-14.43-1.848-21.654-.559-7.221-.988-14.447-1.42-21.677l.904.765c-3.684.4-7.369.781-11.07 1.051l-5.549.382c-1.854.068-3.701.197-5.565.215zM96.036 207.479s-.098.285-.289.766c-.093.24-.312.494-.521.815-.212.334-.533.593-.863.928a10.566 10.566 0 0 1-2.669 1.632c-1.035.494-2.214.798-3.39 1.088-1.191.209-2.385.394-3.519.403a16.667 16.667 0 0 1-3.082-.181c-.9-.149-1.617-.398-2.112-.583-.481-.228-.737-.368-.737-.368s.303.043.803.141c.507.073 1.235.099 2.1.109.874-.036 1.878-.07 2.958-.199.538-.045 1.087-.145 1.65-.222.565-.062 1.125-.207 1.691-.306.556-.136 1.122-.232 1.662-.403.542-.154 1.08-.293 1.579-.482a15.07 15.07 0 0 0 2.651-1.197c.327-.253.71-.434.94-.664.242-.236.506-.41.652-.624.307-.416.496-.653.496-.653zM91.127 182.929s-.098.282-.296.765c-.086.241-.309.494-.515.818-.216.331-.536.588-.865.921a10.617 10.617 0 0 1-2.67 1.637c-1.038.494-2.214.795-3.389 1.085-1.189.214-2.386.398-3.518.402a16.567 16.567 0 0 1-3.087-.178 10.881 10.881 0 0 1-2.109-.581c-.482-.228-.737-.371-.737-.371s.304.044.799.143c.511.075 1.237.097 2.104.104.87-.033 1.876-.066 2.956-.196.54-.042 1.089-.142 1.649-.222.564-.062 1.126-.207 1.69-.308.557-.135 1.125-.229 1.664-.399.542-.154 1.078-.293 1.576-.484a14.6 14.6 0 0 0 2.652-1.197c.326-.251.708-.432.943-.666.242-.235.505-.406.652-.626.313-.416.501-.647.501-.647z"/><path class="st5" d="M170.512 239.381s-.039 1.808.006 4.494c.045 2.669.188 6.285.209 9.898-.055 1.807-.006 3.616-.186 5.306-.072.845-.113 1.665-.203 2.433-.123.771-.242 1.494-.352 2.164-.102.672-.195 1.282-.373 1.806-.154.526-.287.987-.395 1.371l-.34 1.188s.096-.438.273-1.21c.084-.378.191-.844.312-1.38.148-.527.209-1.142.27-1.812.07-.666.15-1.39.23-2.158.041-.769.039-1.583.061-2.421.08-1.674-.07-3.475-.113-5.263-.227-3.585-.572-7.154-.775-9.88-.197-2.709-.258-4.5-.258-4.5l1.634-.036z"/><path class="st8" d="M49.933 190.022c.125 8.576 1.126 17.448 11.02 23.735 11.256 7.152 27.025 14.222 40.156 15.544 24.125 2.419 45.93 6.104 69.618.005-21.037-9.221-35.807-27.312-53.934-40.646-7.109-5.229-13.725-5.919-20.716-5.286-6.584-4.538-14.485-5.139-20.497-4.538-2.46.247-10.641 2.457-13.92 8.976-9.038 1.771-16.777 4.979-10.634 10.941"/><path class="st0 st4" d="M133.344 231.859l-65.405-29.834 37.483-18.392s67.158 46.498 65.305 45.67c-1.848-.83-37.383 2.556-37.383 2.556z"/><path class="st8" d="M100.949 227.121c3.016-5.293 9.704-8.147 9.717-15.384-3.35-2.635-7.082-4.594-11.356-4.258M96.856 198.477c8.238 1.597 8.718-15.291.123-12.971-.522 4.645 2.562 7.308-.123 11.335"/><path class="st0 st10" d="M170.508 227.629l-37.258 4.23 46.957 23.083v-20.477zM180.207 234.465v20.477l97.688 47.985z"/><path class="st8" d="M358.201 220.575l-12.959-9.412 5.318-9.413-14.322-13.093-17.186-5.321-6.08 8.229-17.963-11.52 2.352-7.754s-1.859-7.571-12.271-14.732c-6.549-4.502-18.008-3.275-18.008-3.275l-4.418 5.018-17.076-10.952 3.492-6.886s-4.336-9.983-12.277-14.186c-6.957-3.682-16.641-3.82-16.641-3.82l-4.902 5.438-16.93-10.86 4.371-6.034s-5.941-7.758-12.957-13.371c-6.137-4.91-16.506-4.09-16.506-4.09l-5.436 6.294-27.299 2.438s35.465 32.733 44.189 33.28c8.736.545 54.018 26.732 57.838 30.007s56.195 37.646 64.383 40.921c8.18 3.273 33.826 22.371 38.189 20.732 4.367-1.638 13.099-7.638 13.099-7.638z"/><path class="st8" d="M163.42 129.462c2.854-.86 9.312-1.065 10.791-4.503 1.758-4.092-2.893-5.783-6.328-5.772-.816 3.036-1.906 5.918-3.373 8.637M212.523 160.561c2.83-.201 11.092-3.456 8.076-8.075-3.213-4.911-5.836 3.429-6.984 4.8M264.357 192.751c2.791-1.651 9.914-1.573 11.59-4.887 2.285-4.511-4.65-5.577-8.232-5.397-.119 3.021-2.08 5.896-3.357 8.102M316.191 227.668c4.074.78 13.354-3.288 10.498-9.41-4.111-8.812-7.332 3.534-9.953 5.047M340.195 219.484c9.266 5.915 3.338-12.519 1.092-2.184M288.91 187.838c1.828 1.197 10.373 1.363 8.074-4.242-2.479-6.055-5.992.477-7.529 2.607M244.717 149.102c2.658 1.417 4.594 5.386 4.838 8.09-3.053.166-6.207.287-9.121-.533-.135-2.229 1.414-4.397 2.646-5.919"/><path class="st4" d="M195.609 126.73c1.512-.487 4.027.087 6.002 1.148 4.402-3.109-2.629-10.59-6.002-3.874"/><path class="st2" d="M299.82 241.854l-129.308-91.661"/><path class="st3" d="M299.348 242.523l-128.836-92.33 129.781 90.991z"/><path class="st8" d="M329.283 236.944c3.961 10.22 3.428 21.331 1.736 31.772 7.062-.654 9.168-15.835 12.791-21.157 4.723-6.937 11.363-13.806 10.719-22.786-8.646 1.969-18.27 7.537-26.885 10.535"/><path class="st9" d="M314.17 241.726c-1.312.964-2.152 2.181-2.885 3.456l-2.102 3.884-4.195 7.768-8.379 15.544-8.246 15.613c-2.701 5.23-5.439 10.445-8.086 15.709l-.814 1.623-1.547-1.06L82.319 170.64l-1.175-.802.629-1.276 30.016-61.003 1.066-2.166 1.316 1.526c1.688 1.959 3.77 3.341 5.861 4.705l6.238 4.132 12.484 8.269 24.965 16.532 49.932 33.066 49.936 33.068 51.879 34.081-1.296.954zm-3.158.036l-48.869-32.904-49.803-33.26-49.803-33.26-24.904-16.631-12.447-8.314-6.225-4.157c-2.068-1.399-4.143-2.788-6.605-3.587l2.379-.642-30.018 61.004-.55-2.078 195.597 133.626-2.363.566c3.006-5.062 5.916-10.181 8.863-15.279l8.699-15.372 8.564-15.441 4.275-7.726 2.133-3.861c.446-.853.827-1.733 1.077-2.684z"/><path class="st9" d="M279.281 303.81l-.882-1.799 49.099-24.067 29.484-53.444-43.885 17.372-.737-1.863 49.072-19.425-32.485 58.882-.283.138z"/><path transform="rotate(32.325 351.772 217.845)" class="st9" d="M342.906 216.815h17.67v2.004h-17.67z"/><path transform="rotate(32.317 302.962 186.965)" class="st9" d="M292.294 185.943h21.291v2.004h-21.291z"/><path transform="rotate(32.317 253.426 155.62)" class="st9" d="M242.805 154.614h21.228v2.004h-21.228z"/><path transform="rotate(32.312 206.407 125.871)" class="st9" d="M197.153 124.862h18.483v2.004h-18.483z"/><path transform="rotate(84.1 124.657 107.105)" class="st9" d="M123.654 95.647h2.005v22.911h-2.005z"/><path class="st9" d="M181.709 236.007l2.902 53.259.082 1.469-1.451.237-120.065 19.85-1.772.295-.128-1.771a3085.265 3085.265 0 0 0-2.684-33.668L57.2 258.85l-.697-8.414c-.257-2.805-.346-5.62-1.039-8.387l-.399-1.593 1.84-.179 14.438-1.386 14.433-1.46 28.844-3.079 28.818-3.281c4.803-.561 9.609-1.057 14.404-1.7 4.785-.675 9.562-1.465 14.285-2.647l.385 3.255c-4.873-.051-9.705.287-14.516.741-4.809.484-9.6 1.12-14.402 1.692l-28.793 3.493-28.773 3.698-14.374 1.933-14.365 2.003 1.441-1.773c-.206 2.843.188 5.634.416 8.44l.753 8.409 1.511 16.819c.988 11.215 2.02 22.425 3.131 33.63l-1.901-1.478 120.066-19.85-1.367 1.708-2.904-53.258 3.274-.179z"/><path transform="rotate(83.119 102.465 185.373)" class="st9" d="M101.461 180.355h2.005v10.047h-2.005z"/><path class="st9" d="M55.472 242.098l-1.154-12.623-1.279-12.607-1.385-12.596-.697-6.299c-.234-2.1-.394-4.207-1.299-6.229l-.692-1.558 2.127-.259 10.249-1.237.392 3.257-10.247 1.238 1.43-1.815c-.416 2.174-.094 4.259.159 6.36l.757 6.288 1.52 12.586 1.625 12.565 1.753 12.552-3.259.377z"/><path transform="rotate(86.193 102.396 216.516)" class="st9" d="M94.57 215.638h15.66v1.742H94.57z"/><path transform="rotate(85.699 65.999 218.782)" class="st9" d="M58.326 217.915h15.349v1.742H58.326z"/><path class="st9" d="M81.487 216.904c-9.59 0-16.456-2.888-16.696-7.022-.268-4.584 7.676-8.517 18.479-9.148a46.582 46.582 0 0 1 2.709-.079c9.594 0 16.463 2.888 16.705 7.022.267 4.585-7.677 8.517-18.478 9.147-.91.053-1.824.08-2.719.08zm4.492-14.207c-.853 0-1.725.025-2.591.075-9.964.583-16.724 4.151-16.558 6.99.143 2.452 5.787 5.099 14.657 5.099.856 0 1.73-.026 2.6-.076 9.963-.582 16.722-4.15 16.557-6.989-.144-2.452-5.791-5.099-14.665-5.099zM82.329 232.851c-9.398.001-16.345-2.848-16.591-7.022l2.039-.121c.167 2.84 7.294 5.605 17.257 5.021 4.664-.271 8.993-1.232 12.191-2.705 2.817-1.297 4.451-2.897 4.369-4.281l2.039-.121c.137 2.323-1.835 4.546-5.554 6.258-3.424 1.577-8.015 2.603-12.927 2.889-.961.054-1.904.082-2.823.082z"/><path transform="rotate(85.71 127.007 211.517)" class="st9" d="M119.332 210.651h15.348v1.742h-15.348z"/><path class="st9" d="M142.052 209.634c-9.331-.096-16.009-2.983-16.241-7.021-.072-1.226.458-2.465 1.533-3.582l1.473 1.416c-.68.706-1.005 1.396-.967 2.048.14 2.436 5.499 5.007 14.224 5.097l-.022 2.042zM143.427 225.585c-3.897 0-7.532-.499-10.443-1.448-3.892-1.269-6.108-3.249-6.242-5.575l2.039-.117c.08 1.387 1.888 2.789 4.836 3.75 3.345 1.092 7.755 1.543 12.421 1.271 4.95-.286 9.625-1.384 12.829-3.013l.926 1.82c-3.446 1.753-8.416 2.931-13.636 3.231-.921.055-1.832.081-2.73.081z"/><path transform="rotate(86.181 98.04 193.271)" class="st9" d="M90.212 192.401h15.661v1.742H90.212z"/><path transform="rotate(85.699 61.639 195.55)" class="st9" d="M53.97 194.676h15.346v1.742H53.97z"/><path class="st9" d="M77.125 193.663c-9.589 0-16.455-2.888-16.696-7.022-.266-4.588 7.679-8.521 18.48-9.148.91-.054 1.826-.08 2.723-.08 9.592 0 16.459 2.89 16.699 7.026.266 4.587-7.68 8.519-18.484 9.145-.909.053-1.826.079-2.722.079zm4.507-14.208c-.857 0-1.734.025-2.604.076-9.964.579-16.724 4.149-16.56 6.991.144 2.451 5.788 5.098 14.657 5.098.857 0 1.733-.025 2.604-.076 9.966-.578 16.728-4.146 16.563-6.986-.142-2.454-5.788-5.103-14.66-5.103zM66.378 207.708c-3.982-1.613-4.915-3.678-4.996-5.125l2.04-.113c.066 1.194 1.423 2.413 3.723 3.346l-.767 1.892zM269.805 179.536c-4.006 0-10.357-2.143-16.575-5.592-8.729-4.845-16.426-11.802-14.25-15.726.677-1.216 2.127-1.832 4.311-1.832 4.004 0 10.355 2.143 16.574 5.592 8.729 4.843 16.427 11.8 14.249 15.727-.676 1.215-2.125 1.831-4.309 1.831zm-26.514-21.16c-1.349 0-2.286.295-2.572.809-.98 1.769 3.672 7.578 13.477 13.021 5.939 3.295 11.921 5.342 15.609 5.342 1.348 0 2.285-.294 2.57-.808.982-1.771-3.669-7.581-13.475-13.021-5.941-3.296-11.922-5.343-15.609-5.343z"/><path class="st9" d="M262.533 194.068c-1.053 0-2.271-.146-3.643-.437-3.784-.804-8.369-2.635-12.91-5.154-7.605-4.215-13.408-9.466-14.438-13.065-.291-1.016-.227-1.911.19-2.661l7.241-14.484 1.779.89-7.262 14.522c-.171.311-.177.696-.037 1.186.72 2.518 5.249 7.306 13.49 11.873 4.374 2.428 8.763 4.185 12.359 4.948 3.693.784 5.442.269 5.818-.412l7.242-14.486 1.779.889-7.262 14.524c-.686 1.243-2.164 1.867-4.346 1.867z"/><g><path class="st9" d="M345.376 205.713c-3.975 0-9.947-1.996-15.976-5.339-8.257-4.579-15.874-11.538-13.726-15.417.686-1.234 2.156-1.859 4.37-1.859 3.974 0 9.947 1.996 15.979 5.339 4.405 2.442 8.256 5.292 10.844 8.023 2.88 3.041 3.876 5.597 2.879 7.393-.683 1.234-2.154 1.86-4.37 1.86zm-25.332-20.657c-1.388 0-2.356.311-2.657.852-.984 1.777 3.47 7.49 12.962 12.754 5.666 3.142 11.424 5.094 15.027 5.094 1.389 0 2.358-.311 2.658-.853.382-.688-.067-2.435-2.588-5.096-2.454-2.59-6.137-5.31-10.372-7.657-5.668-3.142-11.427-5.094-15.03-5.094z"/><path transform="rotate(26.603 314.037 190.372)" class="st9" d="M313.049 184.881h1.958v10.972h-1.958z"/><path class="st9" d="M337.978 220.271c-3.934 0-9.639-1.981-14.841-4.775l.927-1.725c8.92 4.789 15.706 5.374 16.643 3.681l7.263-14.479 1.75.879-7.281 14.514c-.738 1.33-2.343 1.905-4.461 1.905z"/></g><g><path class="st9" d="M294.464 173.835c-3.891 0-9.662-1.914-15.438-5.119-8.026-4.452-15.402-11.271-13.263-15.139.479-.862 1.635-1.887 4.426-1.887 3.891 0 9.663 1.913 15.44 5.118 4.285 2.375 8.022 5.161 10.524 7.846 2.782 2.986 3.728 5.508 2.736 7.294-.477.861-1.632 1.887-4.425 1.887zm-24.276-20.215c-1.445 0-2.417.317-2.737.893-.985 1.78 3.298 7.404 12.511 12.516 5.42 3.008 10.978 4.876 14.502 4.876 1.446 0 2.417-.316 2.736-.893.404-.728-.031-2.434-2.46-5.041-2.367-2.541-5.936-5.195-10.048-7.475-5.421-3.008-10.979-4.876-14.504-4.876z"/><path transform="rotate(26.706 264.108 159.124)" class="st9" d="M263.122 153.449h1.929v11.315h-1.929z"/><path class="st9" d="M287.177 188.323c-4.106 0-10.131-2.151-15.432-5.091l.937-1.688c9.217 5.112 16.257 5.762 17.247 3.979l7.276-14.471 1.725.867-7.295 14.505c-.738 1.329-2.343 1.899-4.458 1.899z"/></g><g><path class="st9" d="M245.084 143.4c-3.796 0-9.342-1.819-14.833-4.867-4.15-2.3-7.759-5.017-10.163-7.648-2.67-2.924-3.561-5.408-2.575-7.184.484-.876 1.657-1.922 4.493-1.922 3.793 0 9.34 1.819 14.837 4.866 7.77 4.312 14.873 10.976 12.735 14.836-.487.876-1.661 1.919-4.494 1.919zm-23.079-19.722c-1.491 0-2.497.335-2.833.943-.521.939.367 2.849 2.316 4.983 2.269 2.484 5.707 5.065 9.682 7.269 5.146 2.855 10.477 4.629 13.913 4.629 1.49 0 2.497-.334 2.834-.941.99-1.787-3.095-7.315-11.996-12.255-5.149-2.855-10.482-4.628-13.916-4.628z"/><path transform="rotate(26.785 215.877 129.06)" class="st9" d="M214.928 123.575h1.898v10.936h-1.898z"/><path class="st9" d="M237.746 157.896c-3.744 0-9.23-1.771-14.814-4.872a50.506 50.506 0 0 1-4.458-2.773l1.087-1.557a48.284 48.284 0 0 0 4.291 2.669c6.231 3.46 12.655 5.281 15.624 4.432.563-.161.941-.41 1.124-.74l7.302-14.461 1.694.855-7.318 14.493c-.452.818-1.213 1.372-2.278 1.677-.65.187-1.408.277-2.254.277z"/></g><g><path class="st9" d="M198.976 113.946c-3.753 0-9.345-1.858-14.956-4.97-7.763-4.307-14.905-10.885-12.852-14.594.456-.821 1.559-1.799 4.224-1.799 3.755 0 9.347 1.857 14.959 4.97 4.143 2.298 7.759 4.988 10.182 7.574 2.695 2.877 3.617 5.304 2.667 7.018-.456.822-1.558 1.801-4.224 1.801zm-23.584-19.505c-1.354 0-2.302.307-2.599.843-.944 1.705 3.213 7.121 12.129 12.067 5.268 2.922 10.654 4.736 14.055 4.736 1.374 0 2.297-.299 2.598-.843.385-.694-.042-2.333-2.397-4.847-2.294-2.449-5.749-5.014-9.727-7.22-5.27-2.92-10.657-4.736-14.059-4.736z"/><path transform="rotate(26.671 169.827 99.185)" class="st9" d="M168.902 94.322h1.858v9.715h-1.858z"/><path class="st9" d="M192.01 127.822c-3.962 0-9.804-2.093-14.945-4.945-2.458-1.361-4.717-2.852-6.715-4.429l1.151-1.459c1.919 1.516 4.094 2.949 6.464 4.263 8.913 4.945 15.707 5.601 16.654 3.896l6.964-13.865 1.66.834-6.982 13.899c-.701 1.262-2.232 1.806-4.251 1.806z"/></g><g><path class="st9" d="M217.523 147.664c-3.915 0-9.741-1.935-15.583-5.175-4.319-2.396-8.087-5.199-10.612-7.896-2.809-3.001-3.769-5.533-2.775-7.322.476-.857 1.627-1.88 4.412-1.88 3.915 0 9.741 1.937 15.585 5.178 7.225 4.007 12.555 8.907 13.578 12.486.298 1.043.232 1.962-.196 2.731-.474.857-1.625 1.878-4.409 1.878zm-24.558-20.335c-1.416 0-2.406.321-2.717.882-.403.727.041 2.436 2.496 5.058 2.39 2.554 5.99 5.227 10.137 7.525 5.485 3.043 11.096 4.933 14.644 4.933 1.415 0 2.405-.321 2.715-.881.169-.305.178-.728.026-1.258-.705-2.466-4.965-7.062-12.655-11.324-5.487-3.044-11.099-4.935-14.646-4.935z"/><path class="st9" d="M210.204 162.164c-4.131 0-10.22-2.179-15.578-5.149-8.087-4.487-15.526-11.345-13.384-15.217l7.275-14.474 1.731.871-7.293 14.507c-1.004 1.815 3.323 7.465 12.61 12.617 9.292 5.152 16.376 5.831 17.364 4.053l7.272-14.473 1.731.869-7.291 14.508c-.73 1.321-2.329 1.888-4.437 1.888z"/></g><g><path class="st9" d="M169.555 115.723c-3.915 0-9.741-1.935-15.585-5.174-8.092-4.485-15.534-11.344-13.388-15.218.477-.858 1.629-1.88 4.414-1.88 3.915 0 9.741 1.935 15.585 5.176 8.09 4.486 15.53 11.344 13.386 15.216-.476.857-1.628 1.88-4.412 1.88zm-24.559-20.334c-1.438 0-2.403.313-2.719.883-.987 1.782 3.34 7.432 12.632 12.582 5.487 3.042 11.099 4.932 14.646 4.932 1.416 0 2.406-.321 2.717-.882.986-1.781-3.341-7.43-12.63-12.581-5.488-3.044-11.1-4.934-14.646-4.934z"/><path class="st9" d="M162.278 130.239c-.958 0-2.047-.119-3.262-.357-3.626-.713-8-2.425-12.317-4.818-7.227-4.011-12.556-8.913-13.577-12.49-.298-1.042-.231-1.96.196-2.729l7.27-14.473 1.731.869-7.289 14.509c-.188.34-.197.762-.045 1.291.704 2.465 4.963 7.061 12.654 11.328 4.145 2.298 8.318 3.937 11.751 4.611 3.525.691 5.208.165 5.611-.561l7.272-14.477 1.731.869-7.291 14.512c-.705 1.276-2.214 1.916-4.435 1.916z"/></g><g><path class="st9" d="M322.071 212.999c-3.975 0-9.947-1.996-15.976-5.341-4.406-2.443-8.257-5.293-10.844-8.024-2.879-3.04-3.875-5.596-2.878-7.392.684-1.234 2.153-1.859 4.367-1.859 3.973 0 9.946 1.994 15.978 5.336 4.407 2.444 8.259 5.295 10.847 8.027 2.879 3.04 3.875 5.597 2.878 7.393-.472.848-1.612 1.86-4.372 1.86zm-25.332-20.658c-1.387 0-2.355.31-2.654.851-.4.721.07 2.438 2.588 5.096 2.453 2.59 6.137 5.31 10.372 7.658 5.665 3.144 11.423 5.096 15.026 5.096 1.389 0 2.358-.311 2.659-.853.382-.688-.067-2.435-2.587-5.096-2.454-2.592-6.138-5.312-10.375-7.661-5.669-3.141-11.427-5.091-15.029-5.091z"/><path class="st9" d="M314.846 227.512c-3.917 0-9.961-1.974-16.012-5.329-4.406-2.442-8.258-5.292-10.845-8.024-2.878-3.04-3.874-5.596-2.878-7.392l7.265-14.479 1.75.879-7.283 14.514c-.4.723.049 2.47 2.568 5.131 2.454 2.591 6.138 5.312 10.373 7.658 7.905 4.384 14.181 5.612 16.668 4.899.513-.147.855-.37 1.016-.66l7.265-14.477 1.75.879-7.283 14.511c-.439.796-1.176 1.333-2.207 1.629-.612.176-1.334.261-2.147.261z"/></g><g><path class="st6" d="M111.404 123.073l-.262 2.261c-.086.717-.172 1.591-.443 2.573-.258.977-.445 2.129-.867 3.303-.422 1.167-.805 2.475-1.359 3.791-.572 1.307-1.076 2.739-1.805 4.112-1.35 2.811-2.936 5.726-4.559 8.61l-2.476 4.252c-.778 1.428-1.539 2.838-2.278 4.2-.689 1.378-1.355 2.709-1.985 3.977-.647 1.255-1.186 2.486-1.708 3.609-2.08 4.498-3.471 7.499-3.471 7.499s.275-.783.762-2.145c.506-1.354 1.179-3.312 2.127-5.61.47-1.152.95-2.408 1.542-3.707.588-1.301 1.163-2.702 1.866-4.088.719-1.371 1.461-2.795 2.215-4.236.797-1.422 1.611-2.866 2.425-4.313 1.665-2.852 3.281-5.723 4.662-8.479.727-1.365 1.305-2.735 1.932-4 .607-1.277 1.039-2.546 1.516-3.679.455-1.148.721-2.236 1.055-3.186.344-.939.5-1.809.643-2.519.294-1.414.468-2.225.468-2.225z"/></g><g><path class="st6" d="M91.618 167.939s.195.229.547.624c.176.187.376.475.64.69l.867.786c.69.562 1.522 1.209 2.431 1.886a35.663 35.663 0 0 0 2.924 1.958c2.071 1.241 4.188 2.448 5.65 3.536.359.285.688.541.975.774.297.222.508.472.705.645.381.367.598.58.598.58s-.229-.195-.631-.544c-.205-.164-.43-.397-.738-.6-.301-.211-.637-.449-1.01-.708-1.514-.996-3.672-2.069-5.824-3.19a38.329 38.329 0 0 1-3.1-1.818 73.168 73.168 0 0 1-2.574-1.771c-.373-.302-.714-.577-1.013-.821-.317-.239-.501-.485-.697-.671a47.472 47.472 0 0 1-.585-.595l.835-.761z"/></g><g><path class="st5" d="M95.344 166.022s.831-1.667 2.163-4.123c.679-1.221 1.442-2.662 2.312-4.175.874-1.512 1.804-3.124 2.728-4.742.959-1.595 1.916-3.191 2.812-4.689.895-1.498 1.785-2.868 2.521-4.056 1.496-2.368 2.557-3.915 2.557-3.915s-.824 1.665-2.145 4.121c-.68 1.225-1.436 2.67-2.305 4.184-.867 1.516-1.797 3.136-2.721 4.753-.961 1.595-1.922 3.191-2.824 4.685-.901 1.501-1.797 2.869-2.534 4.057a151.102 151.102 0 0 1-2.564 3.9z"/></g></svg>