<svg xmlns="http://www.w3.org/2000/svg" width="635.084" height="88" viewBox="0 0 635.084 88"><path fill="#50514F" d="M11.353 68h-1c0-3.527-.063-7.139-.124-10.631-.123-7.033-.25-14.305.125-21.396.171-3.225.612-6.547 1.079-10.064.843-6.349 1.715-12.914.85-18.76l.989-.146c.885 5.985.004 12.621-.848 19.038-.464 3.497-.903 6.8-1.071 9.985-.373 7.056-.247 14.31-.124 21.325.061 3.497.124 7.113.124 10.649zM614.64 72h-1c0-3.536.063-7.152.124-10.648.123-7.016.25-14.27-.123-21.325-.169-3.186-.607-6.489-1.071-9.986-.853-6.417-1.733-13.053-.848-19.038l.988.146c-.864 5.846.008 12.411.851 18.76.467 3.517.908 6.839 1.078 10.064.375 7.09.248 14.363.125 21.396-.061 3.492-.124 7.104-.124 10.631z"/><path fill="#50514F" d="M606.627 71.299c-4.732 0-9.599-.771-14.127-1.488-1.916-.304-3.727-.591-5.502-.821-9.588-1.244-19.907-2.402-30.409-2.449-15.094-.059-30.36 1.316-45.135 2.654-5.396.488-10.974.994-16.463 1.421l-.078-.997c5.483-.427 11.059-.932 16.45-1.42 14.799-1.34 30.084-2.729 45.229-2.658 10.558.047 20.914 1.209 30.534 2.457 1.789.232 3.606.521 5.529.825 7.963 1.262 16.989 2.691 24.295-.286l.377.926c-3.33 1.358-6.973 1.836-10.7 1.836zM130.988 73.917c-12.354 0-25.623-.802-40.191-2.42l-1.888-.14c-26.589-1.972-51.703-3.832-78.039-2.858l-.036-.999c26.394-.978 51.533.886 78.15 2.86l1.906.141c20.092 2.232 37.689 2.909 53.816 2.067l.052.999c-4.47.234-9.054.35-13.77.35z"/></svg>