<svg xmlns="http://www.w3.org/2000/svg" width="708" height="290" viewBox="0 0 708 290"><path fill="none" stroke="#50514F" stroke-miterlimit="10" d="M462.936 26.108c-.539-.752-1.5-3 113.355-3.558 18.611-.502 38.689 2.576 57.74 3.268 17.289.626 50.791-7.378 53.871 11.224 3.158 19.075-7.736 38.222-10.119 56.964-2.852 22.425-3.887 44.939-6.977 67.365-5.312 38.554-7.947 76.874-7.947 94.918M227.945 24.609c.541-.752-105.326 2.862-105.447 3.26-18.611-.503-38.688 2.574-57.74 3.265-17.288.627-50.792-7.376-53.872 11.225-3.158 19.076 7.737 38.222 10.119 56.963 2.852 22.426 3.886 44.939 6.977 67.365 3.851 27.939 7.947 64.512 7.947 93.275"/></svg>