<svg xmlns="http://www.w3.org/2000/svg" width="404" height="478" viewBox="0 0 404 478"><path fill="none" stroke="#000" stroke-miterlimit="10" stroke-dasharray="6" d="M382.191 206.902c0 99.433-80.607 180.04-180.039 180.04-99.436 0-180.043-80.607-180.043-180.04 0-99.434 80.607-180.044 180.043-180.044 99.432 0 180.039 80.611 180.039 180.044z"/><path fill="#DDD86B" d="M359.691 206.902c0 87.007-70.533 157.541-157.539 157.541-87.01 0-157.544-70.534-157.544-157.541 0-87.008 70.534-157.545 157.544-157.545 87.006 0 157.539 70.538 157.539 157.545z"/><path fill="#B0B0B0" stroke="#3F3832" stroke-miterlimit="10" d="M246.658 211.667c3.947-4.52 21.379-21.856 23.592-27.47 2.447-6.191-4.742-13.27-8.18-18.372-3.771-5.599-9.088-10.934-14.697-14.401-2.568-1.586-5.568-2.43-7.037.855-6.455-1.427-13.211-10.311-17.381-15.165-4.938-5.745-10.047-12.782-13.994-19.478-1.676-2.847-2.777-7.83-6.029-9.035-1.426-.533-3.496.382-5 .035-1.609-.369-2.803-1.546-4.188-2.357-8.726-5.123-4.407 5.211-1.634 9.386 3.6 5.418 7.894 9.547 11.958 14.627 4.977 6.221-.012 12.019-7.045 7.454-7.885-5.114-16.609-32.059-29.017-19.006-2.054 2.161-2.821 5.05-5.3 6.936-1.727 1.314-5.599 2.121-6.775 4.276-1.683 3.09.972 6.485 2.053 9.407 1.208 3.268 1.663 6.025 1.474 9.645-4.525 5.134-11.784-13.877-26.596-6.169-2.165 1.128-4.75 6.202-3.276 8.742.828 1.427 5.757 3.146 7.462 4.545 4.348 3.556 11.108 10.035 11.041 16.238-.04 3.621-2.035 5.597-5.808 4.185-3.157-1.183-5.047-5.788-7.265-8.178-4.591-4.956-10.165-9.92-17.565-9.488-8.643.504-3.315 10.232-1.347 15.524 2.439 6.561 5.195 12.117 10.423 17.045 1.865 1.756 5.698 3.541 6.446 6.222 1.008 3.619-2.767 6.178-6.126 6.15-7.444-.065-13.032-12.588-15.639-18.365-3.013-6.68-4.701-16.007-14.522-14.248-2.235 3.956 5.84 9.639 7.712 12.912 2.543 4.451 4.804 10.649 4.005 15.961-.49.035-1.025.112-1.512.123.074 2.68 4.561 5.08 6.394 6.993 2.283 2.385 4.092 5.219 6.199 7.632 4.594 5.26 10.864 8.207 15.84 13.194 4.768 4.774 5.835 10.098 7.037 16.239 1.101 5.617 7.112 13.008 10.529 17.68 3.482 4.759 9.168 8.473 14.38 10.101 6.979 2.179 10.587-2.921 15.864-7.055 10.596-8.308 21.247-15.808 31.147-24.911 5.652-5.193 11.49-9.189 17.039-14.707 4.758-4.734 10.508-9.773 15.635-13.789"/><path fill="#CACACA" d="M239.662 152.928s.918 3.215-.459 5.051c-1.379 1.837-5.512 7.35-6.891 8.5-1.379 1.147-13.09 16.304-15.615 17.681-2.527 1.381-30.549 23.197-32.614 25.034-2.068 1.839-18.832 16.535-20.672 19.292-1.835 2.755-2.065 5.512-5.97 7.578-3.902 2.066-8.955 4.593-10.794 4.825-1.838.228-3.193-1.156-2.4 2.406.793 3.563 3.777 10.913 6.764 13.669 2.986 2.754 5.744 7.119 8.497 9.416 2.758 2.298 6.661 4.823 10.564 4.365 3.905-.462 9.417-4.365 12.403-6.202 2.985-1.838 16.993-13.321 20.44-15.158 3.445-1.838 19.291-18.832 23.426-21.128 4.135-2.299 15.615-14.011 19.977-17.457 4.367-3.443 10.107-10.562 14.242-14.008 4.133-3.445 5.053-6.432 6.891-11.023 1.84-4.595.457-6.662-1.146-10.564-1.611-3.905-6.203-7.809-9.65-12.402-3.443-4.591-6.887-7.578-9.414-9.188-2.526-1.606-5.512-1.606-7.579-.687z"/><path fill="#50514F" stroke="#3F3832" stroke-miterlimit="10" d="M243.758 214.27c-.672 4.614 2.973 15.552 5.729 20.179 3.635 6.102 9.154 11.48 13.801 16.758 9.199 10.453 20.18 18.126 30.344 27.272 10.133 9.118 19.715 17.914 26.961 29.422 3.484 5.534 8.932 10.137 11.838 16.019 2.848 5.764 5.576 11.342 8.078 17.21 3.469 8.134 10.324 32.452-7.266 24.786-6.01-2.618-11.832-6.627-17.633-10.235-5.568-3.465-11.342-6.063-16.361-10.51-9.75-8.634-20.059-16.811-29.416-26.136-5.631-5.61-7.785-12.854-12.244-19.211-4.168-5.942-8.037-12.032-12.654-17.567-4.102-4.916-8.896-9.499-12.699-14.676-3.926-5.348-13.473-16.304-15.041-16.569-4.52-1.566-6.205-1.897-10.266-3.52 6.186-5.2 14.896-8.029 20.914-14.27 4.5-4.663 15.635-17.48 15.621-16.94"/><path fill="#6FC0B2" stroke="#3F3832" stroke-miterlimit="10" d="M88.156 237.283c-8.4-8.046-3.33 14.224-5.207 20.235-2.06 6.604-4.531 13.363-4.142 20.472.128 2.331 3.286 10.767 7.1 10.175 3.009-.463 4.652-10.569 4.986-12.854 1.04-7.068 2.934-15.088.515-22.059-1.47-4.23-.458-12.722-3.252-15.969M86.4 178.488c-4.278 1.129-.12 15.087 1.307 22.029.904 4.404 6.949 17.254 1.057 20.375-11.883 6.293-14.217-31.128-14.217-36.065 0-7.47.057.104-.629-6.943-.758-7.775 7.697-22.792 12.586-27.062 9.038-7.897 17.418-16.887 26.871-24.228 5.782-4.488 9.948-10.582 15.597-15.005 5.891-4.608 12.804-8.825 19.026-12.854 4.972-3.221 9.495-7.517 15.228-9.714 5.553-2.126 11.068-6.413 17.148-4.823 5.874 1.54 13.166 5.494 17.554 9.827 3.049 3.012 9.357 13.343.822 12.97-2.921-.127-5.174-4.269-7.448-4.401-3.398-.192-3.825 4.147-3.585 6.854.407 4.562 5.385 9.838 8.968 13.163 3.477 3.23 11.387 9.791 5.637 14.926-5.697 5.089-10.939-6.478-13.276-9.804-2.785-3.966-9.656-13.99-15.637-12.983-4.365.732-8.119 8.642-12.154 10.733-3.012 1.557-6.124 1.294-5.721 5.527.263 2.748 2.9 5.846 3.685 8.578.431 1.491 1.896 7.962.639 9.406-3.005 3.448-5.244-3.434-7.273-4.749-4.827-3.131-15.462-4.33-20.346-.789-6.42 4.656-.859 10.118 3.166 14.3 4.661 4.842 11.147 6.9 10.642 15.015-.658 10.593-12.255-4.975-14.603-7.374-4.244-4.334-11.601-11.167-16.866-5.394-4.689 5.138 2.224 12.291 5.036 17.578 2.986 5.601 5.054 10.588 8.786 16.022 1.247 1.818 4.285 6.559 2.427 8.479-1.69 1.742-6.984.278-8.874-.317-7.015-2.208-7.69-11.011-11.357-17.169-1.829-3.072-3.612-6.521-6.209-8.958-1.495-1.398-6.796-6.16-8.996-5.348-4.066 1.497-.232 4.431 1.227 5.43 2.976 2.046 4.15 2.725 6.227 6.046 2.101 3.364 7.014 11.413 5.21 15.515-2.595 5.895-12.314-2.901-14.001-6.444-1.253-2.624-4.657-13.011-7.654-12.349"/><path fill="none" stroke="#3F3832" stroke-miterlimit="10" d="M190.168 212.805c-.717 2.633-13.316 14.608-16.658 17.984-5.858 5.921-13.021 11.095-19.229 16.844 1.773 2.481 12.739 15.409 13.418 16.65M178.729 262.238c-1.017-4.758 20.195-14.996 24.197-17.977 9.393-6.994 20.455-15.022 28.117-23.806 4.115-4.717 7.785-9.66 12.541-13.88 5.283-4.682 11.316-7.812 15.74-13.29 1.689-2.094 2.811-5.017 4.789-6.627M246.955 158.472c2.574 8.032 10.09 13.931 16.342 18.791"/><path fill="#FFF" stroke="#3F3832" stroke-miterlimit="10" d="M242.102 228.113c-4.023 1.598 1.488 8.712 3.471 12.25 2.32 4.142 4.758 8.977 7.258 12.936 2.641 4.184 6.037 6.966 9.15 10.729 3.357 4.062 6.537 7.787 10.1 11.676 5.049 5.513 10.268 12.59 15.459 17.67 7.705 7.54 15.455 15.477 22.719 23.668 5.561 6.267 10.766 14.367 14.201 22.087 3.725 8.366 1.893 13.884 9.781 19.248 5.742-2.078 4.65-7.007 4.227-11.98-.57-6.675-5.324-14.108-9.418-19.55-9.982-13.267-21.291-25.295-33.877-36.305-5.895-5.158-11.082-10.186-15.842-16.434-4.338-5.694-10.477-9.79-15.229-15.136-8.733-9.825-21.821-32.337-22-30.859"/><path fill="none" stroke="#3F3832" stroke-miterlimit="10" d="M142.63 242.219c8.677.18 12.055-3.325 17.614-9.806 5.479-6.383 11.977-12.343 18.075-17.974 12.48-11.52 27.069-20.786 39.54-32.684 4.566-4.357 9.4-8.725 13.244-13.777 2.367-3.109 8.373-4.886 7.691-8.702-.48-2.691 4.16-9.223 4.568-8.846"/><path fill="none" stroke="#3F3832" stroke-miterlimit="10" d="M131.581 179.065c1.63.548 8.684 10.482 9.682 11.87 4.575 6.351 9.832 11.492 15.678 16.646 2.326 2.05 9.659 11.763 11.799 13.61M114.542 199.655c4.712 6.631 12.208 11.729 18.218 17.276 4.515 4.168 9.27 8.168 13.449 12.613 1.083 1.149 6.264 6.888 6.909 8.212M142.941 148.773c2.331 1.855 3.386 5.251 4.943 7.729 4.08 6.482 10.628 11.821 16.082 17.139 7.452 7.261 19.736 20.668 26.543 28.381M162.818 127.001c7.625 11.22 17.999 25.807 26.944 36.065 23.677 27.144 23.955 34.33 10.933 13.579M178.676 127.238c6.257 8.505 13.181 16.297 20.085 24.295 4.035 4.673 7.34 9.927 11.17 14.769 11.371 14.382 8.178 18.736 3.061 4.245M204.709 123.689c3.188 2.496 5.549 6.691 7.982 9.881 3.939 5.165 7.729 9.974 12.115 14.758 1.977 2.158 9.82 11.921 11.613 14.094"/><path fill="none" stroke="#000" stroke-miterlimit="10" stroke-dasharray="6" d="M203.951 396.575c0 23.317-.109 19.372-.098 42.425"/></svg>