<svg id="Capa_1" xmlns="http://www.w3.org/2000/svg" width="334.483" height="362.981" viewBox="0 0 334.483 362.981"><style>.st0{stroke:#3f352e;stroke-width:2;stroke-miterlimit:10}.st0,.st1{fill:none}.st1,.st2,.st3{stroke:#3f352e;stroke-miterlimit:10}.st2{stroke-width:2;fill:#e0d963}.st3{fill:#4f504e}</style><path class="st0" d="M105.324 297.936c23.354 7.15 55.728-32.734 69.779-48.527 17.342-19.486 45.856-26.027 40.855-66.66-7.391-60.084-103.904-90.756-128.472-32.238-5.948 14.178-4.722 31.535-9.425 45.627-5.884 17.648-10.885 34.893-8.236 54.006 4.586 33.016 15.492 40.74 40.972 48.652"/><path class="st1" d="M89.989 289.082c2.486-2.277 4.117-8.611 5.523-11.863 1.717-3.99 3.61-7.955 5.531-11.896 1.773-3.639 3.431-7.562 7.892-6.049 2.901.982 9.688 3.793 9.608 7.025-.043 1.572-1.649 4.52-2.225 6.012-.777 2.051-1.711 3.922-2.577 5.949-1.857 4.365-3.781 8.955-6.147 13.154-.565.998-1.912 3.723-2.911 4.252-1.521.803-3.603-1.014-5.166-1.682-1.713-.734-10.381-2.729-9.429-5.107"/><path class="st1" d="M106.615 257.627c1.241-2.697.926-7.545 1.086-10.656.191-3.744.113-7.553.019-11.344-.117-4.361-.626-8.543-.018-12.83.374-2.611 1.114-5.402 1.097-8.031 5.185.539 8.968 3.307 13.665 5.24 2.068.848 3.855.654 5.9 2.215 1.594 1.217 3.1 2.328 4.715 3.527 1.521 1.117 3.035 3.176 4.625 3.752 1.611.58 3.907.686 5.681 1.268 1.197.391 5.31 1.58 5.438 3.168.073.895-3.034 3.721-3.829 4.646-5.664 6.559-13.527 11.246-19.157 17.934-1.324 1.566-2.724 3.158-4.267 4.492-.585.506-1.359 1.285-2.087 1.584-1.555.646-.167.621-1.743-.018-2.273-.922-10.152-7.529-12.355-2.949M72.354 284.074c-1.062 2.184-1.954 4.389-2.864 6.506-.938 2.197-1.023 3.68-1.525 5.629-.931 3.578-3.073 1.465-4.368 3.344-.989 1.426.695 3.736-.439 5.805-1.195-.486-1.951-.076-2.539.945-.992 1.715.567 1.459.491 2.889-.184 3.615-2.771 1.117-4.096 3.244-.805 1.291.425 1.49.552 2.48.183 1.344-.001 1.441-.126 2.895-.206 2.287.398 3.566 1.127 5.945 1.178 3.846 1.11 8.949 2.88 12.484 1.718 3.439 8.967 5.814 12.497 7.533 2.136 1.041 3.887 2.398 6.16 1.867 1.745-.404 3.673-2.014 5.484-2.574 4.567-1.412 9.756-.158 13.666-3.363 2.302-1.891.791-3.498 1.825-5.496 1.12-2.162 3.145-1.178 3.764-4.148.195-.965-.594-1.967-.058-2.83 1.083-1.732 1.752.062 2.887-1.031 1.873-1.812-1.387-4.189 1.013-5.588 1.224-.713 2.075 1.135 3.253.078 1.353-1.219-.303-2.469-.511-3.527-.627-3.281.318-3.836 3.34-3.668.804-1.189.141-2.443.286-3.752.16-1.457.718-2.49 1.322-3.867-3.183-1.354-6.685-3.697-9.835-5.428-4.108-2.262-8.421-4.254-12.607-6.459-4.272-2.262-8.382-5.234-12.987-6.939-1.825-.676-3.359-.676-5.239-.959-1.282-.193-3.925-.939-3.95-.785"/><path class="st1" d="M66.671 298.258c4.13 2.217 8.645 6.029 13.046 7.932 4.826 2.084 9.784 4.283 14.553 6.285 5.02 2.111 10.452 4.221 15.595 5.225M62.674 306.461c4.131 2.215 8.644 6.029 13.045 7.934 4.825 2.084 9.784 4.281 14.555 6.281 5.02 2.113 10.45 4.225 15.592 5.23M58.677 314.664c4.13 2.219 8.643 6.033 13.043 7.938 4.83 2.08 9.787 4.279 14.554 6.281 5.022 2.111 10.452 4.225 15.597 5.225M109.242 215.818c-4.232-.857-7.325-16.906-8.614-21.68M127.666 221.977c4.871-2.469 4.332-13.486 6.103-18.094 1.957-5.109 6.072-10.754 6.478-15.818M145 231.545c5.732-4.486 13.854-6.5 20.171-10.422 4.886-3.025 9.32-7.467 14.539-9.885M77.159 136.818c-.345.766-10.042-8.379-12.486-10.732-4.043-3.891-10.188-8.32-12.978-13.105M101.445 119.537c2.635-6.336-7.124-23.631-9.677-29.979-1.983-4.928-9.756-18.271-7.646-23.582M140.734 114.652c.128-4.342-1.055-9.551-.937-14.264.365-14.396 3.715-28.488 4.255-42.891.341-9.059.93-18.127.952-27.191.006-2.391.63-8.084-.443-7.855M173.106 110.203c2.163-4.266 3.969-8.662 5.796-13.049M193.15 129.248c2.25.018 1.771-.553 3.86-2 7.69-5.305 15.075-13.293 21.065-20.334 13.482-15.854 24.857-34.277 40.834-47.908.493-.008.326.361-.487 1.1M212.63 140.488c8.477-9.223 20.903-16.934 29.076-21.463M217.818 168.904c2.613-.723 5.218-2.717 7.71-4.209 10.112-6.086 20.772-11.014 31.225-16.49 13.857-7.258 27.562-14.742 41.854-21.145 4.742-2.127 11.896-3.645 15.506-7.652a2.158 2.158 0 0 0-1.573-.225M229.293 204.383c4.354 1.113 10.372-.547 14.659-1.695 8.474-2.264 16.772-4.213 25.309-6.131 3.133-.709 8.358-3.838 11.158-3.357M215.784 235.582c8.855 1.309 17.451 5.143 26.364 6.078"/><g><path class="st2" d="M103.847 293.412c23.354 7.148 55.726-32.734 69.778-48.525 17.348-19.49 45.86-26.031 40.858-66.666-7.395-60.08-103.909-90.752-128.474-32.232-5.95 14.176-4.723 31.533-9.423 45.627-5.887 17.645-10.886 34.891-8.238 54.004 4.586 33.02 15.492 40.74 40.973 48.654"/><path class="st1" d="M88.512 284.561c2.488-2.279 4.118-8.613 5.524-11.865 1.717-3.992 3.611-7.957 5.532-11.898 1.772-3.639 3.432-7.561 7.891-6.047 2.903.986 9.687 3.789 9.606 7.025-.039 1.572-1.647 4.52-2.223 6.014-.776 2.047-1.713 3.922-2.578 5.949-1.858 4.363-3.781 8.953-6.146 13.15-.567 1-1.913 3.723-2.91 4.254-1.52.801-3.604-1.012-5.167-1.684-1.711-.732-10.381-2.725-9.426-5.109"/><path class="st1" d="M105.14 253.102c1.237-2.697.925-7.547 1.084-10.652.191-3.746.113-7.555.019-11.346-.115-4.361-.622-8.543-.014-12.83.368-2.611 1.11-5.404 1.092-8.029 5.183.535 8.971 3.299 13.666 5.236 2.069.848 3.857.654 5.9 2.217 1.595 1.213 3.101 2.328 4.717 3.527 1.521 1.117 3.034 3.174 4.622 3.748 1.613.582 3.912.689 5.682 1.27 1.198.387 5.309 1.582 5.438 3.168.071.893-3.033 3.721-3.83 4.646-5.665 6.559-13.526 11.246-19.157 17.932-1.325 1.57-2.722 3.16-4.263 4.496-.587.504-1.363 1.285-2.089 1.586-1.557.646-.168.619-1.745-.018-2.274-.922-10.151-7.533-12.356-2.953"/><path class="st3" d="M70.877 279.553c-1.063 2.182-1.954 4.385-2.864 6.502-.938 2.193-1.022 3.684-1.527 5.627-.929 3.58-3.075 1.469-4.365 3.348-.988 1.428.692 3.734-.44 5.807-1.196-.49-1.949-.078-2.539.945-.991 1.715.566 1.455.494 2.891-.19 3.613-2.773 1.113-4.1 3.238-.805 1.297.426 1.492.551 2.482.186 1.344.001 1.439-.128 2.895-.201 2.289.405 3.568 1.129 5.945 1.181 3.844 1.111 8.947 2.877 12.484 1.724 3.438 8.972 5.816 12.503 7.531 2.134 1.041 3.886 2.398 6.158 1.871 1.747-.408 3.674-2.014 5.484-2.578 4.568-1.412 9.757-.156 13.668-3.365 2.3-1.885.793-3.496 1.824-5.488 1.122-2.168 3.146-1.184 3.763-4.156.196-.963-.596-1.965-.059-2.828 1.084-1.73 1.754.062 2.891-1.029 1.872-1.814-1.393-4.189 1.011-5.588 1.226-.713 2.075 1.135 3.252.08 1.354-1.219-.3-2.471-.508-3.527-.629-3.283.314-3.842 3.335-3.67.81-1.188.145-2.443.29-3.754.158-1.453.718-2.488 1.32-3.865-3.183-1.355-6.688-3.699-9.835-5.428-4.106-2.264-8.419-4.254-12.604-6.461-4.275-2.26-8.385-5.232-12.988-6.938-1.828-.676-3.362-.674-5.243-.959-1.278-.193-3.922-.941-3.946-.787"/><path class="st1" d="M65.194 293.734c4.132 2.213 8.642 6.027 13.046 7.932 4.826 2.084 9.784 4.279 14.55 6.285 5.022 2.109 10.453 4.221 15.596 5.227M61.198 301.936c4.13 2.217 8.639 6.033 13.044 7.938 4.827 2.08 9.785 4.279 14.552 6.281 5.021 2.111 10.451 4.225 15.594 5.227M57.199 310.141c4.132 2.215 8.644 6.029 13.047 7.934 4.826 2.084 9.784 4.279 14.552 6.281 5.021 2.113 10.451 4.225 15.595 5.227M107.765 211.293c-4.236-.855-7.324-16.904-8.612-21.678M126.191 217.455c4.868-2.473 4.332-13.484 6.103-18.098 1.956-5.107 6.068-10.752 6.478-15.818M143.522 227.021c5.732-4.488 13.854-6.496 20.175-10.422 4.882-3.027 9.319-7.471 14.536-9.883M75.682 132.295c-.346.766-10.041-8.381-12.485-10.734-4.042-3.891-10.187-8.318-12.978-13.104M99.969 115.012c2.634-6.336-7.126-23.629-9.679-29.979-1.979-4.926-9.757-18.27-7.644-23.58M139.261 110.125c.124-4.336-1.06-9.549-.942-14.262.367-14.393 3.718-28.488 4.258-42.891.338-9.057.927-18.129.953-27.189.004-2.395.629-8.086-.443-7.854M171.628 105.682c2.164-4.268 3.974-8.666 5.798-13.051M191.676 124.725c2.248.016 1.768-.557 3.859-1.998 7.689-5.309 15.075-13.295 21.062-20.336 13.481-15.852 24.857-34.277 40.833-47.906.497-.012.331.359-.483 1.094M211.151 135.961c8.479-9.219 20.903-16.93 29.08-21.461M216.341 164.373c2.613-.717 5.219-2.709 7.711-4.203 10.112-6.084 20.774-11.012 31.226-16.488 13.853-7.262 27.56-14.744 41.851-21.145 4.744-2.127 11.896-3.646 15.505-7.652-.479-.275-1.005-.35-1.572-.225M227.813 199.859c4.355 1.115 10.376-.549 14.661-1.695 8.475-2.266 16.774-4.213 25.308-6.135 3.135-.707 8.361-3.836 11.161-3.354M214.304 231.059c8.858 1.309 17.454 5.145 26.365 6.078"/></g></svg>