<svg id="Capa_1" xmlns="http://www.w3.org/2000/svg" width="817" height="782" viewBox="0 0 817 782"><style>.st0{stroke-dasharray:6}.st0,.st1{fill:none;stroke:#4f504e;stroke-miterlimit:10}</style><path class="st1" d="M402.345 118.081c-65.603-2.781-121.083 16.523-172.254 64.15-113.271 105.422-120.153 273.943-29.849 394.251 101.255 134.896 288.479 110.604 400.234 3.197 86.909-83.533 106.053-189.293 60.838-300.548-22.618-55.649-62.242-112.962-118.558-139.733-28.271-13.434-114.853-44.078-140.411-21.317"/><path class="st0" d="M401.005 98.192c-70.429-2.766-129.916 18.142-184.687 69.438C95.084 281.17 88.26 462.087 185.596 590.928c109.141 144.461 310.027 117.757 429.632 2.093 93.013-89.96 113.207-203.549 64.299-322.821-24.463-59.657-67.188-121.048-127.728-149.595-30.391-14.325-123.434-46.93-150.794-22.413"/><path class="st1" d="M426.502 66.19c-77.175-8.755-144.25 9.398-208.602 61.331C75.458 242.465 53.284 440.74 149.805 590.229c108.228 167.615 331.167 154.562 471.993 37.147 109.516-91.319 140.923-214.518 96.848-349.562-22.048-67.55-64.022-138.479-128.241-174.763-32.237-18.208-131.844-61.586-163.903-36.861"/><path class="st0" d="M417.867 22.885c-87.772-7.336-163.194 15.486-234.4 76.503C25.855 234.449 7.359 459.939 121.772 626.155c128.288 186.37 380.558 164.109 536.252 26.303 121.08-107.178 152.555-247.875 98.074-399.474-27.251-75.83-77.207-154.826-151.214-193.803-37.149-19.559-151.509-65.396-187.017-36.296"/></svg>