<svg id="Capa_1" xmlns="http://www.w3.org/2000/svg" width="305" height="272" viewBox="0 0 305 272"><style>.st0,.st1{fill:#ff5f5c;stroke:#3f352e;stroke-miterlimit:10}.st1{fill:none}</style><path class="st1" d="M127.874 120.913c-39.161-20.473-90.855-.471-93.252 50.619-1.508 32.016 21.302 43.051 48.385 50 14.001 3.596 73.365 29.852 81.23 30.797 19.36 2.344 60.685-48.668 75.976-64.133 24.487-24.768 50.673-54.719 50.249-91.727-.456-40.738-42.514-85.062-86.084-73.729-40.212 10.461-77.764 59.998-76.503 100.834"/><path class="st0" d="M118.043 120.913c-39.16-20.473-90.852-.471-93.256 50.619-1.502 32.016 21.302 43.051 48.386 50 14 3.596 73.37 29.852 81.233 30.797 19.362 2.344 60.685-48.668 75.968-64.133 24.489-24.768 50.675-54.719 50.259-91.727-.459-40.738-42.516-85.062-86.084-73.729-40.215 10.461-77.766 59.998-76.505 100.834"/><path class="st1" d="M114.874 118.913c-39.161-20.473-90.855-.471-93.252 50.619-1.508 32.016 21.302 43.051 48.385 50 14.001 3.596 73.365 29.852 81.23 30.797 19.36 2.344 60.685-48.668 75.976-64.133 24.487-24.768 50.673-54.719 50.249-91.727-.456-40.738-42.514-85.062-86.084-73.729-40.212 10.461-77.764 59.998-76.503 100.834"/></svg>