<svg id="Capa_1" xmlns="http://www.w3.org/2000/svg" width="1409.93" height="1090.445" viewBox="0 0 1409.93 1090.445"><style>.st0{fill:#00a2c2}</style><path class="st0" d="M19.345 17.036c10.562 1.424 26.062-1.805 39.032-1.307 23.328.895 47.058 1.26 70.632.314 56.902-2.283 114.096-2.291 171.18-2.838 50.25-.484 100.425-6.047 151.456-3.826 59.771 2.6 120.597 9.697 180.794 7.371 92.74-3.582 183.988-6.1 276.5-6.1 109.174 0 218.168 5.107 326.279 5.107 30.754 0 59.361-2.488 88.973-4.822 18.814-1.484 50.455-2.551 66.477 5.045 3.246 40.896 3.455 82.627 3.455 123.604 0 38.121-8.984 888.553-6.598 925.43-29.352-1.309-57.359-5.598-87.18-2.082-40.652 4.797-83.977 8.406-125.162 9.938-41.25 1.531-81.898-2.273-122.805-2.555-53.887-.375-105.41-7.379-158.893-8.938-26.65-.777-50.742-5.416-76.729-7.375-35.953-2.707-74.246 11.992-110.447 10.562-60.85-2.406-121.69-3.828-182.774-3.828-59.877 0-118.875 4.285-178.201 6.451-53.678 1.959-108.559-3.562-162.158-5.205-32.346-.988-60.506-.012-90.793 6.062-21.809 4.375-50.896 4.949-74.369 3.992-8.035-37.779-4.219-904.371-6.615-942.893-1.387-22.246-4.22-44.996-3.18-67.389.521-11.215-2.208-38.064 12.715-43.445"/></svg>