<svg xmlns="http://www.w3.org/2000/svg" width="1365" height="634.574" viewBox="0 0 1365 634.574"><path fill="#1EC1B3" d="M0 0v618.344c20.801.277 43.705-.967 61.744-5.156 30.975-7.193 59.776-8.348 92.857-7.176 54.816 1.943 110.946 8.482 165.845 6.16 60.673-2.564 121.013-7.637 182.251-7.637 60.256 0 120.278 1.576 180.303 4.244V0H0z"/><path fill="#1EC1B3" d="M1365 0v618.344c-20.801.277-43.705-.967-61.744-5.156-30.975-7.193-59.775-8.348-92.856-7.176-54.816 1.943-110.946 8.482-165.845 6.16-60.674-2.564-121.013-7.637-182.251-7.637-60.256 0-120.278 1.576-180.304 4.244V0h683z"/></svg>