<svg xmlns="http://www.w3.org/2000/svg" width="238" height="228" viewBox="0 0 238 228"><circle fill="#FFF" cx="118.962" cy="114.84" r="91.876"/><g stroke="#3F352E" stroke-miterlimit="10"><g fill="none"><path stroke-width="2" d="M113.152 167.736c12.257-1.93 18.164-27.346 21.067-37.682 3.584-12.757 15.147-22.091 3.825-39.531-16.741-25.791-67.637-18.322-65.837 13.863.44 7.797 4.861 15.45 5.85 22.932 1.239 9.367 2.793 18.354 8.253 26.493 9.439 14.057 16.138 15.156 29.535 13.101"/><path d="M104.18 167.107c.63-1.594-.037-4.851-.117-6.649-.105-2.202-.122-4.435-.122-6.662 0-2.056-.116-4.216 2.258-4.518 1.542-.194 5.269-.423 5.951 1.071.33.729.253 2.432.321 3.24.103 1.11.091 2.171.148 3.291.123 2.404.265 4.93.12 7.374-.037.581-.046 2.125-.385 2.589-.515.704-1.871.338-2.733.381-.945.046-5.346 1.063-5.441-.235"/><path d="M104.774 149.043c-.034-1.509-1.256-3.65-1.875-5.106-.745-1.753-1.628-3.475-2.515-5.184-1.023-1.966-2.186-3.762-2.863-5.854-.41-1.277-.693-2.717-1.286-3.913 2.487-.908 4.83-.484 7.405-.648 1.134-.07 1.907-.556 3.188-.299.997.2 1.933.373 2.938.562.941.17 2.092.773 2.946.684.865-.093 1.938-.557 2.876-.684.633-.092 2.774-.461 3.187.236.233.391-.556 2.374-.714 2.974-1.127 4.254-3.675 8.144-4.759 12.451-.256 1.009-.541 2.047-.948 2.998-.155.362-.335.89-.6 1.189-.567.641.062.32-.801.38-1.244.085-6.311-1.18-6.297 1.402M95.014 168.742c0 1.235.084 2.44.139 3.608.06 1.213.352 1.91.555 2.909.372 1.842-1.076 1.354-1.251 2.5-.134.872 1.15 1.552 1.092 2.748-.654.043-.908.398-.949.998-.071 1.003.583.539.868 1.209.719 1.69-1.019 1.125-1.149 2.393-.08.768.526.585.804 1.008.383.575.32.66.586 1.352.415 1.091.977 1.539 1.838 2.465 1.393 1.492 2.499 3.837 4.092 5.059 1.55 1.188 5.389.662 7.384.658 1.206 0 2.308.23 3.228-.516.707-.574 1.229-1.738 1.931-2.397 1.77-1.659 4.419-2.241 5.493-4.574.629-1.376-.418-1.773-.391-2.917.028-1.236 1.172-1.237.797-2.732-.126-.482-.709-.764-.657-1.278.109-1.032.812-.36 1.089-1.114.453-1.243-1.566-1.604-.781-2.777.401-.598 1.2.058 1.502-.687.345-.857-.688-1.06-1.018-1.496-1.016-1.361-.708-1.823.708-2.421.104-.721-.479-1.146-.704-1.775-.25-.7-.227-1.296-.256-2.059-1.755.089-3.876-.202-5.699-.291-2.377-.119-4.792-.07-7.194-.145-2.454-.082-4.992-.525-7.475-.279-.984.098-1.684.438-2.606.728-.627.197-1.999.443-1.978.518"/><path d="M95.574 176.483c2.379.094 5.288.83 7.721.72 2.669-.121 5.421-.221 8.044-.368 2.762-.152 5.712-.397 8.283-1.083M95.574 181.12c2.379.092 5.288.829 7.721.719 2.669-.12 5.421-.22 8.044-.367 2.762-.154 5.712-.399 8.283-1.083M95.574 185.754c2.379.096 5.288.833 7.721.722 2.669-.124 5.421-.222 8.044-.369 2.762-.153 5.712-.396 8.283-1.083M96.672 129.367c-2.124.551-7.107-6.089-8.756-7.982M106.455 128.08c1.674-2.21-1.022-7.122-1.237-9.618-.246-2.77.378-6.263-.563-8.664M116.498 128.593c1.62-3.323 4.881-6.051 6.896-9.245 1.556-2.468 2.592-5.484 4.436-7.75M64.445 100.433c.012.428-6.45-1.592-8.091-2.124-2.71-.876-6.502-1.533-8.84-3.096M71.69 87.14c-.206-3.481-8.51-9.208-11.088-11.539-2-1.808-8.521-6.172-8.738-9.067M88.544 76.165c-.908-2.011-2.606-4.126-3.601-6.304-3.037-6.654-4.641-13.835-7.6-20.532-1.859-4.211-3.609-8.483-5.614-12.627-.53-1.095-1.511-3.832-1.95-3.488M102.337 66.933c.038-2.428-.116-4.839-.257-7.25M115.726 71.17c1.032-.493.687-.647 1.318-1.771 2.331-4.135 3.926-9.426 5.096-13.974 2.628-10.238 3.724-21.184 7.987-30.96.224-.115.23.093.022.608M127.123 71.968c1.818-6.097 5.777-12.383 8.5-16.271M135.812 83.788c1.033-.91 1.78-2.4 2.584-3.638 3.266-5.028 7.037-9.648 10.592-14.476 4.712-6.396 9.306-12.864 14.406-18.966 1.692-2.026 4.622-4.313 5.378-6.946a1.092 1.092 0 0 0-.769.25M148.945 97.438c2.236-.461 4.616-2.558 6.318-4.037 3.367-2.918 6.723-5.654 10.191-8.43 1.275-1.021 2.965-3.612 4.351-4.016M149.719 114.688c4.334-1.373 9.114-1.534 13.392-3.091"/></g><path fill="#E0D963" stroke-width="2" d="M108.977 165.521c12.255-1.932 18.164-27.347 21.067-37.684 3.584-12.758 15.151-22.09 3.827-39.531-16.745-25.791-67.64-18.325-65.838 13.862.438 7.798 4.859 15.451 5.85 22.934 1.237 9.365 2.791 18.354 8.253 26.49 9.438 14.059 16.138 15.157 29.533 13.102"/><path fill="none" d="M100.005 164.89c.629-1.594-.036-4.85-.116-6.646-.105-2.206-.122-4.437-.122-6.666 0-2.056-.114-4.216 2.257-4.515 1.545-.197 5.268-.427 5.951 1.068.332.729.252 2.431.322 3.243.102 1.105.09 2.171.146 3.288.123 2.408.267 4.93.121 7.373-.037.583-.046 2.126-.382 2.591-.516.703-1.871.34-2.736.38-.944.045-5.344 1.066-5.44-.235"/><path fill="none" d="M100.598 146.825c-.033-1.507-1.254-3.65-1.873-5.106-.746-1.752-1.63-3.474-2.517-5.184-1.022-1.965-2.183-3.762-2.861-5.854-.411-1.275-.693-2.715-1.287-3.91 2.485-.908 4.832-.489 7.406-.649 1.131-.073 1.906-.561 3.187-.299.998.198 1.933.372 2.937.559.945.174 2.094.775 2.947.686.865-.095 1.939-.556 2.875-.686.634-.09 2.776-.46 3.189.236.229.392-.557 2.373-.716 2.974-1.127 4.255-3.675 8.145-4.758 12.45-.257 1.013-.541 2.05-.947 3.002-.156.361-.336.891-.602 1.187-.566.645.062.322-.8.382-1.243.086-6.311-1.179-6.299 1.401"/><path fill="#4F504E" d="M90.837 166.526c0 1.233.085 2.438.14 3.606.06 1.212.353 1.91.556 2.911.371 1.84-1.077 1.354-1.249 2.498-.133.873 1.148 1.552 1.089 2.748-.653.045-.907.4-.948.999-.07 1.003.582.538.87 1.209.716 1.691-1.02 1.125-1.152 2.393-.079.77.527.584.803 1.01.384.573.321.657.587 1.35.417 1.09.979 1.538 1.837 2.462 1.394 1.494 2.499 3.841 4.091 5.062 1.552 1.185 5.391.66 7.385.657 1.204 0 2.308.23 3.229-.518.706-.571 1.228-1.734 1.931-2.395 1.771-1.663 4.419-2.243 5.492-4.577.631-1.373-.416-1.773-.388-2.913.029-1.239 1.174-1.24.793-2.734-.124-.483-.708-.766-.655-1.281.11-1.029.814-.359 1.092-1.109.45-1.247-1.569-1.604-.781-2.778.4-.597 1.2.057 1.501-.688.347-.858-.687-1.06-1.017-1.496-1.018-1.357-.711-1.825.705-2.418.106-.724-.476-1.148-.702-1.779-.251-.7-.226-1.297-.256-2.059-1.755.09-3.877-.2-5.698-.291-2.38-.119-4.792-.066-7.194-.145-2.454-.082-4.993-.525-7.474-.28-.987.1-1.687.441-2.608.73-.626.195-2 .441-1.979.517"/><path fill="none" d="M91.398 174.266c2.38.094 5.288.831 7.722.72 2.668-.12 5.421-.221 8.043-.366 2.764-.156 5.712-.398 8.283-1.083M91.398 178.901c2.38.093 5.288.83 7.722.721 2.668-.124 5.421-.221 8.043-.368 2.764-.154 5.712-.397 8.283-1.083M91.398 183.538c2.38.092 5.288.83 7.722.72 2.668-.121 5.421-.223 8.043-.37 2.764-.153 5.712-.396 8.283-1.082M92.496 127.149c-2.124.554-7.105-6.089-8.755-7.981M102.281 125.864c1.674-2.212-1.022-7.12-1.24-9.621-.242-2.768.381-6.26-.561-8.665M112.322 126.375c1.621-3.322 4.882-6.048 6.893-9.246 1.559-2.468 2.596-5.485 4.441-7.747M60.271 98.215c.013.428-6.449-1.591-8.089-2.124-2.712-.876-6.503-1.532-8.842-3.096M67.515 84.919c-.207-3.478-8.51-9.203-11.088-11.535-2-1.808-8.52-6.171-8.738-9.066M84.37 73.946c-.908-2.008-2.608-4.123-3.604-6.304-3.035-6.652-4.641-13.834-7.597-20.53-1.86-4.211-3.609-8.485-5.615-12.629-.531-1.095-1.512-3.831-1.95-3.486M98.162 64.716c.039-2.429-.114-4.841-.257-7.249M111.553 68.953c1.029-.492.685-.648 1.317-1.772 2.33-4.134 3.925-9.425 5.093-13.973 2.628-10.239 3.724-21.181 7.986-30.961.225-.114.232.093.024.608M122.945 69.751c1.818-6.098 5.779-12.383 8.503-16.271M131.638 81.569c1.033-.909 1.778-2.399 2.583-3.635 3.266-5.028 7.038-9.65 10.591-14.475 4.713-6.399 9.305-12.866 14.406-18.969 1.694-2.025 4.62-4.311 5.377-6.942a1.08 1.08 0 0 0-.768.246M144.771 95.219c2.236-.458 4.616-2.558 6.317-4.033 3.365-2.919 6.723-5.655 10.19-8.432 1.275-1.021 2.968-3.612 4.352-4.015M145.542 112.474c4.335-1.374 9.116-1.534 13.393-3.092"/></g></svg>