<svg xmlns="http://www.w3.org/2000/svg" width="238" height="228" viewBox="0 0 238 228"><circle fill="#FFF" cx="116.54" cy="113.616" r="98.521"/><path fill="#B4B4B4" stroke="#3F352E" stroke-miterlimit="10" d="M156.957 124.821c2.19-2.507 11.857-12.122 13.086-15.235 1.356-3.435-2.631-7.36-4.537-10.19-2.092-3.105-5.041-6.064-8.152-7.987-1.425-.88-3.088-1.348-3.902.475-3.58-.791-7.328-5.719-9.641-8.411-2.739-3.187-5.573-7.09-7.762-10.803-.931-1.579-1.541-4.342-3.344-5.012-.791-.295-1.94.212-2.774.02-.892-.205-1.554-.857-2.321-1.308-4.84-2.841-2.445 2.89-.907 5.206 1.996 3.005 4.378 5.295 6.633 8.113 2.76 3.449-.007 6.665-3.907 4.134-4.375-2.837-9.213-17.781-16.095-10.542-1.138 1.199-1.565 2.802-2.939 3.848-.958.729-3.105 1.176-3.757 2.371-.934 1.714.538 3.597 1.138 5.218.669 1.812.921 3.342.817 5.349-2.51 2.848-6.536-7.696-14.75-3.421-1.202.626-2.635 3.439-1.818 4.849.459.791 3.193 1.745 4.139 2.521 2.411 1.973 6.162 5.566 6.124 9.007-.022 2.008-1.128 3.105-3.221 2.32-1.75-.655-2.799-3.209-4.029-4.535-2.546-2.748-5.638-5.502-9.742-5.263-4.793.279-1.839 5.675-.748 8.61 1.354 3.639 2.882 6.721 5.782 9.454 1.034.974 3.16 1.964 3.575 3.45.559 2.008-1.535 3.427-3.398 3.411-4.128-.036-7.228-6.981-8.673-10.186-1.671-3.705-2.607-8.878-8.055-7.902-1.241 2.194 3.239 5.346 4.277 7.161 1.411 2.469 2.665 5.907 2.221 8.853-.271.02-.567.062-.838.068.042 1.487 2.529 2.817 3.546 3.879 1.267 1.322 2.27 2.895 3.438 4.232 2.548 2.918 6.025 4.553 8.786 7.319 2.644 2.647 3.235 5.6 3.903 9.006.61 3.115 3.945 7.215 5.84 9.806 1.932 2.64 5.084 4.699 7.975 5.603 3.872 1.208 5.873-1.619 8.799-3.912 5.878-4.607 11.785-8.768 17.276-13.817 3.134-2.881 6.372-5.097 9.45-8.157a102.372 102.372 0 0 1 8.672-7.647"/><path fill="#CDCCCC" d="M153.077 92.242s.51 1.783-.255 2.802-3.057 4.076-3.821 4.714c-.765.637-7.261 9.043-8.662 9.808-1.401.765-16.942 12.865-18.088 13.885-1.147 1.019-10.445 9.17-11.465 10.699-1.018 1.529-1.146 3.057-3.311 4.203-2.165 1.146-4.968 2.548-5.987 2.676-1.019.127-1.771-.641-1.331 1.335.44 1.977 2.095 6.053 3.752 7.581 1.655 1.528 3.185 3.949 4.712 5.223 1.529 1.274 3.694 2.675 5.86 2.421 2.165-.256 5.223-2.421 6.878-3.439 1.656-1.02 9.426-7.389 11.337-8.407 1.911-1.02 10.7-10.445 12.993-11.719s8.662-7.771 11.081-9.682c2.421-1.91 5.605-5.859 7.898-7.77 2.293-1.911 2.803-3.567 3.822-6.114 1.02-2.548.255-3.694-.637-5.859-.892-2.166-3.439-4.331-5.351-6.879-1.91-2.547-3.82-4.203-5.222-5.096-1.401-.892-3.056-.892-4.203-.382z"/><path fill="#4F504E" stroke="#3F352E" stroke-miterlimit="10" d="M155.349 126.265c-.372 2.56 1.649 8.626 3.178 11.193 2.016 3.383 5.077 6.367 7.654 9.293 5.102 5.798 11.192 10.054 16.829 15.126 5.62 5.058 10.935 9.937 14.954 16.319 1.932 3.069 4.954 5.622 6.565 8.884 1.58 3.197 3.093 6.291 4.481 9.546 1.923 4.511 5.727 17.999-4.029 13.747-3.335-1.452-6.564-3.676-9.779-5.677-3.089-1.922-6.292-3.363-9.076-5.829-5.408-4.789-11.125-9.324-16.315-14.495-3.123-3.111-4.318-7.13-6.792-10.656-2.312-3.296-4.457-6.674-7.019-9.743-2.275-2.727-4.935-5.269-7.043-8.14-2.178-2.966-7.473-9.043-8.343-9.19-2.507-.869-3.441-1.053-5.693-1.952 3.43-2.884 8.262-4.453 11.6-7.914 2.496-2.587 8.671-9.695 8.663-9.396"/><path fill="#2FBCB1" stroke="#3F352E" stroke-miterlimit="10" d="M69.046 139.029c-4.66-4.463-1.846 7.889-2.888 11.223-1.143 3.663-2.513 7.412-2.297 11.354.071 1.293 1.823 5.972 3.938 5.644 1.669-.257 2.581-5.862 2.766-7.13.576-3.92 1.626-8.368.284-12.234-.815-2.346-.254-7.056-1.803-8.857M68.073 106.419c-2.374.626-.067 8.368.725 12.219.502 2.442 3.854 9.569.585 11.301-6.59 3.49-7.884-17.265-7.884-20.004 0-4.143.031.058-.351-3.851-.419-4.312 4.27-12.642 6.982-15.01 5.013-4.38 9.66-9.366 14.903-13.438 3.207-2.489 5.518-5.869 8.65-8.322 3.267-2.557 7.101-4.896 10.553-7.13 2.758-1.785 5.266-4.169 8.446-5.387 3.08-1.18 6.139-3.558 9.51-2.676 3.258.854 7.303 3.047 9.737 5.45 1.691 1.67 5.188 7.4.456 7.194-1.62-.071-2.87-2.368-4.131-2.442-1.885-.106-2.122 2.301-1.988 3.802.226 2.531 2.986 5.456 4.974 7.301 1.929 1.792 6.315 5.431 3.127 8.278-3.16 2.823-6.068-3.593-7.364-5.438-1.545-2.2-5.356-7.76-8.673-7.201-2.42.406-4.503 4.794-6.742 5.953-1.67.863-3.396.718-3.172 3.065.146 1.524 1.608 3.242 2.044 4.758.239.827 1.051 4.416.353 5.217-1.666 1.913-2.908-1.904-4.034-2.634-2.677-1.736-8.576-2.401-11.284-.438-3.561 2.583-.477 5.612 1.756 7.932 2.586 2.687 6.183 3.827 5.903 8.327-.365 5.875-6.798-2.759-8.101-4.09-2.353-2.403-6.433-6.193-9.354-2.991-2.601 2.85 1.233 6.817 2.794 9.749 1.655 3.106 2.802 5.873 4.873 8.887.692 1.01 2.377 3.638 1.346 4.703-.938.967-3.875.154-4.922-.176-3.891-1.225-4.266-6.107-6.299-9.522-1.014-1.704-2.003-3.617-3.444-4.968-.829-.776-3.768-3.417-4.989-2.967-2.256.83-.128 2.457.68 3.012 1.651 1.135 2.303 1.512 3.454 3.354 1.165 1.865 3.89 6.33 2.889 8.604-1.439 3.271-6.83-1.609-7.766-3.574-.692-1.454-2.581-7.214-4.242-6.847"/><path fill="none" stroke="#3F352E" stroke-miterlimit="10" d="M125.626 125.452c-.398 1.461-7.386 8.103-9.24 9.976-3.249 3.283-7.221 6.153-10.665 9.342.983 1.376 7.065 8.546 7.442 9.234M119.282 152.87c-.564-2.639 11.201-8.317 13.419-9.971 5.21-3.879 11.346-8.332 15.595-13.203 2.283-2.616 4.318-5.358 6.957-7.698 2.93-2.597 6.275-4.333 8.729-7.371.938-1.162 1.559-2.783 2.657-3.676M157.122 95.317c1.428 4.455 5.597 7.727 9.063 10.422"/><path fill="#FFF" stroke="#3F352E" stroke-miterlimit="10" d="M154.43 133.943c-2.232.886.825 4.831 1.925 6.794 1.288 2.297 2.639 4.979 4.025 7.175 1.465 2.32 3.348 3.863 5.076 5.95 1.863 2.253 3.625 4.319 5.601 6.476 2.8 3.058 5.695 6.982 8.575 9.802 4.272 4.181 8.571 8.583 12.601 13.126 3.083 3.476 5.97 7.969 7.875 12.25 2.066 4.641 1.05 7.701 5.425 10.676 3.186-1.152 2.58-3.886 2.344-6.644-.316-3.703-2.953-7.826-5.223-10.844-5.537-7.358-11.81-14.03-18.79-20.137-3.27-2.86-6.146-5.649-8.787-9.114-2.405-3.157-5.81-5.43-8.445-8.395-4.843-5.449-12.103-17.935-12.202-17.115"/><path fill="none" stroke="#3F352E" stroke-miterlimit="10" d="M99.259 141.767c4.813.1 6.686-1.845 9.771-5.438 3.039-3.54 6.642-6.846 10.025-9.969 6.922-6.39 15.013-11.528 21.929-18.128 2.534-2.417 5.214-4.839 7.346-7.642 1.312-1.725 4.644-2.71 4.267-4.826-.266-1.493 2.307-5.115 2.534-4.906"/><path fill="none" stroke="#3F352E" stroke-miterlimit="10" d="M93.131 106.739c.904.304 4.815 5.813 5.37 6.584 2.537 3.521 5.453 6.374 8.695 9.232 1.29 1.137 5.357 6.525 6.543 7.549M83.681 118.159c2.613 3.678 6.771 6.506 10.104 9.582 2.504 2.312 5.14 4.53 7.458 6.996.601.638 3.475 3.82 3.833 4.555M99.432 89.938c1.292 1.029 1.877 2.912 2.742 4.286 2.262 3.596 5.895 6.558 8.919 9.507 4.133 4.026 10.946 11.463 14.722 15.74M110.458 77.862c4.228 6.223 9.981 14.313 14.944 20.003 13.132 15.055 13.286 19.041 6.064 7.532M119.252 77.994c3.47 4.717 7.311 9.039 11.14 13.475 2.238 2.592 4.071 5.507 6.195 8.191 6.308 7.977 4.536 10.392 1.697 2.354M133.691 76.025c1.768 1.385 3.078 3.711 4.427 5.48 2.184 2.865 4.287 5.531 6.719 8.186 1.097 1.196 5.448 6.611 6.442 7.816"/></svg>