<svg xmlns="http://www.w3.org/2000/svg" width="266" height="259.244" viewBox="0 0 266 259.244"><circle fill="#FFF" cx="118.821" cy="107.097" r="94.429"/><path fill="#F3F3F3" d="M97.833 105.436s-1.167 1.834 1.333 3.167-1.501.505 2.167 3.5c3.668 2.994 14.167-10.167 17.333-10.833 3.167-.667-2.833-6.667-4.333-7.5-1.5-.834-3.167-1.334-5.333.166s-11.167 11.5-11.167 11.5z"/><g stroke="#3F352E" stroke-miterlimit="10"><path fill="#F15F5E" d="M102.625 40.35c-2.354.471-4.621 2.747-6.592 4.327-2.26 1.811-4.481 3.374-6.676 5.257-2.861 2.454-12.199 7.207-10.258 11.9 1.074 2.599 5.336 3.327 7.188 1.927 1.188-.898 1.402-2.528 3.107-1.447 1.841 1.166.711 2.188-.033 3.332-1.476 2.262-3.166 4.808-5 6.848-.961 1.069-4.251 5.752-5.713 5.692-1.178-.048-4.739-5.274-5.506-6.301-1.939-2.595-2.832-5.694-3.167-8.77-.388-3.55.167-5.324 2.017-8.409 1.64-2.735 3.021-4.11 5.755-5.877 7.31-4.731 24.993-8.677 24.732-8.533"/><path fill="none" stroke-width=".5" d="M101.625 41.35c-2.354.471-4.621 2.747-6.592 4.327-2.26 1.811-4.481 3.374-6.676 5.257-2.861 2.454-12.199 7.207-10.258 11.9 1.074 2.599 5.336 3.327 7.188 1.927 1.188-.898 1.402-2.528 3.107-1.447 1.841 1.166.711 2.188-.033 3.332-1.476 2.262-3.166 4.808-5 6.848-.961 1.069-4.251 5.752-5.713 5.692-1.178-.048-4.739-5.274-5.506-6.301-1.939-2.595-2.832-5.694-3.167-8.77-.388-3.55.167-5.324 2.017-8.409 1.64-2.735 3.021-4.11 5.755-5.877 7.31-4.731 24.993-8.677 24.732-8.533"/><path fill="#676767" d="M102.917 40.458c1.656-.229 4.184 1.056 5.194 2.376.353.464 1.109 1.608.734 2.265-.375.658-1.987.307-2.66.303.126.271.154.614.241.866a16.297 16.297 0 0 0-1.646.071c-.031.556.079 1.07-.008 1.64-.458.003-1.537-.354-1.934-.036-.372.298-.225 1.131-.269 1.627-.37-.022-1.294-.482-1.651-.248-.375.244-.225 1.117-.263 1.551-.64.009-1.295-.048-1.933-.04-.098.587.119 1.142.004 1.737-.567.011-1.213-.122-1.738.068.018.398.108.834.02 1.246-.355.004-1.273-.197-1.544.075-.182.188-.062 1.259-.083 1.535-.542.055-1.833-.48-2.232.023-.199.249.128 1.329.084 1.665-.53-.068-1.064-.135-1.615-.127-.066.514.149.949.113 1.447-3.477-.947-3.493 4.146-5.902 5.276-1.093.514-3.336.653-4.368.036-1.083-.646-2.536-2.062-2.555-3.408-.02-1.511 1.17-2.751 2.203-3.825 1.532-1.588 17.02-13.637 17.86-14.254.987-.723 2.648-1.912 3.948-1.869M111.312 52.653c-.401-1.589-1.675-3.553-2.875-4.787-.091.406-.207 1.429-.572 1.692-.429.313-1.563.049-2.126.057.116.564.188 1.383-.27 1.648-.306.175-1.575.033-1.951.04-.048.537-.041 1.097-.089 1.636-.58-.069-1.184-.307-1.829-.234-.036.409-.043.833-.061 1.245-.635.013-1.63-.215-1.979.333-.199.314-.039 1.279-.073 1.655-.76.02-1.75-.08-2.521-.159.089.429.028.911.132 1.353-.562-.225-1.275-.346-1.842-.136-.052.484-.005.971-.185 1.434-.747.012-1.5-.088-2.232.045.081.551.592.796.518 1.366-.753.012-1.535-.104-2.24.146.095.461.352.949.309 1.454-.653.006-2.249-.017-2.75.453 1.296.689 1.93 2.133 3.831 2.646 1.344.359 3.205-1.276 4.296-1.955 3.227-2.011 5.835-3.803 9.133-5.688 1.272-.728 5.805-2.841 5.218-4.629.122-.021.245-.021.367-.001"/><path fill="#F15F5E" d="M77.172 81.565c-.157.84-.271 1.698-.415 2.535-.319 1.845-.729 4.09-.407 5.986.542 3.192 2.955 6.827 4.833 9.404 2.368 3.246 5.998 3.993 9.424 5.675 1.331.653 3.129 1.522 4.692 1.226 1.239-.235 2.326-2.045 3.156-3.028 1.153-1.367 1.912-2.697 3.312-3.888 1.585-1.349 2.894-2.864 4.55-4.153 1.34-1.042 2.542-1.748 4.105-2.351 1.92-.741 3.069-.339 4.51 1.067 1.281 1.249 2.42 2.357 3.467 3.861.667.961 2.731 3.017 2.405 4.223-.608 2.252-7.783 5.834-4.841 8.656 1.276 1.226 3.604.204 5.2.188.977-.012 1.971.075 2.947.111.693.026 2.015-.188 2.643.088.487.213.933.808 1.434 1.117.44.273.849.47 1.33.664.737.299 1.455.582 2.147.989 1.475.861 2.946 2.217 4.202 3.292 1.642 1.405 3.2 2.969 4.518 4.659 1.357 1.742 2.369 3.856 3.981 5.356 1.321 1.229 78.157 95.804 79.757 98.986 1.581 3.144 3.875 4.856 7.48 4.991 3.724.134 6.446-1.062 8.047-4.523 1.47-3.182.166-6.352-1.553-9.288-1.029-1.761-2.987-3.224-4.436-4.685-1.938-1.953-32.386-42.079-34.947-45.977-2.663-4.054-46.225-58.505-48.06-61.109-2.96-4.199-25.923-34.154-28.236-37.06-1.794-2.254-3.566-4.571-4.889-7.139-1.037-2.012-2.157-4.405-3.79-5.952-.569-.539-1.414-1.082-2.008-1.52-.884-.653-.882-.535-1.68.206-1.378 1.279-3.105 1.951-4.701 2.948-2.708 1.697-5.453 3.438-8.057 5.353-1.276.939-2.614 2.234-4.301 2.182-.83-.027-1.577-.713-2.32-.46-.99.343-1.325 1.818-1.754 2.628-.564 1.068-1.391 2.002-2.184 2.906-.941 1.073-1.835 2.162-2.798 3.22-1.1 1.21-2.222 2.389-3.291 3.635-.692.806-1.858 1.188-2.402 2.118-.411.713-.916 2.035-1.07 2.863z"/><path fill="none" stroke-width=".5" d="M236.098 217.41c-1.029-1.761-2.987-3.224-4.436-4.685-1.938-1.953-32.386-42.079-34.947-45.977-2.663-4.054-46.225-58.505-48.06-61.109-2.96-4.199-25.923-34.154-28.236-37.06-1.794-2.254-3.566-4.571-4.889-7.139-1.037-2.012-2.157-4.405-3.79-5.952-.569-.539-1.414-1.082-2.008-1.52-.884-.653-.882-.535-1.68.206-1.378 1.279-3.105 1.951-4.701 2.948-2.708 1.697-5.453 3.438-8.057 5.353-1.276.939-2.614 2.234-4.301 2.182-.83-.027-1.577-.713-2.32-.46-.99.343-1.325 1.818-1.754 2.628-.564 1.068-1.391 2.002-2.184 2.906-.941 1.073-1.835 2.162-2.798 3.22-1.1 1.21-2.222 2.389-3.291 3.635-.692.806-1.858 1.188-2.402 2.118-.415.71-.919 2.032-1.073 2.86-.157.84-.271 1.698-.415 2.535-.319 1.845-.729 4.09-.407 5.986.542 3.192 2.955 6.827 4.833 9.404 2.368 3.246 5.998 3.993 9.424 5.675 1.331.653 3.129 1.522 4.692 1.226 1.239-.235 2.326-2.045 3.156-3.028 1.153-1.367 1.912-2.697 3.312-3.888 1.585-1.349 2.894-2.864 4.55-4.153 1.34-1.042 2.542-1.748 4.105-2.351 1.315-.508 3.248-.659 4.181-.14 1.013.061 1.569.423 2.229 1.229.42.513 1.603 1.232 1.521 1.833.529.58.223-.03.708.667.181.261.542.594.854.979.648.017 1.358 1.283 1.729 1.917.348.594 1.064 1.51.729 2.125-.001.087-1.547.461-1.569.541-.608 2.252-7.783 5.834-4.841 8.656 1.276 1.226 3.604.204 5.2.188.977-.012 1.971.075 2.947.111.693.026 2.015-.188 2.643.088.487.213.933.808 1.434 1.117.44.273.849.47 1.33.664.737.299 1.455.582 2.147.989 1.475.861 2.946 2.217 4.202 3.292 1.642 1.405 3.2 2.969 4.518 4.659 1.357 1.742 2.369 3.856 3.981 5.356 1.321 1.229 78.157 95.804 79.757 98.986 1.581 3.144 3.875 4.856 7.48 4.991 3.724.134 6.446-1.062 8.047-4.523 1.473-3.179.169-6.349-1.55-9.285z"/><path fill="#F3F3F3" d="M138.61 131.144c.447-.694.457-1.394.452-2.215-.524-.047-1.96-.021-2.141-.489-.083-.218.573-1.867.672-2.137-.74-.229-1.403-1.064-2.238-.803.14-.629.166-1.262.175-1.91-.703.035-1.428.271-2.148.192.021-.717.3-1.386.263-2.123-.76-.076-1.6-.019-2.326-.138.261-.4.94-1.73.645-2.203-.322-.516-1.891-.208-2.425-.075.403-.521.748-1.271.707-1.927-.879-.224-1.695-.504-2.602-.527a23.89 23.89 0 0 0 .745-2.31c-.646.543-1.837.308-2.632.158.188-.848.154-1.742-.025-2.603-.528-.049-1.166.066-1.632-.194-.308-.17-.312-.661-.681-.795-.665-.241-6.808.617-7.805-.792-1.222-1.725 2.82-5.987 3.856-6.616.809-.49.754-1.023 1.297-1.627-.097-.747-.886-.646-1.964-.131-.514.284-6.254 4.334-7.014 4.848-2.078 1.407-4.704 3.471-5.029 5.878l-4.085-3.029c2.751-1.384 6.153-4.264 7.552-5.411 1.342-1.101 7.507-6.711 7.128-7.283-1.837-2.362-7.316 3.491-8.111 4.149-1.665 1.378-5.831 5.255-7.513 7.845l-4.609-3.211c-1.104 1.875 3.015 4.294 4.105 4.125-.058.16-.301.647-.275.767.837 3.921 5.198 3.573 5.483 2.899.412-.975.52-.982 1.569-.891-.303.435-.879 1.809-.447 2.332.429.519 1.875-.079 2.542.005.069.801-.261 1.587-.255 2.418.725.091 1.358-.225 2.041-.196.01.871-.08 1.757-.066 2.626.688.119 1.246-.426 1.945-.292.056.672-.092 1.427-.344 2.015.733.094 1.404-.371 2.143-.159.013.891-.181 1.713-.175 2.593.728.066 1.438.027 2.143.012-.116.711-.487 1.409-.637 2.108.889.168 1.87.088 2.709.325-.16.699-.694 1.436-.641 2.206.854.075 1.7.015 2.531.017-.277.856-.544 1.311-.552 2.217.711.167 1.753-.158 2.439-.274.001.891-.485 1.805-.464 2.805.464-.277 2.027-1.12 2.588-.408.411.521-.407 2.021-.414 2.646.701.137 1.473-.175 2.138-.175.105.798-.293 1.587-.254 2.404.759.047 1.563-.464 2.347-.473-.19.58-.21 1.322-.533 1.813.877.082 1.677-.008 2.528.125-.904 1.541 1 1.878 2.204 1.738 1.591-.184 3.533-.812 4.768-1.919 2.137-1.91 2.795-4.685 2.734-7.518-.554-.543-1.633-.346-2.412-.412z"/><path fill="none" stroke-width=".5" d="M117.282 103.149c-3.523 1.971-10.556 6.394-11.24 10.558M107.007 113.566c-1.544 2.294.117 2.646 2.095 2.337a33.867 33.867 0 0 1-.255 2.418 20.57 20.57 0 0 0 2.041-.196c-.024.876-.046 1.751-.066 2.626.548-.216 1.403-.075 1.945-.292a4.488 4.488 0 0 1-.344 2.015c-.423-.538.577-1.538 1.577-.538 0 1 0 2 1 3 1 0 1 0 1.533-.018a45.62 45.62 0 0 1-.637 2.108c.905.107 1.814.145 2.709.325a7.838 7.838 0 0 0-.641 2.206c.843.043 1.687.048 2.531.017a6.601 6.601 0 0 0-.552 2.217c.824.087 1.639-.076 2.439-.274-.116.947-.386 1.853-.464 2.805 2.641-1.75 2.7.151 2.175 2.238.714.013 1.431-.047 2.138-.175a30.845 30.845 0 0 1-.254 2.404c.784-.133 1.57-.291 2.347-.473-.28.569-.206 1.243-.533 1.813.844.016 1.687.058 2.528.125-1.628 3.28 5.996.666 6.971-.181 1.444-1.253 2.226-3.055 2.558-4.903.403-2.25.204-3.178-2.238-3.027 1.618-2.951-1.027-1.363-1.688-2.847-.54-1.211 1.688-3.015-1.566-2.797.227-.614.027-1.297.175-1.91-.71.121-1.429.186-2.148.192.38-2.286.119-2.068-2.063-2.261 1.35-1.998.365-2.88-1.78-2.278 1.561-1.934-.092-2.339-1.895-2.454a23.54 23.54 0 0 0 .745-2.31c-1.39.458-2.39.458-2.39.458v-3c-3-1-7-1-10-1 0-4 3-7 5-9-1 0-1 0-1.502-.341"/><path fill="#CDCCCC" d="M108.515 109.462c1.017.792 5.207 6.129 6.251 7.269 1.607 1.756 10.569 13.315 14.407 16.436 1.51 1.229 3.265 2.31 5.337 1.771 2.185-.568 1.139-3.652.309-5.02-.589-.972-13.758-17.672-14.645-18.722-1.621-.154-3.318.57-4.43-.652-.562-.619-.555-1.087-.357-1.88.148-.594.43-1.178.241-1.924-.679-2.691-6.695 2.056-7.113 2.722"/><path fill="#F3F3F3" d="M106.471 58.763c.318-2.002 3.983-2.803 4.545-.424.734 3.111-5.308 3.905-4.545.424"/><path fill="#E6E6E5" d="M110.468 73.053c.582 2.785 2.985 6.374 4.591 8.776 1.662 2.484 37.113 46.482 39.838 49.624 3.128 3.606 55.592 68.659 61.85 76.535 1.445 1.816 2.218 3.724 4.1 5.04-.285-2.582 3.059-3.523 5.06-3.36-1.454-2.051-72.877-91.064-79.931-101.533-2.469-3.666-23.885-37.091-30.44-39.316-2.089-.711-4.942-1.85-5.354.954-.016 1.513.083 2.721.455 4.072"/></g><path fill="#00A2C2" d="M206.071 171.088l-.282 2.987 3.63 7.264 8.072 1.8 5.77-6.929.514-2.65-3.869-7.67-8.132-1.058-5.703 6.256zm5.016.834c.487-.17 1.511-1.575 1.99-1.394.335-.122 2.294.35 2.68.381.758.062.874-.063 1.422.466.116.113.662 1.033.754 1.235.273.264.366.927.458 1.362.146.687.574.559-.042.982-.662.454-.777 1.402-1.62 1.365-.354-.016-1.3-.088-1.601-.183-.036-.001-.523-.057-.633-.061-.318-.02-1.179-.048-1.49-.129-.809-.205-1.763-.763-2.088-1.483-.484-1.069-.876-1.955.17-2.541zM160.467 175.794l-.973 3.745 3.781 7.562 9.619 1.623 5.934-7.533.726-3.046-3.958-7.949-9.545-1.002-5.584 6.6zm4.771 1.631c.507-.177 1.489-2.242 1.989-2.053.351-.127 2.777.35 3.177.386.791.063 1.291-.185 1.86.366.122.115.341.9.438 1.11.284.276.962 1.175 1.059 1.629.151.716-.543 1.15-1.184 1.592-.692.472.086.982-.79.942-.37-.017-2.11-.201-2.425-.301-.038-.001-.318-.06-.432-.067-.332-.019-1.458-.088-1.783-.169-.844-.217-.633-.989-.971-1.739-.502-1.117-1.145-1.661-.938-1.696zM181.824 210.29l-.973 3.744 3.781 7.562 9.62 1.625 5.932-7.535.728-3.044-3.958-7.95-9.546-1.004-5.584 6.602zm4.77 1.63c.507-.175 1.491-2.241 1.989-2.051.352-.126 2.776.348 3.178.383.789.066 1.291-.186 1.861.367.121.115.34.902.437 1.11.284.274.961 1.176 1.058 1.631.152.713-.543 1.15-1.184 1.589-.69.473.088.982-.791.944-.367-.018-2.109-.201-2.422-.304-.04.002-.32-.058-.433-.063-.332-.021-1.458-.089-1.782-.171-.845-.217-.632-.99-.97-1.739-.505-1.117-1.147-1.662-.941-1.696z"/><path fill="#303030" d="M164.906 181.934l-.008-.016a67.878 67.878 0 0 1-1.254-2.288c-.203-.385-.412-.765-.606-1.154l-.589-1.163-.082-.16.125-.161c.54-.68 1.093-1.351 1.649-2.018.275-.336.563-.661.844-.99.282-.333.569-.659.856-.983l.131-.146.179.029c.928.146 1.861.28 2.789.43.928.149 1.854.315 2.78.485l.108.021.036.084c.339.802.67 1.604 1.034 2.394.358.792.742 1.57 1.142 2.341l.042.078-.062.083-1.599 2.059a44.498 44.498 0 0 1-1.675 1.995l-.108.124-.155-.021a84.158 84.158 0 0 1-2.786-.454 60.453 60.453 0 0 1-2.772-.562l-.019-.007zm2.85.132a87.83 87.83 0 0 1 2.807.304l-.263.1a49.816 49.816 0 0 1 1.707-1.965l1.789-1.9-.021.157a44.383 44.383 0 0 0-1.068-2.376c-.371-.783-.776-1.554-1.176-2.325l.143.104c-.94-.078-1.876-.167-2.812-.269-.933-.104-1.868-.219-2.802-.331l.31-.117c-.278.336-.553.67-.837 1.004-.282.327-.558.661-.847.986-.572.654-1.146 1.304-1.734 1.944l.042-.322.516 1.195c.174.399.333.805.5 1.207.329.794.645 1.6.945 2.411.937.041 1.87.108 2.801.193z"/><path fill="#303030" d="M172.517 180.032c-.134-.648-.352-1.259-.594-1.856a12.26 12.26 0 0 0-.397-.881 11.833 11.833 0 0 0-.499-.837l-.071-.108-.083-.004c-.236-.005-.475.003-.709-.016a7.786 7.786 0 0 1-.701-.079c-.465-.073-.925-.194-1.382-.31a15.49 15.49 0 0 0-1.386-.286 18.667 18.667 0 0 0-1.392-.224l-.204-.024-.119.146c-.326.409-.648.822-.948 1.257-.303.432-.588.876-.846 1.345l.052.043c.422-.328.818-.678 1.197-1.045.379-.361.74-.744 1.091-1.133l-.319.121c.464.074.93.118 1.401.159.468.042.938.083 1.411.088.474.013.948.017 1.416.07.235.024.466.062.697.11.232.044.458.114.689.172l-.154-.112c.098.31.196.618.32.918.127.297.274.582.423.868.303.57.635 1.127 1.047 1.646l.06-.028z"/><path fill="#303030" d="M162.19 185.116l-.007-.014c-.73-1.39-1.444-2.781-2.144-4.184l-1.05-2.102-1.031-2.11-.083-.169.126-.155c.994-1.208 1.998-2.41 3.008-3.608l1.521-1.785 1.536-1.776.129-.144.182.026 5.036.734c1.678.25 3.354.516 5.029.792l.102.016.04.086.948 2.149c.319.714.651 1.424.976 2.135a130.768 130.768 0 0 0 2.025 4.24l.041.082-.062.075-2.955 3.652a157.732 157.732 0 0 1-3.036 3.584l-.107.124-.156-.021a233.187 233.187 0 0 1-5.032-.764c-.836-.137-1.677-.263-2.511-.409-.835-.148-1.672-.289-2.506-.451l-.019-.003zm2.563.17c.845.079 1.688.184 2.532.271 1.688.182 3.369.385 5.052.603l-.264.103a164.99 164.99 0 0 1 3.067-3.558l3.146-3.49-.022.158c-.63-1.436-1.275-2.86-1.959-4.27-.338-.706-.669-1.414-1.016-2.117l-1.042-2.104.143.106a393.076 393.076 0 0 1-5.057-.579l-5.049-.629.307-.117-1.512 1.794-1.528 1.784a356.865 356.865 0 0 1-3.093 3.534l.043-.322.959 2.145.941 2.152a209.935 209.935 0 0 1 1.833 4.307c.843.063 1.681.151 2.519.229z"/><path fill="#303030" d="M157.062 180.006c.125.374.27.739.406 1.107.133.368.285.729.432 1.097.298.723.605 1.442.924 2.157.32.714.64 1.43.998 2.128.356.696.734 1.383 1.103 2.076l.048.09.081.007c.849.057 1.69.157 2.531.273.838.115 1.674.271 2.51.423.833.159 1.668.311 2.506.447.838.14 1.676.263 2.514.394l.179.027.132-.145a79.21 79.21 0 0 0 3.016-3.6l.731-.917c.244-.307.479-.623.717-.932.478-.623.945-1.252 1.398-1.894l-.05-.044a51.16 51.16 0 0 0-1.651 1.677c-.27.285-.546.562-.811.854l-.792.866a81.686 81.686 0 0 0-3.084 3.542l.309-.119c-.843-.095-1.684-.201-2.527-.288a85.59 85.59 0 0 0-2.536-.234c-.847-.075-1.692-.147-2.533-.262a33.848 33.848 0 0 1-2.512-.406l.131.096c-.296-.726-.582-1.456-.891-2.175-.306-.722-.65-1.423-.993-2.129a82.311 82.311 0 0 0-1.066-2.094c-.188-.344-.369-.693-.565-1.032-.196-.341-.384-.684-.591-1.018l-.064.028z"/><path fill="#303030" d="M156.996 180.294s.074-.049.156-.126c.085-.077.189-.197.267-.35a.789.789 0 0 0 .097-.257c.019-.099-.001-.213-.014-.329a.697.697 0 0 1 .029-.332.897.897 0 0 1 .185-.293c.079-.093.162-.184.213-.285a3.21 3.21 0 0 0 .151-.29c.099-.19.092-.298.105-.471.02-.349-.106-.526-.106-.526l-.063-.021s-.208.066-.4.357c-.095.146-.178.275-.214.485-.02.105-.03.192-.046.305-.018.108-.002.219.006.341a.865.865 0 0 1-.026.339.649.649 0 0 1-.175.28c-.08.085-.163.162-.206.25-.045.087-.061.178-.077.261a1.36 1.36 0 0 0 .054.639l.064.023zM160.802 188.796s.094-.105.177-.184c.083-.075.197-.224.277-.376.037-.077.084-.177.1-.271.019-.098.001-.22-.011-.336a.685.685 0 0 1 .03-.337.914.914 0 0 1 .185-.293c.078-.094.164-.186.214-.284.054-.099.106-.198.154-.293a1.75 1.75 0 0 0 .151-.617c.021-.349-.057-.674-.057-.674l-.063-.021s-.257.213-.45.505a1.517 1.517 0 0 0-.237.557 4.65 4.65 0 0 0-.058.341c-.018.108-.008.237-.001.36.01.12.005.242-.028.348a.703.703 0 0 1-.177.286c-.079.082-.163.163-.207.252-.046.086-.062.179-.077.262a1.77 1.77 0 0 0-.015.501c.021.113.032.253.032.253l.061.021zM170.948 176.798s.064-.016.143-.079a.956.956 0 0 0 .246-.283.633.633 0 0 0 .083-.217c.015-.082-.01-.184-.028-.285a.552.552 0 0 1 .015-.29.737.737 0 0 1 .174-.253c.071-.078.153-.154.201-.241.049-.081.097-.166.138-.249.091-.164.093-.294.098-.447.007-.307-.112-.504-.112-.504l-.063-.021s-.215.084-.395.334a.995.995 0 0 0-.198.437 2.874 2.874 0 0 0-.038.272c-.014.099.005.2.016.309a.683.683 0 0 1-.012.3.495.495 0 0 1-.165.241c-.075.072-.154.139-.194.214-.042.073-.053.153-.066.226a.925.925 0 0 0 .028.367c.026.1.066.148.066.148l.063.021zM164.995 176.171s.054.018.131-.048a.835.835 0 0 0 .242-.268c.036-.067.07-.126.083-.21.012-.084-.013-.181-.03-.283a.504.504 0 0 1 .017-.289.68.68 0 0 1 .17-.249c.075-.078.154-.152.2-.24.05-.084.097-.166.14-.252.088-.162.101-.319.106-.476a1.273 1.273 0 0 0-.102-.532l-.064-.021s-.224.113-.404.365a1.042 1.042 0 0 0-.204.451 4.49 4.49 0 0 0-.04.28c-.014.096.003.204.016.311a.727.727 0 0 1-.013.303.512.512 0 0 1-.164.241c-.076.073-.154.14-.194.215a.635.635 0 0 0-.067.228c-.02.146.014.239.039.336.024.1.076.118.076.118l.062.02zM177.283 183.427s.098-.126.182-.204c.082-.074.201-.235.282-.385.038-.077.085-.183.101-.28a1.212 1.212 0 0 0-.011-.337.704.704 0 0 1 .03-.339.948.948 0 0 1 .187-.294c.078-.093.163-.184.213-.283.056-.1.108-.197.154-.294a1.58 1.58 0 0 0 .145-.597c.021-.348-.063-.649-.063-.649l-.064-.021s-.25.188-.441.482a1.467 1.467 0 0 0-.236.547 5.075 5.075 0 0 0-.055.331c-.02.112-.007.239 0 .359.01.123.004.24-.028.349a.652.652 0 0 1-.177.284c-.078.084-.161.165-.207.252-.045.088-.061.179-.076.261-.029.17-.046.415-.024.524.02.11.026.272.026.272l.062.022zM171.431 189.618s.041.049.123-.026c.083-.075.172-.146.25-.299.038-.077.073-.138.088-.234.018-.096-.004-.197-.019-.312a.646.646 0 0 1 .028-.329.866.866 0 0 1 .184-.29c.077-.094.161-.18.212-.281.053-.097.107-.194.152-.29.099-.189.125-.396.137-.568.02-.349-.074-.624-.074-.624l-.062-.021s-.242.163-.436.455a1.412 1.412 0 0 0-.229.534c-.022.103-.04.216-.053.325-.021.111-.007.234.001.356a.95.95 0 0 1-.029.344.656.656 0 0 1-.176.284c-.08.087-.163.164-.207.253-.045.087-.062.177-.08.263-.024.167.017.234.04.346.02.11.084.095.084.095l.066.019z"/><g><path fill="#303030" d="M187.042 216.333l-.008-.015a68.88 68.88 0 0 1-1.256-2.287c-.201-.386-.412-.769-.607-1.156l-.588-1.162-.082-.164.127-.159c.539-.68 1.092-1.349 1.648-2.016.274-.337.563-.662.844-.992.281-.331.567-.656.857-.983l.13-.143.179.027c.929.146 1.859.278 2.788.431.93.149 1.856.312 2.784.483l.105.021.037.084c.336.802.668 1.605 1.032 2.394.357.791.742 1.573 1.144 2.341l.041.08-.062.079-1.597 2.061a46.781 46.781 0 0 1-1.675 1.993l-.109.126-.154-.021a96.83 96.83 0 0 1-2.787-.455 57.664 57.664 0 0 1-2.773-.561l-.018-.006zm2.846.132c.939.088 1.876.185 2.809.305l-.263.102c.55-.672 1.12-1.327 1.708-1.969l1.787-1.898-.021.159a46.067 46.067 0 0 0-1.066-2.378c-.373-.783-.776-1.554-1.176-2.325l.143.104c-.938-.079-1.877-.168-2.811-.272-.937-.1-1.869-.217-2.802-.325l.306-.116c-.274.333-.55.67-.834.999-.284.33-.558.664-.847.987a91.79 91.79 0 0 1-1.736 1.944l.043-.32.516 1.196c.173.396.332.802.499 1.204.331.798.645 1.602.947 2.413.935.04 1.869.104 2.798.19z"/><path fill="#303030" d="M194.651 214.431c-.135-.647-.352-1.258-.594-1.857a13.905 13.905 0 0 0-.397-.882c-.15-.285-.324-.56-.5-.831l-.072-.112-.083-.002c-.236-.006-.473.002-.709-.017a7.914 7.914 0 0 1-.701-.08c-.464-.07-.923-.194-1.382-.312a17.9 17.9 0 0 0-1.385-.285c-.462-.087-.925-.17-1.393-.224l-.204-.024-.118.148c-.327.409-.65.821-.949 1.255a14.97 14.97 0 0 0-.847 1.347l.053.047c.422-.33.819-.684 1.197-1.049.38-.361.74-.746 1.092-1.133l-.322.121c.465.072.935.116 1.403.156.468.046.936.088 1.412.093.472.009.945.015 1.414.067.234.027.467.061.698.109.23.046.459.115.687.171l-.152-.111c.098.31.197.619.321.918.126.297.275.584.422.869.305.571.634 1.127 1.046 1.646l.063-.028z"/><path fill="#303030" d="M184.324 219.516l-.006-.017a208.37 208.37 0 0 1-2.144-4.181l-1.05-2.104-1.033-2.109-.08-.168.125-.154a285.821 285.821 0 0 1 3.007-3.609l1.523-1.786 1.536-1.775.125-.144.184.026 5.035.734c1.678.25 3.354.516 5.029.787l.102.019.04.09.949 2.146c.319.716.65 1.425.974 2.137.646 1.428 1.33 2.837 2.025 4.238l.042.081-.062.077-2.955 3.65a149.104 149.104 0 0 1-3.035 3.585l-.107.124-.157-.021a225.17 225.17 0 0 1-5.03-.764c-.837-.137-1.677-.264-2.511-.411-.836-.148-1.673-.289-2.506-.449l-.02-.002zm2.561.168c.848.082 1.688.184 2.531.272 1.688.181 3.372.386 5.054.604l-.263.102a155.13 155.13 0 0 1 3.066-3.558l3.146-3.49-.021.158a136.958 136.958 0 0 0-1.958-4.27c-.341-.705-.672-1.414-1.017-2.115l-1.042-2.107.143.105c-1.688-.18-3.373-.372-5.056-.575l-5.052-.631.31-.117-1.514 1.795-1.528 1.782a295.012 295.012 0 0 1-3.093 3.535l.045-.322.958 2.144.943 2.152a227.092 227.092 0 0 1 1.834 4.307c.839.063 1.677.152 2.514.229z"/><path fill="#303030" d="M179.196 214.406c.126.373.27.74.406 1.107.135.37.286.73.431 1.096.295.724.604 1.446.924 2.158.321.716.643 1.431.999 2.129.356.695.734 1.384 1.101 2.075l.048.089.083.007c.849.059 1.69.159 2.53.275.84.114 1.676.271 2.51.421.835.162 1.671.312 2.507.449.838.14 1.677.261 2.515.394l.178.029.13-.146a75.914 75.914 0 0 0 1.534-1.776c.502-.602.998-1.208 1.482-1.823l.733-.918c.243-.307.477-.622.715-.936.479-.619.945-1.25 1.4-1.89l-.053-.047a55.68 55.68 0 0 0-1.652 1.68c-.27.284-.544.562-.807.854l-.793.864a79.786 79.786 0 0 0-3.082 3.543l.307-.117c-.843-.095-1.685-.201-2.53-.289a96.67 96.67 0 0 0-2.536-.235c-.844-.075-1.689-.146-2.53-.26a33.878 33.878 0 0 1-2.513-.407l.129.099c-.294-.726-.58-1.458-.887-2.18a46.671 46.671 0 0 0-.997-2.126 77.688 77.688 0 0 0-1.064-2.095c-.187-.343-.369-.691-.566-1.032-.195-.339-.382-.684-.59-1.019l-.062.027z"/><path fill="#303030" d="M179.101 214.779s.09-.091.172-.166a1.52 1.52 0 0 0 .275-.373c.036-.075.083-.171.098-.269.019-.096.001-.217-.013-.333a.696.696 0 0 1 .032-.337.988.988 0 0 1 .184-.293c.08-.093.166-.184.215-.284.055-.098.106-.195.154-.292.095-.188.145-.459.156-.629.02-.35-.053-.689-.053-.689l-.063-.021s-.261.229-.454.521a1.594 1.594 0 0 0-.242.564c-.02.104-.042.23-.058.34-.019.112-.008.244-.001.364a.889.889 0 0 1-.028.349.685.685 0 0 1-.176.287c-.082.085-.164.166-.208.251a.845.845 0 0 0-.078.265 1.7 1.7 0 0 0-.012.488c.022.11.037.237.037.237l.063.02zM183.042 222.876s.04.054.122-.022c.084-.077.17-.146.251-.298.038-.075.072-.135.087-.231.017-.097-.005-.199-.019-.313a.693.693 0 0 1 .027-.329.89.89 0 0 1 .184-.288c.079-.095.164-.182.214-.281.054-.099.106-.196.15-.292.098-.189.126-.4.14-.572.02-.351-.071-.631-.071-.631l-.065-.021s-.243.169-.436.462a1.503 1.503 0 0 0-.231.537 9.266 9.266 0 0 0-.053.326c-.018.111-.007.236.003.357a.897.897 0 0 1-.029.345.654.654 0 0 1-.175.283c-.081.085-.165.165-.208.251a.892.892 0 0 0-.076.263c-.028.168.017.23.036.343.021.11.084.092.084.092l.065.019zM193.054 211.283s.076-.055.155-.119.181-.175.254-.305a.693.693 0 0 0 .085-.229c.014-.083-.007-.188-.024-.29a.534.534 0 0 1 .016-.295.724.724 0 0 1 .171-.252c.076-.079.155-.155.201-.242.051-.083.1-.165.14-.251.091-.162.079-.249.084-.402.007-.308-.127-.461-.127-.461l-.064-.021s-.199.042-.38.291c-.087.125-.164.232-.19.416-.017.091-.022.164-.033.261-.016.098.006.198.017.302a.698.698 0 0 1-.012.298.497.497 0 0 1-.164.24c-.074.074-.152.139-.193.212-.041.077-.053.156-.066.229a1.244 1.244 0 0 0 .067.597l.063.021zM187.101 210.659s.065-.027.146-.092a.956.956 0 0 0 .248-.288.706.706 0 0 0 .086-.224c.012-.084-.011-.184-.028-.285a.548.548 0 0 1 .015-.294.713.713 0 0 1 .174-.25c.071-.078.152-.155.199-.241.051-.086.098-.168.141-.251.089-.163.085-.28.091-.431.008-.308-.115-.491-.115-.491l-.065-.021s-.209.07-.389.32c-.088.126-.17.246-.197.429-.017.092-.024.174-.036.272-.015.095.005.197.017.302a.678.678 0 0 1-.014.303.514.514 0 0 1-.162.241c-.075.07-.154.137-.195.21-.041.075-.053.154-.066.229a.994.994 0 0 0 .024.378.595.595 0 0 0 .062.162l.064.022zM199.523 217.505s.045.032.129-.041c.083-.077.175-.156.253-.309.039-.075.075-.141.088-.237.018-.095-.005-.202-.017-.316a.668.668 0 0 1 .028-.33.905.905 0 0 1 .182-.289c.08-.089.164-.18.216-.282.054-.099.105-.193.151-.289a1.34 1.34 0 0 0 .13-.554 1.59 1.59 0 0 0-.078-.607l-.065-.022s-.234.15-.427.44a1.41 1.41 0 0 0-.23.528 6.881 6.881 0 0 0-.051.319c-.019.112-.004.234.003.355a.909.909 0 0 1-.027.344.7.7 0 0 1-.176.282c-.08.083-.163.164-.209.252-.044.085-.059.174-.075.262-.028.168.01.25.029.362.023.108.079.109.079.109l.067.023zM193.534 224.106s.055.005.139-.07.179-.17.258-.321c.039-.077.078-.148.092-.243.016-.098-.005-.205-.017-.322a.657.657 0 0 1 .027-.328.906.906 0 0 1 .187-.292c.077-.093.161-.183.212-.281.055-.101.105-.194.151-.292.098-.192.11-.352.123-.524a1.274 1.274 0 0 0-.088-.579l-.064-.022s-.225.118-.418.411a1.328 1.328 0 0 0-.224.514 6.303 6.303 0 0 0-.049.314c-.019.108-.004.228.003.35a.948.948 0 0 1-.026.343.666.666 0 0 1-.176.28c-.08.085-.164.165-.207.253-.047.085-.061.177-.079.262-.025.168.002.278.024.389.02.11.067.14.067.14l.065.018z"/></g><g><path fill="#303030" d="M210.511 176.264l-.008-.012a65.11 65.11 0 0 1-1.109-2.021c-.366-.676-.712-1.364-1.058-2.049l-.073-.144.111-.141c.479-.602.968-1.196 1.458-1.785.242-.294.5-.583.747-.874.248-.294.502-.582.756-.867l.113-.131.161.025c.821.128 1.644.248 2.465.383a85.3 85.3 0 0 1 2.458.429l.095.016.032.075.447 1.062c.15.354.313.702.469 1.052a35.62 35.62 0 0 0 1.007 2.072l.036.069-.053.07-1.411 1.821a46.339 46.339 0 0 1-1.482 1.763l-.097.11-.137-.021a60.053 60.053 0 0 1-2.461-.403c-.409-.077-.819-.144-1.227-.229-.408-.089-.816-.164-1.223-.266l-.016-.004zm1.274.016c.414.028.826.074 1.243.107.826.07 1.654.16 2.478.266l-.231.086c.489-.593.991-1.17 1.511-1.736l1.578-1.679-.017.14a34.715 34.715 0 0 0-.947-2.098c-.169-.346-.332-.693-.507-1.035l-.529-1.022.126.092a89.555 89.555 0 0 1-2.484-.24c-.827-.087-1.653-.193-2.477-.288l.271-.102c-.244.292-.486.589-.738.881-.249.29-.494.588-.748.873a89.262 89.262 0 0 1-1.535 1.72l.04-.285c.303.705.611 1.406.896 2.121.292.704.571 1.416.838 2.133.41.009.821.042 1.232.066z"/><path fill="#303030" d="M217.235 174.584a9.732 9.732 0 0 0-.525-1.642c-.111-.262-.221-.522-.352-.778-.131-.256-.286-.496-.441-.737l-.065-.1h-.07a7.632 7.632 0 0 1-1.248-.084c-.411-.064-.814-.173-1.221-.274a14.629 14.629 0 0 0-1.225-.255c-.41-.077-.817-.149-1.231-.198l-.18-.018-.104.128c-.58.722-1.129 1.47-1.585 2.298l.045.038c.748-.58 1.401-1.239 2.023-1.923l-.285.107c.411.063.824.103 1.24.137.415.04.83.079 1.249.081.418.009.836.014 1.25.062.413.044.819.135 1.224.247l-.136-.097c.087.274.176.545.284.81.111.262.244.518.374.769.27.504.564.995.925 1.455l.054-.026z"/><path fill="#303030" d="M208.108 179.075l-.007-.012a204.26 204.26 0 0 1-1.895-3.698c-.625-1.233-1.232-2.478-1.839-3.719l-.073-.149.111-.138a313.65 313.65 0 0 1 2.658-3.188l1.347-1.581 1.358-1.569.11-.126.162.024 4.451.647c1.481.222 2.963.458 4.442.699l.092.014.035.076.839 1.901.861 1.89c.57 1.261 1.175 2.503 1.791 3.745l.036.071-.054.067-2.612 3.227a116.76 116.76 0 0 1-2.686 3.166l-.096.108-.134-.02c-1.483-.221-2.968-.421-4.448-.67-.738-.122-1.48-.233-2.218-.363-.74-.131-1.48-.255-2.215-.397l-.016-.005zm2.265.153c.747.07 1.49.16 2.236.238 1.492.153 2.978.356 4.466.539l-.229.087a120.867 120.867 0 0 1 2.707-3.146l2.781-3.086-.021.14a109.567 109.567 0 0 0-1.729-3.772l-.898-1.871-.92-1.861.125.094a355.1 355.1 0 0 1-4.469-.509l-4.462-.559.272-.104-1.339 1.586-1.351 1.576a261.93 261.93 0 0 1-2.732 3.124l.038-.283c.566 1.262 1.133 2.523 1.679 3.798a175.814 175.814 0 0 1 1.622 3.804c.741.058 1.483.134 2.224.205z"/><path fill="#303030" d="M203.576 174.562c.23.655.48 1.304.739 1.945.264.641.537 1.275.818 1.909.283.63.565 1.263.882 1.878.314.615.647 1.224.972 1.838l.043.08.073.004a31.54 31.54 0 0 1 2.235.246c.744.101 1.48.239 2.219.368.737.144 1.477.277 2.216.397.74.126 1.482.232 2.222.35l.157.024.115-.131c.463-.516.912-1.041 1.355-1.57.445-.531.885-1.066 1.313-1.61.432-.54.865-1.08 1.281-1.636.421-.549.835-1.105 1.236-1.673l-.046-.04c-.498.485-.983.98-1.459 1.485a65.744 65.744 0 0 0-1.416 1.52 69.977 69.977 0 0 0-2.725 3.128l.272-.104c-.747-.084-1.491-.177-2.237-.255a88.573 88.573 0 0 0-2.238-.207c-.747-.068-1.497-.131-2.238-.23a33.528 33.528 0 0 1-2.22-.358l.113.086c-.261-.644-.514-1.289-.786-1.926-.27-.636-.575-1.259-.878-1.879a48.377 48.377 0 0 0-1.963-3.665l-.055.026z"/><path fill="#303030" d="M203.471 174.957s.088-.113.163-.182c.074-.068.174-.21.248-.343.032-.066.079-.16.091-.246a1.177 1.177 0 0 0-.009-.299c-.034-.206.041-.396.189-.555.07-.08.146-.167.189-.253a5.42 5.42 0 0 0 .135-.259c.087-.17.122-.385.134-.537a2.092 2.092 0 0 0-.056-.584l-.057-.02s-.221.177-.392.436a1.322 1.322 0 0 0-.21.486 4.4 4.4 0 0 0-.051.298c-.017.1-.006.211.001.317.021.217-.032.409-.181.558a1.002 1.002 0 0 0-.184.224c-.04.077-.055.157-.069.231-.021.151-.039.365-.019.465.018.097.021.243.021.243l.057.02zM206.988 182.004s.028.069.102.001c.076-.066.147-.116.219-.25.033-.067.063-.115.075-.2.016-.084-.006-.174-.017-.275-.031-.209.039-.386.187-.545.068-.082.144-.159.188-.248.048-.088.095-.173.132-.257.09-.168.116-.36.126-.513a1.703 1.703 0 0 0-.063-.562l-.055-.018s-.216.155-.387.413a1.292 1.292 0 0 0-.206.477 4.337 4.337 0 0 0-.048.292c-.016.096-.005.21.001.318a.645.645 0 0 1-.181.552c-.068.076-.144.147-.182.225-.041.076-.054.157-.068.23-.021.15.021.184.042.283.017.096.082.06.082.06l.053.017zM215.813 171.828l.143-.119a1.12 1.12 0 0 0 .228-.275.716.716 0 0 0 .078-.205c.012-.072-.006-.168-.022-.259-.04-.184.027-.35.167-.482.066-.068.136-.139.177-.215.045-.073.088-.149.123-.223a1.32 1.32 0 0 0 .125-.508c.007-.271-.06-.56-.06-.56l-.059-.02s-.226.188-.385.409c-.078.11-.171.279-.196.443a3.504 3.504 0 0 0-.042.271c-.014.084 0 .19.01.283.029.192-.018.363-.16.488-.068.063-.137.125-.174.191-.036.065-.046.137-.059.203-.015.13-.013.289.01.376l.04.182.056.02zM210.506 171.417s.087-.106.157-.164c.071-.055.167-.184.234-.296.03-.06.07-.143.081-.217.014-.075-.005-.175-.021-.265a.508.508 0 0 1 .169-.485c.065-.068.138-.138.178-.216.045-.072.088-.148.122-.223.081-.145.105-.33.112-.465.007-.271-.077-.516-.077-.516l-.057-.018s-.212.145-.371.363c-.078.11-.164.257-.188.422a3.08 3.08 0 0 0-.039.259c-.013.084.002.186.013.279.03.192-.017.36-.158.484-.067.063-.138.122-.174.19s-.047.137-.057.201c-.016.133-.03.334-.007.422.02.085.026.226.026.226l.056.019h.001zM221.472 177.415s.157-.156.319-.419c.082-.128.166-.283.248-.454a4.76 4.76 0 0 0 .443-1.621c.026-.305-.005-.523-.005-.523s-.158.156-.318.415a4.786 4.786 0 0 0-.69 2.076c-.03.306.003.526.003.526zM216.205 183.263l.143-.126c.075-.068.167-.184.242-.318.032-.066.07-.145.084-.23s0-.189-.013-.292a.655.655 0 0 1 .189-.555c.07-.08.145-.162.189-.248.05-.089.094-.175.135-.259a1.81 1.81 0 0 0 .149-.589c.018-.308-.036-.641-.036-.641l-.057-.019s-.241.232-.414.489c-.082.13-.185.329-.217.515a4.788 4.788 0 0 0-.054.311c-.018.098-.01.219-.002.327a.66.66 0 0 1-.182.56c-.072.075-.146.15-.185.226a.695.695 0 0 0-.068.232 1.375 1.375 0 0 0 .037.598l.06.019z"/></g><path fill="none" stroke="#3F352E" stroke-miterlimit="10" d="M227.16 185.381c1.788 4.452 3.819 10.378 7.267 13.745M219.569 191.092c.588 2.065 2.053 3.774 2.629 6.023M193.493 232.338c-.615 2.053 3.781 10.687 4.795 13.437M182.821 230.347c.639 2.226 1.423 4.701 2.32 6.952M170.865 198.078c.98 2.271 1.57 4.81 1.703 7.259M161.125 197.949c3.179 5.18 5.035 12.16 5.26 18.227"/></svg>