<svg xmlns="http://www.w3.org/2000/svg" width="238" height="228" viewBox="0 0 238 228"><circle fill="#FFF" cx="119.25" cy="113.672" r="88.877"/><path fill="#00A2C2" d="M65.184 102.161c1.854 1.254.999 8.083 1.25 10.545.375 3.663.522 7.393 1.073 11.082.492 3.297.546 6.81.894 10.188.34 3.302 1.308 6.436 1.93 9.651.535 2.765.978 7.091.021 9.775a38.12 38.12 0 0 0 .549-1.501c-.182.387-.326.929-.517 1.34 3.105-.747 6.954-.692 10.168-.996 3.207-.302 6.245-1.025 9.464-1.47 7.744-1.069 15.013-5.147 22.888-5.539 2.861-.144 7.372 1.037 9.803-.391-.922-3.579-1.359-7.59-1.403-11.411-.019-1.687-.136-3.454-.004-5.135.137-1.744.945-4.02.54-5.764-.451-1.944-3.104-2.252-4.607-3.441-1.398-1.106-1.639-2.474-3.252-3.48-3.075-1.918-6.213-3.676-9.311-5.576-3.435-2.108-6.493-4.574-9.988-6.586-3.031-1.745-5.837-5.464-9.299-3.659-2.667 1.39-4.39 2.37-7.69 2.367-1.585-.002-3.427.258-4.964-.04-1.63-.314-2.246-.864-3.974-.666-.793.092-3.31.31-3.037.527M91.458 66.059c.951 2.289-3.313 8.134-4.3 10.366-1.207 2.729-2.562 5.37-3.484 8.223-.587 1.812-3.014 5.224-3.208 6.889-.3 2.566 6.979 4.097 9.839 5.72 15.689 8.899 29.387 20.7 43.971 31.279 8.68 6.298 17.393 12.009 26.198 17.971 5.663 3.833 9.48 3.018 15.326-.02 2.662-1.383 5.184-3.198 7.892-4.565 3.56-1.799 4.245-1.832 5.334-5.443 1.619-5.372 3.546-10.005 6.186-14.993 1.009-1.907 1.747-3.949 3.37-5.364-2.342-3.047-4.824-3.578-3.532-8.004.141-.12.153-.11.035.026-5.349 1.359-8.215-3.584-11.68-5.997-3.194-2.226-7.581-2.603-11.105-5.078.839-.869 1.069-2.001 1.32-3.071-2.438.397-5.212.351-7.523-.833-2.356-1.206-3.841-4.647-5.737-5.586-1.155-.57-1.996.67-2.771.304-1.198-.566-1.871-1.53-2.86-2.52-2.293-2.295-2.071 1.404-2.912-1.732-4.091.517-5.529-4.719-8.912-7.48-1.762-1.438-3.712-4.698-5.772-1.905-1.75-1.238-5.992-3.342-7.469-4.967.496-.445.65-2.361 1.08-2.779-5.026-1.879-10.318-.799-13.199-6.758-.062.696-.63 1.293-.778 1.992-4.546-1.592-6.94-4.551-11.367-1.411-1.148.813-.619 1.393-2.145 2.163-.565.285-2.506.488-3.218.636-1.96.405-5.933.442-6.791 1.866"/><path fill="#333" d="M170.11 145.624s.235-.096.646-.26c.405-.176 1.014-.379 1.685-.712.68-.314 1.476-.679 2.322-1.11l2.649-1.343 2.648-1.359c.85-.426 1.626-.858 2.32-1.165 1.382-.634 2.366-.934 2.366-.934s-.819.624-2.141 1.376c-.658.388-1.448.781-2.282 1.234l-2.625 1.398c-.9.482-1.802.925-2.657 1.351-.849.429-1.662.806-2.371 1.105-.7.326-1.301.51-1.713.677l-.651.245-.196-.503zM72.673 150.408l.383-.163a9.546 9.546 0 0 1 1.174-.347c1.011-.25 2.474-.411 4.209-.518.876-.062 1.784-.123 2.775-.28.986-.135 2.028-.28 3.106-.43l6.751-.899c9.194-1.23 18.409-2.312 18.409-2.312 0-.001-9.162 1.465-18.345 2.781l-6.742.983c-1.074.157-2.114.311-3.101.454-.975.163-1.95.238-2.808.306-1.733.134-3.161.269-4.13.478-.49.098-.85.216-1.091.294-.251.101-.387.153-.387.153l-.203-.5zM109.39 121.857c.803-.173 1.609-.298 2.416-.448l2.423-.372a132.53 132.53 0 0 1 4.861-.62l.378-.044.021.38c.171 3.188.341 6.375.455 9.566.124 3.189.234 6.381.268 9.575-.327-3.179-.577-6.36-.815-9.545a534.4 534.4 0 0 1-.626-9.556l.398.338c-1.623.176-3.248.344-4.879.462l-2.446.169c-.818.031-1.634.087-2.454.095zM84.858 108.869s-.043.126-.128.338c-.041.106-.137.218-.229.359-.094.146-.236.261-.381.408a4.65 4.65 0 0 1-1.177.72c-.457.218-.976.352-1.494.479-.524.093-1.051.174-1.551.178a7.34 7.34 0 0 1-1.358-.079 4.912 4.912 0 0 1-.931-.257c-.212-.101-.325-.163-.325-.163s.133.02.353.062c.224.033.545.043.926.048.384-.015.828-.03 1.304-.088.237-.02.479-.063.728-.098.249-.027.495-.091.745-.135.245-.061.496-.103.733-.178.239-.067.476-.129.696-.213a6.601 6.601 0 0 0 1.169-.527c.145-.111.313-.191.415-.293.107-.104.222-.181.288-.275.133-.182.217-.286.217-.286zM82.694 98.047s-.043.124-.13.337c-.039.107-.136.218-.228.36-.094.146-.235.26-.381.407a4.69 4.69 0 0 1-1.176.721c-.457.218-.977.351-1.494.479-.524.094-1.052.175-1.551.178a7.28 7.28 0 0 1-1.36-.079 4.856 4.856 0 0 1-.93-.256c-.213-.101-.325-.163-.325-.163s.133.019.353.062c.224.034.545.043.926.047.384-.015.827-.029 1.303-.087.238-.019.48-.062.728-.098.249-.027.496-.091.745-.135.245-.06.496-.102.733-.177.24-.068.476-.129.696-.214a6.418 6.418 0 0 0 1.168-.527c.144-.11.312-.19.416-.293.106-.104.222-.18.287-.275.136-.185.22-.287.22-.287z"/><path fill="#333" d="M117.687 122.932s-.017.797.003 1.98c.02 1.177.082 2.772.092 4.363-.024.797-.003 1.594-.082 2.339-.033.373-.05.734-.09 1.072-.055.34-.106.659-.155.954-.045.296-.086.565-.165.796-.067.232-.126.436-.173.604l-.151.523.121-.533.138-.608c.066-.232.09-.503.119-.799.03-.294.065-.613.101-.951.019-.339.017-.698.028-1.067.035-.738-.031-1.531-.051-2.32-.1-1.58-.251-3.153-.34-4.354-.088-1.193-.115-1.984-.115-1.984l.72-.015z"/><path fill="#0B96A8" d="M64.535 101.174c.054 3.78.496 7.691 4.856 10.463 4.963 3.152 11.913 6.271 17.702 6.852 10.634 1.067 20.246 2.69 30.688.002-9.273-4.064-15.783-12.039-23.775-17.916-3.134-2.306-6.049-2.609-9.131-2.331-2.903-2-6.385-2.265-9.036-2-1.083.109-4.69 1.083-6.135 3.957-3.984.78-7.395 2.194-4.688 4.822"/><path opacity=".2" fill="#CDCCCC" d="M101.303 119.616l-28.831-13.151 16.523-8.107s29.603 20.497 28.787 20.132c-.816-.367-16.479 1.126-16.479 1.126z"/><path fill="#0B96A8" d="M87.023 117.527c1.33-2.333 4.278-3.592 4.284-6.781-1.477-1.162-3.123-2.025-5.006-1.877M85.219 104.901c3.632.703 3.843-6.741.055-5.718-.231 2.047 1.129 3.221-.055 4.996"/><path opacity=".2" fill="#DEDEDD" d="M117.686 117.751l-16.424 1.865 20.699 10.175v-9.026zM121.961 120.765v9.026l43.06 21.151z"/><path fill="#0B96A8" d="M200.421 114.642l-5.712-4.148 2.345-4.149-6.313-5.771-7.576-2.346-2.681 3.627-7.918-5.078 1.038-3.418s-.82-3.337-5.411-6.494c-2.886-1.983-7.937-1.443-7.937-1.443l-1.948 2.212-7.527-4.828 1.539-3.035s-1.912-4.4-5.412-6.253c-3.066-1.623-7.334-1.685-7.334-1.685l-2.161 2.397-7.464-4.787 1.928-2.66s-2.62-3.42-5.712-5.894c-2.706-2.164-7.275-1.804-7.275-1.804l-2.397 2.774-12.034 1.075s15.633 14.43 19.48 14.67c3.85.24 23.812 11.784 25.495 13.228 1.684 1.443 24.772 16.595 28.38 18.038 3.607 1.443 14.911 9.861 16.835 9.14 1.923-.723 5.772-3.368 5.772-3.368z"/><path fill="#0B96A8" d="M114.561 74.479c1.258-.38 4.105-.47 4.756-1.985.774-1.803-1.274-2.549-2.79-2.543-.36 1.337-.84 2.607-1.486 3.807M136.206 88.187c1.248-.088 4.889-1.523 3.559-3.56-1.415-2.164-2.572 1.513-3.078 2.116M159.054 102.376c1.23-.727 4.37-.692 5.109-2.153 1.006-1.988-2.049-2.459-3.629-2.38-.051 1.332-.917 2.6-1.48 3.571M181.903 117.769c1.797.344 5.887-1.45 4.628-4.148-1.813-3.885-3.232 1.558-4.388 2.225M192.484 114.161c4.085 2.607 1.47-5.519.481-.963M169.877 100.211c.806.527 4.571.601 3.559-1.87-1.093-2.668-2.642.21-3.319 1.149M150.396 83.136c1.171.624 2.025 2.374 2.133 3.566-1.346.073-2.736.126-4.021-.235-.059-.982.623-1.938 1.167-2.609"/><path fill="#CDCCCC" d="M128.75 73.274c.666-.215 1.775.038 2.645.506 1.94-1.37-1.159-4.668-2.645-1.708"/><path fill="none" d="M174.687 124.021l-57-40.405"/><path fill="#676767" d="M174.479 124.316l-56.792-40.7 57.209 40.111z"/><path fill="#0B96A8" d="M187.674 121.857c1.746 4.505 1.511 9.402.765 14.005 3.113-.288 4.041-6.979 5.638-9.326 2.082-3.058 5.009-6.085 4.725-10.044-3.81.868-8.052 3.322-11.851 4.644"/><path fill="#3E3E3E" d="M181.012 123.966c-.578.424-.948.96-1.271 1.522l-.925 1.712-1.85 3.424-3.693 6.852-3.636 6.883c-1.19 2.306-2.397 4.605-3.563 6.925l-.359.716-.682-.467L78.811 92.63l-.517-.354.277-.562 13.231-26.891.47-.955.58.674c.745.863 1.663 1.473 2.584 2.073l2.75 1.821 5.503 3.645 11.004 7.289 22.01 14.575 22.011 14.576 22.869 15.023-.571.422zm-1.392.014l-21.542-14.504-21.953-14.661-21.953-14.661-10.978-7.331-5.488-3.665-2.744-1.833c-.911-.616-1.826-1.229-2.912-1.58l1.049-.283-13.232 26.891-.241-.916 86.221 58.903-1.042.25c1.325-2.232 2.607-4.488 3.907-6.735l3.834-6.776 3.775-6.807 1.885-3.405.941-1.703c.194-.376.362-.764.473-1.184z"/><path fill="none" stroke="#3E3E3E" stroke-width="2.004" stroke-miterlimit="10" d="M165.438 150.936l21.768-10.67 13.659-24.757-20.489 8.11M194.284 111.344l6.581 4.165M172.095 97.309l7.932 5.017M150.279 83.506l7.908 5.002M130.062 70.715l6.886 4.356M92.45 65.142l10.047-1.039"/><path fill="#3E3E3E" d="M122.624 121.444l1.279 23.477.036.647-.639.104-52.927 8.75-.78.13-.058-.78c-.365-4.949-.763-9.896-1.182-14.841l-.615-7.419-.307-3.709c-.113-1.235-.152-2.477-.458-3.696l-.176-.702.812-.078 6.365-.611 6.361-.643 12.714-1.358 12.703-1.446c2.117-.247 4.237-.465 6.35-.749 2.11-.298 4.215-.646 6.298-1.168l.169 1.437c-2.148-.023-4.277.125-6.399.325-2.12.214-4.232.494-6.349.746l-12.693 1.54-12.683 1.63-6.336.852-6.333.883.636-.78c-.092 1.252.082 2.482.182 3.72l.333 3.707.666 7.415c.435 4.942.891 9.884 1.38 14.823l-.838-.651 52.926-8.75-.603.754-1.28-23.478 1.446-.081z"/><path fill="none" stroke="#3E3E3E" stroke-width="2.004" stroke-miterlimit="10" d="M85.492 99.393l4.397-.531"/><path fill="#3E3E3E" d="M66.976 124.129l-.508-5.564-.563-5.558-.612-5.552-.307-2.776c-.103-.926-.173-1.854-.571-2.746l-.306-.687.938-.114 4.518-.546.173 1.437-4.518.545.631-.8c-.184.958-.041 1.878.07 2.804l.333 2.771.67 5.548.717 5.539.772 5.533-1.437.166z"/><g fill="none" stroke="#3E3E3E" stroke-miterlimit="10"><path stroke-width="1.743" d="M87.434 109.405l.458 6.888M71.364 110.479l.507 6.748"/><ellipse transform="rotate(-93.336 79.432 109.441)" stroke-width="2.043" cx="79.436" cy="109.441" rx="3.102" ry="7.916"/><path stroke-width="2.043" d="M87.757 116.011c.1 1.709-3.358 3.302-7.723 3.556s-7.982-.927-8.083-2.637"/></g><g fill="none" stroke="#3E3E3E" stroke-miterlimit="10"><path stroke-width="1.743" d="M98.255 107.278l.507 6.746"/><path stroke-width="2.043" d="M105.146 109.368c-3.728-.038-6.626-1.143-6.715-2.67-.025-.428.172-.848.552-1.242M112.758 114.989c-1.409.717-3.491 1.241-5.833 1.376-4.365.255-7.984-.926-8.083-2.637"/></g><g fill="none" stroke="#3E3E3E" stroke-miterlimit="10"><path stroke-width="1.743" d="M85.512 99.162l.46 6.888M69.443 100.236l.507 6.745"/><ellipse transform="rotate(-93.336 77.51 99.197)" stroke-width="2.043" cx="77.515" cy="99.197" rx="3.102" ry="7.918"/><path stroke-width="2.043" d="M71.954 108.553c-1.161-.47-1.88-1.118-1.923-1.867"/></g><g fill="none" stroke="#3E3E3E" stroke-width="1.989" stroke-miterlimit="10"><ellipse transform="rotate(-60.995 155.6 91.447)" cx="155.612" cy="91.449" rx="2.577" ry="8.416"/><path d="M162.977 95.535l-3.201 6.402c-.69 1.245-4.547.427-8.61-1.828-4.066-2.254-6.801-5.092-6.11-6.336l3.201-6.401"/></g><g fill="none" stroke="#3E3E3E" stroke-width="1.958" stroke-miterlimit="10"><ellipse transform="rotate(-60.982 189.18 103.102)" cx="189.186" cy="103.106" rx="2.577" ry="8.155"/><path d="M179.866 103.487l2.168-4.323M196.297 107.076l-3.21 6.397c-.662 1.195-4.167.562-7.919-1.451"/></g><g fill="none" stroke="#3E3E3E" stroke-width="1.93" stroke-miterlimit="10"><ellipse transform="rotate(-60.988 166.974 89.16)" cx="166.976" cy="89.157" rx="2.576" ry="7.923"/><path d="M157.814 89.773l2.242-4.455M173.914 93.003l-3.217 6.395c-.689 1.244-4.354.533-8.179-1.589"/></g><g fill="none" stroke="#3E3E3E" stroke-width="1.898" stroke-miterlimit="10"><path d="M152.173 79.574c-.691 1.244-4.252.589-7.951-1.463-3.703-2.053-6.143-4.726-5.452-5.97.688-1.246 4.251-.59 7.952 1.461 3.701 2.054 6.141 4.727 5.451 5.972zM136.597 76.445l2.174-4.303"/><path d="M152.173 79.574l-3.226 6.39c-.689 1.244-4.252.589-7.952-1.465a21.845 21.845 0 0 1-1.927-1.2"/></g><g fill="none" stroke="#3E3E3E" stroke-width="1.858" stroke-miterlimit="10"><ellipse transform="rotate(-60.995 125.037 62.929)" cx="125.036" cy="62.931" rx="2.469" ry="7.663"/><path d="M116.425 63.043l1.923-3.826M131.75 66.648l-3.079 6.127c-.661 1.191-4.198.495-7.898-1.558a21.578 21.578 0 0 1-2.903-1.916"/></g><g fill="none" stroke="#3E3E3E" stroke-width="1.938" stroke-miterlimit="10"><ellipse transform="rotate(-60.988 132.998 77.596)" cx="132.997" cy="77.594" rx="2.577" ry="7.986"/><path d="M139.973 81.475l-3.214 6.396c-.691 1.244-4.377.52-8.235-1.62-3.857-2.14-6.422-4.883-5.732-6.127l3.213-6.395"/></g><g fill="none" stroke="#3E3E3E" stroke-width="1.938" stroke-miterlimit="10"><ellipse transform="rotate(-60.988 111.853 63.515)" cx="111.852" cy="63.514" rx="2.577" ry="7.986"/><path d="M118.845 67.39l-3.214 6.396c-.689 1.244-4.376.52-8.234-1.619-3.858-2.141-6.424-4.884-5.732-6.128l3.213-6.395"/></g><g fill="none" stroke="#3E3E3E" stroke-width="1.958" stroke-miterlimit="10"><ellipse transform="rotate(-60.982 178.907 106.313)" cx="178.913" cy="106.317" rx="2.577" ry="8.155"/><path d="M186.054 110.276l-3.21 6.396c-.69 1.245-4.445.484-8.382-1.7-3.94-2.184-6.571-4.964-5.881-6.208l3.209-6.398"/></g><path fill="#353635" d="M91.632 71.662l-.115.997c-.038.316-.076.701-.196 1.134-.113.431-.196.938-.382 1.456-.187.515-.355 1.091-.599 1.671-.252.576-.475 1.208-.796 1.813-.595 1.238-1.294 2.523-2.01 3.795-.365.629-.732 1.256-1.091 1.874l-1.004 1.852-.875 1.753c-.285.554-.523 1.097-.752 1.591l-1.531 3.306.335-.945c.223-.597.521-1.46.938-2.473.207-.508.418-1.061.681-1.634.258-.574.512-1.191.822-1.803l.977-1.867 1.068-1.901c.734-1.257 1.447-2.521 2.055-3.737.32-.602.575-1.206.851-1.764.268-.562.458-1.121.668-1.621.201-.505.318-.986.465-1.403.151-.415.22-.799.283-1.111l.208-.983z"/><path fill="#353635" d="M82.909 91.439s.087.101.241.275c.078.082.166.209.282.305l.383.346c.303.248.67.533 1.071.833.396.295.84.591 1.29.861.912.547 1.845 1.079 2.489 1.56l.431.341c.13.098.223.208.31.284l.264.256-.278-.239c-.09-.073-.189-.176-.325-.266l-.446-.311c-.667-.44-1.619-.913-2.567-1.407a16.594 16.594 0 0 1-1.366-.802 32.688 32.688 0 0 1-1.135-.78l-.446-.362c-.139-.105-.221-.214-.308-.296-.164-.165-.257-.262-.257-.262l.367-.336z"/><g><path fill="#333" d="M84.552 90.595s.367-.735.953-1.817c.299-.538.636-1.174 1.02-1.841.384-.666.794-1.377 1.202-2.09l1.239-2.067c.395-.66.788-1.265 1.112-1.788.66-1.043 1.127-1.726 1.127-1.726s-.362.734-.946 1.817c-.299.539-.631 1.176-1.015 1.844l-1.199 2.095-1.246 2.065c-.397.661-.792 1.265-1.117 1.788-.662 1.039-1.13 1.72-1.13 1.72z"/></g></svg>