<svg id="Capa_1" xmlns="http://www.w3.org/2000/svg" width="86" height="81" viewBox="0 0 86 81"><style>.st0{fill:#ff5f5c}.st1{fill:#3f352e}.st2{fill:#fff;stroke:#3f352e;stroke-width:2;stroke-miterlimit:10}</style><path class="st0" d="M44.928 11.893c9.402 0 14.833-1.26 21.935 7.322 4.953 5.984 7.594 12.93 8.225 20.562 2.319 28.055-25.936 43.42-48.055 26.469-12.397-9.498-18.843-27.818-7.96-40.828 7.178-8.58 14.916-14.352 27.251-13.535"/><path class="st1" d="M46.841 74.09c-6.956 0-14.073-2.441-20.295-7.207-7.583-5.811-12.688-14.496-13.654-23.238-.773-6.98 1.152-13.463 5.568-18.744 6.445-7.701 14.291-14.703 27.892-13.818.597-.006 1.18-.016 1.747-.025 7.478-.129 12.876-.215 19.381 7.646 4.914 5.941 7.742 13.012 8.405 21.008 1.116 13.506-4.61 25.057-15.321 30.902-4.268 2.329-8.958 3.476-13.723 3.476zM44.08 12.607c-11.583 0-18.573 6.365-24.392 13.322-4.129 4.938-5.93 11-5.206 17.539.919 8.314 5.793 16.592 13.036 22.141 10.125 7.764 22.193 9.107 32.279 3.602 10.137-5.535 15.555-16.514 14.491-29.367-.634-7.668-3.341-14.436-8.042-20.117-6.016-7.271-10.58-7.201-18.121-7.068-1.017.018-2.08.033-3.198.033v-.072a26.718 26.718 0 0 0-.847-.013z"/><path class="st2" d="M46.341 47.131l.891 7.684c0 .779-.322 1.414-.961 1.895a3.444 3.444 0 0 1-2.131.729c-.781 0-1.5-.227-2.156-.682C41.328 56.307 41 55.719 41 55l-.608-9.322v-.703l-5.342.422c-2.717 0-4.074-1.016-4.074-3.047 0-.654.193-1.229.584-1.73.391-.5.914-.75 1.57-.75l5.668.328c.812 0 1.547-.062 2.202-.188l-.562-7.027c0-3.529 1.03-5.293 3.092-5.293.718 0 1.303.266 1.758.795.451.533.678 1.189.678 1.969v1.17c0 5.715.422 8.574 1.266 8.574l5.572-.375c3.312 0 4.967.969 4.967 2.902 0 .752-.265 1.377-.795 1.873-.531.504-1.172.75-1.922.75l-5.668-.514c-2.031 0-3.045.766-3.045 2.297z"/></svg>