<svg id="Capa_1" xmlns="http://www.w3.org/2000/svg" width="908" height="412" viewBox="0 0 908 412"><style>.st0{fill:#ff5f5c;stroke:#3f352e;stroke-miterlimit:10}.st1{stroke-width:2}.st1,.st2{fill:none;stroke:#3f352e;stroke-miterlimit:10}</style><path class="st1" d="M851.332 169.053c12.137.023 0 0 0 0 18.738-.824.828-1.697 19.503-.596 1.275 23.189-2.653 46.812-1.648 70.367.892 20.826 5.024 41.572 6.265 62.434.531 8.951 1.39 17.902 1.81 26.809.199 4.279 3.222 40.186.216 43.43-3.09 3.334-17.33.354-21.608-.064-8.62-.842-18.261.561-26.83-.895M171.808 381.285c.466-1.072-36.081-.146-41.708-.146-10.625 0-81.416.412-91.986-.137-.848-27.207-.005-134.182-.005-161.859"/><path class="st2" d="M710.832 133.496c-39.161-20.473-90.855-.471-93.253 50.619-1.508 32.016 21.302 43.051 48.385 50 14.001 3.596 73.365 29.852 81.23 30.797 19.36 2.344 60.685-48.668 75.976-64.133 24.487-24.768 50.673-54.719 50.249-91.727-.456-40.738-42.514-85.062-86.084-73.729-40.212 10.461-77.764 59.998-76.503 100.834"/><path class="st0" d="M701 133.496c-39.159-20.473-90.852-.471-93.256 50.619-1.502 32.016 21.302 43.051 48.386 50 14 3.596 73.37 29.852 81.233 30.797 19.362 2.344 60.685-48.668 75.968-64.133 24.489-24.768 50.675-54.719 50.259-91.727-.459-40.738-42.516-85.062-86.084-73.729C737.291 45.785 699.74 95.322 701 136.158"/><path class="st2" d="M697.832 131.496c-39.161-20.473-90.855-.471-93.253 50.619-1.508 32.016 21.302 43.051 48.385 50 14.001 3.596 73.365 29.852 81.23 30.797 19.36 2.344 60.685-48.668 75.976-64.133 24.487-24.768 50.673-54.719 50.249-91.727-.456-40.738-42.514-85.062-86.084-73.729-40.212 10.461-77.764 59.998-76.503 100.834"/></svg>