<svg xmlns="http://www.w3.org/2000/svg" width="139" height="397" viewBox="0 0 139 397"><path fill="#E0D963" stroke="#3F352E" stroke-width="2" stroke-miterlimit="10" d="M64.81 92.459c-9.216-2.182-11.512-13.799-6.901-34.84 2.515-11.475 5.334-20.17 8.473-26.088 3.132-5.906 7.853-10.678 14.163-14.311 6.306-3.629 13.365-4.584 21.178-2.873 7.81 1.713 14.062 4.623 18.755 8.748 4.694 4.111 8.022 8.562 9.986 13.33 1.961 4.779 3.001 10.686 3.135 17.732.415 10.281-1.113 23.352-4.589 39.215-3.476 15.861-8.642 31.807-15.496 47.85-6.535 16.107-13.101 30.045-19.683 41.797-17.221 31.305-30.991 70.143-41.313 116.494-3.461 15.783-5.771 26.721-6.938 32.807-5.742-1.256-9.104-1.736-10.086-1.451-.981.281-1.792.357-2.426.219-6.061-1.328-9.24-5.869-9.545-13.623 7.893-36.021 21.47-76.068 40.733-120.127 19.258-44.057 32.155-80.998 38.688-110.807 6.531-29.805 4.934-45.777-4.787-47.908-6.215-1.361-10.917 5.209-14.097 19.715-.559 2.553-1.383 11.639-2.468 27.275-.313 1.438-2.752 3.027-7.312 4.787-4.561 1.756-7.719 2.444-9.47 2.059zM44.895 372.021c-2.725 12.432-10.701 17.197-23.933 14.297-4.623-1.012-8.238-3.768-10.843-8.262-2.611-4.492-3.401-9.055-2.39-13.676 1.015-4.623 3.956-8.533 8.835-11.729 4.87-3.191 9.586-4.289 14.129-3.293 4.541.994 8.259 4.027 11.163 9.086 2.899 5.072 3.912 9.595 3.039 13.577z"/></svg>