<svg xmlns="http://www.w3.org/2000/svg" width="1363.742" height="774" viewBox="0 0 1363.742 774"><path fill="#1EC1B3" d="M0 0v762.657c23.444.948 52.442.367 74.199-3.997 30.287-6.074 58.447-7.05 90.793-6.062 53.6 1.644 108.48 7.164 162.158 5.205 59.326-2.166 118.324-6.451 178.201-6.451 59.327 0 118.424 1.35 177.523 3.631 59.1-2.281 118.196-3.631 177.523-3.631 59.877 0 118.875 4.285 178.201 6.451 53.678 1.959 108.559-3.562 162.158-5.205 32.346-.987 60.506-.012 90.793 6.062 21.144 4.241 49.113 4.905 72.191 4.069V0H0z"/></svg>