<svg xmlns="http://www.w3.org/2000/svg" width="106.495" height="106.495" viewBox="0 0 106.495 106.495"><path fill="#E0D963" d="M79.006 95.853c-1.19-29.279 4.133-67.847-2.049-84.653-9.824 8.832-43.028 38.785-57.235 52.158C34.132 78.15 61.885 87.752 79.931 97.31"/><path fill="#3F352E" d="M79.107 98.87c-5.02-2.666-10.79-5.318-16.894-8.135-15.544-7.156-33.16-15.274-43.756-26.152l-1.25-1.281 1.306-1.229C34.971 46.583 75.375 10.254 75.78 9.884l1.935-1.741.898 2.446c4.039 10.987 3.329 30.428 2.579 51.003-.419 11.58-.86 23.554-.425 34.189l-.028.003-1.632 3.086zM22.262 63.389c10.272 9.794 26.784 17.402 41.425 24.146 4.757 2.188 9.305 4.292 13.486 6.377-.31-10.251.099-21.522.496-32.456.682-18.66 1.328-36.371-1.569-47.119-8.188 7.374-38.947 35.113-53.838 49.052z"/></svg>