<svg xmlns="http://www.w3.org/2000/svg" width="1267.437" height="731.964" viewBox="0 0 1267.437 731.964"><path fill="#FFF" d="M15.401 43.384h1225v680h-1225z"/><g stroke="#3F3832" stroke-width=".25" stroke-miterlimit="10"><path fill="#DF5F5C" d="M34.531 18.736c2.163 0 3.413-.291 5.047 1.685 1.14 1.377 1.747 2.976 1.893 4.731.533 6.457-5.969 9.992-11.059 6.091-2.852-2.186-4.335-6.4-1.83-9.396 1.651-1.974 3.432-3.302 6.27-3.114"/><path fill="#3F3832" d="M34.971 33.048c-1.602 0-3.239-.561-4.671-1.658-1.745-1.338-2.92-3.336-3.143-5.348-.178-1.607.266-3.098 1.282-4.313 1.482-1.772 3.288-3.383 6.418-3.179l.402-.006c1.72-.03 2.963-.05 4.459 1.76 1.132 1.367 1.782 2.994 1.935 4.834.257 3.107-1.062 5.766-3.525 7.11a6.56 6.56 0 0 1-3.157.8zm-.636-14.147c-2.666 0-4.274 1.463-5.614 3.066-.949 1.135-1.364 2.531-1.197 4.035.212 1.914 1.333 3.818 3.001 5.096 2.329 1.786 5.105 2.095 7.427.828 2.333-1.273 3.579-3.799 3.335-6.758-.146-1.764-.769-3.321-1.851-4.629-1.384-1.673-2.435-1.657-4.17-1.626-.234.005-.479.007-.735.007v-.016c-.066-.003-.132-.003-.196-.003z"/></g><g stroke="#3F3832" stroke-width=".25" stroke-miterlimit="10"><path fill="#EEBE57" d="M53.912 18.736c2.163 0 3.413-.291 5.047 1.685 1.14 1.377 1.747 2.976 1.893 4.731.533 6.457-5.969 9.992-11.059 6.091-2.852-2.186-4.335-6.4-1.83-9.396 1.651-1.974 3.432-3.302 6.27-3.114"/><path fill="#3F3832" d="M54.352 33.048c-1.602 0-3.239-.561-4.671-1.658-1.745-1.338-2.92-3.336-3.143-5.348-.178-1.607.266-3.098 1.282-4.313 1.482-1.772 3.288-3.383 6.418-3.179l.402-.006c1.72-.03 2.963-.05 4.459 1.76 1.132 1.367 1.782 2.994 1.935 4.834.257 3.107-1.062 5.766-3.525 7.11a6.56 6.56 0 0 1-3.157.8zm-.636-14.147c-2.666 0-4.274 1.463-5.614 3.066-.949 1.135-1.364 2.531-1.197 4.035.212 1.914 1.333 3.818 3.001 5.096 2.329 1.786 5.105 2.095 7.427.828 2.333-1.273 3.579-3.799 3.335-6.758-.146-1.764-.769-3.321-1.851-4.629-1.384-1.673-2.435-1.657-4.17-1.626-.234.005-.479.007-.735.007v-.016c-.066-.003-.132-.003-.196-.003z"/></g><g stroke="#3F3832" stroke-width=".25" stroke-miterlimit="10"><path fill="#71C860" d="M73.246 18.736c2.163 0 3.413-.291 5.047 1.685 1.14 1.377 1.747 2.976 1.893 4.731.533 6.457-5.969 9.992-11.059 6.091-2.852-2.186-4.335-6.4-1.83-9.396 1.651-1.974 3.432-3.302 6.27-3.114"/><path fill="#3F3832" d="M73.686 33.048c-1.602 0-3.239-.561-4.671-1.658-1.745-1.338-2.92-3.336-3.143-5.348-.178-1.607.266-3.098 1.282-4.313 1.482-1.772 3.288-3.383 6.418-3.179l.402-.006c1.72-.03 2.963-.05 4.459 1.76 1.132 1.367 1.782 2.994 1.935 4.834.257 3.107-1.062 5.766-3.525 7.11a6.56 6.56 0 0 1-3.157.8zm-.636-14.147c-2.666 0-4.274 1.463-5.614 3.066-.949 1.135-1.364 2.531-1.197 4.035.212 1.914 1.333 3.818 3.001 5.096 2.329 1.786 5.105 2.095 7.427.828 2.333-1.273 3.579-3.799 3.335-6.758-.146-1.764-.769-3.321-1.851-4.629-1.384-1.673-2.435-1.657-4.17-1.626-.234.005-.479.007-.735.007v-.016c-.066-.003-.132-.003-.196-.003z"/></g><linearGradient id="a" gradientUnits="userSpaceOnUse" x1="15.539" y1="30.857" x2="1240.657" y2="30.857"><stop offset="0" stop-color="#fff"/><stop offset="1"/></linearGradient><path fill="url(#a)" d="M15.539 43.348c5.871 0 25.062-.05 26.667-.13 1.593-.08 10.972-.144 14.279-.038 6.231.202 12.503.481 18.836.172 2.481-.122 10.509.328 14.514.149.132-2.917 6.224-18.175 7.075-19.991 1.025-2.188 3.201-4.673 5.625-5.167 1.467-.298 6.651.17 8.004.17 5.503 0 21.192.219 23.501.334 2.66.133 24.583-.167 28.179-.167 4.74 0 24.576-.272 29.939-.037 4.518.198 17.566.295 19.723.57 2.582.33 39.854-.861 41.393-.867 3.73-.011 28.783-.732 30.604.834.666.575 1.59 1.881 2.041 2.797.607 1.234 7.742 16.862 9.326 19.329 1.615 2.517 16.797 2.287 22.166 2.034 2.119-.1 921.664-1.013 923.248-.428"/><path fill="none" stroke="#3F3832" stroke-width="4" stroke-miterlimit="10" d="M15.539 43.348c5.871 0 25.062-.05 26.667-.13 1.593-.08 10.972-.144 14.279-.038 6.231.202 12.503.481 18.836.172 2.481-.122 10.509.328 14.514.149.132-2.917 6.224-18.175 7.075-19.991 1.025-2.188 3.201-4.673 5.625-5.167 1.467-.298 6.651.17 8.004.17 5.503 0 21.192.219 23.501.334 2.66.133 24.583-.167 28.179-.167 4.74 0 24.576-.272 29.939-.037 4.518.198 17.566.295 19.723.57 2.582.33 39.854-.861 41.393-.867 3.73-.011 28.783-.732 30.604.834.666.575 1.59 1.881 2.041 2.797.607 1.234 7.742 16.862 9.326 19.329 1.615 2.517 16.797 2.287 22.166 2.034 2.119-.1 921.664-1.013 923.248-.428"/><path fill="#FFF" d="M15.539 43.348c5.871 0 25.062-.05 26.667-.13 1.593-.08 10.972-.144 14.279-.038 6.231.202 12.503.481 18.836.172 2.481-.122 10.509.328 14.514.149.132-2.917 6.224-18.175 7.075-19.991 1.025-2.188 3.201-4.673 5.625-5.167 1.467-.298 6.651.17 8.004.17 5.503 0 21.192.219 23.501.334 2.66.133 24.583-.167 28.179-.167 4.74 0 24.576-.272 29.939-.037 4.518.198 17.566.295 19.723.57 2.582.33 39.854-.861 41.393-.867 3.73-.011 28.783-.732 30.604.834.666.575 1.59 1.881 2.041 2.797.607 1.234 7.742 16.862 9.326 19.329 1.615 2.517 16.797 2.287 22.166 2.034 2.119-.1 921.664-1.013 923.248-.428"/><path fill="#FFF" stroke="#3F3832" stroke-width="2" stroke-miterlimit="10" d="M1169.038 14.015c0 5.733.334 11.501.334 17.333 0 2.559-.324 5.165 2.324 6.176 2.902 1.106 48.242-.722 51.547-.676 3.643.051 7.346.215 10.963.166.828-.012 1.672-.226 2.471-.361.166-.174.121-.179.334-.333-.242-2.927.32-6.114.02-9.146-.293-2.945-.324-6.143-.324-9.159 0-1.252.309-2.96-.002-4.167-.406-1.583-1.271-1.479-2.795-1.704-2.781-.411-5.49-.159-8.371-.296-9.207-.439-18.725-.167-27.996-.167-2.086 0-23.693-.269-26.67.001-1.835.166-1.901 1.808-1.835 2.333"/><linearGradient id="b" gradientUnits="userSpaceOnUse" x1="15.539" y1="723.067" x2="1240.657" y2="723.067"><stop offset="0" stop-color="#fff"/><stop offset="1"/></linearGradient><path fill="url(#b)" d="M15.539 723.348c5.871 0 25.062-.05 26.667-.13 1.593-.08 269.834.375 275.204.121 2.119-.1 921.664-1.012 923.248-.428"/><path fill="none" stroke="#3F3832" stroke-width="4" stroke-miterlimit="10" d="M15.539 723.348c5.871 0 25.062-.05 26.667-.13 1.593-.08 269.834.375 275.204.121 2.119-.1 921.664-1.012 923.248-.428"/><path fill="#FFF" d="M15.539 723.348c5.871 0 25.062-.05 26.667-.13 1.593-.08 269.834.375 275.204.121 2.119-.1 921.664-1.012 923.248-.428"/><path fill="#DF5F5C" d="M1207.905 28.649c.01-.23 1.329-1.002 1.644-1.354.253-.283.435-.588.62-.907.258-.442.277-.452.84-.527 1.818-.247 2.602-1.271 2.602-2.941 0-1.432-.535-2.682-1.868-3.266-.819-.358-2.458.797-2.288.793.105-3.497-4.037-3.853-5.771-3.955-.969-.056-8.535-.06-8.305 6.099-.82-.099-1.325-.367-2.041.283-.59.537-.932 1.292-1.053 2.093-.244 1.63.425 3.427 2.152 3.684.797.118 1.117-.13 1.791-.456.717.654 1.658 1.908 2.727 1.46.033.514-.003.753-.148 1.205-.133.413-.135.788.001 1.207.274.852.7 1.259 1.525 1.527.804.26 1.624-.019 2.407.274.752.28 1.601.27 2.381-.012.531-.19.907-.469 1.354-.855.119-.103.134-.221.274-.305.099-.059.347-.062.474-.117.223-.095.48-.258.635-.46.409-.546.54-2.984.047-3.47"/><path fill="#3F3832" d="M1203.895 34.31c-.431 0-.847-.074-1.237-.219-.334-.125-.687-.135-1.08-.135h-.141c-.396 0-.787-.011-1.178-.137-.913-.296-1.384-.768-1.678-1.679a2.107 2.107 0 0 1 0-1.352c.104-.321.148-.52.148-.821a1.554 1.554 0 0 1-.236.019c-.802 0-1.492-.692-2.048-1.249-.089-.09-.177-.177-.261-.258l-.123.063c-.519.261-.896.456-1.658.343a2.586 2.586 0 0 1-1.734-1.036c-.55-.743-.781-1.833-.619-2.917.139-.914.527-1.686 1.127-2.232.369-.335.724-.484 1.15-.484.215 0 .428.037.653.075l.155.026c0-1.526.482-2.799 1.432-3.786 2.043-2.12 5.656-2.285 6.715-2.285.185 0 .326.005.414.01 1.441.085 5.701.335 5.982 3.702.436-.276 1.127-.61 1.695-.61.173 0 .328.031.464.089 1.295.568 2.009 1.804 2.009 3.482 0 1.854-.944 2.924-2.807 3.175-.463.063-.463.063-.668.413-.208.357-.388.654-.646.944-.153.172-.479.404-.822.649-.234.168-.566.405-.711.541.465.81.264 3.075-.148 3.621-.225.299-.586.474-.729.535a1.197 1.197 0 0 1-.286.07.989.989 0 0 0-.163.035.297.297 0 0 0-.081.094.936.936 0 0 1-.156.184c-.471.407-.873.699-1.428.9-.425.152-.865.23-1.306.23zm-2.318-.828c.439 0 .838.014 1.244.167.339.125.699.189 1.072.189h.001c.388 0 .772-.069 1.146-.202.488-.177.839-.431 1.278-.813a.368.368 0 0 0 .073-.091c.047-.068.111-.162.234-.236a.95.95 0 0 1 .325-.094c.063-.011.144-.024.177-.039.229-.097.43-.24.539-.385.341-.452.465-2.773.072-3.16l-.074-.073.004-.104c.01-.227.256-.422.959-.924.294-.208.627-.445.744-.579.229-.255.396-.533.592-.868.303-.518.398-.558 1.013-.642 1.635-.223 2.396-1.083 2.396-2.707 0-1.045-.3-2.423-1.726-3.049a.673.673 0 0 0-.273-.049c-.616 0-1.451.514-1.686.699l-.385.163-.084-.349c.013-3.279-4.17-3.525-5.551-3.606a6.617 6.617 0 0 0-.387-.01c-1.012 0-4.461.155-6.375 2.141-.914.95-1.35 2.203-1.293 3.722l.01.276-.274-.034c-.161-.017-.309-.044-.45-.068-.213-.036-.398-.069-.572-.069-.225 0-.482.044-.831.361-.519.472-.856 1.148-.978 1.953-.145.962.055 1.921.531 2.565.352.477.83.762 1.422.85.6.088.887-.051 1.377-.297.086-.044.178-.09.277-.138l.143-.069.119.107c.125.115.256.245.393.383.627.628 1.369 1.333 2.082 1.033l.307-.128.021.332c.037.563-.01.829-.16 1.292-.117.368-.117.697.001 1.062.247.766.606 1.126 1.374 1.376.324.104.658.112 1.031.112h.142z"/></svg>