<svg xmlns="http://www.w3.org/2000/svg" width="650.967" height="628.189" viewBox="0 0 650.967 628.189"><path fill="#5BA1BF" d="M22.041 438.532c6.084 4.115 3.275 26.519 4.102 34.597 1.229 12.017 1.717 24.252 3.52 36.356 1.613 10.816 1.791 22.339 2.932 33.423 1.119 10.834 4.295 21.116 6.334 31.666 1.756 9.07 3.207 23.263.072 32.07.648-1.696 1.252-3.284 1.803-4.924-.598 1.269-1.07 3.046-1.697 4.394 10.188-2.45 22.811-2.271 33.357-3.266 10.521-.989 20.492-3.364 31.051-4.821 25.408-3.508 49.252-16.889 75.088-18.172 9.389-.471 24.186 3.401 32.164-1.282-3.025-11.742-4.459-24.9-4.607-37.438-.061-5.533-.443-11.331-.012-16.845.451-5.723 3.1-13.188 1.775-18.909-1.482-6.378-10.189-7.388-15.117-11.29-4.588-3.63-5.379-8.115-10.668-11.418-10.09-6.294-20.387-12.06-30.545-18.294-11.273-6.916-21.307-15.009-32.77-21.606-9.943-5.725-19.152-17.926-30.508-12.005-8.752 4.557-14.404 7.776-25.227 7.765-5.203-.005-11.244.847-16.287-.13-5.348-1.033-7.369-2.837-13.037-2.184-2.602.301-10.857 1.015-9.963 1.729M108.236 320.089c3.121 7.511-10.867 26.686-14.104 34.01-3.959 8.954-8.406 17.618-11.43 26.974-1.926 5.949-9.887 17.139-10.527 22.6-.982 8.422 22.893 13.441 32.279 18.767 51.471 29.195 96.41 67.912 144.258 102.618 28.475 20.66 57.059 39.398 85.945 58.956 18.578 12.575 31.102 9.902 50.281-.062 8.732-4.537 17.008-10.492 25.893-14.98 11.682-5.899 13.928-6.008 17.499-17.857 5.312-17.623 11.633-32.823 20.295-49.188 3.312-6.256 5.734-12.957 11.059-17.599-7.682-9.998-15.826-11.738-11.588-26.258.465-.394.504-.361.111.085-17.543 4.46-26.949-11.756-38.317-19.672-10.48-7.303-24.873-8.539-36.434-16.661 2.754-2.852 3.51-6.565 4.33-10.076-7.996 1.304-17.102 1.15-24.682-2.734-7.729-3.956-12.598-15.246-18.818-18.325-3.791-1.872-6.549 2.198-9.096.997-3.926-1.858-6.137-5.02-9.379-8.267-7.521-7.527-6.791 4.609-9.553-5.683-13.426 1.693-18.141-15.481-29.238-24.542-5.779-4.718-12.178-15.414-18.939-6.25-5.742-4.064-19.658-10.964-24.502-16.294 1.623-1.461 2.133-7.747 3.541-9.119-16.488-6.165-33.85-2.624-43.305-22.172-.197 2.287-2.062 4.243-2.549 6.538-14.918-5.222-22.771-14.93-37.293-4.629-3.768 2.668-2.031 4.569-7.035 7.096-1.855.936-8.221 1.602-10.561 2.085-6.43 1.33-19.463 1.452-22.279 6.123"/><path fill="#363636" d="M366.275 581.122l2.119-.853c1.332-.576 3.328-1.242 5.529-2.334 2.229-1.032 4.844-2.229 7.619-3.642 2.773-1.411 5.734-2.908 8.688-4.407 2.957-1.518 5.918-3.036 8.689-4.46 2.787-1.396 5.334-2.817 7.613-3.821 4.535-2.082 7.758-3.063 7.758-3.063s-2.684 2.047-7.022 4.514c-2.16 1.272-4.748 2.563-7.488 4.051-2.746 1.46-5.68 3.024-8.611 4.587-2.953 1.583-5.912 3.034-8.719 4.431a127.65 127.65 0 0 1-7.775 3.628c-2.295 1.069-4.266 1.671-5.623 2.217-1.357.512-2.133.808-2.133.808l-.644-1.656zM46.611 596.818s.439-.185 1.258-.537a31.165 31.165 0 0 1 3.852-1.135c3.316-.821 8.119-1.351 13.809-1.7 2.877-.201 5.854-.403 9.107-.918 3.234-.444 6.652-.92 10.186-1.41 7.068-.939 14.613-1.948 22.152-2.951 30.16-4.037 60.391-7.587 60.391-7.587 0-.003-30.057 4.804-60.184 9.124-7.531 1.095-15.057 2.199-22.119 3.226-3.52.517-6.936 1.02-10.17 1.493-3.203.534-6.402.781-9.215 1.002-5.686.438-10.369.881-13.551 1.565-1.604.322-2.789.709-3.576.966-.828.33-1.27.502-1.27.502l-.67-1.64zM167.068 503.151c2.633-.567 5.277-.978 7.924-1.473l7.951-1.219c5.301-.8 10.623-1.429 15.949-2.034l1.242-.145.064 1.247c.562 10.461 1.121 20.915 1.494 31.383.406 10.466.768 20.935.877 31.414-1.07-10.426-1.891-20.864-2.672-31.313-.807-10.44-1.432-20.893-2.055-31.349l1.307 1.107c-5.324.579-10.656 1.13-16.008 1.515l-8.023.557c-2.682.098-5.354.281-8.05.31zM86.584 460.541s-.141.414-.42 1.108c-.133.348-.451.714-.75 1.179-.309.48-.773.855-1.252 1.34a15.313 15.313 0 0 1-3.859 2.361c-1.496.713-3.199 1.153-4.898 1.573-1.725.302-3.451.57-5.088.583-1.633.067-3.166-.073-4.461-.259a16.446 16.446 0 0 1-3.053-.843c-.695-.33-1.066-.535-1.066-.535s.436.064 1.16.205c.732.107 1.787.141 3.037.155 1.262-.047 2.717-.099 4.277-.288.779-.061 1.572-.205 2.387-.318.816-.09 1.627-.3 2.445-.444.803-.197 1.623-.335 2.404-.582.783-.224 1.561-.423 2.281-.698a21.576 21.576 0 0 0 3.836-1.731c.475-.363 1.027-.628 1.361-.961.352-.342.73-.592.941-.902.446-.604.718-.943.718-.943zM79.486 425.035s-.141.408-.428 1.106c-.123.35-.445.714-.746 1.18-.307.482-.771.854-1.248 1.336a15.412 15.412 0 0 1-3.861 2.365c-1.5.714-3.205 1.15-4.902 1.57-1.719.308-3.449.573-5.086.583-1.639.067-3.168-.071-4.465-.26a15.975 15.975 0 0 1-3.049-.839c-.699-.33-1.068-.535-1.068-.535s.439.062 1.158.203c.736.111 1.787.139 3.039.153 1.26-.048 2.713-.098 4.275-.285.781-.062 1.576-.207 2.385-.321.818-.09 1.629-.298 2.445-.442.803-.195 1.627-.333 2.406-.58.785-.224 1.561-.425 2.281-.702a21.14 21.14 0 0 0 3.834-1.73c.473-.363 1.023-.626 1.367-.962.348-.342.725-.588.941-.904.451-.599.722-.936.722-.936z"/><path fill="#363636" d="M194.287 506.675s-.053 2.615.01 6.498c.064 3.861.27 9.094.301 14.313-.076 2.615-.008 5.23-.264 7.675-.107 1.225-.164 2.409-.295 3.518-.18 1.115-.35 2.163-.51 3.13-.148.971-.281 1.856-.539 2.612-.225.763-.416 1.428-.568 1.983-.314 1.095-.496 1.717-.496 1.717s.143-.634.398-1.749c.121-.549.275-1.22.451-1.996.215-.762.299-1.649.389-2.62.104-.965.217-2.013.332-3.121.062-1.112.055-2.292.09-3.503.117-2.422-.104-5.023-.166-7.61-.326-5.185-.826-10.346-1.117-14.286-.289-3.917-.377-6.511-.377-6.511l2.361-.05z"/><path fill="#5493A5" d="M19.914 435.294c.18 12.402 1.627 25.232 15.932 34.325 16.281 10.341 39.084 20.571 58.076 22.478 34.887 3.5 66.422 8.828 100.676.007-30.422-13.334-51.779-39.497-77.996-58.779-10.281-7.564-19.848-8.56-29.957-7.646-9.523-6.563-20.947-7.43-29.643-6.563-3.557.358-15.389 3.554-20.129 12.981-13.072 2.56-24.263 7.201-15.381 15.822"/><path fill="#CACACA" d="M140.537 495.799l-94.582-43.148 54.205-26.597s97.117 67.246 94.438 66.048c-2.672-1.203-54.061 3.697-54.061 3.697z" opacity=".2"/><path fill="#5493A5" d="M93.691 488.945c4.359-7.653 14.031-11.783 14.053-22.248-4.846-3.812-10.242-6.644-16.424-6.156M87.771 447.521c11.914 2.309 12.605-22.116.178-18.757-.756 6.716 3.705 10.566-.178 16.391"/><path fill="#DBDBDB" d="M194.285 489.678l-53.881 6.121 67.908 33.379v-29.612zM208.312 499.566v29.612L349.58 598.57z" opacity=".2"/><path fill="#5493A5" d="M465.715 479.478l-18.738-13.611 7.693-13.612-20.713-18.934-24.856-7.696-8.791 11.9-25.977-16.661 3.402-11.215s-2.691-10.946-17.75-21.305c-9.471-6.507-26.041-4.733-26.041-4.733l-6.387 7.256-24.695-15.839 5.049-9.958s-6.273-14.436-17.756-20.516c-10.061-5.323-24.064-5.525-24.064-5.525l-7.09 7.865-24.484-15.706 6.324-8.729s-8.596-11.219-18.74-19.333c-8.875-7.1-23.869-5.917-23.869-5.917l-7.861 9.103-39.479 3.525s51.287 47.341 63.906 48.13c12.633.788 78.119 38.66 83.643 43.395 5.523 4.736 81.27 54.444 93.107 59.179 11.83 4.734 48.918 32.35 55.231 29.982 6.311-2.367 18.936-11.045 18.936-11.045z"/><path fill="#5493A5" d="M184.031 347.713c4.129-1.244 13.471-1.54 15.604-6.513 2.545-5.915-4.176-8.361-9.15-8.343-1.178 4.387-2.754 8.557-4.875 12.489M255.045 392.687c4.092-.288 16.039-4.998 11.678-11.678-4.645-7.103-8.438 4.96-10.098 6.943M330.006 439.238c4.033-2.383 14.332-2.272 16.76-7.064 3.303-6.523-6.727-8.067-11.906-7.809-.17 4.372-3.008 8.529-4.854 11.717M404.963 489.737c5.895 1.127 19.311-4.757 15.186-13.61-5.945-12.745-10.606 5.11-14.399 7.299M439.678 477.901c13.402 8.555 4.826-18.104 1.58-3.159M365.512 432.135c2.645 1.729 14.998 1.971 11.678-6.135-3.588-8.754-8.668.688-10.891 3.769M301.602 376.116c3.844 2.048 6.643 7.789 6.996 11.699-4.414.239-8.977.415-13.189-.771-.197-3.223 2.043-6.359 3.828-8.561"/><path fill="#CACACA" d="M230.584 343.764c2.186-.704 5.824.124 8.68 1.661 6.365-4.499-3.803-15.316-8.68-5.604"/><path fill="none" d="M381.289 510.25L194.287 377.693"/><path fill="#666" d="M380.605 511.218L194.287 377.693l187.688 131.591z"/><path fill="#5493A5" d="M423.897 503.151c5.729 14.778 4.959 30.845 2.514 45.946 10.213-.945 13.256-22.9 18.498-30.597 6.826-10.032 16.432-19.962 15.5-32.952-12.502 2.848-26.42 10.898-38.883 15.235"/><path fill="#3F3F3F" d="M402.041 510.067c-1.896 1.392-3.111 3.15-4.172 4.996l-3.039 5.615-6.066 11.234-12.117 22.478-11.928 22.58c-3.904 7.564-7.865 15.108-11.691 22.719l-1.178 2.349-2.236-1.532L66.746 407.264l-1.697-1.16.91-1.845 43.41-88.221 1.541-3.133 1.902 2.208c2.441 2.833 5.453 4.832 8.477 6.804l9.021 5.975 18.055 11.958 36.104 23.91 72.207 47.82 72.215 47.821 75.027 49.288-1.877 1.378zm-4.566.047l-70.672-47.582-72.021-48.098-72.023-48.099-36.016-24.051-18.004-12.024-9-6.014c-2.992-2.022-5.99-4.029-9.555-5.184l3.443-.929-43.414 88.221-.795-3.005 282.867 193.243-3.418.821c4.346-7.326 8.555-14.725 12.816-22.097l12.58-22.23 12.385-22.332 6.186-11.171 3.084-5.588c.644-1.229 1.193-2.503 1.557-3.881z"/><path fill="#3F3F3F" d="M351.39 599.448l-.882-1.8 71.129-34.866 43.313-78.502-64.624 25.582-.738-1.863 69.811-27.636-46.313 83.941-.283.139z"/><path fill="#3F3F3F" d="M446.091 467.828l21.592 13.665-1.072 1.694-21.592-13.666zM373.33 421.733l26.021 16.457-1.071 1.694-26.02-16.458zM301.75 376.48l25.942 16.41-1.071 1.694-25.941-16.41zM235.418 334.517l22.592 14.29-1.072 1.694-22.59-14.29zM144.346 312.668l.206 1.994-32.957 3.406-.206-1.994zM210.482 501.796l4.199 77.02.117 2.124-2.098.342-173.634 28.707-2.562.426-.188-2.559a4404.638 4404.638 0 0 0-3.879-48.689l-2.016-24.339-1.01-12.169c-.371-4.051-.498-8.124-1.502-12.126l-.576-2.303 2.658-.255 20.883-2.006 20.869-2.109 41.715-4.456 41.676-4.746c6.947-.813 13.896-1.526 20.832-2.457 6.92-.978 13.826-2.12 20.66-3.832l.555 4.712c-7.049-.075-14.033.412-20.992 1.068-6.955.702-13.885 1.621-20.828 2.446l-41.639 5.054-41.611 5.349-20.787 2.792-20.773 2.896 2.086-2.56c-.303 4.109.268 8.146.598 12.206l1.09 12.16 2.186 24.326a4537.024 4537.024 0 0 0 4.525 48.632l-2.748-2.136 173.635-28.707-1.977 2.472-4.201-77.024 4.737-.259zM102.966 426.718l.24 1.99-14.423 1.741-.24-1.99z"/><path fill="#3F3F3F" d="M27.924 510.603l-1.67-18.255-1.85-18.234-2.004-18.213-1.006-9.108c-.34-3.038-.57-6.084-1.878-9.009l-1.003-2.253 3.077-.375 14.82-1.791.568 4.711-14.822 1.789 2.068-2.624c-.602 3.144-.133 6.162.232 9.199l1.092 9.092 2.199 18.201 2.35 18.172 2.535 18.153-4.708.545zM95.908 462.225l1.499 22.597-1.74.116-1.499-22.598zM43.169 465.737l1.667 22.135-1.738.13-1.667-22.134z"/><path fill="#3F3F3F" d="M65.543 473.712c-13.614 0-23.357-4-23.691-9.727-.365-6.267 11.186-11.865 26.296-12.746a67.266 67.266 0 0 1 3.899-.114c13.618 0 23.363 4 23.698 9.727.365 6.267-11.185 11.865-26.294 12.745a67.608 67.608 0 0 1-3.908.115zm6.503-20.544c-1.245 0-2.516.037-3.78.11-14.898.869-24.632 6.176-24.375 10.588.256 4.375 9.767 7.802 21.652 7.802a66.21 66.21 0 0 0 3.789-.111c14.897-.868 24.63-6.175 24.374-10.587-.257-4.374-9.77-7.802-21.66-7.802zM66.888 496.77c-13.226 0-23.328-4.013-23.664-9.725l2.039-.12c.26 4.413 10.542 8.559 25.439 7.69 6.8-.396 13.119-1.8 17.793-3.952 4.314-1.987 6.714-4.405 6.583-6.634l2.039-.12c.186 3.16-2.572 6.218-7.767 8.61-4.9 2.256-11.48 3.726-18.529 4.136-1.336.077-2.65.115-3.933.115zM131.41 455.256l1.66 22.133-1.738.13-1.66-22.132z"/><path fill="#3F3F3F" d="M153.138 463.198c-13.242-.135-22.716-4.133-23.041-9.721-.098-1.669.606-3.299 2.092-4.843l1.472 1.417c-1.075 1.116-1.588 2.229-1.525 3.307.248 4.254 9.481 7.679 21.022 7.796l-.02 2.044zM155.113 486.268c-5.585 0-10.79-.713-14.954-2.071-5.437-1.773-8.531-4.492-8.714-7.655l2.039-.118c.129 2.233 2.793 4.358 7.308 5.831 4.89 1.595 11.329 2.253 18.13 1.859 7.216-.416 14.044-2.021 18.733-4.406l.926 1.821c-4.932 2.507-12.054 4.193-19.541 4.624a68.581 68.581 0 0 1-3.927.115zM89.595 428.647l1.508 22.597-1.738.116-1.508-22.597zM36.88 432.152l1.662 22.128-1.737.13-1.662-22.127z"/><path fill="#3F3F3F" d="M59.226 440.103c-13.391 0-23.35-4.09-23.679-9.725-.365-6.27 11.186-11.871 26.296-12.75a67.746 67.746 0 0 1 3.912-.115c13.618 0 23.362 4.001 23.697 9.729.361 6.273-11.194 11.871-26.304 12.745a67.206 67.206 0 0 1-3.922.116zm6.528-20.548a66.26 66.26 0 0 0-3.792.111c-14.899.868-24.632 6.178-24.376 10.593.256 4.374 9.761 7.801 21.64 7.801 1.251 0 2.531-.038 3.802-.112 14.9-.862 24.637-6.171 24.384-10.588-.256-4.376-9.769-7.805-21.658-7.805zM43.866 460.449c-4.384-1.777-6.784-4.203-6.941-7.016l2.04-.113c.108 1.938 2.121 3.798 5.668 5.236l-.767 1.893zM337.882 419.684c-5.721 0-14.822-3.077-23.753-8.029-12.126-6.728-23.409-16.774-20.434-22.14.893-1.607 2.859-2.421 5.845-2.421 5.722 0 14.823 3.078 23.751 8.032 12.127 6.728 23.41 16.772 20.434 22.137-.892 1.606-2.858 2.421-5.843 2.421zm-38.342-30.601c-2.147 0-3.605.496-4.106 1.397-1.709 3.084 5.944 11.825 19.66 19.435 8.653 4.798 17.385 7.779 22.788 7.779 2.146 0 3.604-.496 4.104-1.396 1.71-3.083-5.943-11.822-19.66-19.432-8.651-4.801-17.382-7.783-22.786-7.783z"/><path fill="#3F3F3F" d="M327.413 440.699c-5.69 0-14.678-2.981-23.771-8.028-6.534-3.623-12.255-7.818-16.108-11.814-4.175-4.329-5.67-7.899-4.325-10.323l10.482-20.964 1.779.89-10.502 21.002c-.86 1.552.642 4.534 3.998 8.015 3.72 3.858 9.275 7.926 15.642 11.456 10.303 5.718 20.677 8.798 25.231 7.496.825-.236 1.383-.61 1.66-1.109l10.482-20.968 1.779.89-10.502 21.004c-.561 1.016-1.521 1.708-2.872 2.095-.843.24-1.843.358-2.973.358z"/><g><path fill="#3F3F3F" d="M447.171 457.548c-5.592 0-14.362-2.938-22.89-7.666-11.758-6.521-22.651-16.343-19.681-21.702.908-1.636 2.906-2.465 5.938-2.465 5.594 0 14.367 2.938 22.896 7.667 6.332 3.512 11.863 7.604 15.576 11.522 4.021 4.245 5.438 7.764 4.101 10.176-.907 1.638-2.905 2.468-5.94 2.468zm-36.632-29.874c-2.204 0-3.704.517-4.226 1.456-1.714 3.092 5.634 11.673 18.918 19.04 8.254 4.577 16.661 7.42 21.94 7.42 2.205 0 3.706-.518 4.227-1.458.846-1.524-.579-4.47-3.81-7.88-3.578-3.777-8.942-7.739-15.104-11.157-8.255-4.577-16.664-7.421-21.945-7.421z"/><path fill="#3F3F3F" d="M404.51 428.244l1.75.877-7.105 14.186-1.751-.876zM436.529 478.588c-5.624 0-13.96-2.894-21.315-6.841l.926-1.726c12.501 6.708 23.028 8.098 24.659 5.15l10.515-20.955 1.75.878-10.533 20.99c-.969 1.751-3.133 2.504-6.002 2.504z"/></g><g><path fill="#3F3F3F" d="M373.544 411.453c-5.56 0-13.828-2.747-22.118-7.349-11.424-6.337-21.969-15.96-19.009-21.311.634-1.143 2.193-2.504 6.019-2.504 5.558 0 13.828 2.747 22.122 7.347 6.158 3.415 11.525 7.416 15.112 11.265 3.883 4.167 5.231 7.641 3.896 10.045-.633 1.143-2.192 2.507-6.022 2.507zm-35.108-29.234c-2.252 0-3.79.536-4.331 1.51-1.713 3.097 5.363 11.535 18.257 18.688 7.897 4.383 16.013 7.106 21.182 7.106 2.254 0 3.793-.537 4.334-1.513.851-1.534-.502-4.447-3.621-7.793-3.452-3.705-8.65-7.573-14.636-10.893-7.9-4.383-16.018-7.105-21.185-7.105z"/><path fill="#3F3F3F" d="M332.441 382.826l1.723.867-7.353 14.617-1.723-.867zM363.035 432.446c-1.338 0-2.867-.166-4.577-.498-5.168-1.003-11.404-3.436-17.559-6.851l.937-1.688c5.982 3.318 12.016 5.678 16.99 6.644 4.492.872 7.682.479 8.531-1.056l10.537-20.944 1.725.867-10.555 20.979c-.938 1.694-2.99 2.547-6.029 2.547z"/></g><g><path fill="#3F3F3F" d="M302.134 367.448c-5.421 0-13.364-2.612-21.249-6.987-5.961-3.304-11.143-7.202-14.589-10.976-3.728-4.082-4.996-7.505-3.667-9.898.644-1.167 2.23-2.56 6.124-2.56 5.417 0 13.362 2.611 21.253 6.983 14.815 8.22 20.462 16.893 18.255 20.88-.647 1.168-2.236 2.558-6.127 2.558zm-33.381-28.522c-2.315 0-3.901.561-4.464 1.581-.857 1.545.417 4.423 3.408 7.699 3.311 3.626 8.321 7.389 14.108 10.596 7.502 4.163 15.291 6.749 20.328 6.749 2.315 0 3.902-.561 4.468-1.58 1.719-3.104-5.052-11.384-17.516-18.299-7.507-4.162-15.298-6.746-20.332-6.746z"/><path fill="#3F3F3F" d="M262.622 339.626l1.694.856-7.128 14.118-1.694-.856zM291.591 388.402c-5.335 0-13.357-2.579-21.292-6.983a72.415 72.415 0 0 1-6.407-3.989l1.087-1.556a70.572 70.572 0 0 0 6.24 3.885c9.104 5.054 18.527 7.706 22.919 6.446.926-.266 1.557-.693 1.877-1.271l10.569-20.93 1.694.855-10.586 20.962c-.59 1.066-1.604 1.798-3.032 2.208-.876.251-1.909.373-3.069.373z"/></g><g><path fill="#3F3F3F" d="M235.456 324.86c-5.362 0-13.373-2.668-21.43-7.137-11.052-6.128-21.267-15.408-18.426-20.538.605-1.091 2.093-2.389 5.746-2.389 5.364 0 13.376 2.668 21.433 7.138 11.051 6.129 21.264 15.409 18.422 20.537-.605 1.09-2.093 2.389-5.745 2.389zm-34.11-28.207c-2.145 0-3.608.509-4.122 1.433-1.642 2.966 5.224 11.094 17.703 18.012 7.677 4.259 15.543 6.904 20.529 6.904 2.145 0 3.608-.509 4.121-1.433 1.643-2.965-5.222-11.091-17.699-18.011-7.678-4.259-15.545-6.905-20.532-6.905z"/><path fill="#3F3F3F" d="M195.627 297.232l1.66.834-6.306 12.554-1.66-.834zM225.387 344.978c-5.603 0-14.014-3.038-21.421-7.147-3.555-1.973-6.803-4.116-9.655-6.371l1.152-1.457c2.773 2.192 5.937 4.28 9.404 6.204 12.472 6.919 23.003 8.438 24.651 5.47l10.078-20.066 1.66.834-10.096 20.101c-.945 1.698-3.021 2.432-5.773 2.432z"/></g><g><path fill="#3F3F3F" d="M262.276 373.604c-5.593 0-13.941-2.776-22.33-7.427-11.517-6.391-22.156-16.07-19.19-21.421.632-1.139 2.186-2.496 6.001-2.496 5.592 0 13.939 2.779 22.329 7.433 10.195 5.652 18.004 12.805 19.432 17.798.398 1.393.316 2.611-.245 3.62-.628 1.136-2.181 2.493-5.997 2.493zm-35.518-29.406c-2.242 0-3.771.532-4.307 1.498-1.715 3.095 5.434 11.572 18.436 18.787 7.993 4.431 16.189 7.184 21.39 7.184 2.241 0 3.77-.531 4.304-1.496.303-.544.328-1.266.076-2.147-1.275-4.46-8.887-11.301-18.509-16.636-7.995-4.435-16.191-7.19-21.39-7.19z"/><path fill="#3F3F3F" d="M251.698 394.625c-5.841 0-14.606-3.164-22.326-7.444-11.514-6.387-22.151-16.064-19.185-21.418l10.525-20.943 1.731.87-10.543 20.978c-1.734 3.132 5.412 11.608 18.411 18.819 13.005 7.21 23.981 8.787 25.7 5.691l10.524-20.947 1.731.87-10.543 20.982c-.983 1.776-3.151 2.542-6.025 2.542z"/></g><g><path fill="#3F3F3F" d="M192.903 327.413c-5.591 0-13.938-2.777-22.328-7.43-15.432-8.558-21.405-17.422-19.19-21.417.632-1.14 2.188-2.498 6.005-2.498 5.59 0 13.936 2.778 22.326 7.431 11.517 6.387 22.156 16.063 19.19 21.417-.632 1.14-2.186 2.497-6.003 2.497zm-35.513-29.408c-2.243 0-3.774.533-4.311 1.5-1.716 3.096 5.433 11.572 18.435 18.783 7.994 4.433 16.189 7.187 21.388 7.187 2.242 0 3.772-.532 4.309-1.499 1.715-3.097-5.434-11.573-18.435-18.784-7.994-4.432-16.189-7.187-21.386-7.187z"/><path fill="#3F3F3F" d="M182.404 348.409c-1.358 0-2.914-.17-4.656-.513-5.2-1.022-11.482-3.479-17.688-6.92-6.207-3.445-11.618-7.473-15.237-11.341-3.919-4.189-5.284-7.675-3.947-10.082l10.522-20.944 1.731.87-10.541 20.979c-.869 1.566.502 4.488 3.649 7.853 3.484 3.725 8.727 7.621 14.762 10.97 6.034 3.345 12.115 5.729 17.122 6.713 4.521.888 7.727.505 8.574-1.024l10.527-20.949 1.731.87-10.545 20.983c-.932 1.686-2.975 2.535-6.004 2.535z"/></g><g><path fill="#3F3F3F" d="M413.469 468.085c-5.593 0-14.365-2.938-22.892-7.669-6.335-3.512-11.868-7.604-15.58-11.522-4.02-4.244-5.436-7.764-4.096-10.178.906-1.635 2.902-2.464 5.933-2.464 5.592 0 14.364 2.937 22.894 7.665 6.334 3.513 11.868 7.606 15.581 11.525 4.021 4.245 5.438 7.764 4.101 10.178-.91 1.635-2.908 2.465-5.941 2.465zm-36.634-29.875c-2.202 0-3.701.517-4.221 1.455-.847 1.526.575 4.472 3.805 7.882 3.578 3.777 8.943 7.739 15.108 11.156 8.253 4.579 16.661 7.423 21.942 7.423 2.204 0 3.706-.518 4.228-1.458.846-1.524-.578-4.47-3.81-7.881-3.579-3.778-8.944-7.741-15.108-11.16-8.256-4.574-16.665-7.417-21.944-7.417z"/><path fill="#3F3F3F" d="M402.972 489.088c-1.412 0-3.039-.185-4.87-.557-5.293-1.073-11.696-3.599-18.028-7.112-6.333-3.51-11.866-7.603-15.578-11.523-4.019-4.244-5.435-7.763-4.096-10.177l10.512-20.953 1.75.878-10.531 20.989c-.864 1.561.558 4.507 3.787 7.917 3.578 3.779 8.942 7.741 15.105 11.157 6.162 3.418 12.365 5.871 17.467 6.905 4.605.934 7.859.581 8.704-.945l10.513-20.951 1.75.878-10.532 20.986c-.922 1.669-2.947 2.508-5.953 2.508z"/></g><g><path fill="#383838" d="M108.811 338.474l-.379 3.271c-.125 1.036-.248 2.301-.645 3.72-.369 1.413-.639 3.078-1.252 4.776-.611 1.689-1.162 3.58-1.963 5.482-.826 1.89-1.557 3.964-2.611 5.947-1.953 4.064-4.246 8.28-6.594 12.453-1.197 2.061-2.4 4.12-3.58 6.148-1.123 2.066-2.227 4.104-3.295 6.073-.998 1.994-1.959 3.919-2.871 5.753-.936 1.816-1.713 3.597-2.467 5.217l-5.02 10.846s.396-1.131 1.098-3.1c.73-1.96 1.709-4.79 3.078-8.113.678-1.666 1.373-3.479 2.23-5.359.848-1.883 1.682-3.911 2.697-5.915 1.039-1.982 2.111-4.04 3.205-6.126 1.152-2.057 2.328-4.145 3.504-6.237 2.41-4.124 4.746-8.274 6.742-12.263 1.051-1.973 1.887-3.956 2.793-5.787.879-1.843 1.502-3.675 2.191-5.317.658-1.657 1.045-3.234 1.525-4.604.498-1.361.725-2.621.928-3.645l.686-3.22z"/></g><g><path fill="#383838" d="M80.193 403.359s.285.33.791.902c.258.27.545.685.926 1l1.258 1.135c.994.813 2.199 1.749 3.514 2.73a52.607 52.607 0 0 0 4.229 2.828c2.992 1.794 6.057 3.541 8.17 5.117.52.408.994.784 1.41 1.118.43.32.732.683 1.018.931.553.533.865.84.865.84s-.332-.283-.912-.785c-.299-.239-.621-.577-1.066-.872-.436-.303-.922-.648-1.461-1.02-2.188-1.443-5.312-2.994-8.424-4.615a54.804 54.804 0 0 1-4.482-2.63 103.51 103.51 0 0 1-3.723-2.56c-.537-.437-1.033-.836-1.465-1.188-.459-.347-.723-.701-1.008-.972a94.512 94.512 0 0 1-.846-.858l1.206-1.101z"/></g><g><path fill="#363636" d="M85.586 400.587s1.201-2.412 3.127-5.963c.98-1.765 2.084-3.851 3.344-6.039 1.264-2.185 2.607-4.518 3.943-6.856 1.389-2.306 2.773-4.616 4.066-6.782 1.295-2.166 2.582-4.149 3.646-5.866 2.166-3.425 3.697-5.662 3.697-5.662s-1.189 2.41-3.102 5.962c-.98 1.77-2.072 3.858-3.332 6.05a6700.72 6700.72 0 0 0-3.934 6.871c-1.391 2.309-2.781 4.617-4.086 6.778-1.303 2.168-2.598 4.148-3.664 5.866-2.174 3.408-3.705 5.641-3.705 5.641z"/></g><g><path fill="#3F3832" d="M441.771 511.61l-.234-1.488c-38.421 4.857-61.727-.482-92.736-46.658-18.84-28.087-24.201-59.17-28.435-91.208-1.532-11.584-5.589-23.596-9.513-35.213-4.776-14.14-9.714-28.761-10.542-43.439-2.453-43.882 24.027-79.21 70.834-94.504 27.347-8.935 57.955-9.741 86.189-2.269 30.664 8.115 55.013 24.944 70.412 48.668 28.844 44.434 14.421 74.459.473 103.496-5.031 10.474-10.233 21.304-13.456 32.777-.793 2.821-1.65 5.971-2.58 9.382-10.877 39.936-31.125 114.27-70.412 120.456zm-23.76-317.851c-15.773 0-31.489 2.422-46.244 7.243-45.892 14.995-71.858 49.571-69.458 92.491.812 14.407 5.706 28.897 10.439 42.911 3.954 11.707 8.043 23.812 9.601 35.59 4.202 31.793 9.514 62.627 28.113 90.355 15.833 23.577 29.728 36.77 45.053 42.775 15.451 6.054 32.496 5.152 54.97 1.716 32.22-15.061 49.897-79.963 59.771-116.212.931-3.416 1.79-6.571 2.584-9.397 3.271-11.64 8.511-22.551 13.579-33.102 14.34-29.853 27.884-58.05-.348-101.542-15.125-23.3-39.069-39.837-69.246-47.824-12.63-3.34-25.742-5.004-38.814-5.004z"/><path fill="#3F3832" d="M416.361 510.812c-2.212 0-4.097-.284-5.119-1.101-.53-.423-.824-.966-.871-1.613l.106-.008c1.419-3.876.661-10.768.049-16.324-.246-2.233-.478-4.343-.555-6.063-.368-7.765-.418-15.571-.418-22.851l-.001-.935c-.017-6.882-.035-13.998 8.175-15.042 3.017-.38 18.205-1.974 20.911 3.959.857 1.893.95 5.502 1.023 8.403.028 1.084.055 2.107.117 2.866.225 2.414.293 4.807.359 7.122.039 1.375.079 2.759.149 4.171l.05.964c.413 8.004.841 16.282.362 24.357-.02.314-.037.708-.058 1.155-.146 3.3-.372 6.635-1.355 7.983-1.45 1.981-4.465 1.776-7.124 1.596-.952-.064-1.85-.125-2.621-.087-.664.032-1.919.221-3.371.44-2.906.44-6.682 1.008-9.808 1.008zm-4.921-2.442c.078.212.218.395.426.561 2.126 1.697 9.656.563 14.154-.113 1.54-.231 2.757-.415 3.472-.45.831-.039 1.757.022 2.738.089 2.516.169 5.123.348 6.248-1.188.888-1.216 1.067-5.263 1.164-7.438.021-.455.038-.855.059-1.172.475-8.018.049-16.267-.362-24.244l-.05-.964c-.072-1.42-.111-2.812-.151-4.194-.068-2.405-.134-4.676-.355-7.062-.065-.792-.092-1.83-.12-2.928-.072-2.81-.161-6.307-.935-8.014-1.874-4.107-11.877-4.388-19.875-3.381-7.333.932-7.317 7.303-7.301 14.047l.001.937c0 7.267.051 15.059.417 22.805.075 1.688.306 3.783.55 6 .652 5.918 1.388 12.611-.08 16.709z"/><path fill="#3F3832" d="M412.002 450.638c-.009-1.633.539-2.962 1.628-3.95 3.272-2.969 10.646-2.208 16.029-1.652 1.866.193 3.476.361 4.389.297.786-.054 1.247-.021 1.524.025.14-.243.39-.607.88-1.16.675-.766 1.192-2.04 1.648-3.164a55.4 55.4 0 0 1 .32-.777c1.437-3.357 2.418-7.026 3.226-10.201 1.906-7.577 5.168-14.873 8.323-21.928 3.001-6.71 6.104-13.648 7.984-20.741.143-.539.425-1.383.752-2.36.722-2.157 2.225-6.646 1.747-7.444-1.16-1.965-7.809-.964-9.993-.636l-.425.063c-1.545.208-3.228.697-4.855 1.171-1.781.518-3.464 1.007-5.017 1.174-1.924.205-4.211-.546-6.42-1.27-1.294-.424-2.631-.862-3.822-1.077l-1.475-.276a646.894 646.894 0 0 1-8.602-1.649c-2.678-.538-4.678-.094-6.794.377-1.246.277-2.534.563-3.998.654-2.721.172-5.384.155-7.958.139-5.718-.037-11.12-.072-16.76 1.869 1.284 2.74 2.139 5.807 2.967 8.779.389 1.395.791 2.838 1.225 4.192 1.69 5.228 4.235 9.838 6.929 14.719.943 1.709 1.919 3.477 2.849 5.264 3.245 6.252 6.134 11.906 8.634 17.798.502 1.179 1.123 2.494 1.779 3.887 2.155 4.571 4.598 9.751 4.689 13.796l-1 .022c-.087-3.833-2.481-8.911-4.595-13.392-.661-1.401-1.285-2.725-1.795-3.922-2.486-5.859-5.366-11.495-8.601-17.728-.924-1.776-1.897-3.538-2.837-5.242-2.718-4.924-5.285-9.576-7.005-14.896-.44-1.374-.845-2.826-1.236-4.23-.867-3.112-1.764-6.33-3.144-9.11l-.249-.5.525-.191c5.999-2.189 11.647-2.151 17.63-2.114 2.557.017 5.202.034 7.888-.137 1.386-.086 2.636-.364 3.844-.633 2.125-.472 4.323-.962 7.208-.381a635.81 635.81 0 0 0 8.589 1.646l1.471.276c1.256.226 2.627.676 3.953 1.11 2.108.692 4.293 1.406 6.003 1.226 1.464-.157 3.105-.635 4.843-1.14 1.663-.483 3.383-.983 4.996-1.201l.415-.062c4.421-.664 9.669-1.141 11.002 1.114.659 1.104-.316 4.26-1.659 8.272-.321.96-.6 1.79-.733 2.298-1.902 7.172-5.021 14.148-8.038 20.894-3.138 7.016-6.382 14.271-8.267 21.765-.817 3.213-1.812 6.926-3.275 10.35-.102.236-.205.492-.313.759-.486 1.198-1.038 2.556-1.826 3.45-.666.751-.806 1.067-.859 1.187-.183.413-.502.416-.738.344-.109-.033-.435-.134-1.487-.06-.994.063-2.567-.095-4.56-.3-4.903-.506-12.312-1.271-15.255 1.398-.882.8-1.308 1.848-1.3 3.205l-.998.004zM415.044 607.678c-5.292 0-10.459-.546-13.495-2.875-3.348-2.566-6.06-6.481-8.682-10.267-1.829-2.641-3.557-5.134-5.463-7.176-.502-.54-.973-1.031-1.417-1.494-2.224-2.318-3.831-3.993-5.083-7.281a32.44 32.44 0 0 1-.627-1.787c-.305-.939-.458-1.41-1.279-2.646-.198-.301-.495-.457-.962-.687-.874-.43-2.195-1.08-1.951-3.422.244-2.365 1.839-3.303 3.004-3.987 1.422-.836 2.072-1.217 1.008-3.717-.255-.6-.594-.748-1.106-.973-1.126-.494-2.123-1.144-1.946-3.633.161-2.354 1.242-3.767 3.218-4.21-.193-1.444-1.057-2.686-1.896-3.892-1.024-1.472-2.083-2.994-1.801-4.816.313-2.049 1.608-2.925 2.649-3.628 1.313-.888 2.262-1.529 1.644-4.586a59.643 59.643 0 0 0-.698-2.944c-.529-2.073-1.077-4.216-1.223-7.172-.045-.966-.096-2.034-.147-3.012-.162-3.079-.329-6.598-.329-9.598h2c0 1 .002.75.005 1.075.451-.11 1.021-.192 1.75-.357 1.308-.297 2.79-.61 3.724-.902a75.973 75.973 0 0 0 2.405-.804c2.133-.751 4.148-1.456 6.724-1.711 5.698-.565 11.502-.083 17.116.382 2.846.235 5.789.48 8.63.576 3.462.106 6.998.139 10.417.171 4.683.042 9.524.087 14.246.323 2.125.103 4.411.291 6.623.471 4.37.357 8.889.726 12.809.529l1.011-.051.038 1.012c.016.395.026.776.037 1.147.06 2.076.106 3.716.782 5.604.238.669.626 1.281 1.037 1.93.798 1.259 1.702 2.685 1.419 4.635l-.08.558-.52.219c-2.444 1.033-3.585 1.833-3.813 2.674-.229.847.343 2.151 1.802 4.104.242.319.744.654 1.276 1.008 1.376.917 3.457 2.302 2.338 5.089-.8 1.966-2.442 1.983-3.529 1.994-.988.01-1.393.06-1.719.544-.928 1.384-.374 2.105.967 3.603 1.233 1.376 2.768 3.089 1.816 5.698-.613 1.68-1.793 1.952-2.573 2.132-.725.167-.969.223-1.099 1.449-.058.564.307 1.045.905 1.781.503.62 1.074 1.321 1.315 2.238.843 3.359-.313 4.927-1.334 6.31-.713.966-1.328 1.801-1.363 3.331-.032 1.331.447 2.336.955 3.402.834 1.75 1.779 3.734.292 6.988-2.438 5.292-7.1 8.086-11.607 10.789-2.584 1.549-5.256 3.15-7.44 5.198-1.058.993-2.039 2.42-2.989 3.801-1.126 1.638-2.291 3.332-3.678 4.461-2.834 2.297-6.003 2.176-9.364 2.049-.763-.029-1.541-.059-2.332-.059-1.429.003-3.181.087-5.035.177-2.347.113-4.879.235-7.382.235zM380.506 517.1c.06 2.154.171 4.283.281 6.364.051.982.103 1.957.148 2.923.136 2.752.635 4.706 1.163 6.773.244.957.497 1.947.72 3.042.882 4.366-.984 5.627-2.484 6.641-.936.633-1.612 1.09-1.792 2.275-.16 1.033.593 2.116 1.466 3.37 1.129 1.623 2.408 3.462 2.287 5.945l-.044.891-.89.059c-1.596.104-2.203.756-2.322 2.489-.092 1.291.104 1.377.754 1.662.628.275 1.577.691 2.143 2.021 1.752 4.117-.321 5.335-1.835 6.225-1.17.688-1.895 1.175-2.028 2.469-.1.957.082 1.046.845 1.421.554.272 1.243.611 1.748 1.379.97 1.459 1.186 2.124 1.513 3.13.143.438.313.964.593 1.69 1.109 2.913 2.521 4.384 4.659 6.612.451.469.929.968 1.437 1.514 2.005 2.146 3.855 4.817 5.645 7.401 2.535 3.659 5.156 7.443 8.255 9.818 3.89 2.985 12.946 2.548 19.562 2.23 1.878-.091 3.651-.176 5.129-.179.818 0 1.622.03 2.41.06 3.103.119 5.78.219 8.026-1.603 1.163-.947 2.197-2.451 3.292-4.042 1.01-1.468 2.054-2.985 3.269-4.126 2.341-2.195 5.106-3.852 7.78-5.455 4.443-2.663 8.64-5.179 10.818-9.908 1.098-2.401.49-3.677-.28-5.293-.559-1.173-1.192-2.502-1.149-4.309.05-2.162.955-3.389 1.754-4.471.938-1.273 1.617-2.192 1.007-4.625-.129-.488-.519-.967-.931-1.474-.663-.815-1.488-1.831-1.343-3.25.258-2.442 1.444-2.916 2.638-3.19.64-.147.903-.208 1.145-.869.514-1.41-.207-2.316-1.427-3.678-1.254-1.4-2.971-3.317-1.139-6.051.945-1.406 2.341-1.42 3.359-1.43 1.134-.012 1.427-.082 1.695-.743.468-1.164-.065-1.659-1.593-2.675-.646-.431-1.314-.875-1.766-1.47-1.911-2.56-2.548-4.302-2.133-5.831.446-1.645 2.067-2.714 4.395-3.747-.031-.965-.54-1.769-1.16-2.746-.451-.712-.919-1.45-1.231-2.328-.781-2.186-.836-4.055-.897-6.219l-.004-.129c-3.789.105-7.985-.24-12.055-.572-2.296-.188-4.465-.365-6.559-.466-4.683-.234-9.503-.278-14.165-.321-3.431-.031-6.978-.063-10.463-.171-2.894-.097-5.862-.343-8.732-.58-5.524-.458-11.236-.93-16.753-.382-2.335.232-4.152.873-6.256 1.614a73.89 73.89 0 0 1-2.472.838c-1.012.317-2.535.663-3.879.969a73.07 73.07 0 0 0-2.154.508z"/><path fill="#3F3832" d="M406.084 544.099c-4.428 0-9.198-.668-13.83-1.317-3.871-.542-7.527-1.055-10.911-1.189l.079-1.998c3.484.138 7.188.657 11.11 1.207 5.174.725 10.525 1.474 15.258 1.261 2.888-.131 5.804-.254 8.725-.378 6.237-.265 12.688-.539 18.83-.882 8.971-.495 19.333-1.319 28.179-3.678l.516 1.933c-9.021 2.406-19.512 3.242-28.584 3.743-6.155.344-12.611.618-18.855.883-2.92.124-5.833.248-8.719.378-.592.024-1.193.037-1.798.037zM406.084 559.984c-4.418 0-9.178-.667-13.799-1.313-3.882-.544-7.548-1.057-10.941-1.188l.077-1.998c3.494.135 7.208.655 11.142 1.206 5.164.724 10.504 1.469 15.227 1.257 2.83-.127 5.687-.248 8.549-.368 6.296-.266 12.806-.541 19.005-.889 9.445-.53 19.396-1.343 28.181-3.68l.514 1.933c-8.958 2.384-19.031 3.208-28.582 3.745-6.213.35-12.73.625-19.033.89-2.86.121-5.715.241-8.542.368-.593.025-1.192.037-1.798.037zM406.075 575.873c-4.435 0-9.21-.671-13.847-1.322-3.862-.542-7.509-1.055-10.886-1.191l.081-1.998c3.476.14 7.171.659 11.083 1.208 5.184.729 10.545 1.483 15.284 1.265 3.203-.149 6.442-.287 9.685-.425 5.918-.252 12.038-.512 17.87-.84 9.457-.525 19.416-1.335 28.178-3.678l.518 1.932c-8.938 2.391-19.021 3.212-28.584 3.744-5.845.328-11.972.589-17.896.841-3.24.138-6.477.275-9.679.424-.595.027-1.197.04-1.807.04zM384.26 379.754c-6.704 0-18.734-14.615-26.069-23.527-1.364-1.657-2.542-3.088-3.427-4.104l.754-.656c.894 1.026 2.076 2.462 3.445 4.125 7.072 8.59 20.244 24.583 26.055 23.071l.251.968a4.066 4.066 0 0 1-1.009.123zM419.065 375.039l-.797-.604c3.694-4.88.844-13.983-1.672-22.015-1.245-3.977-2.422-7.733-2.668-10.599-.302-3.406-.222-7.194-.144-10.857.141-6.63.285-13.486-1.754-18.69l.931-.365c2.113 5.39 1.966 12.348 1.823 19.076-.077 3.636-.157 7.396.14 10.75.237 2.758 1.397 6.464 2.627 10.387 2.587 8.261 5.52 17.626 1.514 22.917zM453.528 376.713l-.898-.438c3.171-6.507 8.226-12.427 13.113-18.152 3.72-4.356 7.565-8.86 10.538-13.576 2.131-3.377 4.016-7.137 5.838-10.773 2.746-5.479 5.586-11.145 9.4-15.831l.775.631c-3.745 4.601-6.56 10.217-9.282 15.647-1.833 3.658-3.729 7.44-5.886 10.859-3.011 4.777-6.881 9.309-10.623 13.692-4.847 5.677-9.86 11.548-12.975 17.941zM274.235 280.647c-4.192.001-23.325-6.129-27.399-7.45-2.613-.845-5.494-1.623-8.543-2.446-7.525-2.032-16.054-4.335-21.869-8.222l.556-.831c5.679 3.795 14.124 6.075 21.574 8.087 3.062.827 5.954 1.608 8.591 2.461 10.537 3.416 25.862 7.909 27.265 7.436-.068.023-.199.147-.194.333l1-.028a.63.63 0 0 1-.258.526c-.125.091-.372.134-.723.134zM299.044 234.479c-.54-9.085-18.051-23.131-29.639-32.425-3.349-2.687-6.242-5.006-8.196-6.774-1.524-1.378-3.833-3.202-6.505-5.313-9.708-7.67-23.003-18.175-23.601-26.089l.997-.075c.565 7.477 14.201 18.25 23.224 25.379 2.687 2.123 5.007 3.956 6.557 5.356 1.932 1.748 4.814 4.059 8.15 6.735 11.726 9.405 29.445 23.618 30.011 33.146l-.998.06zM356.837 197.049c-1.521-3.369-3.667-6.778-5.938-10.387-2.291-3.639-4.66-7.402-6.399-11.211-5.37-11.764-9.501-24.204-13.496-36.234-3.758-11.315-7.643-23.017-12.552-34.127a1723.093 1723.093 0 0 1-5.741-13.198c-4.283-9.92-8.712-20.179-13.49-30.053-.449-.928-.993-2.201-1.569-3.549-1.127-2.637-3.474-8.124-4.379-8.225l-.587-.792a.95.95 0 0 1 .841-.175c1.34.343 2.868 3.707 5.045 8.799.572 1.336 1.111 2.599 1.55 3.506 4.786 9.894 9.22 20.162 13.507 30.092 1.901 4.404 3.803 8.807 5.738 13.19 4.928 11.154 8.821 22.878 12.585 34.216 3.987 12.005 8.109 24.418 13.457 36.134 1.71 3.748 4.062 7.482 6.335 11.094 2.291 3.639 4.455 7.076 6.003 10.509l-.91.411zM405.053 165.217l-1-.016c.124-7.754-.337-15.592-.782-23.172l-.096-1.635.998-.059.096 1.635c.446 7.599.908 15.456.784 23.247zM450.648 180.179l-.432-.902c2.208-1.054 2.392-1.53 2.938-2.941.282-.73.634-1.639 1.354-2.924 8.464-15.004 13.992-34.444 17.413-47.761 2.971-11.565 5.414-23.616 7.776-35.27 4.825-23.795 9.813-48.4 19.623-70.895l.071-.164.159-.081c.547-.281.88-.141 1.061.026.416.38.333 1.135-.295 2.692l-.827-.333c-9.276 21.925-14.122 45.822-18.812 68.954-2.365 11.666-4.812 23.729-7.788 35.32-3.436 13.372-8.988 32.896-17.51 48.002-.686 1.222-1.023 2.094-1.294 2.794-.62 1.606-.97 2.305-3.437 3.483zM489.966 182.605l-.959-.286c6.099-20.449 19.242-41.684 29.195-55.897l.818.573c-9.908 14.153-22.994 35.289-29.054 55.61zM519.591 223.34l-.662-.75c2.604-2.297 4.701-5.748 6.729-9.085.679-1.116 1.352-2.223 2.036-3.276 7.688-11.835 16.337-23.203 24.7-34.197 3.83-5.035 7.79-10.24 11.613-15.431 2.908-3.949 5.803-7.905 8.698-11.861 12.95-17.698 26.342-35.999 40.682-53.153 1.645-1.969 3.601-3.981 5.671-6.111 4.902-5.042 10.436-10.735 12.456-16.845-.588.08-1.127.319-1.637.725l-.623-.782c.882-.702 1.88-1.035 2.973-.964l.625.036-.173.602c-1.896 6.601-7.743 12.618-12.903 17.926-2.058 2.116-4 4.115-5.621 6.055-14.319 17.13-27.701 35.417-40.643 53.103-2.896 3.957-5.791 7.914-8.7 11.863-3.827 5.197-7.79 10.406-11.622 15.443-8.353 10.979-16.989 22.333-24.658 34.137-.679 1.045-1.346 2.143-2.02 3.251-2.066 3.399-4.204 6.916-6.921 9.314zM564.366 270.227l-.203-.979c7.391-1.525 15.313-8.412 21.1-13.441l.322-.28c12.451-10.791 24.647-20.664 34.936-28.898 1.603-1.283 3.405-3.31 5.313-5.457 3.272-3.681 6.657-7.488 9.768-8.394l.279.96c-2.834.825-6.121 4.522-9.3 8.098-1.938 2.179-3.768 4.237-5.436 5.572-10.281 8.229-22.468 18.095-34.905 28.874l-.321.28c-5.87 5.1-13.908 12.086-21.553 13.665zM567.066 329.326l-.303-.953c6.94-2.199 14.319-3.514 21.455-4.786 8.17-1.456 16.617-2.961 24.416-5.799l.342.939c-7.88 2.868-16.371 4.381-24.582 5.844-7.104 1.267-14.45 2.576-21.328 4.755z"/><g><path fill="#DDD86B" d="M427.307 503.031c41.992-6.617 62.24-93.704 72.186-129.125 12.281-43.715 51.922-75.692 13.117-135.459-57.381-88.374-231.778-62.791-225.604 47.501 1.502 26.721 16.648 52.944 20.045 78.583 4.238 32.094 9.564 62.892 28.279 90.773 32.346 48.173 55.301 51.938 101.198 44.894"/><path fill="#3F3832" d="M427.774 505.994l-.239-1.517c-42.594 5.229-64.709-2.844-94.695-47.501-19.093-28.444-24.5-59.774-28.763-92.053-1.508-11.386-5.353-22.769-9.422-34.82-4.82-14.272-9.803-29.03-10.644-43.987-2.51-44.839 24.476-80.917 72.187-96.512 27.709-9.057 58.725-9.876 87.332-2.307 31.158 8.244 55.916 25.366 71.597 49.515 29.461 45.377 14.787 75.914.596 105.445-4.997 10.399-10.165 21.151-13.342 32.459-.787 2.806-1.641 5.938-2.564 9.33-10.998 40.385-31.469 115.555-72.043 121.948zm-24.079-317.836c-15.566 0-31.074 2.391-45.633 7.149-20.943 6.845-38.28 18.195-50.137 32.822-13.128 16.196-19.158 35.592-17.924 57.651.795 14.144 5.646 28.51 10.338 42.404 3.982 11.792 8.1 23.986 9.686 35.953 4.166 31.546 9.426 62.128 27.796 89.495 32.234 48.007 54.632 50.259 97.826 43.666 31.157-14.869 48.623-78.998 58.38-114.827.929-3.408 1.785-6.555 2.577-9.376 3.318-11.812 8.602-22.805 13.71-33.435 14.094-29.328 27.405-57.03-.221-99.579-14.855-22.879-38.403-39.126-68.098-46.982-12.461-3.298-25.402-4.941-38.3-4.941z"/><path fill="#3F3832" d="M402.053 503.216c-2.208 0-4.09-.285-5.112-1.101-.532-.425-.825-.969-.873-1.618l.107-.008c1.417-3.881.657-10.776.044-16.335-.246-2.224-.477-4.324-.555-6.037-.364-7.704-.415-15.542-.415-22.863l-.001-.935c-.017-6.881-.035-13.997 8.171-15.032 3.013-.383 18.189-2 20.909 3.949.859 1.888.952 5.485 1.026 8.376.028 1.098.055 2.134.12 2.903.222 2.391.289 4.776.354 7.082.039 1.388.078 2.783.149 4.203l.071 1.388c.401 7.866.816 16 .341 23.929-.019.306-.035.687-.055 1.121-.145 3.315-.368 6.666-1.348 8.021-1.459 1.99-4.485 1.783-7.158 1.601-.944-.064-1.84-.126-2.601-.09-.666.031-1.929.222-3.391.442-2.897.436-6.664 1.004-9.783 1.004zm-4.916-2.446c.079.214.219.398.428.565 2.126 1.698 9.637.565 14.125-.112 1.55-.233 2.775-.418 3.493-.452.818-.038 1.741.024 2.716.091 2.533.172 5.149.35 6.281-1.191.884-1.223 1.062-5.291 1.157-7.477.02-.44.036-.828.056-1.137.472-7.873.059-15.979-.342-23.817l-.07-1.388a187.437 187.437 0 0 1-.151-4.226c-.066-2.396-.13-4.658-.35-7.021-.068-.802-.095-1.853-.124-2.966-.072-2.8-.162-6.285-.937-7.987-1.883-4.118-11.88-4.39-19.873-3.372-7.33.925-7.313 7.294-7.297 14.038l.001.938c0 7.309.05 15.132.414 22.817.076 1.681.306 3.766.549 5.973.653 5.924 1.391 12.622-.076 16.724z"/><path fill="#3F3832" d="M397.693 443.041c-.007-1.632.541-2.96 1.629-3.947 3.271-2.966 10.638-2.208 16.018-1.654 1.875.193 3.497.36 4.402.296.787-.053 1.248-.02 1.525.027.14-.244.389-.611.876-1.167.678-.753 1.192-2.017 1.646-3.131.115-.283.226-.554.333-.802 1.424-3.336 2.407-7.021 3.217-10.212 1.904-7.572 5.165-14.864 8.317-21.916 3.001-6.712 6.104-13.653 7.986-20.751.143-.536.422-1.37.745-2.336.725-2.164 2.233-6.666 1.76-7.471-1.146-1.935-7.755-.961-9.927-.641l-.501.073c-1.527.212-3.2.698-4.817 1.167-1.792.521-3.485 1.012-5.049 1.183-1.919.2-4.219-.547-6.435-1.274-1.288-.423-2.619-.86-3.81-1.079a825.43 825.43 0 0 1-10.069-1.916c-2.688-.548-4.696-.1-6.823.375-1.238.277-2.518.563-3.968.657-2.701.167-5.345.15-7.902.134-5.738-.036-11.164-.072-16.815 1.877 1.273 2.72 2.124 5.767 2.947 8.719.394 1.412.801 2.872 1.243 4.241 1.694 5.233 4.239 9.848 6.932 14.734.94 1.705 1.911 3.467 2.838 5.249 3.119 6.008 6.126 11.89 8.642 17.796.502 1.179 1.121 2.494 1.775 3.885 2.153 4.574 4.594 9.759 4.683 13.799l-1 .021c-.084-3.828-2.477-8.911-4.587-13.395-.659-1.4-1.282-2.723-1.791-3.919-2.502-5.874-5.5-11.737-8.609-17.727-.921-1.771-1.89-3.528-2.826-5.228-2.717-4.93-5.284-9.585-7.008-14.91-.448-1.389-.858-2.858-1.254-4.28-.863-3.092-1.755-6.29-3.124-9.05l-.248-.5.524-.192c6.009-2.197 11.681-2.159 17.686-2.123 2.539.015 5.166.033 7.833-.132 1.371-.089 2.612-.366 3.812-.635 2.135-.478 4.345-.972 7.238-.379 3.415.677 6.614 1.273 10.054 1.912 1.256.231 2.62.679 3.94 1.112 2.114.694 4.309 1.408 6.016 1.23 1.476-.161 3.127-.641 4.877-1.148 1.651-.48 3.358-.976 4.957-1.197l.494-.072c4.671-.69 9.62-1.093 10.934 1.122.653 1.111-.325 4.275-1.673 8.296-.317.95-.593 1.77-.727 2.275-1.902 7.176-5.022 14.155-8.04 20.903-3.136 7.013-6.378 14.264-8.261 21.752-.819 3.229-1.814 6.958-3.268 10.361-.105.244-.213.509-.326.785-.484 1.19-1.034 2.54-1.824 3.418-.658.749-.8 1.069-.853 1.189-.184.417-.506.419-.742.346-.108-.034-.437-.137-1.485-.062-.994.068-2.574-.094-4.574-.299-4.898-.503-12.303-1.266-15.244 1.4-.882.799-1.307 1.846-1.301 3.201l-.998.01z"/><path fill="#50514F" d="M365.148 506.477c0 4.226.291 8.355.479 12.358.209 4.152 1.213 6.544 1.908 9.975 1.271 6.303-3.693 4.637-4.283 8.56-.455 2.991 3.936 5.318 3.734 9.416-2.242.154-3.109 1.371-3.254 3.423-.236 3.435 1.994 1.843 2.986 4.144 2.451 5.794-3.498 3.854-3.949 8.196-.271 2.638 1.807 2.002 2.75 3.46 1.32 1.964 1.104 2.252 2.016 4.626 1.426 3.734 3.354 5.27 6.295 8.437 4.773 5.119 8.562 13.16 14.016 17.347 5.32 4.059 18.475 2.261 25.309 2.25 4.125 0 7.907.792 11.063-1.771 2.42-1.958 4.207-5.943 6.617-8.206 6.068-5.701 15.141-7.686 18.818-15.684 2.162-4.706-1.426-6.077-1.332-9.98.102-4.248 4.023-4.251 2.717-9.371-.424-1.657-2.426-2.625-2.244-4.39.379-3.528 2.791-1.232 3.74-3.802 1.543-4.273-5.379-5.495-2.676-9.521 1.367-2.046 4.111.193 5.143-2.354 1.191-2.942-2.35-3.631-3.48-5.126-3.49-4.652-2.436-6.254 2.416-8.286.361-2.479-1.633-3.937-2.404-6.098-.861-2.4-.773-4.444-.879-7.054-6.012.308-13.283-.686-19.525-.998-8.158-.408-16.422-.227-24.649-.496-8.412-.28-17.109-1.799-25.613-.959-3.379.341-5.777 1.512-8.934 2.501-2.148.67-6.857 1.514-6.783 1.77"/><path fill="#3F3832" d="M400.756 600.576c-5.385 0-10.666-.559-13.82-2.966-3.409-2.617-6.143-6.567-8.786-10.388-1.818-2.628-3.536-5.11-5.417-7.128-.508-.547-.984-1.043-1.433-1.511-2.168-2.26-3.88-4.046-5.167-7.414a33.415 33.415 0 0 1-.631-1.801c-.301-.925-.438-1.347-1.229-2.523-.137-.211-.37-.333-.772-.53-.874-.431-2.501-1.232-2.225-3.92.272-2.619 2.065-3.67 3.251-4.366 1.371-.804 1.696-.995.809-3.092-.179-.416-.363-.496-.854-.711-1.188-.521-2.44-1.312-2.247-4.12.198-2.813 1.614-4.044 3.146-4.538-.269-1.146-.984-2.177-1.73-3.252-1.076-1.551-2.189-3.155-1.882-5.171.341-2.265 1.796-3.25 2.859-3.969 1.281-.867 1.987-1.344 1.437-4.069a59.08 59.08 0 0 0-.699-2.952c-.534-2.091-1.086-4.252-1.237-7.245-.046-.988-.099-1.78-.151-2.778-.162-3.064-.329-6.257-.329-9.257h2.739v-.057c1-.079.853-.166 1.289-.264 1.297-.294 2.832-.627 3.743-.912a72.14 72.14 0 0 0 2.459-.822c2.149-.758 4.195-1.474 6.819-1.739 5.738-.567 11.566-.086 17.194.379 2.848.235 5.796.479 8.633.573 3.544.116 7.165.148 10.663.18 4.601.042 9.358.084 14.015.317 2.102.105 4.357.29 6.539.468 4.387.359 8.926.729 12.836.53l1.514-.078.062 1.515c.017.418.028.823.04 1.217.06 2.008.107 3.595.752 5.391.22.618.593 1.207.987 1.83.803 1.269 1.802 2.848 1.489 4.991l-.122.839-.783.328c-1.397.585-3.282 1.463-3.518 2.332-.126.46.072 1.471 1.723 3.67.191.253.681.579 1.155.894 1.327.883 3.799 2.526 2.516 5.695-.919 2.27-2.913 2.292-3.983 2.304-.989.011-1.139.075-1.303.321-.692 1.031-.461 1.458.918 2.995 1.252 1.396 2.967 3.308 1.922 6.202-.715 1.936-2.163 2.266-2.941 2.444-.173.04-.435.099-.495.144 0 0-.148.17-.224.866-.037.364.277.773.795 1.411.538.664 1.147 1.416 1.411 2.447.913 3.578-.37 5.322-1.402 6.723-.689.937-1.235 1.678-1.268 3.055-.029 1.203.403 2.11.904 3.161.838 1.759 1.882 3.947.291 7.41-2.498 5.431-7.22 8.263-11.787 11.002-2.565 1.538-5.217 3.129-7.367 5.149-1.02.957-1.983 2.357-2.916 3.712-1.149 1.669-2.337 3.395-3.785 4.566-2.979 2.419-6.395 2.29-9.696 2.164-.756-.028-1.526-.058-2.31-.058-1.419.002-3.169.086-5.022.175-2.347.11-4.875.231-7.379.231zm-34.05-90.687c.062 1.989.166 3.958.268 5.886.053 1.004.106 2.001.152 2.99.135 2.687.626 4.61 1.147 6.647.249.974.506 1.98.733 3.1.945 4.686-1.16 6.109-2.696 7.148-.965.652-1.435 1.007-1.574 1.933-.128.839.571 1.846 1.38 3.012 1.113 1.604 2.499 3.601 2.369 6.254l-.065 1.331-1.33.092c-1.193.082-1.745.395-1.861 2.032-.053.766.063.978.064.979.037.027.244.118.395.184.658.288 1.758.77 2.409 2.28 1.917 4.531-.566 5.988-2.05 6.858-1.128.662-1.675 1.027-1.785 2.087-.048.463.025.609.025.61.053.07.358.221.541.311.579.286 1.373.676 1.951 1.57 1.01 1.502 1.236 2.197 1.577 3.248.14.43.307.945.58 1.655 1.07 2.803 2.446 4.238 4.53 6.41.458.478.946.986 1.464 1.543 2.028 2.175 3.889 4.864 5.688 7.465 2.512 3.631 5.109 7.385 8.142 9.713 3.747 2.859 12.693 2.431 19.229 2.118 1.888-.09 3.672-.176 5.163-.178.824 0 1.633.03 2.426.061 3.123.117 5.59.211 7.694-1.497 1.112-.9 2.127-2.375 3.202-3.937 1.022-1.485 2.08-3.021 3.334-4.198 2.385-2.24 5.177-3.915 7.878-5.535 4.368-2.62 8.494-5.094 10.604-9.682 1.005-2.187.497-3.252-.272-4.866-.582-1.221-1.242-2.605-1.196-4.524.056-2.323 1.052-3.675 1.852-4.762.888-1.205 1.474-2.001.912-4.202-.101-.394-.458-.834-.836-1.3-.681-.841-1.614-1.992-1.447-3.614.322-3.002 2.087-3.404 3.035-3.621.605-.138.642-.146.79-.548.393-1.088-.08-1.768-1.337-3.169-1.288-1.436-3.233-3.605-1.177-6.667 1.083-1.622 2.76-1.64 3.762-1.651 1.066-.012 1.086-.059 1.235-.43.301-.741.213-1.001-1.396-2.071-.683-.454-1.388-.923-1.891-1.586-1.426-1.901-2.802-4.127-2.222-6.263.477-1.753 2.064-2.877 4.345-3.916-.109-.663-.489-1.296-1.051-2.184-.443-.7-.945-1.494-1.277-2.422-.765-2.133-.855-4.026-.916-6.008-3.721.065-7.769-.266-11.706-.587-2.257-.185-4.39-.359-6.444-.462-4.595-.229-9.32-.272-13.89-.313-3.517-.032-7.152-.064-10.733-.182-2.912-.097-5.893-.343-8.777-.582-5.495-.455-11.178-.925-16.64-.384-2.264.229-4.043.856-6.104 1.583-.809.285-1.639.578-2.529.856-1.027.321-2.559.668-3.91.974-.558.127-1.234.28-1.764.411z"/><path fill="#3F3832" d="M391.767 537.001c-4.456 0-9.236-.67-13.879-1.321-3.863-.542-7.511-1.054-10.875-1.185l.117-2.998c3.514.138 7.235.66 11.174 1.212 5.149.722 10.472 1.468 15.158 1.255 2.876-.129 5.78-.252 8.688-.375 6.247-.264 12.707-.538 18.858-.878 7.371-.418 17.507-2.334 30.124-5.697l.773 2.898c-12.814 3.416-23.153 5.365-30.729 5.794-6.174.342-12.643.616-18.899.88-2.906.123-5.807.246-8.68.375-.602.027-1.213.04-1.83.04zM391.622 552.891c-4.69 0-10.205-.64-15.56-1.262-4.143-.481-8.057-.935-11.313-1.062l.116-2.998c3.372.131 7.341.592 11.542 1.08 6.011.698 12.225 1.418 17.057 1.203 3.232-.15 6.502-.289 9.775-.427 5.885-.25 11.97-.508 17.77-.833a335.37 335.37 0 0 1 6.775-.287c7.24-.258 14.727-.525 21.306-2.277l.771 2.899c-6.905 1.839-14.563 2.112-21.971 2.376-2.216.079-4.508.161-6.714.284-5.819.327-11.916.585-17.811.835-3.269.139-6.535.277-9.765.427-.64.028-1.301.042-1.978.042zM391.794 568.772c-8.7 0-22.077-2.408-29.485-4.796l.92-2.855c7.683 2.476 22.246 4.973 30.234 4.616 2.845-.129 5.718-.252 8.597-.375 6.276-.268 12.767-.545 18.948-.893 9.426-.522 19.35-1.327 28.08-3.658l.773 2.898c-8.992 2.401-19.102 3.224-28.687 3.755-6.2.349-12.701.627-18.987.896-2.876.123-5.746.245-8.589.375-.573.024-1.177.037-1.804.037zM369.949 372.157c-6.693 0-18.706-14.589-26.031-23.484-1.379-1.675-2.571-3.122-3.464-4.147l.754-.657c.903 1.036 2.098 2.487 3.482 4.168 7.063 8.577 20.209 24.541 26.019 23.028l.252.968c-.322.083-.66.124-1.012.124zM405.161 367.748l-1.595-1.207c3.54-4.678.729-13.649-1.752-21.564-1.255-4.005-2.441-7.789-2.694-10.714-.301-3.426-.219-7.219-.14-10.888.142-6.588.289-13.401-1.717-18.526l1.862-.729c2.152 5.498 2.001 12.514 1.854 19.299-.082 3.781-.159 7.353.132 10.67.235 2.709 1.389 6.391 2.611 10.29 2.625 8.375 5.601 17.869 1.439 23.369zM439.668 369.332l-1.797-.877c3.194-6.547 8.256-12.478 13.15-18.212 3.718-4.356 7.562-8.86 10.521-13.566 2.12-3.357 4.002-7.105 5.821-10.729 2.763-5.502 5.619-11.192 9.469-15.914l1.551 1.264c-3.712 4.552-6.518 10.142-9.231 15.547-1.842 3.667-3.745 7.46-5.917 10.898-3.035 4.827-6.927 9.388-10.691 13.798-4.814 5.64-9.793 11.472-12.876 17.791zM259.905 273.607c-1.264 0-4.222-.561-12.083-2.815a524.597 524.597 0 0 1-15.438-4.718c-2.602-.841-5.477-1.616-8.52-2.438-7.566-2.042-16.141-4.355-22.027-8.291l1.111-1.662c5.613 3.753 14.02 6.021 21.437 8.022 3.068.828 5.966 1.61 8.616 2.466 9.919 3.224 25.226 7.716 26.988 7.426-.215.037-.593.346-.579.833l1.999-.059c.011.372-.156.715-.458.941-.191.145-.391.295-1.046.295zM284.238 226.9c-.527-8.851-17.931-22.811-29.448-32.048-3.357-2.692-6.257-5.018-8.223-6.796-1.515-1.37-3.822-3.193-6.494-5.304-9.775-7.723-23.162-18.299-23.773-26.429l1.994-.15c.545 7.255 14.07 17.94 23.019 25.01 2.7 2.133 5.032 3.976 6.596 5.39 1.922 1.738 4.8 4.046 8.132 6.719 12.498 10.024 29.614 23.752 30.193 33.489l-1.996.119zM342.075 189.652c-1.505-3.33-3.641-6.72-5.902-10.308-2.304-3.658-4.687-7.439-6.444-11.287-5.377-11.788-9.511-24.241-13.509-36.283-3.753-11.303-7.633-22.991-12.527-34.077-1.962-4.441-3.888-8.904-5.815-13.368-4.258-9.864-8.661-20.064-13.409-29.876-.458-.943-1.009-2.23-1.592-3.592-1.112-2.597-3.183-7.431-4.083-7.925.088.048.333.063.512-.078l-1.236-1.572a1.436 1.436 0 0 1 1.275-.268c1.511.386 2.859 3.191 5.371 9.056.574 1.34 1.116 2.605 1.553 3.507 4.767 9.852 9.179 20.072 13.445 29.956 1.925 4.458 3.849 8.916 5.809 13.352 4.933 11.173 8.828 22.908 12.596 34.255 3.981 11.992 8.099 24.393 13.431 36.083 1.702 3.725 4.048 7.45 6.317 11.051 2.299 3.649 4.47 7.095 6.032 10.551l-1.824.823zM391.248 157.628l-2-.033c.129-7.831-.342-15.754-.797-23.417l-.08-1.347 1.996-.118.08 1.347c.458 7.699.931 15.661.801 23.568zM436.567 173.034l-.863-1.805c2.021-.965 2.16-1.327 2.684-2.67.274-.707.651-1.674 1.393-2.991 8.418-14.934 13.936-34.34 17.354-47.637 2.965-11.55 5.405-23.589 7.766-35.232 4.829-23.823 9.822-48.457 19.651-71.009l.144-.329.32-.163c.877-.447 1.432-.076 1.629.104.693.635.451 1.712-.164 3.245l-.835-.335c-9.259 21.892-14.1 45.772-18.785 68.885-2.365 11.667-4.811 23.732-7.788 35.332-3.446 13.407-9.016 32.982-17.549 48.122a19.293 19.293 0 0 0-1.271 2.734c-.661 1.693-1.063 2.494-3.686 3.749zM476.13 175.149l-1.916-.571c6.116-20.512 19.298-41.797 29.277-56.041l1.639 1.147c-9.895 14.124-22.96 35.211-29 55.465zM505.619 216.114l-1.322-1.501c2.538-2.235 4.605-5.636 6.605-8.925a128.817 128.817 0 0 1 2.069-3.328c7.704-11.864 16.37-23.253 24.751-34.267 3.818-5.018 7.766-10.206 11.575-15.376 2.903-3.943 5.794-7.895 8.685-11.844 12.959-17.713 26.359-36.029 40.716-53.204 1.656-1.98 3.615-3.995 5.688-6.128 4.614-4.746 9.792-10.071 12.011-15.729a3.297 3.297 0 0 0-.518.338l-1.238-1.57c.985-.779 2.132-1.143 3.325-1.054l1.226.092-.34 1.182c-1.935 6.724-7.83 12.787-13.031 18.136-2.047 2.105-3.98 4.094-5.588 6.017-14.315 17.125-27.697 35.414-40.638 53.102-2.891 3.952-5.782 7.904-8.688 11.85-3.818 5.183-7.771 10.377-11.594 15.401-8.359 10.984-17.002 22.343-24.666 34.146-.687 1.054-1.358 2.16-2.037 3.276-2.076 3.416-4.225 6.949-6.991 9.386z"/><g><path fill="#3F3832" d="M550.161 263.113l-.402-1.959c7.23-1.481 15.071-8.284 20.796-13.251l.396-.344c12.355-10.719 24.598-20.633 34.944-28.917 1.569-1.257 3.359-3.268 5.254-5.397 3.323-3.734 6.76-7.596 10.004-8.54l.559 1.921c-2.691.782-6.079 4.589-9.068 7.948-1.952 2.194-3.797 4.267-5.498 5.629-10.331 8.272-22.555 18.17-34.884 28.866l-.396.344c-5.893 5.112-13.963 12.114-21.705 13.7z"/></g><g><path fill="#3F3832" d="M552.907 322.212l-.605-1.906c6.975-2.211 14.372-3.529 21.525-4.804 8.147-1.452 16.572-2.953 24.328-5.777l.684 1.879c-7.918 2.884-16.43 4.4-24.661 5.867-7.091 1.263-14.423 2.57-21.271 4.741z"/></g></g></g></svg>