<svg id="Capa_1" xmlns="http://www.w3.org/2000/svg" width="698" height="660" viewBox="0 0 698 660"><style>.st0,.st1,.st2{fill:none;stroke:#3f352e;stroke-width:3;stroke-miterlimit:10}.st1,.st2{stroke-width:2}.st2{fill:#4f504e;stroke-width:3}.st3{opacity:.2}.st4{fill:none}.st5{fill:#666}.st6{fill:#ccc}.st7{fill:#333}.st8{fill:#353535}.st9{fill:none;stroke:#3f352e;stroke-miterlimit:10}.st10{fill:#00a2c2}.st11{fill:#0595a8}.st12{fill:#3d3d3d}.st13{fill:#e0d963;stroke:#3f352e;stroke-width:6;stroke-miterlimit:10}.st14{fill:#ddd}</style><path class="st10" d="M52.458 442.66c6.084 4.114 3.275 26.519 4.102 34.596 1.229 12.018 1.717 24.253 3.52 36.357 1.613 10.815 1.791 22.338 2.932 33.422 1.119 10.834 4.295 21.116 6.334 31.666 1.756 9.07 3.207 23.264.072 32.07.648-1.695 1.252-3.283 1.803-4.924-.598 1.27-1.07 3.047-1.697 4.395 10.188-2.45 22.811-2.271 33.357-3.267 10.521-.989 20.492-3.364 31.051-4.821 25.408-3.508 49.252-16.889 75.088-18.172 9.389-.471 24.186 3.4 32.164-1.282-3.025-11.742-4.459-24.899-4.607-37.438-.061-5.533-.443-11.331-.012-16.845.451-5.723 3.1-13.188 1.775-18.909-1.482-6.378-10.189-7.388-15.117-11.29-4.588-3.631-5.379-8.115-10.668-11.418-10.09-6.295-20.387-12.061-30.545-18.295-11.273-6.916-21.307-15.008-32.77-21.605-9.943-5.726-19.152-17.927-30.508-12.006-8.752 4.557-14.404 7.775-25.227 7.766-5.203-.006-11.244.847-16.287-.131-5.348-1.033-7.369-2.837-13.037-2.184-2.602.301-10.857 1.015-9.963 1.729M138.653 324.217c3.121 7.512-10.867 26.687-14.104 34.011-3.959 8.954-8.406 17.618-11.43 26.974-1.926 5.949-9.887 17.14-10.527 22.601-.982 8.422 22.893 13.44 32.279 18.767 51.471 29.195 96.41 67.912 144.258 102.617 28.475 20.66 57.059 39.398 85.945 58.957 18.578 12.574 31.102 9.901 50.281-.062 8.732-4.537 17.008-10.492 25.893-14.98 11.682-5.899 13.928-6.008 17.498-17.857 5.312-17.623 11.633-32.822 20.295-49.188 3.312-6.256 5.734-12.957 11.059-17.599-7.682-9.997-15.826-11.738-11.588-26.259.465-.393.504-.361.111.086-17.543 4.459-26.949-11.757-38.316-19.673-10.48-7.303-24.873-8.539-36.434-16.661 2.754-2.852 3.51-6.564 4.33-10.076-7.996 1.305-17.102 1.15-24.682-2.733-7.729-3.956-12.598-15.246-18.818-18.325-3.791-1.872-6.549 2.198-9.096.997-3.926-1.858-6.137-5.021-9.379-8.267-7.521-7.527-6.791 4.609-9.553-5.683-13.426 1.693-18.141-15.481-29.238-24.542-5.779-4.718-12.178-15.413-18.939-6.25-5.742-4.064-19.658-10.964-24.502-16.295 1.623-1.461 2.133-7.746 3.541-9.118-16.488-6.165-33.85-2.624-43.305-22.173-.197 2.287-2.062 4.244-2.549 6.538-14.918-5.222-22.771-14.93-37.293-4.629-3.768 2.669-2.031 4.569-7.035 7.096-1.855.936-8.221 1.603-10.561 2.085-6.43 1.33-19.463 1.453-22.279 6.123"/><path class="st7" d="M396.692 585.25l2.119-.854c1.332-.576 3.328-1.242 5.529-2.334 2.229-1.032 4.844-2.229 7.619-3.643 2.773-1.41 5.734-2.907 8.688-4.406 2.957-1.518 5.918-3.035 8.689-4.46 2.787-1.396 5.334-2.817 7.613-3.821 4.535-2.081 7.758-3.062 7.758-3.062s-2.684 2.047-7.021 4.514c-2.16 1.271-4.748 2.562-7.488 4.051-2.746 1.461-5.68 3.023-8.611 4.587-2.953 1.583-5.912 3.034-8.719 4.431a127.65 127.65 0 0 1-7.775 3.628c-2.295 1.069-4.266 1.671-5.623 2.217-1.357.512-2.133.808-2.133.808l-.645-1.656zM77.028 600.946s.439-.185 1.258-.536a31.137 31.137 0 0 1 3.852-1.136c3.316-.821 8.119-1.351 13.809-1.7 2.877-.201 5.854-.402 9.107-.918 3.234-.443 6.652-.92 10.186-1.41 7.068-.938 14.613-1.947 22.152-2.95 30.16-4.037 60.391-7.587 60.391-7.587 0-.004-30.057 4.804-60.184 9.123-7.531 1.096-15.057 2.199-22.119 3.226-3.52.517-6.936 1.021-10.17 1.493-3.203.533-6.402.781-9.215 1.002-5.686.438-10.369.881-13.551 1.564a29.423 29.423 0 0 0-3.576.967c-.828.33-1.27.502-1.27.502l-.67-1.64zM197.485 507.279c2.633-.567 5.277-.979 7.924-1.473l7.951-1.219c5.301-.801 10.623-1.43 15.949-2.034l1.242-.146.064 1.247c.562 10.462 1.121 20.915 1.494 31.383.406 10.466.768 20.935.877 31.413-1.07-10.426-1.891-20.863-2.672-31.312-.807-10.439-1.432-20.893-2.055-31.35l1.307 1.107c-5.324.579-10.656 1.13-16.008 1.516l-8.023.557c-2.682.099-5.354.282-8.05.311zM117.001 464.668s-.141.414-.42 1.109c-.133.348-.451.714-.75 1.178-.309.48-.773.855-1.252 1.341a15.254 15.254 0 0 1-3.859 2.36c-1.496.713-3.199 1.153-4.898 1.573-1.725.302-3.451.569-5.088.583-1.633.066-3.166-.074-4.461-.26a16.368 16.368 0 0 1-3.053-.843c-.695-.33-1.066-.535-1.066-.535s.436.063 1.16.205c.732.107 1.787.142 3.037.155 1.262-.048 2.717-.1 4.277-.289.779-.061 1.572-.205 2.387-.317.816-.091 1.627-.3 2.445-.444.803-.197 1.623-.336 2.404-.582.783-.224 1.561-.422 2.281-.697a21.505 21.505 0 0 0 3.836-1.731c.475-.363 1.027-.628 1.361-.961.352-.343.73-.592.941-.902.446-.603.718-.943.718-.943zM109.903 429.163s-.141.407-.428 1.106c-.123.35-.445.714-.746 1.18-.307.482-.771.854-1.248 1.336a15.354 15.354 0 0 1-3.861 2.365c-1.5.715-3.205 1.15-4.902 1.57-1.719.309-3.449.574-5.086.584-1.639.066-3.168-.07-4.465-.26a16.04 16.04 0 0 1-3.049-.84c-.699-.33-1.068-.535-1.068-.535s.439.062 1.158.203c.736.111 1.787.14 3.039.153 1.26-.048 2.713-.098 4.275-.285.781-.062 1.576-.206 2.385-.321.818-.09 1.629-.298 2.445-.441.803-.195 1.627-.333 2.406-.58.785-.225 1.561-.425 2.281-.701a21.209 21.209 0 0 0 3.834-1.73c.473-.363 1.023-.627 1.367-.963.348-.342.725-.588.941-.904.451-.6.722-.937.722-.937z"/><path class="st7" d="M224.704 510.803s-.053 2.615.01 6.498c.064 3.861.27 9.094.301 14.312-.076 2.615-.008 5.23-.264 7.675-.107 1.225-.164 2.409-.295 3.518-.18 1.114-.35 2.163-.51 3.13-.148.971-.281 1.855-.539 2.611-.225.764-.416 1.429-.568 1.984-.314 1.095-.496 1.717-.496 1.717s.143-.635.398-1.75c.121-.549.275-1.22.451-1.996.215-.762.299-1.648.389-2.619.104-.965.217-2.014.332-3.121.062-1.111.055-2.292.09-3.504.117-2.422-.104-5.022-.166-7.609-.326-5.186-.826-10.347-1.117-14.286-.289-3.917-.377-6.511-.377-6.511l2.361-.049z"/><path class="st11" d="M50.331 439.422c.18 12.402 1.627 25.232 15.932 34.326 16.281 10.341 39.084 20.57 58.076 22.478 34.887 3.5 66.422 8.827 100.676.007-30.422-13.334-51.779-39.497-77.996-58.779-10.281-7.563-19.848-8.56-29.957-7.646-9.523-6.563-20.947-7.43-29.643-6.563-3.557.358-15.389 3.555-20.129 12.982-13.072 2.559-24.263 7.2-15.381 15.822"/><path class="st3 st6" d="M170.954 499.927L76.372 456.78l54.205-26.598s97.117 67.246 94.438 66.048c-2.672-1.203-54.061 3.697-54.061 3.697z"/><path class="st11" d="M124.108 493.072c4.359-7.652 14.031-11.783 14.053-22.248-4.846-3.812-10.242-6.643-16.424-6.156M118.188 451.648c11.914 2.309 12.605-22.115.178-18.756-.756 6.715 3.705 10.566-.178 16.391"/><path class="st3 st14" d="M224.702 493.806l-53.881 6.121 67.908 33.379v-29.612zM238.729 503.694v29.612l141.268 69.391z"/><path class="st11" d="M496.132 483.605l-18.738-13.611 7.693-13.611-20.713-18.934-24.855-7.697-8.791 11.9-25.977-16.66 3.402-11.216s-2.691-10.946-17.75-21.306c-9.471-6.506-26.041-4.732-26.041-4.732l-6.387 7.256-24.695-15.84 5.049-9.957s-6.273-14.436-17.756-20.516c-10.061-5.323-24.064-5.525-24.064-5.525l-7.09 7.865-24.484-15.705 6.324-8.729s-8.596-11.219-18.74-19.334c-8.875-7.1-23.869-5.917-23.869-5.917l-7.861 9.103-39.479 3.525s51.287 47.341 63.906 48.13c12.633.788 78.119 38.66 83.643 43.396s81.27 54.443 93.107 59.178c11.83 4.734 48.918 32.35 55.23 29.982 6.311-2.367 18.936-11.045 18.936-11.045z"/><path class="st11" d="M214.448 351.841c4.129-1.244 13.471-1.54 15.604-6.513 2.545-5.915-4.176-8.361-9.15-8.344-1.178 4.387-2.754 8.557-4.875 12.489M285.462 396.814c4.092-.288 16.039-4.998 11.678-11.678-4.645-7.104-8.438 4.96-10.098 6.943M360.423 443.365c4.033-2.383 14.332-2.271 16.76-7.064 3.303-6.522-6.727-8.066-11.906-7.809-.17 4.373-3.008 8.529-4.854 11.718M435.38 493.865c5.895 1.127 19.311-4.758 15.186-13.611-5.945-12.744-10.605 5.111-14.398 7.299M470.095 482.029c13.402 8.555 4.826-18.104 1.58-3.16M395.929 436.263c2.645 1.729 14.998 1.972 11.678-6.135-3.588-8.754-8.668.688-10.891 3.769M332.019 380.244c3.844 2.047 6.643 7.789 6.996 11.699-4.414.238-8.977.414-13.189-.771-.197-3.223 2.043-6.359 3.828-8.561"/><path class="st6" d="M261.001 347.892c2.186-.704 5.824.124 8.68 1.661 6.365-4.499-3.803-15.316-8.68-5.604"/><path class="st4" d="M411.706 514.379L224.704 381.82"/><path class="st5" d="M411.022 515.346L224.704 381.82l187.688 131.592z"/><path class="st11" d="M454.313 507.279c5.729 14.778 4.959 30.845 2.514 45.946 10.213-.945 13.256-22.899 18.498-30.597 6.826-10.032 16.432-19.963 15.5-32.952-12.502 2.849-26.42 10.897-38.883 15.235"/><path class="st12" d="M432.458 514.195c-1.896 1.391-3.111 3.15-4.172 4.995l-3.039 5.615-6.066 11.233-12.117 22.479-11.928 22.58c-3.904 7.564-7.865 15.108-11.691 22.719l-1.178 2.35-2.236-1.533L97.163 411.392l-1.697-1.159.91-1.846 43.41-88.221 1.541-3.133 1.902 2.208c2.441 2.833 5.453 4.832 8.477 6.804l9.021 5.975 18.055 11.958 36.104 23.91 72.207 47.819 72.215 47.821 75.027 49.288-1.877 1.379zm-4.566.047L357.22 466.66l-72.021-48.098-72.023-48.1-36.016-24.051-18.004-12.024-9-6.014c-2.992-2.022-5.99-4.029-9.555-5.184l3.443-.929-43.414 88.221-.795-3.005 282.867 193.243-3.418.821c4.346-7.325 8.555-14.726 12.816-22.097l12.58-22.23 12.385-22.332 6.186-11.171 3.084-5.588c.644-1.228 1.193-2.503 1.557-3.88z"/><path class="st12" d="M381.807 603.575l-.882-1.799 71.129-34.866 43.312-78.502-64.623 25.582-.738-1.863 69.81-27.636-46.312 83.941z"/><path transform="rotate(32.328 486.749 479.58)" class="st12" d="M474.019 478.615h25.552v2.004h-25.552z"/><path transform="rotate(32.312 416.244 435)" class="st12" d="M400.822 433.968h30.789v2.004h-30.789z"/><path transform="rotate(32.317 344.607 389.659)" class="st12" d="M329.256 388.66h30.696v2.004h-30.696z"/><path transform="rotate(32.317 276.6 346.632)" class="st12" d="M263.233 345.638h26.732v2.004h-26.732z"/><path transform="rotate(84.1 158.394 319.497)" class="st12" d="M157.39 302.939h2.004v33.133h-2.004z"/><path class="st12" d="M240.899 505.924l4.199 77.021.117 2.124-2.098.342-173.634 28.706-2.562.426-.188-2.559a4402.701 4402.701 0 0 0-3.879-48.689l-2.016-24.34-1.01-12.17c-.371-4.051-.498-8.123-1.502-12.125l-.576-2.304 2.658-.255 20.883-2.006 20.869-2.109 41.715-4.456 41.676-4.745c6.947-.813 13.896-1.526 20.832-2.457 6.92-.979 13.826-2.121 20.66-3.832l.555 4.712c-7.049-.075-14.033.411-20.992 1.067-6.955.703-13.885 1.621-20.828 2.446l-41.639 5.054-41.611 5.349-20.787 2.792-20.773 2.896 2.086-2.561c-.303 4.109.268 8.146.598 12.205l1.09 12.16 2.186 24.326a4539.608 4539.608 0 0 0 4.525 48.633l-2.748-2.137 173.635-28.707-1.977 2.473-4.201-77.023 4.737-.257z"/><path transform="rotate(83.114 126.292 432.707)" class="st12" d="M125.295 425.444h2.004v14.528h-2.004z"/><path class="st12" d="M58.341 514.73l-1.67-18.255-1.85-18.233-2.004-18.213-1.006-9.109c-.34-3.037-.57-6.084-1.878-9.008l-1.003-2.254 3.077-.375 14.82-1.791.568 4.712-14.822 1.788 2.068-2.623c-.602 3.144-.133 6.162.232 9.198l1.092 9.093 2.199 18.201 2.35 18.172 2.535 18.152-4.708.545z"/><path transform="rotate(86.204 126.214 477.715)" class="st12" d="M114.883 476.854h22.646v1.743h-22.646z"/><path transform="rotate(85.693 73.568 481)" class="st12" d="M62.467 480.147h22.197v1.742H62.467z"/><path class="st12" d="M95.958 477.839c-13.613 0-23.355-4-23.689-9.726-.365-6.267 11.186-11.865 26.296-12.746a67.266 67.266 0 0 1 3.899-.114c13.618 0 23.363 4 23.698 9.727.365 6.267-11.185 11.865-26.294 12.745a67.697 67.697 0 0 1-3.91.114zm6.505-20.543c-1.245 0-2.516.037-3.78.11-14.898.869-24.632 6.176-24.375 10.588.256 4.375 9.766 7.802 21.65 7.802a65.35 65.35 0 0 0 3.791-.111c14.897-.868 24.63-6.175 24.374-10.587-.257-4.375-9.77-7.802-21.66-7.802zM97.303 500.898c-13.225 0-23.326-4.012-23.662-9.725l2.039-.12c.26 4.413 10.538 8.554 25.439 7.69 6.8-.396 13.119-1.8 17.793-3.952 4.314-1.987 6.714-4.405 6.583-6.634l2.039-.12c.186 3.16-2.572 6.217-7.767 8.61-4.9 2.256-11.48 3.726-18.529 4.136a68.502 68.502 0 0 1-3.935.115z"/><path transform="rotate(85.71 161.787 470.516)" class="st12" d="M150.691 469.645h22.195v1.742h-22.195z"/><path class="st12" d="M183.555 467.326c-13.242-.135-22.716-4.132-23.041-9.72-.098-1.669.606-3.299 2.092-4.843l1.472 1.416c-1.075 1.117-1.588 2.23-1.525 3.309.248 4.254 9.481 7.678 21.022 7.796l-.02 2.042zM185.528 490.396c-5.584 0-10.789-.713-14.952-2.071-5.437-1.773-8.531-4.492-8.714-7.655l2.039-.118c.129 2.233 2.793 4.358 7.308 5.831 4.891 1.595 11.33 2.257 18.13 1.859 7.216-.416 14.044-2.021 18.733-4.406l.926 1.821c-4.932 2.507-12.054 4.193-19.541 4.624a67.722 67.722 0 0 1-3.929.115z"/><path transform="rotate(86.181 119.895 444.122)" class="st12" d="M108.58 443.249h22.646v1.742H108.58z"/><path transform="rotate(85.705 67.262 447.407)" class="st12" d="M56.169 446.539h22.19v1.742h-22.19z"/><path class="st12" d="M89.643 444.231c-13.391 0-23.35-4.09-23.679-9.725-.365-6.271 11.186-11.871 26.296-12.75a66.893 66.893 0 0 1 3.913-.115c13.617 0 23.361 4.001 23.695 9.729.361 6.273-11.194 11.872-26.304 12.745-1.31.077-2.63.116-3.921.116zm6.53-20.547c-1.249 0-2.525.038-3.794.111-14.899.867-24.632 6.177-24.376 10.592.256 4.374 9.761 7.801 21.64 7.801 1.251 0 2.531-.038 3.802-.112 14.9-.862 24.637-6.17 24.384-10.588-.256-4.376-9.768-7.804-21.656-7.804zM74.283 464.578c-4.384-1.777-6.784-4.204-6.941-7.017l2.04-.113c.108 1.939 2.121 3.799 5.668 5.237l-.767 1.893zM368.298 423.812c-5.72 0-14.821-3.077-23.752-8.029-12.126-6.728-23.409-16.774-20.435-22.14.893-1.606 2.859-2.421 5.845-2.421 5.721 0 14.823 3.078 23.752 8.033 12.127 6.728 23.41 16.772 20.434 22.136-.892 1.606-2.858 2.421-5.844 2.421zm-38.342-30.601c-2.146 0-3.604.496-4.105 1.397-1.709 3.084 5.944 11.825 19.66 19.436 8.653 4.798 17.385 7.779 22.788 7.779 2.147 0 3.604-.496 4.104-1.397 1.71-3.083-5.943-11.822-19.66-19.432-8.652-4.801-17.383-7.783-22.787-7.783z"/><path class="st12" d="M357.831 444.827c-5.69 0-14.678-2.981-23.771-8.028-6.534-3.623-12.255-7.818-16.108-11.814-4.175-4.329-5.67-7.899-4.325-10.323l10.482-20.964 1.779.89-10.502 21.002c-.86 1.552.642 4.534 3.998 8.015 3.72 3.858 9.275 7.926 15.642 11.456 10.305 5.719 20.682 8.8 25.232 7.496.825-.236 1.383-.61 1.66-1.109L372.4 420.48l1.779.89-10.502 21.005c-.561 1.015-1.521 1.708-2.871 2.095-.846.239-1.846.357-2.975.357z"/><g><path class="st12" d="M477.588 461.676c-5.592 0-14.363-2.938-22.89-7.666-11.758-6.521-22.651-16.343-19.681-21.702.908-1.636 2.906-2.465 5.938-2.465 5.594 0 14.367 2.938 22.895 7.667 6.332 3.511 11.864 7.603 15.576 11.522 4.021 4.244 5.438 7.763 4.101 10.176-.907 1.638-2.905 2.468-5.939 2.468zm-36.632-29.874c-2.204 0-3.704.517-4.226 1.457-1.714 3.092 5.634 11.672 18.918 19.04 8.254 4.577 16.661 7.42 21.94 7.42 2.205 0 3.705-.518 4.226-1.458.846-1.524-.579-4.47-3.81-7.881-3.578-3.777-8.942-7.739-15.104-11.155-8.254-4.579-16.663-7.423-21.944-7.423z"/><path transform="rotate(26.603 432.267 439.932)" class="st12" d="M431.276 431.987h1.958v15.866h-1.958z"/><path class="st12" d="M466.945 482.717c-5.624 0-13.959-2.894-21.315-6.841l.926-1.726c12.499 6.708 23.027 8.097 24.659 5.15l10.515-20.954 1.75.878-10.533 20.989c-.969 1.75-3.133 2.504-6.002 2.504z"/></g><g><path class="st12" d="M403.961 415.581c-5.559 0-13.828-2.747-22.118-7.348-11.424-6.337-21.969-15.96-19.009-21.311.634-1.143 2.193-2.504 6.019-2.504 5.558 0 13.828 2.747 22.122 7.347 6.159 3.416 11.525 7.416 15.112 11.265 3.883 4.167 5.231 7.641 3.896 10.045-.633 1.142-2.192 2.506-6.022 2.506zm-35.108-29.234c-2.252 0-3.79.536-4.331 1.51-1.713 3.097 5.363 11.535 18.257 18.688 7.897 4.383 16.013 7.105 21.181 7.105 2.255 0 3.794-.537 4.334-1.513.851-1.534-.502-4.447-3.621-7.793-3.452-3.705-8.65-7.573-14.636-10.894-7.899-4.381-16.017-7.103-21.184-7.103z"/><path transform="rotate(26.706 360.059 394.754)" class="st12" d="M359.067 386.531h1.929v16.364h-1.929z"/><path class="st12" d="M393.452 436.574c-1.338 0-2.867-.165-4.577-.497-5.168-1.003-11.404-3.436-17.559-6.851l.937-1.688c5.982 3.318 12.016 5.678 16.99 6.644 4.494.871 7.682.477 8.531-1.057l10.537-20.944 1.725.867-10.555 20.979c-.938 1.694-2.99 2.547-6.029 2.547z"/></g><g><path class="st12" d="M332.55 371.576c-5.421 0-13.365-2.612-21.248-6.987-5.961-3.303-11.143-7.201-14.589-10.976-3.728-4.082-4.996-7.504-3.667-9.897.644-1.167 2.231-2.56 6.125-2.56 5.417 0 13.362 2.61 21.253 6.983 14.815 8.22 20.462 16.893 18.255 20.879-.648 1.168-2.237 2.558-6.129 2.558zm-33.379-28.522c-2.315 0-3.901.562-4.464 1.581-.857 1.545.417 4.422 3.408 7.698 3.311 3.626 8.321 7.389 14.108 10.596 7.501 4.163 15.291 6.749 20.328 6.749 2.316 0 3.903-.561 4.469-1.58 1.719-3.104-5.052-11.383-17.516-18.299-7.508-4.161-15.299-6.745-20.333-6.745z"/><path transform="rotate(26.785 290.301 351.262)" class="st12" d="M289.362 343.327h1.898v15.815h-1.898z"/><path class="st12" d="M322.009 392.53c-5.335 0-13.358-2.579-21.292-6.984a71.807 71.807 0 0 1-6.407-3.989l1.087-1.556a70.338 70.338 0 0 0 6.24 3.885c9.104 5.054 18.527 7.707 22.919 6.446.926-.265 1.558-.693 1.877-1.271l10.569-20.931 1.694.855-10.586 20.963c-.59 1.066-1.604 1.798-3.032 2.208-.877.252-1.91.374-3.069.374z"/></g><g><path class="st12" d="M265.873 328.988c-5.362 0-13.373-2.667-21.43-7.136-11.052-6.128-21.267-15.409-18.426-20.539.605-1.091 2.093-2.389 5.746-2.389 5.364 0 13.376 2.668 21.433 7.138 11.051 6.128 21.263 15.409 18.422 20.537-.605 1.09-2.093 2.389-5.745 2.389zm-34.11-28.207c-2.145 0-3.608.509-4.122 1.433-1.642 2.966 5.224 11.094 17.703 18.013 7.678 4.258 15.544 6.904 20.529 6.904 2.145 0 3.608-.509 4.121-1.433 1.643-2.966-5.222-11.092-17.699-18.011-7.678-4.26-15.545-6.906-20.532-6.906z"/><path transform="rotate(26.671 223.708 308.055)" class="st12" d="M222.791 301.023h1.858v14.049h-1.858z"/><path class="st12" d="M255.804 349.105c-5.603 0-14.014-3.038-21.422-7.147-3.55-1.97-6.798-4.113-9.655-6.371l1.152-1.457c2.777 2.195 5.941 4.282 9.404 6.203 12.473 6.919 23.003 8.437 24.651 5.47l10.078-20.066 1.66.834-10.096 20.101c-.944 1.7-3.019 2.433-5.772 2.433z"/></g><g><path class="st12" d="M292.693 377.732c-5.593 0-13.941-2.777-22.33-7.428-11.517-6.39-22.156-16.069-19.19-21.42.632-1.139 2.186-2.496 6.001-2.496 5.592 0 13.939 2.779 22.329 7.433 10.195 5.652 18.004 12.804 19.432 17.797.398 1.394.316 2.611-.245 3.62-.628 1.137-2.181 2.494-5.997 2.494zm-35.518-29.406c-2.242 0-3.771.532-4.307 1.498-1.715 3.095 5.434 11.572 18.436 18.786 7.993 4.431 16.189 7.184 21.39 7.184 2.241 0 3.77-.531 4.304-1.496.303-.544.328-1.267.076-2.147-1.276-4.46-8.887-11.301-18.509-16.636-7.995-4.434-16.191-7.189-21.39-7.189z"/><path class="st12" d="M282.115 398.753c-5.841 0-14.605-3.164-22.326-7.444-11.514-6.388-22.15-16.065-19.185-21.418l10.525-20.943 1.731.87-10.543 20.978c-1.734 3.131 5.413 11.608 18.411 18.819 13.004 7.21 23.98 8.785 25.7 5.69l10.524-20.946 1.731.87-10.543 20.981c-.984 1.777-3.151 2.543-6.025 2.543z"/></g><g><path class="st12" d="M223.319 331.541c-5.591 0-13.938-2.778-22.327-7.43-15.432-8.558-21.405-17.422-19.19-21.417.633-1.14 2.188-2.498 6.006-2.498 5.59 0 13.937 2.778 22.325 7.431 11.517 6.386 22.156 16.063 19.19 21.417-.632 1.139-2.187 2.497-6.004 2.497zm-35.511-29.408c-2.243 0-3.774.533-4.311 1.5-1.716 3.097 5.433 11.572 18.435 18.783 7.994 4.433 16.189 7.187 21.387 7.187 2.243 0 3.773-.532 4.31-1.499 1.715-3.097-5.434-11.573-18.435-18.783-7.994-4.433-16.189-7.188-21.386-7.188z"/><path class="st12" d="M212.822 352.537c-1.358 0-2.914-.17-4.657-.513-5.2-1.022-11.482-3.48-17.688-6.92-6.207-3.445-11.618-7.472-15.237-11.34-3.919-4.188-5.284-7.675-3.947-10.082l10.522-20.944 1.731.87-10.541 20.979c-.869 1.566.502 4.489 3.649 7.853 3.484 3.725 8.727 7.62 14.762 10.97 6.034 3.345 12.115 5.729 17.122 6.713 4.521.89 7.727.506 8.574-1.024l10.527-20.949 1.731.87-10.545 20.983c-.932 1.685-2.975 2.534-6.003 2.534z"/></g><g><path class="st12" d="M443.886 472.213c-5.593 0-14.365-2.939-22.892-7.669-6.335-3.512-11.868-7.604-15.58-11.522-4.02-4.244-5.437-7.764-4.096-10.178.906-1.635 2.902-2.464 5.933-2.464 5.592 0 14.364 2.937 22.894 7.665 6.334 3.513 11.867 7.606 15.58 11.525 4.021 4.245 5.439 7.764 4.1 10.177-.908 1.636-2.906 2.466-5.939 2.466zm-36.634-29.875c-2.202 0-3.701.517-4.221 1.455-.847 1.526.575 4.472 3.805 7.882 3.578 3.777 8.943 7.739 15.108 11.156 8.254 4.579 16.661 7.424 21.942 7.424 2.204 0 3.706-.518 4.228-1.458.845-1.524-.579-4.47-3.81-7.88-3.579-3.778-8.944-7.741-15.108-11.16-8.256-4.576-16.665-7.419-21.944-7.419z"/><path class="st12" d="M433.388 493.216c-1.411 0-3.039-.185-4.87-.556-5.294-1.073-11.696-3.599-18.028-7.112-6.333-3.509-11.865-7.602-15.578-11.522-4.019-4.244-5.435-7.763-4.096-10.177l10.512-20.953 1.75.878-10.531 20.989c-.864 1.561.558 4.506 3.787 7.917 3.578 3.779 8.943 7.741 15.105 11.156 6.162 3.419 12.365 5.872 17.467 6.906 4.604.934 7.859.58 8.704-.945l10.513-20.951 1.75.878-10.531 20.986c-.922 1.666-2.947 2.506-5.954 2.506z"/></g><g><path class="st8" d="M139.228 342.602l-.379 3.271c-.125 1.037-.248 2.301-.645 3.721-.369 1.412-.639 3.078-1.252 4.775-.611 1.689-1.162 3.58-1.963 5.482-.826 1.891-1.557 3.965-2.611 5.947-1.953 4.064-4.246 8.281-6.594 12.453-1.197 2.061-2.4 4.119-3.58 6.148-1.123 2.066-2.227 4.104-3.295 6.072-.998 1.994-1.959 3.92-2.871 5.753-.936 1.815-1.713 3.597-2.467 5.217l-5.02 10.846s.396-1.131 1.098-3.101c.73-1.959 1.709-4.789 3.078-8.113.678-1.666 1.373-3.479 2.23-5.359.848-1.883 1.682-3.91 2.697-5.914 1.039-1.982 2.111-4.039 3.205-6.126 1.152-2.058 2.328-4.146 3.504-6.237 2.41-4.123 4.746-8.274 6.742-12.263 1.051-1.974 1.887-3.956 2.793-5.787.879-1.843 1.502-3.675 2.191-5.317.658-1.656 1.045-3.234 1.525-4.604.498-1.361.725-2.621.928-3.645l.686-3.219z"/></g><g><path class="st8" d="M110.61 407.486s.285.33.791.902c.258.27.545.686.926 1l1.258 1.135c.994.813 2.199 1.75 3.514 2.73a52.08 52.08 0 0 0 4.229 2.828c2.992 1.794 6.057 3.541 8.17 5.117.52.407.994.783 1.41 1.117.43.32.732.684 1.018.932.553.533.865.84.865.84s-.332-.282-.912-.785c-.299-.238-.621-.576-1.066-.871-.436-.303-.922-.648-1.461-1.02-2.188-1.443-5.312-2.994-8.424-4.615a54.808 54.808 0 0 1-4.482-2.631 102.17 102.17 0 0 1-3.723-2.561c-.537-.437-1.033-.836-1.465-1.188-.459-.347-.723-.701-1.008-.972a94.512 94.512 0 0 1-.846-.858l1.206-1.1z"/></g><g><path class="st7" d="M116.003 404.715s1.201-2.412 3.127-5.963c.98-1.766 2.084-3.852 3.344-6.039 1.264-2.185 2.607-4.518 3.943-6.855 1.389-2.307 2.773-4.616 4.066-6.783 1.295-2.166 2.582-4.148 3.646-5.865 2.166-3.426 3.697-5.662 3.697-5.662s-1.189 2.409-3.102 5.962c-.98 1.771-2.072 3.858-3.332 6.05a5779.584 5779.584 0 0 0-3.934 6.871c-1.391 2.309-2.781 4.617-4.086 6.777-1.303 2.169-2.598 4.148-3.664 5.866-2.174 3.408-3.705 5.641-3.705 5.641z"/></g><g><path class="st1" d="M472.032 514.75c41.996-6.612 62.236-93.701 72.186-129.119 12.281-43.715 51.9-75.697 13.107-135.459-57.365-88.374-231.764-62.783-225.598 47.505 1.506 26.717 16.656 52.94 20.047 78.577 4.242 32.098 9.568 62.895 28.273 90.781 32.346 48.166 55.301 51.934 101.207 44.892"/><path class="st9" d="M441.286 512.596c2.16-5.463-.123-16.622-.398-22.785-.357-7.547-.418-15.197-.418-22.828 0-7.045-.395-14.447 7.736-15.48 5.287-.666 18.057-1.451 20.393 3.671 1.131 2.496.867 8.333 1.098 11.103.354 3.807.314 7.439.508 11.277.424 8.238.908 16.893.412 25.266-.127 1.994-.158 7.283-1.318 8.873-1.764 2.411-6.408 1.157-9.365 1.305-3.24.158-18.318 3.644-18.646-.806"/><path class="st9" d="M443.325 450.696c-.117-5.171-4.305-12.511-6.43-17.499-2.549-6.006-5.578-11.906-8.617-17.762-3.506-6.736-7.492-12.89-9.811-20.062-1.402-4.375-2.373-9.309-4.408-13.408 8.525-3.111 16.551-1.661 25.379-2.221 3.887-.242 6.531-1.906 10.922-1.023 3.418.686 6.623 1.277 10.066 1.924 3.227.582 7.166 2.65 10.1 2.342 2.961-.318 6.639-1.91 9.854-2.342 2.168-.316 9.508-1.58 10.92.811.799 1.337-1.904 8.135-2.445 10.188-3.865 14.574-12.594 27.905-16.307 42.664-.879 3.457-1.855 7.015-3.25 10.274-.531 1.241-1.148 3.049-2.055 4.076-1.945 2.193.209 1.098-2.744 1.302-4.262.29-21.627-4.043-21.58 4.804"/><path class="st1" d="M409.878 518.197c0 4.231.287 8.361.475 12.365.205 4.154 1.205 6.544 1.902 9.967 1.275 6.312-3.686 4.639-4.285 8.566-.463 2.989 3.943 5.318 3.742 9.417-2.242.147-3.113 1.364-3.254 3.419-.244 3.438 1.998 1.85 2.975 4.143 2.465 5.793-3.49 3.855-3.938 8.199-.273 2.631 1.799 2.006 2.752 3.453 1.311 1.973 1.096 2.263 2.008 4.63 1.424 3.738 3.346 5.276 6.297 8.448 4.775 5.113 8.562 13.146 14.023 17.332 5.311 4.075 18.465 2.271 25.301 2.257 4.129 0 7.912.79 11.064-1.766 2.418-1.97 4.209-5.958 6.615-8.216 6.062-5.685 15.141-7.682 18.822-15.674 2.156-4.716-1.432-6.078-1.338-9.996.098-4.236 4.016-4.24 2.73-9.363-.436-1.652-2.43-2.616-2.248-4.379.373-3.537 2.783-1.236 3.727-3.818 1.553-4.261-5.367-5.498-2.674-9.516 1.377-2.049 4.113.196 5.15-2.354 1.18-2.938-2.355-3.634-3.488-5.127-3.482-4.664-2.428-6.248 2.424-8.298.357-2.468-1.641-3.928-2.408-6.084-.857-2.396-.777-4.438-.877-7.051-6.018.303-13.285-.696-19.531-1-8.143-.406-16.422-.239-24.646-.492-8.41-.282-17.107-1.803-25.613-.958-3.371.335-5.771 1.499-8.93 2.494-2.152.673-6.852 1.518-6.777 1.771"/><path class="st1" d="M411.8 544.721c8.15.323 18.115 2.846 26.453 2.468 9.146-.414 18.58-.759 27.564-1.261 9.463-.522 19.572-1.361 28.381-3.711M411.8 560.611c8.15.314 18.115 2.84 26.453 2.463 9.146-.412 18.58-.753 27.564-1.258 9.463-.531 19.572-1.369 28.381-3.713M411.8 576.488c8.15.33 18.115 2.854 26.453 2.475 9.146-.426 18.58-.762 27.564-1.266 9.463-.525 19.572-1.355 28.381-3.711"/><path class="st9" d="M415.56 383.274c-7.275 1.888-24.354-20.864-30.002-27.353M449.083 378.865c5.734-7.575-3.504-24.405-4.24-32.959-.84-9.489 1.295-21.459-1.93-29.688M483.495 380.621c5.549-11.387 16.725-20.734 23.625-31.681 5.334-8.454 8.883-18.792 15.203-26.556M305.132 284.128c.041 1.465-22.102-5.455-27.725-7.278-9.285-3.003-22.277-5.254-30.289-10.607M329.96 238.576c-.709-11.93-29.164-31.551-37.998-39.539-6.85-6.193-29.193-21.148-29.943-31.07M387.71 200.972c-3.109-6.889-8.932-14.138-12.338-21.601-10.408-22.8-15.906-47.406-26.045-70.355-6.371-14.43-12.369-29.068-19.238-43.267-1.814-3.751-5.176-13.132-6.678-11.955M434.97 169.337c.133-8.321-.396-16.582-.879-24.844M480.849 183.856c3.537-1.689 2.352-2.218 4.514-6.071 7.992-14.168 13.457-32.297 17.461-47.881 9.01-35.082 12.764-72.586 27.373-106.089.766-.392.787.319.074 2.086M519.903 186.59c6.23-20.891 19.797-42.432 29.125-55.753M549.677 227.093c3.535-3.119 6.1-8.226 8.854-12.464 11.193-17.229 24.113-33.062 36.297-49.604 16.143-21.916 31.883-44.08 49.361-64.989 5.799-6.942 15.838-14.778 18.428-23.799-.963-.055-1.834.22-2.633.856M594.681 273.865c7.658-1.582 15.814-8.766 21.648-13.834 11.537-9.998 23.037-19.375 34.92-28.886 4.369-3.497 10.158-12.378 14.908-13.761M597.331 332.978c14.854-4.706 31.232-5.259 45.891-10.593"/><g><path class="st13" d="M457.724 507.158c41.992-6.616 62.24-93.703 72.186-129.125 12.281-43.715 51.922-75.691 13.117-135.459-57.381-88.373-231.777-62.79-225.604 47.502 1.502 26.721 16.648 52.943 20.045 78.582 4.238 32.094 9.564 62.893 28.279 90.773 32.346 48.173 55.301 51.938 101.197 44.895"/><path class="st9" d="M426.983 504.996c2.156-5.463-.123-16.617-.402-22.772-.357-7.558-.414-15.202-.414-22.841 0-7.045-.395-14.445 7.732-15.471 5.293-.676 18.049-1.463 20.391 3.66 1.137 2.498.867 8.33 1.104 11.113.352 3.788.309 7.439.502 11.268.418 8.252.914 16.893.412 25.262-.123 2.002-.158 7.287-1.309 8.879-1.768 2.411-6.412 1.167-9.377 1.305-3.232.152-18.311 3.652-18.639-.81"/><path class="st9" d="M429.011 443.097c-.113-5.163-4.295-12.509-6.418-17.499-2.557-6.002-5.584-11.902-8.625-17.762-3.502-6.732-7.48-12.89-9.803-20.061-1.408-4.371-2.375-9.304-4.406-13.398 8.512-3.113 16.553-1.678 25.377-2.226 3.875-.251 6.533-1.919 10.92-1.023 3.42.678 6.621 1.274 10.062 1.914 3.238.595 7.174 2.657 10.1 2.348 2.965-.323 6.645-1.903 9.85-2.348 2.174-.308 9.516-1.575 10.93.81.787 1.341-1.906 8.132-2.453 10.188-3.865 14.58-12.592 27.91-16.303 42.662-.881 3.473-1.85 7.025-3.242 10.287-.535 1.239-1.15 3.051-2.062 4.065-1.939 2.209.209 1.104-2.742 1.309-4.262.296-21.625-4.04-21.584 4.804"/><path class="st2" d="M395.565 510.604c0 4.226.291 8.355.479 12.358.209 4.152 1.213 6.543 1.908 9.975 1.271 6.303-3.693 4.637-4.283 8.561-.455 2.99 3.936 5.318 3.734 9.416-2.242.154-3.109 1.371-3.254 3.422-.236 3.436 1.994 1.844 2.986 4.145 2.451 5.793-3.498 3.854-3.949 8.195-.271 2.639 1.807 2.003 2.75 3.461 1.32 1.965 1.104 2.252 2.016 4.626 1.426 3.734 3.354 5.271 6.295 8.437 4.773 5.119 8.562 13.16 14.016 17.347 5.32 4.06 18.475 2.261 25.309 2.25 4.125 0 7.906.792 11.062-1.771 2.42-1.958 4.207-5.942 6.617-8.206 6.068-5.701 15.141-7.686 18.818-15.684 2.162-4.706-1.426-6.077-1.332-9.98.102-4.248 4.023-4.251 2.717-9.371-.424-1.656-2.426-2.625-2.244-4.39.379-3.528 2.791-1.231 3.74-3.802 1.543-4.273-5.379-5.495-2.676-9.521 1.367-2.045 4.111.193 5.143-2.354 1.191-2.942-2.35-3.632-3.48-5.127-3.49-4.652-2.436-6.254 2.416-8.285.361-2.48-1.633-3.938-2.404-6.098-.861-2.4-.773-4.444-.879-7.055-6.012.309-13.283-.686-19.525-.997-8.158-.407-16.422-.227-24.648-.495-8.412-.28-17.109-1.8-25.613-.959-3.379.341-5.777 1.512-8.934 2.5-2.148.671-6.857 1.514-6.783 1.77"/><path class="st0" d="M397.489 537.124c8.154.319 18.121 2.847 26.459 2.466 9.146-.411 18.576-.756 27.561-1.254 9.471-.537 21.619-3.398 30.428-5.746M395.224 553.196c8.154.317 20.387 2.655 28.725 2.282 9.146-.426 18.576-.758 27.561-1.262 9.471-.529 19.574-.268 28.383-2.613M393.187 566.676c7.75 2.498 22.424 5.063 30.762 4.688 9.146-.416 18.576-.764 27.561-1.27 9.471-.525 19.574-1.354 28.383-3.707"/><path class="st9" d="M401.251 375.677c-7.273 1.896-24.348-20.865-30.004-27.353"/><path class="st1" d="M434.78 371.271c5.736-7.579-3.506-24.397-4.248-32.967-.832-9.484 1.305-21.451-1.922-29.692M469.187 373.021c5.555-11.385 16.729-20.723 23.619-31.686 5.34-8.453 8.898-18.792 15.219-26.543M290.827 276.529c.043 1.463-22.1-5.453-27.717-7.279-9.297-3.004-22.287-5.25-30.301-10.608M315.653 230.969c-.709-11.916-29.164-31.537-37.998-39.526-6.85-6.196-29.195-21.145-29.941-31.067M373.403 193.369c-3.109-6.88-8.936-14.128-12.348-21.599-10.398-22.796-15.902-47.404-26.031-70.349-6.375-14.43-12.367-29.075-19.238-43.275-1.82-3.751-5.18-13.126-6.682-11.945M420.665 161.739c.137-8.322-.391-16.586-.879-24.84M466.552 176.259c3.525-1.686 2.348-2.223 4.516-6.073 7.984-14.165 13.445-32.295 17.451-47.879 9.006-35.086 12.76-72.58 27.365-106.091.771-.393.793.319.084 2.085M505.589 178.992c6.23-20.893 19.803-42.428 29.139-55.752M535.374 219.491c3.539-3.116 6.094-8.224 8.852-12.458 11.188-17.229 24.115-33.066 36.293-49.595 16.148-21.929 31.883-44.089 49.363-65 5.803-6.94 15.83-14.77 18.426-23.788-.951-.071-1.838.216-2.631.842M580.376 266.262c7.658-1.569 15.816-8.764 21.646-13.82 11.531-10.004 23.035-19.38 34.914-28.891 4.371-3.5 10.17-12.379 14.912-13.758M583.021 325.387c14.855-4.71 31.236-5.256 45.893-10.594"/></g></g></svg>