<svg xmlns="http://www.w3.org/2000/svg" width="125.667" height="87" viewBox="0 0 125.667 87"><g fill="#FFF" stroke="#3F3832" stroke-miterlimit="10"><path d="M11.915 11.66c0 1.222-.743 2.125-2.02 2.125-1.062 0-1.86-.904-1.86-2.125 0-1.17.85-2.126 1.966-2.126 1.17 0 1.914.956 1.914 2.126M8.974 26.674h2.003v48.861H8.974V26.674zM77.593 40.722c0 24.634-13.676 35.832-28.645 35.832-15.292 0-27.675-12.113-27.675-34.812 0-23.31 12.814-35.832 28.751-35.832 15.616-.001 27.569 12.316 27.569 34.812m-54.29.509c0 18.678 9.053 33.188 25.74 33.188 16.803 0 26.441-14.957 26.441-33.401 0-17.104-7.722-32.713-25.343-32.713S23.303 23.002 23.303 41.231M84.943 70.242c3.36 2.239 9.16 4.402 14.148 4.402 9.467 0 17.887-6.623 17.887-16.371 0-9.046-5.609-13.767-15.131-17.821-8.522-3.629-16.184-7.567-16.184-17.238 0-10.077 7.938-17.203 18.729-17.203 5.803 0 10.18 1.628 12.216 3.054l-.81 1.757c-1.73-1.22-6.407-2.776-11.496-2.776-11.404 0-16.372 8.617-16.372 14.96 0 8.762 6.792 11.691 15.546 15.865 10.179 4.988 15.574 9.385 15.574 18.955 0 10.281-7.328 18.627-20.358 18.627-5.396 0-11.605-1.833-14.659-4.174l.91-2.037z"/></g></svg>