<svg id="Capa_1" xmlns="http://www.w3.org/2000/svg" width="84.615" height="83.616" viewBox="0 0 84.615 83.616"><style>.st0{fill:#ff5f5c}.st1{fill:#3f352e}.st2{fill:#fff;stroke:#3f352e;stroke-width:2;stroke-miterlimit:10}</style><path class="st0" d="M40.314 7.313c9.402 0 14.833-1.26 21.935 7.322 4.952 5.985 7.593 12.93 8.224 20.562 2.319 28.055-25.936 43.42-48.055 26.469-12.397-9.497-18.842-27.817-7.958-40.827 7.177-8.58 14.915-14.351 27.25-13.536"/><path class="st1" d="M42.228 69.51c-6.957 0-14.074-2.441-20.296-7.207-7.583-5.81-12.688-14.496-13.654-23.238-.773-6.98 1.153-13.462 5.569-18.744C20.291 12.62 28.138 5.618 41.738 6.503c.597-.006 1.18-.015 1.747-.025 7.478-.129 12.876-.215 19.381 7.646 4.915 5.941 7.743 13.012 8.405 21.008 1.116 13.505-4.61 25.057-15.321 30.903-4.268 2.329-8.957 3.475-13.722 3.475zM39.466 8.028c-11.583 0-18.573 6.365-24.392 13.323-4.129 4.938-5.93 11-5.206 17.539.919 8.315 5.793 16.592 13.037 22.141 10.125 7.764 22.192 9.107 32.278 3.602 10.138-5.535 15.555-16.513 14.492-29.367-.634-7.668-3.34-14.436-8.042-20.117-6.015-7.271-10.579-7.201-18.121-7.068-1.016.018-2.079.033-3.198.033V8.04a30.133 30.133 0 0 0-.848-.012z"/><path class="st2" d="M41.727 42.552l.89 7.684c0 .779-.322 1.414-.961 1.894a3.44 3.44 0 0 1-2.131.729 3.705 3.705 0 0 1-2.156-.682c-.655-.449-.983-1.037-.983-1.755l-.609-9.323v-.703l-5.341.422c-2.716 0-4.075-1.016-4.075-3.047 0-.655.194-1.229.585-1.731.39-.5.914-.75 1.569-.75l5.669.329c.811 0 1.546-.063 2.202-.188l-.562-7.027c0-3.53 1.031-5.293 3.092-5.293.718 0 1.304.266 1.758.795.452.534.679 1.189.679 1.969v1.17c0 5.715.421 8.575 1.265 8.575l5.573-.375c3.312 0 4.967.969 4.967 2.902 0 .752-.265 1.377-.796 1.874-.531.504-1.172.75-1.921.75l-5.668-.514c-2.031-.002-3.046.764-3.046 2.295z"/></svg>