<svg id="Capa_1" xmlns="http://www.w3.org/2000/svg" width="128.994" height="146.993" viewBox="0 0 128.994 146.993"><style>.st0{stroke:#3f352e;stroke-miterlimit:10}.st0,.st1{fill-rule:evenodd;clip-rule:evenodd;fill:#fff}.st2{fill:#3f352e}</style><path class="st0" d="M25.341 125.822v-12.98h-7.284c-3.875 0-7.018 2.905-7.018 6.491 0 3.583 3.142 6.489 7.018 6.489h2.231V123h-2.222c-2.253 0-4.089-1.585-4.089-3.667 0-2.084 1.791-3.671 4.042-3.671h4.521v10.16h2.801zM34.618 112.353c-3.72 0-6.737 2.561-6.737 6.441v7.027h2.741v-7.184c0-2.499 2.135-3.941 3.996-3.941 1.859 0 3.959 1.442 3.959 3.941l-.002 7.184h2.78v-7.027c0-3.881-3.016-6.441-6.737-6.441zM56.528 119.251c0-3.742-2.47-6.409-6.191-6.409h-6.176v2.82h6.325c2.397 0 3.387 1.679 3.387 3.549 0 1.87-1.027 3.789-3.425 3.789l-6.325-.001v2.794H50.3c3.72 0 6.228-2.802 6.228-6.542zM107.617 119.251c0-3.742-2.472-6.409-6.192-6.409H95.25v2.82h6.325c2.397 0 3.386 1.679 3.386 3.549 0 1.87-1.026 3.789-3.424 3.789l-6.324-.001v2.794h6.175c3.719 0 6.229-2.802 6.229-6.542zM69.338 121.438c1.194-.651 1.788-1.846 1.788-3.89 0-3.597-1.91-4.706-5.632-4.706h-6.175v2.82h6.326c2.397 0 2.825.765 2.825 1.848 0 1.083-.347 2.01-2.745 2.01h-6.324l-.004 2.593h6.176c.059 0 .116 0 .174-.002a2.453 2.453 0 0 1 2.182 2.44c0 .408.071.791-.103 1.127.001.047.17.095.17.144h2.55c.001 0 .465-2.763-1.208-4.384zM73.686 119.145c0 3.692 2.867 6.686 6.406 6.686 3.538 0 6.407-2.994 6.407-6.686 0-3.688-2.87-6.681-6.407-6.681-3.539 0-6.406 2.992-6.406 6.681zm2.57 0c0-2.208 1.718-4 3.836-4s3.834 1.792 3.834 4c0 2.213-1.716 4.002-3.834 4.002-2.118-.001-3.836-1.79-3.836-4.002zM89.626 112.842h2.809v12.98h-2.809z"/><g><path class="st1" d="M92.548 70.526c-3.297 0-5.979-2.721-5.979-6.064V42.714c0-3.344 2.682-6.064 5.979-6.064 3.298 0 5.98 2.721 5.98 6.064v21.748c.001 3.344-2.682 6.064-5.98 6.064zm-66.091 0c-3.297 0-5.979-2.721-5.979-6.064V42.714c0-3.344 2.682-6.064 5.979-6.064s5.979 2.721 5.979 6.064v21.748c0 3.344-2.682 6.064-5.979 6.064z"/><path class="st2" d="M92.548 37.15c3.027 0 5.48 2.492 5.48 5.564v21.748c0 3.073-2.453 5.564-5.48 5.564-3.025 0-5.479-2.491-5.479-5.564V42.714c0-3.072 2.454-5.564 5.479-5.564m-66.091 0c3.026 0 5.479 2.492 5.479 5.564v21.748c0 3.073-2.453 5.564-5.479 5.564-3.026 0-5.479-2.491-5.479-5.564V42.714c0-3.072 2.453-5.564 5.479-5.564m66.091-1c-3.573 0-6.479 2.945-6.479 6.564v21.748c0 3.62 2.906 6.564 6.479 6.564s6.48-2.945 6.48-6.564V42.714c.001-3.619-2.906-6.564-6.48-6.564zm-66.091 0c-3.573 0-6.479 2.945-6.479 6.564v21.748c0 3.62 2.906 6.564 6.479 6.564s6.479-2.945 6.479-6.564V42.714c0-3.619-2.906-6.564-6.479-6.564z"/><path class="st1" d="M69.355 99.487c-3.297 0-5.979-2.721-5.979-6.065v-11.6h-7.529v11.6c0 3.345-2.682 6.065-5.979 6.065s-5.98-2.721-5.98-6.065v-11.6h-4.381a4.778 4.778 0 0 1-4.772-4.772V36.818H84.49V77.05a4.779 4.779 0 0 1-4.774 4.772h-4.381v11.6c-.001 3.345-2.683 6.065-5.98 6.065z"/><path class="st2" d="M83.989 37.318V77.05a4.272 4.272 0 0 1-4.274 4.272h-4.881v12.1c0 3.075-2.453 5.565-5.479 5.565-3.026 0-5.479-2.49-5.479-5.565v-12.1h-8.529v12.1c0 3.075-2.454 5.565-5.479 5.565-3.026 0-5.48-2.49-5.48-5.565v-12.1h-4.881a4.271 4.271 0 0 1-4.272-4.272V37.318h48.754m1-1H34.234V77.05a5.278 5.278 0 0 0 5.272 5.272h3.881v11.1c0 3.62 2.907 6.565 6.48 6.565 3.573 0 6.479-2.945 6.479-6.565v-11.1h6.529v11.1c0 3.62 2.906 6.565 6.479 6.565s6.479-2.945 6.479-6.565v-11.1h3.881a5.279 5.279 0 0 0 5.274-5.272V36.318h.001z"/><g><path class="st1" d="M34.581 34.277l.047-.543c.625-7.236 5.311-13.628 12.575-17.203l-4.173-6.056c-.423-.615-.298-1.438.276-1.835.202-.139.44-.212.689-.212.442 0 .862.228 1.124.609l4.455 6.465c3.134-1.183 6.472-1.782 9.928-1.782 3.458 0 6.796.6 9.93 1.782l4.455-6.466a1.372 1.372 0 0 1 1.124-.608 1.203 1.203 0 0 1 1.195 1.006c.065.355-.019.734-.231 1.042l-4.171 6.055c7.263 3.574 11.949 9.966 12.575 17.203l.047.543H34.581zm35.544-12.138a2.2 2.2 0 0 0-2.199 2.197c0 1.212.986 2.199 2.199 2.199a2.198 2.198 0 0 0 0-4.396zm-20.906 0a2.2 2.2 0 0 0-2.199 2.197c0 1.212.986 2.199 2.199 2.199a2.2 2.2 0 0 0 2.197-2.199 2.2 2.2 0 0 0-2.197-2.197z"/><path class="st2" d="M75.01 8.928a.71.71 0 0 1 .405.124c.35.241.417.751.148 1.14L71.06 16.73c7.161 3.331 12.181 9.661 12.821 17.048H35.126c.638-7.387 5.661-13.717 12.821-17.048l-4.505-6.538c-.267-.388-.201-.898.149-1.14a.71.71 0 0 1 .405-.124c.265 0 .538.139.711.392l4.679 6.791c3.083-1.215 6.508-1.891 10.116-1.891 3.609 0 7.035.675 10.118 1.891l4.678-6.791a.878.878 0 0 1 .712-.392m-4.885 18.106a2.697 2.697 0 1 0 0-5.395 2.697 2.697 0 0 0 0 5.395m-20.906 0a2.697 2.697 0 1 0 0-5.395 2.697 2.697 0 0 0 0 5.395M75.01 7.928c-.606 0-1.18.308-1.536.825l-4.234 6.146c-3.083-1.114-6.355-1.679-9.738-1.679-3.382 0-6.653.564-9.737 1.679L45.53 8.753a1.87 1.87 0 0 0-1.535-.824c-.351 0-.688.104-.973.301-.801.553-.983 1.688-.405 2.529l3.849 5.585c-7.129 3.698-11.711 10.108-12.336 17.348l-.094 1.086H84.971l-.094-1.086c-.627-7.24-5.209-13.65-12.336-17.348l3.847-5.584c.286-.415.4-.931.311-1.415a1.72 1.72 0 0 0-.716-1.115 1.7 1.7 0 0 0-.973-.302zm-4.885 18.106a1.7 1.7 0 0 1-1.699-1.699 1.699 1.699 0 1 1 1.699 1.699zm-20.906 0a1.7 1.7 0 0 1-1.699-1.699 1.699 1.699 0 1 1 1.699 1.699z"/></g></g></svg>