<svg id="Capa_1" xmlns="http://www.w3.org/2000/svg" width="196" height="260" viewBox="0 0 196 260"><style>.st0,.st1{fill:#fff;stroke:#1e120d;stroke-miterlimit:10}.st1{fill:none;stroke-width:.5}.st2,.st3,.st4{stroke:#3f352e;stroke-miterlimit:10}.st2{opacity:.2;fill:#f9f7e0}.st3,.st4{fill:none}.st4{stroke:#1e120d}</style><path class="st0" d="M22.59 12.802c4.969-2.355 21.424-1.513 25.627-1.513 8.188 0 15.77.699 23.707.506 17.686-.433 60.445-.433 68.102-.811 19.111.225 33.473-2.748 37.049 6.778 2.299 6.117 1.078 34.815 1.078 42.839 0 17.584-.48 145.825-.43 165.002.016 6.131.656 14.613-6.135 16.738-6.693 2.094-37.082 1.393-45.244 1.393-9.141 0-95.68.854-101.664-.72-6.057-1.593-7.637-7.442-7.867-12.526-.689-15.156.596-108.012.596-135.262 0-20.398-.359-40.439-.359-60.95 0-4.183.004-8.365 0-12.547-.007-4.645 4.444-7.975 5.54-8.927"/><path class="st4" d="M24.461 15.658c4.844-2.296 20.887-1.473 24.988-1.473 7.98 0 15.371.68 23.113.49 17.246-.421 58.939-.421 66.402-.79 18.635.218 32.637-2.679 36.127 6.608 2.24 5.965 1.051 33.95 1.051 41.771 0 17.143-.471 142.189-.422 160.886.018 5.979.643 14.251-5.979 16.321-6.527 2.043-36.16 1.359-44.115 1.359-8.914 0-93.295.83-99.131-.703-5.904-1.553-7.443-7.256-7.668-12.212-.672-14.78.58-105.319.58-131.89 0-19.891-.354-39.431-.354-59.431 0-4.079.006-8.156 0-12.234-.002-4.526 4.338-7.774 5.408-8.702"/><path class="st3" d="M35.582 29.724c2.561-1.224 119.152 2.098 125.336 1.798.025-.314.057 92.594.062 139.459.004 16.5.031 34.24.422 50.678-8.422.704-14.021 1.037-22.311.704-4.59-.187-23.002.233-27.775.441-8.373.364-62.176-.282-66.572-.441-3.404-.126-7.859-.569-11.516-.058-.74-3.808 1.701-165.251 2.199-173.877.379-6.599.02-13.76.025-18.95"/><path class="st2" d="M94.967 227.564c-.752 0-4.457.247-4.316 4.738.047 1.506.697 2.807 1.896 3.556 1.303.815 3.451.11 4.658-.476 1.441-.701 3.203-7.589-2.238-7.818"/><path class="st1" d="M93.336 230.582c.203 0 2.32.065 2.57.041.129-.013.271-.041.414.047.029.682-.037 1.27-.037 1.947 0 .328.01.674-.041 1.18-.723.072-2.365.039-2.672-.006-.029-.006-.141-.002-.166-.026-.027-.026-.014-.071-.027-.11-.086-.223-.08-.547-.096-.779-.025-.362-.006-2.023 0-2.046.014.009.039-.24.055-.228"/></svg>