<svg id="Capa_1" xmlns="http://www.w3.org/2000/svg" width="532.473" height="725.963" viewBox="0 0 532.473 725.963"><style>.st0,.st1,.st2,.st3{stroke-width:2;stroke-miterlimit:10}.st0{fill:none;stroke:#1e120d}.st1,.st2,.st3{stroke:#3f352e}.st1{opacity:.2;fill:#f9f7e0}.st2,.st3{fill:none}.st3{fill:#fff;stroke:#1e120d}</style><path class="st3" d="M49.525 29.291c14.442-6.848 62.283-4.396 74.502-4.396 23.803 0 45.842 2.033 68.918 1.468 51.417-1.256 175.727-1.256 197.985-2.356 55.557.653 97.308-7.985 107.707 19.706 6.68 17.785 3.134 101.214 3.134 124.54 0 51.118-1.399 423.939-1.252 479.688.046 17.822 1.911 42.486-17.832 48.662-19.458 6.087-107.807 4.048-131.532 4.048-26.573 0-278.156 2.479-295.554-2.092-17.61-4.631-22.201-21.639-22.871-36.419-2.005-44.062 1.731-314.007 1.731-393.227 0-59.302-1.045-117.564-1.045-177.192 0-12.161.012-24.321 0-36.479-.016-13.503 12.921-23.185 16.109-25.951"/><path class="st0" d="M54.962 37.593c14.081-6.673 60.724-4.282 72.647-4.282 23.2 0 44.687 1.979 67.194 1.429 50.134-1.225 171.344-1.225 193.04-2.298 54.177.633 94.883-7.786 105.026 19.21 6.516 17.344 3.058 98.699 3.058 121.438 0 49.839-1.371 413.367-1.227 467.722.049 17.38 1.868 41.43-17.383 47.45-18.974 5.937-105.121 3.949-128.248 3.949-25.917 0-271.224 2.416-288.189-2.043-17.168-4.513-21.642-21.096-22.295-35.504-1.953-42.966 1.687-306.178 1.687-383.425 0-57.822-1.025-114.63-1.025-172.773 0-11.857.015-23.712 0-35.567-.01-13.167 12.603-22.607 15.715-25.306"/><path class="st2" d="M87.292 78.486c7.447-3.558 346.398 2.098 364.376 1.227.073-.913.164 273.184.182 409.43.008 47.97.091 99.541 1.226 147.332-24.483 2.041-40.763 3.012-64.86 2.041-13.346-.54-66.873.683-80.747 1.287-24.342 1.058-180.756-.821-193.537-1.287-9.896-.362-22.851-1.654-33.48-.163-2.149-11.071 4.948-480.412 6.394-505.492 1.104-19.182.06-40.003.077-55.093"/><path class="st1" d="M259.937 653.643c-2.186-.003-12.96.715-12.549 13.771.134 4.381 2.027 8.161 5.511 10.339 3.79 2.37 10.036.322 13.542-1.384 4.193-2.039 9.312-22.064-6.504-22.726"/><path class="st0" d="M255.193 662.416c.591 0 6.748.188 7.476.116.372-.035.786-.116 1.2.137.089 1.982-.107 3.691-.107 5.665 0 .949.031 1.956-.116 3.425-2.102.21-6.879.116-7.768-.017-.088-.018-.412-.005-.485-.075-.08-.075-.037-.209-.08-.321-.25-.646-.229-1.588-.278-2.266-.073-1.056-.017-5.884 0-5.949.04.027.117-.696.159-.661"/></svg>