<svg xmlns="http://www.w3.org/2000/svg" width="488" height="702" viewBox="0 0 488 702"><g stroke-width="2" stroke-miterlimit="10"><path fill="#FFF" stroke="#211915" d="M26.996 18.781c14.442-6.848 62.283-4.396 74.502-4.396 23.803 0 45.842 2.033 68.918 1.468 51.417-1.256 175.727-1.256 197.985-2.356 55.557.653 97.308-7.985 107.707 19.706 6.68 17.785 3.134 101.214 3.134 124.54 0 51.118-1.399 423.939-1.252 479.688.046 17.822 1.911 42.486-17.832 48.662-19.459 6.086-107.807 4.047-131.532 4.047-26.573 0-278.156 2.48-295.554-2.092-17.61-4.629-22.201-21.637-22.871-36.416-2.005-44.062 1.731-314.007 1.731-393.227 0-59.302-1.045-117.564-1.045-177.192 0-12.161.012-24.321 0-36.479-.016-13.505 12.922-23.187 16.109-25.953"/><path fill="none" stroke="#211915" d="M32.434 27.083c14.081-6.673 60.724-4.282 72.647-4.282 23.2 0 44.687 1.979 67.194 1.429 50.134-1.225 171.344-1.225 193.04-2.298 54.177.633 94.883-7.786 105.026 19.21 6.516 17.344 3.058 98.699 3.058 121.438 0 49.839-1.371 413.367-1.227 467.722.049 17.379 1.868 41.43-17.383 47.449-18.974 5.938-105.121 3.949-128.248 3.949-25.917 0-271.224 2.416-288.189-2.043-17.168-4.512-21.642-21.096-22.295-35.504-1.953-42.965 1.687-306.177 1.687-383.424 0-57.822-1.025-114.63-1.025-172.773 0-11.857.015-23.712 0-35.567-.011-13.167 12.602-22.607 15.715-25.306"/><path fill="none" stroke="#3F3832" d="M64.764 67.976c7.447-3.558 346.398 2.098 364.376 1.227.073-.913.164 273.184.182 409.43.008 47.97.091 99.541 1.226 147.333-24.483 2.041-40.763 3.012-64.86 2.041-13.346-.541-66.873.682-80.747 1.287-24.342 1.057-180.756-.822-193.537-1.287-9.896-.363-22.851-1.654-33.48-.164-2.149-11.07 4.948-480.412 6.394-505.492 1.104-19.182.06-40.003.077-55.093"/><path opacity=".2" fill="#F8F7E1" stroke="#3F3832" d="M237.408 643.133c-2.186-.002-12.96.715-12.549 13.771.134 4.381 2.027 8.162 5.511 10.34 3.79 2.369 10.036.322 13.542-1.385 4.193-2.039 9.313-22.064-6.504-22.726"/><path fill="none" stroke="#211915" d="M232.664 651.906c.591 0 6.748.188 7.476.115.372-.035.786-.115 1.2.137.089 1.982-.107 3.691-.107 5.666 0 .949.031 1.955-.116 3.424-2.102.211-6.879.117-7.768-.016-.088-.018-.412-.006-.485-.076-.08-.074-.037-.209-.08-.32-.25-.646-.229-1.588-.278-2.266-.073-1.057-.017-5.885 0-5.949.04.027.117-.697.159-.662"/></g></svg>