<svg xmlns="http://www.w3.org/2000/svg" width="168" height="244" viewBox="0 0 168 244"><g stroke-miterlimit="10"><path fill="#FFF" stroke="#211915" d="M9.757 7.635c4.968-2.355 21.424-1.512 25.627-1.512 8.188 0 15.769.699 23.706.505 17.687-.432 60.446-.432 68.103-.811 19.11.225 33.472-2.747 37.049 6.779 2.298 6.117 1.078 34.815 1.078 42.838 0 17.584-.481 145.826-.431 165.002.016 6.13.657 14.614-6.134 16.738-6.693 2.094-37.083 1.392-45.244 1.392-9.141 0-95.68.854-101.664-.719-6.058-1.592-7.637-7.442-7.867-12.526-.69-15.156.595-108.01.595-135.261 0-20.398-.359-40.439-.359-60.95 0-4.183.004-8.365 0-12.547-.006-4.646 4.444-7.976 5.541-8.928"/><path fill="none" stroke="#211915" d="M11.627 10.491c4.844-2.295 20.888-1.473 24.989-1.473 7.98 0 15.371.68 23.113.491 17.245-.421 58.938-.421 66.401-.791 18.636.218 32.638-2.678 36.127 6.608 2.241 5.966 1.052 33.951 1.052 41.772 0 17.143-.472 142.189-.422 160.886.017 5.979.643 14.251-5.979 16.321-6.526 2.042-36.159 1.359-44.114 1.359-8.915 0-93.295.831-99.131-.703-5.905-1.552-7.444-7.256-7.669-12.212-.672-14.78.58-105.319.58-131.89 0-19.89-.353-39.43-.353-59.43 0-4.079.005-8.156 0-12.234-.003-4.528 4.336-7.776 5.406-8.704"/><path fill="none" stroke="#3F3832" d="M22.748 24.557c2.562-1.224 119.153 2.098 125.337 1.798.025-.314.057 92.593.062 139.459.003 16.5.031 34.24.422 50.678-8.422.704-14.021 1.037-22.311.704-4.591-.186-23.003.233-27.775.441-8.373.364-62.176-.282-66.572-.441-3.404-.125-7.86-.57-11.517-.058-.739-3.808 1.702-165.251 2.199-173.877.38-6.598.021-13.76.026-18.95"/><path opacity=".2" fill="#F8F7E1" stroke="#3F3832" d="M82.134 222.398c-.752-.001-4.458.247-4.316 4.737.046 1.507.697 2.808 1.896 3.556 1.304.816 3.452.111 4.658-.476 1.441-.701 3.202-7.589-2.238-7.817"/><path fill="none" stroke="#211915" stroke-width=".5" d="M80.502 225.416c.203 0 2.321.065 2.571.04.128-.012.271-.04.413.047.03.682-.037 1.27-.037 1.948 0 .327.011.674-.04 1.179-.723.072-2.366.04-2.672-.006-.03-.006-.142-.001-.167-.026-.027-.026-.013-.072-.027-.11-.086-.222-.079-.546-.096-.779-.025-.363-.006-2.024 0-2.046.014.009.04-.24.055-.228"/></g></svg>