<svg xmlns="http://www.w3.org/2000/svg" width="383" height="763" viewBox="0 0 383 763"><g stroke="#3F3832" stroke-width="2" stroke-miterlimit="10"><path fill="#FFF" d="M254.853 22.351c-.162-1.362.3-6.143.12-7.5 4.29-.959 57.703.691 57.703.691s-.199 5.066.242 7.049c52.769-2.168 60.765 40.953 62.895 51.104 3.602 17.164 1.174 594.942 1.195 615.587.016 15.58-3.388 37.157-15.354 47.219-5.014 4.22-16.691 18.29-134.746 14.916-15.904-.455-155.479-4.398-175.354-7.275-42.937-6.218-38.552-62.287-39.559-82.67C9.667 614.42 9.1 299.765 9.1 268.432c.016.105 0 2.211 0 .781.556-2.623-.021-6.047-.142-8.672-.907-.252-1.694-.039-2.606-.289-.394-7.801-.032-15.743-.21-23.594 7.619-3.571 2.937-30.138 2.983-36.568-.934-.717-2.145.631-2.438-.732-1.478-6.908-.739-20.822-.43-26.979 1.206.164 2.602-1.467 3.875-1.219-.32-13.219-1.033-73.337-.236-72.797 1.159-19.979-2.79-39.326 9.549-55.806 6.303-8.407 15.548-15.999 25.406-19.779 11.56-4.436 193.615.051 210.002-.427z"/><path fill="none" d="M330.338 31.331c21.861 1.302 34.525 25.849 35.998 35.479 2.612 17.248 2.648 77.61 2.24 154.394-.96 183.801 3.807 461.971 0 480.902-2.271 11.343-13.084 28.954-22.664 34.195-8.873 4.854-20.357 6.403-30.98 6.929-5.988.294-248.615-4.555-248.736-3.955-35.569-1.829-41.526-26.264-43.917-32.669-2.092-5.587-5.459-123.153-5.459-139.275 0-14.282-1.93-242.215-1.93-280.983 0-43.081-2.506-187.786 1.594-215.812.713-4.828 10.608-37.903 38.395-41.609 5.093-.682 262.695 1.642 275.459 2.404z"/><path fill="none" d="M22.756 308.099c-.645-17.99-.157-188.733 1.122-207.687 17.21.021 292.553-3.556 312.286-1.57 12.783 1.287 24.048.836 27.094 16.027 2.088 10.433-7.068 301.583-7.215 314.178-.194 17.656 1.956 206.604-.236 223.489-3.854-.039-304.577.742-318.431.742-8.416 0-11.672 1.313-12.213-7.867-.471-7.918-1.935-339.436-2.569-338.436"/><g fill="none"><path d="M194.941 46.287c.457 0-1.101-.019-1.441 0-.744.03-1.274 0-1.93.31-1.075.52-1.956 1.952-2.533 2.937-1.258 2.161-1.426 5.277-.199 7.513 1.117 2.008 2.979 3.916 5.632 3.54 2.796-.404 5.448-1.317 6.786-4.023 1.153-2.375 1.232-5.22-.414-7.393-1.028-1.359-4.385-2.835-6.062-3.054-.151.184-.131-.08-.078.171M145.068 71.5c-2.443.802-4.054 1.186-4.41 4.176-.236 2.111.66 4.703 3.052 5.142 6.167 1.141 6.911-10.147.954-9.152M167.475 73.106c-2.811 0-2.653 4.897-1.919 5.592 2.958 2.786 55.794 1.848 57.944.318 2.633-1.858 1.458-5.678-1.4-6.069-3.933-.538-51.636.141-54.625.159"/><path d="M168.439 69.256c-2.669 0-5.191.692-6.539 3.24-.975 1.828-3.424 11.535 8.149 10.898 2.003-.109 34.709-.332 37.31-.332 2.507 0 4.981-.154 7.488-.154 5.527 0 13.781-.271 13.508-7.68-.314-8.434-11.211-6.688-17.21-6.421-3.345.15-40.712.432-42.706.449-.215 0 0 0-.319.158M208.796 676.287c19.235 9.281 13.933 29.856 13.776 31.192-.236 2.005-4.673 12.757-7.074 15.389-11.395 12.49-28.699 7.71-31.867 6.239-3.078-1.433-6.203-3.31-8.626-5.707-2.433-2.411-5.097-4.702-6.591-7.828-9.607-20.053 7.158-35.908 11.363-38.209 4.09-2.243 11.662-4.196 14.692-4.168 4.343.039 10.337 1.174 14.327 3.092z"/><path d="M206.992 671.108c3.22.966 5.951 3.498 8.836 5.096 1.41.779 5.82 6.003 6.581 7.268 1.751 2.918 3.235 5.98 4.662 9.123.76 1.658 1.231 7.147 1.253 8.036 0 1.306-1.841 12.757-3.702 16.444-1.919 3.807-4.641 7.103-7.834 9.939-3.875 3.437-8.721 5.84-13.613 7.579-4.855 1.726-13.34.989-18.972-1.302-7.787-3.163-15.501-7.915-19.178-15.732-9.916-21.076 5.994-38.831 10.734-41.795 1.914-1.204 3.64-2.709 5.648-3.724 3.607-1.825 7.52-2.224 11.452-2.813 4.048-.616 13.188 1.3 14.614 1.881"/></g></g></svg>