<svg id="Capa_1" xmlns="http://www.w3.org/2000/svg" width="110" height="178" viewBox="0 0 110 178"><style>.st0,.st1,.st2,.st3{fill:#fff;stroke:#3f352e;stroke-miterlimit:10}.st1,.st2,.st3{fill:none}.st2,.st3{stroke-width:.25}.st3{stroke-width:.5}</style><path class="st0" d="M61.514 15.668c-.031-.254.055-1.144.021-1.396.799-.179 10.746.129 10.746.129s-.037.944.045 1.312c9.828-.404 11.316 7.627 11.713 9.518.672 3.196.219 110.797.223 114.641.004 2.902-.631 6.92-2.859 8.795-.934.785-3.107 3.405-25.094 2.777-2.961-.085-28.955-.819-32.656-1.355-7.996-1.158-7.18-11.6-7.367-15.396-.434-8.763-.539-67.361-.539-73.196.004.02 0 .412 0 .146.104-.489-.004-1.127-.025-1.615-.17-.047-.316-.007-.486-.054-.072-1.453-.006-2.932-.039-4.394 1.42-.665.547-5.612.557-6.81-.174-.135-.4.117-.455-.137-.275-1.287-.137-3.879-.08-5.025.225.03.484-.273.723-.227-.061-2.461-.193-13.658-.045-13.557.217-3.721-.52-7.324 1.779-10.394 1.174-1.565 2.895-2.979 4.73-3.684 2.151-.824 36.055.012 39.108-.078z"/><path class="st1" d="M75.57 17.34c4.072.244 6.43 4.814 6.705 6.609.486 3.211.492 14.451.416 28.752-.178 34.229.709 86.033 0 89.559-.422 2.112-2.436 5.393-4.221 6.368-1.652.905-3.791 1.192-5.77 1.29-1.115.055-46.299-.848-46.322-.736-6.623-.341-7.732-4.891-8.178-6.084-.391-1.041-1.018-22.936-1.018-25.938 0-2.66-.359-45.107-.359-52.326 0-8.024-.467-34.973.297-40.192.133-.899 1.977-7.058 7.15-7.749.951-.127 48.923.306 51.3.447z"/><path class="st1" d="M18.289 68.883c-.119-3.35-.029-35.147.209-38.678 3.205.004 54.482-.662 58.158-.292 2.381.239 4.479.155 5.045 2.985.389 1.942-1.316 56.164-1.344 58.51-.035 3.288.365 38.477-.043 41.62-.719-.007-56.723.138-59.303.138-1.566 0-2.174.245-2.273-1.465-.088-1.475-.361-63.213-.479-63.027"/><path class="st3" d="M50.355 20.126c.086 0-.205-.003-.268 0-.139.005-.238 0-.359.058-.201.097-.365.363-.473.547-.234.402-.266.983-.037 1.399.209.374.555.729 1.049.659.521-.075 1.016-.246 1.264-.75.215-.442.23-.972-.076-1.377-.191-.252-.816-.527-1.129-.567-.029.034-.025-.016-.016.031M41.068 24.821c-.455.149-.756.221-.822.778-.043.393.123.875.568.957 1.148.213 1.287-1.889.178-1.705M45.24 25.121c-.523 0-.494.912-.357 1.041.551.519 10.391.344 10.791.059a.622.622 0 0 0-.26-1.13c-.732-.101-9.617.026-10.174.03"/><path class="st2" d="M45.42 24.403c-.496 0-.967.13-1.217.604-.182.34-.639 2.147 1.518 2.03.373-.021 6.463-.062 6.947-.062.467 0 .928-.029 1.395-.029 1.029 0 2.566-.05 2.516-1.43-.059-1.57-2.088-1.246-3.205-1.195-.624.027-7.583.079-7.954.082-.039 0 0 0-.059.03M52.936 137.451c3.582 1.729 2.596 5.562 2.566 5.809-.045.374-.871 2.377-1.318 2.867-2.121 2.324-5.344 1.436-5.934 1.161-.574-.267-1.156-.616-1.607-1.062-.453-.449-.949-.876-1.227-1.458-1.789-3.734 1.332-6.687 2.115-7.115.762-.418 2.172-.781 2.736-.777.809.007 1.926.219 2.669.575z"/><path class="st2" d="M52.6 136.486c.6.182 1.109.652 1.646.949.262.146 1.084 1.118 1.225 1.354.326.545.604 1.114.869 1.699.141.31.229 1.331.232 1.496 0 .244-.342 2.377-.689 3.062-.357.709-.863 1.323-1.459 1.852-.721.641-1.623 1.088-2.535 1.412-.904.32-2.484.184-3.533-.243-1.449-.589-2.887-1.474-3.57-2.93-1.848-3.925 1.115-7.231 1.998-7.784.357-.224.678-.504 1.053-.692.672-.341 1.4-.415 2.133-.524.754-.115 2.455.242 2.721.35"/></svg>