<svg xmlns="http://www.w3.org/2000/svg" width="75" height="142.333" viewBox="0 0 75 142.333"><g stroke="#3F3832" stroke-miterlimit="10"><path fill="#FFF" d="M49.278 4.117c-.029-.253.057-1.144.023-1.396.799-.179 10.746.129 10.746.129s-.037.944.045 1.312c9.826-.404 11.316 7.627 11.713 9.517.67 3.197.219 110.797.223 114.642.002 2.901-.631 6.92-2.859 8.794-.934.786-3.109 3.406-25.094 2.777-2.963-.084-28.955-.819-32.656-1.355-7.996-1.158-7.18-11.6-7.367-15.396-.434-8.763-.539-67.361-.539-73.196.002.02 0 .413 0 .146.104-.489-.004-1.127-.027-1.615-.169-.047-.316-.007-.486-.054-.074-1.453-.006-2.931-.039-4.394 1.418-.666.547-5.613.555-6.81-.174-.135-.398.117-.453-.137-.275-1.287-.139-3.878-.08-5.024.225.03.484-.273.721-.227-.059-2.461-.191-13.658-.043-13.556.215-3.721-.52-7.325 1.777-10.394C6.612 6.314 8.334 4.9 10.17 4.196c2.153-.825 36.057.012 39.108-.079z"/><path fill="none" d="M63.336 5.79c4.07.243 6.43 4.814 6.703 6.608.486 3.211.494 14.452.418 28.752-.18 34.229.709 86.033 0 89.56-.424 2.112-2.438 5.392-4.221 6.368-1.652.905-3.791 1.192-5.77 1.29-1.115.055-46.301-.848-46.322-.736-6.625-.341-7.734-4.891-8.18-6.084-.389-1.041-1.016-22.935-1.016-25.938 0-2.659-.359-45.107-.359-52.326 0-8.024-.467-34.973.297-40.192.133-.899 1.975-7.058 7.15-7.749.949-.128 48.923.305 51.3.447z"/><path fill="none" d="M6.055 57.333c-.121-3.35-.029-35.148.209-38.678 3.205.004 54.482-.662 58.156-.292 2.381.24 4.479.156 5.047 2.985.389 1.943-1.316 56.164-1.344 58.511-.037 3.288.363 38.476-.045 41.62-.717-.007-56.721.138-59.301.138-1.568 0-2.174.245-2.275-1.465-.088-1.474-.359-63.213-.479-63.027"/><g fill="none"><path stroke-width=".5" d="M38.122 8.575c.084 0-.205-.003-.27 0-.139.005-.236 0-.359.058-.199.097-.363.363-.471.547-.234.402-.266.983-.037 1.399.207.374.555.729 1.049.659.52-.075 1.014-.246 1.264-.75.215-.443.229-.972-.078-1.377-.191-.253-.816-.528-1.129-.568-.027.034-.023-.016-.014.031M28.833 13.271c-.455.149-.754.221-.82.778-.045.393.123.876.568.958 1.148.212 1.287-1.89.178-1.705M33.006 13.57c-.523 0-.494.912-.357 1.041.551.519 10.391.344 10.791.059a.622.622 0 0 0-.262-1.13c-.732-.1-9.615.026-10.172.03"/><path stroke-width=".25" d="M33.186 12.853c-.498 0-.967.129-1.219.604-.182.34-.637 2.148 1.518 2.03.373-.021 6.465-.062 6.949-.062.467 0 .928-.029 1.395-.029 1.029 0 2.566-.05 2.516-1.43-.059-1.571-2.088-1.246-3.205-1.195-.624.026-7.583.079-7.954.082-.041 0 0 0-.061.03M40.702 125.901c3.582 1.728 2.594 5.561 2.564 5.809-.043.374-.869 2.376-1.316 2.866-2.123 2.325-5.346 1.436-5.936 1.162-.572-.267-1.154-.616-1.605-1.062-.453-.449-.949-.876-1.229-1.458-1.789-3.734 1.334-6.687 2.117-7.116.762-.417 2.172-.781 2.736-.776.809.006 1.925.218 2.669.575z"/><path stroke-width=".25" d="M40.366 124.936c.6.181 1.107.652 1.645.949.264.145 1.084 1.118 1.227 1.354.326.544.602 1.114.867 1.699.143.31.23 1.331.234 1.497 0 .243-.344 2.376-.689 3.062-.357.709-.865 1.323-1.459 1.851-.723.64-1.625 1.088-2.535 1.412-.904.321-2.484.184-3.533-.243-1.451-.589-2.887-1.474-3.572-2.93-1.846-3.925 1.117-7.231 2-7.784.355-.224.678-.504 1.051-.693.672-.34 1.4-.415 2.133-.524.754-.115 2.457.243 2.723.35"/></g></g></svg>