<svg id="Capa_1" xmlns="http://www.w3.org/2000/svg" width="437.979" height="805.459" viewBox="0 0 437.979 805.459"><style>.st0,.st1{fill:none;stroke:#3f352e;stroke-width:2;stroke-miterlimit:10}.st1{fill:#fff}</style><path class="st1" d="M280.072 37.382c-.162-1.362.299-6.143.121-7.5 4.289-.959 57.703.691 57.703.691s-.199 5.066.24 7.049c52.77-2.168 60.766 40.953 62.895 51.104 3.604 17.164 1.176 594.943 1.196 615.588.016 15.579-3.388 37.156-15.354 47.219-5.013 4.219-16.69 18.289-134.745 14.916-15.904-.455-155.479-4.398-175.354-7.275-42.937-6.219-38.552-62.287-39.559-82.67-2.328-47.052-2.895-361.707-2.895-393.04.016.105 0 2.211 0 .781.556-2.623-.021-6.047-.142-8.672-.907-.252-1.694-.039-2.606-.29-.394-7.8-.032-15.743-.21-23.593 7.619-3.572 2.937-30.139 2.983-36.568-.934-.718-2.145.631-2.438-.732-1.478-6.908-.739-20.822-.43-26.979 1.206.163 2.602-1.468 3.875-1.219-.32-13.219-1.033-73.338-.236-72.798 1.159-19.979-2.79-39.326 9.549-55.806 6.303-8.407 15.548-15.999 25.406-19.779 11.559-4.435 193.615.051 210.001-.427z"/><path class="st0" d="M355.557 46.362c21.862 1.302 34.525 25.849 36 35.479 2.611 17.247 2.647 77.609 2.238 154.394-.959 183.801 3.808 461.97 0 480.902-2.27 11.344-13.083 28.955-22.664 34.195-8.872 4.855-20.355 6.404-30.98 6.93-5.988.294-248.614-4.555-248.735-3.955-35.569-1.83-41.526-26.264-43.917-32.67-2.092-5.586-5.459-123.153-5.459-139.275 0-14.282-1.93-242.215-1.93-280.983 0-43.081-2.506-187.786 1.594-215.812.713-4.829 10.608-37.903 38.395-41.61 5.092-.68 262.695 1.644 275.458 2.405z"/><path class="st0" d="M47.976 323.13c-.645-17.99-.157-188.732 1.122-207.686 17.21.021 292.553-3.556 312.285-1.571 12.785 1.287 24.049.837 27.096 16.027 2.087 10.433-7.069 301.583-7.216 314.179-.194 17.656 1.956 206.604-.235 223.489-3.854-.039-304.578.742-318.432.742-8.416 0-11.672 1.313-12.213-7.867-.471-7.918-1.935-339.436-2.569-338.436M220.162 61.319c.457 0-1.101-.019-1.442 0-.745.03-1.274 0-1.93.31-1.075.52-1.956 1.952-2.533 2.937-1.259 2.161-1.426 5.277-.2 7.512 1.117 2.007 2.979 3.916 5.632 3.54 2.795-.404 5.449-1.316 6.786-4.023 1.153-2.375 1.232-5.22-.415-7.392-1.028-1.359-4.384-2.835-6.062-3.054-.152.184-.131-.08-.079.171M170.288 86.532c-2.443.802-4.053 1.185-4.41 4.176-.236 2.111.661 4.702 3.052 5.142 6.167 1.141 6.911-10.146.955-9.152M192.695 88.138c-2.811 0-2.654 4.897-1.919 5.591 2.958 2.786 55.794 1.848 57.944.319 2.633-1.859 1.458-5.679-1.4-6.07-3.933-.537-51.636.142-54.625.16"/><path class="st0" d="M193.66 84.288c-2.669 0-5.191.692-6.539 3.241-.976 1.827-3.424 11.534 8.149 10.898 2.003-.11 34.709-.332 37.31-.332 2.507 0 4.981-.154 7.488-.154 5.527 0 13.78-.271 13.509-7.68-.314-8.435-11.212-6.689-17.211-6.422-3.346.15-40.714.432-42.706.449-.215 0 0 0-.32.158M234.016 691.319c19.234 9.281 13.933 29.857 13.776 31.193-.236 2.004-4.672 12.756-7.074 15.389-11.395 12.49-28.699 7.709-31.867 6.238-3.078-1.432-6.204-3.309-8.626-5.707-2.433-2.41-5.097-4.701-6.591-7.827-9.606-20.053 7.158-35.908 11.363-38.209 4.09-2.243 11.663-4.196 14.693-4.168 4.342.038 10.335 1.173 14.326 3.091z"/><path class="st0" d="M232.212 686.14c3.219.966 5.951 3.498 8.836 5.096 1.41.779 5.82 6.002 6.581 7.268 1.751 2.918 3.235 5.98 4.662 9.123.76 1.658 1.232 7.146 1.253 8.035 0 1.307-1.841 12.758-3.702 16.445-1.919 3.807-4.641 7.102-7.834 9.939-3.875 3.436-8.721 5.84-13.613 7.578-4.855 1.727-13.34.99-18.972-1.301-7.788-3.164-15.501-7.916-19.177-15.732-9.916-21.076 5.994-38.832 10.734-41.795 1.914-1.204 3.639-2.709 5.648-3.724 3.607-1.825 7.52-2.224 11.452-2.813 4.048-.616 13.188 1.3 14.615 1.881"/></svg>