<svg xmlns="http://www.w3.org/2000/svg" width="1240" height="18" viewBox="0 0 1240 18"><linearGradient id="a" gradientUnits="userSpaceOnUse" x1="8.983" y1="9.049" x2="1234.102" y2="9.049"><stop offset="0" stop-color="#fff"/><stop offset="1"/></linearGradient><path fill="url(#a)" d="M8.983 9.329c5.871 0 25.062-.049 26.667-.129 1.593-.08 269.834.375 275.204.122 2.118-.101 921.664-1.013 923.248-.428"/><path fill="none" stroke="#3F3832" stroke-width="4" stroke-miterlimit="10" d="M8.983 9.329c5.871 0 25.062-.049 26.667-.129 1.593-.08 269.834.375 275.204.122 2.118-.101 921.664-1.013 923.248-.428"/><path fill="#FFF" d="M8.983 9.329c5.871 0 25.062-.049 26.667-.129 1.593-.08 269.834.375 275.204.122 2.118-.101 921.664-1.013 923.248-.428"/></svg>