<?xml version="1.0" encoding="utf-8"?>
<!-- Generator: Adobe Illustrator 15.0.2, SVG Export Plug-In . SVG Version: 6.00 Build 0)  -->
<!DOCTYPE svg PUBLIC "-//W3C//DTD SVG 1.1//EN" "http://www.w3.org/Graphics/SVG/1.1/DTD/svg11.dtd">
<svg version="1.1" id="Layer_1" xmlns="http://www.w3.org/2000/svg" xmlns:xlink="http://www.w3.org/1999/xlink" x="0px" y="0px"
	 width="540px" height="179.333px" viewBox="0 0 540 179.333" enable-background="new 0 0 540 179.333" xml:space="preserve">
<g>
	<path fill="#660000" d="M30.65,56.62c-3.837,0.925-7.217,1.421-8.436,2.035c-1.219,0.614-1.519,2.278-1.245,3.698
		c0,0,1.075,7.436,2.164,9.073c1.089,1.637,13.46,8.05,13.46,8.05c15.76,8.439,12.923,9.202,12.923,9.202l-16.764,3.947
		c-4.328,1.952-12.89,0.16-14.016,0.26c-1.126,0.1-7.651,4.792-8.185,5.61c-0.534,0.817-1.289,10.216-0.152,11.654
		s2.202,1.55,3.333,2.287c1.473-0.646,3.181-0.661,4.586,0.212c2.308-0.569,4.167-2.005,5.899-3.56l24.554-2.355l2.058,22.938
		c1.769,10.09,7,19.027,11.548,28.054c-4.366-1.974-8.465-4.661-13.142-5.86c-5.671,0.158-11.965,2.823-14.031,8.503
		c-1.708,2.581-0.908,5.676-7.114,5.766c-6.206,0.091-12.865,6.312-5.55,10.108h106.624l19.727,0.374
		c12.293,0.881,25.397-1.454,34.153-8.706c7.525-6.337,12.673-15.445,12.872-26.731c0.197-26.931-18.416-37.03-41.782-42.97
		c-9.504-2.376-20.197-5.148-25.939-12.079c-7.921-9.306-6.139-26.732,2.178-34.652c12.871-12.079,50.296-11.288,50.098,8.515
		c0,0,0.133,4.926,5.258,5.116s4.643-4.919,4.643-4.919c0.198-29.107-48.911-32.672-66.732-15.841
		c-12.277,11.486-14.257,35.841-2.178,48.91c6.93,7.327,18.217,10.891,30.098,13.861c16.437,4.159,34.653,12.872,34.455,34.06
		c-0.198,8.118-3.762,14.652-9.307,19.208c-8.087,6.643-18.175,8.334-28.037,7.382l-20.036,0.075l-7.578,0.232
		c-4.427,0.728-4.077-3.145-0.888-4.761c0,0,8.998-23.283-7.452-78.202C95.508,22.6,72.474,23.884,72.474,23.884
		s-1.13-6.172-5.757-15.248C64.258,3.793,46.183-3.108,35.022,4.355c-6.059,2.961-10.629,8.109-13.166,14.29
		c-0.721,1.412-4.458,5.125-5.233,6.507c0.365,0.668,0.721,1.344,1.086,2.027c6.65,4.13,9.826,10.188,7.586,16.999
		c0,0,1.032,4.969,2.319,7.26c1.287,2.292,4.492,6.233,5.504,6.675c1.012,0.443,8.459,1.62,10.405-1.985
		c2.635-0.518,4.509-0.242,7.282,1.852c3.436,0.711,5.454,2.107,6.629,3.396c1.345,1.475,3.591,8.169,3.591,8.169
		c0.751,3.789-4.39,2.217-6.719,1.799l-12.16-1.037c-3.142,0.773-9.916-0.114-9.977-4.966c-0.012-0.963,1.643-1.857,2.45-3.295
		c0,0,0.54-1,0.16-1.996c-0.379-0.997-1.851-2.254-1.756-1.471c0.095,0.783-0.641,2.325-0.641,2.325l-2.989,2.207l2.895-2.562
		c0,0,0.712-1.661,0.38-2.373C32.337,57.465,30.65,56.62,30.65,56.62z"/>
	<g>
		<rect x="203.333" y="78.332" fill="#CC2F33" width="9" height="97"/>
		<circle fill="#CC2F33" cx="208.197" cy="65.672" r="5.699"/>
	</g>
	<path fill="#CC2F33" d="M258.66,76.677c11.416,0,25.082,4.752,29.241,14.06c5.347-9.308,17.821-13.663,29.108-13.663
		c17.228,0.198,34.456,8.91,34.456,27.523v70.494h-10.099v-70.691c0-12.673-12.278-18.218-24.554-18.218
		c-11.881,0-23.762,5.347-24.554,17.228v71.681c-3.367,0-6.536,0-9.902,0V103.41c-0.792-12.278-12.277-18.021-23.761-17.822
		c-12.673,0.396-25.346,5.84-25.346,18.119v71.385h-10.099c0,0,0-52.851,0-71.072C223.149,85.796,240.465,76.677,258.66,76.677z"/>
	<g>
		<rect x="360.333" y="78.332" fill="#CC2F33" width="10" height="97"/>
		<circle fill="#CC2F33" cx="366.119" cy="65.672" r="5.699"/>
	</g>
	<path fill="#CC2F33" d="M443.691,104.201c0-2.97-0.594-5.742-2.375-8.118c-3.367-4.752-9.506-7.723-16.634-9.109
		c-5.347-0.99-10.099-0.792-15.644,0c-7.128,1.188-14.059,4.159-18.217,10.297l-8.515-5.347
		c11.683-18.81,54.059-19.801,67.128-1.781c3.168,4.554,4.157,9.504,4.157,14.851v52.079c0,7.327,4.753,9.307,9.703,9.307v8.911
		c-8.317,0.594-14.852-1.782-17.822-7.921c-8.515,8.315-19.207,10.297-28.911,10.297c-4.751,0-9.701-0.792-14.453-1.981
		c-26.932-7.325-30.1-39.8-9.901-53.067c12.277-8.317,31.881-9.505,51.483-5.742V104.201z M443.691,125.982
		c-14.652-3.762-33.86-4.157-45.147,3.764c-13.86,9.702-12.672,31.088,6.337,36.435c3.564,0.989,7.524,1.386,11.682,1.386
		c10.299,0,27.129-3.96,27.129-16.634V125.982z"/>
	<path fill="#CC2F33" d="M499.954,76.479c18.268,0,37.228,8.515,37.228,27.92v70.691h-10.099v-70.89
		c0-11.682-13.465-18.019-26.931-18.019s-27.127,6.448-27.127,18.085v70.824h-10.099c0,0,0-56.647,0-70.756
		C462.926,85.037,481.904,76.479,499.954,76.479z"/>
	<g>
		<polygon fill="#333333" points="19.514,107.615 3.31,87.259 3.661,86.031 8.378,84.597 19.921,100.207 19.864,106.387 		"/>
		<polygon fill="#F2F2F2" points="18.518,98.551 18.468,103.933 4.362,86.21 8.47,84.962 		"/>
	</g>
	<g>
		<path fill="#660000" d="M18.766,94.148c2.53,3.291-4.556,4.302-3.543,7.339c1.772,5.567,9.617-2.025,9.364-5.821
			c-2.024-0.759-4.049-0.506-6.074-1.012"/>
	</g>
</g>
</svg>
