<?xml version="1.0" encoding="utf-8"?>
<!-- Generator: Adobe Illustrator 16.0.0, SVG Export Plug-In . SVG Version: 6.00 Build 0)  -->
<!DOCTYPE svg PUBLIC "-//W3C//DTD SVG 1.1//EN" "http://www.w3.org/Graphics/SVG/1.1/DTD/svg11.dtd">
<svg version="1.1" id="Capa_1" xmlns="http://www.w3.org/2000/svg" xmlns:xlink="http://www.w3.org/1999/xlink" x="0px" y="0px"
	 width="414px" height="33px" viewBox="0 0 414 33" enable-background="new 0 0 414 33" xml:space="preserve">
<g>
	<g>
		<path fill="#239392" d="M18.92,6.695v2.139h-5.03v18.83h-2.547V8.834H6.345V6.695H18.92z"/>
		<path fill="#239392" d="M31.87,6.695v2.106h-8.865v6.948h6.979v2.105h-6.979v7.703h9.117v2.105H20.458V6.695H31.87z"/>
		<path fill="#239392" d="M47.867,21.66c-0.566,3.144-1.696,6.443-6.476,6.443c-6.351,0-7.293-6.695-7.293-10.845
			c0-2.86,0.439-11.003,7.387-11.003c5.156,0,6.131,4.464,6.507,6.382l-2.42,0.597c-0.407-2.043-0.974-4.842-4.024-4.842
			c-4.621,0-4.746,6.729-4.746,8.803c0,2.924,0.471,8.771,4.746,8.771c2.359,0,3.27-1.258,4.024-4.873L47.867,21.66z"/>
		<path fill="#239392" d="M50.975,6.695h2.546v8.896h7.641V6.695h2.547v20.969h-2.547v-9.966h-7.641v9.966h-2.546V6.695z"/>
		<path fill="#239392" d="M71.249,6.695l8.016,16.567V6.695h2.199v20.969H78.95L70.211,9.809v17.855h-2.2V6.695H71.249z"/>
		<path fill="#239392" d="M99.851,17.195c0,4.59-1.132,10.908-7.388,10.908c-6.507,0-7.513-6.727-7.513-10.908
			c0-4.401,1.101-10.939,7.513-10.939C98.688,6.256,99.851,12.512,99.851,17.195z M88.786,10.594
			c-0.912,1.761-1.195,4.369-1.195,6.602c0,2.357,0.313,4.873,1.195,6.539c0.817,1.572,1.885,2.264,3.677,2.264
			c1.823,0,2.83-0.881,3.553-2.232c0.942-1.76,1.194-4.4,1.194-6.57c0-2.421-0.313-4.936-1.194-6.569
			c-0.691-1.321-1.634-2.264-3.614-2.264C90.577,8.362,89.54,9.18,88.786,10.594z"/>
		<path fill="#239392" d="M105.978,6.695v18.863h7.953v2.105h-10.499V6.695H105.978z"/>
		<path fill="#239392" d="M129.835,17.195c0,4.59-1.131,10.908-7.388,10.908c-6.507,0-7.513-6.727-7.513-10.908
			c0-4.401,1.101-10.939,7.513-10.939C128.673,6.256,129.835,12.512,129.835,17.195z M118.77,10.594
			c-0.911,1.761-1.194,4.369-1.194,6.602c0,2.357,0.315,4.873,1.194,6.539c0.817,1.572,1.888,2.264,3.678,2.264
			c1.823,0,2.829-0.881,3.552-2.232c0.945-1.76,1.197-4.4,1.197-6.57c0-2.421-0.315-4.936-1.197-6.569
			c-0.69-1.321-1.633-2.264-3.613-2.264C120.562,8.362,119.524,9.18,118.77,10.594z"/>
		<path fill="#239392" d="M146.933,17.289v10.658h-1.761l-0.347-2.861c-0.534,0.975-1.602,3.018-5.029,3.018
			c-6.287,0-7.198-7.293-7.198-10.751c0-4.495,1.099-11.097,7.67-11.097c4.307,0,5.69,2.703,6.478,5.752l-2.296,0.881
			c-0.599-2.106-1.289-4.496-4.243-4.496c-3.711,0-4.905,3.742-4.905,8.74c0,3.301,0.534,8.834,4.905,8.834
			c4.368,0,4.275-5.219,4.243-6.57h-4.274v-2.107H146.933z"/>
		<path fill="#239392" d="M150.669,6.695l4.591,9.651l4.526-9.651h2.327l-5.784,12.104v8.865h-2.547v-8.865l-5.816-12.104H150.669z"
			/>
		<path fill="#239392" d="M182.259,6.695v2.106h-8.456v6.948h6.947v2.105h-6.947v9.809h-2.547V6.695H182.259z"/>
		<path fill="#239392" d="M198.193,17.195c0,4.59-1.131,10.908-7.388,10.908c-6.508,0-7.514-6.727-7.514-10.908
			c0-4.401,1.102-10.939,7.514-10.939C197.031,6.256,198.193,12.512,198.193,17.195z M187.128,10.594
			c-0.911,1.761-1.194,4.369-1.194,6.602c0,2.357,0.315,4.873,1.194,6.539c0.817,1.572,1.887,2.264,3.678,2.264
			c1.823,0,2.829-0.881,3.552-2.232c0.945-1.76,1.196-4.4,1.196-6.57c0-2.421-0.314-4.936-1.196-6.569
			c-0.69-1.321-1.633-2.264-3.613-2.264C188.92,8.362,187.883,9.18,187.128,10.594z"/>
		<path fill="#239392" d="M207.873,6.695c0.345,0,2.767,0.031,4.244,1.164c1.006,0.754,2.012,2.264,2.012,4.558
			c0,3.804-2.547,5.062-3.458,5.502l3.93,9.745h-2.735l-3.521-9.148h-4.024v9.148h-2.546V6.695H207.873z M204.32,8.802v7.608h3.175
			c2.956,0,4.087-1.76,4.087-4.023c0-3.019-2.326-3.585-3.896-3.585H204.32z"/>
		<path fill="#239392" d="M225.691,6.695h2.547v8.896h7.64V6.695h2.545v20.969h-2.545v-9.966h-7.64v9.966h-2.547V6.695z"/>
		<path fill="#239392" d="M245.367,6.695v13.863c0,2.767,0,5.408,3.836,5.408c3.961,0,3.961-2.798,3.961-5.533V6.695h2.388v13.611
			c0,3.146,0,7.797-6.443,7.797c-6.131,0-6.287-4.4-6.287-7.545V6.695H245.367z"/>
		<path fill="#239392" d="M259.887,6.695h3.678l4.937,16.881l4.935-16.881h3.584v20.969h-2.39V9.493l-5.406,18.171h-1.855
			l-5.281-18.201v18.201h-2.2V6.695z"/>
		<path fill="#239392" d="M288.583,6.695l5.596,20.969h-2.578l-1.538-6.004h-6.288l-1.509,6.004h-2.578l5.877-20.969H288.583z
			 M289.527,19.616l-2.61-10.437l-2.64,10.437H289.527z"/>
		<path fill="#239392" d="M300.055,6.695l8.016,16.567V6.695h2.2v20.969h-2.515l-8.739-17.855v17.855h-2.202V6.695H300.055z"/>
		<path fill="#239392" d="M322.432,6.695h5.689c1.919,0,3.867,0,5.156,1.51c1.162,1.352,1.258,3.049,1.258,3.678
			c0,3.395-2.327,4.307-3.206,4.652c0.942,0.252,3.929,1.101,3.929,5.281c0,3.301-1.729,5.848-6.979,5.848h-5.848V6.695z
			 M324.979,15.592h2.798c1.665,0,4.117-0.156,4.117-3.457c0-3.333-2.608-3.333-3.772-3.333h-3.143V15.592z M324.979,25.559h3.237
			c2.61,0,4.402-1.07,4.402-3.867c0-0.881-0.19-2.295-1.479-3.207c-1.006-0.723-2.042-0.786-3.426-0.786h-2.734V25.559z"/>
		<path fill="#239392" d="M350.438,6.695v2.106h-8.866v6.948h6.979v2.105h-6.979v7.703h9.117v2.105h-11.663V6.695H350.438z"/>
		<path fill="#239392" d="M356.028,6.695v20.969h-2.544V6.695H356.028z"/>
		<path fill="#239392" d="M363.605,6.695l8.016,16.567V6.695h2.2v20.969h-2.515l-8.739-17.855v17.855h-2.202V6.695H363.605z"/>
		<path fill="#239392" d="M391.642,17.289v10.658h-1.761l-0.347-2.861c-0.534,0.975-1.602,3.018-5.029,3.018
			c-6.287,0-7.198-7.293-7.198-10.751c0-4.495,1.099-11.097,7.67-11.097c4.307,0,5.69,2.703,6.477,5.752l-2.295,0.881
			c-0.598-2.106-1.289-4.496-4.243-4.496c-3.711,0-4.905,3.742-4.905,8.74c0,3.301,0.534,8.834,4.905,8.834
			c4.368,0,4.275-5.219,4.243-6.57h-4.275v-2.107H391.642z"/>
		<path fill="#239392" d="M405.562,12.135c-0.566-1.698-1.32-3.742-4.212-3.742c-2.861,0-3.489,2.17-3.489,3.27
			c0,2.201,1.729,2.893,4.62,3.994c2.454,0.941,5.975,2.293,5.975,6.317c0,2.608-1.761,6.13-6.697,6.13
			c-1.792,0-3.834-0.533-5.154-1.76c-1.478-1.352-1.855-3.049-2.075-4.182l2.326-0.66c0.315,1.384,1.038,4.465,4.967,4.465
			c3.145,0,3.992-2.201,3.992-3.584c0-2.483-2.137-3.396-4.117-4.15c-2.422-0.943-3.396-1.319-4.497-2.295
			c-1.099-0.975-1.822-2.577-1.822-4.149c0-2.546,1.854-5.532,6.192-5.532c4.715,0,5.816,3.709,6.256,5.219L405.562,12.135z"/>
	</g>
</g>
<g>
</g>
<g>
</g>
<g>
</g>
<g>
</g>
<g>
</g>
<g>
</g>
<g>
</g>
<g>
</g>
<g>
</g>
<g>
</g>
<g>
</g>
<g>
</g>
<g>
</g>
<g>
</g>
<g>
</g>
<g>
</g>
<g>
</g>
<g>
</g>
</svg>
