<svg id="Capa_1" xmlns="http://www.w3.org/2000/svg" width="1089.487" height="591.574" viewBox="0 0 1089.487 591.574"><style>.st0{fill:#3f352e}</style><path class="st0" d="M841.556 562.39c-87.453.004-176.881-5.075-263.365-9.981l-21.037-1.19H70.104c-15.065 1.498-26.455 1.476-37.152 0h-5.564v-52.421c-2.336-54.169-3.955-112.08 0-168.552V144.604c-2.311-24.834-4.205-49.039-2.031-72.168.467-4.977.608-9.993.744-14.851.234-8.438.457-16.406 2.353-23.087.116-.676.247-1.31.397-1.904l-2.122 2.012 2.885-4.371c.584-1.407 1.33-2.531 2.282-3.459 1.732-2.592 3.906-4.666 6.591-6.256l.101-.094-.038.06a24.102 24.102 0 0 1 3.801-1.805c1.854-.697 4.247-1.033 7.328-1.033 2.811 0 5.761.271 8.618.532 2.449.226 4.762.441 6.652.441h798.216c19.584-3.271 40.532-6.463 62.382-6.463 11.281 0 21.958.834 32.628 2.553 6.411 1.031 12.815 2.199 19.01 3.323l3.2.587h76.365V168.9c3.013 30.276 5.599 63.03 4.113 97.372-1.087 25.125-2.355 52.012-4.113 87.164v197.781h-14.119c-60.972 7.518-126.743 11.173-201.075 11.173zM596.06 551.218c80.904 4.568 164.066 8.971 245.496 8.971 66.646 0 126.398-2.938 181.971-8.971H596.06zm450.25-2.203h8.401V393.633c-.157 3.091-.312 6.192-.474 9.285-1.879 36.89-3.824 75.032-5.523 112.05-.255 5.592-.747 11.646-1.221 17.498-.445 5.476-.903 11.137-1.183 16.549zm-489.102 0h485.305l1.77-.217c.282-5.421.738-11.064 1.184-16.529.473-5.827.961-11.855 1.218-17.41 1.697-37.021 3.642-75.171 5.525-112.06.841-16.495 1.68-32.984 2.502-49.425V169.019c-.778-7.837-1.607-15.67-2.438-23.524l-1.168-11.094c-2.331-22.311-2.257-42.993-2.18-64.893.05-14.16.102-28.784-.564-43.818-5.625.719-11.314 1.07-17.361 1.07-16.675 0-32.865-2.688-50.787-5.94H863.321c-3.511.587-7.047 1.191-10.613 1.797l-2.232.385c-44.216 7.532-91.429 11.044-148.584 11.044-43.713 0-88.29-2.087-131.398-4.105-43.002-2.019-87.465-4.101-130.963-4.101-22.028 0-42.109.517-61.393 1.583-13.419.743-27.133 1.82-40.398 2.862-24.555 1.936-49.943 3.936-75.033 3.936-14.227 0-27.162-.626-39.543-1.92-50.041-5.215-99.969-7.968-144.392-7.968-9.776 0-19.376.135-28.539.402-8.477.249-13.96.906-16.817 3.525-1.247 1.919-2.223 4.128-2.979 6.761-.55 3.295-.711 7.705-.924 13.281l-.091 2.391c-.287 7.333-.187 14.854-.095 22.129.048 3.699.095 7.397.095 11.086v60.583l.563 6.01c1.283 13.605 2.493 26.458 3.054 39.122 2.103 47.674 1.597 84.795-1.596 116.812a842.024 842.024 0 0 0-2.021 23.896v168.415c.532 12.32 1.112 24.659 1.688 37.01l.613 13.063c.451.069.902.136 1.357.196h36.934c7.334-.729 14.822-1.755 22.067-2.742 13.876-1.897 28.225-3.858 42.155-3.858 30.084 0 60.66-.562 90.232-1.102 29.485-.542 59.976-1.103 89.885-1.103l2.474.002c79.262.084 158.938 4.212 240.381 8.803zm-468.994 0h429.115c-67.657-3.631-134.231-6.531-200.506-6.601l-2.471-.003c-29.892 0-60.372.56-89.849 1.1-29.582.543-60.167 1.104-90.269 1.104-13.802 0-28.086 1.948-41.9 3.841-1.368.187-2.741.373-4.12.559zm-58.793 0h.272l-.272-5.804v5.804zm-2.033-174.723c-.525 21.407-.438 42.833 0 63.994v-63.994zm1029.361-183.227v120.76c.791-16.58 1.463-31.398 2.079-45.657 1.127-26.068-.097-51.238-2.079-75.103zM29.421 166.648v139.539c3.178-31.9 3.682-68.908 1.585-116.462-.333-7.576-.905-15.228-1.585-23.077zm1020.86-143.434l.054 1.186c.729 15.508.676 30.56.625 45.119-.076 21.831-.152 42.451 2.167 64.634l1.167 11.093c.141 1.322.278 2.647.417 3.966V20.819h-61.786c13.082 2.18 25.461 3.739 38.074 3.739 6.355 0 12.305-.391 18.194-1.194l1.088-.15zM27.301 73.536c-1.342 15.025-.975 30.547.087 46.413V83.907c0-3.447-.04-6.908-.087-10.371zm51.47-51.404c44.485 0 94.482 2.759 144.587 7.977 12.314 1.284 25.186 1.909 39.348 1.909 25.012 0 50.367-1.995 74.889-3.927 13.272-1.043 26.998-2.124 40.438-2.865 19.32-1.069 39.435-1.588 61.497-1.588 43.543 0 88.029 2.085 131.051 4.102 43.087 2.019 87.642 4.105 131.311 4.105 57.047 0 104.16-3.504 148.264-11.021l.031-.005H64.948c-1.974 0-4.332-.217-6.828-.447-2.807-.255-5.717-.527-8.442-.527-2.851 0-5.028.303-6.66.915-2.165.813-4.052 1.86-5.679 3.158 3.253-.894 7.493-1.224 12.839-1.384a996.078 996.078 0 0 1 28.593-.402zm798.224-3.511h91.059c-3.374-.6-6.777-1.187-10.178-1.734-10.575-1.7-21.148-2.527-32.33-2.527-16.768-.001-33.026 1.894-48.551 4.261z"/></svg>