<svg id="Capa_1" xmlns="http://www.w3.org/2000/svg" width="287.487" height="193.574" viewBox="0 0 287.487 193.574"><style>.st0{stroke-dasharray:5.959,5.959}.st0,.st1{fill:none;stroke:#3f3832;stroke-miterlimit:10}</style><path class="st1" d="M250.128 18.369a10.425 10.425 0 0 1 2.453 1.716"/><path class="st0" d="M255.651 25.125c.752 2.268.979 4.564 1.229 6.263.844 5.73-1.938 11.153-3.617 16.788-1.185 3.963-.297 8.1-.297 12.086 0 12.858-9.166 25.512-6.555 38.367 1.516 7.451 5.709 14.617 6.486 22.134.773 7.479-.771 14.997.357 22.366.688 4.493 4.079 10.637 2.35 14.929-2.037 5.059-11.324 4.537-24.816 4.716-51.676.683-104.314-.451-155.246-1.311-20.969-.354-49.336 2.32-52.183-6.887-1.097-3.545 2.608-7.321 2.608-11.03.005-5.813.019-11.628 0-17.44-.057-18.878-4.36-38.894 1.237-57.71 2.493-8.382-.481-15.865-3.843-23.913-2.187-5.238-7.438-17.209-1.337-22.262 9.79-8.107 89.812-3.492 112.224-3.491 38.411.003 77.761-1.104 115.766-.362"/><path class="st1" d="M252.405 20.1c.624.525 1.249 1.174 1.985 2.242"/></svg>