<svg id="Capa_1" xmlns="http://www.w3.org/2000/svg" width="317.487" height="155.574" viewBox="0 0 317.487 155.574"><style>.st0,.st1{fill:none;stroke:#3f3832;stroke-miterlimit:10}.st1{stroke-dasharray:6.0017,6.0017}</style><path class="st0" d="M289.606 16.317a13.23 13.23 0 0 1 2.679 1.342"/><path class="st1" d="M296.1 22.191c.845 1.91 1.105 3.837 1.394 5.267.985 4.903-2.263 9.545-4.226 14.366-1.384 3.391-.347 6.931-.347 10.343 0 11.003-10.706 21.831-7.656 32.832 1.771 6.376 6.669 12.508 7.576 18.939.904 6.4-.899 12.834.419 19.14.803 3.845 4.764 9.103 2.744 12.775-2.381 4.329-13.229 3.882-28.99 4.035-60.366.584-121.856-.386-181.352-1.122-24.496-.302-57.634 1.986-60.959-5.893-1.281-3.033 3.047-6.265 3.047-9.439.006-4.974.022-9.95 0-14.923-.066-16.155-5.094-33.283 1.445-49.386 2.912-7.172-.562-13.576-4.488-20.463-2.555-4.482-8.689-14.727-1.562-19.049 11.437-6.938 104.914-2.989 131.095-2.988 44.915.003 90.929-.945 135.366-.309l.053.031"/><path class="st0" d="M292.279 17.806c.725.448 1.451 1.002 2.307 1.912"/></svg>