<svg xmlns="http://www.w3.org/2000/svg" width="79" height="80.294" viewBox="0 0 79 80.294"><path fill="#6FC0B2" d="M23.672 8.477c.875 21.533-3.039 49.898 1.507 62.259 7.226-6.495 31.646-28.524 42.094-38.36-10.597-10.879-31.008-17.94-44.28-24.969"/><path fill="#3F3832" d="M23.598 6.257c3.692 1.961 7.936 3.911 12.425 5.982 11.432 5.264 24.387 11.234 32.181 19.235l.919.942-.96.903c-12.104 11.392-41.819 38.11-42.118 38.382l-1.422 1.281-.661-1.8c-2.971-8.08-2.448-22.378-1.897-37.51.309-8.517.633-17.322.312-25.145l.021-.003 1.2-2.267zm41.805 26.096c-7.555-7.204-19.698-12.799-30.465-17.759-3.498-1.61-6.846-3.157-9.919-4.689.229 7.539-.072 15.828-.364 23.869-.502 13.724-.977 26.749 1.153 34.655 6.023-5.424 28.644-25.826 39.595-36.076z"/></svg>