<svg xmlns="http://www.w3.org/2000/svg" width="79" height="80.294" viewBox="0 0 79 80.294"><path fill="#6FC0B2" d="M55.55 68.764c-.875-21.533 3.039-49.898-1.507-62.259C46.817 13 22.397 35.029 11.948 44.865c10.598 10.879 31.009 17.94 44.281 24.971"/><path fill="#3F3832" d="M55.624 70.983c-3.691-1.961-7.936-3.911-12.425-5.982-11.432-5.264-24.388-11.234-32.181-19.234l-.918-.943.96-.904C23.164 32.528 52.88 5.81 53.177 5.538l1.424-1.281.66 1.8c2.971 8.08 2.447 22.378 1.896 37.51-.308 8.517-.633 17.323-.312 25.145l-.021.003-1.2 2.268zM13.817 44.888c7.555 7.204 19.698 12.799 30.467 17.759 3.497 1.61 6.843 3.157 9.918 4.689-.229-7.538.072-15.828.363-23.869.502-13.724.977-26.749-1.153-34.653-6.021 5.421-28.643 25.824-39.595 36.074z"/></svg>