<svg xmlns="http://www.w3.org/2000/svg" xmlns:xlink="http://www.w3.org/1999/xlink" width="1368" height="677.966" viewBox="0 0 1368 677.966"><defs><path id="a" d="M0-3.122h1368v675H0z"/></defs><clipPath id="b"><use xlink:href="#a" overflow="visible"/></clipPath><path clip-path="url(#b)" fill="#D7D063" d="M-50.041 653.556c24.415 1.358 54.67.525 77.354-5.679 31.502-8.622 60.792-10.012 94.436-8.61 55.749 2.33 112.832 10.16 168.664 7.379 61.706-3.072 123.07-9.153 185.35-9.153 63.535 0 126.817 2.013 190.109 5.427 37.652 2.032 77.48-18.827 114.878-14.983 27.029 2.778 52.087 9.357 79.806 10.461 55.629 2.214 109.219 12.151 165.268 12.681 42.547.402 84.827 5.798 127.732 3.625 42.838-2.17 87.9-7.295 130.186-14.099 31.016-4.989 60.146 1.131 90.675 2.987-1.611-33.987 10.544-387.789 19.261-645.713H-41.12c-5.965 265.031-14.295 621.203-8.921 655.677z"/></svg>