<svg id="Capa_1" xmlns="http://www.w3.org/2000/svg" xmlns:xlink="http://www.w3.org/1999/xlink" width="1372.87" height="684.574" viewBox="0 0 1372.87 684.574"><style>.st0{clip-path:url(#SVGID_2_);fill:#e0d963}</style><defs><path id="SVGID_1_" d="M2.487-.426h1368v685h-1368z"/></defs><clipPath id="SVGID_2_"><use xlink:href="#SVGID_1_" overflow="visible"/></clipPath><path class="st0" d="M-48.041 656.465c24.415 1.358 54.67.632 77.354-5.572 31.502-8.622 60.792-9.959 94.436-8.557 55.749 2.33 112.832 10.187 168.664 7.405 61.706-3.072 123.07-9.141 185.35-9.141 63.535 0 126.817 2.02 190.109 5.434 37.652 2.032 77.48-18.823 114.878-14.979 27.029 2.778 52.087 9.358 79.806 10.462 55.629 2.214 109.219 12.152 165.268 12.682 42.547.402 84.827 5.799 127.732 3.626 42.838-2.17 87.9-7.295 130.186-14.099 31.016-4.989 60.146.918 90.675 2.774-1.611-33.987 10.544-387.926 19.261-645.926H-39.12c-5.965 265-14.295 621.416-8.921 655.891z"/></svg>