<svg xmlns="http://www.w3.org/2000/svg" width="1363.742" height="663.076" viewBox="0 0 1363.742 663.076"><path fill="#E0D963" d="M684.124 0H-1.507v655.236c11-.94 22.183-2.6 31.827-5.237 31.502-8.622 60.7-10.012 94.344-8.61 55.749 2.33 112.786 10.16 168.618 7.379 61.706-3.072 123.047-9.153 185.327-9.153 63.535 0 126.806 2.013 190.098 5.427 4.119.222 8.26.153 12.424-.112 4.166.266 8.31.334 12.427.112 63.293-3.414 126.573-5.427 190.108-5.427 62.279 0 123.644 6.081 185.349 9.153 55.832 2.781 112.915-5.049 168.663-7.379 33.645-1.401 63.118-.012 94.62 8.61 9.645 2.638 20.196 4.297 32.196 5.237V0h-680.37z"/></svg>