<svg xmlns="http://www.w3.org/2000/svg" width="73.496" height="73.496" viewBox="0 0 73.496 73.496"><path fill="#6FBFB1" stroke="#3F3832" stroke-miterlimit="10" d="M39.685 12.026c2.878-1.077 7.492-.11 10.685.052-1.082 16.233 1.522 33.076.672 49.885-3.228.108-6.812-.834-10.3-1.005-.862-15.917-.458-32.081-.738-48.308.368-.447.124.239.354.384M22.281 12.026c2.876-1.077 7.491-.11 10.683.052-1.085 16.233 1.522 33.076.674 49.885-3.227.108-6.814-.834-10.301-1.005-.865-15.917-.461-32.081-.737-48.308.366-.447.121.239.348.384"/></svg>