<svg id="Capa_1" xmlns="http://www.w3.org/2000/svg" width="123.487" height="100" viewBox="0 0 123.487 100"><style>.st0{fill:#1ec1b3;stroke:#3f352e;stroke-miterlimit:10}</style><path class="st0" d="M67.064 26.926c2.878-1.077 7.492-.11 10.685.052-1.082 16.233 1.522 33.076.672 49.885-3.228.108-6.812-.834-10.3-1.005-.862-15.917-.458-32.081-.738-48.308.368-.447.124.239.354.384M49.661 26.926c2.876-1.077 7.491-.11 10.683.052-1.085 16.233 1.522 33.076.674 49.885-3.227.108-6.814-.834-10.301-1.005-.865-15.917-.461-32.081-.737-48.308.366-.447.121.239.348.384"/></svg>