<svg xmlns="http://www.w3.org/2000/svg" width="166.492" height="163.492" viewBox="0 0 166.492 163.492"><path fill="#DCD76B" d="M87.857 18.543c20.396 0 32.178-2.736 47.583 15.885 10.743 12.981 16.471 28.047 17.841 44.605 5.031 60.858-56.265 94.191-104.244 57.42-26.893-20.605-40.873-60.348-17.264-88.572 15.57-18.615 32.356-31.129 59.116-29.356"/><path fill="#3F3832" d="M92.009 153.471c-15.091 0-30.531-5.297-44.029-15.637-16.449-12.607-27.523-31.449-29.619-50.411-1.678-15.142 2.502-29.204 12.082-40.658C44.424 30.054 61.441 14.86 90.945 16.788c1.3-.015 2.561-.036 3.792-.056 16.22-.278 27.931-.467 42.042 16.588 10.663 12.889 16.799 28.222 18.233 45.569 2.42 29.295-10.004 54.356-33.235 67.04-9.258 5.051-19.432 7.542-29.768 7.542zM86.021 20.096c-25.129 0-40.29 13.804-52.918 28.903-8.955 10.704-12.859 23.859-11.287 38.048 1.988 18.032 12.561 35.987 28.277 48.026 21.963 16.837 48.14 19.749 70.021 7.811 21.99-12.007 33.741-35.824 31.436-63.71-1.374-16.631-7.245-31.308-17.449-43.638-13.045-15.773-22.945-15.619-39.306-15.332-2.204.035-4.511.074-6.938.074v-.159a62.922 62.922 0 0 0-1.836-.023z"/><path fill="#FFF" d="M72.659 49.281c1.006 24.75-3.497 57.354 1.733 71.559 8.303-7.466 36.369-32.784 48.381-44.089-12.181-12.504-35.642-20.622-50.896-28.702"/><path fill="#3F3832" d="M72.575 46.732c4.242 2.249 9.118 4.494 14.279 6.873 13.139 6.049 28.031 12.913 36.987 22.107l1.057 1.085-1.104 1.034c-13.913 13.097-48.064 43.812-48.407 44.119l-1.636 1.472-.761-2.067c-3.414-9.286-2.812-25.721-2.182-43.113.355-9.789.729-19.908.36-28.899l.023-.006 1.384-2.605zm48.05 29.992c-8.685-8.278-22.641-14.712-35.016-20.411-4.023-1.85-7.867-3.628-11.402-5.392.264 8.667-.082 18.193-.418 27.437-.576 15.771-1.124 30.745 1.327 39.832 6.919-6.236 32.921-29.686 45.509-41.466z"/></svg>