<svg xmlns="http://www.w3.org/2000/svg" width="145.492" height="101.995" viewBox="0 0 145.492 101.995"><path fill="#3F3832" d="M113.786 94.313L112 93.381c5.069-9.713 8.242-18.836 9.701-27.891 1.286-8.023 1.218-15.522-.214-22.931-1.099-5.665-3.946-10.345-6.703-14.873-2.434-4.002-4.953-8.139-6.125-12.821l1.954-.488c1.096 4.384 3.424 8.212 5.89 12.263 2.85 4.683 5.795 9.521 6.963 15.536 1.478 7.645 1.55 15.374.22 23.634-1.491 9.272-4.73 18.595-9.9 28.503z"/><path fill="#3F3832" d="M103.234 80.872l-1.784-.931c3.329-6.384 5.414-12.377 6.368-18.326.849-5.26.806-10.173-.134-15.028-.71-3.679-2.577-6.748-4.383-9.716-1.623-2.665-3.297-5.424-4.089-8.571l1.953-.486c.712 2.847 2.241 5.356 3.857 8.015 1.896 3.115 3.857 6.339 4.641 10.378.982 5.089 1.028 10.233.141 15.729-.987 6.164-3.137 12.36-6.57 18.936zM94.857 71.7l-1.786-.93c2.15-4.13 3.496-7.985 4.105-11.796.543-3.379.515-6.532-.086-9.643-.453-2.329-1.647-4.29-2.803-6.19-1.068-1.756-2.174-3.567-2.696-5.666l1.952-.485c.45 1.797 1.428 3.404 2.463 5.103 1.247 2.053 2.54 4.175 3.059 6.857.646 3.346.679 6.726.101 10.345-.65 4.025-2.057 8.082-4.309 12.405z"/><path fill="#6FC0B2" d="M77.733 22.22c-7.215.88-15.608 8.7-22.444 13.171-6.606 4.316-13.416 8.922-21.011 11.131 1.86 4.861 2.33 12.396-.66 17.004 12.34 5.462 27.722 8.592 39.372 15.547-2.286-5.779-2.139-6.672-2.472-11.064"/><path fill="#3F3832" d="M75.013 81.451l-2.54-1.514c-6.926-4.136-15.32-6.943-23.439-9.662-5.344-1.787-10.873-3.639-15.822-5.831l-1.079-.477.642-.99c2.747-4.232 2.339-11.452.562-16.097l-.391-1.021 1.049-.302c7.066-2.057 13.506-6.271 19.728-10.349l1.015-.66c1.798-1.176 3.688-2.576 5.693-4.057 5.713-4.227 11.622-8.596 17.179-9.271l.245 1.995c-5.032.616-10.98 5.016-16.229 8.896-2.027 1.498-3.943 2.917-5.787 4.121l-1.011.661c-6.053 3.967-12.307 8.059-19.251 10.283 1.556 4.819 1.8 11.335-.524 15.875 4.573 1.952 9.465 3.589 14.621 5.315 7.302 2.445 14.822 4.961 21.396 8.467-1.169-3.297-1.268-4.689-1.467-7.526l-.086-1.224 2.006-.149.089 1.229c.236 3.354.313 4.484 2.314 9.537l1.087 2.751z"/><path fill="#6FC0B2" d="M28.077 46.771c3.81.729 5.16 5.225 4.204 9.971-.52 2.591-1.134 5.361-4.601 5.834-9.945.148-5.381-17.55.837-15.73"/><path fill="#3F3832" d="M27.647 63.575c-2.826 0-4.902-1.254-5.974-3.531-1.796-3.825-.396-9.433 2.038-12.274 1.492-1.742 3.301-2.413 5.088-1.891l-.009.026c1.362.387 2.506 1.229 3.328 2.451 1.409 2.095 1.825 5.225 1.15 8.583-.515 2.557-1.215 6.055-5.454 6.633-.054.003-.113.003-.167.003zm-.022-15.851c-.991 0-1.827.704-2.388 1.354-1.977 2.313-3.143 7.126-1.741 10.111.758 1.608 2.192 2.47 4.171 2.38 2.498-.349 3.064-2.217 3.628-5.023.563-2.8.247-5.439-.847-7.065-.629-.938-1.488-1.516-2.559-1.721l.003-.021a2.162 2.162 0 0 0-.267-.015z"/><g><path fill="#3F3832" d="M76.715 81.846c-1.846 0-3.367-.729-4.526-2.157-5.892-7.256-.624-32.284 2.523-47.235.932-4.435 1.815-8.625 1.731-9.502l-.02-.205.062-.193c.334-1.054.873-1.587 1.599-1.587 4.164 0 5.95 28.846 5.97 29.138.661 11.475.704 30.854-6.477 31.689a7.821 7.821 0 0 1-.862.052zm1.653-57.651c-.211 1.623-.777 4.359-1.687 8.672-2.872 13.646-8.216 39.042-2.934 45.553.9 1.11 2.072 1.549 3.601 1.373 1.24-.145 2.292-1.451 3.125-3.884 4.152-12.121.403-44.458-2.105-51.714z"/></g></svg>