<svg id="Capa_1" xmlns="http://www.w3.org/2000/svg" width="88" height="98" viewBox="0 0 88 98"><style>.st0{fill:#1ec1b3}.st1{fill:#3f352e}</style><path class="st0" d="M29.895 73.47c.105-17.279-3.813-39.899-.512-49.932 5.968 5.009 26.145 21.984 34.787 29.577-8.189 9.011-24.352 15.235-34.794 21.229"/><path class="st1" d="M29.895 75.248l-1.042-1.784c.039-6.277-.458-13.329-.945-20.146-.859-12.108-1.668-23.546.487-30.104l.477-1.458 1.179.987c.246.205 24.798 20.8 34.806 29.589l.796.697-.713.785c-6.022 6.625-16.239 11.767-25.255 16.299-3.539 1.782-6.884 3.467-9.79 5.135zm.053-49.874c-1.486 6.391-.745 16.813.032 27.797.458 6.432.929 13.071.952 19.118 2.423-1.313 5.06-2.643 7.815-4.032 8.492-4.271 18.071-9.092 23.927-15.07-9.053-7.911-27.748-23.632-32.726-27.813z"/></svg>